<svg height="512pt" viewBox="0 0 512 512.0126" width="512pt" xmlns="http://www.w3.org/2000/svg"><path d="m153.605469 287.84375h51.199219v70.570312h-51.199219zm0 0" fill="#ffe0b2"/><path d="m329.136719 373.347656c-19.375-25.554687-49.597657-40.554687-81.664063-40.535156h-136.53125c-27.164062-.007812-53.210937 10.777344-72.417968 29.984375-19.207032 19.207031-29.992188 45.253906-29.984376 72.414063v51.203124c.027344 9.414063 7.652344 17.039063 17.066407 17.066407h307.199219c9.414062-.027344 17.039062-7.652344 17.066406-17.066407v-36.695312zm0 0" fill="#ecf0f1"/><path d="m179.207031 503.480469h-153.601562c-9.414063-.027344-17.039063-7.652344-17.066407-17.066407v-51.203124c-.007812-27.160157 10.777344-53.207032 29.984376-72.414063 19.207031-19.207031 45.253906-29.992187 72.417968-29.984375l19.453125 48.640625zm0 0" fill="#f5f5f5"/><path d="m349.871094 449.71875v36.695312c-.027344 9.414063-7.652344 17.039063-17.066406 17.066407h-153.597657l48.808594-122.027344 17.75-44.289063 1.707031-4.351562c32.066406-.019531 62.289063 14.980469 81.664063 40.535156zm0 0" fill="#cfd8dc"/><path d="m326.234375 435.210938v51.203124c-.027344 9.414063-7.652344 17.039063-17.066406 17.066407h-129.960938l48.808594-122.027344 17.75-44.289063c27.660156 12.203126 51.742187 31.265626 69.972656 55.382813zm0 0" fill="#f5f5f5"/><path d="m247.472656 332.8125-19.457031 48.640625c-9.683594 12.398437-24.542969 19.640625-40.277344 19.625h-17.066406c-15.730469.015625-30.59375-7.226563-40.277344-19.625l-19.453125-48.640625zm0 0" fill="#ffe0b2"/><path d="m228.015625 381.453125-48.808594 122.027344-48.8125-122.027344c9.683594 12.398437 24.546875 19.640625 40.277344 19.625h17.066406c15.734375.015625 30.59375-7.226563 40.277344-19.625zm0 0" fill="#009688"/><path d="m409.605469 375.480469c7.835937-15.539063 23.683593-25.414063 41.085937-25.601563 25.285156 0 44.25 16 44.25 48s-18.964844 44.800782-31.605468 57.601563c-12.644532 12.796875-53.730469 48-53.730469 48s-41.085938-35.203125-53.726563-48c-12.644531-12.800781-31.605468-25.601563-31.605468-57.601563s18.960937-48 44.246093-48c17.402344.1875 33.25 10.0625 41.085938 25.601563zm0 0" fill="#f44335"/><path d="m494.941406 397.921875c0 32-18.945312 44.800781-31.574218 57.601563-12.714844 12.796874-53.761719 47.957031-53.761719 47.957031s-4.863281-4.183594-11.773438-10.242188c13.140625-11.433593 33.535157-29.355469 41.8125-37.714843 12.628907-12.800782 31.65625-25.601563 31.65625-57.601563 0-26.539063-13.054687-42.15625-32-46.59375 3.703125-.980469 7.519531-1.46875 11.351563-1.449219 25.34375 0 44.289062 16.042969 44.289062 48.042969zm0 0" fill="#c81e1e"/><path d="m336.304688 167.179688c-3.160157-3.242188-7.503907-5.058594-12.03125-5.035157h-.085938c.085938-1.449219.085938-11.433593.085938-12.796875-1.199219-78.933594-66.136719-141.957031-145.066407-140.800781-78.933593-1.15625-143.867187 61.867187-145.066406 140.800781 0 1.363282 0 11.347656.085937 12.796875h-.085937c-9.398437.070313-17 7.671875-17.066406 17.066407.027343 9.414062 7.652343 17.039062 17.066406 17.066406h19.539063c11.777343 53.589844 63.488281 93.867187 125.527343 93.867187 62.035157 0 113.75-40.277343 125.523438-93.867187h19.542969c9.414062-.027344 17.039062-7.652344 17.066406-17.066406.023437-4.527344-1.792969-8.867188-5.035156-12.03125zm0 0" fill="#fdd7ad"/><path d="m307.207031 173.152344c-.011719 4.050781-.242187 8.09375-.683593 12.117187-.425782 3.757813-1.023438 7.339844-1.792969 11.007813-11.773438 53.589844-63.488281 93.867187-125.523438 93.867187-4.011719 0-7.9375-.167969-11.777343-.425781-56.746094-4.777344-102.742188-43.261719-113.75-93.441406-.765626-3.667969-1.363282-7.25-1.789063-11.007813-.445313-4.023437-.671875-8.066406-.683594-12.117187 0-1.277344 0-2.472656.085938-3.667969v-.085937c.085937-2.472657.253906-4.863282.511719-7.253907.253906-3.070312.765624-6.144531 1.277343-9.214843.09375-.582032.234375-1.152344.429688-1.707032.625-3.167968 1.421875-6.304687 2.386719-9.386718v-.085938c9.132812-20.90625 31.660156-63.058594 67.585937-70.996094 15.027344-2.960937 30.617187-.351562 43.859375 7.339844h.085938c4.070312 2.175781 8.003906 4.597656 11.777343 7.253906 9.5625-7.046875 20.488281-12.019531 32.085938-14.59375 49.832031-10.238281 80.296875 45.824219 91.21875 70.996094v.085938c.96875 3.082031 1.765625 6.21875 2.390625 9.386718.191406.554688.335937 1.125.425781 1.707032.511719 3.070312 1.023437 6.144531 1.28125 9.214843.253906 2.390625.425781 4.78125.511719 7.253907v.085937c.085937 1.195313.085937 2.390625.085937 3.667969zm0 0" fill="#dfc49c"/><path d="m283.570312 173.152344c-.015624 4.050781-.242187 8.09375-.683593 12.117187-.425781 3.757813-1.023438 7.339844-1.792969 11.007813-11.007812 50.179687-57.003906 88.664062-113.664062 93.441406-56.746094-4.777344-102.742188-43.261719-113.75-93.441406-.765626-3.667969-1.363282-7.25-1.789063-11.007813-.445313-4.023437-.671875-8.066406-.683594-12.117187 0-1.277344 0-2.472656.085938-3.667969v-.085937c.085937-2.472657.253906-4.863282.511719-7.253907.253906-3.070312.765624-6.144531 1.277343-9.214843.09375-.582032.234375-1.152344.429688-1.707032.625-3.167968 1.421875-6.304687 2.386719-9.386718v-.085938c9.132812-20.90625 31.660156-63.058594 67.585937-70.996094 11.59375 2.574219 22.523437 7.546875 32.085937 14.59375 3.773438-2.65625 7.703126-5.078125 11.773438-7.253906h.085938c13.246093-7.691406 28.835937-10.300781 43.863281-7.339844 36.007812 7.9375 58.453125 50.089844 67.582031 70.996094v.085938c.96875 3.082031 1.765625 6.21875 2.390625 9.386718.191406.554688.335937 1.125.425781 1.707032.511719 3.070312 1.023438 6.144531 1.28125 9.214843.253906 2.390625.425782 4.78125.511719 7.253907v.085937c.085937 1.195313.085937 2.390625.085937 3.667969zm0 0" fill="#ffe0b2"/><path d="m53.679688 196.277344h-19.539063c-9.414063-.027344-17.039063-7.652344-17.066406-17.066406.066406-9.394532 7.667969-16.996094 17.066406-17.066407h17.664063c-.417969 3.65625-.617188 7.332031-.597657 11.007813.011719 4.050781.238281 8.09375.683594 12.117187.425781 3.757813 1.023437 7.339844 1.789063 11.007813zm0 0" fill="#ffe0b2"/><path d="m341.339844 179.210938c-.027344 9.414062-7.652344 17.039062-17.066406 17.066406h-19.542969c.769531-3.667969 1.367187-7.25 1.792969-11.007813.441406-4.023437.671874-8.066406.683593-12.117187.019531-3.675782-.183593-7.351563-.597656-11.007813h17.664063c9.398437.070313 17 7.671875 17.066406 17.066407zm0 0" fill="#dfc49c"/><path d="m324.273438 149.347656c0 1.363282 0 11.347656-.085938 12.796875h-17.578125c-.257813-3.070312-.769531-6.144531-1.28125-9.214843-.765625-3.753907-1.707031-7.421876-2.816406-11.09375v-.085938c-13.140625-30.207031-54.269531-104.703125-123.304688-56.402344-69.035156-48.300781-110.167969 26.195313-123.308593 56.402344v.085938c-1.109376 3.671874-2.046876 7.339843-2.816407 11.09375-.511719 3.070312-1.023437 6.144531-1.277343 9.214843h-17.578126c-.085937-1.449219-.085937-11.433593-.085937-12.796875 1.199219-78.933594 66.132813-141.957031 145.066406-140.800781 78.929688-1.15625 143.867188 61.867187 145.066407 140.800781zm0 0" fill="#91562d"/><path d="m324.273438 149.347656c0 1.363282 0 11.347656-.085938 12.796875h-17.578125c-.257813-3.070312-.769531-6.144531-1.28125-9.214843-.765625-3.753907-1.707031-7.421876-2.816406-11.09375v-.085938c-.765625-1.789062-1.621094-3.667969-2.558594-5.714844-7.570313-68.878906-63.464844-122.402344-132.609375-126.976562 3.925781-.34375 7.851562-.511719 11.863281-.511719 78.929688-1.15625 143.867188 61.867187 145.066407 140.800781zm0 0" fill="#6d4122"/><path d="m93.871094 145.078125h59.734375c4.714843 0 8.535156 3.820313 8.535156 8.535156v8.53125c0 18.851563-15.28125 34.132813-34.132813 34.132813h-8.535156c-18.851562 0-34.132812-15.28125-34.132812-34.132813v-8.53125c0-4.714843 3.820312-8.535156 8.53125-8.535156zm0 0" fill="#02a9f4"/><path d="m204.804688 145.078125h59.734374c4.714844 0 8.535157 3.820313 8.535157 8.535156v8.53125c0 18.851563-15.285157 34.132813-34.132813 34.132813h-8.535156c-18.851562 0-34.132812-15.28125-34.132812-34.132813v-8.53125c0-4.714843 3.820312-8.535156 8.53125-8.535156zm0 0" fill="#02a9f4"/><path d="m298.671875 435.210938c0 14.140624-11.460937 25.601562-25.597656 25.601562-14.140625 0-25.601563-11.460938-25.601563-25.601562 0-14.136719 11.460938-25.597657 25.601563-25.597657 14.136719 0 25.597656 11.460938 25.597656 25.597657zm0 0" fill="#7f8e94"/><path d="m162.140625 159.414062v2.730469c0 9.054688-3.59375 17.738281-9.996094 24.140625-6.402343 6.402344-15.085937 9.996094-24.136719 9.992188h-8.535156c-5.160156.050781-10.253906-1.152344-14.847656-3.496094 10.878906-21.523438 33.429688-34.609375 57.515625-33.367188zm0 0" fill="#0377bc"/><path d="m273.074219 159.925781v2.21875c0 9.054688-3.59375 17.738281-9.996094 24.140625s-15.085937 9.996094-24.136719 9.992188h-8.535156c-7.550781.03125-14.890625-2.496094-20.820312-7.167969 9.640624-15.785156 28.328124-32.425781 63.488281-29.183594zm0 0" fill="#0377bc"/><path d="m179.207031 298.679688c-70.183593 0-128.5625-48.355469-135.796875-112.476563-1.304687-11.589844-.875-23.308594 1.28125-34.769531.878906-4.351563 1.894532-8.398438 3.046875-12.175782 1.375-4.507812 6.144531-7.046874 10.652344-5.667968 4.507813 1.375 7.046875 6.144531 5.671875 10.652344-1.03125 3.371093-1.902344 6.894531-2.613281 10.417968-1.832031 9.777344-2.191407 19.777344-1.074219 29.664063 6.25 55.445312 57.34375 97.289062 118.832031 97.289062s112.578125-41.84375 118.835938-97.324219c1.121093-9.929687.746093-19.972656-1.109375-29.789062-.679688-3.363281-1.546875-6.886719-2.578125-10.257812-.890625-2.917969-.15625-6.085938 1.921875-8.316407 2.082031-2.226562 5.195312-3.175781 8.164062-2.488281 2.96875.683594 5.347656 2.90625 6.238282 5.820312 1.152343 3.777344 2.167968 7.820313 3.011718 12.015626 1.34375 7.214843 2.027344 14.53125 2.046875 21.867187-.007812 4.351563-.25 8.699219-.730469 13.027344-7.238281 64.15625-65.617187 112.511719-135.800781 112.511719zm0 0"/><path d="m53.679688 204.8125h-19.539063c-14.132813-.015625-25.585937-11.46875-25.601563-25.601562.066407-14.109376 11.488282-25.53125 25.601563-25.597657h17.664063c4.710937 0 8.53125 3.820313 8.53125 8.53125 0 4.714844-3.820313 8.535157-8.53125 8.535157h-17.578126c-2.257812-.039063-4.429687.851562-6.011718 2.457031-1.667969 1.578125-2.613282 3.777343-2.609375 6.074219.007812 4.710937 3.824219 8.527343 8.535156 8.535156h19.539063c4.714843 0 8.535156 3.820312 8.535156 8.53125 0 4.714844-3.820313 8.535156-8.535156 8.535156zm0 0"/><path d="m324.273438 204.8125h-19.542969c-4.710938 0-8.53125-3.820312-8.53125-8.535156 0-4.710938 3.820312-8.53125 8.53125-8.53125h19.542969c4.710937-.007813 8.527343-3.824219 8.53125-8.535156.023437-2.226563-.867188-4.363282-2.457032-5.921876-1.578125-1.671874-3.777344-2.617187-6.074218-2.609374h-17.664063c-4.714844 0-8.535156-3.820313-8.535156-8.535157 0-4.710937 3.820312-8.53125 8.535156-8.53125h17.578125c14.144531.019531 25.621094 11.453125 25.683594 25.597657-.011719 14.132812-11.464844 25.585937-25.597656 25.601562zm0 0"/><path d="m324.199219 170.679688c-.171875 0-.332031 0-.5-.011719-4.703125-.273438-8.296875-4.300781-8.03125-9 .082031-1.605469.070312-11.019531.070312-12.320313-1.277343-74.183594-62.347656-133.34375-136.53125-132.269531-74.1875-1.074219-135.253906 58.085937-136.535156 132.269531 0 1.300782-.007813 10.734375.070313 12.324219.175781 3.042969-1.289063 5.949219-3.839844 7.621094-2.550782 1.671875-5.796875 1.855469-8.519532.480469-2.722656-1.371094-4.507812-4.089844-4.679687-7.136719-.085937-1.507813-.097656-11.871094-.097656-13.289063 1.289062-83.605468 69.992187-150.402344 153.601562-149.3359372 83.609375-1.0664068 152.3125 65.7304692 153.597657 149.3359372 0 1.417969-.011719 11.78125-.09375 13.289063-.261719 4.511719-3.992188 8.039062-8.511719 8.042969zm0 0"/><path d="m55.898438 150.328125c-2.257813.011719-4.425782-.878906-6.027344-2.472656-1.601563-1.59375-2.503906-3.757813-2.503906-6.019531 0-1.199219.238281-2.386719.707031-3.492188 10.242187-23.535156 32.929687-64.574219 69.863281-74.992188 21.144531-5.96875 43.40625-.914062 66.160156 15.003907 3.789063 2.726562 4.679688 7.992187 2.007813 11.816406-2.675781 3.824219-7.929688 4.789063-11.789063 2.164063-18.359375-12.84375-35.769531-17.046876-51.742187-12.5625-31.128907 8.785156-51.371094 48.273437-58.742188 65.132812-1.28125 3.261719-4.425781 5.410156-7.933593 5.421875zm0 0"/><path d="m302.511719 150.328125c-3.667969.011719-6.929688-2.324219-8.097657-5.800781-7.5-17.066406-27.675781-56.03125-58.578124-64.75-15.96875-4.488282-33.378907-.285156-51.738282 12.5625-2.5 1.796875-5.769531 2.113281-8.5625.824218-2.792968-1.289062-4.679687-3.980468-4.929687-7.046874-.253907-3.066407 1.164062-6.03125 3.707031-7.761719 22.757812-15.914063 45-20.964844 66.164062-15.003907 36.933594 10.417969 59.625 51.453126 69.863282 74.992188 1.144531 2.644531.886718 5.6875-.6875 8.101562-1.574219 2.410157-4.257813 3.871094-7.140625 3.882813zm0 0"/><path d="m153.605469 366.945312c-4.710938 0-8.53125-3.820312-8.53125-8.53125v-70.570312c0-4.714844 3.820312-8.535156 8.53125-8.535156 4.714843 0 8.535156 3.820312 8.535156 8.535156v70.570312c0 4.710938-3.820313 8.53125-8.535156 8.53125zm0 0"/><path d="m204.804688 366.945312c-4.710938 0-8.53125-3.820312-8.53125-8.53125v-70.570312c0-4.714844 3.820312-8.535156 8.53125-8.535156 4.714843 0 8.535156 3.820312 8.535156 8.535156v70.570312c0 4.710938-3.820313 8.53125-8.535156 8.53125zm0 0"/><path d="m332.804688 512.011719h-307.199219c-14.132813-.015625-25.5820315-11.46875-25.5976565-25.597657v-51.203124c.0664063-61.238282 49.6914065-110.863282 110.9335935-110.933594h42.664063c4.714843 0 8.535156 3.824218 8.535156 8.535156 0 4.714844-3.820313 8.535156-8.535156 8.535156h-42.664063c-51.820312.058594-93.808594 42.046875-93.867187 93.863282v51.203124c.003906 4.707032 3.820312 8.527344 8.53125 8.53125h307.199219c4.710937-.003906 8.527343-3.824218 8.535156-8.53125v-36.695312c0-4.710938 3.820312-8.53125 8.53125-8.53125 4.714844 0 8.535156 3.820312 8.535156 8.53125v36.695312c-.015625 14.128907-11.46875 25.582032-25.601562 25.597657zm0 0"/><path d="m329.144531 381.878906c-2.667969.007813-5.1875-1.238281-6.800781-3.367187-17.707031-23.492188-45.453125-37.265625-74.871094-37.164063h-42.667968c-4.710938 0-8.53125-3.820312-8.53125-8.535156 0-4.710938 3.820312-8.535156 8.53125-8.535156h42.667968c34.753906-.121094 67.535156 16.148437 88.453125 43.902344 1.964844 2.578124 2.296875 6.046874.855469 8.953124-1.4375 2.902344-4.394531 4.742188-7.636719 4.746094zm0 0"/><path d="m238.683594 363.320312c-2.257813.011719-4.429688-.878906-6.03125-2.472656-1.597656-1.59375-2.5-3.757812-2.503906-6.019531v-.085937c.027343-4.703126 3.859374-8.503907 8.566406-8.484376 4.707031.015626 8.511718 3.839844 8.503906 8.546876-.011719 4.707031-3.828125 8.519531-8.535156 8.519531zm0 0"/><path d="m187.738281 409.613281h-17.066406c-18.355469.035157-35.699219-8.410156-46.984375-22.886719-2.785156-3.710937-2.097656-8.964843 1.550781-11.832031 3.648438-2.867187 8.917969-2.292969 11.863281 1.289063 8.0625 10.34375 20.453126 16.386718 33.570313 16.363281h17.066406c13.117188.023437 25.507813-6.019531 33.574219-16.363281 1.855469-2.476563 4.90625-3.75 7.972656-3.335938 3.066406.417969 5.664063 2.460938 6.792969 5.339844 1.132813 2.882812.613281 6.148438-1.351563 8.539062-11.285156 14.476563-28.628906 22.921876-46.988281 22.886719zm0 0"/><path d="m179.207031 512.011719c-3.488281 0-6.625-2.125-7.925781-5.363281l-68.265625-170.664063c-1.753906-4.378906.375-9.34375 4.753906-11.097656 4.375-1.75 9.34375.378906 11.09375 4.753906l60.34375 150.863281 60.339844-150.863281c1.753906-4.375 6.71875-6.503906 11.097656-4.753906 4.375 1.753906 6.503907 6.71875 4.753907 11.097656l-68.265626 170.664063c-1.300781 3.238281-4.4375 5.363281-7.925781 5.363281zm0 0"/><path d="m273.074219 469.347656c-18.851563 0-34.132813-15.285156-34.132813-34.136718 0-18.851563 15.28125-34.132813 34.132813-34.132813 18.851562 0 34.132812 15.28125 34.132812 34.132813-.023437 18.84375-15.292969 34.113281-34.132812 34.136718zm0-51.203125c-9.425781 0-17.066407 7.640625-17.066407 17.066407 0 9.425781 7.640626 17.066406 17.066407 17.066406s17.066406-7.640625 17.066406-17.066406c-.011719-9.421876-7.644531-17.054688-17.066406-17.066407zm0 0"/><path d="m273.074219 418.144531c-4.714844 0-8.535157-3.820312-8.535157-8.53125v-85.335937c0-4.710938 3.820313-8.53125 8.535157-8.53125 4.710937 0 8.53125 3.820312 8.53125 8.53125v85.335937c0 4.710938-3.820313 8.53125-8.53125 8.53125zm0 0"/><path d="m93.871094 477.878906c-4.710938 0-8.53125-3.820312-8.53125-8.53125 0-4.714844 3.820312-8.535156 8.53125-8.535156 4.710937-.007812 8.527344-3.824219 8.535156-8.535156v-34.132813c-.007812-9.421875-7.644531-17.054687-17.066406-17.066406h-17.066406c-9.421876.011719-17.058594 7.644531-17.066407 17.066406v34.132813c.003907 4.710937 3.824219 8.527344 8.53125 8.535156 4.714844 0 8.535157 3.820312 8.535157 8.535156 0 4.710938-3.820313 8.53125-8.535157 8.53125-14.128906-.015625-25.582031-11.46875-25.597656-25.601562v-34.132813c.019531-18.839843 15.289063-34.109375 34.132813-34.132812h17.066406c18.84375.023437 34.113281 15.292969 34.132812 34.132812v34.132813c-.015625 14.132812-11.46875 25.585937-25.601562 25.601562zm0 0"/><path d="m76.804688 401.078125c-4.710938 0-8.53125-3.820313-8.53125-8.53125v-68.269531c0-4.710938 3.820312-8.53125 8.53125-8.53125 4.714843 0 8.535156 3.820312 8.535156 8.53125v68.269531c0 4.710937-3.820313 8.53125-8.535156 8.53125zm0 0"/><path d="m128.007812 204.8125h-8.535156c-23.550781-.027344-42.636718-19.113281-42.667968-42.667969v-8.53125c.011718-9.421875 7.648437-17.058593 17.066406-17.066406h59.734375c9.421875.007813 17.058593 7.644531 17.066406 17.066406v8.53125c-.027344 23.554688-19.113281 42.640625-42.664063 42.667969zm-34.136718-51.199219v8.53125c.015625 14.132813 11.46875 25.585938 25.601562 25.601563h8.535156c14.128907-.015625 25.582032-11.46875 25.597657-25.601563v-8.53125zm0 0"/><path d="m238.941406 204.8125h-8.535156c-23.550781-.027344-42.640625-19.113281-42.667969-42.667969v-8.53125c.011719-9.421875 7.644531-17.058593 17.066407-17.066406h59.734374c9.421876.007813 17.058594 7.644531 17.066407 17.066406v8.53125c-.027344 23.554688-19.113281 42.640625-42.664063 42.667969zm-34.136718-51.199219v8.53125c.015624 14.132813 11.46875 25.585938 25.601562 25.601563h8.535156c14.128906-.015625 25.582032-11.46875 25.597656-25.601563v-8.53125zm0 0"/><path d="m198.164062 156.929688c-2.109374.003906-4.148437-.78125-5.710937-2.199219-7.378906-7.046875-18.996094-7.046875-26.375 0-3.507813 3.070312-8.832031 2.753906-11.953125-.703125-3.125-3.460938-2.894531-8.789063.515625-11.964844 13.863281-12.9375 35.375-12.9375 49.238281 0 2.621094 2.367188 3.515625 6.101562 2.246094 9.398438-1.265625 3.292968-4.433594 5.46875-7.960938 5.46875zm0 0"/><path d="m51.972656 169.484375c-4.121094.003906-7.660156-2.941406-8.402344-6.996094-.738281-4.058593 1.523438-8.066406 5.382813-9.519531l36.265625-13.738281c2.871094-1.160157 6.136719-.671875 8.546875 1.265625 2.40625 1.941406 3.578125 5.03125 3.058594 8.082031-.519531 3.046875-2.648438 5.574219-5.5625 6.609375l-36.265625 13.738281c-.964844.367188-1.988282.558594-3.023438.558594zm0 0"/><path d="m306.4375 169.484375c-1.03125 0-2.054688-.1875-3.019531-.558594l-36.265625-13.738281c-2.917969-1.035156-5.042969-3.5625-5.5625-6.609375-.519532-3.050781.648437-6.140625 3.058594-8.078125 2.40625-1.941406 5.675781-2.425781 8.542968-1.269531l36.269532 13.738281c3.855468 1.457031 6.117187 5.460938 5.378906 9.519531-.742188 4.054688-4.277344 7-8.402344 6.996094zm0 0"/><path d="m409.605469 512.011719c-2.035157.003906-4.003907-.726563-5.546875-2.054688-1.691406-1.449219-41.503906-35.582031-54.25-48.480469-1.6875-1.707031-3.496094-3.414062-5.351563-5.179687-12.121093-11.472656-28.71875-27.183594-28.71875-58.417969 0-34.339844 20.71875-56.53125 52.78125-56.53125 15.863281-.058594 30.929688 6.960938 41.085938 19.148438 10.160156-12.1875 25.222656-19.207032 41.089843-19.148438 32.0625 0 52.777344 22.191406 52.777344 56.53125 0 31.230469-16.59375 46.945313-28.710937 58.417969-1.859375 1.761719-3.671875 3.46875-5.355469 5.179687-12.746094 12.902344-52.558594 47.039063-54.253906 48.480469-1.542969 1.328125-3.511719 2.058594-5.546875 2.054688zm-41.085938-153.597657c-22.695312 0-35.714843 14.382813-35.714843 39.464844 0 23.886719 11.886718 35.140625 23.382812 46.027344 2 1.894531 3.945312 3.734375 5.761719 5.578125 9.503906 9.621094 36.050781 32.707031 47.65625 42.730469 11.605469-10.023438 38.15625-33.109375 47.660156-42.734375 1.816406-1.839844 3.761719-3.683594 5.761719-5.578125 11.496094-10.882813 23.378906-22.136719 23.378906-46.023438 0-25.082031-13.015625-39.464844-35.710938-39.464844-14.148437.222657-27.011718 8.242188-33.4375 20.84375-1.597656 2.707032-4.507812 4.371094-7.652343 4.371094s-6.050781-1.664062-7.648438-4.371094c-6.429687-12.601562-19.292969-20.621093-33.4375-20.84375zm0 0"/><path d="m409.605469 460.8125-.328125-.007812c-3.113282-.121094-5.910156-1.925782-7.304688-4.707032l-17.964844-35.941406-9.433593 18.875c-1.449219 2.890625-4.402344 4.714844-7.632813 4.714844h-30.550781c-4.714844 0-8.535156-3.820313-8.535156-8.535156 0-4.710938 3.820312-8.53125 8.535156-8.53125h25.273437l14.710938-29.417969c1.601562-2.6875 4.5-4.335938 7.632812-4.335938 3.128907 0 6.03125 1.648438 7.632813 4.335938l18.648437 37.296875 17.605469-29.335938c1.5-2.511718 4.1875-4.074218 7.109375-4.140625 2.957032-.214843 5.78125 1.253907 7.304688 3.796875l14.53125 21.800782h46.632812c4.714844 0 8.535156 3.820312 8.535156 8.53125 0 4.714843-3.820312 8.535156-8.535156 8.535156h-51.199218c-2.851563 0-5.519532-1.425782-7.101563-3.800782l-9.585937-14.375-18.664063 31.105469c-1.542969 2.566407-4.320313 4.136719-7.316406 4.136719zm0 0"/></svg>