<svg height="512pt" viewBox="0 0 512 512.0126" width="512pt" xmlns="http://www.w3.org/2000/svg"><path d="m329.136719 373.347656c-3.5-4.613281-7.382813-8.925781-11.605469-12.886718 25.34375-19.882813 30.464844-57.003907 15.273438-87.382813-17.066407-34.132813-8.53125-76.800781-8.53125-76.800781 9.414062-.027344 17.039062-7.652344 17.066406-17.066406-.066406-9.394532-7.667969-16.996094-17.066406-17.066407h-.085938c.085938-1.449219.085938-11.433593.085938-12.796875-1.199219-78.933594-66.136719-141.957031-145.066407-140.800781-78.933593-1.15625-143.867187 61.867187-145.066406 140.800781 0 1.363282 0 11.347656.085937 12.796875h-.085937c-9.398437.070313-17 7.671875-17.066406 17.066407.027343 9.414062 7.652343 17.039062 17.066406 17.066406 0 0 8.53125 42.667968-8.535156 76.800781-15.1875 30.378906-10.070313 67.585937 15.359375 87.382813-20.722656 19.332031-32.46875 46.410156-32.425782 74.75v51.203124c.027344 9.414063 7.652344 17.039063 17.066407 17.066407h307.199219c9.414062-.027344 17.039062-7.652344 17.066406-17.066407v-36.695312zm0 0" fill="#fdd7ad"/><path d="m324.273438 149.347656c0 1.363282 0 11.347656-.085938 12.796875h-17.578125c-.015625-.402343-.074219-.800781-.171875-1.191406-.253906-2.648437-.683594-5.378906-1.109375-8.023437-.511719-2.472657-1.109375-4.949219-1.792969-7.421876 0-.085937-.082031-.171874-.082031-.257812-5.683594-12.378906-13.035156-23.917969-21.847656-34.304688-70.65625 5.886719-108.882813-20.734374-125.609375-37.800781-4.171875-4.003906-7.839844-8.503906-10.921875-13.398437-1.175781 3.527344-2.8125 6.882812-4.867188 9.984375-7.847656 12.628906-27.21875 34.390625-71.507812 47.273437-2.902344.9375-5.886719 1.707032-8.960938 2.476563l-4.519531 24.574219v.085937c-.171875.769531-.429688 1.621094-.597656 2.390625-.597656 2.132812-1.109375 4.265625-1.539063 6.398438-.425781 2.644531-.851562 5.375-1.109375 8.023437-.097656.390625-.152344.789063-.167968 1.191406h-17.578126c-.085937-1.449219-.085937-11.433593-.085937-12.796875 1.199219-78.933594 66.132813-141.957031 145.066406-140.800781 78.929688-1.15625 143.867188 61.867187 145.066407 140.800781zm0 0" fill="#91562d"/><path d="m324.273438 149.347656c0 1.363282 0 11.347656-.085938 12.796875h-17.578125c-.015625-.402343-.074219-.800781-.171875-1.191406-.253906-2.648437-.683594-5.378906-1.109375-8.023437-.511719-2.472657-1.109375-4.949219-1.792969-7.421876 0-.085937-.082031-.171874-.082031-.257812-.886719-2.597656-2-5.109375-3.328125-7.507812-6.8125-69.605469-62.996094-124.058594-132.78125-128.683594 3.925781-.34375 7.851562-.511719 11.863281-.511719 78.929688-1.15625 143.867188 61.867187 145.066407 140.800781zm0 0" fill="#6d4122"/><path d="m317.53125 360.460938h-.085938c-18.953124-17.789063-43.980468-27.675782-69.972656-27.648438h-136.53125c-26-.058594-51.039062 9.832031-69.976562 27.648438-25.429688-19.796876-30.546875-57.003907-15.359375-87.382813 17.066406-34.132813 8.535156-76.800781 8.535156-76.800781l18.859375-3.496094c.167969 1.195312.425781 2.304688.679688 3.496094 11.777343 53.589844 63.488281 93.867187 125.527343 93.867187 62.035157 0 113.75-40.277343 125.523438-93.867187h19.542969s-8.535157 42.667968 8.53125 76.800781c15.191406 30.378906 10.070312 67.5-15.273438 87.382813zm0 0" fill="#a0522d"/><path d="m317.53125 360.460938h-.085938c-4.097656-3.847657-8.523437-7.328126-13.226562-10.410157 16.089844-22.652343 18.003906-52.445312 4.949219-76.972656-8.171875-18.078125-11.804688-37.882813-10.582031-57.683594 2.648437-6.164062 4.707031-12.5625 6.144531-19.117187h19.542969s-8.535157 42.667968 8.53125 76.800781c15.191406 30.378906 10.070312 67.5-15.273438 87.382813zm0 0" fill="#783e22"/><path d="m153.605469 287.84375h51.199219v70.570312h-51.199219zm0 0" fill="#ffe0b2"/><path d="m179.207031 503.480469h-153.601562c-9.414063-.027344-17.039063-7.652344-17.066407-17.066407v-51.203124c.011719-56.546876 45.851563-102.386719 102.402344-102.398438l19.453125 48.640625zm0 0" fill="#f5f5f5"/><path d="m349.871094 449.71875v36.695312c-.027344 9.414063-7.652344 17.039063-17.066406 17.066407h-153.597657l48.808594-122.027344 18.433594-46.082031 1.023437-2.558594c25.992188-.027344 51.019532 9.859375 69.972656 27.648438h.085938c4.222656 3.960937 8.105469 8.273437 11.605469 12.886718zm0 0" fill="#cfd8dc"/><path d="m326.234375 426.679688v59.734374c-.027344 9.414063-7.652344 17.039063-17.066406 17.066407h-129.960938l48.808594-122.027344 18.433594-46.082031c17.742187 3.992187 34.09375 12.652344 47.359375 25.089844h.085937c4.222657 3.960937 8.105469 8.273437 11.605469 12.886718zm0 0" fill="#f5f5f5"/><path d="m247.472656 332.8125-19.457031 48.640625c-9.683594 12.398437-24.542969 19.640625-40.277344 19.625h-17.066406c-15.730469.015625-30.59375-7.226563-40.277344-19.625l-19.453125-48.640625zm0 0" fill="#ffe0b2"/><path d="m228.015625 381.453125-48.808594 122.027344-48.8125-122.027344c9.683594 12.398437 24.546875 19.640625 40.277344 19.625h17.066406c15.734375.015625 30.59375-7.226563 40.277344-19.625zm0 0" fill="#009688"/><path d="m409.605469 375.480469c7.835937-15.539063 23.683593-25.414063 41.085937-25.601563 25.285156 0 44.25 16 44.25 48s-18.964844 44.800782-31.605468 57.601563c-12.644532 12.796875-53.730469 48-53.730469 48s-41.085938-35.203125-53.726563-48c-12.644531-12.800781-31.605468-25.601563-31.605468-57.601563s18.960937-48 44.246093-48c17.402344.1875 33.25 10.0625 41.085938 25.601563zm0 0" fill="#f44335"/><path d="m307.207031 173.152344c-.011719 4.050781-.242187 8.09375-.683593 12.117187-.425782 3.757813-1.023438 7.339844-1.792969 11.007813-11.773438 53.589844-63.488281 93.867187-125.523438 93.867187-4.011719 0-7.9375-.167969-11.777343-.425781-56.746094-4.777344-102.742188-43.261719-113.75-93.441406-.253907-1.191406-.511719-2.300782-.679688-3.496094-.085938-.683594-.257812-1.28125-.34375-1.964844-.253906-1.789062-.511719-3.667968-.765625-5.546875-.445313-4.023437-.671875-8.066406-.683594-12.117187-.019531-3.675782.179688-7.351563.597657-11.007813.015624-.402343.070312-.800781.167968-1.191406.257813-2.648437.683594-5.378906 1.109375-8.023437.429688-2.132813.941407-4.265626 1.539063-6.398438.167968-.769531.425781-1.621094.597656-2.390625v-.085937l4.519531-24.574219c3.074219-.769531 6.058594-1.539063 8.960938-2.476563 37.292969-10.835937 56.917969-27.988281 66.902343-40.703125 1.664063-2.097656 3.203126-4.292969 4.605469-6.570312 2.054688-3.101563 3.691407-6.457031 4.867188-9.984375 3.082031 4.894531 6.75 9.394531 10.921875 13.398437 14.078125 14.335938 43.347656 35.496094 94.378906 38.3125 2.644531.171875 5.375.257813 8.191406.257813 7.6875.15625 15.378906-.101563 23.039063-.769532 8.8125 10.386719 16.164062 21.925782 21.847656 34.304688 0 .085938.082031.171875.082031.257812.683594 2.472657 1.28125 4.949219 1.792969 7.421876.425781 2.644531.855469 5.375 1.109375 8.023437.097656.390625.15625.789063.171875 1.191406.414063 3.65625.617187 7.332031.597656 11.007813zm0 0" fill="#dfc49c"/><path d="m283.570312 173.152344c-.015624 4.050781-.242187 8.09375-.683593 12.117187-.425781 3.757813-1.023438 7.339844-1.792969 11.007813-11.007812 50.179687-57.003906 88.664062-113.664062 93.441406-56.746094-4.777344-102.742188-43.261719-113.75-93.441406-.253907-1.191406-.511719-2.300782-.679688-3.496094-.085938-.683594-.257812-1.28125-.34375-1.964844-.253906-1.789062-.511719-3.667968-.765625-5.546875-.445313-4.023437-.671875-8.066406-.683594-12.117187-.019531-3.675782.179688-7.351563.597657-11.007813.015624-.402343.070312-.800781.167968-1.191406.257813-2.648437.683594-5.378906 1.109375-8.023437.429688-2.132813.941407-4.265626 1.539063-6.398438.167968-.769531.425781-1.621094.597656-2.390625v-.085937l4.519531-24.574219c3.074219-.769531 6.058594-1.539063 8.960938-2.476563 37.292969-10.835937 56.917969-27.988281 66.902343-40.703125 17.40625 16.296875 52.992188 38.398438 114.773438 35.15625 2.472656-.085937 5.035156-.253906 7.59375-.511719.222656.238282.421875.496094.597656.769532 8.625 10.121094 15.777344 21.410156 21.246094 33.535156 0 .085938.085938.171875.085938.257812.683593 2.472657 1.28125 4.949219 1.792968 7.421876.425782 2.644531.855469 5.375 1.109375 8.023437.097657.390625.15625.789063.171875 1.191406.414063 3.65625.613282 7.332031.597656 11.007813zm0 0" fill="#ffe0b2"/><path d="m53.679688 196.277344h-19.539063c-9.414063-.027344-17.039063-7.652344-17.066406-17.066406.066406-9.394532 7.667969-16.996094 17.066406-17.066407h17.664063c-.417969 3.65625-.617188 7.332031-.597657 11.007813.011719 4.050781.238281 8.09375.683594 12.117187.425781 3.757813 1.023437 7.339844 1.789063 11.007813zm0 0" fill="#ffe0b2"/><path d="m341.339844 179.210938c-.027344 9.414062-7.652344 17.039062-17.066406 17.066406h-19.542969c.769531-3.667969 1.367187-7.25 1.792969-11.007813.441406-4.023437.671874-8.066406.683593-12.117187.019531-3.675782-.183593-7.351563-.597656-11.007813h17.664063c9.398437.070313 17 7.671875 17.066406 17.066407zm0 0" fill="#dfc49c"/><path d="m162.140625 153.613281v8.53125c0 9.054688-3.59375 17.738281-9.996094 24.140625-6.402343 6.402344-15.085937 9.996094-24.136719 9.992188h-8.535156c-5.160156.050781-10.253906-1.152344-14.847656-3.496094-11.796875-5.640625-19.296875-17.558594-19.285156-30.636719v-8.53125c.011718-4.707031 3.824218-8.519531 8.53125-8.535156h59.734375c4.707031.015625 8.519531 3.828125 8.535156 8.535156zm0 0" fill="#02a9f4"/><path d="m273.074219 153.613281v8.53125c0 9.054688-3.59375 17.738281-9.996094 24.140625s-15.085937 9.996094-24.136719 9.992188h-8.535156c-18.8125-.085938-34.042969-15.316406-34.132812-34.132813v-8.53125c.011718-4.707031 3.824218-8.519531 8.53125-8.535156h59.734374c4.707032.015625 8.519532 3.828125 8.535157 8.535156zm0 0" fill="#02a9f4"/><path d="m298.671875 435.210938c0 14.140624-11.460937 25.601562-25.597656 25.601562-14.140625 0-25.601563-11.460938-25.601563-25.601562 0-14.136719 11.460938-25.597657 25.601563-25.597657 14.136719 0 25.597656 11.460938 25.597656 25.597657zm0 0" fill="#7f8e94"/><path d="m162.140625 159.414062v2.730469c0 9.054688-3.59375 17.738281-9.996094 24.140625-6.402343 6.402344-15.085937 9.996094-24.136719 9.992188h-8.535156c-5.160156.050781-10.253906-1.152344-14.847656-3.496094 10.878906-21.523438 33.429688-34.609375 57.515625-33.367188zm0 0" fill="#0377bc"/><path d="m273.074219 159.925781v2.21875c0 9.054688-3.59375 17.738281-9.996094 24.140625s-15.085937 9.996094-24.136719 9.992188h-8.535156c-7.550781.03125-14.890625-2.496094-20.820312-7.167969 9.640624-15.785156 28.328124-32.425781 63.488281-29.183594zm0 0" fill="#0377bc"/><path d="m494.941406 397.921875c0 32-18.945312 44.800781-31.574218 57.601563-12.714844 12.796874-53.761719 47.957031-53.761719 47.957031s-4.863281-4.183594-11.773438-10.242188c13.140625-11.433593 33.535157-29.355469 41.8125-37.714843 12.628907-12.800782 31.65625-25.601563 31.65625-57.601563 0-26.539063-13.054687-42.15625-32-46.59375 3.703125-.980469 7.519531-1.46875 11.351563-1.449219 25.34375 0 44.289062 16.042969 44.289062 48.042969zm0 0" fill="#c81e1e"/><path d="m53.765625 204.8125h-19.625c-14.132813-.015625-25.585937-11.46875-25.601563-25.601562.066407-14.109376 11.488282-25.53125 25.601563-25.597657h17.664063c4.710937 0 8.53125 3.820313 8.53125 8.53125 0 4.714844-3.820313 8.535157-8.53125 8.535157h-17.578126c-2.257812-.039063-4.429687.851562-6.011718 2.457031-1.667969 1.578125-2.613282 3.777343-2.609375 6.074219.007812 4.710937 3.824219 8.527343 8.535156 8.535156h19.625c4.714844 0 8.535156 3.820312 8.535156 8.53125 0 4.714844-3.820312 8.535156-8.535156 8.535156zm0 0"/><path d="m324.273438 204.8125h-19.542969c-4.710938 0-8.53125-3.820312-8.53125-8.535156 0-4.710938 3.820312-8.53125 8.53125-8.53125h19.542969c4.710937-.007813 8.527343-3.824219 8.53125-8.535156.023437-2.226563-.867188-4.363282-2.457032-5.921876-1.578125-1.671874-3.777344-2.617187-6.074218-2.609374h-17.664063c-4.714844 0-8.535156-3.820313-8.535156-8.535157 0-4.710937 3.820312-8.53125 8.535156-8.53125h17.578125c14.144531.019531 25.621094 11.453125 25.683594 25.597657-.011719 14.132812-11.464844 25.585937-25.597656 25.601562zm0 0"/><path d="m324.199219 170.679688c-.171875 0-.332031 0-.5-.011719-4.703125-.273438-8.296875-4.300781-8.03125-9 .082031-1.605469.070312-11.019531.070312-12.320313-1.277343-74.183594-62.347656-133.34375-136.53125-132.269531-74.1875-1.074219-135.253906 58.085937-136.535156 132.269531 0 1.300782-.007813 10.734375.070313 12.324219.175781 3.042969-1.289063 5.949219-3.839844 7.621094-2.550782 1.671875-5.796875 1.855469-8.519532.480469-2.722656-1.371094-4.507812-4.089844-4.679687-7.136719-.085937-1.507813-.097656-11.871094-.097656-13.289063 1.289062-83.605468 69.992187-150.402344 153.601562-149.3359372 83.609375-1.0664068 152.3125 65.7304692 153.597657 149.3359372 0 1.417969-.011719 11.78125-.09375 13.289063-.261719 4.511719-3.992188 8.039062-8.511719 8.042969zm0 0"/><path d="m153.605469 366.945312c-4.710938 0-8.53125-3.820312-8.53125-8.53125v-70.570312c0-4.714844 3.820312-8.535156 8.53125-8.535156 4.714843 0 8.535156 3.820312 8.535156 8.535156v70.570312c0 4.710938-3.820313 8.53125-8.535156 8.53125zm0 0"/><path d="m204.804688 366.945312c-4.710938 0-8.53125-3.820312-8.53125-8.53125v-70.570312c0-4.714844 3.820312-8.535156 8.53125-8.535156 4.714843 0 8.535156 3.820312 8.535156 8.535156v70.570312c0 4.710938-3.820313 8.53125-8.535156 8.53125zm0 0"/><path d="m332.804688 512.011719h-307.199219c-14.132813-.015625-25.5820315-11.46875-25.5976565-25.597657v-51.203124c.0664063-61.238282 49.6914065-110.863282 110.9335935-110.933594h42.664063c4.714843 0 8.535156 3.824218 8.535156 8.535156 0 4.714844-3.820313 8.535156-8.535156 8.535156h-42.664063c-51.820312.058594-93.808594 42.046875-93.867187 93.863282v51.203124c.003906 4.707032 3.820312 8.527344 8.53125 8.53125h307.199219c4.710937-.003906 8.527343-3.824218 8.535156-8.53125v-36.695312c0-4.710938 3.820312-8.53125 8.53125-8.53125 4.714844 0 8.535156 3.820312 8.535156 8.53125v36.695312c-.015625 14.128907-11.46875 25.582032-25.601562 25.597657zm0 0"/><path d="m329.136719 381.878906c-2.644531.003906-5.140625-1.21875-6.753907-3.3125-3.074218-4.003906-6.441406-7.78125-10.070312-11.292968-.246094-.183594-.484375-.378907-.707031-.589844-17.359375-16.324219-40.304688-25.390625-64.132813-25.335938h-42.667968c-4.710938 0-8.53125-3.820312-8.53125-8.535156 0-4.710938 3.820312-8.535156 8.53125-8.535156h42.667968c27.851563-.054688 54.691406 10.421875 75.136719 29.332031.265625.195313.523437.40625.761719.632813 4.53125 4.289062 8.714844 8.933593 12.515625 13.882812 1.988281 2.574219 2.34375 6.054688.910156 8.976562-1.429687 2.921876-4.398437 4.773438-7.652344 4.777344zm0 0"/><path d="m40.960938 368.992188c-1.898438.003906-3.742188-.628907-5.238282-1.796876-27.824218-21.660156-35.289062-62.847656-17.75-97.933593 15.507813-31.011719 7.875-70.921875 7.796875-71.320313-.921875-4.621094 2.078125-9.117187 6.699219-10.039062s9.117188 2.078125 10.039062 6.703125c.367188 1.863281 8.898438 45.957031-9.269531 82.289062-13.914062 27.835938-8.460937 60.148438 12.972657 76.835938 2.875 2.238281 4.011718 6.058593 2.828124 9.503906-1.1875 3.449219-4.429687 5.761719-8.074218 5.761719zm0 0"/><path d="m317.453125 368.992188c-3.644531.003906-6.890625-2.3125-8.074219-5.757813-1.183594-3.449219-.050781-7.265625 2.828125-9.507813 21.429688-16.6875 26.878907-49 12.96875-76.832031-18.164062-36.332031-9.636719-80.429687-9.265625-82.292969.921875-4.621093 5.414063-7.621093 10.035156-6.699218 4.625.921875 7.625 5.414062 6.703126 10.039062-.082032.398438-7.714844 40.308594 7.792968 71.320313 17.539063 35.082031 10.078125 76.269531-17.746094 97.933593-1.5 1.167969-3.34375 1.800782-5.242187 1.796876zm0 0"/><path d="m179.207031 298.679688c-9.109375.011718-18.199219-.804688-27.160156-2.445313-52.035156-8.300781-94.042969-46.960937-106.621094-98.132813-.023437-.109374-.042969-.21875-.0625-.332031l-.03125-.160156c-.820312-3.746094-1.464843-7.496094-1.917969-11.335937-.484374-4.355469-.730468-8.734376-.742187-13.121094-.015625-3.894532.1875-7.785156.613281-11.65625.046875-.683594.140625-1.359375.285156-2.03125.1875-2.164063.636719-5.078125 1.089844-7.902344.652344-3.269531 1.40625-6.191406 2.175782-9.097656l4.511718-24.53125c.605469-3.300782 3.089844-5.941406 6.351563-6.742188 67.800781-16.714844 79.066406-53.433594 79.167969-53.804687.945312-3.300781 3.777343-5.710938 7.1875-6.121094 3.40625-.410156 6.730468 1.261719 8.429687 4.246094 1.289063 2.203125 33.15625 54.84375 128.417969 46.925781 2.769531-.238281 5.480468.894531 7.257812 3.035156 9.671875 11.242188 17.597656 23.875 23.515625 37.472656.816407 2.945313 1.464844 5.609376 2.011719 8.269532.492188 3.011718.921875 5.785156 1.203125 8.472656.117187.597656.195313 1.199219.234375 1.808594.429688 3.871094.632812 7.761718.613281 11.65625-.007812 4.351562-.253906 8.703125-.730469 13.027344-.445312 3.867187-1.0625 7.660156-1.84375 11.375-.023437.195312-.0625.382812-.101562.5625-12.65625 51.148437-54.664062 89.773437-106.691406 98.113281-8.960938 1.644531-18.054688 2.464843-27.164063 2.449219zm-117.09375-104.160157c11.148438 44.433594 47.796875 77.882813 93.058594 84.933594 15.898437 2.871094 32.179687 2.871094 48.078125-.003906 45.132812-7.078125 81.71875-40.339844 93.058594-84.59375.019531-.152344.046875-.300781.078125-.441407.710937-3.328124 1.265625-6.722656 1.660156-10.125.40625-3.699218.617187-7.414062.625-11.136718.019531-3.339844-.160156-6.679688-.535156-10.003906-.015625-.140626-.03125-.28125-.039063-.425782-.058594-.316406-.132812-.757812-.148437-.9375-.242188-2.476562-.644531-5.015625-1.046875-7.484375-.40625-1.941406-.957032-4.226562-1.589844-6.519531-4.527344-10.09375-10.425781-19.511719-17.53125-27.988281-76.023438 4.980469-115.253906-26.257813-131.261719-44.101563-9.566406 14.683594-31.535156 37.667969-79.371093 50.6875l-3.476563 18.886719c-.046875.359375-.113281.71875-.207031 1.066406-.726563 2.730469-1.449219 5.457031-2.011719 8.269531-.347656 2.160157-.746094 4.707032-.988281 7.175782-.027344.257812-.097656.683594-.148438.980468l-.039062.390626c-.378906 3.324218-.558594 6.664062-.539063 10.003906.011719 3.746094.222657 7.488281.632813 11.210937.386718 3.207031.941406 6.4375 1.648437 9.664063.019531.109375.046875.222656.0625.335937zm0 0"/><path d="m273.074219 469.347656c-18.851563 0-34.132813-15.285156-34.132813-34.136718 0-18.851563 15.28125-34.132813 34.132813-34.132813 18.851562 0 34.132812 15.28125 34.132812 34.132813-.023437 18.84375-15.292969 34.113281-34.132812 34.136718zm0-51.203125c-9.425781 0-17.066407 7.640625-17.066407 17.066407 0 9.425781 7.640626 17.066406 17.066407 17.066406s17.066406-7.640625 17.066406-17.066406c-.011719-9.421876-7.644531-17.054688-17.066406-17.066407zm0 0"/><path d="m273.074219 418.144531c-4.714844 0-8.535157-3.820312-8.535157-8.53125v-85.335937c0-4.710938 3.820313-8.53125 8.535157-8.53125 4.710937 0 8.53125 3.820312 8.53125 8.53125v85.335937c0 4.710938-3.820313 8.53125-8.53125 8.53125zm0 0"/><path d="m93.871094 477.878906c-4.710938 0-8.53125-3.820312-8.53125-8.53125 0-4.714844 3.820312-8.535156 8.53125-8.535156 4.710937-.007812 8.527344-3.824219 8.535156-8.535156v-34.132813c-.007812-9.421875-7.644531-17.054687-17.066406-17.066406h-17.066406c-9.421876.011719-17.058594 7.644531-17.066407 17.066406v34.132813c.003907 4.710937 3.824219 8.527344 8.53125 8.535156 4.714844 0 8.535157 3.820312 8.535157 8.535156 0 4.710938-3.820313 8.53125-8.535157 8.53125-14.128906-.015625-25.582031-11.46875-25.597656-25.601562v-34.132813c.019531-18.839843 15.289063-34.109375 34.132813-34.132812h17.066406c18.84375.023437 34.113281 15.292969 34.132812 34.132812v34.132813c-.015625 14.132812-11.46875 25.585937-25.601562 25.601562zm0 0"/><path d="m76.804688 401.078125c-4.710938 0-8.53125-3.820313-8.53125-8.53125v-68.269531c0-4.710938 3.820312-8.53125 8.53125-8.53125 4.714843 0 8.535156 3.820312 8.535156 8.53125v68.269531c0 4.710937-3.820313 8.53125-8.535156 8.53125zm0 0"/><path d="m187.738281 409.613281h-17.066406c-18.355469.035157-35.699219-8.410156-46.984375-22.886719-2.785156-3.710937-2.097656-8.964843 1.550781-11.832031 3.648438-2.867187 8.917969-2.292969 11.863281 1.289063 8.0625 10.34375 20.453126 16.386718 33.570313 16.363281h17.066406c13.117188.023437 25.507813-6.019531 33.574219-16.363281 1.855469-2.476563 4.90625-3.75 7.972656-3.335938 3.066406.417969 5.664063 2.460938 6.792969 5.339844 1.132813 2.882812.613281 6.148438-1.351563 8.539062-11.285156 14.476563-28.628906 22.921876-46.988281 22.886719zm0 0"/><path d="m179.207031 512.011719c-3.488281 0-6.625-2.125-7.925781-5.363281l-68.265625-170.664063c-1.753906-4.378906.375-9.34375 4.753906-11.097656 4.375-1.75 9.34375.378906 11.09375 4.753906l60.34375 150.863281 60.339844-150.863281c1.753906-4.375 6.71875-6.503906 11.097656-4.753906 4.375 1.753906 6.503907 6.71875 4.753907 11.097656l-68.265626 170.664063c-1.300781 3.238281-4.4375 5.363281-7.925781 5.363281zm0 0"/><path d="m409.605469 512.011719c-2.035157.003906-4.003907-.726563-5.546875-2.054688-1.691406-1.449219-41.503906-35.582031-54.25-48.480469-1.6875-1.707031-3.496094-3.414062-5.351563-5.179687-12.121093-11.472656-28.71875-27.183594-28.71875-58.417969 0-34.339844 20.71875-56.53125 52.78125-56.53125 15.863281-.058594 30.929688 6.960938 41.085938 19.148438 10.160156-12.1875 25.222656-19.207032 41.089843-19.148438 32.0625 0 52.777344 22.191406 52.777344 56.53125 0 31.230469-16.59375 46.945313-28.710937 58.417969-1.859375 1.761719-3.671875 3.46875-5.355469 5.179687-12.746094 12.902344-52.558594 47.039063-54.253906 48.480469-1.542969 1.328125-3.511719 2.058594-5.546875 2.054688zm-41.085938-153.597657c-22.695312 0-35.714843 14.382813-35.714843 39.464844 0 23.886719 11.886718 35.140625 23.382812 46.027344 2 1.894531 3.945312 3.734375 5.761719 5.578125 9.503906 9.621094 36.050781 32.707031 47.65625 42.730469 11.605469-10.023438 38.15625-33.109375 47.660156-42.734375 1.816406-1.839844 3.761719-3.683594 5.761719-5.578125 11.496094-10.882813 23.378906-22.136719 23.378906-46.023438 0-25.082031-13.015625-39.464844-35.710938-39.464844-14.148437.222657-27.011718 8.242188-33.4375 20.84375-1.597656 2.707032-4.507812 4.371094-7.652343 4.371094s-6.050781-1.664062-7.648438-4.371094c-6.429687-12.601562-19.292969-20.621093-33.4375-20.84375zm0 0"/><path d="m409.605469 460.8125-.328125-.007812c-3.113282-.121094-5.910156-1.925782-7.304688-4.707032l-17.964844-35.941406-9.433593 18.875c-1.449219 2.890625-4.402344 4.714844-7.632813 4.714844h-30.550781c-4.714844 0-8.535156-3.820313-8.535156-8.535156 0-4.710938 3.820312-8.53125 8.535156-8.53125h25.273437l14.710938-29.417969c1.601562-2.6875 4.5-4.335938 7.632812-4.335938 3.128907 0 6.03125 1.648438 7.632813 4.335938l18.648437 37.296875 17.605469-29.335938c1.5-2.511718 4.1875-4.074218 7.109375-4.140625 2.953125-.199219 5.773438 1.265625 7.304688 3.796875l14.53125 21.800782h46.632812c4.714844 0 8.535156 3.820312 8.535156 8.53125 0 4.714843-3.820312 8.535156-8.535156 8.535156h-51.199218c-2.851563 0-5.519532-1.425782-7.101563-3.800782l-9.585937-14.375-18.664063 31.105469c-1.542969 2.566407-4.320313 4.136719-7.316406 4.136719zm0 0"/><path d="m128.007812 204.8125h-8.535156c-23.550781-.027344-42.636718-19.113281-42.667968-42.667969v-8.53125c.011718-9.421875 7.648437-17.058593 17.066406-17.066406h59.734375c9.421875.007813 17.058593 7.644531 17.066406 17.066406v8.53125c-.027344 23.554688-19.113281 42.640625-42.664063 42.667969zm-34.136718-51.199219v8.53125c.015625 14.132813 11.46875 25.585938 25.601562 25.601563h8.535156c14.128907-.015625 25.582032-11.46875 25.597657-25.601563v-8.53125zm0 0"/><path d="m238.941406 204.8125h-8.535156c-23.550781-.027344-42.640625-19.113281-42.667969-42.667969v-8.53125c.011719-9.421875 7.644531-17.058593 17.066407-17.066406h59.734374c9.421876.007813 17.058594 7.644531 17.066407 17.066406v8.53125c-.027344 23.554688-19.113281 42.640625-42.664063 42.667969zm-34.136718-51.199219v8.53125c.015624 14.132813 11.46875 25.585938 25.601562 25.601563h8.535156c14.128906-.015625 25.582032-11.46875 25.597656-25.601563v-8.53125zm0 0"/><path d="m198.164062 156.929688c-2.109374.003906-4.148437-.78125-5.710937-2.199219-7.378906-7.050781-18.996094-7.050781-26.375 0-3.507813 3.070312-8.832031 2.753906-11.953125-.703125-3.125-3.460938-2.894531-8.789063.515625-11.964844 13.863281-12.941406 35.378906-12.941406 49.238281 0 2.621094 2.367188 3.515625 6.101562 2.246094 9.398438-1.265625 3.292968-4.433594 5.46875-7.960938 5.46875zm0 0"/><path d="m51.972656 169.484375c-4.121094.003906-7.660156-2.941406-8.402344-6.996094-.738281-4.058593 1.523438-8.066406 5.382813-9.519531l36.265625-13.738281c2.871094-1.160157 6.136719-.671875 8.546875 1.265625 2.40625 1.941406 3.578125 5.03125 3.058594 8.082031-.519531 3.046875-2.648438 5.574219-5.5625 6.609375l-36.265625 13.738281c-.964844.367188-1.988282.558594-3.023438.558594zm0 0"/><path d="m306.4375 169.484375c-1.03125 0-2.054688-.1875-3.019531-.558594l-36.265625-13.738281c-2.917969-1.035156-5.042969-3.5625-5.5625-6.609375-.519532-3.050781.648437-6.140625 3.058594-8.078125 2.40625-1.941406 5.675781-2.425781 8.542968-1.269531l36.269532 13.738281c3.855468 1.457031 6.117187 5.460938 5.378906 9.519531-.742188 4.054688-4.277344 7-8.402344 6.996094zm0 0"/></svg>