<svg height="512pt" viewBox="0 0 512 511" width="512pt" xmlns="http://www.w3.org/2000/svg"><path d="m363.863281 192.386719c11.953125-9.316407 19.292969-23.347657 20.136719-38.484375 0-23.210938-20.308594-44.203125-53.332031-59.5625-2.15625-19.527344-7.699219-38.527344-16.386719-56.148438-10.214844-19.199218-30.785156-30.574218-52.480469-29.011718-11.046875.816406-21.664062 4.621093-30.71875 11.007812-4.574219 4.097656-9.546875 7.730469-14.847656 10.835938-6.09375 2.453124-12.632813 3.613281-19.199219 3.414062h-.769531c-6.820313.285156-13.625-.878906-19.96875-3.414062-5.296875-3.105469-10.273437-6.738282-14.847656-10.835938-9.050781-6.386719-19.671875-10.191406-30.71875-11.007812-21.691407-1.5625-42.265625 9.8125-52.480469 29.011718-8.683594 17.621094-14.230469 36.621094-16.382812 56.148438-33.023438 15.359375-53.332032 36.351562-53.332032 59.5625 0 13.824218 14.25 32.683594 27.132813 44.203125-1.027344 2.1875-1.554688 4.578125-1.535157 6.996093.027344 9.414063 7.652344 17.039063 17.066407 17.066407h19.542969c11.132812 44.875 46.648437 79.613281 91.757812 89.753906-.191406.585937-.3125 1.195313-.367188 1.8125v44.96875h-34.132812c-11.632812-.023437-23.179688 1.96875-34.132812 5.886719-40.929688 14.429687-68.292969 53.117187-68.265626 96.511718v25.601563c.027344 9.414063 7.652344 17.039063 17.066407 17.066406h307.199219c9.414062-.027343 17.039062-7.652343 17.066406-17.066406v-25.601563c.027344-43.394531-27.339844-82.082031-68.265625-96.511718-10.953125-3.917969-22.503907-5.910156-34.132813-5.886719h-34.136718v-44.96875c-.050782-.617187-.171876-1.226563-.363282-1.8125 45.105469-10.140625 80.621094-44.878906 91.757813-89.753906h19.539062c9.414063-.027344 17.039063-7.652344 17.066407-17.066407.019531-2.417968-.503907-4.808593-1.535157-6.996093 2.476563-1.792969 4.695313-3.667969 6.914063-5.632813zm0 0" fill="#cb9080"/><path d="m366.933594 461.101562v25.601563c-.027344 9.414063-7.652344 17.039063-17.066406 17.066406h-307.199219c-9.414063-.027343-17.039063-7.652343-17.066407-17.066406v-25.601563c-.027343-43.394531 27.335938-82.082031 68.265626-96.511718v53.847656h42.667968v-59.734375h119.464844v59.734375h42.667969v-53.847656c40.925781 14.429687 68.292969 53.117187 68.265625 96.511718zm0 0" fill="#bb193b"/><path d="m343.296875 461.101562v25.601563c-.027344 9.414063-7.652344 17.039063-17.066406 17.066406h-283.5625c-9.414063-.027343-17.039063-7.652343-17.066407-17.066406v-25.601563c-.027343-43.394531 27.335938-82.082031 68.265626-96.511718l-.425782-3.242188 19.453125-2.644531h119.46875l23.636719 3.242187 19.03125 2.644532c8.378906 2.9375 16.328125 6.984375 23.636719 12.035156 27.96875 19.007812 44.691406 50.65625 44.628906 84.476562zm0 0" fill="#ef314c"/><path d="m136.535156 358.703125v59.734375h-42.667968v-53.847656c10.953124-3.917969 22.5-5.910156 34.132812-5.886719zm0 0" fill="#02a9f4"/><path d="m298.667969 364.589844v53.847656h-42.667969v-59.734375h8.535156c11.628906-.023437 23.179688 1.96875 34.132813 5.886719zm0 0" fill="#02a9f4"/><path d="m85.332031 503.769531v-76.800781c0-4.710938 3.820313-8.53125 8.535157-8.53125h204.800781c4.710937 0 8.53125 3.820312 8.53125 8.53125v76.800781zm0 0" fill="#3f51b5"/><path d="m221.867188 313.734375v70.570313h-51.199219v-70.570313zm0 0" fill="#ffe0b2"/><path d="m70.742188 222.167969h-19.542969c-9.414063-.027344-17.039063-7.652344-17.066407-17.066407-.019531-2.417968.507813-4.808593 1.535157-6.996093.824219-1.890625 2.015625-3.601563 3.5-5.035157 3.160156-3.242187 7.503906-5.058593 12.03125-5.035156h17.664062c-.171875 1.453125-.339843 2.902344-.425781 4.4375-.085938 2.132813-.171875 4.351563-.171875 6.570313.011719 4.050781.242187 8.09375.683594 12.117187.425781 3.757813 1.023437 7.339844 1.792969 11.007813zm0 0" fill="#ffe0b2"/><path d="m324.265625 199.042969c-.011719 4.050781-.238281 8.09375-.679687 12.117187-.429688 3.757813-1.027344 7.339844-1.792969 11.007813-11.777344 53.589843-63.488281 93.867187-125.527344 93.867187-4.007813 0-7.933594-.167968-11.773437-.425781-42.851563-2.925781-81.402344-27.070313-102.742188-64.339844-5.066406-9.113281-8.773438-18.917969-11.007812-29.101562-.769532-3.667969-1.367188-7.25-1.792969-11.007813-.441407-4.023437-.671875-8.066406-.683594-12.117187 0-2.21875.085937-4.4375.171875-6.570313 1.109375 13.996094 8.105469 56.832032 52.480469 63.0625 3.757812.527344 7.550781.785156 11.347656.769532 32 0 29.015625-11.605469 52.140625-14.507813h.085938c3.90625-.480469 7.839843-.707031 11.773437-.683594 31.832031 0 29.015625 11.433594 51.714844 14.421875 4.070312.554688 8.175781.8125 12.285156.769532 9.199219.140624 18.335937-1.542969 26.882813-4.949219 30.632812-12.714844 36.007812-46.679688 36.949218-58.882813.082032 2.132813.167969 4.351563.167969 6.570313zm0 0" fill="#624421"/><path d="m287.148438 251.355469c-21.359376 37.199219-59.863282 61.300781-102.65625 64.253906-42.851563-2.925781-81.402344-27.070313-102.742188-64.339844 8.523438 3.488281 17.671875 5.199219 26.878906 5.035157 4.109375.046874 8.21875-.210938 12.289063-.769532 3.757812.527344 7.550781.785156 11.347656.769532 32 0 29.015625-11.605469 52.140625-14.507813h.085938c23.125 2.902344 20.136718 14.507813 52.136718 14.507813 3.796875.015624 7.589844-.242188 11.351563-.769532 4.070312.554688 8.175781.8125 12.285156.769532 9.199219.140624 18.335937-1.542969 26.882813-4.949219zm0 0" fill="#825a2c"/><path d="m358.398438 205.101562c-.027344 9.414063-7.652344 17.039063-17.066407 17.066407h-19.539062c.765625-3.667969 1.363281-7.25 1.792969-11.007813.441406-4.023437.667968-8.066406.679687-12.117187 0-2.21875-.085937-4.4375-.167969-6.570313-.085937-1.535156-.257812-2.984375-.429687-4.4375h17.664062c4.527344-.023437 8.871094 1.792969 12.035157 5.035156 1.484374 1.433594 2.671874 3.144532 3.496093 5.035157 1.03125 2.1875 1.554688 4.578125 1.535157 6.996093zm0 0" fill="#dfc49c"/><path d="m307.96875 93.828125h-.085938c-4.703124-.023437-8.503906-3.851563-8.492187-8.554687.011719-4.703126 3.832031-8.511719 8.535156-8.511719s8.519531 3.808593 8.53125 8.511719c.011719 4.703124-3.785156 8.53125-8.488281 8.554687zm0 0"/><path d="m84.652344 93.828125h-.085938c-4.707031-.023437-8.503906-3.851563-8.492187-8.554687.011719-4.703126 3.828125-8.511719 8.535156-8.511719 4.703125 0 8.519531 3.808593 8.53125 8.511719.011719 4.703124-3.785156 8.53125-8.488281 8.554687zm0 0"/><path d="m324.097656 192.472656c-1.195312 15.105469-9.21875 63.832032-63.832031 63.832032-4.109375.042968-8.214844-.214844-12.285156-.769532-22.699219-2.988281-19.882813-14.421875-51.714844-14.421875-3.933594-.023437-7.867187.203125-11.773437.683594h-.085938c-23.125 2.902344-20.140625 14.507813-52.140625 14.507813-3.796875.015624-7.589844-.242188-11.347656-.769532-44.375-6.230468-51.371094-49.066406-52.480469-63.0625.085938-1.535156.253906-2.984375.425781-4.4375.257813-3.070312.769531-6.140625 1.28125-9.214844.765625-3.753906 1.707031-7.421874 2.816407-11.09375v-.085937c4.234374-9.75 9.253906-19.140625 15.019531-28.074219 3.640625-5.742187 7.6875-11.21875 12.117187-16.382812 27.101563-7.101563 54.933594-11.054688 82.941406-11.777344h2.816407c3.414062-.085938 6.914062-.167969 10.410156-.167969 32.445313-.300781 64.785156 3.714844 96.171875 11.945313 4.425781 5.164062 8.476562 10.640625 12.117188 16.382812 5.761718 8.933594 10.785156 18.324219 15.019531 28.074219v.085937c1.109375 3.671876 2.046875 7.339844 2.816406 11.09375.511719 3.074219 1.023437 6.144532 1.277344 9.214844.171875 1.453125.34375 2.902344.429687 4.4375zm0 0" fill="#dfc49c"/><path d="m300.457031 192.472656c-1.109375 13.996094-8.105469 56.832032-52.476562 63.0625-22.699219-2.988281-19.882813-14.421875-51.714844-14.421875-3.933594-.023437-7.867187.203125-11.773437.683594h-.085938c-3.90625-.480469-7.839844-.707031-11.777344-.683594-31.828125 0-29.011718 11.433594-51.710937 14.421875-44.375-6.230468-51.371094-49.066406-52.480469-63.0625.085938-1.535156.253906-2.984375.425781-4.4375.257813-3.070312.769531-6.140625 1.28125-9.214844.765625-3.753906 1.707031-7.421874 2.816407-11.09375v-.085937c4.234374-9.75 9.253906-19.140625 15.019531-28.074219 3.640625-5.742187 7.6875-11.21875 12.117187-16.382812 27.101563-7.101563 54.933594-11.054688 82.941406-11.777344h2.816407c28.015625.632812 55.859375 4.585938 82.945312 11.777344 4.425781 5.164062 8.476563 10.640625 12.117188 16.382812 5.761719 8.933594 10.785156 18.324219 15.019531 28.074219v.085937c1.109375 3.671876 2.046875 7.339844 2.816406 11.09375.511719 3.074219 1.023438 6.144532 1.277344 9.214844.171875 1.453125.34375 2.902344.425781 4.4375zm0 0" fill="#ffe0b2"/><path d="m100.097656 123.183594c-4.429687 5.164062-8.476562 10.640625-12.117187 16.382812-5.765625 8.933594-10.785157 18.324219-15.019531 28.074219v.085937c-1.109376 3.671876-2.050782 7.339844-2.816407 11.09375-.511719 3.074219-1.023437 6.144532-1.28125 9.214844h-17.578125c-.046875-.679687-.046875-1.363281 0-2.046875-.085937-3.414062-.085937-9.726562-.085937-10.75.027343-11.566406 1.457031-23.085937 4.265625-34.304687 14.027344-7.863282 29.035156-13.832032 44.632812-17.75zm0 0" fill="#a0522d"/><path d="m341.246094 185.988281c.046875.683594.046875 1.367188 0 2.046875h-17.578125c-.253907-3.070312-.765625-6.140625-1.277344-9.214844-.769531-3.753906-1.707031-7.421874-2.816406-11.09375v-.085937c-4.234375-9.75-9.257813-19.140625-15.019531-28.074219-3.640626-5.742187-7.691407-11.21875-12.117188-16.382812 15.59375 3.917968 30.601562 9.886718 44.628906 17.75 2.808594 11.21875 4.242188 22.738281 4.265625 34.304687 0 1.023438 0 7.335938-.085937 10.75zm0 0" fill="#a0522d"/><path d="m384 153.902344c-.84375 15.136718-8.183594 29.167968-20.136719 38.484375l-.085937.085937c-2.21875 1.964844-4.4375 3.839844-6.914063 5.632813-.824219-1.890625-2.011719-3.601563-3.496093-5.035157-3.164063-3.242187-7.507813-5.058593-12.035157-5.035156h-.085937c.085937-1.449218.085937-11.433594.085937-12.796875-.023437-11.566406-1.457031-23.085937-4.265625-34.304687-14.027344-7.863282-29.035156-13.832032-44.628906-17.75-31.386719-8.230469-63.726562-12.246094-96.171875-11.945313-32.441406-.253906-64.773437 3.761719-96.167969 11.945313-15.597656 3.917968-30.605468 9.886718-44.632812 17.75-2.808594 11.21875-4.238282 22.738281-4.265625 34.304687 0 1.363281 0 11.347657.085937 12.796875h-.085937c-4.527344-.023437-8.871094 1.792969-12.03125 5.035156-1.484375 1.433594-2.675781 3.144532-3.5 5.035157-12.882813-11.519531-27.132813-30.378907-27.132813-44.203125 0-23.210938 20.308594-44.203125 53.332032-59.5625 7.386718-3.445313 14.964843-6.464844 22.699218-9.042969h.085938c36.078125-11.46875 73.757812-17.117187 111.613281-16.726563 37.859375-.390624 75.535156 5.257813 111.617187 16.726563h.085938c7.730469 2.578125 15.3125 5.597656 22.699219 9.042969 33.023437 15.359375 53.332031 36.351562 53.332031 59.5625zm0 0" fill="#ffdc00"/><path d="m384 153.902344c-.84375 15.136718-8.183594 29.167968-20.136719 38.484375l-.085937.085937c-2.21875 1.964844-4.4375 3.839844-6.914063 5.632813-.824219-1.890625-2.011719-3.601563-3.496093-5.035157-2.421876-2.480468-5.550782-4.152343-8.960938-4.777343 9.6875-8.878907 15.433594-21.257813 15.957031-34.390625 0-23.210938-20.308593-44.203125-53.332031-59.5625-7.390625-3.445313-14.96875-6.464844-22.699219-9.042969h-.085937c-32.269532-10.347656-65.875-15.921875-99.753906-16.554687 3.839843-.085938 7.847656-.171876 11.773437-.171876 37.859375-.390624 75.535156 5.257813 111.617187 16.726563h.085938c7.730469 2.578125 15.3125 5.597656 22.699219 9.042969 33.023437 15.359375 53.332031 36.351562 53.332031 59.5625zm0 0" fill="#fec108"/><path d="m330.667969 94.339844c-7.386719-3.445313-14.96875-6.464844-22.699219-9.042969h-.085938c-36.082031-11.46875-73.757812-17.117187-111.617187-16.726563-37.855469-.390624-75.535156 5.257813-111.613281 16.726563h-.085938c-7.734375 2.578125-15.3125 5.597656-22.699218 9.042969.597656-4.605469 1.363281-9.214844 2.21875-13.824219 2.648437-14.71875 7.421874-28.976563 14.164062-42.324219 10.214844-19.199218 30.789062-30.574218 52.480469-29.011718 11.046875.816406 21.667969 4.621093 30.71875 11.007812 4.574219 4.097656 9.550781 7.730469 14.847656 10.835938 6.34375 2.535156 13.148437 3.699218 19.96875 3.414062h.769531c6.566406.199219 13.105469-.960938 19.199219-3.414062 5.300781-3.105469 10.273437-6.738282 14.847656-10.835938 9.054688-6.386719 19.671875-10.191406 30.71875-11.007812 21.695313-1.5625 42.265625 9.8125 52.480469 29.011718 6.746094 13.347656 11.515625 27.605469 14.167969 42.324219.851562 4.609375 1.621093 9.21875 2.21875 13.824219zm0 0" fill="#ff9801"/><path d="m330.667969 94.339844c-7.386719-3.445313-14.96875-6.464844-22.699219-9.042969h-.085938c-.769531-.257813-1.535156-.511719-2.390624-.769531-.167969-1.367188-.425782-2.644532-.679688-4.011719-2.652344-14.71875-7.421875-28.976563-14.167969-42.324219-7.558593-14.3125-21.105469-24.507812-36.949219-27.820312 2.667969-.609375 5.378907-1.011719 8.105469-1.191406 21.695313-1.5625 42.265625 9.8125 52.480469 29.011718 6.746094 13.347656 11.515625 27.605469 14.167969 42.324219.851562 4.609375 1.621093 9.21875 2.21875 13.824219zm0 0" fill="#f57c00"/><path d="m503.464844 298.96875v76.800781c-.027344 9.414063-7.652344 17.039063-17.066406 17.066407h-102.398438c-9.414062-.027344-17.039062-7.652344-17.066406-17.066407v-76.800781c-.027344-31.5 24.453125-57.589844 55.894531-59.5625.1875-.085938.40625-.085938.597656 0 1.074219-.140625 2.15625-.199219 3.242188-.167969h17.066406c15.84375-.011719 31.042969 6.277344 42.25 17.480469 11.203125 11.207031 17.492187 26.40625 17.480469 42.25zm0 0" fill="#707070"/><path d="m479.828125 298.96875v76.800781c-.027344 9.414063-7.652344 17.039063-17.066406 17.066407h-78.761719c-9.414062-.027344-17.039062-7.652344-17.066406-17.066407v-76.800781c-.027344-31.5 24.453125-57.589844 55.894531-59.5625.1875-.085938.40625-.085938.597656 0 31.664063 1.664062 56.464844 27.855469 56.402344 59.5625zm0 0" fill="#9e9e9e"/><path d="m452.265625 358.703125v136.535156c0 4.710938-3.820313 8.53125-8.53125 8.53125h-17.066406c-4.714844 0-8.535157-3.820312-8.535157-8.53125v-136.535156zm0 0" fill="#91562d"/><path d="m196.265625 324.570312c-64.757813 0-121.054687-42.296874-133.855469-100.566406-.84375-4.019531-1.484375-7.859375-1.941406-11.882812-.480469-4.34375-.726562-8.707032-.734375-13.078125 0-2.335938.085937-4.671875.179687-6.917969.09375-1.832031.28125-3.464844.472657-5.089844.25-3.015625.792969-6.320312 1.34375-9.621094.855469-4.230468 1.835937-8.085937 2.992187-11.933593 1.097656-4.132813 5.089844-6.816407 9.332032-6.269531 4.242187.546874 7.421874 4.152343 7.4375 8.429687v.085937c0 .839844-.121094 1.671876-.367188 2.476563-1.027344 3.414063-1.902344 6.832031-2.613281 10.324219-.421875 2.539062-.90625 5.382812-1.144531 8.226562-.179688 1.558594-.332032 2.828125-.40625 4.179688-.082032 1.910156-.160157 4.007812-.160157 6.109375.011719 3.746093.222657 7.488281.632813 11.210937.390625 3.433594.949218 6.761719 1.660156 10.171875 11.082031 50.417969 60.363281 87.078125 117.171875 87.078125s106.09375-36.660156 117.191406-87.167968c.695313-3.320313 1.25-6.648438 1.648438-10.132813.40625-3.707031.617187-7.429687.628906-11.160156 0-2.101563-.082031-4.199219-.164063-6.21875-.070312-1.242188-.222656-2.511719-.375-3.789063-.265624-3.125-.75-5.972656-1.222656-8.8125-.660156-3.191406-1.539062-6.609375-2.5625-10.023437-.917968-2.996094-.125-6.253907 2.070313-8.492188 2.191406-2.238281 5.4375-3.09375 8.449219-2.230469 3.011718.863282 5.3125 3.304688 5.988281 6.363282 1.109375 3.726562 2.054687 7.457031 2.835937 11.273437.601563 3.601563 1.144532 6.910157 1.425782 10.207031.160156 1.339844.347656 2.972657.4375 4.691407.097656 2.359375.183593 4.695312.183593 7.035156-.007812 4.351563-.253906 8.699219-.730469 13.023437-.460937 4.074219-1.101562 7.914063-1.921874 11.847657-12.828126 58.355469-69.125 100.652343-133.882813 100.652343zm0 0"/><path d="m70.742188 230.703125h-19.542969c-14.132813-.015625-25.582031-11.46875-25.597657-25.601563-.027343-3.695312.789063-7.351562 2.378907-10.691406 1.21875-2.769531 2.972656-5.273437 5.152343-7.375 4.753907-4.855468 11.273438-7.574218 18.066407-7.53125h17.066406c4.773437-.023437 8.691406 3.761719 8.832031 8.53125.066406 2.234375-.769531 4.394532-2.320312 6.003906-1.550782 1.605469-3.679688 2.519532-5.914063 2.53125h-17.578125c-2.253906-.039062-4.425781.851563-6.007812 2.457032-.714844.648437-1.292969 1.433594-1.707032 2.304687-1.328124 2.640625-1.1875 5.777344.371094 8.289063 1.554688 2.507812 4.304688 4.03125 7.257813 4.015625h19.542969c4.710937 0 8.53125 3.820312 8.53125 8.53125 0 4.714843-3.820313 8.535156-8.53125 8.535156zm0 0"/><path d="m341.332031 230.703125h-19.539062c-4.714844 0-8.535157-3.820313-8.535157-8.535156 0-4.710938 3.820313-8.53125 8.535157-8.53125h19.539062c4.710938-.007813 8.527344-3.824219 8.535157-8.535157-.023438-2.253906-.933594-4.410156-2.535157-6-1.566406-1.628906-3.734375-2.546874-6-2.53125h-17.066406c-4.769531.023438-8.691406-3.765624-8.828125-8.535156-.066406-2.230468.769531-4.394531 2.320312-6 1.546876-1.605468 3.679688-2.519531 5.914063-2.53125h17.578125c6.859375-.050781 13.441406 2.695313 18.226562 7.609375 4.746094 4.785157 7.425782 11.246094 7.457032 17.988281-.015625 14.132813-11.46875 25.585938-25.601563 25.601563zm0 0"/><path d="m51.269531 196.539062c-4.511719.007813-8.242187-3.507812-8.507812-8.011718-.082031-1.507813-.09375-11.871094-.09375-13.289063.027343-12.257812 1.542969-24.46875 4.515625-36.359375 1.132812-4.574218 5.761718-7.363281 10.335937-6.230468 4.574219 1.136718 7.363281 5.761718 6.230469 10.339843-2.640625 10.546875-3.988281 21.375-4.015625 32.25 0 1.300781-.007813 10.734375.070313 12.324219.230468 4.699219-3.375 8.703125-8.070313 8.964844-.15625.007812-.308594.011718-.464844.011718zm0 0"/><path d="m197.035156 42.96875h-.769531c-4.710937 0-8.53125-3.820312-8.53125-8.53125 0-4.714844 3.820313-8.535156 8.53125-8.535156 4.789063-.027344 8.734375 3.75 8.917969 8.535156.085937 2.222656-.730469 4.382812-2.269532 5.992188-1.535156 1.605468-3.65625 2.523437-5.878906 2.539062zm0 0"/><path d="m341.257812 196.570312c-.171874 0-.328124 0-.5-.011718-4.699218-.273438-8.292968-4.300782-8.027343-9 .078125-1.605469.070312-11.019532.070312-12.320313-.027343-10.875-1.375-21.703125-4.015625-32.25-.734375-2.960937.164063-6.085937 2.359375-8.203125 2.199219-2.113281 5.355469-2.898437 8.285157-2.054687 2.929687.847656 5.1875 3.1875 5.921874 6.148437 2.96875 11.890625 4.488282 24.101563 4.515626 36.359375 0 1.417969-.011719 11.78125-.097657 13.289063-.257812 4.511718-3.992187 8.039062-8.511719 8.042968zm0 0"/><path d="m307.96875 93.828125h-.085938c-4.703124-.023437-8.503906-3.851563-8.492187-8.554687.011719-4.703126 3.832031-8.511719 8.535156-8.511719s8.519531 3.808593 8.53125 8.511719c.011719 4.703124-3.785156 8.53125-8.488281 8.554687zm0 0"/><path d="m84.652344 93.828125h-.085938c-4.707031-.023437-8.503906-3.851563-8.492187-8.554687.011719-4.703126 3.828125-8.511719 8.535156-8.511719 4.703125 0 8.519531 3.808593 8.53125 8.511719.011719 4.703124-3.785156 8.53125-8.488281 8.554687zm0 0"/><path d="m72.960938 176.214844c-2.257813.011718-4.429688-.878906-6.03125-2.472656-1.601563-1.589844-2.5-3.753907-2.503907-6.015626v-.082031c0-1.175781.242188-2.339843.71875-3.414062 7.183594-16.84375 16.785157-32.550781 28.5-46.621094 3.109375-3.445313 8.402344-3.769531 11.914063-.734375 3.507812 3.03125 3.953125 8.316406.996094 11.890625-10.539063 12.703125-19.183594 26.863281-25.667969 42.042969-1.285157 3.253906-4.425781 5.398437-7.925781 5.40625zm0 0"/><path d="m319.574219 176.214844c-3.664063.011718-6.921875-2.316406-8.097657-5.785156-6.457031-15.042969-15.042968-29.074219-25.496093-41.667969-2.957031-3.574219-2.511719-8.859375.996093-11.894531 3.511719-3.035157 8.804688-2.707032 11.914063.734374 11.714844 14.074219 21.316406 29.78125 28.5 46.621094.472656 1.078125.71875 2.238282.71875 3.414063.003906 4.722656-3.8125 8.558593-8.535156 8.578125zm0 0"/><path d="m170.667969 392.835938c-4.714844 0-8.535157-3.820313-8.535157-8.53125v-70.570313c0-4.714844 3.820313-8.535156 8.535157-8.535156 4.710937 0 8.53125 3.820312 8.53125 8.535156v70.570313c0 4.710937-3.820313 8.53125-8.53125 8.53125zm0 0"/><path d="m221.867188 392.835938c-4.714844 0-8.535157-3.820313-8.535157-8.53125v-70.570313c0-4.714844 3.820313-8.535156 8.535157-8.535156 4.710937 0 8.53125 3.820312 8.53125 8.535156v70.570313c0 4.710937-3.820313 8.53125-8.53125 8.53125zm0 0"/><path d="m349.867188 512.304688h-307.199219c-14.132813-.015626-25.585938-11.46875-25.601563-25.601563v-25.601563c.066406-61.238281 49.695313-110.863281 110.933594-110.933593h42.667969c4.710937 0 8.53125 3.824219 8.53125 8.535156 0 4.714844-3.820313 8.535156-8.53125 8.535156h-42.667969c-51.816406.058594-93.808594 42.046875-93.867188 93.863281v25.601563c.007813 4.710937 3.824219 8.527344 8.535157 8.535156h307.199219c4.710937-.007812 8.527343-3.824219 8.53125-8.535156v-25.601563c-.058594-51.816406-42.046876-93.804687-93.863282-93.863281h-42.667968c-4.714844 0-8.535157-3.820312-8.535157-8.535156 0-4.710937 3.820313-8.535156 8.535157-8.535156h42.667968c61.238282.070312 110.863282 49.695312 110.929688 110.933593v25.601563c-.015625 14.132813-11.464844 25.585937-25.597656 25.601563zm0 0"/><path d="m337.058594 149.464844c-1.515625.003906-3-.402344-4.304688-1.167969-13.363281-7.484375-27.664062-13.15625-42.519531-16.867187-30.667969-8.042969-62.265625-11.964844-93.96875-11.660157-31.679687-.25-63.253906 3.664063-93.914063 11.640625-14.878906 3.71875-29.191406 9.398438-42.570312 16.886719-2.632812 1.582031-5.917969 1.628906-8.59375.121094-2.675781-1.507813-4.335938-4.339844-4.34375-7.414063-.007812-3.074218 1.640625-5.914062 4.308594-7.433594 14.683594-8.257812 30.402344-14.523437 46.738281-18.632812 32.117187-8.371094 65.191406-12.484375 98.375-12.234375 33.21875-.304687 66.328125 3.820313 98.460937 12.257813 16.304688 4.105468 31.996094 10.363281 46.652344 18.609374 3.324219 1.949219 4.933594 5.882813 3.921875 9.601563s-4.390625 6.296875-8.242187 6.292969zm0 0"/><path d="m356.871094 206.640625c-3.703125.003906-6.984375-2.378906-8.125-5.902344-1.144532-3.519531.113281-7.375 3.113281-9.542969 2.242187-1.621093 4.25-3.335937 6.257813-5.109374 10.007812-7.847657 16.296874-19.507813 17.347656-32.183594 0-18.632813-17.640625-37.519532-48.398438-51.824219-6.9375-3.246094-14.054687-6.09375-21.320312-8.523437-.195313-.050782-.390625-.105469-.578125-.171876-35.203125-11.183593-71.964844-16.679687-108.902344-16.28125-36.933594-.398437-73.695313 5.097657-108.898437 16.28125-.199219.070313-.40625.128907-.609376.183594-7.230468 2.417969-14.316406 5.25-21.222656 8.480469-30.828125 14.335937-48.46875 33.222656-48.46875 51.855469 0 9.195312 10.441406 25.464844 24.292969 37.84375 3.511719 3.140625 3.816406 8.535156.675781 12.050781-3.144531 3.511719-8.539062 3.8125-12.050781.671875-13.835937-12.363281-29.984375-33.027344-29.984375-50.566406 0-25.925782 20.691406-49.824219 58.265625-67.300782 7.664063-3.578124 15.527344-6.710937 23.554687-9.386718.222657-.074219.453126-.140625.6875-.199219 36.78125-11.636719 75.179688-17.367187 113.757813-16.980469 38.59375-.390625 77.003906 5.34375 113.800781 16.992188.222656.058594.4375.121094.648438.1875 8.050781 2.679687 15.933594 5.828125 23.617187 9.421875 37.507813 17.441406 58.203125 41.339843 58.203125 67.265625-.820312 17.570312-9.203125 33.921875-22.984375 44.847656-2.453125 2.21875-5.015625 4.3125-7.679687 6.269531-1.453125 1.054688-3.203125 1.621094-5 1.621094zm0 0"/><path d="m61.878906 102.875c-.371094 0-.746094-.023438-1.117187-.070312-2.242188-.292969-4.28125-1.464844-5.660157-3.261719-1.378906-1.792969-1.992187-4.0625-1.699218-6.304688 2.273437-20.527343 8.125-40.496093 17.285156-59 11.765625-22.214843 35.539062-35.386719 60.613281-33.574219 12.613281.898438 24.742188 5.238282 35.066407 12.546876 1.996093 1.417968 3.839843 2.960937 5.667968 4.507812 2.320313 2.183594 4.929688 4.039062 7.757813 5.515625 5.25 2.011719 10.855469 2.917969 16.472656 2.667969 4.714844 0 8.535156 3.820312 8.535156 8.535156 0 4.710938-3.820312 8.53125-8.535156 8.53125-8.035156.292969-16.039063-1.128906-23.484375-4.171875-4.28125-2.101563-8.242188-4.808594-11.757812-8.039063-1.46875-1.242187-2.941407-2.496093-4.523438-3.621093-7.777344-5.460938-16.882812-8.726563-26.359375-9.445313-18.320313-1.328125-35.699219 8.265625-44.339844 24.476563-8.21875 16.722656-13.453125 34.753906-15.46875 53.277343-.554687 4.246094-4.171875 7.421876-8.453125 7.429688zm0 0"/><path d="m330.652344 102.875c-4.277344-.007812-7.890625-3.183594-8.445313-7.429688-2.019531-18.535156-7.257812-36.570312-15.484375-53.300781-8.660156-16.1875-26.035156-25.765625-44.34375-24.453125-9.484375.726563-18.597656 4-26.378906 9.472656-1.542969 1.097657-3.015625 2.351563-4.484375 3.59375-3.523437 3.238282-7.492187 5.949219-11.789063 8.054688-7.160156 2.929688-14.851562 4.34375-22.585937 4.15625h-.875c-4.710937 0-8.53125-3.820312-8.53125-8.53125 0-4.714844 3.820313-8.535156 8.53125-8.535156h.769531c5.339844.164062 10.664063-.734375 15.652344-2.644532 2.847656-1.480468 5.476562-3.34375 7.8125-5.539062 1.832031-1.542969 3.671875-3.085938 5.632812-4.480469 10.324219-7.320312 22.457032-11.667969 35.078126-12.574219 25.054687-1.75 48.800781 11.390626 60.621093 33.550782 9.167969 18.511718 15.023438 38.488281 17.296875 59.023437.292969 2.242188-.316406 4.511719-1.695312 6.304688-1.382813 1.796875-3.417969 2.96875-5.664063 3.261719-.367187.046874-.742187.070312-1.117187.070312zm0 0"/><path d="m132.265625 264.835938c-49.152344 0-69.589844-37.035157-72.335937-71.6875-.375-4.699219 3.132812-8.808594 7.832031-9.183594 4.699219-.371094 8.8125 3.136718 9.183593 7.835937 1.332032 16.828125 9.386719 55.96875 55.320313 55.96875 9.742187.769531 19.476563-1.507812 27.863281-6.523437 10.90625-6.441406 23.496094-9.460938 36.136719-8.664063 4.714844 0 8.535156 3.820313 8.535156 8.53125 0 4.714844-3.820312 8.535157-8.535156 8.535157-9.738281-.773438-19.476563 1.507812-27.859375 6.523437-10.910156 6.441406-23.496094 9.457031-36.140625 8.664063zm0 0"/><path d="m260.265625 264.835938c-12.640625.796874-25.230469-2.222657-36.136719-8.660157-8.382812-5.019531-18.121094-7.300781-27.863281-6.527343-4.710937 0-8.53125-3.820313-8.53125-8.535157 0-4.710937 3.820313-8.53125 8.53125-8.53125 12.640625-.796875 25.230469 2.222657 36.140625 8.660157 8.382812 5.015624 18.121094 7.296874 27.859375 6.527343 45.933594 0 53.992187-39.140625 55.320313-55.96875.375-4.699219 4.484374-8.207031 9.183593-7.835937 4.699219.375 8.207031 4.484375 7.835938 9.183594-2.746094 34.652343-23.1875 71.6875-72.339844 71.6875zm0 0"/><path d="m136.535156 426.96875h-42.667968c-4.714844 0-8.535157-3.820312-8.535157-8.53125v-53.847656c0-4.710938 3.820313-8.53125 8.535157-8.53125 4.710937 0 8.53125 3.820312 8.53125 8.53125v45.3125h25.601562v-51.199219c0-4.710937 3.820312-8.535156 8.535156-8.535156 4.710938 0 8.53125 3.824219 8.53125 8.535156v59.734375c0 4.710938-3.820312 8.53125-8.53125 8.53125zm0 0"/><path d="m298.667969 426.96875h-42.667969c-4.710938 0-8.535156-3.820312-8.535156-8.53125v-59.734375c0-4.710937 3.824218-8.535156 8.535156-8.535156s8.535156 3.824219 8.535156 8.535156v51.199219h25.597656v-45.3125c0-4.710938 3.820313-8.53125 8.535157-8.53125 4.710937 0 8.53125 3.820312 8.53125 8.53125v53.847656c0 4.710938-3.820313 8.53125-8.53125 8.53125zm0 0"/><path d="m307.199219 512.304688c-4.710938 0-8.53125-3.820313-8.53125-8.535157v-76.800781h-204.800781v76.800781c0 4.714844-3.820313 8.535157-8.535157 8.535157-4.710937 0-8.53125-3.820313-8.53125-8.535157v-76.800781c.007813-9.421875 7.644531-17.054688 17.066407-17.066406h204.800781c9.421875.011718 17.054687 7.644531 17.066406 17.066406v76.800781c0 4.714844-3.820313 8.535157-8.535156 8.535157zm0 0"/><path d="m128 452.570312c0 4.710938-3.820312 8.53125-8.535156 8.53125-4.710938 0-8.53125-3.820312-8.53125-8.53125 0-4.714843 3.820312-8.535156 8.53125-8.535156 4.714844 0 8.535156 3.820313 8.535156 8.535156zm0 0"/><path d="m281.601562 452.570312c0 4.710938-3.820312 8.53125-8.535156 8.53125-4.710937 0-8.53125-3.820312-8.53125-8.53125 0-4.714843 3.820313-8.535156 8.53125-8.535156 4.714844 0 8.535156 3.820313 8.535156 8.535156zm0 0"/><path d="m486.398438 401.371094h-34.132813c-4.710937 0-8.53125-3.820313-8.53125-8.535156 0-4.710938 3.820313-8.53125 8.53125-8.53125h34.132813c4.710937-.007813 8.527343-3.824219 8.535156-8.535157v-76.800781c-.03125-28.261719-22.9375-51.167969-51.199219-51.199219h-17.066406c-28.265625.03125-51.171875 22.9375-51.203125 51.199219v76.800781c.007812 4.710938 3.824218 8.527344 8.535156 8.535157h34.132812c4.714844 0 8.535157 3.820312 8.535157 8.53125 0 4.714843-3.820313 8.535156-8.535157 8.535156h-34.132812c-14.132812-.015625-25.585938-11.46875-25.601562-25.601563v-76.800781c.042968-37.683594 30.582031-68.222656 68.269531-68.265625h17.066406c37.683594.042969 68.222656 30.582031 68.265625 68.265625v76.800781c-.015625 14.132813-11.46875 25.585938-25.601562 25.601563zm0 0"/><path d="m443.734375 512.304688h-17.066406c-9.421875-.011719-17.058594-7.644532-17.066407-17.066407v-136.535156c0-4.710937 3.820313-8.535156 8.53125-8.535156 4.714844 0 8.535157 3.824219 8.535157 8.535156v136.535156h17.066406v-136.535156c0-4.710937 3.820313-8.535156 8.53125-8.535156 4.714844 0 8.535156 3.824219 8.535156 8.535156v136.535156c-.011719 9.421875-7.644531 17.054688-17.066406 17.066407zm0 0"/><path d="m401.066406 324.570312c-4.710937 0-8.53125-3.820312-8.53125-8.535156v-25.597656c0-4.714844 3.820313-8.535156 8.53125-8.535156 4.714844 0 8.535156 3.820312 8.535156 8.535156v25.597656c0 4.714844-3.820312 8.535156-8.535156 8.535156zm0 0"/></svg>