<svg height="504pt" viewBox="0 0 504.32183 504" width="504pt" xmlns="http://www.w3.org/2000/svg"><path d="m276.984375 333.296875c-10.773437-3.855469-22.132813-5.816406-33.574219-5.792969h-134.296875c-11.441406-.023437-22.800781 1.9375-33.574219 5.792969-40.253906 14.191406-67.171874 52.246094-67.144531 94.929687v50.359376c.027344 9.261718 7.527344 16.761718 16.785157 16.789062h302.164062c9.261719-.027344 16.761719-7.527344 16.789062-16.789062v-50.359376c.023438-42.683593-26.894531-80.738281-67.148437-94.929687zm0 0" fill="#bdc3c7"/><path d="m344.132812 428.226562v50.359376c-.027343 9.261718-7.527343 16.761718-16.789062 16.789062h-302.164062c-9.257813-.027344-16.757813-7.527344-16.785157-16.789062v-50.359376c-.027343-42.683593 26.890625-80.738281 67.144531-94.929687l41.96875-5.792969h117.507813l41.96875 5.792969c40.253906 14.191406 67.171875 52.246094 67.148437 94.929687zm0 0" fill="#707070"/><path d="m320.882812 428.226562v50.359376c-.027343 9.261718-7.527343 16.761718-16.789062 16.789062h-278.914062c-9.257813-.027344-16.757813-7.527344-16.785157-16.789062v-50.359376c-.027343-42.683593 26.890625-80.738281 67.144531-94.929687l41.96875-5.792969h94.257813l41.96875 5.792969c40.257813 14.191406 67.171875 52.246094 67.148437 94.929687zm0 0" fill="#9e9e9e"/><path d="m201.441406 352.6875v-70.875h-50.359375v70.875zm0 0" fill="#ffe0b2"/><path d="m117.507812 327.503906v67.148438h-41.96875v-61.355469c10.773438-3.855469 22.132813-5.816406 33.574219-5.792969zm0 0" fill="#02a9f4"/><path d="m276.984375 333.296875v61.355469h-41.96875v-67.148438h8.394531c11.441406-.023437 22.800782 1.9375 33.574219 5.792969zm0 0" fill="#02a9f4"/><path d="m75.539062 394.652344h201.445313c4.636719 0 8.394531 3.757812 8.394531 8.394531v92.328125h-218.230468v-92.328125c0-4.636719 3.757812-8.394531 8.390624-8.394531zm0 0" fill="#3f51b5"/><path d="m481.605469 146.027344 11.867187 11.871094c3.28125 3.277343 3.28125 8.59375 0 11.871093l-27.933594 27.9375c-3.28125 3.277344-8.59375 3.277344-11.871093 0l-11.871094-11.871093c-3.277344-3.277344-3.277344-8.59375 0-11.871094l27.9375-27.9375c3.277344-3.277344 8.59375-3.277344 11.871094 0zm0 0" fill="#3f51b5"/><path d="m41.96875 193.210938h-8.394531c-9.261719-.027344-16.761719-7.527344-16.789063-16.789063.070313-9.242187 7.546875-16.71875 16.789063-16.785156h8.394531" fill="#dfc49c"/><path d="m310.558594 193.210938h8.390625c9.261719-.027344 16.761719-7.527344 16.789062-16.789063-.066406-9.242187-7.542969-16.71875-16.789062-16.785156h-8.390625" fill="#dfc49c"/><path d="m81.835938 48.035156c24.925781-25.261718 58.9375-39.480468 94.425781-39.480468s69.5 14.21875 94.425781 39.480468zm0 0" fill="#283593"/><path d="m310.558594 92.488281v151.082031c.003906 2.816407-.246094 5.625-.757813 8.394532-4.058593 24.230468-25.035156 41.976562-49.605469 41.964844h-167.867187c-24.566406.011718-45.546875-17.734376-49.605469-41.964844-.507812-2.769532-.761718-5.578125-.753906-8.394532v-151.082031c.019531-27.804687 22.554688-50.335937 50.359375-50.359375h167.867187c27.804688.023438 50.339844 22.554688 50.363282 50.359375zm0 0" fill="#283593"/><path d="m287.308594 92.488281v151.082031c.003906 2.816407-.246094 5.625-.757813 8.394532-4.058593 24.230468-25.035156 41.976562-49.605469 41.964844h-144.617187c-24.566406.011718-45.546875-17.734376-49.605469-41.964844-.507812-2.769532-.761718-5.578125-.753906-8.394532v-151.082031c.019531-27.804687 22.554688-50.335937 50.359375-50.359375h144.617187c27.804688.023438 50.339844 22.554688 50.363282 50.359375zm0 0" fill="#3f51b5"/><path d="m92.328125 126.0625h167.867187c9.273438 0 16.789063 7.515625 16.789063 16.785156v50.363282c0 9.269531-7.515625 16.785156-16.789063 16.785156h-167.867187c-9.269531 0-16.789063-7.515625-16.789063-16.785156v-50.363282c0-9.269531 7.519532-16.785156 16.789063-16.785156zm0 0" fill="#0377bc"/><path d="m92.328125 126.0625h144.617187c9.273438 0 16.789063 7.515625 16.789063 16.785156v50.363282c0 9.269531-7.515625 16.785156-16.789063 16.785156h-144.617187c-9.269531 0-16.789063-7.515625-16.789063-16.785156v-50.363282c0-9.269531 7.519532-16.785156 16.789063-16.785156zm0 0" fill="#02a9f4"/><path d="m444.851562 302.324219v50.363281c0 4.632812-3.757812 8.390625-8.390624 8.390625-4.636719 0-8.394532 3.757813-8.394532 8.394531v117.507813c0 4.636719-3.757812 8.394531-8.394531 8.394531h-16.785156c-4.636719 0-8.394531-3.757812-8.394531-8.394531v-184.65625c0-4.636719 3.757812-8.394531 8.394531-8.394531h33.574219c4.632812 0 8.390624 3.757812 8.390624 8.394531zm0 0" fill="#3f51b5"/><path d="m41.96875 201.605469h-8.394531c-13.902344-.015625-25.164063-11.28125-25.179688-25.183594.0625-13.878906 11.300781-25.113281 25.179688-25.179687h8.394531c4.632812 0 8.390625 3.757812 8.390625 8.394531s-3.757813 8.394531-8.390625 8.394531h-8.3125c-2.214844-.039062-4.351562.835938-5.910156 2.417969-1.640625 1.550781-2.570313 3.714843-2.566406 5.972656.007812 4.632813 3.761718 8.390625 8.394531 8.394531h8.394531c4.632812 0 8.390625 3.757813 8.390625 8.394532 0 4.636718-3.757813 8.394531-8.390625 8.394531zm0 0"/><path d="m318.949219 201.605469h-8.390625c-4.636719 0-8.394532-3.757813-8.394532-8.394531 0-4.636719 3.757813-8.394532 8.394532-8.394532h8.390625c4.632812-.003906 8.390625-3.761718 8.394531-8.394531.019531-2.1875-.851562-4.292969-2.417969-5.828125-1.550781-1.640625-3.714843-2.570312-5.976562-2.5625h-8.390625c-4.636719 0-8.394532-3.757812-8.394532-8.394531s3.757813-8.394531 8.394532-8.394531h8.308594c13.914062.019531 25.199218 11.269531 25.265624 25.179687-.015624 13.902344-11.28125 25.167969-25.183593 25.183594zm0 0"/><path d="m81.839844 51.613281c-3.511719 0-6.652344-2.1875-7.871094-5.484375-1.21875-3.292968-.257812-7 2.410156-9.285156 57.613282-48.914062 142.175782-48.910156 199.785156.011719 3.5 3.023437 3.890626 8.3125.875 11.820312-3.015624 3.507813-8.300781 3.914063-11.820312.90625-51.324219-43.519531-126.605469-43.515625-177.925781.007813-1.519531 1.304687-3.453125 2.023437-5.453125 2.023437zm0 0"/><path d="m151.082031 361.078125c-4.636719 0-8.394531-3.757813-8.394531-8.390625v-58.757812c0-4.632813 3.757812-8.390626 8.394531-8.390626s8.394531 3.757813 8.394531 8.390626v58.757812c0 4.632812-3.757812 8.390625-8.394531 8.390625zm0 0"/><path d="m201.441406 361.078125c-4.632812 0-8.390625-3.757813-8.390625-8.390625v-58.757812c0-4.632813 3.757813-8.390626 8.390625-8.390626 4.636719 0 8.394532 3.757813 8.394532 8.390626v58.757812c0 4.632812-3.757813 8.390625-8.394532 8.390625zm0 0"/><path d="m327.34375 503.765625h-302.164062c-13.898438-.011719-25.164063-11.277344-25.179688-25.179687v-50.359376c.0664062-60.234374 48.878906-109.046874 109.113281-109.113281h41.96875c4.636719 0 8.394531 3.757813 8.394531 8.390625 0 4.636719-3.757812 8.394532-8.394531 8.394532h-41.96875c-50.964843.058593-92.269531 41.359374-92.328125 92.328124v50.359376c.007813 4.632812 3.761719 8.390624 8.394532 8.394531h302.164062c4.632812-.003907 8.386719-3.761719 8.394531-8.394531v-50.359376c-.058593-50.96875-41.359375-92.269531-92.328125-92.328124h-41.96875c-4.632812 0-8.390625-3.757813-8.390625-8.394532 0-4.632812 3.757813-8.390625 8.390625-8.390625h41.96875c60.234375.066407 109.046875 48.878907 109.113282 109.113281v50.359376c-.015626 13.902343-11.277344 25.167968-25.179688 25.179687zm0 0"/><path d="m260.195312 302.324219h-167.867187c-32.433594-.035157-58.71875-26.320313-58.753906-58.753907v-151.082031c.035156-32.433593 26.320312-58.71875 58.753906-58.753906h167.867187c32.433594.035156 58.71875 26.320313 58.753907 58.753906v151.082031c-.035157 32.433594-26.320313 58.71875-58.753907 58.753907zm-167.867187-251.800781c-23.167969.027343-41.941406 18.800781-41.96875 41.964843v151.082031c.027344 23.167969 18.800781 41.941407 41.96875 41.96875h167.867187c23.167969-.027343 41.941407-18.800781 41.96875-41.96875v-151.082031c-.027343-23.164062-18.800781-41.9375-41.96875-41.964843zm0 0"/><path d="m260.195312 218.390625h-167.867187c-13.902344-.015625-25.164063-11.28125-25.179687-25.179687v-50.363282c.015624-13.898437 11.277343-25.164062 25.179687-25.179687h167.867187c13.902344.015625 25.167969 11.28125 25.183594 25.179687v50.363282c-.015625 13.898437-11.28125 25.164062-25.183594 25.179687zm-167.867187-83.933594c-4.632813.003907-8.386719 3.757813-8.394531 8.390625v50.363282c.007812 4.632812 3.761718 8.386718 8.394531 8.394531h167.867187c4.632813-.007813 8.390626-3.761719 8.394532-8.394531v-50.363282c-.003906-4.632812-3.761719-8.386718-8.394532-8.390625zm0 0"/><path d="m109.105469 168.03125c-2.90625-.003906-5.605469-1.511719-7.132813-3.984375-1.527344-2.476563-1.667968-5.5625-.367187-8.164063l16.789062-33.574218c1.339844-2.683594 4.011719-4.445313 7.003907-4.625 2.996093-.179688 5.855468 1.25 7.507812 3.753906s1.84375 5.695312.503906 8.378906l-16.789062 33.574219c-1.421875 2.847656-4.332032 4.644531-7.515625 4.640625zm0 0"/><path d="m142.679688 184.816406c-2.90625-.003906-5.605469-1.507812-7.132813-3.984375-1.527344-2.472656-1.667969-5.5625-.367187-8.164062l25.179687-50.359375c2.074219-4.148438 7.117187-5.828125 11.265625-3.753906 4.144531 2.074218 5.824219 7.117187 3.75 11.261718l-25.179688 50.359375c-1.421874 2.847657-4.332031 4.644531-7.515624 4.640625zm0 0"/><path d="m310.558594 251.964844h-117.507813c-4.636719 0-8.394531-3.757813-8.394531-8.394532 0-4.636718 3.757812-8.394531 8.394531-8.394531h117.507813c4.632812 0 8.390625 3.757813 8.390625 8.394531 0 4.636719-3.757813 8.394532-8.390625 8.394532zm0 0"/><path d="m151.082031 251.964844h-109.113281c-4.636719 0-8.394531-3.757813-8.394531-8.394532 0-4.636718 3.757812-8.394531 8.394531-8.394531h109.113281c4.636719 0 8.394531 3.757813 8.394531 8.394531 0 4.636719-3.757812 8.394532-8.394531 8.394532zm0 0"/><path d="m117.507812 403.046875h-41.96875c-4.632812 0-8.390624-3.757813-8.390624-8.394531v-61.355469c0-4.636719 3.757812-8.394531 8.390624-8.394531 4.636719 0 8.394532 3.757812 8.394532 8.394531v52.960937h25.179687v-50.359374c-4.632812 0-8.390625-3.757813-8.390625-8.394532 0-4.632812 3.757813-8.390625 8.390625-8.390625h8.394531c4.636719 0 8.394532 3.757813 8.394532 8.390625v67.148438c0 4.636718-3.757813 8.394531-8.394532 8.394531zm0 0"/><path d="m276.984375 403.046875h-41.96875c-4.636719 0-8.394531-3.757813-8.394531-8.394531v-67.148438c0-4.632812 3.757812-8.390625 8.394531-8.390625h8.394531c4.636719 0 8.394532 3.757813 8.394532 8.390625 0 4.636719-3.757813 8.394532-8.394532 8.394532v50.359374h25.179688v-52.960937c0-4.636719 3.757812-8.394531 8.394531-8.394531s8.394531 3.757812 8.394531 8.394531v61.355469c0 4.636718-3.757812 8.394531-8.394531 8.394531zm0 0"/><path d="m285.378906 503.765625h-218.230468c-4.636719 0-8.394532-3.757813-8.394532-8.390625v-92.328125c.007813-9.269531 7.519532-16.777344 16.785156-16.789063h201.445313c9.265625.011719 16.777344 7.519532 16.785156 16.789063v92.328125c0 4.632812-3.757812 8.390625-8.390625 8.390625zm-209.839844-16.785156h201.445313v-83.933594h-201.445313zm0 0"/><path d="m109.113281 428.226562c0 4.636719-3.757812 8.394532-8.390625 8.394532-4.636718 0-8.394531-3.757813-8.394531-8.394532 0-4.636718 3.757813-8.394531 8.394531-8.394531 4.632813 0 8.390625 3.757813 8.390625 8.394531zm0 0"/><path d="m260.195312 428.226562c0 4.636719-3.757812 8.394532-8.390624 8.394532-4.636719 0-8.394532-3.757813-8.394532-8.394532 0-4.636718 3.757813-8.394531 8.394532-8.394531 4.632812 0 8.390624 3.757813 8.390624 8.394531zm0 0"/><path d="m419.671875 503.765625h-16.785156c-9.269531-.007813-16.777344-7.519531-16.789063-16.785156v-184.65625c.011719-9.265625 7.519532-16.777344 16.789063-16.785157h33.574219c9.265624.007813 16.773437 7.519532 16.785156 16.785157v50.363281c-.011719 9.265625-7.519532 16.773438-16.785156 16.785156v117.507813c-.011719 9.265625-7.523438 16.777343-16.789063 16.785156zm16.789063-201.453125-33.574219.011719v184.65625h16.785156v-117.507813c.011719-9.265625 7.519531-16.777344 16.789063-16.785156zm0 0"/><path d="m411.277344 302.324219c-4.632813 0-8.390625-3.757813-8.390625-8.394531v-53.210938c.023437-11.128906 4.4375-21.796875 12.277343-29.691406l25.621094-25.539063c2.308594-2.597656 5.980469-3.5 9.226563-2.269531 3.25 1.230469 5.402343 4.335938 5.414062 7.808594v.085937c0 2.230469-.886719 4.367188-2.46875 5.941407l-25.933593 25.851562c-4.699219 4.738281-7.339844 11.136719-7.351563 17.8125v53.210938c0 4.636718-3.757813 8.394531-8.394531 8.394531zm0 0"/><path d="m459.597656 208.550781c-4.453125.007813-8.722656-1.757812-11.867187-4.910156l-11.871094-11.875c-3.148437-3.144531-4.917969-7.414063-4.917969-11.867187 0-4.453126 1.769532-8.722657 4.917969-11.867188l27.945313-27.9375c6.554687-6.546875 17.179687-6.546875 23.734374 0l11.871094 11.871094c6.550782 6.558594 6.550782 17.179687 0 23.738281l-27.933594 27.9375c-3.148437 3.152344-7.421874 4.917969-11.878906 4.910156zm0-16.777343.007813.007812 27.933593-27.953125-11.867187-11.867187-27.941406 27.933593zm0 0"/><path d="m470.03125 361.078125c-21.957031 0-31.121094-37.285156-33.40625-48.710937-.585938-2.941407.4375-5.972657 2.6875-7.953126 2.253906-1.980468 5.390625-2.609374 8.230469-1.648437 2.839843.957031 4.953125 3.359375 5.542969 6.300781 3.578124 17.777344 11.972656 35.226563 16.945312 35.226563 4.636719 0 8.394531 3.757812 8.394531 8.394531 0 4.632812-3.757812 8.390625-8.394531 8.390625zm0 0"/></svg>