<svg height="503pt" viewBox="0 0 503.88892 503" width="503pt" xmlns="http://www.w3.org/2000/svg"><path d="m213.613281 330.570312-12.171875 18.214844-25.179687 37.769532-25.179688-37.769532-12.171875-18.214844zm0 0" fill="#fdd7ad"/><path d="m151.082031 283.566406h50.359375v65.21875h-50.359375zm0 0" fill="#ffe0b2"/><path d="m344.132812 465.539062v13.34375c-.027343 9.261719-7.527343 16.761719-16.789062 16.785157h-302.164062c-9.257813-.023438-16.757813-7.523438-16.785157-16.785157v-50.359374c.019531-46.542969 31.898438-87.019532 77.136719-97.953126h29.796875l48.765625 44.820313 6.042969 5.539063 6.125 5.625 5.875-5.957032 49.605469-50.027344h35.253906c19.9375 4.820313 37.921875 15.628907 51.535156 30.972657zm0 0" fill="#283593"/><path d="m320.882812 465.539062v13.34375c-.027343 9.261719-7.527343 16.761719-16.789062 16.785157h-278.914062c-9.257813-.023438-16.757813-7.523438-16.785157-16.785157v-50.359374c.019531-46.542969 31.898438-87.019532 77.136719-97.953126h6.546875l54.808594 50.359376 6.125 5.625 5.875-5.957032 5.207031-5.207031 6.042969 5.539063 6.125 5.625 5.875-5.957032 49.605469-50.027344h12.003906c19.9375 4.820313 37.921875 15.628907 51.535156 30.972657zm0 0" fill="#3f51b5"/><path d="m483.460938 301.109375-19.976563-6.882813-87.878906-30.46875c-5.734375-1.957031-12.011719-1.566406-17.457031 1.09375-5.464844 2.628907-9.636719 7.347657-11.582032 13.09375l-47.003906 136.222657-2.6875 7.640625c-.914062 2.570312-.375 5.433594 1.40625 7.5 1.785156 2.066406 4.539062 3.019531 7.214844 2.492187 2.679687-.527343 4.867187-2.453125 5.734375-5.042969 1.382812-3.949218 5.667969-6.074218 9.652343-4.78125l99.796876 34.496094c.335937.167969.671874.25 1.007812.417969l14.351562 4.953125c.816407.261719 1.664063.402344 2.519532.421875 3.226562-.011719 6.089844-2.066406 7.132812-5.121094l47.253906-136.730469c2.703126-7.949218-1.539062-16.585937-9.484374-19.304687zm0 0" fill="#6a1b9a"/><path d="m463.484375 294.226562-87.878906-30.46875c-5.734375-1.957031-12.011719-1.566406-17.457031 1.09375-5.464844 2.628907-9.636719 7.347657-11.582032 13.09375l-47.003906 136.222657 97.867188 33.742187c.320312.175782.65625.316406 1.007812.421875l14.351562 4.949219c.789063.257812 1.609376.398438 2.433594.421875 3.25-.007813 6.140625-2.058594 7.21875-5.121094l47.171875-136.726562c2.320313-6.585938-.222656-13.902344-6.128906-17.628907zm0 0" fill="#9d27b0"/><path d="m427.144531 458.570312v.085938l-10.996093 31.726562-111.046876-38.359374c-7.761718-2.679688-12.453124-10.574219-11.101562-18.671876 1.347656-8.097656 8.347656-14.042968 16.558594-14.0625 1.855468.015626 3.699218.324219 5.453125.921876zm0 0" fill="#ffeb3a"/><path d="m176.261719 386.554688-25.933594 32.417968c-1.730469 2.160156-4.410156 3.328125-7.171875 3.128906-2.757812-.203124-5.238281-1.753906-6.632812-4.144531l-47.6875-81.75c-1.230469-2.109375-1.480469-4.648437-.6875-6.957031.796874-2.3125 2.554687-4.160156 4.820312-5.066406l26.636719-10.652344c3.691406-1.460938 7.898437-.128906 10.074219 3.191406l9.230468 13.847656 12.171875 18.214844zm0 0" fill="#f5f5f5"/><path d="m263.6875 336.207031-47.6875 81.753907c-1.394531 2.390624-3.875 3.9375-6.632812 4.140624-2.761719.203126-5.441407-.964843-7.171876-3.125l-25.933593-32.421874 25.179687-37.769532 12.171875-18.214844 9.234375-13.847656c2.171875-3.320312 6.382813-4.652344 10.070313-3.191406l26.636719 10.65625c2.265624.90625 4.027343 2.753906 4.820312 5.0625s.542969 4.851562-.6875 6.957031zm0 0" fill="#f5f5f5"/><path d="m330.785156 164.882812c-3.109375-3.1875-7.378906-4.972656-11.835937-4.949218h-.082031c.082031-1.429688.082031-11.25.082031-12.589844-1.179688-77.636719-65.050781-139.628906-142.6875-138.492188-77.636719-1.136718-141.507813 60.855469-142.6875 138.492188 0 1.339844 0 11.160156.082031 12.589844h-.082031c-9.242188.066406-16.71875 7.542968-16.785157 16.785156.023438 9.261719 7.523438 16.761719 16.785157 16.789062h19.222656c11.582031 52.710938 62.445313 92.324219 123.464844 92.324219s111.886719-39.613281 123.46875-92.324219h19.21875c9.261719-.027343 16.761719-7.527343 16.789062-16.789062.023438-4.453125-1.765625-8.726562-4.953125-11.835938zm0 0" fill="#fdd7ad"/><path d="m52.796875 193.507812h-19.222656c-9.261719-.027343-16.761719-7.527343-16.785157-16.789062.066407-9.242188 7.542969-16.71875 16.785157-16.785156h17.375c-.410157 3.59375-.605469 7.207031-.589844 10.824218.015625 3.984376.238281 7.960938.671875 11.921876.421875 3.691406 1.007812 7.21875 1.765625 10.828124zm0 0" fill="#ffe0b2"/><path d="m335.738281 176.71875c-.027343 9.261719-7.527343 16.761719-16.789062 16.789062h-19.21875c.753906-3.609374 1.34375-7.136718 1.761719-10.828124.4375-3.960938.660156-7.9375.671874-11.921876.019532-3.617187-.179687-7.230468-.585937-10.824218h17.371094c9.246093.066406 16.722656 7.542968 16.789062 16.785156zm0 0" fill="#dfc49c"/><path d="m302.164062 170.757812c0 2.015626-.082031 4.03125-.167968 5.960938-.167969 2.015625-.335938 4.027344-.503906 5.960938-.417969 3.691406-1.007813 7.21875-1.761719 10.828124-11.582031 52.710938-62.449219 92.324219-123.46875 92.324219-3.945313 0-7.804688-.167969-11.582031-.417969-55.816407-4.699218-101.058594-42.554687-111.882813-91.90625-.757813-3.609374-1.34375-7.136718-1.765625-10.828124-.167969-1.933594-.335938-3.945313-.503906-5.960938-.082032-1.929688-.167969-3.945312-.167969-5.960938-.015625-3.617187.179687-7.230468.589844-10.824218 0-.335938.082031-.671875.082031-1.007813.253906-2.6875.757812-5.371093 1.175781-8.058593.757813-3.691407 1.679688-7.300782 2.769531-10.910157v-.085937c8.980469-20.5625 31.140626-62.027344 66.476563-69.832032 14.78125-2.910156 30.113281-.34375 43.144531 7.21875h.082032c4.003906 2.136719 7.871093 4.519532 11.582031 7.132813 9.40625-6.929687 20.15625-11.820313 31.558593-14.351563 49.019532-10.074218 78.984376 45.070313 89.726563 69.832032v.085937c1.09375 3.609375 2.015625 7.21875 2.769531 10.910157.421875 2.6875.925782 5.371093 1.175782 8.058593 0 .335938.085937.671875.085937 1.007813.40625 3.59375.605469 7.207031.585937 10.824218zm0 0" fill="#dfc49c"/><path d="m278.914062 170.757812c0 2.015626-.082031 4.03125-.167968 5.960938-.167969 2.015625-.335938 4.027344-.503906 5.960938-.417969 3.691406-1.007813 7.21875-1.761719 10.828124-10.828125 49.351563-56.066407 87.207032-111.800781 91.90625-55.816407-4.699218-101.058594-42.554687-111.882813-91.90625-.757813-3.609374-1.34375-7.136718-1.765625-10.828124-.167969-1.933594-.335938-3.945313-.503906-5.960938-.082032-1.929688-.167969-3.945312-.167969-5.960938-.015625-3.617187.179687-7.230468.589844-10.824218 0-.335938.082031-.671875.082031-1.007813.253906-2.6875.757812-5.371093 1.175781-8.058593.757813-3.691407 1.679688-7.300782 2.769531-10.910157v-.085937c8.980469-20.5625 31.140626-62.027344 66.476563-69.832032 11.40625 2.53125 22.15625 7.421876 31.558594 14.351563 3.710937-2.613281 7.582031-4.996094 11.585937-7.132813h.082032c4.003906 2.136719 7.871093 4.519532 11.582031 7.132813 9.40625-6.929687 20.15625-11.820313 31.558593-14.351563 35.421876 7.804688 57.496094 49.269532 66.476563 69.832032v.085937c1.09375 3.609375 2.015625 7.21875 2.769531 10.910157.421875 2.6875.925782 5.371093 1.175782 8.058593 0 .335938.085937.671875.085937 1.007813.40625 3.59375.605469 7.207031.585937 10.824218zm0 0" fill="#ffe0b2"/><path d="m318.949219 147.34375c0 1.339844 0 11.160156-.082031 12.589844h-17.289063c-.253906-3.023438-.757813-6.042969-1.261719-9.066406-.753906-3.691407-1.675781-7.300782-2.769531-10.910157v-.085937c-12.925781-29.710938-53.382813-102.988282-121.285156-55.480469-67.902344-47.507813-108.359375 25.769531-121.285157 55.480469v.085937c-1.089843 3.609375-2.011718 7.21875-2.769531 10.910157-.503906 3.023437-1.007812 6.042968-1.257812 9.066406h-17.292969c-.082031-1.429688-.082031-11.25-.082031-12.589844 1.179687-77.636719 65.050781-139.628906 142.6875-138.492188 77.636719-1.136718 141.507812 60.855469 142.6875 138.492188zm0 0" fill="#91562d"/><path d="m318.949219 147.34375c0 1.339844 0 11.160156-.082031 12.589844h-17.289063c-.253906-3.023438-.757813-6.042969-1.261719-9.066406-.753906-3.691407-1.675781-7.300782-2.769531-10.910157v-.085937c-.753906-1.761719-1.59375-3.609375-2.515625-5.621094-7.445312-67.75-62.425781-120.398438-130.433594-124.894531 3.859375-.335938 7.71875-.503907 11.664063-.503907 77.636719-1.136718 141.507812 60.855469 142.6875 138.492188zm0 0" fill="#6d4122"/><path d="m159.476562 159.933594c0 8.902344-3.535156 17.445312-9.832031 23.742187s-14.835937 9.832031-23.742187 9.832031c-6.710938.035157-13.273438-1.984374-18.800782-5.792968-11.714843-7.886719-17.234374-22.261719-13.808593-35.960938 3.429687-13.699218 15.070312-23.78125 29.117187-25.222656 14.046875-1.4375 27.492188 6.078125 33.625 18.796875 2.304688 4.519531 3.488282 9.53125 3.441406 14.605469zm0 0" fill="#02a9f4"/><path d="m260.195312 159.933594c.003907 8.902344-3.53125 17.445312-9.828124 23.742187-6.296876 6.296875-14.839844 9.832031-23.742188 9.832031-18.5-.105468-33.472656-15.078124-33.574219-33.574218-.015625-15.667969 10.816407-29.261719 26.09375-32.738282 15.277344-3.476562 30.925781 4.085938 37.695313 18.214844 2.230468 4.515625 3.382812 9.488282 3.355468 14.523438zm0 0" fill="#02a9f4"/><path d="m159.476562 159.933594c0 8.902344-3.535156 17.445312-9.832031 23.742187s-14.835937 9.832031-23.742187 9.832031c-6.710938.035157-13.273438-1.984374-18.800782-5.792968 3.609376-16.789063 14.9375-38.527344 48.933594-42.386719 2.304688 4.519531 3.488282 9.53125 3.441406 14.605469zm0 0" fill="#0377bc"/><path d="m260.195312 159.933594c.003907 8.902344-3.53125 17.445312-9.828124 23.742187-6.296876 6.296875-14.839844 9.832031-23.742188 9.832031-6.476562.007813-12.8125-1.890624-18.214844-5.457031 4.21875-23.773437 24.316406-41.464843 48.429688-42.640625 2.230468 4.515625 3.382812 9.488282 3.355468 14.523438zm0 0" fill="#0377bc"/><path d="m176.261719 294.226562c-69.023438 0-126.449219-47.5625-133.574219-110.628906-.46875-4.269531-.707031-8.558594-.71875-12.851562.015625-7.160156.679688-14.304688 1.980469-21.347656.863281-4.261719 1.855469-8.238282 3.003906-11.976563.8125-2.941406 3.15625-5.210937 6.125-5.925781 2.96875-.710938 6.089844.242187 8.152344 2.492187 2.058593 2.246094 2.738281 5.441407 1.769531 8.332031-1.007812 3.316407-1.867188 6.785157-2.566406 10.246094-1.796875 9.625-2.15625 19.460938-1.054688 29.1875 6.152344 54.53125 56.40625 95.6875 116.882813 95.6875 60.476562 0 110.730469-41.15625 116.886719-95.730468.40625-3.640626.613281-7.300782.621093-10.964844-.019531-6.148438-.589843-12.289063-1.703125-18.339844-.671875-3.300781-1.53125-6.769531-2.542968-10.085938-.96875-2.890624-.289063-6.085937 1.773437-8.332031 2.0625-2.25 5.183594-3.203125 8.148437-2.492187 2.96875.714844 5.316407 2.984375 6.128907 5.925781 1.148437 3.738281 2.140625 7.714844 2.976562 11.816406 2.136719 11.308594 2.570313 22.875 1.285157 34.3125-7.121094 63.113281-64.550782 110.675781-133.574219 110.675781zm0 0"/><path d="m52.796875 201.898438h-19.222656c-13.902344-.015626-25.164063-11.277344-25.179688-25.179688.066407-13.878906 11.300781-25.109375 25.179688-25.179688h17.375c4.636719 0 8.394531 3.757813 8.394531 8.394532 0 4.632812-3.757812 8.390625-8.394531 8.390625h-17.292969c-2.214844-.035157-4.351562.839843-5.90625 2.417969-1.644531 1.554687-2.574219 3.714843-2.570312 5.976562.003906 4.632812 3.761718 8.390625 8.394531 8.394531h19.222656c4.632813 0 8.390625 3.757813 8.390625 8.394531 0 4.632813-3.757812 8.390626-8.390625 8.390626zm0 0"/><path d="m318.949219 201.898438h-19.21875c-4.636719 0-8.394531-3.757813-8.394531-8.390626 0-4.636718 3.757812-8.394531 8.394531-8.394531h19.21875c4.636719-.003906 8.390625-3.761719 8.394531-8.394531.019531-2.1875-.847656-4.289062-2.410156-5.824219-1.554688-1.644531-3.71875-2.574219-5.984375-2.570312h-17.371094c-4.636719 0-8.394531-3.757813-8.394531-8.390625 0-4.636719 3.757812-8.394532 8.394531-8.394532h17.289063c13.914062.019532 25.199218 11.269532 25.265624 25.179688-.015624 13.902344-11.28125 25.164062-25.183593 25.179688zm0 0"/><path d="m318.878906 168.324219c-.167968 0-.328125 0-.492187-.011719-4.621094-.269531-8.152344-4.230469-7.890625-8.851562.070312-1.578126.0625-10.835938.0625-12.117188-1.261719-72.96875-61.324219-131.15625-134.296875-130.101562-72.96875-1.054688-133.035157 57.132812-134.292969 130.101562 0 1.28125-.007812 10.558594.0625 12.121094.140625 4.546875-3.371094 8.378906-7.914062 8.636718-4.539063.257813-8.460938-3.152343-8.839844-7.6875-.089844-1.480468-.097656-11.675781-.097656-13.070312 1.269531-82.234375 68.847656-147.933594 151.082031-146.886719 82.238281-1.046875 149.8125 64.652344 151.082031 146.886719 0 1.394531-.007812 11.589844-.097656 13.070312-.253906 4.441407-3.921875 7.910157-8.367188 7.910157zm0 0"/><path d="m54.976562 148.308594c-2.222656.011718-4.355468-.867188-5.929687-2.433594s-2.460937-3.695312-2.464844-5.917969c.003907-1.179687.238281-2.347656.699219-3.433593 10.070312-23.152344 32.394531-63.515626 68.71875-73.765626 20.804688-5.867187 42.691406-.902343 65.074219 14.757813 3.726562 2.683594 4.605469 7.859375 1.972656 11.621094s-7.796875 4.710937-11.59375 2.132812c-18.042969-12.628906-35.144531-16.78125-50.894531-12.359375-30.625 8.640625-50.527344 47.480469-57.78125 64.0625-1.257813 3.210938-4.351563 5.324219-7.800782 5.335938zm0 0"/><path d="m297.546875 148.308594c-3.605469.011718-6.816406-2.285156-7.964844-5.707032-7.378906-16.785156-27.222656-55.113281-57.617187-63.6875-15.703125-4.433593-32.851563-.273437-50.894532 12.355469-2.453124 1.769531-5.671874 2.078125-8.417968.8125-2.75-1.269531-4.601563-3.917969-4.851563-6.933593-.25-3.015626 1.144531-5.933594 3.648438-7.632813 22.386719-15.664063 44.296875-20.628906 65.074219-14.757813 36.328124 10.25 58.648437 50.613282 68.722656 73.765626 1.125 2.597656.871094 5.59375-.675782 7.964843-1.550781 2.375-4.1875 3.808594-7.023437 3.820313zm0 0"/><path d="m151.082031 357.179688c-4.636719 0-8.394531-3.757813-8.394531-8.394532v-65.21875c0-4.632812 3.757812-8.390625 8.394531-8.390625s8.394531 3.757813 8.394531 8.390625v65.21875c0 4.636719-3.757812 8.394532-8.394531 8.394532zm0 0"/><path d="m201.441406 357.179688c-4.632812 0-8.390625-3.757813-8.390625-8.394532v-65.21875c0-4.632812 3.757813-8.390625 8.390625-8.390625 4.636719 0 8.394532 3.757813 8.394532 8.390625v65.21875c0 4.636719-3.757813 8.394532-8.394532 8.394532zm0 0"/><path d="m327.34375 504.0625h-302.164062c-13.898438-.015625-25.164063-11.277344-25.179688-25.179688v-50.359374c-.121094-50.46875 34.476562-94.398438 83.566406-106.113282 2.917969-.707031 5.992188.195313 8.0625 2.371094 2.070313 2.171875 2.820313 5.289062 1.96875 8.167969-.851562 2.878906-3.175781 5.085937-6.097656 5.78125-41.539062 9.914062-70.8125 47.085937-70.710938 89.792969v50.359374c.003907 4.632813 3.757813 8.390626 8.390626 8.394532h302.164062c4.632812-.003906 8.390625-3.761719 8.394531-8.394532v-13.34375c0-4.636718 3.757813-8.394531 8.394531-8.394531 4.632813 0 8.390626 3.757813 8.390626 8.394531v13.34375c-.015626 13.902344-11.277344 25.164063-25.179688 25.179688zm0 0"/><path d="m318.53125 369.9375c-2.398438.003906-4.679688-1.023438-6.269531-2.816406-12.460938-14.085938-28.953125-23.996094-47.238281-28.390625-2.921876-.695313-5.246094-2.902344-6.097657-5.78125-.851562-2.878907-.101562-5.996094 1.96875-8.167969 2.070313-2.175781 5.144531-3.078125 8.0625-2.371094 21.617188 5.191406 41.113281 16.90625 55.84375 33.554688 2.199219 2.46875 2.738281 6 1.386719 9.015625-1.355469 3.015625-4.351562 4.953125-7.65625 4.957031zm0 0"/><path d="m142.6875 436.914062c-.203125 0-.410156-.007812-.613281-.023437-2.757813-.203125-5.242188-1.75-6.640625-4.140625l-58.753906-100.71875c-1.226563-2.113281-1.472657-4.652344-.679688-6.960938.796875-2.308593 2.554688-4.15625 4.820312-5.0625l35.648438-14.257812c7.367188-2.917969 15.773438-.304688 20.195312 6.273438l46.582032 69.875c2.027344 3.042968 1.855468 7.042968-.425782 9.898437l-33.574218 41.96875c-1.59375 1.988281-4.007813 3.148437-6.558594 3.148437zm-46.597656-104.933593 47.691406 81.746093 22.097656-27.621093-43.179687-64.765625zm0 0"/><path d="m209.835938 436.914062c-2.550782 0-4.960938-1.160156-6.554688-3.148437l-33.574219-41.96875c-2.28125-2.855469-2.453125-6.855469-.429687-9.898437l46.585937-69.871094c4.417969-6.585938 12.832031-9.199219 20.203125-6.277344l35.640625 14.257812c2.265625.90625 4.023438 2.753907 4.820313 5.0625.792968 2.308594.546875 4.847657-.679688 6.960938l-58.753906 100.71875c-1.398438 2.390625-3.882812 3.9375-6.640625 4.140625-.207031.015625-.410156.023437-.617187.023437zm-23.1875-50.808593 22.097656 27.621093 47.6875-81.746093-26.605469-10.640625zm0 0"/><path d="m176.261719 504.0625c-4.632813 0-8.390625-3.757812-8.390625-8.394531v-109.113281c0-4.636719 3.757812-8.394532 8.390625-8.394532 4.636719 0 8.394531 3.757813 8.394531 8.394532v109.113281c0 4.636719-3.757812 8.394531-8.394531 8.394531zm0 0"/><path d="m218.230469 462.097656c0 4.632813-3.757813 8.390625-8.394531 8.390625-4.636719 0-8.394532-3.757812-8.394532-8.390625 0-4.636718 3.757813-8.394531 8.394532-8.394531 4.636718 0 8.394531 3.757813 8.394531 8.394531zm0 0"/><path d="m125.902344 201.898438c-23.179688 0-41.96875-18.789063-41.96875-41.964844 0-23.179688 18.789062-41.96875 41.96875-41.96875 23.175781 0 41.96875 18.789062 41.96875 41.96875-.027344 23.164062-18.800782 41.9375-41.96875 41.964844zm0-67.148438c-13.90625 0-25.179688 11.277344-25.179688 25.183594s11.273438 25.179687 25.179688 25.179687 25.179687-11.273437 25.179687-25.179687c-.015625-13.902344-11.28125-25.167969-25.179687-25.183594zm0 0"/><path d="m226.625 201.898438c-23.179688 0-41.96875-18.789063-41.96875-41.964844 0-23.179688 18.789062-41.96875 41.96875-41.96875 23.175781 0 41.964844 18.789062 41.964844 41.96875-.027344 23.164062-18.800782 41.9375-41.964844 41.964844zm0-67.148438c-13.910156 0-25.183594 11.277344-25.183594 25.183594s11.273438 25.179687 25.183594 25.179687c13.90625 0 25.179688-11.273437 25.179688-25.179687-.015626-13.902344-11.28125-25.167969-25.179688-25.183594zm0 0"/><path d="m50.371094 176.71875c-3.898438.003906-7.28125-2.671875-8.179688-6.460938-.898437-3.789062.929688-7.699218 4.414063-9.441406 14.488281-6.054687 30.023437-9.207031 45.722656-9.277344 4.636719-.003906 8.394531 3.753907 8.398437 8.390626 0 4.632812-3.753906 8.394531-8.390624 8.394531-13.097657.082031-26.0625 2.628906-38.21875 7.507812-1.164063.585938-2.445313.886719-3.746094.886719zm0 0"/><path d="m302.15625 176.71875c-1.300781 0-2.582031-.300781-3.746094-.886719-12.15625-4.878906-25.121094-7.425781-38.222656-7.507812-4.632812 0-8.390625-3.761719-8.386719-8.394531 0-4.636719 3.761719-8.394532 8.394531-8.390626 15.703126.070313 31.238282 3.222657 45.722657 9.277344 3.484375 1.742188 5.3125 5.652344 4.417969 9.441406-.898438 3.789063-4.285157 6.464844-8.179688 6.460938zm0 0"/><path d="m193.050781 168.324219c-2.226562.003906-4.363281-.882813-5.933593-2.457031-2.933594-3.03125-6.71875-5.101563-10.855469-5.933594-4.144531.835937-7.9375 2.914062-10.875 5.957031-3.300781 3.1875-8.542969 3.136719-11.78125-.113281-3.234375-3.25-3.265625-8.496094-.0625-11.777344 6.066406-6.171875 14.109375-10.015625 22.71875-10.855469 8.613281.839844 16.65625 4.683594 22.722656 10.855469 2.398437 2.398438 3.117187 6.007812 1.816406 9.144531-1.296875 3.136719-4.355469 5.179688-7.75 5.179688zm0 0"/><path d="m442.984375 472.484375c-2.714844-.003906-5.257813-1.316406-6.832031-3.527344-1.574219-2.207031-1.984375-5.042969-1.101563-7.605469l52.046875-150.742187-119-41.097656c-4.378906-1.515625-9.15625.808593-10.671875 5.191406l-54.792969 158.675781c-1.511718 4.382813-6.292968 6.710938-10.671874 5.195313-4.382813-1.511719-6.710938-6.289063-5.199219-10.671875l54.796875-158.675782c4.539062-13.144531 18.871094-20.121093 32.015625-15.585937l119.007812 41.097656c4.210938 1.453125 7.667969 4.519531 9.617188 8.527344 1.945312 4.003906 2.222656 8.617187.769531 12.828125l-52.050781 150.730469c-1.164063 3.386719-4.351563 5.660156-7.933594 5.660156zm0 0"/><path d="m432.023438 504.21875c-.929688 0-1.855469-.15625-2.734376-.460938l-126.945312-43.839843c-8.558594-2.890625-14.910156-10.148438-16.644531-19.015625-1.734375-8.867188 1.410156-17.980469 8.246093-23.886719 6.835938-5.910156 16.3125-7.699219 24.832032-4.699219l126.945312 43.835938c2.851563.964844 4.964844 3.386718 5.542969 6.339844.582031 2.953124-.46875 5.992187-2.746094 7.960937-2.277343 1.96875-5.433593 2.566406-8.273437 1.570313l-126.941406-43.835938c-4.355469-1.425781-9.046876.90625-10.542969 5.234375-1.5 4.328125.753906 9.058594 5.058593 10.628906l126.941407 43.835938c3.882812 1.332031 6.230469 5.277343 5.554687 9.328125-.679687 4.046875-4.1875 7.007812-8.292968 7.003906zm0 0"/><path d="m416.15625 498.738281c-2.714844-.003906-5.257812-1.316406-6.832031-3.527343-1.574219-2.210938-1.984375-5.042969-1.101563-7.609376l10.957032-31.734374c1.515624-4.382813 6.296874-6.707032 10.675781-5.191407 4.382812 1.511719 6.707031 6.292969 5.195312 10.675781l-10.960937 31.730469c-1.167969 3.386719-4.351563 5.65625-7.933594 5.65625zm0 0"/><path d="m342.871094 402.394531c-2.710938-.003906-5.257813-1.316406-6.832032-3.527343-1.574218-2.210938-1.984374-5.046876-1.101562-7.609376l32.878906-95.203124c.976563-2.832032 3.394532-4.929688 6.339844-5.5 2.941406-.570313 5.96875.472656 7.933594 2.738281s2.574218 5.40625 1.59375 8.242187l-32.875 95.199219c-1.167969 3.386719-4.355469 5.660156-7.9375 5.660156zm0 0"/><path d="m449.597656 350.453125c-.929687 0-1.855468-.15625-2.738281-.464844l-47.597656-16.4375c-2.832031-.976562-4.929688-3.394531-5.5-6.335937-.570313-2.945313.472656-5.96875 2.734375-7.9375 2.265625-1.964844 5.40625-2.574219 8.242187-1.59375l47.597657 16.4375c3.882812 1.332031 6.230468 5.277344 5.550781 9.324218-.675781 4.050782-4.183594 7.011719-8.289063 7.007813zm0 0"/><path d="m438.640625 382.191406c-.929687-.003906-1.855469-.160156-2.738281-.464844l-47.597656-16.4375c-2.851563-.964843-4.96875-3.382812-5.546876-6.339843-.578124-2.953125.472657-5.992188 2.75-7.960938 2.277344-1.96875 5.433594-2.566406 8.273438-1.566406l47.597656 16.4375c3.882813 1.332031 6.230469 5.277344 5.550782 9.324219-.675782 4.050781-4.183594 7.011718-8.289063 7.007812zm0 0"/><path d="m427.679688 413.921875c-.929688 0-1.855469-.15625-2.738282-.460937l-47.597656-16.4375c-2.835938-.980469-4.933594-3.394532-5.503906-6.339844-.570313-2.945313.476562-5.96875 2.738281-7.933594 2.265625-1.964844 5.40625-2.574219 8.242187-1.597656l47.597657 16.4375c3.878906 1.335937 6.230469 5.28125 5.550781 9.328125s-4.1875 7.011719-8.289062 7.003906zm0 0"/></svg>