<svg height="503pt" viewBox="0 0 503.88892 503" width="503pt" xmlns="http://www.w3.org/2000/svg"><path d="m318.949219 193.507812c9.261719-.027343 16.761719-7.527343 16.789062-16.789062-.066406-9.242188-7.542969-16.71875-16.789062-16.785156h-.082031c.082031-1.429688.082031-11.25.082031-12.589844-1.179688-77.636719-65.050781-139.628906-142.6875-138.492188-77.636719-1.136718-141.507813 60.855469-142.6875 138.492188 0 1.339844 0 11.160156.082031 12.589844h-.082031c-9.242188.066406-16.71875 7.542968-16.785157 16.785156.023438 9.261719 7.523438 16.761719 16.785157 16.789062 0 0 8.394531 41.964844-8.394531 75.539063-14.9375 29.878906-9.902344 66.476563 15.109374 85.949219l.082032.082031c12.640625-11.992187 28.214844-20.449219 45.160156-24.507813h29.796875l54.808594 50.359376 6.125 5.625 5.875-5.957032 49.605469-50.027344h35.253906c16.867187 4.035157 32.382812 12.429688 44.988281 24.339844l22.410156-65.046875c-1.359375-7.238281-3.730469-14.246093-7.050781-20.816406-16.785156-33.574219-8.394531-75.539063-8.394531-75.539063zm0 0" fill="#af8066"/><path d="m334.394531 289.863281 9.738281 96.691407c-12.421874-11.75-60.015624-51.871094-77.136718-55.984376h-35.253906l-49.605469 50.027344-5.875 5.957032-6.125-5.625-54.808594-50.359376h-29.796875c-16.945312 4.058594-32.519531 12.515626-45.160156 24.507813l-.082032-.082031c-25.011718-19.472656-30.046874-56.070313-15.109374-85.949219 16.789062-33.574219 8.394531-75.539063 8.394531-75.539063h19.222656c-.421875-1.847656-.757813-3.609374-1.007813-5.375.335938 1.679688.671876 3.273438 1.007813 4.953126.917969 4.230468 2.066406 8.402343 3.441406 12.507812l1.507813 4.027344c.589844 1.34375 1.09375 2.6875 1.679687 4.027344 4.773438 10.851562 11.230469 20.882812 19.136719 29.714843 1.847656 2.097657 3.863281 4.195313 5.875 6.128907.925781.921874 1.847656 1.84375 2.769531 2.683593 2.015625 1.761719 4.113281 3.609375 6.210938 5.289063.167969.082031.335937.25.503906.335937 2.183594 1.761719 4.449219 3.441407 6.800781 5.035157 2.433594 1.679687 4.949219 3.273437 7.554688 4.785156 2.515625 1.511718 5.203125 2.9375 7.886718 4.28125 2.183594 1.089844 4.449219 2.179687 6.714844 3.105468l3.023438 1.257813c1.929687.753906 3.859375 1.511719 5.792968 2.097656.78125.355469 1.597657.636719 2.433594.839844 2 .742187 4.046875 1.359375 6.125 1.847656.957032.328125 1.941406.582031 2.9375.753907.464844.152343.945313.265624 1.429688.335937 1.761718.503906 3.523437.839844 5.285156 1.175781 1.34375.25 2.6875.503906 3.945312.671875 1.679688.335938 3.441407.585938 5.121094.753907 1.5.25 3.011719.417968 4.53125.503906 2.097656.253906 4.199219.335937 6.296875.417968 2.179688.085938 4.28125.167969 6.460938.167969 2.183593 0 4.28125-.082031 6.464843-.167969 2.097657-.082031 4.195313-.164062 6.292969-.417968 1.519531-.085938 3.03125-.253906 4.535157-.503906 1.675781-.167969 3.441406-.417969 5.117187-.753907 1.261719-.167969 2.601563-.421875 3.945313-.671875 1.761718-.335937 3.527343-.671875 5.289062-1.175781.484375-.070313.960938-.183594 1.425781-.335937.972657-.171876 1.925781-.425782 2.855469-.753907 2.414062-.601562 4.796875-1.328125 7.132812-2.183593.167969 0 .253907 0 .335938-.082032 2.6875-.839844 5.203125-1.847656 7.804688-2.855468.757812-.335938 1.429687-.585938 2.183593-.921876 4.980469-2.148437 9.828125-4.585937 14.519531-7.304687 4.914063-2.894531 9.625-6.121094 14.101563-9.652344.335937-.25.589844-.503906.925781-.753906 2.097656-1.679687 4.195313-3.441406 6.210938-5.289063 2.179687-2.015624 4.195312-4.027343 6.210937-6.125 1.929688-2.101562 3.859375-4.28125 5.707031-6.464843 1.34375-1.679688 2.601563-3.355469 3.945313-5.121094 4.621094-6.394531 8.5625-13.257813 11.75-20.480469.585937-1.257812 1.089844-2.515625 1.679687-3.859375 2.117188-5.339843 3.800782-10.839843 5.035157-16.449219h19.21875s-8.390625 41.964844 8.394531 75.539063c3.320312 6.570313 5.691406 13.578125 7.050781 20.816406zm0 0" fill="#a0522d"/><path d="m344.132812 386.554688c-4.703124-4.449219-14.355468-12.839844-25.433593-21.90625l-7.554688-74.785157c-1.359375-7.238281-3.730469-14.246093-7.050781-20.816406-8.074219-17.832031-11.648438-37.371094-10.40625-56.90625.335938-.671875.671875-1.429687 1.007812-2.183594 2.117188-5.339843 3.800782-10.839843 5.035157-16.449219h19.21875s-8.390625 41.964844 8.394531 75.539063c3.320312 6.570313 5.691406 13.578125 7.050781 20.816406zm0 0" fill="#783e22"/><path d="m213.613281 330.570312-12.171875 18.214844-25.179687 37.769532-25.179688-37.769532-12.171875-18.214844zm0 0" fill="#fdd7ad"/><path d="m151.082031 283.566406h50.359375v65.21875h-50.359375zm0 0" fill="#ffe0b2"/><path d="m344.132812 465.539062v13.34375c-.027343 9.261719-7.527343 16.761719-16.789062 16.785157h-302.164062c-9.257813-.023438-16.757813-7.523438-16.785157-16.785157v-50.359374c.195313-46.480469 31.996094-86.863282 77.136719-97.953126h29.796875l48.765625 44.820313 6.042969 5.539063 6.125 5.625 5.875-5.957032 49.605469-50.027344h35.253906c16.867187 4.035157 32.382812 12.429688 44.988281 24.339844 2.265625 2.101563 4.449219 4.28125 6.546875 6.632813l18.382812 74.785156zm0 0" fill="#283593"/><path d="m320.882812 465.539062v13.34375c-.027343 9.261719-7.527343 16.761719-16.789062 16.785157h-278.914062c-9.257813-.023438-16.757813-7.523438-16.785157-16.785157v-50.359374c.195313-46.480469 31.996094-86.863282 77.136719-97.953126h6.546875l54.808594 50.359376 6.125 5.625 5.875-5.957032 5.207031-5.207031 6.042969 5.539063 6.125 5.625 5.875-5.957032 49.605469-50.027344h12.003906c16.867187 4.035157 32.382812 12.429688 44.988281 24.339844 2.265625 2.101563 4.449219 4.28125 6.546875 6.632813l18.382812 74.785156zm0 0" fill="#3f51b5"/><path d="m176.261719 386.554688-25.933594 32.417968c-1.730469 2.160156-4.410156 3.328125-7.171875 3.128906-2.757812-.203124-5.238281-1.753906-6.632812-4.144531l-47.6875-81.75c-1.230469-2.109375-1.480469-4.648437-.6875-6.957031.796874-2.3125 2.554687-4.160156 4.820312-5.066406l26.636719-10.652344c3.691406-1.460938 7.898437-.128906 10.074219 3.191406l9.230468 13.847656 12.171875 18.214844zm0 0" fill="#ecf0f1"/><path d="m263.6875 336.207031-47.6875 81.753907c-1.394531 2.390624-3.875 3.9375-6.632812 4.140624-2.761719.203126-5.441407-.964843-7.171876-3.125l-25.933593-32.421874 25.179687-37.769532 12.171875-18.214844 9.234375-13.847656c2.171875-3.320312 6.382813-4.652344 10.070313-3.191406l26.636719 10.65625c2.265624.90625 4.027343 2.753906 4.820312 5.0625s.542969 4.851562-.6875 6.957031zm0 0" fill="#ecf0f1"/><path d="m56.238281 205.59375c-1.441406-3.941406-2.589843-7.980469-3.441406-12.085938-.421875-1.847656-.757813-3.609374-1.007813-5.375.335938 1.679688.671876 3.273438 1.007813 4.953126.917969 4.230468 2.066406 8.402343 3.441406 12.507812zm0 0" fill="#fdd7ad"/><path d="m318.949219 147.34375c0 1.339844 0 11.160156-.082031 12.589844h-17.289063c-.253906-3.023438-.757813-6.042969-1.261719-9.066406-.503906-2.351563-1.007812-4.699219-1.675781-7.050782 0-.082031-.085937-.167968-.085937-.25v-.085937c-5.589844-12.246094-12.847657-23.65625-21.570313-33.910157-69.5 5.792969-107.101563-20.394531-123.550781-37.183593-4.105469-3.9375-7.714844-8.363281-10.746094-13.175781-1.152344 3.46875-2.761719 6.773437-4.78125 9.820312-7.722656 12.421875-26.777344 33.824219-70.339844 46.5-2.851562.921875-5.789062 1.679688-8.8125 2.433594l-4.449218 24.171875v.085937c-.753907 2.851563-1.507813 5.707032-2.097657 8.644532-.503906 3.023437-1.007812 6.042968-1.257812 9.066406h-17.292969c-.082031-1.429688-.082031-11.25-.082031-12.589844 1.179687-77.636719 65.050781-139.628906 142.6875-138.492188 77.636719-1.136718 141.507812 60.855469 142.6875 138.492188zm0 0" fill="#91562d"/><path d="m318.949219 147.34375c0 1.339844 0 11.160156-.082031 12.589844h-17.289063c-.253906-3.023438-.757813-6.042969-1.261719-9.066406-.503906-2.351563-1.007812-4.699219-1.675781-7.050782 0-.082031-.085937-.167968-.085937-.25v-.085937c-.894532-2.664063-2.019532-5.25-3.355469-7.722657-6.769531-68.398437-62.019531-121.871093-130.601563-126.402343 3.859375-.335938 7.71875-.503907 11.664063-.503907 77.636719-1.136718 141.507812 60.855469 142.6875 138.492188zm0 0" fill="#6d4122"/><path d="m302.164062 170.757812c-.011718 3.984376-.234374 7.960938-.671874 11.921876-.417969 3.691406-1.007813 7.21875-1.761719 10.828124-1.234375 5.609376-2.917969 11.109376-5.035157 16.449219-.589843 1.34375-1.09375 2.601563-1.679687 3.859375-3.1875 7.222656-7.128906 14.085938-11.75 20.480469-1.34375 1.765625-2.601563 3.441406-3.945313 5.121094-1.847656 2.183593-3.777343 4.363281-5.707031 6.464843-2.015625 2.097657-4.03125 4.109376-6.210937 6.125-2.015625 1.847657-4.113282 3.609376-6.210938 5.289063-.335937.25-.589844.503906-.925781.753906-4.476563 3.53125-9.1875 6.757813-14.101563 9.652344-4.691406 2.71875-9.539062 5.15625-14.519531 7.304687-.753906.335938-1.425781.585938-2.183593.921876-2.601563 1.007812-5.117188 2.015624-7.804688 2.855468-.082031.082032-.167969.082032-.335938.082032-2.335937.855468-4.71875 1.582031-7.132812 2.183593-.929688.328125-1.882812.582031-2.855469.753907-.464843.152343-.941406.265624-1.425781.335937-1.761719.503906-3.527344.839844-5.289062 1.175781-1.34375.25-2.683594.503906-3.945313.671875-1.675781.335938-3.441406.585938-5.117187.753907-1.503907.25-3.015626.417968-4.535157.503906-2.097656.253906-4.195312.335937-6.292969.417968-2.183593.085938-4.28125.167969-6.464843.167969-2.179688 0-4.28125-.082031-6.460938-.167969-1.679687-.082031-3.441406-.164062-5.121093-.332031-.394532.011719-.789063-.015625-1.175782-.085937-1.519531-.085938-3.03125-.253906-4.53125-.503906-1.679687-.167969-3.441406-.417969-5.121094-.753907-1.257812-.167969-2.601562-.421875-3.945312-.671875-1.761719-.335937-3.523438-.671875-5.285156-1.175781-.484375-.070313-.964844-.183594-1.429688-.335937-.996094-.171876-1.980468-.425782-2.9375-.753907-2.078125-.488281-4.125-1.105469-6.125-1.847656-.835937-.203125-1.652344-.484375-2.433594-.839844-1.933593-.585937-3.863281-1.34375-5.792968-2.097656l-3.023438-1.257813c-2.265625-.925781-4.53125-2.015624-6.714844-3.105468-2.683593-1.34375-5.371093-2.769532-7.886718-4.28125-2.605469-1.511719-5.121094-3.105469-7.554688-4.785156-2.351562-1.59375-4.617187-3.273438-6.800781-5.035157-.167969-.085937-.335937-.253906-.503906-.335937-2.097657-1.679688-4.195313-3.527344-6.210938-5.289063-.921875-.839843-1.84375-1.761719-2.769531-2.683593-2.011719-1.933594-4.027344-4.03125-5.875-6.128907-7.90625-8.832031-14.363281-18.863281-19.136719-29.714843-.585937-1.339844-1.089843-2.683594-1.679687-4.027344l-1.507813-4.027344c-1.375-4.105469-2.523437-8.277344-3.441406-12.507812-.335937-1.679688-.671875-3.273438-1.007813-4.953126-.253906-1.84375-.589843-3.609374-.757812-5.453124-.433594-3.960938-.65625-7.9375-.671875-11.921876-.015625-3.617187.179687-7.230468.589844-10.824218.25-3.023438.753906-6.042969 1.257812-9.066406.589844-2.9375 1.34375-5.792969 2.097657-8.644532v-.085937l4.449218-24.171875c3.023438-.753906 5.960938-1.511719 8.8125-2.433594 36.679688-10.660156 55.984375-27.53125 65.804688-40.035156 1.636718-2.066406 3.152344-4.222656 4.535156-6.464844 2.019531-3.046875 3.628906-6.351562 4.78125-9.820312 3.03125 4.8125 6.640625 9.238281 10.746094 13.175781 13.847656 14.101562 42.636718 34.917969 92.832031 37.6875 2.601563.167969 5.285156.253906 8.054687.253906 7.5625.152344 15.128907-.097656 22.664063-.757813 8.722656 10.253907 15.980469 21.664063 21.570313 33.910157v.085937c0 .082032.085937.167969.085937.25.585937 2.351563 1.171875 4.699219 1.675781 7.050782.503906 3.023437 1.007813 6.042968 1.261719 9.066406.40625 3.59375.605469 7.207031.585937 10.824218zm0 0" fill="#dfc49c"/><path d="m278.914062 170.757812c-.011718 3.984376-.234374 7.960938-.671874 11.921876-.417969 3.691406-1.007813 7.21875-1.761719 10.828124-1.234375 5.609376-2.917969 11.109376-5.035157 16.449219-.589843 1.34375-1.09375 2.601563-1.679687 3.859375-3.1875 7.222656-7.125 14.085938-11.75 20.480469-1.34375 1.765625-2.601563 3.441406-3.945313 5.121094-1.847656 2.183593-3.777343 4.363281-5.707031 6.464843-2.015625 2.097657-4.03125 4.109376-6.210937 6.125-2.015625 1.847657-4.113282 3.609376-6.210938 5.289063-.335937.25-.589844.503906-.925781.753906-4.476563 3.53125-9.1875 6.757813-14.101563 9.652344-4.691406 2.71875-9.539062 5.15625-14.519531 7.304687-.753906.335938-1.425781.585938-2.183593.921876-2.601563 1.007812-5.117188 2.015624-7.804688 2.855468-.082031.082032-.167969.082032-.335938.082032-2.335937.855468-4.71875 1.582031-7.132812 2.183593-.929688.328125-1.882812.582031-2.855469.753907-.464843.152343-.941406.265624-1.425781.335937-1.761719.503906-3.527344.839844-5.289062 1.175781-1.34375.25-2.683594.503906-3.945313.671875-1.675781.335938-3.441406.585938-5.117187.753907-1.5.25-3.015626.417968-4.535157.503906-.359375.070312-.722656.097656-1.089843.085937-.394532.011719-.789063-.015625-1.175782-.085937-1.519531-.085938-3.03125-.253906-4.53125-.503906-1.679687-.167969-3.441406-.417969-5.121094-.753907-1.257812-.167969-2.601562-.421875-3.945312-.671875-1.761719-.335937-3.523438-.671875-5.285156-1.175781-.484375-.070313-.964844-.183594-1.429688-.335937-.996094-.171876-1.980468-.425782-2.9375-.753907-2.078125-.488281-4.125-1.105469-6.125-1.847656-.835937-.203125-1.652344-.484375-2.433594-.839844-1.933593-.585937-3.863281-1.34375-5.792968-2.097656l-3.023438-1.257813c-2.265625-.925781-4.53125-2.015624-6.714844-3.105468-2.683593-1.34375-5.371093-2.769532-7.886718-4.28125-2.605469-1.511719-5.121094-3.105469-7.554688-4.785156-2.351562-1.59375-4.617187-3.273438-6.800781-5.035157-.167969-.085937-.335937-.253906-.503906-.335937-2.097657-1.679688-4.195313-3.527344-6.210938-5.289063-.921875-.839843-1.84375-1.761719-2.769531-2.683593-2.011719-1.933594-4.027344-4.03125-5.875-6.128907-7.90625-8.832031-14.363281-18.863281-19.136719-29.714843-.585937-1.339844-1.089843-2.683594-1.679687-4.027344l-1.507813-4.027344c-1.375-4.105469-2.523437-8.277344-3.441406-12.507812-.335937-1.679688-.671875-3.273438-1.007813-4.953126-.253906-1.84375-.589843-3.609374-.757812-5.453124-.433594-3.960938-.65625-7.9375-.671875-11.921876-.015625-3.617187.179687-7.230468.589844-10.824218.25-3.023438.753906-6.042969 1.257812-9.066406.589844-2.9375 1.34375-5.792969 2.097657-8.644532v-.085937l4.449218-24.171875c3.023438-.753906 5.960938-1.511719 8.8125-2.433594 36.679688-10.660156 55.984375-27.53125 65.804688-40.035156 17.125 16.03125 52.125 37.769531 112.894531 34.578125 2.433594-.082031 4.949219-.25 7.46875-.503907.21875.234376.414063.488282.585937.757813 8.550782 9.984375 15.617188 21.152344 20.984376 33.152344v.085937c0 .082032.085937.167969.085937.25.585937 2.351563 1.171875 4.699219 1.675781 7.050782.503906 3.023437 1.007813 6.042968 1.261719 9.066406.40625 3.59375.605469 7.207031.585937 10.824218zm0 0" fill="#ffe0b2"/><path d="m427.144531 458.570312v.085938l-10.996093 31.726562-111.046876-38.359374c-7.761718-2.679688-12.453124-10.574219-11.101562-18.671876 1.347656-8.097656 8.347656-14.042968 16.558594-14.0625 1.855468.015626 3.699218.324219 5.453125.921876zm0 0" fill="#ffeb3a"/><path d="m52.796875 193.507812h-19.222656c-9.261719-.027343-16.761719-7.527343-16.785157-16.789062.066407-9.242188 7.542969-16.71875 16.785157-16.785156h17.375c-.410157 3.59375-.605469 7.207031-.589844 10.824218.015625 3.984376.238281 7.960938.671875 11.921876.167969 1.84375.503906 3.609374.757812 5.453124.25 1.765626.585938 3.527344 1.007813 5.375zm0 0" fill="#ffe0b2"/><path d="m335.738281 176.71875c-.027343 9.261719-7.527343 16.761719-16.789062 16.789062h-19.21875c.753906-3.609374 1.34375-7.136718 1.761719-10.828124.4375-3.960938.660156-7.9375.671874-11.921876.019532-3.617187-.179687-7.230468-.585937-10.824218h17.371094c9.246093.066406 16.722656 7.542968 16.789062 16.785156zm0 0" fill="#dfc49c"/><path d="m159.476562 159.933594c0 8.902344-3.535156 17.445312-9.832031 23.742187s-14.835937 9.832031-23.742187 9.832031c-6.710938.035157-13.273438-1.984374-18.800782-5.792968-11.714843-7.886719-17.234374-22.261719-13.808593-35.960938 3.429687-13.699218 15.070312-23.78125 29.117187-25.222656 14.046875-1.4375 27.492188 6.078125 33.625 18.796875 2.304688 4.519531 3.488282 9.53125 3.441406 14.605469zm0 0" fill="#02a9f4"/><path d="m260.195312 159.933594c.003907 8.902344-3.53125 17.445312-9.828124 23.742187-6.296876 6.296875-14.839844 9.832031-23.742188 9.832031-18.5-.105468-33.472656-15.078124-33.574219-33.574218-.015625-15.667969 10.816407-29.261719 26.09375-32.738282 15.277344-3.476562 30.925781 4.085938 37.695313 18.214844 2.230468 4.515625 3.382812 9.488282 3.355468 14.523438zm0 0" fill="#02a9f4"/><path d="m159.476562 159.933594c0 8.902344-3.535156 17.445312-9.832031 23.742187s-14.835937 9.832031-23.742187 9.832031c-6.710938.035157-13.273438-1.984374-18.800782-5.792968 3.609376-16.789063 14.9375-38.527344 48.933594-42.386719 2.304688 4.519531 3.488282 9.53125 3.441406 14.605469zm0 0" fill="#0377bc"/><path d="m260.195312 159.933594c.003907 8.902344-3.53125 17.445312-9.828124 23.742187-6.296876 6.296875-14.839844 9.832031-23.742188 9.832031-6.476562.007813-12.8125-1.890624-18.214844-5.457031 4.21875-23.773437 24.316406-41.464843 48.429688-42.640625 2.230468 4.515625 3.382812 9.488282 3.355468 14.523438zm0 0" fill="#0377bc"/><path d="m483.460938 301.109375-19.976563-6.882813-87.878906-30.46875c-5.734375-1.957031-12.011719-1.566406-17.457031 1.09375-5.464844 2.628907-9.636719 7.347657-11.582032 13.09375l-47.003906 136.222657-2.6875 7.640625c-.914062 2.570312-.375 5.433594 1.40625 7.5 1.785156 2.066406 4.539062 3.019531 7.214844 2.492187 2.679687-.527343 4.867187-2.453125 5.734375-5.042969 1.382812-3.949218 5.667969-6.074218 9.652343-4.78125l99.796876 34.496094c.335937.167969.671874.25 1.007812.417969l14.351562 4.953125c.816407.261719 1.664063.402344 2.519532.421875 3.226562-.011719 6.089844-2.066406 7.132812-5.121094l47.253906-136.730469c2.703126-7.949218-1.539062-16.585937-9.484374-19.304687zm0 0" fill="#6a1b9a"/><path d="m463.484375 294.226562-87.878906-30.46875c-5.734375-1.957031-12.011719-1.566406-17.457031 1.09375-5.464844 2.628907-9.636719 7.347657-11.582032 13.09375l-47.003906 136.222657 97.867188 33.742187c.320312.175782.65625.316406 1.007812.421875l14.351562 4.949219c.789063.257812 1.609376.398438 2.433594.421875 3.25-.007813 6.140625-2.058594 7.21875-5.121094l47.171875-136.726562c2.320313-6.585938-.222656-13.902344-6.128906-17.628907zm0 0" fill="#9d27b0"/><path d="m51.03125 201.898438h-17.457031c-13.902344-.015626-25.164063-11.277344-25.179688-25.179688.066407-13.878906 11.300781-25.109375 25.179688-25.179688h17.375c4.636719 0 8.394531 3.757813 8.394531 8.394532 0 4.632812-3.757812 8.390625-8.394531 8.390625h-17.375c-2.191407-.019531-4.292969.855469-5.828125 2.417969-1.640625 1.554687-2.570313 3.714843-2.566406 5.976562.003906 4.632812 3.761718 8.390625 8.394531 8.394531h17.457031c4.636719 0 8.394531 3.757813 8.394531 8.394531 0 4.632813-3.757812 8.390626-8.394531 8.390626zm0 0"/><path d="m318.949219 201.898438h-17.457031c-4.636719 0-8.394532-3.757813-8.394532-8.390626 0-4.636718 3.757813-8.394531 8.394532-8.394531h17.457031c4.636719-.003906 8.390625-3.761719 8.394531-8.394531.019531-2.1875-.847656-4.289062-2.410156-5.824219-1.554688-1.644531-3.71875-2.574219-5.984375-2.570312h-17.371094c-4.636719 0-8.394531-3.757813-8.394531-8.390625 0-4.636719 3.757812-8.394532 8.394531-8.394532h17.371094c13.882812.066407 25.117187 11.300782 25.183593 25.179688-.015624 13.902344-11.28125 25.164062-25.183593 25.179688zm0 0"/><path d="m151.082031 357.179688c-4.636719 0-8.394531-3.757813-8.394531-8.394532v-65.21875c0-4.632812 3.757812-8.390625 8.394531-8.390625s8.394531 3.757813 8.394531 8.390625v65.21875c0 4.636719-3.757812 8.394532-8.394531 8.394532zm0 0"/><path d="m201.441406 357.179688c-4.632812 0-8.390625-3.757813-8.390625-8.394532v-65.21875c0-4.632812 3.757813-8.390625 8.390625-8.390625 4.636719 0 8.394532 3.757813 8.394532 8.390625v65.21875c0 4.636719-3.757813 8.394532-8.394532 8.394532zm0 0"/><path d="m327.34375 504.0625h-302.164062c-13.898438-.015625-25.164063-11.277344-25.179688-25.179688v-50.359374c-.121094-50.46875 34.476562-94.398438 83.566406-106.113282 2.917969-.707031 5.992188.195313 8.0625 2.371094 2.070313 2.171875 2.820313 5.289062 1.96875 8.167969-.851562 2.878906-3.175781 5.085937-6.097656 5.78125-41.539062 9.914062-70.8125 47.085937-70.710938 89.792969v50.359374c.003907 4.632813 3.757813 8.390626 8.390626 8.394532h302.164062c4.632812-.003906 8.390625-3.761719 8.394531-8.394532v-13.34375c0-4.636718 3.757813-8.394531 8.394531-8.394531 4.632813 0 8.390626 3.757813 8.390626 8.394531v13.34375c-.015626 13.902344-11.277344 25.164063-25.179688 25.179688zm0 0"/><path d="m318.617188 369.851562c-2.394532.003907-4.675782-1.015624-6.265626-2.808593-1.835937-2.058594-3.820312-4.042969-5.800781-5.875-11.640625-10.964844-25.949219-18.699219-41.5-22.429688-4.425781-1.144531-7.121093-5.621093-6.066406-10.070312 1.058594-4.445313 5.484375-7.226563 9.949219-6.257813 18.378906 4.398438 35.289062 13.523438 49.050781 26.476563 2.320313 2.140625 4.695313 4.523437 6.894531 6.988281 2.199219 2.46875 2.746094 5.996094 1.394532 9.015625-1.351563 3.015625-4.351563 4.960937-7.65625 4.960937zm0 0"/><path d="m318.878906 168.324219c-.167968 0-.328125 0-.492187-.011719-4.621094-.269531-8.152344-4.230469-7.890625-8.851562.070312-1.578126.0625-10.835938.0625-12.117188-1.261719-72.96875-61.324219-131.15625-134.296875-130.101562-72.96875-1.054688-133.035157 57.132812-134.292969 130.101562 0 1.28125-.007812 10.558594.0625 12.121094.140625 4.546875-3.371094 8.378906-7.914062 8.636718-4.539063.257813-8.460938-3.152343-8.839844-7.6875-.089844-1.480468-.097656-11.675781-.097656-13.070312 1.269531-82.234375 68.847656-147.933594 151.082031-146.886719 82.238281-1.046875 149.8125 64.652344 151.082031 146.886719 0 1.394531-.007812 11.589844-.097656 13.070312-.253906 4.441407-3.921875 7.910157-8.367188 7.910157zm0 0"/><path d="m40.277344 363.390625c-1.863282 0-3.675782-.625-5.144532-1.773437-27.371093-21.308594-34.710937-61.820313-17.460937-96.324219 15.253906-30.503907 7.746094-69.757813 7.671875-70.152344-.804688-4.5 2.136719-8.816406 6.621094-9.710937 4.484375-.894532 8.859375 1.964843 9.839844 6.429687.367187 1.832031 8.753906 45.203125-9.117188 80.941406-13.6875 27.375-8.328125 59.15625 12.757812 75.574219 2.832032 2.203125 3.949219 5.960938 2.78125 9.351562-1.167968 3.390626-4.359374 5.667969-7.945312 5.664063zm0 0"/><path d="m335.074219 322.09375c-2.425781 0-4.734375-1.046875-6.328125-2.875-1.597656-1.828125-2.320313-4.257812-1.992188-6.660156 1.722656-13.640625-.683594-27.484375-6.910156-39.738282-17.878906-35.757812-9.492188-79.128906-9.121094-80.960937.980469-4.464844 5.355469-7.324219 9.839844-6.429687 4.480469.894531 7.425781 5.214843 6.617188 9.714843-.074219.390625-7.582032 39.644531 7.671874 70.148438 7.738282 15.292969 10.707032 32.550781 8.523438 49.550781-.566406 4.148438-4.109375 7.246094-8.300781 7.25zm0 0"/><path d="m326.167969 347.863281c-3.996094.003907-7.445313-2.792969-8.265625-6.703125-.820313-3.910156 1.214844-7.859375 4.875-9.460937 3.664062-1.601563 7.945312-.410157 10.257812 2.847656 2.308594 3.261719 2.019532 7.695313-.703125 10.621094l-.082031.085937c-1.585938 1.664063-3.78125 2.605469-6.082031 2.609375zm0 0"/><path d="m176.261719 294.226562c-8.957031.015626-17.898438-.789062-26.710938-2.40625-51.375-8.132812-92.792969-46.402343-104.960937-96.972656-.800782-3.671875-1.441406-7.378906-1.894532-11.179687-.46875-4.285157-.714843-8.59375-.726562-12.910157-.023438-3.953124.195312-7.90625.644531-11.832031.230469-2.839843.746094-6.007812 1.273438-9.175781.6875-3.511719 1.449219-6.449219 2.21875-9.359375l4.394531-23.941406c.597656-3.246094 3.042969-5.839844 6.246094-6.632813 65.851562-16.234375 77.433594-51.507812 77.902344-53 .984374-3.203125 3.773437-5.523437 7.105468-5.910156 3.324219-.390625 6.5625 1.238281 8.226563 4.140625 1.269531 2.171875 32.566406 53.921875 126.3125 46.160156 2.71875-.234375 5.382812.878907 7.132812 2.976563 9.539063 11.054687 17.34375 23.488281 23.15625 36.882812.792969 2.871094 1.417969 5.476563 1.957031 8.082032.632813 3.769531 1.148438 6.9375 1.410157 10.105468.433593 3.820313.636719 7.660156.609375 11.503906-.015625 4.28125-.253906 8.554688-.722656 12.804688-.457032 3.957031-1.09375 7.828125-1.902344 11.617188-12.375 50.378906-53.71875 88.453124-104.949219 96.636718-8.816406 1.617188-17.757813 2.425782-26.722656 2.410156zm-113.867188-149.765624c-.707031 2.660156-1.410156 5.320312-1.960937 8.058593-.441406 2.679688-.890625 5.386719-1.113282 8.09375-.394531 3.367188-.585937 6.753907-.566406 10.144531.015625 3.6875.222656 7.371094.625 11.035157.375 3.148437.917969 6.324219 1.613282 9.5 10.753906 43.949219 46.910156 77.105469 91.621093 84.023437 15.640625 2.824219 31.660157 2.820313 47.296875-.003906 44.578125-6.953125 80.667969-39.914062 91.621094-83.679688.691406-3.230468 1.238281-6.570312 1.625-9.921874.398438-3.636719.601562-7.292969.613281-10.953126.023438-3.277343-.15625-6.558593-.53125-9.820312-.253906-3.03125-.707031-5.738281-1.15625-8.449219-.449219-2.167969-.992187-4.429687-1.613281-6.691406-4.4375-9.9375-10.242188-19.203125-17.246094-27.53125-74.632812 4.925781-113.371094-25.832031-129.117187-43.375-9.40625 14.441406-31.015625 37.042969-78.0625 49.851563l-3.484375 18.996093c-.042969.242188-.097656.484375-.164063.722657zm0 0"/><path d="m142.6875 436.914062c-.203125 0-.410156-.007812-.613281-.023437-2.757813-.203125-5.242188-1.75-6.640625-4.140625l-58.753906-100.71875c-1.226563-2.113281-1.472657-4.652344-.679688-6.960938.796875-2.308593 2.554688-4.15625 4.820312-5.0625l35.648438-14.257812c7.367188-2.914062 15.773438-.304688 20.195312 6.273438l46.582032 69.875c2.027344 3.042968 1.855468 7.042968-.425782 9.898437l-33.574218 41.96875c-1.59375 1.988281-4.007813 3.148437-6.558594 3.148437zm-46.597656-104.933593 47.691406 81.746093 22.097656-27.621093-43.179687-64.765625zm0 0"/><path d="m209.835938 436.914062c-2.550782 0-4.960938-1.160156-6.554688-3.148437l-33.574219-41.96875c-2.28125-2.855469-2.453125-6.855469-.429687-9.898437l46.585937-69.871094c4.421875-6.585938 12.832031-9.199219 20.203125-6.277344l35.640625 14.257812c2.265625.90625 4.023438 2.753907 4.820313 5.0625.792968 2.308594.546875 4.847657-.679688 6.960938l-58.753906 100.71875c-1.398438 2.390625-3.882812 3.9375-6.640625 4.140625-.207031.015625-.410156.023437-.617187.023437zm-23.1875-50.808593 22.097656 27.621093 47.6875-81.746093-26.605469-10.640625zm0 0"/><path d="m176.261719 504.0625c-4.632813 0-8.390625-3.757812-8.390625-8.394531v-109.113281c0-4.636719 3.757812-8.394532 8.390625-8.394532 4.636719 0 8.394531 3.757813 8.394531 8.394532v109.113281c0 4.636719-3.757812 8.394531-8.394531 8.394531zm0 0"/><path d="m218.230469 462.097656c0 4.632813-3.757813 8.390625-8.394531 8.390625-4.636719 0-8.394532-3.757812-8.394532-8.390625 0-4.636718 3.757813-8.394531 8.394532-8.394531 4.636718 0 8.394531 3.757813 8.394531 8.394531zm0 0"/><path d="m442.984375 472.484375c-2.714844-.003906-5.257813-1.316406-6.832031-3.527344-1.574219-2.207031-1.984375-5.042969-1.101563-7.605469l52.046875-150.742187-119-41.097656c-4.378906-1.515625-9.15625.808593-10.671875 5.191406l-54.792969 158.675781c-1.511718 4.382813-6.292968 6.710938-10.671874 5.195313-4.382813-1.511719-6.710938-6.289063-5.199219-10.671875l54.796875-158.675782c4.539062-13.144531 18.871094-20.121093 32.015625-15.585937l119.007812 41.097656c4.210938 1.453125 7.667969 4.519531 9.617188 8.527344 1.945312 4.003906 2.222656 8.617187.769531 12.828125l-52.050781 150.730469c-1.164063 3.386719-4.351563 5.660156-7.933594 5.660156zm0 0"/><path d="m432.023438 504.21875c-.929688 0-1.855469-.15625-2.734376-.460938l-126.945312-43.839843c-8.558594-2.890625-14.910156-10.148438-16.644531-19.015625-1.734375-8.867188 1.410156-17.980469 8.246093-23.886719 6.835938-5.910156 16.3125-7.699219 24.832032-4.699219l126.945312 43.835938c2.851563.964844 4.964844 3.386718 5.542969 6.339844.582031 2.953124-.46875 5.992187-2.746094 7.960937-2.277343 1.96875-5.433593 2.566406-8.273437 1.570313l-126.941406-43.835938c-4.355469-1.425781-9.046876.90625-10.542969 5.234375-1.5 4.328125.753906 9.058594 5.058593 10.628906l126.941407 43.835938c3.882812 1.332031 6.230469 5.277343 5.554687 9.328125-.679687 4.046875-4.1875 7.007812-8.292968 7.003906zm0 0"/><path d="m416.15625 498.738281c-2.714844-.003906-5.257812-1.316406-6.832031-3.527343-1.574219-2.210938-1.984375-5.042969-1.101563-7.609376l10.957032-31.734374c1.515624-4.382813 6.296874-6.707032 10.675781-5.191407 4.382812 1.511719 6.707031 6.292969 5.195312 10.675781l-10.960937 31.730469c-1.167969 3.386719-4.351563 5.65625-7.933594 5.65625zm0 0"/><path d="m342.871094 402.394531c-2.710938-.003906-5.257813-1.316406-6.832032-3.527343-1.574218-2.210938-1.984374-5.046876-1.101562-7.609376l32.878906-95.203124c.976563-2.832032 3.394532-4.929688 6.339844-5.5 2.941406-.570313 5.96875.472656 7.933594 2.738281s2.574218 5.40625 1.59375 8.242187l-32.875 95.199219c-1.167969 3.386719-4.355469 5.660156-7.9375 5.660156zm0 0"/><path d="m449.597656 350.453125c-.929687 0-1.855468-.15625-2.738281-.464844l-47.597656-16.4375c-2.832031-.976562-4.929688-3.394531-5.5-6.335937-.570313-2.945313.472656-5.96875 2.734375-7.9375 2.265625-1.964844 5.40625-2.574219 8.242187-1.59375l47.597657 16.4375c3.882812 1.332031 6.230468 5.277344 5.550781 9.324218-.675781 4.050782-4.183594 7.011719-8.289063 7.007813zm0 0"/><path d="m438.640625 382.191406c-.929687-.003906-1.855469-.160156-2.738281-.464844l-47.597656-16.4375c-2.851563-.964843-4.96875-3.382812-5.546876-6.339843-.578124-2.953125.472657-5.992188 2.75-7.960938 2.277344-1.96875 5.433594-2.566406 8.273438-1.566406l47.597656 16.4375c3.882813 1.332031 6.230469 5.277344 5.550782 9.324219-.675782 4.050781-4.183594 7.011718-8.289063 7.007812zm0 0"/><path d="m427.679688 413.921875c-.929688 0-1.855469-.15625-2.738282-.460937l-47.597656-16.4375c-2.835938-.980469-4.933594-3.394532-5.503906-6.339844-.570313-2.945313.476562-5.96875 2.738281-7.933594 2.265625-1.964844 5.40625-2.574219 8.242187-1.597656l47.597657 16.4375c3.878906 1.335937 6.230469 5.28125 5.550781 9.328125s-4.1875 7.011719-8.289062 7.003906zm0 0"/><path d="m125.902344 201.898438c-23.179688 0-41.96875-18.789063-41.96875-41.964844 0-23.179688 18.789062-41.96875 41.96875-41.96875 23.175781 0 41.96875 18.789062 41.96875 41.96875-.027344 23.164062-18.800782 41.9375-41.96875 41.964844zm0-67.148438c-13.90625 0-25.179688 11.277344-25.179688 25.183594s11.273438 25.179687 25.179688 25.179687 25.179687-11.273437 25.179687-25.179687c-.015625-13.902344-11.28125-25.167969-25.179687-25.183594zm0 0"/><path d="m226.625 201.898438c-23.179688 0-41.96875-18.789063-41.96875-41.964844 0-23.179688 18.789062-41.96875 41.96875-41.96875 23.175781 0 41.964844 18.789062 41.964844 41.96875-.027344 23.164062-18.800782 41.9375-41.964844 41.964844zm0-67.148438c-13.910156 0-25.183594 11.277344-25.183594 25.183594s11.273438 25.179687 25.183594 25.179687c13.90625 0 25.179688-11.273437 25.179688-25.179687-.015626-13.902344-11.28125-25.167969-25.179688-25.183594zm0 0"/><path d="m50.371094 176.71875c-3.898438.003906-7.28125-2.671875-8.179688-6.460938-.898437-3.789062.929688-7.699218 4.414063-9.441406 14.488281-6.054687 30.023437-9.207031 45.722656-9.277344 4.636719-.003906 8.394531 3.753907 8.398437 8.390626 0 4.632812-3.753906 8.394531-8.390624 8.394531-13.097657.082031-26.0625 2.628906-38.21875 7.507812-1.164063.585938-2.445313.886719-3.746094.886719zm0 0"/><path d="m302.15625 176.71875c-1.300781 0-2.582031-.300781-3.746094-.886719-12.15625-4.878906-25.121094-7.425781-38.222656-7.507812-4.632812 0-8.390625-3.761719-8.386719-8.394531 0-4.636719 3.761719-8.394532 8.394531-8.390626 15.703126.070313 31.238282 3.222657 45.722657 9.277344 3.484375 1.742188 5.3125 5.652344 4.417969 9.441406-.898438 3.789063-4.285157 6.464844-8.179688 6.460938zm0 0"/><path d="m193.050781 168.324219c-2.226562.003906-4.363281-.882813-5.933593-2.457031-2.933594-3.03125-6.71875-5.101563-10.855469-5.933594-4.144531.835937-7.9375 2.914062-10.875 5.957031-3.300781 3.1875-8.542969 3.136719-11.78125-.113281-3.234375-3.25-3.265625-8.496094-.0625-11.777344 6.066406-6.171875 14.109375-10.015625 22.71875-10.855469 8.613281.839844 16.65625 4.683594 22.722656 10.855469 2.398437 2.398438 3.117187 6.007812 1.816406 9.144531-1.296875 3.136719-4.355469 5.179688-7.75 5.179688zm0 0"/></svg>