<svg height="512pt" viewBox="0 0 512.00008 512" width="512pt" xmlns="http://www.w3.org/2000/svg"><path d="m332.800781 136.535156v27.902344h-307.199219v-27.902344c.023438-70.683594 57.316407-127.976562 128-128h51.199219c70.679688.023438 127.972657 57.316406 128 128zm0 0" fill="#283593"/><path d="m309.164062 136.535156v27.902344h-283.5625v-27.902344c.023438-70.683594 57.316407-127.976562 128-128h27.5625c70.679688.023438 127.972657 57.316406 128 128zm0 0" fill="#3f51b5"/><path d="m332.800781 193.960938v258.304687l-23.636719-.085937-283.5625-1.023438v-257.195312zm0 0" fill="#283593"/><path d="m309.164062 193.960938v258.21875l-283.5625-1.023438v-257.195312zm0 0" fill="#3f51b5"/><path d="m346.625 409.601562-14.25-24.234374-14.253906-24.320313c-16.886719-16.164063-38.824219-26.015625-62.121094-27.90625-2.816406-.253906-5.632812-.339844-8.535156-.339844h-136.53125c-2.851563-.03125-5.699219.113281-8.535156.425781-33.28125 2.695313-63.140626 21.496094-79.957032 50.347657 2.417969 2.75 5.003906 5.339843 7.753906 7.757812-2.75-2.417969-5.335937-5.007812-7.753906-7.757812-9.152344 15.660156-13.953125 33.484375-13.90625 51.625v51.199219c.027344 9.414062 7.652344 17.039062 17.066406 17.066406h307.199219c9.414063-.027344 17.039063-7.652344 17.066407-17.066406v-51.199219c.015624-8.636719-1.074219-17.238281-3.242188-25.597657zm-82.5 14.148438c-3.601562 1.035156-7.226562 2.046875-10.988281 2.953125 3.753906-.90625 7.394531-1.910156 10.988281-2.953125zm24.984375-8.601562c.238281-.097657.449219-.222657.6875-.320313-.300781.128906-.582031.269531-.886719.398437zm-15.292969 5.742187-.644531.207031c.210937-.070312.433594-.132812.644531-.207031zm-146.753906 10.214844c3.121094.503906 6.246094.925781 9.457031 1.347656-9.160156-1.179687-17.996093-2.71875-26.507812-4.617187 5.53125 1.253906 11.234375 2.390624 17.050781 3.269531zm-19.550781-3.8125c-1.417969-.328125-2.8125-.667969-4.203125-1.015625 1.386718.347656 2.785156.691406 4.203125 1.015625zm-19.289063-5.28125c-3.953125-1.25-7.808594-2.566407-11.535156-3.972657 2.199219.855469 4.4375 1.671876 6.683594 2.398438 1.574218.566406 3.21875 1.066406 4.851562 1.574219zm8.234375 2.46875c-1.171875-.324219-2.339843-.660157-3.496093-1 1.144531.355469 2.320312.675781 3.496093 1zm-55.089843-24.351563c-3.175782-2.183594-6.234376-4.527344-9.167969-7.023437 2.929687 2.5 5.992187 4.84375 9.167969 7.023437zm34.039062 17.445313c-1.054688-.402344-2.078125-.828125-3.109375-1.242188 1.027344.421875 2.042969.839844 3.109375 1.242188zm-7.851562-3.230469c-2.046876-.890625-4.035157-1.804688-5.996094-2.742188 1.933594.953126 3.933594 1.851563 5.996094 2.742188zm-7.21875-3.335938c-1.808594-.878906-3.613282-1.757812-5.339844-2.675781 1.746094.917969 3.527344 1.8125 5.339844 2.675781zm-10.0625-5.316406c-.84375-.488281-1.726563-.957031-2.546876-1.449218.820313.492187 1.703126.960937 2.546876 1.449218zm86.351562 26.777344h.078125c2.730469.34375 5.460937.683594 8.191406.9375 5.546875.597656 11.265625 1.027344 17.066407 1.28125 2.902343.171875 5.804687.257812 8.707031.34375 2.816406.167969 5.628906.167969 8.53125.167969-14.234375 0-28.457031-.914063-42.574219-2.730469zm107.972656-3.886719c-3.855468.800781-7.765625 1.53125-11.761718 2.191407 3.992187-.652344 7.902343-1.394532 11.761718-2.191407zm-24.585937 4.15625c-.296875.039063-.597657.066407-.894531.101563.296874-.035156.597656-.0625.894531-.101563zm-16.429688 1.507813c-3.8125.269531-7.679687.425781-11.574219.570312 3.890626-.144531 7.777344-.300781 11.574219-.570312zm99.621094-25.753906.046875-.027344zm0 0" fill="#ecf0f1"/><path d="m332.375 385.367188-16.640625 15.699218c-4.492187 2.972656-9.132813 5.707032-13.910156 8.191406-4.011719 2.050782-8.277344 4.097657-12.714844 5.890626-2.132813.9375-4.265625 1.789062-6.570313 2.644531-2.644531 1.023437-5.289062 1.960937-8.105468 2.902343-1.707032.59375-3.5 1.191407-5.292969 1.703126-13.195313 4.09375-26.691406 7.148437-40.363281 9.132812-2.300782.339844-4.605469.683594-6.996094 1.023438h-.085938c-3.070312.339843-6.144531.769531-9.300781 1.023437-2.472656.257813-4.863281.425781-7.421875.597656-5.632812.425781-11.4375.683594-17.238281.855469-2.816406.167969-5.632813.167969-8.535156.167969-2.902344 0-5.714844 0-8.53125-.167969-2.902344-.085938-5.804688-.171875-8.707031-.34375-5.800782-.253906-11.519532-.683594-17.066407-1.28125-2.730469-.253906-5.460937-.59375-8.191406-.9375h-.085937c-3.242188-.425781-6.398438-.851562-9.554688-1.363281-6.230469-.941407-12.375-2.132813-18.261719-3.5-2.644531-.597657-5.207031-1.195313-7.765625-1.878907-.769531-.167968-1.535156-.425781-2.304687-.597656-2.21875-.59375-4.4375-1.191406-6.570313-1.875-.75-.1875-1.492187-.417968-2.21875-.683594-2.21875-.683593-4.4375-1.363281-6.570312-2.132812-2.644532-.851562-5.292969-1.792969-7.851563-2.816406-2.046875-.769532-4.011719-1.621094-5.972656-2.390625-.527344-.191407-1.039063-.417969-1.535156-.679688-2.390625-1.027343-4.695313-2.050781-6.914063-3.160156-4.589844-2.148437-9.0625-4.539063-13.394531-7.167969-2.050781-1.191406-4.011719-2.472656-5.890625-3.753906-7.175781-4.75-13.6875-10.433594-19.371094-16.894531 16.816406-28.851563 46.675782-47.652344 79.957032-50.347657 2.835937-.3125 5.683593-.457031 8.535156-.425781h136.53125c2.902344 0 5.71875.085938 8.535156.339844 23.296875 1.890625 45.234375 11.742187 62.121094 27.90625zm0 0" fill="#f5f5f5"/><path d="m349.867188 435.199219v51.199219c-.027344 9.414062-7.652344 17.039062-17.066407 17.066406h-307.199219c-9.414062-.027344-17.039062-7.652344-17.066406-17.066406v-51.199219c-.035156-12.550781 2.277344-24.996094 6.824219-36.691407 1.890625-5.1875 4.261719-10.1875 7.082031-14.933593 24.664063 28.671875 79.789063 49.238281 144.984375 51.371093 3.839844.167969 7.847657.253907 11.773438.253907 55.894531 0 105.386719-13.398438 136.535156-34.132813l1.449219-1.363281 15.191406-14.335937 14.25 24.234374c2.167969 8.359376 3.257812 16.960938 3.242188 25.597657zm0 0" fill="#283593"/><path d="m326.230469 435.199219v51.199219c-.027344 9.414062-7.652344 17.039062-17.066407 17.066406h-283.5625c-9.414062-.027344-17.039062-7.652344-17.066406-17.066406v-51.199219c-.035156-12.550781 2.277344-24.996094 6.824219-36.691407 30.804687 22.1875 82.089844 36.691407 140.203125 36.691407 4.011719 0 7.9375-.085938 11.863281-.253907 3.839844.167969 7.847657.253907 11.773438.253907 55.894531 0 105.386719-13.398438 136.535156-34.132813l1.449219-1.363281 5.804687 9.898437c2.167969 8.359376 3.257813 16.960938 3.242188 25.597657zm0 0" fill="#3f51b5"/><path d="m153.601562 287.828125h51.199219v70.570313h-51.199219zm0 0" fill="#f5f5f5"/><path d="m336.296875 167.167969c-3.160156-3.242188-7.503906-5.058594-12.03125-5.035157h-17.664063c-.253906-3.070312-.765624-6.144531-1.277343-9.214843-.511719-2.476563-1.109375-4.949219-1.792969-7.425781-.257812-.765626-.511719-1.621094-.855469-2.472657v-.085937c-39.230469-15.8125-81.179687-23.785156-123.476562-23.46875-42.332031-.320313-84.316407 7.679687-123.5625 23.554687l-.425781 1.109375c-.769532 2.902344-1.535157 5.800782-2.132813 8.789063-.511719 3.070312-1.023437 6.144531-1.28125 9.214843h-17.664063c-9.398437.070313-17 7.667969-17.066406 17.066407.027344 9.414062 7.652344 17.039062 17.066406 17.066406h19.652344c11.929688 47.761719 51.207032 83.792969 99.816406 91.5625 16.925782 3.074219 34.269532 3.074219 51.199219 0 48.59375-7.835937 87.867188-43.832031 99.902344-91.5625h19.5625c9.414063-.027344 17.039063-7.652344 17.066406-17.066406.023438-4.527344-1.792969-8.871094-5.035156-12.03125zm0 0" fill="#f09372"/><path d="m56.148438 196.265625h-22.015626c-9.414062-.027344-17.039062-7.652344-17.066406-17.066406.066406-9.398438 7.667969-16.996094 17.066406-17.066407h17.664063zm0 0" fill="#ffe0b2"/><path d="m306.601562 162.132812h17.664063c9.398437.070313 17 7.667969 17.066406 17.066407-.027343 9.414062-7.652343 17.039062-17.066406 17.066406h-22.015625zm0 0" fill="#dfc49c"/><path d="m302.675781 142.933594c-8.839843-3.6875-17.867187-6.90625-27.050781-9.644532-31.3125-9.191406-63.785156-13.847656-96.425781-13.824218-4.011719 0-7.851563.085937-11.691407.171875h-1.023437c-38.042969 1.148437-75.578125 9.066406-110.847656 23.382812l3.671875-9.730469 4.777344-12.457031 4.179687-10.835937c30.671875-15.617188 64.347656-24.433594 98.730469-25.855469h.429687c42.4375-2.015625 84.6875 6.886719 122.707031 25.855469 0 0 1.792969 4.351562 4.183594 10.324218 2.644532 6.742188 5.972656 15.53125 8.359375 22.613282zm0 0" fill="#cfd8dc"/><path d="m275.625 133.289062c-31.3125-9.191406-63.785156-13.847656-96.425781-13.824218-4.011719 0-7.851563.085937-11.691407.171875h-1.023437c-3.582031-.085938-7.167969-.171875-10.921875-.171875-32.582031-.054688-65.003906 4.601562-96.253906 13.824218l4.777344-12.457031 4.179687-10.835937c30.671875-15.617188 64.347656-24.433594 98.730469-25.855469h.429687c34.457031 1.660156 68.195313 10.464844 99.070313 25.855469 0 0 1.792968 4.351562 4.179687 10.324218 1.539063 3.839844 3.246094 8.449219 4.949219 12.96875zm0 0" fill="#f5f5f5"/><path d="m307.199219 173.140625c-.011719 4.050781-.238281 8.09375-.683594 12.117187-.425781 3.671876-1.023437 7.339844-1.789063 10.921876-12.007812 47.773437-51.296874 83.808593-99.925781 91.648437-8.445312 1.550781-17.015625 2.324219-25.601562 2.304687-4.011719 0-7.933594-.171874-11.773438-.511718-4.640625-.332032-9.253906-.933594-13.824219-1.792969-48.773437-7.785156-88.140624-44.023437-99.925781-91.988281-.769531-3.5-1.367187-6.996094-1.792969-10.582032-.441406-4.023437-.671874-8.066406-.683593-12.117187-.015625-3.675781.183593-7.351563.597656-11.007813.257813-3.070312.769531-6.144531 1.28125-9.214843.597656-2.988281 1.363281-5.886719 2.132813-8.789063l.425781-1.109375c35.507812-14.414062 73.3125-22.332031 111.617187-23.382812h.253906c3.839844-.085938 7.765626-.171875 11.691407-.171875 42.296875-.316406 84.246093 7.65625 123.476562 23.46875v.085937c.34375.851563.597657 1.707031.855469 2.472657.683594 2.476562 1.28125 4.949218 1.792969 7.425781.511719 3.070312 1.023437 6.144531 1.277343 9.214843.417969 3.65625.617188 7.332032.597657 11.007813zm0 0" fill="#dfc49c"/><path d="m283.5625 173.140625c-.011719 4.050781-.238281 8.09375-.683594 12.117187-.425781 3.671876-1.023437 7.339844-1.789062 10.921876-12.007813 47.773437-51.300782 83.808593-99.925782 91.648437-4.542968.859375-9.128906 1.460937-13.738281 1.792969-4.640625-.332032-9.253906-.933594-13.824219-1.792969-48.773437-7.785156-88.140624-44.023437-99.925781-91.988281-.769531-3.5-1.367187-6.996094-1.792969-10.582032-.441406-4.023437-.671874-8.066406-.683593-12.117187-.015625-3.675781.183593-7.351563.597656-11.007813.257813-3.070312.769531-6.144531 1.28125-9.214843.597656-2.988281 1.363281-5.886719 2.132813-8.789063l.425781-1.109375c35.507812-14.414062 73.3125-22.332031 111.617187-23.382812h.253906c38.269532 1.058593 76.039063 8.945312 111.53125 23.296875v.085937c.34375.851563.597657 1.707031.855469 2.472657.679688 2.476562 1.277344 4.949218 1.789063 7.425781.515625 3.070312 1.027344 6.144531 1.28125 9.214843.417968 3.65625.617187 7.332032.597656 11.007813zm0 0" fill="#ffe0b2"/><path d="m503.464844 366.933594v34.132812c-.011719 4.707032-3.824219 8.519532-8.53125 8.535156h-51.199219c-4.707031.011719-8.519531 3.824219-8.535156 8.53125v76.800782c-.011719 4.707031-3.824219 8.519531-8.53125 8.53125h-34.132813c-4.707031-.011719-8.523437-3.824219-8.535156-8.53125v-76.800782c-.011719-4.707031-3.824219-8.519531-8.535156-8.53125h-51.199219c-4.707031-.015624-8.519531-3.828124-8.53125-8.535156v-34.132812c.011719-4.707032 3.824219-8.519532 8.53125-8.535156h51.199219c4.710937-.011719 8.523437-3.824219 8.535156-8.53125v-42.667969c.011719-4.707031 3.828125-8.519531 8.535156-8.53125h34.132813c4.707031.011719 8.519531 3.824219 8.53125 8.53125v42.667969c.015625 4.707031 3.828125 8.519531 8.535156 8.53125h51.199219c4.707031.015624 8.519531 3.828124 8.53125 8.535156zm0 0" fill="#fec108"/><path d="m479.828125 366.933594v34.132812c-.011719 4.707032-3.824219 8.519532-8.53125 8.535156h-51.199219c-2.265625-.007812-4.441406.886719-6.042968 2.488282-1.601563 1.601562-2.5 3.777344-2.492188 6.042968v76.800782c-.011719 4.707031-3.824219 8.519531-8.53125 8.53125h-10.496094c-4.707031-.011719-8.523437-3.824219-8.535156-8.53125v-76.800782c-.011719-4.707031-3.824219-8.519531-8.535156-8.53125h-51.199219c-4.707031-.015624-8.519531-3.828124-8.53125-8.535156v-34.132812c.011719-4.707032 3.824219-8.519532 8.53125-8.535156h51.199219c4.710937-.011719 8.523437-3.824219 8.535156-8.53125v-42.667969c.011719-4.707031 3.828125-8.519531 8.535156-8.53125h10.496094c4.707031.011719 8.519531 3.824219 8.53125 8.53125v42.667969c-.007812 2.265624.890625 4.441406 2.492188 6.042968 1.601562 1.601563 3.777343 2.496094 6.042968 2.488282h51.199219c4.707031.015624 8.519531 3.828124 8.53125 8.535156zm0 0" fill="#ffdc00"/><path d="m51.882812 204.800781h-17.75c-14.132812-.015625-25.582031-11.46875-25.597656-25.601562.066406-14.109375 11.488282-25.527344 25.597656-25.597657h17.664063c4.714844 0 8.535156 3.820313 8.535156 8.53125 0 4.714844-3.820312 8.535157-8.535156 8.535157h-17.664063c-2.226562-.019531-4.367187.867187-5.925781 2.457031-1.667969 1.578125-2.613281 3.777344-2.605469 6.074219.003907 4.710937 3.820313 8.53125 8.53125 8.535156h17.75c4.710938 0 8.535157 3.820313 8.535157 8.53125 0 4.714844-3.824219 8.535156-8.535157 8.535156zm0 0"/><path d="m324.265625 204.800781h-17.75c-4.710937 0-8.53125-3.820312-8.53125-8.535156 0-4.710937 3.820313-8.53125 8.53125-8.53125h17.75c4.710937-.003906 8.53125-3.824219 8.535156-8.535156.019531-2.222657-.863281-4.359375-2.449219-5.917969-1.582031-1.671875-3.785156-2.617188-6.085937-2.613281h-17.664063c-4.710937 0-8.53125-3.820313-8.53125-8.535157 0-4.710937 3.820313-8.53125 8.53125-8.53125h17.664063c14.113281.0625 25.535156 11.488282 25.601563 25.597657-.015626 14.132812-11.46875 25.585937-25.601563 25.601562zm0 0"/><path d="m153.601562 366.933594c-4.714843 0-8.535156-3.820313-8.535156-8.535156v-70.570313c0-4.710937 3.820313-8.53125 8.535156-8.53125 4.710938 0 8.53125 3.820313 8.53125 8.53125v70.570313c0 4.714843-3.820312 8.535156-8.53125 8.535156zm0 0"/><path d="m204.800781 366.933594c-4.714843 0-8.535156-3.820313-8.535156-8.535156v-70.570313c0-4.710937 3.820313-8.53125 8.535156-8.53125 4.710938 0 8.53125 3.820313 8.53125 8.53125v70.570313c0 4.714843-3.820312 8.535156-8.53125 8.535156zm0 0"/><path d="m332.800781 512h-307.199219c-14.132812-.015625-25.585937-11.46875-25.601562-25.601562v-51.199219c-.0351562-29.429688 11.640625-57.667969 32.453125-78.480469 20.8125-20.808594 49.046875-32.488281 78.480469-32.453125h42.667968c4.710938 0 8.53125 3.820313 8.53125 8.535156 0 4.710938-3.820312 8.53125-8.53125 8.53125h-42.667968c-24.90625-.035156-48.804688 9.84375-66.414063 27.453125-17.613281 17.613282-27.488281 41.507813-27.453125 66.414063v51.199219c.003906 4.710937 3.824219 8.53125 8.535156 8.535156h307.199219c4.710938-.003906 8.527344-3.824219 8.53125-8.535156v-51.199219c.011719-7.910157-.984375-15.789063-2.964843-23.449219-1.1875-4.5625 1.546874-9.222656 6.105468-10.410156 4.5625-1.1875 9.222656 1.546875 10.410156 6.109375 2.347657 9.0625 3.527344 18.390625 3.515626 27.75v51.199219c-.015626 14.132812-11.464844 25.585937-25.597657 25.601562zm0 0"/><path d="m318.121094 369.578125c-2.191406 0-4.304688-.84375-5.890625-2.359375-17.4375-16.664062-40.644531-25.9375-64.765625-25.886719h-42.664063c-4.714843 0-8.535156-3.820312-8.535156-8.53125 0-4.714843 3.820313-8.535156 8.535156-8.535156h42.664063c28.511718-.0625 55.941406 10.90625 76.550781 30.605469 2.527344 2.40625 3.332031 6.109375 2.035156 9.347656s-4.433593 5.359375-7.921875 5.359375zm0 0"/><path d="m179.199219 298.667969c-9.109375.011719-18.199219-.804688-27.15625-2.445313-52.230469-8.273437-94.339844-47.179687-106.710938-98.589844-.816406-3.734374-1.464843-7.503906-1.921875-11.367187-.480468-4.359375-.730468-8.738281-.742187-13.125-.023438-4.019531.195312-8.039063.65625-12.03125.234375-2.886719.757812-6.109375 1.292969-9.328125.707031-3.621094 1.5-6.632812 2.292968-9.632812.105469-.457032.25-.902344.433594-1.335938l12.957031-33.875c.699219-1.835938 2.011719-3.375 3.714844-4.351562 72.242187-36.578126 157.5625-36.671876 229.882813-.257813 1.859374.910156 3.316406 2.464844 4.109374 4.375.382813.921875 9.449219 22.707031 13.675782 36.253906.808594 2.917969 1.441406 5.566407 1.992187 8.21875.640625 3.828125 1.164063 7.046875 1.433594 10.269531.441406 3.882813.648437 7.789063.625 11.695313-.015625 4.347656-.257813 8.695313-.734375 13.015625-.464844 4.023438-1.109375 7.957031-1.933594 11.808594-12.582031 51.222656-54.617187 89.929687-106.699218 98.25-8.960938 1.648437-18.054688 2.464844-27.167969 2.453125zm-115.855469-151.917969c-.683594 2.585938-1.367188 5.179688-1.902344 7.847656-.449218 2.722656-.90625 5.476563-1.132812 8.226563-.402344 3.425781-.59375 6.871093-.574219 10.316406.011719 3.75.222656 7.492187.632813 11.21875.382812 3.199219.933593 6.429687 1.640624 9.65625 10.933594 44.683594 47.691407 78.390625 93.152344 85.425781 15.898438 2.871094 32.183594 2.867188 48.082032-.003906 45.320312-7.070312 82.011718-40.582031 93.148437-85.078125.699219-3.28125 1.261719-6.679687 1.652344-10.082031.402343-3.699219.609375-7.414063.625-11.136719.019531-3.335937-.160157-6.667969-.542969-9.984375-.257812-3.082031-.71875-5.835938-1.175781-8.589844-.457031-2.203125-1.007813-4.503906-1.640625-6.804687-3.042969-9.746094-9.207032-25.101563-11.824219-31.519531-65.878906-31.488282-142.449219-31.566407-208.390625-.21875zm0 0"/><path d="m332.800781 172.972656c-4.714843 0-8.535156-3.824218-8.535156-8.535156v-27.902344c-.074219-65.949218-53.515625-119.394531-119.464844-119.46875h-51.199219c-65.949218.074219-119.394531 53.519532-119.46875 119.46875v27.902344c0 4.710938-3.820312 8.535156-8.53125 8.535156-4.714843 0-8.535156-3.824218-8.535156-8.535156v-27.902344c.085938-75.371094 61.164063-136.4492185 136.535156-136.535156h51.199219c75.367188.0859375 136.445313 61.164062 136.53125 136.535156v27.902344c0 4.710938-3.820312 8.535156-8.53125 8.535156zm0 0"/><path d="m332.800781 366.933594c-4.714843 0-8.535156-3.820313-8.535156-8.535156v-164.4375c0-4.710938 3.820313-8.53125 8.535156-8.53125 4.710938 0 8.53125 3.820312 8.53125 8.53125v164.4375c0 4.714843-3.820312 8.535156-8.53125 8.535156zm0 0"/><path d="m25.601562 387.15625c-4.714843 0-8.535156-3.820312-8.535156-8.53125v-184.664062c0-4.710938 3.820313-8.53125 8.535156-8.53125 4.710938 0 8.53125 3.820312 8.53125 8.53125v184.664062c0 4.710938-3.820312 8.53125-8.53125 8.53125zm0 0"/><path d="m179.199219 443.734375c-70.640625 0-134.714844-21.429687-163.222657-54.597656-2.089843-2.296875-2.765624-5.546875-1.769531-8.484375 1-2.941406 3.515625-5.105469 6.574219-5.65625 3.054688-.546875 6.167969.605468 8.128906 3.015625 25.414063 29.554687 84.40625 48.65625 150.289063 48.65625 51.777343 0 101.042969-12.226563 131.808593-32.707031 3.921876-2.5 9.121094-1.402344 11.695313 2.46875 2.574219 3.871093 1.578125 9.09375-2.246094 11.742187-33.941406 22.597656-85.433593 35.5625-141.257812 35.5625zm0 0"/><path d="m179.199219 443.734375c-42.347657 0-76.800781-30.074219-76.800781-67.046875v-43.886719c0-4.714843 3.820312-8.535156 8.535156-8.535156 4.710937 0 8.53125 3.820313 8.53125 8.535156v43.886719c0 27.558594 26.800781 49.980469 59.734375 49.980469 32.933593 0 59.734375-22.421875 59.734375-49.980469v-43.886719c0-4.714843 3.820312-8.535156 8.53125-8.535156 4.714844 0 8.535156 3.820313 8.535156 8.535156v43.886719c0 36.972656-34.449219 67.046875-76.800781 67.046875zm0 0"/><path d="m426.667969 512h-34.132813c-9.421875-.011719-17.058594-7.644531-17.070312-17.066406v-76.800782h-51.199219c-9.421875-.011718-17.054687-7.644531-17.066406-17.066406v-34.132812c.011719-9.421875 7.644531-17.054688 17.066406-17.066406h51.199219v-42.667969c.011718-9.421875 7.648437-17.054688 17.070312-17.066407h34.132813c9.421875.011719 17.054687 7.644532 17.066406 17.066407v42.667969h51.199219c9.421875.011718 17.054687 7.644531 17.066406 17.066406v34.132812c-.011719 9.421875-7.644531 17.054688-17.066406 17.066406h-51.199219v76.800782c-.011719 9.421875-7.644531 17.054687-17.066406 17.066406zm-102.402344-145.066406v34.132812h51.199219c9.421875.011719 17.058594 7.644532 17.070312 17.066406v76.800782h34.132813v-76.800782c.007812-9.421874 7.644531-17.054687 17.066406-17.066406h51.199219v-34.144531l-51.199219.011719c-9.421875-.011719-17.058594-7.644532-17.066406-17.066406v-42.667969h-34.132813v42.667969c-.011718 9.421874-7.648437 17.054687-17.070312 17.066406zm0 0"/><path d="m55.636719 151.550781c-4.058594.011719-7.5625-2.839843-8.378907-6.816406-.816406-3.972656 1.277344-7.976563 5.011719-9.566406 40.304688-16.355469 83.4375-24.589844 126.929688-24.234375 43.449219-.339844 86.542969 7.867187 126.824219 24.152344 2.902343 1.246093 4.882812 3.988281 5.152343 7.136718.269531 3.144532-1.21875 6.183594-3.867187 7.902344-2.648438 1.71875-6.027344 1.839844-8.792969.3125-37.9375-15.152344-78.464844-22.773438-119.316406-22.4375-41.167969-.253906-81.996094 7.511719-120.199219 22.859375-1.0625.457031-2.207031.691406-3.363281.691406zm0 0"/><path d="m179.199219 469.332031c-4.710938 0-8.53125-3.820312-8.53125-8.53125v-25.601562c0-4.710938 3.820312-8.53125 8.53125-8.53125 4.714843 0 8.535156 3.820312 8.535156 8.53125v25.601562c0 4.710938-3.820313 8.53125-8.535156 8.53125zm0 0"/></svg>