<svg height="512pt" viewBox="0 0 512 512.00003" width="512pt" xmlns="http://www.w3.org/2000/svg"><path d="m349.867188 477.867188v8.53125c-.027344 9.414062-7.652344 17.039062-17.066407 17.066406h-307.199219c-9.414062-.027344-17.039062-7.652344-17.066406-17.066406v-8.53125c-.007812-27.160157 10.777344-53.210938 29.980469-72.417969 19.207031-19.203125 45.257813-29.988281 72.417969-29.984375h136.53125c34.605468-.046875 66.882812 17.421875 85.761718 46.421875l5.121094 8.789062c7.609375 14.5625 11.5625 30.757813 11.519532 47.191407zm0 0" fill="#283593"/><path d="m326.230469 477.867188v8.53125c-.027344 9.414062-7.652344 17.042968-17.066407 17.066406h-283.5625c-9.414062-.027344-17.039062-7.652344-17.066406-17.066406v-8.53125c-.007812-27.160157 10.777344-53.210938 29.980469-72.417969 19.207031-19.203125 45.257813-29.988281 72.417969-29.984375h112.894531c34.605469-.046875 66.882813 17.421875 85.761719 46.421875l5.121094 8.789062c7.609374 14.5625 11.5625 30.757813 11.519531 47.191407zm0 0" fill="#3f51b5"/><path d="m340.140625 228.097656-1.539063-13.824218v-.257813l-.253906-1.792969-12.460937-112.636718c-5.824219-51.832032-49.644531-91.023438-101.800781-91.050782h-89.769532c-52.160156.027344-95.976562 39.21875-101.804687 91.050782l-12.457031 112.636718-.257813 1.792969v.257813c-.9375 4.078124-1.621094 8.207031-2.046875 12.371093-.445312 4.082031-.671875 8.183594-.683594 12.289063 0 75.433594 72.617188 136.53125 162.132813 136.53125s162.132812-61.097656 162.132812-136.53125zm0 0" fill="#e64c3c"/><path d="m341.332031 238.933594-23.808593-1.792969-297.726563-22.867187v-.257813l.257813-1.792969 12.457031-112.636718c5.828125-51.832032 49.644531-91.023438 101.804687-91.050782h89.769532c52.15625.027344 95.976562 39.21875 101.800781 91.050782l12.460937 112.636718.253906 1.792969v.257813l1.539063 13.824218zm0 0" fill="#c81e1e"/><path d="m317.523438 237.140625-297.726563-22.867187v-.257813l.257813-1.792969 12.457031-112.636718c5.828125-51.832032 49.644531-91.023438 101.804687-91.050782h66.132813c52.15625.027344 95.976562 39.21875 101.800781 91.050782l12.460938 112.636718.253906 1.792969v.257813l1.535156 13.824218zm0 0" fill="#f44335"/><path d="m341.332031 238.933594c0 75.433594-72.617187 136.53125-162.132812 136.53125s-162.132813-61.097656-162.132813-136.53125c.011719-4.105469.238282-8.207032.683594-12.289063.425781-4.164062 1.109375-8.292969 2.046875-12.371093v-.257813c.089844-.699219.261719-1.386719.511719-2.046875v-.085938c2.960937-12.503906 7.945312-24.4375 14.761718-35.328124v-.085938c6.371094-10.4375 14.152344-19.941406 23.128907-28.246094-.171875 1.195313-.257813 2.390625-.34375 3.585938l-.253907 2.558594c-.171874 1.792968-.34375 3.671874-.597656 5.375-.34375 2.816406-.597656 5.71875-.941406 8.621093-1.363281 13.054688-2.558594 25.429688-2.984375 27.222657-.511719 3.070312-1.023437 6.140624-1.28125 9.214843-.417969 3.652344-.617187 7.328125-.597656 11.007813 0 2.902344.171875 5.800781.425781 8.703125 0 1.195312.171875 2.304687.257812 3.414062.425782 3.753907 1.023438 7.339844 1.792969 11.007813 11.773438 53.589844 63.488281 93.867187 125.523438 93.867187 62.039062 0 113.75-40.277343 125.527343-93.867187.765626-3.667969 1.363282-7.253906 1.789063-11.007813.085937-1.109375.257813-2.21875.257813-3.414062.257812-2.902344.425781-5.800781.425781-8.703125.019531-3.679688-.179688-7.355469-.597657-11.007813-.253906-3.074219-.765624-6.144531-1.277343-9.214843-.597657-2.390626-2.648438-24.152344-4.355469-40.621094 0-.253906-.082031-.511719-.082031-.683594l-.257813-2.558594c-.171875-1.195312-.253906-2.390625-.425781-3.582031 8.953125 8.355469 16.730469 17.882813 23.125 28.328125v.085938c6.816406 10.890624 11.804687 22.824218 14.761719 35.328124v.085938c.25.660156.421875 1.347656.511718 2.046875v.257813zm0 0" fill="#f44335"/><path d="m341.332031 238.933594c0 75.433594-72.617187 136.53125-162.132812 136.53125-3.925781 0-7.851563-.082032-11.773438-.425782 83.964844-5.035156 150.269531-64 150.269531-136.105468l-2.730468-24.660156v-.257813c-.089844-.699219-.261719-1.386719-.511719-2.046875v-.085938c-2.28125-9.714843-5.808594-19.09375-10.496094-27.902343-.9375-8.277344-1.960937-19.542969-2.988281-29.015625 0-.253906-.082031-.511719-.082031-.683594l-.257813-2.558594c-.171875-1.195312-.253906-2.390625-.425781-3.582031 8.953125 8.355469 16.730469 17.882813 23.125 28.328125v.085938c6.816406 10.890624 11.804687 22.824218 14.761719 35.328124v.085938c.25.660156.421875 1.347656.511718 2.046875v.257813zm0 0" fill="#c81e1e"/><path d="m204.800781 330.496094v59.734375c-19.03125 40.789062-25.601562 113.234375-25.601562 113.234375s-6.570313-72.445313-25.597657-113.234375v-59.734375zm0 0" fill="#ffe0b2"/><path d="m306.601562 204.800781h17.664063c4.527344-.023437 8.871094 1.792969 12.03125 5.035157.667969.617187 1.265625 1.304687 1.792969 2.046874.066406.128907.152344.242188.257812.339844l1.792969 15.875c-2.578125 6.515625-8.863281 10.808594-15.875 10.835938h-290.132813c-7.007812-.027344-13.296874-4.320313-15.871093-10.835938-.171875-.511718-.339844-.941406-.511719-1.453125l2.304688-14.421875c.105468-.097656.191406-.210937.253906-.339844.527344-.742187 1.128906-1.429687 1.792968-2.046874 3.160157-3.242188 7.503907-5.058594 12.03125-5.035157zm0 0" fill="#dfc49c"/><path d="m128 426.667969c-8.535156-8.535157-42.667969-8.535157-42.667969-8.535157 8.535157-42.667968 59.734375-42.667968 59.734375-42.667968 3.363282 4.605468 6.222656 9.554687 8.535156 14.765625 19.027344 40.789062 25.597657 113.234375 25.597657 113.234375-25.597657-25.597656-85.332031-42.664063-85.332031-42.664063 5.910156-15.777343 18.355468-28.222656 34.132812-34.132812zm0 0" fill="#3f51b5"/><path d="m264.535156 460.800781s-59.734375 17.066407-85.335937 42.664063c0 0 6.570312-72.445313 25.601562-113.234375 2.308594-5.210938 5.171875-10.160157 8.53125-14.765625 0 0 51.203125 0 59.734375 42.667968 0 0-34.132812 0-42.667968 8.535157 15.777343 5.910156 28.226562 18.355469 34.136718 34.132812zm0 0" fill="#3f51b5"/><path d="m452.265625 281.601562v34.132813h-68.265625v-34.132813c.003906-14.300781 8.929688-27.078124 22.355469-32 3.765625-1.414062 7.757812-2.136718 11.777343-2.136718 9.058594-.011719 17.746094 3.582031 24.148438 9.984375 6.40625 6.40625 9.996094 15.09375 9.984375 24.152343zm0 0" fill="#c81e1e"/><path d="m428.628906 281.601562v34.132813h-44.628906v-34.132813c.003906-14.300781 8.929688-27.078124 22.355469-32 4.621093 1.6875 8.816406 4.367188 12.289062 7.847657 6.378907 6.421875 9.96875 15.101562 9.984375 24.152343zm0 0" fill="#f44335"/><path d="m384 315.734375h68.265625c9.425781 0 17.066406 7.640625 17.066406 17.066406s-7.640625 17.066407-17.066406 17.066407h-68.265625c-9.425781 0-17.066406-7.640626-17.066406-17.066407s7.640625-17.066406 17.066406-17.066406zm0 0" fill="#e91e63"/><path d="m452.265625 349.867188v145.066406c-.011719 4.707031-3.824219 8.519531-8.53125 8.53125h-51.199219c-4.710937-.011719-8.523437-3.824219-8.535156-8.53125v-145.066406zm0 0" fill="#c81e1e"/><path d="m428.628906 349.867188v145.066406c-.011718 4.707031-3.824218 8.519531-8.53125 8.53125h-27.5625c-4.710937-.011719-8.523437-3.824219-8.535156-8.53125v-145.066406zm0 0" fill="#f44335"/><path d="m349.867188 401.066406h34.132812v34.132813h-34.132812c-9.425782 0-17.066407-7.640625-17.066407-17.066407 0-9.425781 7.640625-17.066406 17.066407-17.066406zm0 0" fill="#f44335"/><path d="m452.265625 401.066406h34.132813c9.425781 0 17.066406 7.640625 17.066406 17.066406 0 9.425782-7.640625 17.066407-17.066406 17.066407h-34.132813zm0 0" fill="#c81e1e"/><path d="m460.800781 418.132812c0 23.566407-19.101562 42.667969-42.667969 42.667969-23.5625 0-42.667968-19.101562-42.667968-42.667969 0-23.5625 19.105468-42.667968 42.667968-42.667968 23.566407 0 42.667969 19.105468 42.667969 42.667968zm0 0" fill="#ef314c"/><path d="m58.113281 165.375c-.449219 1.140625-1.148437 2.160156-2.050781 2.988281 0-.34375.085938-.683593.085938-1.023437zm0 0" fill="#f09372"/><path d="m307.199219 215.808594c0 2.902344-.167969 5.800781-.425781 8.703125 0 1.195312-.171876 2.304687-.257813 3.414062-.425781 3.753907-1.023437 7.339844-1.789063 11.007813-11.777343 53.589844-63.488281 93.867187-125.527343 93.867187-62.035157 0-113.75-40.277343-125.523438-93.867187-.769531-3.667969-1.367187-7.253906-1.792969-11.007813-.085937-1.109375-.257812-2.21875-.257812-3.414062-.253906-2.902344-.425781-5.800781-.425781-8.703125-.019531-3.679688.179687-7.355469.597656-11.007813.257813-3.074219.769531-6.144531 1.28125-9.214843.597656-2.304688 1.195313-11.265626 2.984375-27.222657.902344-.828125 1.601562-1.847656 2.050781-2.988281l-1.964843 1.964844c.34375-2.5625.511718-5.121094.855468-7.597656.253906-1.703126.425782-3.582032.597656-5.375l.253907-2.558594c.085937-1.195313.171875-2.390625.34375-3.585938v-.082031c19.347656-18.027344 42.722656-31.164063 68.179687-38.316406 12.632813-.800781 25.148438 2.882812 35.328125 10.410156 6.597657 4.546875 12.492188 10.035156 17.492188 16.300781 5-6.265625 10.894531-11.753906 17.492187-16.300781 10.054688-7.464844 22.402344-11.175781 34.902344-10.496094 2.5625.769531 5.121094 1.535157 7.59375 2.390625l3.585938 1.277344c21.34375 7.472656 40.902343 19.300781 57.429687 34.734375.171875 1.191406.253906 2.386719.425781 3.582031l.257813 2.558594c0 .171875.679687 6.828125.765625 7.085938.34375 3.496093.597656 5.886718.597656 5.886718 1.707031 16.46875 2.476562 25.941406 3.074219 28.332032.511719 3.070312 1.023437 6.140624 1.277343 9.214843.417969 3.652344.617188 7.328125.597657 11.007813zm0 0" fill="#ffe0b2"/><path d="m307.199219 215.808594c0 2.902344-.167969 5.800781-.425781 8.703125 0 1.195312-.171876 2.304687-.257813 3.414062-.425781 3.753907-1.023437 7.339844-1.789063 11.007813-11.777343 53.589844-63.488281 93.867187-125.527343 93.867187-4.011719 0-7.933594-.171875-11.773438-.425781 56.660157-4.78125 102.652344-43.265625 113.664063-93.441406.765625-3.667969 1.363281-7.253906 1.789062-11.007813.085938-1.109375.257813-2.21875.257813-3.414062.253906-2.902344.425781-5.800781.425781-8.703125.019531-3.679688-.179688-7.355469-.597656-11.007813-.253906-3.074219-.765625-6.144531-1.28125-9.214843-.59375-2.390626-1.363282-11.863282-3.070313-28.332032 0 0-.257812-2.390625-.597656-5.886718-.085937-.257813-.769531-6.914063-.769531-7.085938l-.253906-2.558594c-.171876-1.195312-3.753907-22.527344-3.925782-23.722656-.339844-.339844-.683594-.597656-1.023437-.9375 10.160156 5.929688 19.605469 13 28.160156 21.078125.171875 1.191406.253906 2.386719.425781 3.582031l.257813 2.558594c0 .171875.679687 6.828125.765625 7.085938.34375 3.496093.597656 5.886718.597656 5.886718 1.707031 16.46875 2.476562 25.941406 3.074219 28.332032.511719 3.070312 1.023437 6.140624 1.277343 9.214843.417969 3.652344.617188 7.328125.597657 11.007813zm0 0" fill="#dfc49c"/><path d="m58.113281 165.375c-.449219 1.140625-1.148437 2.160156-2.050781 2.988281 0-.34375.085938-.683593.085938-1.023437zm0 0" fill="#fdd7ad"/><path d="m231.59375 109.738281c-12.5-.679687-24.847656 3.03125-34.902344 10.496094-6.597656 4.546875-12.492187 10.035156-17.492187 16.300781-5-6.265625-10.894531-11.753906-17.492188-16.300781-10.179687-7.527344-22.695312-11.210937-35.328125-10.410156 34.375-9.871094 70.828125-9.898438 105.214844-.085938zm0 0" fill="#91562d"/><path d="m179.199219 341.332031c-64.757813 0-121.058594-42.292969-133.855469-100.566406-.84375-4.019531-1.484375-7.859375-1.933594-11.882813-.480468-4.339843-.730468-8.707031-.742187-13.074218-.023438-4.019532.195312-8.039063.65625-12.03125.234375-2.890625.757812-6.109375 1.292969-9.332032.40625-2.269531 1.476562-12.6875 2.425781-21.878906.875-8.5625 1.839843-17.984375 2.664062-25.199218.449219-4.511719 4.347657-7.886719 8.878907-7.683594s8.109374 3.917968 8.148437 8.453125c0 .351562-.019531.707031-.058594 1.058593-.816406 7.167969-1.785156 16.574219-2.660156 25.109376-1.597656 15.628906-2.199219 21.265624-2.605469 23.109374-.417968 2.570313-.875 5.324219-1.101562 8.074219-.402344 3.425781-.59375 6.871094-.574219 10.320313.011719 3.746094.222656 7.492187.632813 11.214844.390624 3.425781.949218 6.753906 1.660156 10.164062 11.082031 50.421875 60.363281 87.078125 117.171875 87.078125 56.808593 0 106.09375-36.65625 117.191406-87.164063.691406-3.324218 1.25-6.652343 1.652344-10.132812.402343-3.707031.609375-7.433594.625-11.160156.023437-3.335938-.160157-6.671875-.542969-9.984375-.257812-3.082031-.71875-5.835938-1.175781-8.589844-.367188-1.664063-.957031-7.28125-2.558594-22.871094-.875-8.582031-1.851563-18.050781-2.667969-25.253906-.429687-3.070313.839844-6.128906 3.316406-7.996094 2.472657-1.863281 5.765626-2.242187 8.597657-.984375 2.832031 1.257813 4.761719 3.953125 5.035156 7.039063.835937 7.261719 1.808594 16.804687 2.703125 25.457031.929688 9.167969 1.996094 19.554688 2.300781 21.234375.636719 3.808594 1.160157 7.027344 1.425781 10.25.445313 3.882813.65625 7.789063.632813 11.699219-.015625 4.347656-.257813 8.691406-.734375 13.015625-.457031 4.082031-1.101562 7.921875-1.925781 11.855469-12.816407 58.359374-69.117188 100.652343-133.875 100.652343zm0 0"/><path d="m20.054688 220.757812c-3.28125 0-6.273438-1.878906-7.691407-4.835937-1.421875-2.957031-1.023437-6.464844 1.023438-9.027344l.117187-.15625c.871094-1.207031 1.867188-2.316406 2.964844-3.316406 4.691406-4.65625 11.054688-7.234375 17.664062-7.15625h17.664063c4.714844 0 8.535156 3.820313 8.535156 8.535156 0 4.710938-3.820312 8.53125-8.535156 8.53125h-17.578125c-2.253906-.035156-4.425781.851563-6.007812 2.460938-.40625.375-.769532.789062-1.09375 1.234375-.351563.492187-.742188.945312-1.175782 1.367187-1.582031 1.519531-3.691406 2.367188-5.886718 2.363281zm0 0"/><path d="m51.882812 247.464844h-17.75c-10.511718-.050782-19.9375-6.484375-23.816406-16.257813-.023437-.0625-.308594-.851562-.332031-.914062l-.351563-1.011719c-1.457031-4.480469.996094-9.296875 5.480469-10.75 4.480469-1.457031 9.296875.996094 10.753907 5.476562l-8.117188 2.636719 8.277344-2.195312c.03125.09375.316406.914062.347656 1.007812 1.390625 3.027344 4.425781 4.960938 7.757812 4.941407h17.75c4.710938 0 8.53125 3.820312 8.53125 8.535156 0 4.710937-3.820312 8.53125-8.53125 8.53125zm0 0"/><path d="m324.265625 247.464844h-17.75c-4.710937 0-8.53125-3.820313-8.53125-8.53125 0-4.714844 3.820313-8.535156 8.53125-8.535156h17.75c3.503906-.015626 6.644531-2.160157 7.9375-5.414063 1.050781-2.925781 3.605469-5.050781 6.675781-5.542969 3.066406-.496094 6.160156.714844 8.078125 3.164063 1.914063 2.449219 2.347657 5.742187 1.128907 8.601562-3.878907 9.773438-13.304688 16.207031-23.820313 16.257813zm0 0"/><path d="m338.347656 220.757812c-2.195312 0-4.304687-.84375-5.890625-2.363281-.429687-.417969-.824219-.875-1.171875-1.363281-.203125-.292969-.421875-.570312-.660156-.832031-1.628906-1.800781-3.933594-2.839844-6.359375-2.867188h-17.664063c-4.710937 0-8.53125-3.820312-8.53125-8.53125 0-4.714843 3.820313-8.535156 8.53125-8.535156h17.578126c6.859374-.050781 13.441406 2.695313 18.226562 7.609375.921875.871094 1.757812 1.828125 2.492188 2.863281l.117187.15625c2.046875 2.5625 2.445313 6.074219 1.023437 9.027344-1.421874 2.957031-4.414062 4.835937-7.691406 4.835937zm0 0"/><path d="m323.328125 185.046875c-2.257813.007813-4.429687-.882813-6.03125-2.472656-1.601563-1.59375-2.5-3.761719-2.503906-6.019531v-.085938c.023437-4.707031 3.855469-8.507812 8.5625-8.492188 4.707031.015626 8.511719 3.839844 8.503906 8.546876-.003906 4.707031-3.824219 8.519531-8.53125 8.519531zm0 0"/><path d="m35.070312 185.046875c-2.257812.007813-4.425781-.882813-6.027343-2.472656-1.601563-1.59375-2.503907-3.761719-2.503907-6.019531v-.085938c.023438-4.707031 3.851563-8.507812 8.5625-8.492188 4.707032.015626 8.511719 3.839844 8.503907 8.546876-.007813 4.707031-3.824219 8.519531-8.535157 8.519531zm0 0"/><path d="m153.601562 398.761719c-4.714843 0-8.535156-3.820313-8.535156-8.53125v-59.734375c0-4.714844 3.820313-8.535156 8.535156-8.535156 4.710938 0 8.53125 3.820312 8.53125 8.535156v59.734375c0 4.710937-3.820312 8.53125-8.53125 8.53125zm0 0"/><path d="m204.800781 398.761719c-4.714843 0-8.535156-3.820313-8.535156-8.53125v-59.734375c0-4.714844 3.820313-8.535156 8.535156-8.535156 4.710938 0 8.53125 3.820312 8.53125 8.535156v59.734375c0 4.710937-3.820312 8.53125-8.53125 8.53125zm0 0"/><path d="m332.800781 512h-307.199219c-14.132812-.015625-25.585937-11.46875-25.601562-25.601562v-8.53125c.0703125-61.238282 49.695312-110.863282 110.933594-110.933594h42.667968c4.710938 0 8.53125 3.820312 8.53125 8.53125 0 4.714844-3.820312 8.535156-8.53125 8.535156h-42.667968c-51.816406.058594-93.808594 42.050781-93.867188 93.867188v8.53125c.003906 4.710937 3.824219 8.53125 8.535156 8.535156h307.199219c4.710938-.003906 8.527344-3.824219 8.53125-8.535156v-8.53125c.066407-15.054688-3.554687-29.894532-10.539062-43.230469-2.097657-4.160157-.46875-9.238281 3.660156-11.398438 4.128906-2.164062 9.226563-.613281 11.453125 3.480469 8.28125 15.773438 12.570312 33.335938 12.492188 51.148438v8.53125c-.015626 14.132812-11.464844 25.585937-25.597657 25.601562zm0 0"/><path d="m333.234375 430.421875c-2.886719.003906-5.582031-1.453125-7.160156-3.871094-17.292969-26.597656-46.882813-42.613281-78.609375-42.550781h-42.664063c-4.714843 0-8.535156-3.820312-8.535156-8.535156 0-4.710938 3.820313-8.53125 8.535156-8.53125h42.664063c37.496094-.074219 72.472656 18.859375 92.910156 50.292968 2.574219 3.949219 1.457031 9.234376-2.492188 11.804688-1.378906.910156-2.996093 1.394531-4.648437 1.390625zm0 0"/><path d="m179.199219 384c-94.105469 0-170.664063-65.074219-170.664063-145.066406.007813-4.40625.253906-8.808594.730469-13.1875.425781-4.253906 1.109375-8.480469 2.046875-12.652344l.019531-.109375c.128907-1.09375.363281-2.167969.707031-3.214844 3.109376-13.089843 8.296876-25.597656 15.367188-37.042969.113281-.242187.242188-.476562.382812-.703124 29.429688-48.203126 87.445313-78.15625 151.410157-78.15625 21.335937-.078126 42.535156 3.363281 62.75 10.1875l3.675781 1.308593c35.105469 11.878907 65.097656 35.40625 84.992188 66.679688.144531.226562.273437.464843.390624.707031 7.0625 11.441406 12.242188 23.941406 15.351563 37.019531.34375 1.046875.578125 2.121094.707031 3.214844.042969.34375.066406.6875.066406 1.03125.011719 4.738281-3.792968 8.601563-8.53125 8.660156-4.421874.050781-8.132812-3.316406-8.507812-7.722656-.179688-.5-.316406-1.011719-.410156-1.535156-2.757813-11.453125-7.355469-22.382813-13.609375-32.363281-.15625-.261719-.308594-.53125-.441407-.804688-17.878906-27.589844-44.574218-48.320312-75.734374-58.808594l-3.574219-1.273437c-18.40625-6.195313-37.703125-9.316407-57.125-9.234375-57.78125 0-109.992188 26.554687-136.457031 69.359375-.125.257812-.265626.515625-.417969.761719-6.265625 9.996093-10.867188 20.945312-13.625 32.421874-.089844.511719-.226563 1.015626-.40625 1.507813-.03125.402344-.089844.804687-.171875 1.199219-.863282 3.730468-1.492188 7.515625-1.878906 11.324218-.417969 3.792969-.632813 7.609376-.640626 11.425782 0 70.578125 68.90625 128 153.597657 128 84.691406 0 153.601562-57.421875 153.601562-128 0-4.714844 3.820313-8.535156 8.53125-8.535156 4.714844 0 8.535157 3.820312 8.535157 8.535156 0 79.992187-76.558594 145.066406-170.667969 145.066406zm0 0"/><path d="m53.675781 247.464844h-19.542969c-4.710937 0-8.53125-3.820313-8.53125-8.53125 0-4.714844 3.820313-8.535156 8.53125-8.535156h19.542969c4.710938 0 8.53125 3.820312 8.53125 8.535156 0 4.710937-3.820312 8.53125-8.53125 8.53125zm0 0"/><path d="m341.324219 247.464844c-4.347657-.003906-8-3.277344-8.472657-7.597656l-2.730468-24.652344c-.019532-.175782-.035156-.355469-.042969-.535156l-.171875-1.277344-12.496094-112.878906c-5.296875-47.539063-45.496094-83.488282-93.324218-83.457032h-89.769532c-47.835937-.027344-88.035156 35.925782-93.324218 83.464844l-12.71875 114.507812c-.5 4.316407-4.132813 7.582032-8.472657 7.632813-2.25.03125-4.417969-.839844-6.023437-2.417969-1.601563-1.578125-2.507813-3.734375-2.511719-5.984375v-.257812c0-.394531.027344-.789063.085937-1.175781l.25-1.792969 12.421876-112.398438c6.25-56.183593 53.757812-98.675781 110.292968-98.644531h89.769532c56.527343-.0351562 104.035156 42.453125 110.289062 98.632812l12.675781 114.203126c.058594.390624.085938.785156.085938 1.179687l2.683593 23.980469c.246094 2.25-.410156 4.503906-1.824218 6.269531-1.417969 1.769531-3.476563 2.898437-5.726563 3.144531-.3125.035156-.628906.054688-.945312.054688zm0 0"/><path d="m324.265625 247.464844h-19.539063c-4.714843 0-8.535156-3.820313-8.535156-8.53125 0-4.714844 3.820313-8.535156 8.535156-8.535156h19.539063c4.714844 0 8.535156 3.820312 8.535156 8.535156 0 4.710937-3.820312 8.53125-8.535156 8.53125zm0 0"/><path d="m221.867188 76.800781c-4.714844 0-8.535157-3.820312-8.535157-8.535156v-34.132813c-.007812-9.421874-7.644531-17.054687-17.066406-17.066406h-34.132813c-9.421874.011719-17.054687 7.644532-17.066406 17.066406v34.132813c0 4.714844-3.820312 8.535156-8.53125 8.535156-4.714844 0-8.535156-3.820312-8.535156-8.535156v-34.132813c.019531-18.84375 15.289062-34.1132808 34.132812-34.132812h34.132813c18.84375.0195312 34.113281 15.289062 34.132813 34.132812v34.132813c0 4.714844-3.820313 8.535156-8.53125 8.535156zm0 0"/><path d="m179.199219 59.734375c-4.710938 0-8.53125-3.820313-8.53125-8.535156v-8.53125c0-4.714844 3.820312-8.535157 8.53125-8.535157 4.714843 0 8.535156 3.820313 8.535156 8.535157v8.53125c0 4.714843-3.820313 8.535156-8.535156 8.535156zm0 0"/><path d="m179.199219 512c-2.261719 0-4.433594-.898438-6.03125-2.5-23.722657-23.722656-81.066407-40.328125-81.652344-40.496094-2.238281-.640625-4.117187-2.167968-5.199219-4.226562-1.085937-2.058594-1.28125-4.46875-.542968-6.675782 4.078124-11.917968 11.699218-22.304687 21.847656-29.769531-7.378906-1.101562-14.828125-1.660156-22.289063-1.664062-2.554687-.003907-4.976562-1.148438-6.59375-3.128907-1.621093-1.976562-2.269531-4.574218-1.769531-7.082031 7.832031-39.171875 47.972656-49.523437 68.097656-49.523437 2.6875 0 5.214844 1.261718 6.828125 3.414062 26.75 35.660156 35.449219 128.414063 35.808594 132.351563.214844 2.386719-.585937 4.753906-2.203125 6.523437-1.617188 1.769532-3.902344 2.777344-6.300781 2.777344zm-73.589844-56.472656c21.949219 6.984375 42.988281 16.554687 62.675781 28.519531-3.769531-27.414063-12.25-75.722656-27.527344-99.800781-9.941406.921875-34.066406 5.265625-43.832031 25.742187 12.464844.820313 29.765625 3.308594 37.105469 10.644531 2.09375 2.089844 2.957031 5.117188 2.277344 7.996094-.679688 2.878906-2.800782 5.199219-5.609375 6.132813-10.359375 4.078125-19.148438 11.351562-25.089844 20.765625zm0 0"/><path d="m179.199219 512c-2.394531 0-4.683594-1.007812-6.300781-2.777344-1.617188-1.769531-2.414063-4.136718-2.199219-6.523437.359375-3.933594 9.058593-96.6875 35.808593-132.351563 1.609376-2.152344 4.140626-3.414062 6.824219-3.414062 20.125 0 60.269531 10.351562 68.097657 49.523437.5 2.507813-.148438 5.105469-1.765626 7.082031-1.621093 1.980469-4.042968 3.125-6.597656 3.128907-7.457031.003906-14.90625.5625-22.28125 1.664062 10.144532 7.464844 17.769532 17.851563 21.84375 29.769531.738282 2.207032.542969 4.617188-.539062 6.675782-1.085938 2.058594-2.964844 3.585937-5.203125 4.226562-.582031.171875-57.925781 16.773438-81.648438 40.496094-1.601562 1.601562-3.773437 2.503906-6.039062 2.5zm38.425781-127.730469c-15.285156 24.101563-23.75 72.378907-27.515625 99.777344 19.691406-11.964844 40.742187-21.539063 62.699219-28.527344-5.890625-9.464843-14.703125-16.753906-25.109375-20.757812-2.804688-.933594-4.929688-3.253907-5.605469-6.132813-.679688-2.878906.179688-5.90625 2.273438-7.996094 7.332031-7.332031 24.617187-9.824218 37.082031-10.644531-9.78125-20.300781-33.957031-24.746093-43.824219-25.71875zm0 0"/><path d="m452.265625 324.265625h-68.265625c-4.710938 0-8.535156-3.820313-8.535156-8.53125v-34.132813c0-23.566406 19.105468-42.667968 42.667968-42.667968 23.566407 0 42.667969 19.101562 42.667969 42.667968v34.132813c0 4.710937-3.820312 8.53125-8.535156 8.53125zm-59.730469-17.066406h51.199219v-25.597657c0-14.140624-11.460937-25.601562-25.601563-25.601562-14.136718 0-25.597656 11.460938-25.597656 25.601562zm0 0"/><path d="m452.265625 358.398438h-68.265625c-14.136719 0-25.601562-11.460938-25.601562-25.597657 0-14.140625 11.464843-25.601562 25.601562-25.601562h68.265625c14.140625 0 25.601563 11.460937 25.601563 25.601562 0 14.136719-11.460938 25.597657-25.601563 25.597657zm-68.265625-34.132813c-4.710938 0-8.535156 3.820313-8.535156 8.535156 0 4.710938 3.824218 8.53125 8.535156 8.53125h68.265625c4.714844 0 8.535156-3.820312 8.535156-8.53125 0-4.714843-3.820312-8.535156-8.535156-8.535156zm0 0"/><path d="m443.734375 512h-51.199219c-9.421875-.011719-17.058594-7.644531-17.070312-17.066406v-145.066406c0-4.714844 3.824218-8.535157 8.535156-8.535157h68.265625c4.714844 0 8.535156 3.820313 8.535156 8.535157v145.066406c-.011719 9.421875-7.644531 17.054687-17.066406 17.066406zm-51.199219-153.601562v136.535156h51.207032l-.007813-136.535156zm0 0"/><path d="m384 443.734375h-34.132812c-14.140626 0-25.601563-11.460937-25.601563-25.601563 0-14.136718 11.460937-25.597656 25.601563-25.597656h34.132812c4.710938 0 8.535156 3.820313 8.535156 8.53125v34.132813c0 4.714843-3.824218 8.535156-8.535156 8.535156zm-34.132812-34.132813c-4.714844 0-8.535157 3.820313-8.535157 8.53125 0 4.714844 3.820313 8.535157 8.535157 8.535157h25.597656v-17.066407zm0 0"/><path d="m486.398438 443.734375h-34.132813c-4.710937 0-8.53125-3.820313-8.53125-8.535156v-34.132813c0-4.710937 3.820313-8.53125 8.53125-8.53125h34.132813c14.140624 0 25.601562 11.460938 25.601562 25.597656 0 14.140626-11.460938 25.601563-25.601562 25.601563zm-25.597657-17.066406h25.597657c4.714843 0 8.535156-3.820313 8.535156-8.535157 0-4.710937-3.820313-8.53125-8.535156-8.53125h-25.597657zm0 0"/><path d="m418.132812 256c-4.710937 0-8.53125-3.820312-8.53125-8.535156v-17.066406c0-4.710938 3.820313-8.53125 8.53125-8.53125 4.714844 0 8.535157 3.820312 8.535157 8.53125v17.066406c0 4.714844-3.820313 8.535156-8.535157 8.535156zm0 0"/><path d="m418.132812 460.800781c-23.5625 0-42.667968-19.101562-42.667968-42.667969 0-23.5625 19.105468-42.667968 42.667968-42.667968 23.566407 0 42.667969 19.105468 42.667969 42.667968-.027343 23.554688-19.113281 42.640626-42.667969 42.667969zm0-68.265625c-14.136718 0-25.597656 11.460938-25.597656 25.597656 0 14.140626 11.460938 25.601563 25.597656 25.601563 14.140626 0 25.601563-11.460937 25.601563-25.601563-.015625-14.132812-11.46875-25.582031-25.601563-25.597656zm0 0"/><path d="m426.667969 418.132812c0 4.714844-3.820313 8.535157-8.535157 8.535157-4.710937 0-8.53125-3.820313-8.53125-8.535157 0-4.710937 3.820313-8.53125 8.53125-8.53125 4.714844 0 8.535157 3.820313 8.535157 8.53125zm0 0"/><path d="m179.207031 145.066406c-2.691406.003906-5.226562-1.261718-6.839843-3.414062-.175782-.242188-19.691407-25.722656-45.183594-23.328125-3.035156.289062-5.996094-1.0625-7.761719-3.546875-1.769531-2.484375-2.078125-5.722656-.808594-8.496094 1.265625-2.773438 3.917969-4.660156 6.953125-4.949219 35.152344-3.328125 59.441406 28.71875 60.46875 30.089844 1.9375 2.585937 2.25 6.042969.804688 8.933594-1.445313 2.890625-4.402344 4.71875-7.632813 4.71875zm0 0"/><path d="m179.191406 145.054688c-3.226562-.003907-6.179687-1.828126-7.621094-4.714844-1.445312-2.886719-1.132812-6.34375.804688-8.925782 1.007812-1.355468 25.214844-33.128906 59.929688-30.179687 4.699218.394531 8.183593 4.523437 7.789062 9.21875-.394531 4.699219-4.523438 8.183594-9.21875 7.789063-25.429688-2.132813-44.667969 23.175781-44.859375 23.429687-1.621094 2.132813-4.144531 3.386719-6.824219 3.382813zm0 0"/></svg>