<svg height="512pt" viewBox="0 0 512 512.00003" width="512pt" xmlns="http://www.w3.org/2000/svg"><path d="m341.332031 238.933594-23.808593-1.792969-297.726563-22.867187v-.257813l.257813-1.792969 12.457031-112.636718c5.828125-51.832032 49.644531-91.023438 101.804687-91.050782h89.769532c52.15625.027344 95.976562 39.21875 101.800781 91.050782l12.460937 112.636718.253906 1.792969v.257813l1.539063 13.824218zm0 0" fill="#c81e1e"/><path d="m317.523438 237.140625-297.726563-22.867187v-.257813l.257813-1.792969 12.457031-112.636718c5.828125-51.832032 49.644531-91.023438 101.804687-91.050782h66.132813c52.15625.027344 95.976562 39.21875 101.800781 91.050782l12.460938 112.636718.253906 1.792969v.257813l1.535156 13.824218zm0 0" fill="#f44335"/><path d="m341.332031 238.933594c0 75.433594-72.617187 136.53125-162.132812 136.53125-3.925781 0-7.851563-.082032-11.773438-.425782-84.054687-5.035156-150.359375-64-150.359375-136.105468.011719-4.105469.238282-8.207032.683594-12.289063.425781-4.164062 1.109375-8.292969 2.046875-12.371093v-.257813c.089844-.699219.261719-1.386719.511719-2.046875v-.085938c2.960937-12.503906 7.945312-24.4375 14.761718-35.328124v-.085938c6.371094-10.4375 14.152344-19.941406 23.128907-28.246094 32.054687-25.035156 71.144531-39.417968 111.785156-41.128906 47.019531-3.160156 93.507813 11.492188 130.21875 41.046875 8.953125 8.355469 16.730469 17.882813 23.125 28.328125v.085938c6.816406 10.890624 11.804687 22.824218 14.761719 35.328124v.085938c.25.660156.421875 1.347656.511718 2.046875v.257813zm0 0" fill="#c81e1e"/><path d="m317.695312 238.933594c0 72.105468-66.304687 131.070312-150.269531 136.105468-84.054687-5.035156-150.359375-64-150.359375-136.105468.011719-4.105469.238282-8.207032.683594-12.289063.425781-4.164062 1.109375-8.292969 2.046875-12.371093v-.257813c.089844-.699219.261719-1.386719.511719-2.046875v-.085938c2.960937-12.503906 7.945312-24.4375 14.761718-35.328124v-.085938c6.371094-10.4375 14.152344-19.941406 23.128907-28.246094 32.054687-25.035156 71.144531-39.417968 111.785156-41.128906 38.953125 2.164062 76.238281 16.523438 106.582031 41.046875 8.953125 8.355469 16.730469 17.882813 23.125 28.328125v.085938c6.816406 10.890624 11.800782 22.824218 14.761719 35.328124v.085938c.25.660156.421875 1.347656.511719 2.046875v.257813zm0 0" fill="#f44335"/><path d="m308.394531 395.519531h-258.390625c-18.253906-22.703125-21.144531-54.132812-7.335937-79.785156.347656-.667969.660156-1.351563.9375-2.050781 15.785156-33.789063 7.59375-74.75 7.59375-74.75h256s-8.191407 40.960937 7.59375 74.75c.277343.699218.59375 1.382812.941406 2.050781 13.808594 25.652344 10.917969 57.082031-7.339844 79.785156zm0 0" fill="#783e22"/><path d="m284.757812 395.519531h-234.753906c-18.253906-22.703125-21.144531-54.132812-7.335937-79.785156.347656-.667969.660156-1.351563.9375-2.050781 15.785156-33.789063 7.59375-74.75 7.59375-74.75h232.363281s-8.191406 40.960937 7.59375 74.75c.277344.699218.589844 1.382812.941406 2.050781 13.804688 25.652344 10.914063 57.082031-7.339844 79.785156zm0 0" fill="#a0522d"/><path d="m349.867188 477.867188v8.53125c-.027344 9.414062-7.652344 17.039062-17.066407 17.066406h-307.199219c-9.414062-.027344-17.039062-7.652344-17.066406-17.066406v-8.53125c-.007812-27.160157 10.777344-53.210938 29.980469-72.417969 19.207031-19.203125 45.257813-29.988281 72.417969-29.984375h136.53125c34.605468-.046875 66.882812 17.421875 85.761718 46.421875l5.121094 8.789062c7.609375 14.5625 11.5625 30.757813 11.519532 47.191407zm0 0" fill="#283593"/><path d="m326.230469 477.867188v8.53125c-.027344 9.414062-7.652344 17.042968-17.066407 17.066406h-283.5625c-9.414062-.027344-17.039062-7.652344-17.066406-17.066406v-8.53125c-.007812-27.160157 10.777344-53.210938 29.980469-72.417969 19.207031-19.203125 45.257813-29.988281 72.417969-29.984375h112.894531c34.605469-.046875 66.882813 17.421875 85.761719 46.421875l5.121094 8.789062c7.609374 14.5625 11.5625 30.757813 11.519531 47.191407zm0 0" fill="#3f51b5"/><path d="m204.800781 330.496094v59.734375c-19.03125 40.789062-25.601562 113.234375-25.601562 113.234375s-6.570313-72.445313-25.597657-113.234375v-59.734375zm0 0" fill="#ffe0b2"/><path d="m306.601562 204.800781h17.664063c4.527344-.023437 8.871094 1.792969 12.03125 5.035157.667969.617187 1.265625 1.304687 1.792969 2.046874.066406.128907.152344.242188.257812.339844l1.792969 15.875c-2.578125 6.515625-8.863281 10.808594-15.875 10.835938h-290.132813c-7.007812-.027344-13.296874-4.320313-15.871093-10.835938-.171875-.511718-.339844-.941406-.511719-1.453125l2.304688-14.421875c.105468-.097656.191406-.210937.253906-.339844.527344-.742187 1.128906-1.429687 1.792968-2.046874 3.160157-3.242188 7.503907-5.058594 12.03125-5.035157zm0 0" fill="#dfc49c"/><path d="m128 426.667969c-8.535156-8.535157-42.667969-8.535157-42.667969-8.535157 8.535157-42.667968 59.734375-42.667968 59.734375-42.667968 3.363282 4.605468 6.222656 9.554687 8.535156 14.765625 19.027344 40.789062 25.597657 113.234375 25.597657 113.234375-25.597657-25.597656-85.332031-42.664063-85.332031-42.664063 5.910156-15.777343 18.355468-28.222656 34.132812-34.132812zm0 0" fill="#3f51b5"/><path d="m264.535156 460.800781s-59.734375 17.066407-85.335937 42.664063c0 0 6.570312-72.445313 25.601562-113.234375 2.308594-5.210938 5.171875-10.160157 8.53125-14.765625 0 0 51.203125 0 59.734375 42.667968 0 0-34.132812 0-42.667968 8.535157 15.777343 5.910156 28.226562 18.355469 34.136718 34.132812zm0 0" fill="#3f51b5"/><path d="m307.199219 215.808594c-.011719 4.046875-.238281 8.09375-.683594 12.117187-.425781 3.753907-1.023437 7.339844-1.789063 11.007813-11.777343 53.589844-63.488281 93.867187-125.527343 93.867187-4.011719 0-7.933594-.171875-11.773438-.425781-56.75-4.78125-102.742187-43.265625-113.75-93.441406-.769531-3.667969-1.367187-7.253906-1.792969-11.007813-.441406-4.023437-.671874-8.070312-.683593-12.117187-.019531-3.679688.179687-7.355469.597656-11.007813.257813-2.988281.769531-5.972656 1.195313-8.960937h.085937c46.589844-10.75 67.496094-30.976563 76.628906-44.800782 3.125-4.386718 5.4375-9.300781 6.828125-14.503906 26.464844 26.175782 61.710938 41.59375 98.898438 43.261719 14.78125.894531 29.617187.066406 44.203125-2.472656 7.773437-1.363281 15.464843-3.15625 23.039062-5.378907 1.28125 11.691407 2.304688 22.015626 2.648438 23.640626.511719 3.070312 1.023437 6.140624 1.277343 9.214843.417969 3.652344.617188 7.328125.597657 11.007813zm0 0" fill="#dfc49c"/><path d="m283.5625 215.808594c-.011719 4.046875-.238281 8.09375-.683594 12.117187-.425781 3.753907-1.023437 7.339844-1.789062 11.007813-11.011719 50.175781-57.003906 88.660156-113.664063 93.441406-56.75-4.78125-102.742187-43.265625-113.75-93.441406-.769531-3.667969-1.367187-7.253906-1.792969-11.007813-.441406-4.023437-.671874-8.070312-.683593-12.117187-.019531-3.679688.179687-7.355469.597656-11.007813.257813-2.988281.769531-5.972656 1.195313-8.960937h.085937c46.589844-10.75 67.496094-30.976563 76.628906-44.800782 30.785157 21.679688 68.203125 31.859376 105.726563 28.757813 14.773437-1.046875 29.394531-3.679687 43.605468-7.851563.171876 1.878907.425782 3.671876.597657 5.378907 1.023437 9.300781 1.792969 16.894531 2.046875 18.261719.515625 3.070312 1.027344 6.140624 1.28125 9.214843.417968 3.652344.617187 7.328125.597656 11.007813zm0 0" fill="#ffe0b2"/><path d="m302.675781 171.945312c-108.03125 30.976563-166.140625-35.410156-166.140625-35.410156s-8.363281 41.898438-83.289062 59.304688h-.167969v-.253906c.085937-.34375.167969-1.109376.339844-2.136719.257812-1.875.425781-3.753907.597656-5.714844.085937-.683594.171875-1.28125.257813-1.964844.253906-2.898437.597656-6.226562 1.023437-9.8125.085937-.851562.167969-1.707031.253906-2.472656.855469-8.621094 1.792969-18.09375 2.648438-25.261719v-.082031c33.066406-30.054687 76.324219-46.40625 121-45.742187 20.394531-.070313 40.664062 3.214843 59.988281 9.730468l3.585938 1.277344c21.34375 7.472656 40.902343 19.300781 57.429687 34.734375.511719 4.351563 1.109375 9.640625 1.621094 15.015625.253906 2.988281.597656 5.890625.851562 8.789062zm0 0" fill="#91562d"/><path d="m302.675781 171.945312c-21.785156 6.507813-44.539062 9.164063-67.242187 7.851563 14.769531-1.097656 29.382812-3.730469 43.605468-7.851563-.253906-2.898437-.597656-5.800781-.851562-8.789062-.511719-5.375-1.109375-22.269531-1.621094-26.621094-15.703125-14.933594-35.328125-15.191406-57.429687-23.128906l-3.585938-1.277344c-15.542969-5.277344-31.734375-8.40625-48.125-9.300781 3.921875-.34375 7.847657-.429687 11.773438-.429687 20.394531-.070313 40.664062 3.214843 59.988281 9.730468l3.585938 1.277344c21.34375 7.472656 40.902343 19.300781 57.429687 34.734375.511719 4.351563 1.109375 9.640625 1.621094 15.015625.253906 2.988281.597656 5.890625.851562 8.789062zm0 0" fill="#6d4122"/><path d="m452.265625 281.601562v34.132813h-68.265625v-34.132813c.003906-14.300781 8.929688-27.078124 22.355469-32 3.765625-1.414062 7.757812-2.136718 11.777343-2.136718 9.058594-.011719 17.746094 3.582031 24.148438 9.984375 6.40625 6.40625 9.996094 15.09375 9.984375 24.152343zm0 0" fill="#c81e1e"/><path d="m428.628906 281.601562v34.132813h-44.628906v-34.132813c.003906-14.300781 8.929688-27.078124 22.355469-32 4.621093 1.6875 8.816406 4.367188 12.289062 7.847657 6.378907 6.421875 9.96875 15.101562 9.984375 24.152343zm0 0" fill="#f44335"/><path d="m384 315.734375h68.265625c9.425781 0 17.066406 7.640625 17.066406 17.066406s-7.640625 17.066407-17.066406 17.066407h-68.265625c-9.425781 0-17.066406-7.640626-17.066406-17.066407s7.640625-17.066406 17.066406-17.066406zm0 0" fill="#e91e63"/><path d="m452.265625 349.867188v145.066406c-.011719 4.707031-3.824219 8.519531-8.53125 8.53125h-51.199219c-4.710937-.011719-8.523437-3.824219-8.535156-8.53125v-145.066406zm0 0" fill="#c81e1e"/><path d="m428.628906 349.867188v145.066406c-.011718 4.707031-3.824218 8.519531-8.53125 8.53125h-27.5625c-4.710937-.011719-8.523437-3.824219-8.535156-8.53125v-145.066406zm0 0" fill="#f44335"/><path d="m349.867188 401.066406h34.132812v34.132813h-34.132812c-9.425782 0-17.066407-7.640625-17.066407-17.066407 0-9.425781 7.640625-17.066406 17.066407-17.066406zm0 0" fill="#f44335"/><path d="m452.265625 401.066406h34.132813c9.425781 0 17.066406 7.640625 17.066406 17.066406 0 9.425782-7.640625 17.066407-17.066406 17.066407h-34.132813zm0 0" fill="#c81e1e"/><path d="m460.800781 418.132812c0 23.566407-19.101562 42.667969-42.667969 42.667969-23.5625 0-42.667968-19.101562-42.667968-42.667969 0-23.5625 19.105468-42.667968 42.667968-42.667968 23.566407 0 42.667969 19.105468 42.667969 42.667968zm0 0" fill="#ef314c"/><path d="m179.199219 341.332031c-64.757813 0-121.058594-42.292969-133.855469-100.566406-.84375-4.019531-1.484375-7.859375-1.933594-11.882813-.480468-4.339843-.730468-8.707031-.742187-13.074218-.023438-4.019532.195312-8.039063.65625-12.03125.234375-2.890625.757812-6.109375 1.292969-9.332032.40625-2.269531 1.476562-12.6875 2.425781-21.878906.875-8.5625 1.839843-17.984375 2.664062-25.199218.449219-4.511719 4.347657-7.886719 8.878907-7.683594s8.109374 3.917968 8.148437 8.453125c0 .351562-.019531.707031-.058594 1.058593-.816406 7.167969-1.785156 16.574219-2.660156 25.109376-1.597656 15.628906-2.199219 21.265624-2.605469 23.109374-.417968 2.570313-.875 5.324219-1.101562 8.074219-.402344 3.425781-.59375 6.871094-.574219 10.320313.011719 3.746094.222656 7.492187.632813 11.214844.390624 3.425781.949218 6.753906 1.660156 10.164062 11.082031 50.421875 60.363281 87.078125 117.171875 87.078125 56.808593 0 106.09375-36.65625 117.191406-87.164063.691406-3.324218 1.25-6.652343 1.652344-10.132812.402343-3.707031.609375-7.433594.625-11.160156.023437-3.335938-.160157-6.671875-.542969-9.984375-.257812-3.082031-.71875-5.835938-1.175781-8.589844-.367188-1.664063-.957031-7.28125-2.558594-22.871094-.875-8.582031-1.851563-18.050781-2.667969-25.253906-.429687-3.070313.839844-6.128906 3.316406-7.996094 2.472657-1.863281 5.765626-2.242187 8.597657-.984375 2.832031 1.257813 4.761719 3.953125 5.035156 7.039063.835937 7.261719 1.808594 16.804687 2.703125 25.457031.929688 9.167969 1.996094 19.554688 2.300781 21.234375.636719 3.808594 1.160157 7.027344 1.425781 10.25.445313 3.882813.65625 7.789063.632813 11.699219-.015625 4.347656-.257813 8.691406-.734375 13.015625-.457031 4.082031-1.101562 7.921875-1.925781 11.855469-12.816407 58.359374-69.117188 100.652343-133.875 100.652343zm0 0"/><path d="m20.054688 220.757812c-3.28125 0-6.273438-1.878906-7.691407-4.835937-1.421875-2.957031-1.023437-6.464844 1.023438-9.027344l.117187-.15625c.871094-1.207031 1.867188-2.316406 2.964844-3.316406 4.691406-4.65625 11.054688-7.234375 17.664062-7.15625h17.664063c4.714844 0 8.535156 3.820313 8.535156 8.535156 0 4.710938-3.820312 8.53125-8.535156 8.53125h-17.578125c-2.253906-.035156-4.425781.851563-6.007812 2.460938-.40625.375-.769532.789062-1.09375 1.234375-.351563.492187-.742188.945312-1.175782 1.367187-1.582031 1.519531-3.691406 2.367188-5.886718 2.363281zm0 0"/><path d="m51.882812 247.464844h-17.75c-10.511718-.050782-19.9375-6.484375-23.816406-16.257813-.023437-.0625-.308594-.851562-.332031-.914062l-.351563-1.011719c-1.457031-4.480469.996094-9.296875 5.480469-10.75 4.480469-1.457031 9.296875.996094 10.753907 5.476562l-8.117188 2.636719 8.277344-2.195312c.03125.09375.316406.914062.347656 1.007812 1.390625 3.027344 4.425781 4.960938 7.757812 4.941407h17.75c4.710938 0 8.53125 3.820312 8.53125 8.535156 0 4.710937-3.820312 8.53125-8.53125 8.53125zm0 0"/><path d="m324.265625 247.464844h-17.75c-4.710937 0-8.53125-3.820313-8.53125-8.53125 0-4.714844 3.820313-8.535156 8.53125-8.535156h17.75c3.503906-.015626 6.644531-2.160157 7.9375-5.414063 1.050781-2.925781 3.605469-5.050781 6.675781-5.542969 3.066406-.496094 6.160156.714844 8.078125 3.164063 1.914063 2.449219 2.347657 5.742187 1.128907 8.601562-3.878907 9.773438-13.304688 16.207031-23.820313 16.257813zm0 0"/><path d="m338.347656 220.757812c-2.195312 0-4.304687-.84375-5.890625-2.363281-.429687-.417969-.824219-.875-1.171875-1.363281-.203125-.292969-.421875-.570312-.660156-.832031-1.628906-1.800781-3.933594-2.839844-6.359375-2.867188h-17.664063c-4.710937 0-8.53125-3.820312-8.53125-8.53125 0-4.714843 3.820313-8.535156 8.53125-8.535156h17.578126c6.859374-.050781 13.441406 2.695313 18.226562 7.609375.921875.871094 1.757812 1.828125 2.492188 2.863281l.117187.15625c2.046875 2.5625 2.445313 6.074219 1.023437 9.027344-1.421874 2.957031-4.414062 4.835937-7.691406 4.835937zm0 0"/><path d="m323.328125 185.046875c-2.257813.007813-4.429687-.882813-6.03125-2.472656-1.601563-1.59375-2.5-3.761719-2.503906-6.019531v-.085938c.023437-4.707031 3.855469-8.507812 8.5625-8.492188 4.707031.015626 8.511719 3.839844 8.503906 8.546876-.003906 4.707031-3.824219 8.519531-8.53125 8.519531zm0 0"/><path d="m35.070312 185.046875c-2.257812.007813-4.425781-.882813-6.027343-2.472656-1.601563-1.59375-2.503907-3.761719-2.503907-6.019531v-.085938c.023438-4.707031 3.851563-8.507812 8.5625-8.492188 4.707032.015626 8.511719 3.839844 8.503907 8.546876-.007813 4.707031-3.824219 8.519531-8.535157 8.519531zm0 0"/><path d="m153.601562 398.761719c-4.714843 0-8.535156-3.820313-8.535156-8.53125v-59.734375c0-4.714844 3.820313-8.535156 8.535156-8.535156 4.710938 0 8.53125 3.820312 8.53125 8.535156v59.734375c0 4.710937-3.820312 8.53125-8.53125 8.53125zm0 0"/><path d="m204.800781 398.761719c-4.714843 0-8.535156-3.820313-8.535156-8.53125v-59.734375c0-4.714844 3.820313-8.535156 8.535156-8.535156 4.710938 0 8.53125 3.820312 8.53125 8.535156v59.734375c0 4.710937-3.820312 8.53125-8.53125 8.53125zm0 0"/><path d="m332.800781 512h-307.199219c-14.132812-.015625-25.585937-11.46875-25.601562-25.601562v-8.53125c.0703125-61.238282 49.695312-110.863282 110.933594-110.933594h42.667968c4.710938 0 8.53125 3.820312 8.53125 8.53125 0 4.714844-3.820312 8.535156-8.53125 8.535156h-42.667968c-51.816406.058594-93.808594 42.050781-93.867188 93.867188v8.53125c.003906 4.710937 3.824219 8.53125 8.535156 8.535156h307.199219c4.710938-.003906 8.527344-3.824219 8.53125-8.535156v-8.53125c.066407-15.054688-3.554687-29.894532-10.539062-43.230469-2.097657-4.160157-.46875-9.238281 3.660156-11.398438 4.128906-2.164062 9.226563-.613281 11.453125 3.480469 8.28125 15.773438 12.570312 33.335938 12.492188 51.148438v8.53125c-.015626 14.132812-11.464844 25.585937-25.597657 25.601562zm0 0"/><path d="m333.234375 430.421875c-2.886719.003906-5.582031-1.453125-7.160156-3.871094-17.292969-26.597656-46.882813-42.613281-78.609375-42.550781h-42.664063c-4.714843 0-8.535156-3.820312-8.535156-8.535156 0-4.710938 3.820313-8.53125 8.535156-8.53125h42.664063c37.496094-.074219 72.472656 18.859375 92.910156 50.292968 2.574219 3.949219 1.457031 9.234376-2.492188 11.804688-1.378906.910156-2.996093 1.394531-4.648437 1.390625zm0 0"/><path d="m314.792969 322.261719c-2.257813.011719-4.425781-.878907-6.027344-2.472657s-2.503906-3.757812-2.503906-6.019531c0-1.929687.636719-3.808593 1.808593-5.34375 15.839844-19.714843 24.550782-44.203125 24.730469-69.492187 0-4.714844 3.820313-8.535156 8.53125-8.535156 4.714844 0 8.535157 3.820312 8.535157 8.535156-.164063 28.960937-10.0625 57.027344-28.101563 79.683594-1.589844 2.277343-4.191406 3.640624-6.972656 3.644531zm0 0"/><path d="m43.605469 322.261719c-2.949219.007812-5.691407-1.503907-7.253907-4.003907-17.867187-22.59375-27.660156-50.519531-27.816406-79.324218.007813-4.40625.253906-8.808594.730469-13.1875.425781-4.253906 1.109375-8.480469 2.046875-12.652344l.019531-.109375c.128907-1.09375.363281-2.167969.707031-3.214844 3.109376-13.089843 8.296876-25.597656 15.367188-37.042969.117188-.242187.25-.476562.382812-.707031 6.625-10.796875 14.648438-20.664062 23.867188-29.351562.210938-.253907.4375-.496094.675781-.726563 34.703125-31.46875 80.023438-48.644531 126.867188-48.074218 21.335937-.078126 42.535156 3.363281 62.75 10.1875l3.675781 1.3125c22.457031 7.898437 43.042969 20.355468 60.457031 36.585937 9.496094 8.871094 17.746094 18.984375 24.527344 30.066406.140625.238281.273437.480469.398437.730469 7.058594 11.441406 12.242188 23.941406 15.351563 37.019531.339844 1.046875.578125 2.121094.707031 3.214844.042969.34375.066406.6875.066406 1.03125.011719 4.738281-3.792968 8.605469-8.53125 8.664063-4.421874.050781-8.136718-3.320313-8.511718-7.726563-.175782-.5-.3125-1.011719-.40625-1.535156-2.757813-11.453125-7.355469-22.382813-13.609375-32.363281-.15625-.257813-.300781-.515626-.433594-.789063-5.910156-9.535156-13.0625-18.242187-21.265625-25.890625-15.699219-14.617188-34.246094-25.828125-54.484375-32.9375l-3.566406-1.273438c-18.40625-6.195312-37.703125-9.3125-57.125-9.230468-42.160157-.5625-83 14.695312-114.457031 42.769531-.226563.265625-.464844.519531-.71875.757813-8.207032 7.632812-15.363282 16.320312-21.28125 25.835937-.125.253906-.265626.511719-.417969.757813-6.265625 9.996093-10.867188 20.945312-13.625 32.421874-.089844.511719-.226563 1.015626-.40625 1.507813-.03125.402344-.089844.804687-.171875 1.199219-.863282 3.730468-1.492188 7.515625-1.878906 11.324218-.417969 3.792969-.632813 7.609376-.640626 11.425782.175782 25.289062 8.890626 49.777344 24.730469 69.492187 2.007813 2.578125 2.375 6.074219.949219 9.011719-1.429688 2.941406-4.40625 4.8125-7.671875 4.824219zm0 0"/><path d="m179.199219 384c-8.9375-.007812-17.863281-.601562-26.722657-1.785156-3.054687-.367188-5.671874-2.347656-6.855468-5.183594s-.75-6.089844 1.132812-8.519531c1.882813-2.425781 4.929688-3.652344 7.972656-3.210938 16.242188 2.164063 32.703126 2.164063 48.949219 0 3.042969-.441406 6.085938.785157 7.96875 3.210938 1.886719 2.429687 2.316407 5.683593 1.132813 8.519531s-3.800782 4.816406-6.851563 5.183594c-8.859375 1.183594-17.789062 1.777344-26.726562 1.785156zm0 0"/><path d="m53.675781 247.464844h-19.542969c-4.710937 0-8.53125-3.820313-8.53125-8.53125 0-4.714844 3.820313-8.535156 8.53125-8.535156h19.542969c4.710938 0 8.53125 3.820312 8.53125 8.535156 0 4.710937-3.820312 8.53125-8.53125 8.53125zm0 0"/><path d="m341.324219 247.464844c-4.347657-.003906-8-3.277344-8.472657-7.597656l-2.730468-24.652344c-.019532-.175782-.035156-.355469-.042969-.535156l-.171875-1.277344-12.496094-112.878906c-5.296875-47.539063-45.496094-83.488282-93.324218-83.457032h-89.769532c-47.835937-.027344-88.035156 35.925782-93.324218 83.464844l-12.71875 114.507812c-.5 4.316407-4.132813 7.582032-8.472657 7.632813-2.25.03125-4.417969-.839844-6.023437-2.417969-1.601563-1.578125-2.507813-3.734375-2.511719-5.984375v-.257812c0-.394531.027344-.789063.085937-1.175781l.25-1.792969 12.421876-112.398438c6.25-56.183593 53.757812-98.675781 110.292968-98.644531h89.769532c56.527343-.0351562 104.035156 42.453125 110.289062 98.632812l12.675781 114.203126c.058594.390624.085938.785156.085938 1.179687l2.683593 23.980469c.246094 2.25-.410156 4.503906-1.824218 6.269531-1.417969 1.769531-3.476563 2.898437-5.726563 3.144531-.3125.035156-.628906.054688-.945312.054688zm0 0"/><path d="m324.265625 247.464844h-19.539063c-4.714843 0-8.535156-3.820313-8.535156-8.53125 0-4.714844 3.820313-8.535156 8.535156-8.535156h19.539063c4.714844 0 8.535156 3.820312 8.535156 8.535156 0 4.710937-3.820312 8.53125-8.535156 8.53125zm0 0"/><path d="m221.867188 76.800781c-4.714844 0-8.535157-3.820312-8.535157-8.535156v-34.132813c-.007812-9.421874-7.644531-17.054687-17.066406-17.066406h-34.132813c-9.421874.011719-17.054687 7.644532-17.066406 17.066406v34.132813c0 4.714844-3.820312 8.535156-8.53125 8.535156-4.714844 0-8.535156-3.820312-8.535156-8.535156v-34.132813c.019531-18.84375 15.289062-34.1132808 34.132812-34.132812h34.132813c18.84375.0195312 34.113281 15.289062 34.132813 34.132812v34.132813c0 4.714844-3.820313 8.535156-8.53125 8.535156zm0 0"/><path d="m179.199219 59.734375c-4.710938 0-8.53125-3.820313-8.53125-8.535156v-8.53125c0-4.714844 3.820312-8.535157 8.53125-8.535157 4.714843 0 8.535156 3.820313 8.535156 8.535157v8.53125c0 4.714843-3.820313 8.535156-8.535156 8.535156zm0 0"/><path d="m179.199219 512c-2.261719 0-4.433594-.898438-6.03125-2.5-23.722657-23.722656-81.066407-40.328125-81.652344-40.496094-2.238281-.640625-4.117187-2.167968-5.199219-4.226562-1.085937-2.058594-1.28125-4.46875-.542968-6.675782 4.078124-11.917968 11.699218-22.304687 21.847656-29.769531-7.378906-1.101562-14.828125-1.660156-22.289063-1.664062-2.554687-.003907-4.976562-1.148438-6.59375-3.128907-1.621093-1.976562-2.269531-4.574218-1.769531-7.082031 7.832031-39.171875 47.972656-49.523437 68.097656-49.523437 2.6875 0 5.214844 1.261718 6.828125 3.414062 26.75 35.660156 35.449219 128.414063 35.808594 132.351563.214844 2.386719-.585937 4.753906-2.203125 6.523437-1.617188 1.769532-3.902344 2.777344-6.300781 2.777344zm-73.589844-56.472656c21.949219 6.984375 42.988281 16.554687 62.675781 28.519531-3.769531-27.414063-12.25-75.722656-27.527344-99.800781-9.941406.921875-34.066406 5.265625-43.832031 25.742187 12.464844.820313 29.765625 3.308594 37.105469 10.644531 2.09375 2.089844 2.957031 5.117188 2.277344 7.996094-.679688 2.878906-2.800782 5.199219-5.609375 6.132813-10.359375 4.078125-19.148438 11.351562-25.089844 20.765625zm0 0"/><path d="m179.199219 512c-2.394531 0-4.683594-1.007812-6.300781-2.777344-1.617188-1.769531-2.414063-4.136718-2.199219-6.523437.359375-3.933594 9.058593-96.6875 35.808593-132.351563 1.609376-2.152344 4.140626-3.414062 6.824219-3.414062 20.125 0 60.269531 10.351562 68.097657 49.523437.5 2.507813-.148438 5.105469-1.765626 7.082031-1.621093 1.980469-4.042968 3.125-6.597656 3.128907-7.457031.003906-14.90625.5625-22.28125 1.664062 10.144532 7.464844 17.769532 17.851563 21.84375 29.769531.738282 2.207032.542969 4.617188-.539062 6.675782-1.085938 2.058594-2.964844 3.585937-5.203125 4.226562-.582031.171875-57.925781 16.773438-81.648438 40.496094-1.601562 1.601562-3.773437 2.503906-6.039062 2.5zm38.425781-127.730469c-15.285156 24.101563-23.75 72.378907-27.515625 99.777344 19.691406-11.964844 40.742187-21.539063 62.699219-28.527344-5.890625-9.464843-14.703125-16.753906-25.109375-20.757812-2.804688-.933594-4.929688-3.253907-5.605469-6.132813-.679688-2.878906.179688-5.90625 2.273438-7.996094 7.332031-7.332031 24.617187-9.824218 37.082031-10.644531-9.78125-20.300781-33.957031-24.746093-43.824219-25.71875zm0 0"/><path d="m452.265625 324.265625h-68.265625c-4.710938 0-8.535156-3.820313-8.535156-8.53125v-34.132813c0-23.566406 19.105468-42.667968 42.667968-42.667968 23.566407 0 42.667969 19.101562 42.667969 42.667968v34.132813c0 4.710937-3.820312 8.53125-8.535156 8.53125zm-59.730469-17.066406h51.199219v-25.597657c0-14.140624-11.460937-25.601562-25.601563-25.601562-14.136718 0-25.597656 11.460938-25.597656 25.601562zm0 0"/><path d="m452.265625 358.398438h-68.265625c-14.136719 0-25.601562-11.460938-25.601562-25.597657 0-14.140625 11.464843-25.601562 25.601562-25.601562h68.265625c14.140625 0 25.601563 11.460937 25.601563 25.601562 0 14.136719-11.460938 25.597657-25.601563 25.597657zm-68.265625-34.132813c-4.710938 0-8.535156 3.820313-8.535156 8.535156 0 4.710938 3.824218 8.53125 8.535156 8.53125h68.265625c4.714844 0 8.535156-3.820312 8.535156-8.53125 0-4.714843-3.820312-8.535156-8.535156-8.535156zm0 0"/><path d="m443.734375 512h-51.199219c-9.421875-.011719-17.058594-7.644531-17.070312-17.066406v-145.066406c0-4.714844 3.824218-8.535157 8.535156-8.535157h68.265625c4.714844 0 8.535156 3.820313 8.535156 8.535157v145.066406c-.011719 9.421875-7.644531 17.054687-17.066406 17.066406zm-51.199219-153.601562v136.535156h51.207032l-.007813-136.535156zm0 0"/><path d="m384 443.734375h-34.132812c-14.140626 0-25.601563-11.460937-25.601563-25.601563 0-14.136718 11.460937-25.597656 25.601563-25.597656h34.132812c4.710938 0 8.535156 3.820313 8.535156 8.53125v34.132813c0 4.714843-3.824218 8.535156-8.535156 8.535156zm-34.132812-34.132813c-4.714844 0-8.535157 3.820313-8.535157 8.53125 0 4.714844 3.820313 8.535157 8.535157 8.535157h25.597656v-17.066407zm0 0"/><path d="m486.398438 443.734375h-34.132813c-4.710937 0-8.53125-3.820313-8.53125-8.535156v-34.132813c0-4.710937 3.820313-8.53125 8.53125-8.53125h34.132813c14.140624 0 25.601562 11.460938 25.601562 25.597656 0 14.140626-11.460938 25.601563-25.601562 25.601563zm-25.597657-17.066406h25.597657c4.714843 0 8.535156-3.820313 8.535156-8.535157 0-4.710937-3.820313-8.53125-8.535156-8.53125h-25.597657zm0 0"/><path d="m418.132812 256c-4.710937 0-8.53125-3.820312-8.53125-8.535156v-17.066406c0-4.710938 3.820313-8.53125 8.53125-8.53125 4.714844 0 8.535157 3.820312 8.535157 8.53125v17.066406c0 4.714844-3.820313 8.535156-8.535157 8.535156zm0 0"/><path d="m418.132812 460.800781c-23.5625 0-42.667968-19.101562-42.667968-42.667969 0-23.5625 19.105468-42.667968 42.667968-42.667968 23.566407 0 42.667969 19.105468 42.667969 42.667968-.027343 23.554688-19.113281 42.640626-42.667969 42.667969zm0-68.265625c-14.136718 0-25.597656 11.460938-25.597656 25.597656 0 14.140626 11.460938 25.601563 25.597656 25.601563 14.140626 0 25.601563-11.460937 25.601563-25.601563-.015625-14.132812-11.46875-25.582031-25.601563-25.597656zm0 0"/><path d="m426.667969 418.132812c0 4.714844-3.820313 8.535157-8.535157 8.535157-4.710937 0-8.53125-3.820313-8.53125-8.535157 0-4.710937 3.820313-8.53125 8.53125-8.53125 4.714844 0 8.535157 3.820313 8.535157 8.53125zm0 0"/><path d="m50.003906 404.054688c-2.445312.003906-4.773437-1.046876-6.390625-2.878907-20.554687-25.316406-23.9375-60.484375-8.582031-89.25.207031-.429687.429688-.84375.589844-1.261719 8.800781-22.246093 11.300781-46.492187 7.214844-70.070312-.820313-4.574219 2.171874-8.964844 6.730468-9.871094 4.558594-.910156 9.007813 1.996094 10.003906 6.535156 4.878907 26.921876 2.027344 54.671876-8.222656 80.039063-.308594.769531-.65625 1.519531-1.042968 2.253906-12.269532 22.535157-9.867188 50.226563 6.101562 70.3125 2.222656 2.515625 2.765625 6.105469 1.386719 9.164063-1.382813 3.0625-4.429688 5.03125-7.789063 5.027344zm0 0"/><path d="m308.394531 404.054688c-3.355469 0-6.402343-1.96875-7.78125-5.03125-1.378906-3.058594-.835937-6.644532 1.390625-9.15625 15.96875-20.09375 18.371094-47.785157 6.101563-70.328126-.484375-.921874-.914063-1.871093-1.292969-2.839843-16.527344-35.320313-8.335938-77.652344-7.976562-79.445313 1-4.539062 5.445312-7.445312 10.003906-6.535156 4.558594.90625 7.550781 5.296875 6.730468 9.871094-.074218.382812-7.410156 38.726562 6.957032 69.476562.410156 1.011719.632812 1.425782.84375 1.847656 15.355468 28.769532 11.972656 63.9375-8.585938 89.257813-1.613281 1.835937-3.945312 2.886719-6.390625 2.882813zm0 0"/><path d="m53.078125 204.375c-4.46875.042969-8.214844-3.359375-8.59375-7.8125-.375-4.449219 2.742187-8.4375 7.152344-9.148438 67.523437-15.734374 76.214843-51.144531 76.550781-52.648437.707031-3.148437 3.113281-5.636719 6.230469-6.453125 3.109375-.816406 6.414062.1875 8.542969 2.597656 2.234374 2.523438 56.148437 61.878906 157.367187 32.828125 4.53125-1.296875 9.253906 1.324219 10.554687 5.855469 1.296876 4.53125-1.324218 9.253906-5.855468 10.554688-88.023438 25.230468-144.226563-10.933594-165.4375-28.9375-8.621094 15.402343-30.558594 40.476562-84.597656 52.945312-.628907.144531-1.269532.214844-1.914063.21875zm0 0"/></svg>