<svg height="512pt" viewBox="0 0 512.04377 512" width="512pt" xmlns="http://www.w3.org/2000/svg"><path d="m349.867188 469.355469v17.066406c-.027344 9.414063-7.652344 17.039063-17.066407 17.066406h-307.199219c-9.414062-.027343-17.039062-7.652343-17.066406-17.066406v-17.066406c-.007812-27.160157 10.777344-53.210938 29.980469-72.417969 19.207031-19.203125 45.257813-29.988281 72.417969-29.980469h136.53125c4.828125-.007812 9.648437.335938 14.421875 1.023438 50.488281 7.152343 88.007812 50.382812 87.980469 101.375zm0 0" fill="#cfd8dc"/><path d="m326.230469 469.355469v17.066406c-.027344 9.414063-7.652344 17.039063-17.066407 17.066406h-283.5625c-9.414062-.027343-17.039062-7.652343-17.066406-17.066406v-17.066406c-.007812-27.160157 10.777344-53.210938 29.980469-72.417969 19.207031-19.203125 45.257813-29.988281 72.417969-29.980469h112.894531c4.828125-.007812 9.644531.335938 14.421875 1.023438 50.488281 7.152343 88.003906 50.382812 87.980469 101.375zm0 0" fill="#f5f5f5"/><path d="m153.601562 321.984375h51.199219v70.570313h-51.199219zm0 0" fill="#ffe0b2"/><path d="m426.667969 384.023438h34.132812v110.933593c0 4.710938-3.820312 8.53125-8.535156 8.53125h-17.066406c-4.710938 0-8.53125-3.820312-8.53125-8.53125zm0 0" fill="#7f8e94"/><path d="m324.265625 196.289062h-.085937c.085937-1.453124.085937-11.433593.085937-12.800781 0-2.730469-.085937-5.460937-.253906-8.191406-.332031-6.050781-1.101563-12.066406-2.304688-18.003906 7.167969 2.898437 11.09375 4.863281 11.09375 4.863281l4.777344-33.453125 1.535156-10.921875.085938-.253906 2.132812-15.105469c0-51.882813-72.617187-93.867187-162.132812-93.867187s-162.132813 41.984374-162.132813 93.867187l2.132813 15.105469.085937.253906 1.535156 10.921875 4.78125 33.453125s3.921876-1.964844 11.089844-4.863281c-1.199218 5.9375-1.972656 11.953125-2.300781 18.003906-.171875 2.730469-.257813 5.460937-.257813 8.191406 0 1.367188 0 11.347657.085938 12.800781h-.085938c-9.398437.066407-17 7.667969-17.066406 17.066407.027344 9.414062 7.652344 17.039062 17.066406 17.066406h19.542969c11.773438 53.589844 63.488281 93.867187 125.523438 93.867187 62.039062 0 113.75-40.277343 125.527343-93.867187h19.539063c9.414063-.027344 17.039063-7.652344 17.066406-17.066406-.066406-9.398438-7.667969-17-17.066406-17.066407zm0 0" fill="#95a5a5"/><path d="m53.675781 230.421875h-19.542969c-9.414062-.027344-17.039062-7.652344-17.066406-17.066406.066406-9.398438 7.667969-17 17.066406-17.066407h17.664063c-.414063 3.652344-.617187 7.328126-.597656 11.007813.011719 4.046875.242187 8.09375.683593 12.117187.425782 3.753907 1.023438 7.339844 1.792969 11.007813zm0 0" fill="#ffe0b2"/><path d="m341.332031 213.355469c-.027343 9.414062-7.652343 17.039062-17.066406 17.066406h-19.539063c.765626-3.667969 1.363282-7.253906 1.789063-11.007813.445313-4.023437.671875-8.070312.683594-12.117187.019531-3.679687-.179688-7.355469-.597657-11.007813h17.664063c9.398437.066407 17 7.667969 17.066406 17.066407zm0 0" fill="#dfc49c"/><path d="m324.265625 183.488281c0 1.367188 0 11.347657-.085937 12.800781h-17.578126c-.253906-3.074218-.765624-6.144531-1.277343-9.214843-.769531-3.757813-1.707031-7.511719-2.816407-11.179688-1.367187-3.15625-3.074218-6.742187-5.035156-10.667969v-.085937c-3.644531-7.222656-7.746094-14.207031-12.289062-20.90625 12.402344 3.6875 24.59375 8.046875 36.523437 13.058594 1.203125 5.9375 1.972657 11.953125 2.304688 18.003906.167969 2.730469.253906 5.460937.253906 8.191406zm0 0" fill="#91562d"/><path d="m307.199219 207.296875c-.011719 4.046875-.238281 8.09375-.683594 12.117187-.425781 3.753907-1.023437 7.339844-1.789063 11.007813-11.777343 53.589844-63.488281 93.867187-125.527343 93.867187-4.011719 0-7.933594-.171874-11.773438-.425781-56.75-4.78125-102.742187-43.265625-113.75-93.441406-.769531-3.667969-1.367187-7.253906-1.792969-11.007813-.441406-4.023437-.671874-8.070312-.683593-12.117187-.019531-3.679687.183593-7.355469.597656-11.007813.257813-3.074218.769531-6.144531 1.28125-9.214843.765625-3.757813 1.707031-7.511719 2.816406-11.179688 1.363281-3.15625 3.070313-6.742187 5.035157-10.667969v-.085937c3.640624-7.222656 7.746093-14.207031 12.285156-20.90625 30.59375-9.3125 62.253906-14.675781 94.210937-15.957031 3.839844-.171875 7.761719-.253906 11.773438-.253906 35.925781.265624 71.621093 5.726562 105.984375 16.210937 4.542968 6.699219 8.644531 13.683594 12.289062 20.90625v.085937c1.960938 3.925782 3.667969 7.511719 5.035156 10.667969 1.109376 3.667969 2.046876 7.421875 2.816407 11.179688.511719 3.070312 1.023437 6.140625 1.277343 9.214843.417969 3.652344.617188 7.328126.597657 11.007813zm0 0" fill="#dfc49c"/><path d="m283.5625 207.296875c-.011719 4.046875-.238281 8.09375-.683594 12.117187-.425781 3.753907-1.023437 7.339844-1.789062 11.007813-11.011719 50.175781-57.003906 88.660156-113.664063 93.441406-56.75-4.78125-102.742187-43.265625-113.75-93.441406-.769531-3.667969-1.367187-7.253906-1.792969-11.007813-.441406-4.023437-.671874-8.070312-.683593-12.117187-.019531-3.679687.183593-7.355469.597656-11.007813.257813-3.074218.769531-6.144531 1.28125-9.214843.765625-3.757813 1.707031-7.511719 2.816406-11.179688 1.363281-3.15625 3.070313-6.742187 5.035157-10.667969v-.085937c3.640624-7.222656 7.746093-14.207031 12.285156-20.90625 30.59375-9.3125 62.253906-14.675781 94.210937-15.957031 31.925781 1.28125 63.554688 6.640625 94.121094 15.957031 4.539063 6.699219 8.644531 13.683594 12.289063 20.90625v.085937c1.960937 3.925782 3.667968 7.511719 5.035156 10.667969 1.109375 3.667969 2.046875 7.421875 2.8125 11.179688.515625 3.070312 1.027344 6.140625 1.28125 9.214843.417968 3.652344.617187 7.328126.597656 11.007813zm0 0" fill="#ffe0b2"/><path d="m341.332031 102.421875-2.132812 15.105469-.085938.253906-1.535156 10.921875-4.777344-.679687s-6.402343-3.160157-17.664062-7.679688c-43.34375-16.949219-89.398438-25.910156-135.9375-26.457031-4.011719 0-7.933594.085937-11.773438.171875-49.023437 2.085937-97.179687 13.617187-141.824219 33.964844l-4.78125.679687-1.195312-8.359375-.339844-2.5625-.085937-.253906-2.132813-15.105469c0-49.578125 66.304688-90.113281 150.359375-93.609375 3.921875-.171875 7.847657-.257812 11.773438-.257812 89.515625 0 162.132812 41.984374 162.132812 93.867187zm0 0" fill="#cfd8dc"/><path d="m317.695312 102.421875-2.132812 15.105469-.085938.253906-.339843 2.5625c-43.34375-16.949219-89.398438-25.910156-135.9375-26.457031-4.011719 0-7.933594.085937-11.773438.171875-3.925781-.085938-7.851562-.171875-11.863281-.171875-46.535156.546875-92.589844 9.507812-135.9375 26.457031l-.339844-2.5625-.085937-.253906-2.132813-15.105469c0-49.578125 66.304688-90.113281 150.359375-93.609375 83.964844 3.496094 150.269531 44.03125 150.269531 93.609375zm0 0" fill="#f5f5f5"/><path d="m73.214844 144.234375c-4.539063 6.699219-8.644532 13.683594-12.285156 20.90625v.085937c-1.964844 3.925782-3.671876 7.511719-5.035157 10.667969-1.109375 3.667969-2.050781 7.421875-2.816406 11.179688-.511719 3.070312-1.023437 6.140625-1.28125 9.214843h-17.578125c-.085938-1.453124-.085938-11.433593-.085938-12.800781 0-2.730469.085938-5.460937.257813-8.191406.328125-6.050781 1.101563-12.066406 2.300781-18.003906v-.085938c11.949219-4.9375 24.140625-9.265625 36.523438-12.972656zm0 0" fill="#91562d"/><path d="m337.578125 128.703125-4.777344 33.453125s-3.925781-1.964844-11.09375-4.863281c-11.929687-5.011719-24.121093-9.371094-36.523437-13.058594-34.363282-10.484375-70.058594-15.945313-105.984375-16.210937-35.925781.265624-71.621094 5.726562-105.984375 16.210937-12.382813 3.707031-24.574219 8.035156-36.523438 12.972656v.085938c-7.167968 2.898437-11.089844 4.863281-11.089844 4.863281l-4.78125-33.453125 4.78125-.679687c48.257813-21.964844 100.578126-33.589844 153.597657-34.136719 53.019531.546875 105.339843 12.171875 153.601562 34.136719zm0 0" fill="#9e9e9e"/><path d="m179.199219 332.820312c-70.183594 0-128.5625-48.351562-135.796875-112.472656-1.304688-11.589844-.871094-23.308594 1.28125-34.773437.878906-4.351563 1.894531-8.398438 3.046875-12.171875.890625-2.917969 3.269531-5.136719 6.238281-5.824219 2.972656-.6875 6.082031.261719 8.164062 2.492187 2.078126 2.230469 2.8125 5.398438 1.921876 8.3125-1.027344 3.371094-1.898438 6.898438-2.613282 10.417969-1.828125 9.78125-2.191406 19.78125-1.074218 29.667969 6.253906 55.445312 57.34375 97.285156 118.832031 97.285156s112.582031-41.839844 118.839843-97.324218c1.117188-9.929688.746094-19.96875-1.109374-29.785157-.683594-3.363281-1.550782-6.890625-2.578126-10.261719-1.378906-4.507812 1.160157-9.277343 5.667969-10.652343 4.507813-1.375 9.277344 1.164062 10.65625 5.671875 1.148438 3.773437 2.164063 7.820312 3.011719 12.015625 1.339844 7.210937 2.027344 14.53125 2.046875 21.867187-.007813 4.351563-.253906 8.699219-.734375 13.023438-7.238281 64.160156-65.617188 112.511718-135.800781 112.511718zm0 0"/><path d="m51.882812 238.957031h-17.75c-14.132812-.015625-25.582031-11.46875-25.597656-25.601562.0625-14.113281 11.488282-25.535157 25.597656-25.601563h17.664063c4.714844 0 8.535156 3.820313 8.535156 8.535156 0 4.710938-3.820312 8.53125-8.535156 8.53125h-17.578125c-2.253906-.035156-4.425781.851563-6.007812 2.460938-1.671876 1.578125-2.617188 3.777344-2.609376 6.074219.003907 4.710937 3.820313 8.527343 8.53125 8.53125h17.75c4.710938 0 8.53125 3.824219 8.53125 8.535156s-3.820312 8.535156-8.53125 8.535156zm0 0"/><path d="m324.265625 238.957031h-17.75c-4.710937 0-8.53125-3.824219-8.53125-8.535156s3.820313-8.535156 8.53125-8.535156h17.75c4.710937-.003907 8.527344-3.820313 8.535156-8.53125.019531-2.226563-.867187-4.367188-2.460937-5.925781-1.578125-1.671876-3.773438-2.613282-6.074219-2.609376h-17.664063c-4.710937 0-8.53125-3.820312-8.53125-8.53125 0-4.714843 3.820313-8.535156 8.53125-8.535156h17.578126c14.144531.019532 25.621093 11.457032 25.6875 25.601563-.015626 14.132812-11.46875 25.585937-25.601563 25.601562zm0 0"/><path d="m34.203125 204.792969c-4.511719.007812-8.246094-3.507813-8.507813-8.011719-.082031-1.507812-.09375-11.871094-.09375-13.292969-.007812-9.296875.890626-18.570312 2.6875-27.691406.757813-4.351563 4.710938-7.402344 9.113282-7.039063 4.398437.367188 7.792968 4.03125 7.824218 8.449219 0 .589844-.054687 1.179688-.167968 1.757813-1.597656 8.074218-2.402344 16.289062-2.390625 24.523437 0 1.304688-.011719 10.738281.070312 12.324219.230469 4.699219-3.375 8.703125-8.070312 8.96875-.15625.007812-.308594.011719-.464844.011719zm0 0"/><path d="m324.191406 204.820312c-.171875 0-.328125 0-.5-.011718-4.699218-.269532-8.292968-4.296875-8.027344-9 .078126-1.601563.070313-11.015625.070313-12.320313.007813-8.234375-.792969-16.449219-2.390625-24.523437-.652344-3.011719.367188-6.144532 2.671875-8.191406 2.304687-2.046876 5.535156-2.691407 8.449219-1.6875 2.914062 1.003906 5.058594 3.503906 5.613281 6.535156 1.820313 9.179687 2.730469 18.511718 2.722656 27.867187 0 1.421875-.011719 11.785157-.097656 13.292969-.257813 4.511719-3.992187 8.039062-8.511719 8.039062zm0 0"/><path d="m55.894531 184.46875c-2.257812.007812-4.429687-.878906-6.03125-2.472656-1.601562-1.59375-2.5-3.757813-2.503906-6.015625v-.085938c0-1.179687.246094-2.347656.722656-3.429687 4.996094-11.550782 11.054688-22.613282 18.09375-33.046875 2.714844-3.742188 7.914063-4.648438 11.730469-2.035157 3.816406 2.609376 4.859375 7.785157 2.351562 11.671876-6.390624 9.480468-11.894531 19.527343-16.441406 30.019531-1.292968 3.246093-4.429687 5.382812-7.921875 5.394531zm0 0"/><path d="m302.507812 184.46875c-3.660156.011719-6.917968-2.316406-8.09375-5.78125-4.511718-10.351562-9.960937-20.269531-16.273437-29.636719-2.507813-3.882812-1.46875-9.058593 2.347656-11.671875 3.816407-2.609375 9.019531-1.707031 11.730469 2.039063 7.042969 10.429687 13.101562 21.492187 18.097656 33.046875 1.160156 2.640625.910156 5.691406-.664062 8.109375-1.578125 2.417969-4.261719 3.882812-7.148438 3.894531zm0 0"/><path d="m153.601562 401.089844c-4.714843 0-8.535156-3.820313-8.535156-8.535156v-70.570313c0-4.710937 3.820313-8.53125 8.535156-8.53125 4.710938 0 8.53125 3.820313 8.53125 8.53125v70.570313c0 4.714843-3.820312 8.535156-8.53125 8.535156zm0 0"/><path d="m204.800781 401.089844c-4.714843 0-8.535156-3.820313-8.535156-8.535156v-70.570313c0-4.710937 3.820313-8.53125 8.535156-8.53125 4.710938 0 8.53125 3.820313 8.53125 8.53125v70.570313c0 4.714843-3.820312 8.535156-8.53125 8.535156zm0 0"/><path d="m332.800781 512.023438h-307.199219c-14.132812-.015626-25.585937-11.46875-25.601562-25.601563v-17.066406c.0664062-61.238281 49.695312-110.867188 110.933594-110.933594h42.667968c4.710938 0 8.53125 3.820313 8.53125 8.535156 0 4.710938-3.820312 8.53125-8.53125 8.53125h-42.667968c-51.816406.058594-93.808594 42.050781-93.867188 93.867188v17.066406c.007813 4.710937 3.824219 8.527344 8.535156 8.535156h307.199219c4.710938-.007812 8.527344-3.824219 8.53125-8.535156v-17.066406c-.058593-51.816407-42.046875-93.808594-93.867187-93.867188h-42.664063c-4.714843 0-8.535156-3.820312-8.535156-8.53125 0-4.714843 3.820313-8.535156 8.535156-8.535156h42.664063c61.242187.066406 110.867187 49.695313 110.933594 110.933594v17.066406c-.015626 14.132813-11.464844 25.585937-25.597657 25.601563zm0 0"/><path d="m128 435.222656c0 4.710938-3.820312 8.53125-8.535156 8.53125-4.710938 0-8.53125-3.820312-8.53125-8.53125 0-4.714844 3.820312-8.535156 8.53125-8.535156 4.714844 0 8.535156 3.820312 8.535156 8.535156zm0 0"/><path d="m128 469.355469c0 4.710937-3.820312 8.53125-8.535156 8.53125-4.710938 0-8.53125-3.820313-8.53125-8.53125 0-4.714844 3.820312-8.535157 8.53125-8.535157 4.714844 0 8.535156 3.820313 8.535156 8.535157zm0 0"/><path d="m247.464844 435.222656c0 4.710938-3.820313 8.53125-8.53125 8.53125-4.714844 0-8.535156-3.820312-8.535156-8.53125 0-4.714844 3.820312-8.535156 8.535156-8.535156 4.710937 0 8.53125 3.820312 8.53125 8.535156zm0 0"/><path d="m247.464844 469.355469c0 4.710937-3.820313 8.53125-8.53125 8.53125-4.714844 0-8.535156-3.820313-8.535156-8.53125 0-4.714844 3.820312-8.535157 8.535156-8.535157 4.710937 0 8.53125 3.820313 8.53125 8.535157zm0 0"/><path d="m273.066406 512.023438c-4.710937 0-8.53125-3.820313-8.53125-8.535157v-85.332031c-.007812-4.710938-3.824218-8.527344-8.535156-8.535156h-25.601562c-4.710938 0-8.53125-3.820313-8.53125-8.53125 0-4.714844 3.820312-8.535156 8.53125-8.535156h25.601562c14.132812.015624 25.585938 11.46875 25.601562 25.601562v85.332031c0 4.714844-3.820312 8.535157-8.535156 8.535157zm0 0"/><path d="m19.167969 126.199219c-3.636719.023437-6.867188-2.304688-7.992188-5.761719l-.085937-.253906c-1.660156-5.777344-2.519532-11.753906-2.554688-17.761719 0-57.421875 74.964844-102.3984375 170.664063-102.3984375s170.667969 44.9765625 170.667969 102.3984375c-.03125 5.875-.851563 11.71875-2.441407 17.375l-8.3125-2.015625-8.105469-2.65625c1.164063-4.136719 1.765626-8.40625 1.792969-12.703125 0-47.054687-68.90625-85.332031-153.601562-85.332031-84.695313 0-153.597657 38.277344-153.597657 85.332031.027344 4.339844.640626 8.65625 1.824219 12.832031 1.25 4.488282-1.277343 9.160156-5.71875 10.566406-.824219.25-1.679687.378907-2.539062.378907zm0 0"/><path d="m332.800781 170.6875c-1.324219 0-2.628906-.308594-3.8125-.898438-47.109375-21.277343-98.101562-32.59375-149.789062-33.234374-51.683594.640624-102.679688 11.957031-149.785157 33.234374-2.453124 1.222657-5.347656 1.195313-7.777343-.074218-2.425781-1.273438-4.097657-3.636719-4.484375-6.351563l-8.535156-59.734375c-.664063-4.664062 2.574218-8.988281 7.242187-9.65625 4.664063-.667968 8.988281 2.574219 9.65625 7.242188l6.929687 48.484375c46.511719-19.4375 96.34375-29.699219 146.753907-30.210938 50.410156.511719 100.246093 10.769531 146.757812 30.210938l6.929688-48.484375c.375-3.070313 2.378906-5.695313 5.238281-6.867188 2.863281-1.171875 6.132812-.703125 8.550781 1.222656 2.417969 1.925782 3.605469 5.007813 3.101563 8.058594l-8.53125 59.734375c-.605469 4.203125-4.203125 7.320313-8.445313 7.324219zm0 0"/><path d="m332.792969 136.554688c-1.324219 0-2.625-.308594-3.804688-.898438-47.109375-21.277344-98.101562-32.59375-149.789062-33.234375-51.683594.640625-102.679688 11.957031-149.785157 33.234375-4.214843 2.082031-9.316406.367188-11.417968-3.835938-2.101563-4.203124-.410156-9.3125 3.785156-11.429687 49.417969-22.648437 103.0625-34.589844 157.417969-35.035156 54.355469.445312 108.003906 12.386719 157.417969 35.035156 3.542968 1.769531 5.402343 5.742187 4.488281 9.597656-.910157 3.851563-4.355469 6.570313-8.3125 6.566407zm0 0"/><path d="m179.199219 102.421875c-4.710938 0-8.53125-3.820313-8.53125-8.535156v-51.199219c0-4.710938 3.820312-8.53125 8.53125-8.53125 4.714843 0 8.535156 3.820312 8.535156 8.53125v51.199219c0 4.714843-3.820313 8.535156-8.535156 8.535156zm0 0"/><path d="m128 106.347656c-4.710938 0-8.535156-3.820312-8.535156-8.535156v-46.589844c0-4.714844 3.824218-8.535156 8.535156-8.535156s8.535156 3.820312 8.535156 8.535156v46.589844c0 4.714844-3.824218 8.535156-8.535156 8.535156zm0 0"/><path d="m76.800781 117.527344c-4.714843 0-8.535156-3.820313-8.535156-8.535156v-32.171876c0-4.710937 3.820313-8.53125 8.535156-8.53125 4.710938 0 8.53125 3.820313 8.53125 8.53125v32.171876c0 4.714843-3.820312 8.535156-8.53125 8.535156zm0 0"/><path d="m230.398438 106.347656c-4.710938 0-8.53125-3.820312-8.53125-8.535156v-46.589844c0-4.714844 3.820312-8.535156 8.53125-8.535156 4.714843 0 8.535156 3.820312 8.535156 8.535156v46.589844c0 4.714844-3.820313 8.535156-8.535156 8.535156zm0 0"/><path d="m281.601562 117.527344c-4.714843 0-8.535156-3.820313-8.535156-8.535156v-32.171876c0-4.710937 3.820313-8.53125 8.535156-8.53125 4.710938 0 8.53125 3.820313 8.53125 8.53125v32.171876c0 4.714843-3.820312 8.535156-8.53125 8.535156zm0 0"/><path d="m460.800781 392.558594c-2.761719-.003906-5.347656-1.335938-6.949219-3.585938-1.601562-2.246094-2.015624-5.128906-1.117187-7.738281 2.601563-7.394531 5.84375-14.550781 9.6875-21.382813 4.191406-7.128906 9.050781-13.84375 14.511719-20.054687 2.03125-2.449219 4.0625-4.902344 6.035156-7.449219 8.371094-12.433594 12.5625-27.214844 11.964844-42.191406 0-28.277344-22.921875-51.199219-51.199219-51.199219s-51.199219 22.921875-51.199219 51.199219c-.597656 14.976562 3.59375 29.757812 11.964844 42.195312 1.972656 2.546876 4.003906 5 6.035156 7.449219 5.460938 6.210938 10.320313 12.925781 14.511719 20.054688 3.839844 6.832031 7.082031 13.988281 9.6875 21.382812 1.539063 4.453125-.824219 9.3125-5.28125 10.855469-4.453125 1.539062-9.3125-.824219-10.851563-5.28125-2.292968-6.464844-5.132812-12.71875-8.488281-18.699219-3.695312-6.191406-7.953125-12.023437-12.726562-17.425781-2.148438-2.59375-4.304688-5.199219-6.386719-7.898438-10.679688-15.429687-16.125-33.878906-15.535156-52.632812 0-37.703125 30.566406-68.269531 68.269531-68.269531s68.265625 30.566406 68.265625 68.269531c.59375 18.753906-4.851562 37.199219-15.53125 52.628906-2.082031 2.699219-4.238281 5.304688-6.386719 7.898438-4.773437 5.402344-9.035156 11.238281-12.726562 17.429687-3.359375 5.976563-6.199219 12.234375-8.488281 18.695313-1.191407 3.441406-4.429688 5.746094-8.066407 5.75zm0 0"/><path d="m477.867188 392.554688h-68.265626c-4.714843 0-8.535156-3.820313-8.535156-8.53125 0-4.714844 3.820313-8.535157 8.535156-8.535157h68.265626c4.710937 0 8.53125 3.820313 8.53125 8.535157 0 4.710937-3.820313 8.53125-8.53125 8.53125zm0 0"/><path d="m452.265625 512.023438h-17.066406c-9.421875-.011719-17.054688-7.644532-17.066407-17.066407v-110.933593c0-4.714844 3.820313-8.535157 8.535157-8.535157h34.132812c4.710938 0 8.53125 3.820313 8.53125 8.535157v110.933593c-.007812 9.421875-7.644531 17.054688-17.066406 17.066407zm-17.066406-119.46875v102.402343h17.082031l-.015625-102.402343zm0 0"/><path d="m462.164062 332.824219c-2.886718-.003907-5.574218-1.46875-7.144531-3.890625-1.574219-2.421875-1.816406-5.472656-.644531-8.109375 4.476562-11.09375 6.664062-22.976563 6.425781-34.9375 0-28.210938-10.273437-46.929688-17.066406-46.929688-6.796875 0-17.066406 18.71875-17.066406 46.929688-.238281 11.960937 1.949219 23.84375 6.425781 34.9375 1.316406 2.796875 1.015625 6.085937-.785156 8.597656-1.800782 2.511719-4.820313 3.855469-7.890625 3.507813-3.070313-.347657-5.714844-2.324219-6.914063-5.175782-5.445312-13.273437-8.136718-27.519531-7.902344-41.867187 0-36.484375 14.675782-64 34.132813-64 19.453125 0 34.132813 27.515625 34.132813 64 .230468 14.347656-2.457032 28.59375-7.90625 41.867187-1.367188 3.082032-4.421876 5.070313-7.796876 5.070313zm0 0"/></svg>