<svg height="512pt" viewBox="0 0 512.0001 512" width="512pt" xmlns="http://www.w3.org/2000/svg"><path d="m317.441406 377.515625h-276.480468c-25.429688-20.820313-30.550782-59.992187-15.359376-91.90625 17.066407-35.925781 8.53125-80.808594 8.53125-80.808594h290.132813s-8.53125 44.882813 8.535156 80.808594c15.1875 31.914063 10.070313 71.085937-15.359375 91.90625zm0 0" fill="#783e22"/><path d="m293.800781 377.515625h-252.839843c-25.429688-20.820313-30.550782-59.992187-15.359376-91.90625 17.066407-35.925781 8.53125-80.808594 8.53125-80.808594h266.496094s-8.53125 44.882813 8.535156 80.808594c15.1875 31.914063 10.066407 71.085937-15.363281 91.90625zm0 0" fill="#a0522d"/><path d="m85.332031 353.109375v150.355469h-59.730469c-9.414062-.027344-17.039062-7.652344-17.066406-17.066406v-34.132813c-.015625-46.699219 31.578125-87.488281 76.796875-99.15625zm0 0" fill="#02a9f4"/><path d="m344.746094 420.351562-16.808594 33.449219-15.191406 30.210938-9.8125 19.453125h-29.867188v-150.355469c33.792969 8.734375 60.808594 34.078125 71.679688 67.242187zm0 0" fill="#0377bc"/><path d="m332.800781 477.867188-20.054687 6.144531-39.679688 12.203125v-133.71875c22.785156 12.476562 39.964844 33.164062 48.042969 57.855468l6.828125 33.449219zm0 0" fill="#02a9f4"/><path d="m273.066406 353.109375v150.355469h-187.734375v-150.355469c8.359375-2.167969 16.964844-3.257813 25.601563-3.242187h136.53125c8.636718-.015626 17.242187 1.074218 25.601562 3.242187zm0 0" fill="#f5f5f5"/><path d="m110.933594 349.867188h8.53125v68.265624c.03125 9.414063 7.65625 17.039063 17.070312 17.066407h85.332032c9.414062-.027344 17.039062-7.652344 17.066406-17.066407v-68.265624zm0 0" fill="#ffe0b2"/><path d="m153.601562 304.894531h51.199219v70.570313h-51.199219zm0 0" fill="#ffe0b2"/><path d="m346.113281 151.464844c-7.433593-8.367188-16.378906-15.257813-26.371093-20.308594v-.085938c-8.65625-31.820312-28.191407-59.597656-55.207032-78.503906l-32.429687-17.324218c-11.53125-4.378907-23.574219-7.273438-35.839844-8.617188h-34.132813c-12.261718 1.34375-24.304687 4.238281-35.839843 8.617188l-32.425781 17.324218c-27.019532 18.90625-46.554688 46.683594-55.210938 78.503906v.085938c-9.992188 5.050781-18.9375 11.941406-26.367188 20.308594-5.753906 7.238281-4.652343 17.75 2.472657 23.640625 5.519531 4.53125 13.265625 5.175781 19.457031 1.621093-.089844.820313-.089844 1.652344 0 2.472657h-.085938c-9.398437.070312-17 7.671875-17.066406 17.066406.027344 9.414063 7.652344 17.039063 17.066406 17.066406h19.578126c11.757812 53.574219 63.453124 93.867188 125.488281 93.867188 62.125 0 113.835937-40.363281 125.527343-93.949219l1.789063.082031h17.75c9.414063-.027343 17.039063-7.652343 17.066406-17.066406-.066406-9.394531-7.667969-16.996094-17.066406-17.066406h-.085937c.046874-.765625.046874-1.535157 0-2.304688 2.621093 1.515625 5.59375 2.308594 8.621093 2.304688 3.882813.019531 7.652344-1.308594 10.664063-3.753907 7.34375-5.894531 8.527344-16.625 2.648437-23.980468zm0 0" fill="#f29c1f"/><path d="m59.734375 201.984375 8.53125 11.347656h-34.132813c-9.414062-.027343-17.039062-7.652343-17.066406-17.066406.066406-9.394531 7.667969-16.996094 17.066406-17.066406h17.664063l7.9375 8.023437zm0 0" fill="#ffe0b2"/><path d="m341.332031 196.265625c-.027343 9.414063-7.652343 17.039063-17.066406 17.066406h-17.75l-1.789063-.082031c.765626-3.585938 1.363282-7.253906 1.789063-10.925781.445313-4.023438.671875-8.066407.683594-12.117188 0-2.132812-.085938-4.179687-.253907-6.226562.253907-2.988281-8.277343-4.78125-8.277343-4.78125h25.597656c9.398437.070312 17 7.671875 17.066406 17.066406zm0 0" fill="#dfc49c"/><path d="m307.199219 190.207031c-.011719 4.050781-.238281 8.09375-.683594 12.117188-.425781 3.671875-1.023437 7.339843-1.789063 10.925781-11.691406 53.585938-63.402343 93.949219-125.527343 93.949219-3.925781 0-7.765625-.167969-11.605469-.511719-60.839844-4.949219-109.480469-48.894531-115.710938-104.363281-.441406-4.023438-.671874-8.066407-.683593-12.117188 0-2.132812.085937-4.179687.257812-6.226562-.003906-1.230469.082031-2.457031.253907-3.671875 0-.425782.085937-.765625.085937-1.109375.257813-3.070313.769531-6.144531 1.28125-9.214844.597656-2.988281 1.277344-5.886719 2.132813-8.789063 17.917968-9.984374 52.394531-22.957031 111.785156-24.492187h.769531c3.667969-.085937 7.507813-.167969 11.433594-.167969 66.902343 0 104.875 13.992188 123.988281 24.574219.769531 2.902344 1.539062 5.886719 2.136719 8.875.511719 3.070313 1.023437 6.144531 1.277343 9.214844 0 .34375.085938.683593.085938 1.109375.171875 1.214844.257812 2.441406.257812 3.671875.167969 2.046875.253907 4.09375.253907 6.226562zm0 0" fill="#dfc49c"/><path d="m283.5625 190.207031c-.011719 4.050781-.238281 8.09375-.683594 12.117188-.425781 3.671875-1.023437 7.339843-1.789062 10.925781-10.925782 50.089844-56.832032 88.660156-113.496094 93.4375-60.839844-4.949219-109.480469-48.894531-115.710938-104.363281-.441406-4.023438-.671874-8.066407-.683593-12.117188 0-2.132812.085937-4.179687.257812-6.226562-.003906-1.230469.082031-2.457031.253907-3.671875 0-.425782.085937-.765625.085937-1.109375.257813-3.070313.769531-6.144531 1.28125-9.214844.597656-2.988281 1.277344-5.886719 2.132813-8.789063 17.917968-9.984374 52.394531-22.957031 111.785156-24.492187h.769531c59.390625 1.535156 93.867187 14.507813 111.785156 24.40625.769531 2.902344 1.539063 5.886719 2.132813 8.875.515625 3.070313 1.027344 6.144531 1.28125 9.214844 0 .34375.085937.683593.085937 1.109375.171875 1.214844.257813 2.441406.257813 3.671875.167968 2.046875.253906 4.09375.253906 6.226562zm0 0" fill="#ffe0b2"/><path d="m319.742188 131.070312h-281.085938c8.65625-31.820312 28.191406-59.597656 55.210938-78.503906l32.425781-17.324218c11.535156-4.378907 23.578125-7.273438 35.839843-8.617188h34.132813c12.265625 1.34375 24.308594 4.238281 35.839844 8.617188l32.429687 17.324218c27.015625 18.90625 46.550782 46.683594 55.207032 78.503906zm0 0" fill="#f57c00"/><path d="m296.105469 131.070312h-257.449219c8.65625-31.820312 28.191406-59.597656 55.210938-78.503906l32.425781-17.324218c11.535156-4.378907 23.578125-7.273438 35.839843-8.617188h10.496094c12.265625 1.34375 24.308594 4.238281 35.839844 8.617188l32.425781 17.324218c27.019531 18.90625 46.554688 46.683594 55.210938 78.503906zm0 0" fill="#ff9801"/><path d="m324.179688 179.199219h-17.578126c-.253906-3.070313-.765624-6.144531-1.277343-9.214844-.597657-2.988281-1.367188-5.972656-2.136719-8.875 5.980469 3.074219 11.472656 7.011719 16.300781 11.691406 1.289063 1.652344 2.882813 3.042969 4.691407 4.09375.046874.769531.046874 1.539063 0 2.304688zm0 0" fill="#59474e"/><path d="m55.210938 161.195312c-.855469 2.902344-1.535157 5.800782-2.132813 8.789063-.511719 3.070313-1.023437 6.144531-1.28125 9.214844h-17.578125c-.089844-.820313-.089844-1.652344 0-2.472657 1.695312-.972656 3.222656-2.210937 4.523438-3.671874 4.820312-4.804688 10.382812-8.808594 16.46875-11.859376zm0 0" fill="#59474e"/><path d="m343.464844 175.445312c-3.011719 2.445313-6.78125 3.773438-10.664063 3.753907-3.027343.003906-6-.789063-8.621093-2.304688-1.808594-1.050781-3.402344-2.441406-4.691407-4.09375-4.828125-4.679687-10.320312-8.617187-16.300781-11.691406-19.113281-10.582031-57.085938-24.574219-123.988281-24.574219-66.902344 0-104.875 13.992188-123.988281 24.660156-6.085938 3.050782-11.648438 7.054688-16.46875 11.859376-1.300782 1.460937-2.828126 2.699218-4.523438 3.671874-6.191406 3.554688-13.9375 2.910157-19.457031-1.621093-7.125-5.890625-8.226563-16.402344-2.472657-23.640625 7.429688-8.367188 16.375-15.257813 26.367188-20.308594v-.085938c24.234375-13.480468 67.753906-28.671874 140.542969-28.671874 72.789062 0 116.308593 15.191406 140.542969 28.671874v.085938c9.992187 5.050781 18.9375 11.941406 26.371093 20.308594 5.878907 7.355468 4.695313 18.085937-2.648437 23.980468zm0 0" fill="#ffdc00"/><path d="m343.464844 175.445312c-3.011719 2.445313-6.78125 3.773438-10.664063 3.753907-3.027343.003906-6-.789063-8.621093-2.304688-1.195313-.660156-2.261719-1.523437-3.15625-2.558593 6.304687-6.109376 6.929687-16.011719 1.453124-22.871094-7.433593-8.367188-16.378906-15.257813-26.371093-20.308594v-.085938c-22.699219-12.628906-62.378907-26.792968-127.230469-28.5 3.414062-.171874 6.828125-.171874 10.324219-.171874 72.789062 0 116.308593 15.191406 140.542969 28.671874v.085938c9.992187 5.050781 18.9375 11.941406 26.371093 20.308594 5.878907 7.355468 4.695313 18.085937-2.648437 23.980468zm0 0" fill="#fec108"/><g fill="#ffdc00"><path d="m110.933594 25.601562c9.425781 0 17.066406 7.640626 17.066406 17.066407v17.066406c0 9.425781-7.640625 17.066406-17.066406 17.066406-9.425782 0-17.066406-7.640625-17.066406-17.066406v-17.066406c0-9.425781 7.640624-17.066407 17.066406-17.066407zm0 0"/><path d="m179.199219 8.535156c9.425781 0 17.066406 7.640625 17.066406 17.066406v17.066407c0 9.425781-7.640625 17.066406-17.066406 17.066406s-17.066407-7.640625-17.066407-17.066406v-17.066407c0-9.425781 7.640626-17.066406 17.066407-17.066406zm0 0"/><path d="m247.464844 25.601562c9.425781 0 17.070312 7.640626 17.070312 17.066407v17.066406c0 9.425781-7.644531 17.066406-17.070312 17.066406-9.421875 0-17.066406-7.640625-17.066406-17.066406v-17.066406c0-9.425781 7.644531-17.066407 17.066406-17.066407zm0 0"/></g><path d="m495.96875 377.789062-12.066406 12.066407c-17.65625 17.667969-45.496094 19.992187-65.832032 5.492187l-103.121093 103.121094c-6.664063 6.664062-17.472657 6.664062-24.136719 0s-6.664062-17.472656 0-24.136719l103.121094-103.121093c-14.5-20.335938-12.175782-48.175782 5.492187-65.832032l12.066407-12.066406c4.800781-4.800781 11.3125-7.496094 18.101562-7.496094s13.300781 2.695313 18.101562 7.496094l6.035157 6.035156-24.136719 24.136719v24.132813l12.070312 12.070312h24.136719l24.132813-24.136719 6.035156 6.035157c4.800781 4.800781 7.496094 11.3125 7.496094 18.101562s-2.695313 13.300781-7.496094 18.101562zm0 0" fill="#7f8e94"/><path d="m495.957031 377.769531-12.03125 12.117188c-17.671875 17.679687-45.535156 19.988281-65.878906 5.460937l-103.082031 103.085938c-4.863282 4.894531-12.203125 6.367187-18.578125 3.730468-6.378907-2.636718-10.53125-8.863281-10.519531-15.765624 4.519531-.011719 8.847656-1.824219 12.03125-5.03125l103.082031-103.085938c20.34375 14.527344 48.207031 12.21875 65.878906-5.460938l12.03125-12.117187c5.621094-5.621094 8.304687-13.539063 7.253906-21.417969l3.753907-3.753906 6.058593 6.058594c9.984375 9.996094 9.984375 26.1875 0 36.179687zm0 0" fill="#545c60"/><path d="m179.199219 315.734375c-70.183594 0-128.5625-48.34375-135.796875-112.449219-.480469-4.34375-.726563-8.707031-.734375-13.078125-.023438-4.011719.195312-8.023437.652343-12.011719.25-3.011718.792969-6.3125 1.34375-9.617187.695313-3.503906 1.4375-6.648437 2.359376-9.796875 1.332031-4.519531 6.078124-7.105469 10.601562-5.773438 4.523438 1.332032 7.109375 6.078126 5.773438 10.601563-.78125 2.652344-1.40625 5.308594-1.953126 8.042969-.425781 2.578125-.90625 5.421875-1.144531 8.265625-.394531 3.414062-.582031 6.851562-.566406 10.289062.011719 3.746094.222656 7.488281.632813 11.210938 6.253906 55.417969 57.34375 97.25 118.832031 97.25 56.875 0 106.15625-36.6875 117.1875-87.238281.703125-3.289063 1.257812-6.683594 1.65625-10.089844.40625-3.695313.613281-7.414063.625-11.132813.019531-3.339843-.160157-6.683593-.539063-10.003906-.265625-3.128906-.75-5.972656-1.222656-8.816406-.515625-2.546875-1.238281-5.355469-1.964844-8.089844-1.082031-4.507813 1.628906-9.054687 6.109375-10.242187 4.480469-1.191407 9.089844 1.414062 10.382813 5.867187.816406 3.070313 1.621094 6.226563 2.253906 9.390625.597656 3.566406 1.140625 6.871094 1.421875 10.171875.4375 3.890625.648437 7.804687.625 11.722656-.011719 4.351563-.253906 8.699219-.734375 13.027344-.460938 4.011719-1.105469 7.945313-1.929688 11.800781-12.734374 58.359375-69.03125 100.699219-133.871093 100.699219zm0 0"/><path d="m51.882812 221.867188h-17.75c-14.132812-.015626-25.582031-11.46875-25.597656-25.601563.0625-14.109375 11.488282-25.53125 25.597656-25.597656h17.664063c4.714844 0 8.535156 3.820312 8.535156 8.53125 0 4.714843-3.820312 8.535156-8.535156 8.535156h-17.578125c-2.253906-.039063-4.425781.851563-6.007812 2.457031-1.671876 1.578125-2.617188 3.777344-2.609376 6.074219.003907 4.710937 3.820313 8.527344 8.53125 8.535156h17.75c4.710938 0 8.53125 3.820313 8.53125 8.53125 0 4.714844-3.820312 8.535157-8.53125 8.535157zm0 0"/><path d="m324.265625 221.867188h-17.75c-4.710937 0-8.53125-3.820313-8.53125-8.535157 0-4.710937 3.820313-8.53125 8.53125-8.53125h17.75c4.710937-.007812 8.527344-3.824219 8.535156-8.535156.019531-2.226563-.867187-4.367187-2.460937-5.921875-1.578125-1.671875-3.773438-2.617188-6.074219-2.609375h-17.664063c-4.710937 0-8.53125-3.820313-8.53125-8.535156 0-4.710938 3.820313-8.53125 8.53125-8.53125h17.578126c14.144531.019531 25.621093 11.453125 25.6875 25.597656-.015626 14.132813-11.46875 25.585937-25.601563 25.601563zm0 0"/><path d="m38.65625 139.644531c-2.257812.011719-4.429688-.878906-6.03125-2.46875-1.597656-1.59375-2.5-3.757812-2.503906-6.015625 0-.773437.097656-1.542968.289062-2.289062 9.191406-33.738282 29.898438-63.199219 58.535156-83.269532 2.484376-1.839843 5.769532-2.1875 8.585938-.914062s4.726562 3.972656 4.988281 7.054688c.261719 3.078124-1.164062 6.0625-3.726562 7.792968-25.316407 17.726563-43.652344 43.738282-51.84375 73.539063-.917969 3.84375-4.34375 6.558593-8.292969 6.570312zm0 0"/><path d="m232.105469 43.777344c-1.03125 0-2.054688-.191406-3.019531-.558594-10.859376-4.121094-22.195313-6.847656-33.742188-8.113281-4.667969-.53125-8.027344-4.730469-7.519531-9.398438.503906-4.671875 4.691406-8.050781 9.363281-7.570312 12.980469 1.421875 25.730469 4.484375 37.941406 9.121093 3.855469 1.457032 6.121094 5.464844 5.378906 9.519532-.742187 4.058594-4.277343 7.003906-8.402343 7zm0 0"/><path d="m319.742188 139.644531c-4.085938.015625-7.609376-2.878906-8.382813-6.894531-8.234375-29.671875-26.53125-55.554688-51.753906-73.214844-2.558594-1.730468-3.984375-4.714844-3.722657-7.792968.261719-3.082032 2.167969-5.78125 4.984376-7.054688 2.816406-1.273438 6.101562-.925781 8.589843.914062 28.632813 20.070313 49.339844 49.53125 58.53125 83.269532.683594 2.566406.136719 5.304687-1.476562 7.410156-1.613281 2.109375-4.113281 3.351562-6.769531 3.363281zm0 0"/><path d="m126.292969 43.777344c-4.125.003906-7.660157-2.941406-8.402344-7-.742187-4.054688 1.523437-8.0625 5.382813-9.519532 12.207031-4.632812 24.957031-7.699218 37.9375-9.117187 4.671874-.484375 8.859374 2.898437 9.363281 7.570313.507812 4.667968-2.851563 8.867187-7.519531 9.398437-11.546876 1.265625-22.882813 3.992187-33.742188 8.109375-.964844.371094-1.988281.558594-3.019531.558594zm0 0"/><path d="m34.207031 187.734375c-3.929687-.007813-7.347656-2.695313-8.28125-6.511719-.351562-1.675781-.425781-3.394531-.222656-5.089844.1875-3.0625 2-5.789062 4.75-7.144531 2.753906-1.351562 6.019531-1.125 8.558594.597657 2.539062 1.722656 3.957031 4.671874 3.71875 7.730468-.023438.320313-.039063.609375-.042969.839844.527344 4.296875-2.242188 8.3125-6.449219 9.335938-.664062.160156-1.347656.242187-2.03125.242187zm0 0"/><path d="m324.179688 187.554688h-.179688c-4.605469-.019532-8.332031-3.75-8.351562-8.355469 0-.128907.015624-.609375.019531-.738281.023437-.304688.023437-.613282.003906-.921876-.28125-3.070312 1.117187-6.050781 3.652344-7.804687 2.535156-1.75 5.820312-1.996094 8.589843-.644531 2.769532 1.351562 4.59375 4.089844 4.777344 7.167968.070313.988282.078125 1.984376.027344 2.976563-.195312 4.59375-3.9375 8.242187-8.539062 8.320313zm0 0"/><path d="m153.601562 384c-4.714843 0-8.535156-3.820312-8.535156-8.535156v-70.570313c0-4.710937 3.820313-8.53125 8.535156-8.53125 4.710938 0 8.53125 3.820313 8.53125 8.53125v70.570313c0 4.714844-3.820312 8.535156-8.53125 8.535156zm0 0"/><path d="m204.800781 384c-4.714843 0-8.535156-3.820312-8.535156-8.535156v-70.570313c0-4.710937 3.820313-8.53125 8.535156-8.53125 4.710938 0 8.53125 3.820313 8.53125 8.53125v70.570313c0 4.714844-3.820312 8.535156-8.53125 8.535156zm0 0"/><path d="m302.933594 512h-277.332032c-14.132812-.015625-25.585937-11.46875-25.601562-25.601562v-34.132813c-.0117188-29.425781 11.671875-57.648437 32.476562-78.457031 20.808594-20.804688 49.03125-32.488282 78.457032-32.476563h42.667968c4.710938 0 8.53125 3.820313 8.53125 8.535157 0 4.710937-3.820312 8.53125-8.53125 8.53125h-42.667968c-24.898438-.007813-48.78125 9.875-66.386719 27.484374-17.605469 17.605469-27.492187 41.484376-27.480469 66.382813v34.132813c.007813 4.710937 3.824219 8.527343 8.535156 8.535156h277.332032c4.710937 0 8.53125 3.820312 8.53125 8.53125 0 4.714844-3.820313 8.535156-8.53125 8.535156zm0 0"/><path d="m344.746094 428.886719c-3.695313-.003907-6.96875-2.378907-8.113282-5.894531-10.054687-30.332032-34.773437-53.523438-65.691406-61.621094-7.664062-1.984375-15.554687-2.980469-23.476562-2.972656h-42.664063c-4.714843 0-8.535156-3.820313-8.535156-8.53125 0-4.714844 3.820313-8.535157 8.535156-8.535157h42.664063c9.363281-.011719 18.6875 1.171875 27.753906 3.519531 36.539062 9.578126 65.757812 36.996094 77.640625 72.855469.839844 2.597657.386719 5.441407-1.214844 7.652344-1.605469 2.207031-4.167969 3.519531-6.898437 3.527344zm0 0"/><path d="m332.8125 187.734375c-7.785156.019531-15.148438-3.519531-20-9.605469-.039062 0-32.257812-33.0625-133.613281-33.0625-101.8125 0-133.835938 33.367188-134.144531 33.699219-9.179688 10.449219-24.992188 11.730469-35.730469 2.894531-10.792969-8.808594-12.449219-24.675781-3.710938-35.523437 4.277344-5.34375 45.515625-52.269531 173.585938-52.269531 128.070312 0 169.308593 46.925781 173.589843 52.273437 8.828126 11.039063 7.039063 27.148437-3.996093 35.980469-4.539063 3.625-10.171875 5.605468-15.980469 5.613281zm-153.613281-59.734375c107.5 0 142.867187 35.015625 146.546875 39.007812 1.652344 2.257813 4.269531 3.613282 7.066406 3.660157 3.277344-.007813 6.261719-1.890625 7.679688-4.84375 1.417968-2.953125 1.015624-6.460938-1.03125-9.019531-1.5-1.875-38.097657-45.871094-160.261719-45.871094-122.160157 0-158.761719 43.996094-160.261719 45.867187-2.867188 3.609375-2.285156 8.859375 1.308594 11.75 3.644531 2.941407 8.964844 2.457031 12.019531-1.089843 1.378906-1.59375 35.363281-39.460938 146.933594-39.460938zm0 0"/><path d="m110.933594 85.332031c-14.132813-.015625-25.585938-11.464843-25.601563-25.597656v-17.066406c0-14.140625 11.460938-25.601563 25.601563-25.601563 14.136718 0 25.601562 11.460938 25.601562 25.601563v17.066406c-.015625 14.132813-11.46875 25.582031-25.601562 25.597656zm0-51.199219c-4.710938.007813-8.527344 3.824219-8.535156 8.535157v17.066406c0 4.710937 3.820312 8.53125 8.535156 8.53125 4.710937 0 8.53125-3.820313 8.53125-8.53125v-17.066406c-.003906-4.710938-3.820313-8.527344-8.53125-8.535157zm0 0"/><path d="m179.199219 68.265625c-14.132813-.015625-25.582031-11.46875-25.597657-25.597656v-17.066407c0-14.140624 11.460938-25.601562 25.597657-25.601562 14.140625 0 25.601562 11.460938 25.601562 25.601562v17.066407c-.015625 14.128906-11.46875 25.582031-25.601562 25.597656zm0-51.199219c-4.710938.007813-8.527344 3.824219-8.53125 8.535156v17.066407c0 4.710937 3.820312 8.53125 8.53125 8.53125 4.714843 0 8.535156-3.820313 8.535156-8.53125v-17.066407c-.007813-4.710937-3.824219-8.527343-8.535156-8.535156zm0 0"/><path d="m247.464844 85.332031c-14.128906-.015625-25.582032-11.464843-25.597656-25.597656v-17.066406c0-14.140625 11.460937-25.601563 25.597656-25.601563 14.140625 0 25.601562 11.460938 25.601562 25.601563v17.066406c-.015625 14.132813-11.46875 25.582031-25.601562 25.597656zm0-51.199219c-4.707032.007813-8.523438 3.824219-8.53125 8.535157v17.066406c0 4.710937 3.820312 8.53125 8.53125 8.53125 4.714844 0 8.535156-3.820313 8.535156-8.53125v-17.066406c-.007812-4.710938-3.824219-8.527344-8.535156-8.535157zm0 0"/><path d="m273.066406 512h-187.734375c-4.710937 0-8.53125-3.820312-8.53125-8.535156v-150.355469c0-4.710937 3.820313-8.535156 8.53125-8.535156 4.714844 0 8.535157 3.824219 8.535157 8.535156v141.824219h170.667968v-141.824219c0-4.710937 3.820313-8.535156 8.53125-8.535156 4.714844 0 8.535156 3.824219 8.535156 8.535156v150.355469c0 4.714844-3.820312 8.535156-8.535156 8.535156zm0 0"/><path d="m221.867188 443.734375h-85.332032c-14.132812-.015625-25.585937-11.46875-25.601562-25.601563v-59.734374c-4.714844 0-8.535156-3.820313-8.535156-8.53125 0-4.714844 3.820312-8.535157 8.535156-8.535157h8.53125c4.714844 0 8.535156 3.820313 8.535156 8.535157v68.265624c.007812 4.710938 3.824219 8.527344 8.535156 8.535157h85.332032c4.710937-.007813 8.527343-3.824219 8.53125-8.535157v-68.265624c0-4.714844 3.820312-8.535157 8.535156-8.535157h8.53125c4.714844 0 8.535156 3.820313 8.535156 8.535157 0 4.710937-3.820312 8.53125-8.535156 8.53125v59.734374c-.015625 14.132813-11.464844 25.585938-25.597656 25.601563zm0 0"/><path d="m302.882812 511.988281c-10.355468.007813-19.695312-6.226562-23.660156-15.792969-3.964844-9.566406-1.769531-20.582031 5.558594-27.898437l98.320312-98.320313c-12.671874-23.210937-8.476562-52 10.289063-70.628906l12.066406-12.066406c13.339844-13.308594 34.933594-13.308594 48.273438 0l6.03125 6.035156c3.332031 3.332032 3.332031 8.734375 0 12.066406l-21.632813 21.636719v17.066407l7.070313 7.070312h17.066406l21.632813-21.636719c3.386718-3.199219 8.683593-3.199219 12.066406 0l6.035156 6.035157c6.402344 6.398437 10 15.082031 10 24.132812 0 9.054688-3.597656 17.738281-10 24.136719l-12.066406 12.070312c-18.625 18.777344-47.421875 22.972657-70.628906 10.289063l-98.320313 98.320312c-4.796875 4.804688-11.3125 7.496094-18.101563 7.484375zm126.714844-217.628906c-4.527344-.007813-8.871094 1.785156-12.074218 4.988281l-12.066407 12.066406c-14.792969 14.667969-16.734375 37.910157-4.585937 54.832032 2.433594 3.394531 2.050781 8.050781-.90625 11l-103.121094 103.121094c-3.328125 3.332031-3.328125 8.738281.003906 12.070312 3.332032 3.332031 8.738282 3.328125 12.070313-.003906l103.121093-103.121094c2.949219-2.957031 7.609376-3.34375 11.007813-.902344 16.914063 12.152344 40.15625 10.210938 54.820313-4.582031l12.066406-12.070313c3.199218-3.199218 5-7.542968 5-12.070312 0-4.523438-1.800782-8.867188-5-12.066406l-18.101563 18.101562c-1.597656 1.597656-3.769531 2.5-6.03125 2.5h-24.136719c-2.265624-.003906-4.433593-.902344-6.035156-2.5l-12.066406-12.070312c-1.601562-1.601563-2.5-3.773438-2.5-6.035156v-24.132813c0-2.265625.898438-4.433594 2.5-6.035156l18.101562-18.101563c-3.199218-3.199218-7.542968-4.996094-12.066406-4.988281zm0 0"/><path d="m40.953125 386.046875c-1.898437.003906-3.742187-.632813-5.238281-1.796875-27.824219-21.664062-35.289063-62.851562-17.746094-97.933594 15.507812-31.011718 7.871094-70.921875 7.792969-71.320312-.921875-4.621094 2.078125-9.117188 6.699219-10.039063 4.625-.921875 9.117187 2.078125 10.039062 6.703125.371094 1.859375 8.898438 45.957032-9.265625 82.289063-13.917969 27.835937-8.464844 60.148437 12.96875 76.835937 2.875 2.238282 4.011719 6.058594 2.828125 9.503906-1.183594 3.449219-4.429688 5.761719-8.074219 5.761719zm0 0"/><path d="m317.445312 386.046875c-3.644531.003906-6.886718-2.3125-8.074218-5.757813-1.183594-3.449218-.046875-7.265624 2.828125-9.507812 21.429687-16.6875 26.878906-49 12.972656-76.832031-18.167969-36.332031-9.640625-80.429688-9.269531-82.292969.921875-4.621094 5.417968-7.621094 10.039062-6.699219s7.621094 5.414063 6.699219 10.035157c-.078125.402343-7.710937 40.3125 7.796875 71.324218 17.535156 35.082032 10.074219 76.269532-17.75 97.933594-1.496094 1.167969-3.34375 1.800781-5.242188 1.796875zm0 0"/></svg>