<svg height="512pt" viewBox="0 0 512 512.00001" width="512pt" xmlns="http://www.w3.org/2000/svg"><path d="m327.597656 396.96875-21.589844 106.496094h-280.40625c-9.414062-.027344-17.039062-7.652344-17.066406-17.066406v-25.597657c-.015625-50.304687 36.515625-93.164062 86.1875-101.121093h168.957032c25.207031 4.039062 48 17.335937 63.917968 37.289062zm0 0" fill="#3f51b5"/><path d="m204.800781 313.429688v56.320312c-13.226562 23.636719-25.597656 48.382812-25.597656 48.382812s-12.375-24.746093-25.601563-48.382812v-56.320312zm0 0" fill="#ffe0b2"/><path d="m76.800781 469.332031c18.339844-6.582031 28.917969-25.777343 24.6875-44.796875-10.226562-.484375-19.511719-6.105468-24.6875-14.933594-5.175781 8.828126-14.460937 14.449219-24.683593 14.933594-4.234376 19.019532 6.34375 38.214844 24.683593 44.796875zm0 0" fill="#ffdc00"/><path d="m356.582031 415.402344-30.339843-15.632813 129.828124-269.125c2.921876-6.054687 8.164063-10.671875 14.539063-12.804687 6.375-2.128906 13.339844-1.597656 19.316406 1.484375l.03125.015625c5.976563 3.078125 10.457031 8.441406 12.417969 14.871094 1.964844 6.429687 1.246094 13.378906-1.988281 19.269531zm0 0" fill="#707070"/><path d="m326.242188 399.765625 30.339843 15.632813-42.992187 83.441406c-2.160156 4.191406-7.304688 5.835937-11.496094 3.675781l-15.171875-7.816406c-4.1875-2.160157-5.835937-7.304688-3.675781-11.492188zm0 0" fill="#7f8e94"/><path d="m325.972656 187.820312c3.914063.394532 7.566406 2.144532 10.328125 4.949219 3.242188 3.160157 5.058594 7.503907 5.035157 12.03125-.027344 9.414063-7.652344 17.039063-17.066407 17.066407h-290.136719c-9.414062-.027344-17.039062-7.652344-17.066406-17.066407-.023437-4.527343 1.792969-8.871093 5.035156-12.03125 2.761719-2.804687 6.414063-4.554687 10.328126-4.949219zm0 0" fill="#dfc49c"/><path d="m307.203125 198.742188c-.015625 4.046874-.242187 8.09375-.683594 12.117187l-.257812 2.046875c-.425781 2.988281-.9375 5.972656-1.535157 8.875-11.691406 53.589844-63.402343 93.953125-125.523437 93.953125-3.925781 0-7.765625-.171875-11.605469-.511719-60.160156-4.867187-108.203125-47.789062-115.457031-102.316406l-.257813-2.046875c-.441406-4.023437-.667968-8.070313-.679687-12.117187v-2.476563c.082031-1.363281.082031-2.730469.167969-4.09375l102.230468-51.203125c4.09375-.167969 8.191407-.339844 12.457032-.425781h2.648437c3.410157-.167969 6.910157-.167969 10.496094-.167969 8.957031 0 17.492187.253906 25.597656.59375l102.230469 51.203125c.085938 2.132813.171875 4.351563.171875 6.570313zm0 0" fill="#dfc49c"/><path d="m283.5625 198.742188c-.011719 4.046874-.238281 8.09375-.679688 12.117187l-.257812 2.046875c-.425781 2.988281-.9375 5.972656-1.535156 8.875-10.921875 50.089844-56.832032 88.660156-113.492188 93.441406-60.160156-4.867187-108.203125-47.789062-115.457031-102.316406l-.257813-2.046875c-.441406-4.023437-.667968-8.070313-.679687-12.117187v-2.476563c.082031-1.363281.082031-2.730469.167969-4.09375l102.230468-51.203125c4.09375-.167969 8.191407-.339844 12.457032-.425781h2.648437c4.265625.085937 8.445313.257812 12.457031.425781l102.230469 51.203125c.085938 2.132813.167969 4.351563.167969 6.570313zm0 0" fill="#ffe0b2"/><path d="m324.269531 68.265625v76.800781h-290.136719v-76.800781c-.011718-15.84375 6.28125-31.042969 17.484376-42.25 11.203124-11.203125 26.40625-17.492187 42.25-17.480469h170.667968c15.84375-.011718 31.046875 6.277344 42.25 17.480469 11.203125 11.207031 17.496094 26.40625 17.484375 42.25zm0 0" fill="#283593"/><path d="m300.628906 68.265625v76.800781h-266.496094v-76.800781c-.011718-15.84375 6.28125-31.042969 17.484376-42.25 11.203124-11.203125 26.40625-17.492187 42.25-17.480469h147.03125c15.84375-.011718 31.042968 6.277344 42.25 17.480469 11.203124 11.207031 17.492187 26.40625 17.480468 42.25zm0 0" fill="#3f51b5"/><path d="m229.378906 45.484375c-37.632812 0-50.175781-36.949219-50.175781-36.949219s-12.546875 36.949219-50.179687 36.949219c0 0-12.542969 61.695313 50.179687 73.980469 62.71875-12.285156 50.175781-73.980469 50.175781-73.980469zm0 0" fill="#ffdc00"/><path d="m179.203125 418.132812c0 25.601563-34.136719 42.667969-34.136719 42.667969-7.765625-39-44.117187-92.246093-50.34375-101.121093-.261718-.441407-.542968-.871094-.855468-1.28125 11.75-10.566407 26.871093-16.617188 42.667968-17.066407 3.328125 4.949219 6.910156 10.839844 10.496094 17.066407 2.21875 3.671874 4.351562 7.511718 6.570312 11.351562 13.226563 23.636719 25.601563 48.382812 25.601563 48.382812zm0 0" fill="#f5f5f5"/><path d="m264.535156 358.398438s-42.667968 59.734374-51.199218 102.402343c0 0-34.132813-17.066406-34.132813-42.667969 0 0 12.371094-24.746093 25.597656-48.382812 5.886719-10.410156 11.863281-20.566406 17.066407-28.417969 15.796874.449219 30.917968 6.5 42.667968 17.066407zm0 0" fill="#f5f5f5"/><path d="m325.972656 187.820312c-5.425781 4.035157-12.296875 5.613282-18.941406 4.351563-2.996094-.402344-5.960938-1-8.875-1.792969-2.476562-.683594-5.121094-1.621094-8.023438-2.644531-68.265624-25.601563-110.929687-25.601563-110.929687-25.601563s-4.097656 0-11.691406.769532h-.257813c-33.914062 4.039062-67.179687 12.382812-98.984375 24.832031-5.445312 2.117187-11.113281 3.605469-16.898437 4.4375-4.992188.777344-10.101563.15625-14.761719-1.792969-1.507813-.648437-2.917969-1.511718-4.179687-2.558594-20.910157-17.152343 1.703124-42.753906 1.703124-42.753906s46.933594-23.464844 133.292969-25.429687c3.839844-.085938 7.765625-.171875 11.777344-.171875 93.863281 0 145.066406 25.601562 145.066406 25.601562s22.613281 25.601563 1.703125 42.753906zm0 0" fill="#283593"/><path d="m302.335938 187.820312c-1.277344 1.027344-2.679688 1.890626-4.179688 2.558594-2.476562-.683594-5.121094-1.621094-8.023438-2.644531-68.265624-25.601563-110.929687-25.601563-110.929687-25.601563s-4.097656 0-11.691406.769532h-.257813c-7.59375-.769532-11.691406-.769532-11.691406-.769532s-42.664062 0-110.933594 25.601563c-2.898437 1.023437-5.546875 1.960937-8.019531 2.644531-1.507813-.648437-2.917969-1.511718-4.179687-2.558594-20.910157-17.152343 1.703124-42.753906 1.703124-42.753906s46.933594-23.464844 133.292969-25.429687c86.355469 1.964843 133.203125 25.429687 133.203125 25.429687s22.613282 25.601563 1.707032 42.753906zm0 0" fill="#3f51b5"/><path d="m476.757812 153.515625-138.664062 252.414063-11.863281-6.144532 129.878906-269.140625c2.238281-4.71875 5.953125-8.582031 10.578125-11.007812 5.84375 3.144531 10.191406 8.484375 12.082031 14.84375s1.167969 13.210937-2.011719 19.035156zm0 0" fill="#9e9e9e"/><path d="m179.203125 324.265625c-70.183594 0-128.5625-48.339844-135.796875-112.449219-.484375-4.339844-.730469-8.707031-.738281-13.074218 0-2.339844.085937-4.675782.179687-6.921876.070313-3.082031 1.800782-5.890624 4.527344-7.335937 2.722656-1.449219 6.015625-1.3125 8.613281.351563 2.59375 1.667968 4.089844 4.605468 3.910157 7.683593-.085938 2.023438-.164063 4.117188-.164063 6.222657.011719 3.742187.222656 7.484374.632813 11.207031 6.253906 55.421875 57.347656 97.25 118.835937 97.25 56.871094 0 106.152344-36.6875 117.183594-87.238281.707031-3.285157 1.261719-6.679688 1.65625-10.085938.40625-3.699219.613281-7.414062.625-11.132812 0-2.105469-.078125-4.199219-.164063-6.222657-.105468-4.652343 3.535156-8.53125 8.183594-8.722656s8.59375 3.378906 8.867188 8.023437c.09375 2.246094.179687 4.582032.179687 6.921876-.007813 4.351562-.253906 8.699218-.734375 13.023437-.460938 4.011719-1.105469 7.945313-1.929688 11.800781-12.730468 58.363282-69.03125 100.699219-133.867187 100.699219zm0 0"/><path d="m51.882812 230.398438h-17.75c-14.128906-.015626-25.582031-11.464844-25.597656-25.597657-.035156-6.832031 2.710938-13.378906 7.609375-18.144531 4.121094-4.144531 9.554688-6.734375 15.375-7.324219 4.632813-.40625 8.738281 2.96875 9.234375 7.59375s-2.804687 8.792969-7.417968 9.375c-1.929688.191407-3.734376 1.042969-5.109376 2.40625-1.679687 1.582031-2.628906 3.785157-2.625 6.09375.003907 4.710938 3.824219 8.527344 8.53125 8.53125h17.75c4.714844 0 8.535157 3.820313 8.535157 8.535157 0 4.710937-3.820313 8.53125-8.535157 8.53125zm0 0"/><path d="m324.269531 230.398438h-17.75c-4.714843 0-8.535156-3.820313-8.535156-8.53125 0-4.714844 3.820313-8.535157 8.535156-8.535157h17.75c4.707031-.003906 8.527344-3.820312 8.53125-8.53125.019531-2.226562-.867187-4.367187-2.457031-5.925781-1.402344-1.449219-3.269531-2.359375-5.277344-2.574219-4.613281-.582031-7.914062-4.75-7.417968-9.375.496093-4.625 4.601562-8 9.234374-7.59375 5.898438.609375 11.394532 3.261719 15.542969 7.492188 4.808594 4.742187 7.492188 11.226562 7.441407 17.976562-.015626 14.132813-11.46875 25.582031-25.597657 25.597657zm0 0"/><path d="m153.601562 378.28125c-4.714843 0-8.535156-3.820312-8.535156-8.53125v-56.320312c0-4.714844 3.820313-8.535157 8.535156-8.535157 4.710938 0 8.53125 3.820313 8.53125 8.535157v56.320312c0 4.710938-3.820312 8.53125-8.53125 8.53125zm0 0"/><path d="m204.800781 378.28125c-4.710937 0-8.53125-3.820312-8.53125-8.53125v-56.320312c0-4.714844 3.820313-8.535157 8.53125-8.535157 4.714844 0 8.535157 3.820313 8.535157 8.535157v56.320312c0 4.710938-3.820313 8.53125-8.535157 8.53125zm0 0"/><path d="m327.601562 405.503906c-2.597656.003906-5.054687-1.179687-6.671874-3.207031-14.570313-18.316406-35.472657-30.515625-58.585938-34.1875-4.65625-.738281-7.832031-5.113281-7.09375-9.765625.738281-4.65625 5.113281-7.832031 9.765625-7.09375 27.320313 4.339844 52.023437 18.753906 69.25 40.394531 2.042969 2.5625 2.441406 6.070313 1.019531 9.023438-1.417968 2.953125-4.40625 4.835937-7.683594 4.835937zm0 0"/><path d="m306.007812 512h-280.40625c-14.132812-.015625-25.585937-11.46875-25.601562-25.601562v-25.597657c-.25-54.589843 39.445312-101.15625 93.386719-109.550781 3.007812-.476562 6.046875.6875 7.964843 3.054688 1.921876 2.371093 2.429688 5.585937 1.339844 8.429687-1.09375 2.847656-3.621094 4.894531-6.632812 5.375-45.632813 7.105469-79.210938 46.507813-78.992188 92.691406v25.597657c.007813 4.710937 3.824219 8.527343 8.535156 8.535156h280.40625c4.710938 0 8.53125 3.820312 8.53125 8.53125 0 4.714844-3.820312 8.535156-8.53125 8.535156zm0 0"/><path d="m324.269531 153.601562c-4.714843 0-8.535156-3.820312-8.535156-8.535156v-76.800781c-.03125-28.261719-22.9375-51.167969-51.199219-51.199219h-170.667968c-28.261719.03125-51.167969 22.9375-51.199219 51.199219v76.800781c0 4.714844-3.820313 8.535156-8.535157 8.535156-4.710937 0-8.53125-3.820312-8.53125-8.535156v-76.800781c.042969-37.683594 30.582032-68.2226562 68.265626-68.265625h170.667968c37.683594.0429688 68.222656 30.582031 68.265625 68.265625v76.800781c0 4.714844-3.820312 8.535156-8.53125 8.535156zm0 0"/><path d="m311.46875 200.960938c-1.796875-.003907-3.589844-.105469-5.371094-.304688-6.472656-.902344-12.820312-2.550781-18.914062-4.914062-65.769532-24.664063-107.582032-25.074219-107.996094-25.074219-.386719 0-42.199219.410156-107.921875 25.058593-6.078125 2.355469-12.40625 4.003907-18.859375 4.914063-9 1.5625-18.238281-.71875-25.476562-6.289063-6.769532-5.289062-11.046876-13.144531-11.808594-21.703124.003906-12.246094 4.492187-24.066407 12.613281-33.230469.726563-.820313 1.601563-1.496094 2.578125-1.984375 2.171875-1.078125 54.097656-26.5 148.890625-26.5 94.789063 0 146.714844 25.421875 148.882813 26.5.976562.488281 1.851562 1.164062 2.578124 1.984375 8.121094 9.164062 12.609376 20.984375 12.613282 33.230469-.773438 8.589843-5.078125 16.472656-11.886719 21.761718-5.636719 4.507813-12.710937 6.832032-19.921875 6.550782zm-132.265625-47.359376c1.800781 0 45.007813.292969 113.925781 26.140626 4.8125 1.882812 9.824219 3.210937 14.933594 3.957031 4.296875.894531 8.769531.023437 12.417969-2.417969 3.246093-2.347656 5.34375-5.964844 5.773437-9.949219-.253906-7.082031-2.839844-13.882812-7.355468-19.34375-9.15625-4.074219-58.140626-23.988281-139.695313-23.988281-81.925781 0-130.597656 19.902344-139.699219 23.980469-4.515625 5.460937-7.105468 12.265625-7.359375 19.351562.417969 3.953125 2.484375 7.542969 5.695313 9.886719 3.691406 2.496094 8.238281 3.386719 12.597656 2.46875 5.09375-.753906 10.085938-2.085938 14.878906-3.964844 68.875-25.828125 112.082032-26.121094 113.886719-26.121094zm0 0"/><path d="m179.203125 128c-.554687 0-1.105469-.054688-1.648437-.160156-18.796876-2.757813-35.640626-13.113282-46.578126-28.648438-10.03125-16.601562-13.695312-36.28125-10.3125-55.382812.808594-3.972656 4.304688-6.824219 8.363282-6.824219 30.878906 0 41.660156-29.945313 42.101562-31.222656 1.199219-3.433594 4.433594-5.7382815 8.074219-5.746094h.03125c3.640625.0078125 6.875 2.328125 8.050781 5.777344.433594 1.238281 11.214844 31.1875 42.09375 31.1875 4.058594-.003907 7.554688 2.851562 8.363282 6.824219 3.382812 19.101562-.28125 38.777343-10.3125 55.382812-10.9375 15.535156-27.78125 25.890625-46.578126 28.648438-.542968.109374-1.097656.164062-1.648437.164062zm-42.527344-74.425781c-.5 7.589843.273438 15.207031 2.289063 22.539062 5.402344 18.472657 21.164062 32.046875 40.238281 34.640625 13.683594-2.207031 25.929687-9.773437 34.023437-21.03125 6.613282-10.832031 9.597657-23.496094 8.519532-36.144531-17.355469-2.445313-32.839844-12.195313-42.542969-26.789063-9.703125 14.589844-25.175781 24.335938-42.527344 26.785157zm0 0"/><path d="m145.066406 469.332031c-4.070312 0-7.570312-2.875-8.371094-6.867187-7.597656-38.167969-44.75-91.886719-48.957031-97.882813l6.253907-6.015625-6.890626 5.035156c-2.519531-3.425781-2.207031-8.164062.734376-11.234374 13.347656-12.171876 30.640624-19.121094 48.699218-19.566407 2.839844-.003906 5.496094 1.410157 7.082032 3.769531 3.21875 4.792969 6.863281 10.703126 10.8125 17.578126 1.480468 2.441406 3.015624 5.128906 4.5625 7.84375l2.003906 3.496093c13.226562 23.636719 25.71875 48.585938 25.839844 48.835938.59375 1.183593.898437 2.488281.898437 3.808593 0 30.523438-37.261719 49.503907-38.847656 50.300782-1.1875.589844-2.492188.898437-3.820313.898437zm-39.820312-109.394531c18.898437 27.03125 34.109375 56.460938 45.226562 87.515625 8.734375-6.296875 19.050782-16.292969 20.105469-27.464844-3.183594-6.292969-13.578125-26.675781-24.425781-46.070312l-1.992188-3.46875c-1.472656-2.589844-2.933594-5.148438-4.433594-7.628907-2.75-4.773437-5.28125-8.976562-7.59375-12.613281-9.617187 1.027344-18.839843 4.363281-26.886718 9.730469zm0 0"/><path d="m213.335938 469.332031c-1.328126 0-2.632813-.308593-3.820313-.898437-1.585937-.796875-38.847656-19.777344-38.847656-50.300782 0-1.324218.308593-2.632812.898437-3.816406 1.054688-2.109375 26.039063-51.96875 43.203125-77.714844 1.582031-2.375 4.246094-3.800781 7.097657-3.800781 18.058593.445313 35.351562 7.394531 48.699218 19.566407 2.949219 2.949218 3.335938 7.597656.914063 10.992187-.417969.582031-41.707031 58.761719-49.777344 99.117187-.796875 3.988282-4.300781 6.859376-8.367187 6.855469zm-25.515626-49.339843c1.070313 11.667968 11.9375 21.542968 20.132813 27.414062 11.15625-31.023438 26.347656-60.441406 45.179687-87.5-8.019531-5.386719-17.234374-8.722656-26.84375-9.71875-14.53125 22.835938-33.914062 60.796875-38.46875 69.804688zm0 0"/><path d="m179.203125 512c-4.714844 0-8.535156-3.820312-8.535156-8.535156v-85.332032c0-4.710937 3.820312-8.53125 8.535156-8.53125 4.710937 0 8.53125 3.820313 8.53125 8.53125v85.332032c0 4.714844-3.820313 8.535156-8.53125 8.535156zm0 0"/><path d="m76.800781 477.867188c-1.214843 0-2.417969-.261719-3.523437-.761719-22.175782-8.308594-34.753906-31.773438-29.394532-54.839844 1.023438-3.703125 4.390626-6.265625 8.230469-6.265625 7.113281-.472656 13.546875-4.402344 17.210938-10.515625 1.632812-2.550781 4.449219-4.09375 7.476562-4.09375 3.027344 0 5.84375 1.542969 7.476563 4.09375 3.636718 6.140625 10.085937 10.082031 17.210937 10.515625 3.839844 0 7.210938 2.5625 8.230469 6.265625 5.359375 23.066406-7.214844 46.53125-29.390625 54.839844-1.109375.5-2.3125.761719-3.527344.761719zm-17.152343-45.613282c-.246094 11.769532 6.480468 22.574219 17.152343 27.542969 10.671875-4.972656 17.402344-15.773437 17.164063-27.542969-6.453125-1.496094-12.382813-4.707031-17.164063-9.296875-4.777343 4.582031-10.703125 7.792969-17.152343 9.296875zm0 0"/><path d="m356.574219 423.9375c-1.355469 0-2.691407-.328125-3.898438-.949219l-30.339843-15.632812c-4.113282-2.117188-5.792969-7.128907-3.78125-11.292969l129.828124-269.125c5.304688-10.933594 16.113282-18.132812 28.246094-18.8125 12.132813-.675781 23.679688 5.273438 30.164063 15.546875 6.488281 10.273437 6.898437 23.257813 1.070312 33.921875l-143.800781 261.914062c-1.5 2.734376-4.367188 4.429688-7.488281 4.429688zm-19.035157-27.949219 15.566407 8.023438 139.796875-254.636719c2.878906-5.226562 2.6875-11.605469-.492188-16.652344-3.179687-5.050781-8.855468-7.972656-14.8125-7.632812-5.957031.339844-11.261718 3.890625-13.847656 9.269531zm0 0"/><path d="m402.085938 447.382812c-1.359376 0-2.695313-.324218-3.902344-.949218l-91.019532-46.902344c-2.785156-1.355469-4.617187-4.109375-4.789062-7.203125-.171875-3.089844 1.34375-6.03125 3.960938-7.683594 2.617187-1.65625 5.925781-1.761719 8.644531-.28125l91.019531 46.902344c3.503906 1.800781 5.316406 5.769531 4.386719 9.601563-.929688 3.828124-4.363281 6.523437-8.300781 6.515624zm0 0"/><path d="m305.972656 512c-2.710937 0-5.378906-.648438-7.789062-1.890625l-15.171875-7.816406c-8.367188-4.328125-11.65625-14.613281-7.351563-22.992188l43-83.4375c2.160156-4.1875 7.300782-5.832031 11.492188-3.679687l30.339844 15.632812c2.011718 1.035156 3.53125 2.828125 4.222656 4.984375.6875 2.15625.496094 4.5-.542969 6.511719l-42.996094 83.4375c-2.9375 5.6875-8.804687 9.253906-15.203125 9.25zm.027344-17.066406h.007812l39.082032-75.855469-15.175782-7.816406-39.082031 75.851562zm0 0"/></svg>