<svg height="512pt" viewBox="0 0 512.01836 512" width="512pt" xmlns="http://www.w3.org/2000/svg"><path d="m330.667969 93.839844c-2.15625-19.527344-7.699219-38.527344-16.386719-56.148438-10.214844-19.199218-30.785156-30.574218-52.480469-29.015625-11.046875.820313-21.664062 4.625-30.71875 11.007813-4.574219 4.101562-9.546875 7.730468-14.847656 10.839844-6.09375 2.449218-12.632813 3.613281-19.199219 3.410156h-.769531c-6.820313.289062-13.625-.875-19.96875-3.410156-5.296875-3.109376-10.273437-6.738282-14.847656-10.839844-9.050781-6.382813-19.671875-10.1875-30.71875-11.007813-21.691407-1.558593-42.265625 9.816407-52.480469 29.015625-8.683594 17.621094-14.230469 36.621094-16.382812 56.148438-33.023438 15.359375-53.332032 36.351562-53.332032 59.5625 0 13.824218 14.25 32.683594 27.132813 44.203125-1.027344 2.1875-1.554688 4.578125-1.535157 6.996093.027344 9.414063 7.652344 17.039063 17.066407 17.066407h19.542969c11.773437 53.589843 63.488281 93.867187 125.523437 93.867187 62.039063 0 113.75-40.277344 125.527344-93.867187h19.539062c9.414063-.027344 17.039063-7.652344 17.066407-17.066407.019531-2.417968-.503907-4.808593-1.535157-6.996093 2.476563-1.792969 4.695313-3.671875 6.914063-5.632813l.085937-.085937c11.953125-9.320313 19.292969-23.351563 20.136719-38.484375 0-23.210938-20.308594-44.203125-53.332031-59.5625zm0 0" fill="#fdd7ad"/><path d="m330.667969 93.839844c-7.386719-3.445313-14.96875-6.46875-22.699219-9.046875h-.085938c-36.082031-11.46875-73.757812-17.113281-111.617187-16.722657-37.855469-.390624-75.535156 5.253907-111.613281 16.722657h-.085938c-7.734375 2.578125-15.3125 5.601562-22.699218 9.046875 2.152343-19.527344 7.699218-38.527344 16.382812-56.148438 10.214844-19.199218 30.789062-30.574218 52.480469-29.015625 11.046875.820313 21.667969 4.625 30.71875 11.007813 4.574219 4.101562 9.550781 7.730468 14.847656 10.839844 6.34375 2.535156 13.148437 3.699218 19.96875 3.410156h.769531c6.566406.203125 13.105469-.960938 19.199219-3.410156 5.300781-3.109376 10.273437-6.738282 14.847656-10.839844 9.054688-6.382813 19.671875-10.1875 30.71875-11.007813 21.695313-1.558593 42.265625 9.816407 52.480469 29.015625 8.6875 17.621094 14.230469 36.621094 16.386719 56.148438zm0 0" fill="#545c60"/><path d="m483.5 419.8125c-21.804688 21.890625-55.621094 26.34375-82.347656 10.835938-5.238282-2.921876-10.035156-6.570313-14.25-10.835938-26.652344-26.675781-26.632813-69.902344.042968-96.554688 26.671876-26.652343 69.902344-26.632812 96.554688.042969 5.210938 5.207031 9.535156 11.230469 12.796875 17.835938 13.0625 26.253906 7.910156 57.914062-12.796875 78.675781zm0 0" fill="#02a9f4"/><path d="m483.5 419.8125c-21.804688 21.890625-55.621094 26.34375-82.347656 10.835938 2.320312-50.101563 43.625-89.523438 93.78125-89.511719h1.363281c13.0625 26.253906 7.910156 57.914062-12.796875 78.675781zm0 0" fill="#0377bc"/><path d="m366.933594 474.253906v9.644532c.570312 10.039062-7.035156 18.671874-17.066406 19.371093h-307.199219c-10.03125-.699219-17.636719-9.332031-17.066407-19.371093v-9.644532c0-64.253906 45.824219-116.222656 102.398438-116.222656h136.535156c35.988282.800781 68.757813 20.917969 85.757813 52.652344l5.121093 9.984375c7.675782 16.816406 11.609376 35.101562 11.519532 53.585937zm0 0" fill="#283593"/><path d="m343.296875 474.253906v9.644532c.570313 10.039062-7.035156 18.671874-17.066406 19.371093h-283.5625c-10.03125-.699219-17.636719-9.332031-17.066407-19.371093v-9.644532c0-64.253906 45.824219-116.222656 102.398438-116.222656h112.894531c35.992188.800781 68.761719 20.917969 85.761719 52.652344l5.121094 9.984375c7.675781 16.816406 11.605468 35.101562 11.519531 53.585937zm0 0" fill="#3f51b5"/><path d="m221.867188 307.003906v67.777344c-19.03125 46.28125-25.601563 128.488281-25.601563 128.488281s-6.570313-82.207031-25.597656-128.488281v-67.777344zm0 0" fill="#ffe0b2"/><path d="m145.066406 416.230469c-8.53125-9.671875-42.667968-9.671875-42.667968-9.671875 8.535156-48.355469 59.734374-48.355469 59.734374-48.355469 3.394532 5.277344 6.253907 10.882813 8.535157 16.730469 19.027343 46.226562 25.597656 128.335937 25.597656 128.335937-25.597656-29.015625-85.332031-48.355469-85.332031-48.355469 5.167968-17.269531 17.640625-31.40625 34.132812-38.683593zm0 0" fill="#283593"/><path d="m281.601562 454.914062s-59.734374 19.339844-85.335937 48.355469c0 0 6.570313-82.109375 25.601563-128.335937 2.28125-5.847656 5.136718-11.453125 8.53125-16.730469 0 0 51.203124 0 59.734374 48.355469 0 0-34.132812 0-42.667968 9.671875 16.492187 7.277343 28.964844 21.414062 34.136718 38.683593zm0 0" fill="#283593"/><path d="m324.265625 198.542969c-.011719 4.050781-.238281 8.09375-.679687 12.117187-.429688 3.753906-1.027344 7.339844-1.792969 11.007813-11.777344 53.589843-63.488281 93.867187-125.527344 93.867187-62.035156 0-113.75-40.277344-125.523437-93.867187-.769532-3.667969-1.367188-7.253907-1.792969-11.007813-.441407-4.023437-.671875-8.066406-.683594-12.117187-.015625-3.675781.183594-7.351563.597656-11.007813.257813-3.070312.769531-6.144531 1.28125-9.214844.765625-3.753906 1.707031-7.425781 2.816407-11.09375v-.085937c6.847656-16.054687 15.988281-31.027344 27.136718-44.457031 19.367188-5.171875 39.15625-8.628906 59.132813-10.328125h.085937c16.550782 4.78125 30.101563 16.703125 36.949219 32.511719 6.847656-15.808594 20.398437-27.730469 36.949219-32.511719h.085937c19.984375 1.644531 39.777344 5.101562 59.136719 10.328125 11.144531 13.429687 20.285156 28.402344 27.136719 44.457031v.085937c1.109375 3.667969 2.046875 7.339844 2.816406 11.09375.511719 3.070313 1.023437 6.144532 1.277344 9.214844.417969 3.65625.617187 7.332032.597656 11.007813zm0 0" fill="#ffe0b2"/><g fill="#dfc49c"><path d="m324.265625 198.542969c-.011719 4.050781-.238281 8.09375-.679687 12.117187-.429688 3.753906-1.027344 7.339844-1.792969 11.007813-11.777344 53.589843-63.488281 93.867187-125.527344 93.867187-4.007813 0-7.933594-.171875-11.773437-.425781 56.660156-4.777344 102.65625-43.265625 113.664062-93.441406.765625-3.667969 1.363281-7.253907 1.789062-11.007813.445313-4.023437.671876-8.066406.683594-12.117187.019532-3.675781-.179687-7.351563-.597656-11.007813-.253906-3.070312-.765625-6.144531-1.277344-9.214844-.769531-3.753906-1.707031-7.425781-2.816406-11.09375v-.085937c-6.851562-16.054687-15.992188-31.027344-27.136719-44.457031-13.472656-3.710938-27.1875-6.476563-41.046875-8.277344 1.792969-.683594 3.585938-1.453125 5.460938-2.050781h.085937c19.984375 1.644531 39.777344 5.101562 59.136719 10.328125 11.144531 13.429687 20.285156 28.402344 27.136719 44.457031v.085937c1.109375 3.667969 2.046875 7.339844 2.816406 11.09375.511719 3.070313 1.023437 6.144532 1.277344 9.214844.417969 3.65625.617187 7.332032.597656 11.007813zm0 0"/><path d="m70.742188 221.667969h-19.542969c-9.414063-.027344-17.039063-7.652344-17.066407-17.066407-.019531-2.417968.507813-4.808593 1.535157-6.996093.824219-1.890625 2.015625-3.601563 3.5-5.035157 3.160156-3.242187 7.503906-5.058593 12.03125-5.035156h17.664062c-.414062 3.65625-.613281 7.332032-.597656 11.007813.011719 4.050781.242187 8.09375.683594 12.117187.425781 3.753906 1.023437 7.339844 1.792969 11.007813zm0 0"/><path d="m358.398438 204.601562c-.027344 9.414063-7.652344 17.039063-17.066407 17.066407h-19.539062c.765625-3.667969 1.363281-7.253907 1.792969-11.007813.441406-4.023437.667968-8.066406.679687-12.117187.019531-3.675781-.179687-7.351563-.597656-11.007813h17.664062c4.527344-.023437 8.871094 1.792969 12.035157 5.035156 1.484374 1.433594 2.671874 3.144532 3.496093 5.035157 1.03125 2.1875 1.554688 4.578125 1.535157 6.996093zm0 0"/></g><path d="m233.214844 112.355469c-16.550782 4.78125-30.101563 16.703125-36.949219 32.511719-6.847656-15.808594-20.398437-27.730469-36.949219-32.511719 11.863282-1.023438 24.234375-1.621094 36.949219-1.621094s25.089844.511719 36.949219 1.621094zm0 0" fill="#91562d"/><path d="m100.097656 122.683594c-11.148437 13.429687-20.289062 28.402344-27.136718 44.457031v.085937c-1.109376 3.667969-2.050782 7.339844-2.816407 11.09375-.511719 3.070313-1.023437 6.144532-1.28125 9.214844h-17.578125c-.085937-1.449218-.085937-11.433594-.085937-12.800781.027343-11.5625 1.457031-23.082031 4.265625-34.304687 14.027344-7.859376 29.035156-13.828126 44.632812-17.746094zm0 0" fill="#91562d"/><path d="m341.332031 174.734375c0 1.367187 0 11.351563-.085937 12.800781h-17.578125c-.253907-3.070312-.765625-6.144531-1.277344-9.214844-.769531-3.753906-1.707031-7.425781-2.816406-11.09375v-.085937c-6.851563-16.054687-15.992188-31.027344-27.136719-44.457031 15.59375 3.917968 30.601562 9.886718 44.628906 17.746094 2.808594 11.222656 4.242188 22.742187 4.265625 34.304687zm0 0" fill="#91562d"/><path d="m384 153.402344c-.84375 15.132812-8.183594 29.164062-20.136719 38.484375l-.085937.085937c-2.21875 1.960938-4.4375 3.839844-6.914063 5.632813-.824219-1.890625-2.011719-3.601563-3.496093-5.035157-3.164063-3.242187-7.507813-5.058593-12.035157-5.035156h-.085937c.085937-1.449218.085937-11.433594.085937-12.800781-.023437-11.5625-1.457031-23.082031-4.265625-34.304687-14.027344-7.859376-29.035156-13.828126-44.628906-17.746094-19.359375-5.226563-39.152344-8.683594-59.136719-10.328125h-.085937c-11.859375-1.109375-24.234375-1.621094-36.949219-1.621094s-25.085937.597656-36.949219 1.621094h-.085937c-19.976563 1.699219-39.765625 5.15625-59.132813 10.328125-15.597656 3.917968-30.605468 9.886718-44.632812 17.746094-2.808594 11.222656-4.238282 22.742187-4.265625 34.304687 0 1.367187 0 11.351563.085937 12.800781h-.085937c-4.527344-.023437-8.871094 1.792969-12.03125 5.035156-1.484375 1.433594-2.675781 3.144532-3.5 5.035157-12.882813-11.519531-27.132813-30.378907-27.132813-44.203125 0-23.210938 20.308594-44.203125 53.332032-59.5625 7.386718-3.445313 14.964843-6.46875 22.699218-9.046875h.085938c36.078125-11.46875 73.757812-17.113281 111.613281-16.722657 37.859375-.390624 75.535156 5.253907 111.617187 16.722657h.085938c7.730469 2.578125 15.3125 5.601562 22.699219 9.046875 33.023437 15.359375 53.332031 36.351562 53.332031 59.5625zm0 0" fill="#607d8b"/><path d="m350.722656 443.964844 12.070313 12.066406c3.332031 3.335938 3.332031 8.738281 0 12.070312l-30.171875 30.167969c-6.664063 6.667969-17.46875 6.667969-24.136719 0-6.664063-6.664062-6.664063-17.46875 0-24.136719l30.171875-30.167968c3.332031-3.332032 8.734375-3.332032 12.066406 0zm0 0" fill="#f44335"/><path d="m384 153.402344c-.84375 15.132812-8.183594 29.164062-20.136719 38.484375l-.085937.085937c-2.21875 1.960938-4.4375 3.839844-6.914063 5.632813-.824219-1.890625-2.011719-3.601563-3.496093-5.035157-2.421876-2.484374-5.550782-4.152343-8.960938-4.777343 9.6875-8.878907 15.433594-21.257813 15.957031-34.390625 0-23.210938-20.308593-44.203125-53.332031-59.5625-7.390625-3.445313-14.96875-6.46875-22.699219-9.046875h-.085937c-32.269532-10.34375-65.875-15.921875-99.753906-16.554688 3.839843-.085937 7.847656-.167969 11.773437-.167969 37.859375-.390624 75.535156 5.253907 111.617187 16.722657h.085938c7.730469 2.578125 15.3125 5.601562 22.699219 9.046875 33.023437 15.359375 53.332031 36.351562 53.332031 59.5625zm0 0" fill="#37474f"/><path d="m305.492188 84.027344c-35.359376-10.949219-72.210938-16.332032-109.226563-15.957032-3.925781 0-7.933594.082032-11.773437.167969h-.511719c-3.757813-.085937-7.511719-.167969-11.351563-.167969-37.015625-.375-73.863281 5.007813-109.226562 15.957032 2.519531-16.121094 7.527344-31.753906 14.847656-46.335938 7.5625-14.3125 21.105469-24.511718 36.949219-27.820312h.085937c8.089844 1.734375 15.75 5.070312 22.527344 9.8125 4.574219 4.101562 9.550781 7.730468 14.847656 10.839844 6.339844 2.535156 13.148438 3.699218 19.96875 3.410156h.769532c3.714843-.015625 7.425781-.328125 11.09375-.9375 3.882812.699218 7.828124 1.011718 11.773437.9375h.769531c6.566406.203125 13.105469-.960938 19.199219-3.410156 5.300781-3.109376 10.273437-6.738282 14.847656-10.839844 6.777344-4.742188 14.4375-8.078125 22.527344-9.8125h.085937c15.84375 3.308594 29.390626 13.507812 36.949219 27.820312 7.320313 14.582032 12.328125 30.214844 14.847657 46.335938zm0 0" fill="#7f8e94"/><path d="m196.265625 324.070312c-70.171875 0-128.558594-48.355468-135.800781-112.476562-.476563-4.339844-.71875-8.699219-.730469-13.0625.015625-7.28125.691406-14.542969 2.015625-21.703125.875-4.335937 1.882812-8.375 3.050781-12.179687.828125-2.992188 3.210938-5.296876 6.230469-6.023438 3.015625-.722656 6.1875.246094 8.285156 2.53125 2.09375 2.289062 2.785156 5.53125 1.800782 8.476562-1.023438 3.371094-1.902344 6.894532-2.609376 10.414063-1.828124 9.785156-2.191406 19.785156-1.074218 29.675781 6.257812 55.4375 57.347656 97.28125 118.832031 97.28125s112.578125-41.84375 118.835937-97.328125c.410157-3.699219.621094-7.421875.632813-11.144531-.019531-6.253906-.601563-12.496094-1.734375-18.644531-.683594-3.359375-1.558594-6.882813-2.582031-10.253907-.988281-2.945312-.296875-6.1875 1.800781-8.476562 2.09375-2.285156 5.269531-3.253906 8.285156-2.53125 3.015625.726562 5.402344 3.03125 6.230469 6.023438 1.164063 3.804687 2.171875 7.84375 3.023437 12.015624 2.175782 11.5 2.617188 23.257813 1.308594 34.882813-7.242187 64.167969-65.625 112.523437-135.800781 112.523437zm0 0"/><path d="m70.78125 230.203125h-19.582031c-14.132813-.015625-25.582031-11.46875-25.597657-25.601563.070313-14.109374 11.488282-25.53125 25.597657-25.597656h17.664062c4.714844 0 8.535157 3.820313 8.535157 8.53125 0 4.714844-3.820313 8.535156-8.535157 8.535156h-17.578125c-2.253906-.039062-4.425781.851563-6.007812 2.457032-1.671875 1.578125-2.617188 3.777344-2.609375 6.074218.003906 4.710938 3.820312 8.53125 8.53125 8.535157h19.582031c4.714844 0 8.535156 3.820312 8.535156 8.53125 0 4.714843-3.820312 8.535156-8.535156 8.535156zm0 0"/><path d="m341.332031 230.203125h-19.582031c-4.710938 0-8.53125-3.820313-8.53125-8.535156 0-4.710938 3.820312-8.53125 8.53125-8.53125h19.582031c4.710938-.003907 8.53125-3.824219 8.535157-8.535157.019531-2.222656-.863282-4.359374-2.449219-5.917968-1.582031-1.675782-3.785157-2.621094-6.085938-2.613282h-17.664062c-4.710938 0-8.53125-3.820312-8.53125-8.535156 0-4.710937 3.820312-8.53125 8.53125-8.53125h17.578125c14.144531.015625 25.621094 11.453125 25.6875 25.597656-.015625 14.132813-11.46875 25.585938-25.601563 25.601563zm0 0"/><path d="m51.273438 196.039062c-4.511719.011719-8.246094-3.507812-8.507813-8.011718-.089844-1.507813-.097656-11.871094-.097656-13.292969.023437-12.257813 1.539062-24.46875 4.515625-36.359375 1.136718-4.578125 5.765625-7.363281 10.339844-6.226562 4.578124 1.136718 7.363281 5.765624 6.226562 10.339843-2.644531 10.546875-3.992188 21.375-4.015625 32.246094 0 1.304687-.007813 10.738281.066406 12.324219.234375 4.699218-3.371093 8.707031-8.066406 8.96875-.152344.007812-.308594.011718-.460937.011718zm0 0"/><path d="m197.035156 42.46875h-.769531c-4.710937 0-8.53125-3.820312-8.53125-8.535156 0-4.710938 3.820313-8.53125 8.53125-8.53125 4.789063-.03125 8.738281 3.746094 8.917969 8.53125.085937 2.222656-.730469 4.386718-2.265625 5.996094-1.539063 1.605468-3.660157 2.523437-5.882813 2.539062zm0 0"/><path d="m341.257812 196.070312c-.171874 0-.332031 0-.5-.015624-4.699218-.273438-8.285156-4.300782-8.019531-9 .070313-1.601563.0625-11.015626.0625-12.320313-.027343-10.871094-1.375-21.699219-4.015625-32.246094-1.136718-4.574219 1.648438-9.203125 6.222656-10.339843 4.574219-1.136719 9.207032 1.648437 10.34375 6.226562 2.972657 11.890625 4.492188 24.101562 4.515626 36.359375 0 1.421875-.007813 11.785156-.101563 13.292969-.253906 4.511718-3.988281 8.039062-8.507813 8.042968zm0 0"/><path d="m307.96875 93.328125h-.085938c-4.703124-.023437-8.503906-3.851563-8.492187-8.554687.011719-4.703126 3.832031-8.511719 8.535156-8.511719s8.519531 3.808593 8.53125 8.511719c.011719 4.703124-3.785156 8.53125-8.488281 8.554687zm0 0"/><path d="m84.652344 93.328125h-.085938c-4.707031-.023437-8.503906-3.851563-8.492187-8.554687.011719-4.703126 3.828125-8.511719 8.535156-8.511719 4.703125 0 8.519531 3.808593 8.53125 8.511719.011719 4.703124-3.785156 8.53125-8.488281 8.554687zm0 0"/><path d="m72.960938 175.714844c-2.257813.011718-4.429688-.878906-6.03125-2.472656-1.601563-1.589844-2.5-3.757813-2.503907-6.015626v-.085937c0-1.175781.246094-2.335937.71875-3.414063 7.179688-16.84375 16.78125-32.546874 28.5-46.621093 1.992188-2.304688 5.066407-3.375 8.0625-2.800781 2.992188.570312 5.457031 2.699218 6.457031 5.578124 1 2.878907.390626 6.074219-1.601562 8.382813-10.542969 12.699219-19.1875 26.859375-25.667969 42.042969-1.289062 3.253906-4.433593 5.398437-7.933593 5.40625zm0 0"/><path d="m319.574219 175.714844c-3.664063.011718-6.925781-2.320313-8.101563-5.792969-6.453125-15.039063-15.042968-29.070313-25.5-41.660156-1.992187-2.308594-2.601562-5.503907-1.601562-8.382813 1-2.882812 3.464844-5.007812 6.457031-5.582031 2.996094-.570313 6.070313.496094 8.0625 2.804687 11.714844 14.070313 21.316406 29.777344 28.5 46.621094.472656 1.078125.71875 2.238282.71875 3.414063.003906 4.722656-3.8125 8.558593-8.535156 8.578125zm0 0"/><path d="m170.667969 375.953125c-4.714844 0-8.535157-3.820313-8.535157-8.535156v-54.1875c0-4.710938 3.820313-8.53125 8.535157-8.53125 4.710937 0 8.53125 3.820312 8.53125 8.53125v54.1875c0 4.714843-3.820313 8.535156-8.53125 8.535156zm0 0"/><path d="m221.867188 375.953125c-4.714844 0-8.535157-3.820313-8.535157-8.535156v-54.1875c0-4.710938 3.820313-8.53125 8.535157-8.53125 4.710937 0 8.53125 3.820312 8.53125 8.53125v54.1875c0 4.714843-3.820313 8.535156-8.53125 8.535156zm0 0"/><path d="m320.511719 511.800781h-277.84375c-14.132813-.015625-25.585938-11.464843-25.601563-25.597656v-25.601563c.070313-61.238281 49.695313-110.863281 110.933594-110.933593h3.328125c4.710937-.023438 8.550781 3.777343 8.574219 8.492187.023437 4.710938-3.777344 8.550782-8.488282 8.574219h-3.414062c-51.816406.058594-93.808594 42.050781-93.867188 93.867187v25.601563c.003907 4.710937 3.824219 8.527344 8.535157 8.53125h277.84375c4.714843 0 8.535156 3.820313 8.535156 8.535156 0 4.710938-3.820313 8.53125-8.535156 8.53125zm0 0"/><path d="m365.140625 450.148438c-4.289063.015624-7.921875-3.167969-8.464844-7.425782-8.535156-44.136718-47.1875-76.015625-92.140625-75.988281h-3.328125c-4.714843.023437-8.554687-3.777344-8.578125-8.488281-.023437-4.714844 3.777344-8.554688 8.492188-8.578125h3.414062c53.332032-.027344 99.125 37.921875 108.996094 90.332031.09375.519531.140625 1.046875.144531 1.574219.003907 4.71875-3.8125 8.554687-8.535156 8.574219zm0 0"/><path d="m170.667969 366.734375h-3.839844c-4.714844.023437-8.554687-3.777344-8.578125-8.488281-.023438-4.714844 3.777344-8.554688 8.492188-8.578125h3.925781c4.710937 0 8.53125 3.820312 8.53125 8.535156 0 4.710937-3.820313 8.53125-8.53125 8.53125zm0 0"/><path d="m225.792969 366.734375h-3.925781c-4.714844 0-8.535157-3.820313-8.535157-8.53125 0-4.714844 3.820313-8.535156 8.535157-8.535156h3.925781c4.710937 0 8.53125 3.820312 8.53125 8.535156 0 4.710937-3.820313 8.53125-8.53125 8.53125zm0 0"/><path d="m337.058594 148.964844c-1.511719 0-2.996094-.402344-4.300782-1.171875-13.367187-7.476563-27.664062-13.148438-42.523437-16.867188-30.667969-8.042969-62.265625-11.960937-93.96875-11.65625-31.675781-.25-63.25 3.664063-93.90625 11.640625-14.878906 3.71875-29.199219 9.398438-42.582031 16.882813-2.636719 1.628906-5.945313 1.699219-8.648438.1875s-4.375-4.367188-4.367187-7.464844c.003906-3.09375 1.6875-5.945313 4.394531-7.445313 14.6875-8.261718 30.40625-14.527343 46.742188-18.636718 32.113281-8.367188 65.183593-12.480469 98.367187-12.230469 33.214844-.304687 66.324219 3.816406 98.449219 12.257813 16.3125 4.101562 32.003906 10.359374 46.660156 18.609374 3.324219 1.945313 4.929688 5.878907 3.921875 9.597657-1.011719 3.71875-4.386719 6.296875-8.238281 6.296875zm0 0"/><path d="m356.875 206.136719c-3.699219.003906-6.980469-2.378907-8.121094-5.898438s.117188-7.375 3.113282-9.546875c2.242187-1.621094 4.242187-3.332031 6.25-5.105468 10.007812-7.847657 16.292968-19.511719 17.347656-32.183594 0-18.632813-17.640625-37.519532-48.398438-51.824219-6.9375-3.246094-14.054687-6.089844-21.316406-8.527344-.195312-.046875-.390625-.101562-.582031-.167969-35.203125-11.1875-71.964844-16.679687-108.902344-16.28125-36.933594-.398437-73.695313 5.09375-108.898437 16.28125-.199219.070313-.410157.128907-.609376.183594-7.230468 2.417969-14.316406 5.25-21.222656 8.476563-30.828125 14.339843-48.46875 33.226562-48.46875 51.859375 0 9.191406 10.441406 25.460937 24.292969 37.839844 3.511719 3.144531 3.8125 8.542968.667969 12.054687-3.140625 3.515625-8.539063 3.816406-12.050782.671875-13.828124-12.367188-29.976562-33.03125-29.976562-50.566406 0-25.925782 20.691406-49.824219 58.265625-67.300782 7.664063-3.578124 15.527344-6.714843 23.554687-9.386718.222657-.074219.457032-.140625.679688-.199219 36.785156-11.640625 75.1875-17.371094 113.765625-16.980469 38.59375-.390625 77.003906 5.34375 113.800781 16.992188.226563.054687.445313.121094.648438.1875 8.050781 2.679687 15.933594 5.824218 23.617187 9.421875 37.507813 17.441406 58.203125 41.339843 58.203125 67.265625-.816406 17.570312-9.203125 33.925781-22.992187 44.847656-2.449219 2.222656-5.011719 4.3125-7.679688 6.269531-1.449219 1.054688-3.195312 1.621094-4.988281 1.617188zm0 0"/><path d="m61.875 102.371094c-.371094.003906-.742188-.019532-1.109375-.070313-2.246094-.289062-4.28125-1.460937-5.664063-3.257812-1.378906-1.792969-1.988281-4.0625-1.695312-6.308594 2.273438-20.523437 8.117188-40.492187 17.277344-59 11.820312-22.160156 35.558594-35.308594 60.617187-33.570313 12.613281.898438 24.742188 5.234376 35.066407 12.542969 1.992187 1.421875 3.832031 2.964844 5.667968 4.511719 2.320313 2.183594 4.929688 4.039062 7.757813 5.515625 5.25 2.007813 10.855469 2.917969 16.472656 2.667969 4.714844 0 8.535156 3.820312 8.535156 8.53125 0 4.714844-3.820312 8.535156-8.535156 8.535156-8.035156.292969-16.039063-1.128906-23.484375-4.171875-4.285156-2.101563-8.246094-4.808594-11.757812-8.039063-1.472657-1.242187-2.941407-2.496093-4.523438-3.621093-7.773438-5.464844-16.882812-8.726563-26.359375-9.445313-18.320313-1.335937-35.707031 8.261719-44.339844 24.476563-8.21875 16.722656-13.457031 34.753906-15.476562 53.277343-.554688 4.242188-4.167969 7.421876-8.449219 7.425782zm0 0"/><path d="m330.65625 102.371094c-4.28125-.003906-7.894531-3.179688-8.445312-7.425782-2.023438-18.535156-7.265626-36.574218-15.492188-53.300781-8.644531-16.207031-26.03125-25.792969-44.351562-24.453125-9.480469.722656-18.589844 3.996094-26.367188 9.46875-1.550781 1.101563-3.015625 2.355469-4.492188 3.597656-3.519531 3.238282-7.488281 5.949219-11.78125 8.054688-7.160156 2.929688-14.851562 4.34375-22.585937 4.15625h-.875c-4.710937 0-8.53125-3.820312-8.53125-8.535156 0-4.710938 3.820313-8.53125 8.53125-8.53125h.769531c5.34375.164062 10.664063-.738282 15.65625-2.644532 2.847656-1.480468 5.472656-3.347656 7.808594-5.542968 1.835938-1.546875 3.675781-3.085938 5.632812-4.484375 10.320313-7.316407 22.453126-11.664063 35.074219-12.566407 25.054688-1.75 48.796875 11.386719 60.621094 33.546876 9.167969 18.511718 15.023437 38.488281 17.292969 59.023437.296875 2.246094-.316406 4.515625-1.695313 6.308594-1.378906 1.796875-3.417969 2.96875-5.664062 3.257812-.363281.050781-.734375.074219-1.105469.070313zm0 0"/><path d="m196.265625 511.800781c-2.53125 0-4.933594-1.125-6.558594-3.070312-23.789062-28.554688-80.964843-48.390625-81.539062-48.589844-4.273438-1.464844-6.667969-6.003906-5.460938-10.355469 4.054688-14.898437 12.746094-28.121094 24.816407-37.75-8.265626-1.730468-16.679688-2.613281-25.125-2.632812-2.507813-.003906-4.886719-1.105469-6.507813-3.019532-1.621094-1.914062-2.316406-4.445312-1.90625-6.917968 5.179687-33.613282 34.140625-58.402344 68.148437-58.328125 2.941407 0 5.675782 1.515625 7.234376 4.007812 26.417968 42.257813 35.050781 152.792969 35.40625 157.476563.183593 2.371094-.632813 4.707031-2.246094 6.449218-1.617188 1.742188-3.882813 2.734376-6.261719 2.730469zm-74.53125-64.824219c22.710937 8.617188 44.171875 20.226563 63.816406 34.519532-3.691406-32.773438-12.308593-93.097656-28.140625-122.929688-20.183594 1.695313-37.496094 15.066406-44.242187 34.164063 12.664062.910156 30.890625 3.835937 38.457031 12.917969 1.75 2.097656 2.386719 4.910156 1.714844 7.558593-.667969 2.648438-2.570313 4.816407-5.105469 5.828125-11.957031 5.753906-21.386719 15.695313-26.5 27.941406zm0 0"/><path d="m196.265625 511.800781c-2.375.003907-4.644531-.988281-6.257813-2.730469-1.617187-1.742187-2.429687-4.078124-2.25-6.449218.359376-4.679688 8.992188-115.21875 35.410157-157.472656 1.558593-2.496094 4.289062-4.011719 7.230469-4.011719 34.011718-.074219 62.972656 24.714843 68.152343 58.328125.410157 2.472656-.289062 5.003906-1.910156 6.917968-1.621094 1.914063-4 3.015626-6.507813 3.019532-8.441406.019531-16.859374.902344-25.125 2.632812 12.070313 9.628906 20.761719 22.851563 24.816407 37.75 1.207031 4.351563-1.1875 8.890625-5.460938 10.355469-.574219.199219-57.789062 20.089844-81.539062 48.589844-1.625 1.945312-4.023438 3.070312-6.558594 3.070312zm38.859375-153.234375c-15.839844 29.851563-24.457031 90.164063-28.140625 122.929688 19.640625-14.292969 41.101563-25.898438 63.816406-34.515625-5.121093-12.238281-14.550781-22.179688-26.5-27.945313-2.539062-1.011718-4.4375-3.179687-5.109375-5.828125-.671875-2.648437-.03125-5.460937 1.714844-7.558593 7.570312-9.082032 25.792969-12.007813 38.460938-12.917969-6.746094-19.097657-24.058594-32.46875-44.242188-34.164063zm0 0"/><path d="m435.199219 448.320312c-36.617188-.027343-68.121094-25.917968-75.242188-61.835937-7.121093-35.921875 12.125-71.871094 45.964844-85.863281 33.839844-13.996094 72.851563-2.136719 93.179687 28.320312 20.328126 30.460938 16.3125 71.035156-9.59375 96.917969-14.394531 14.410156-33.9375 22.492187-54.308593 22.460937zm0-136.46875c-27.03125 0-50.695313 18.15625-57.6875 44.269532-6.996094 26.113281 4.421875 53.667968 27.835937 67.179687 23.414063 13.511719 52.980469 9.613281 72.09375-9.507812 17.089844-17.074219 22.207032-42.769531 12.957032-65.089844-9.246094-22.324219-31.039063-36.867187-55.199219-36.851563zm0 0"/><path d="m320.550781 511.789062c-6.789062.011719-13.304687-2.683593-18.101562-7.488281-9.972657-10.003906-9.972657-26.195312 0-36.199219l36.207031-36.203124c3.335938-3.332032 8.738281-3.332032 12.070312 0l24.132813 24.132812c3.332031 3.332031 3.332031 8.734375 0 12.066406l-36.203125 36.203125c-4.796875 4.804688-11.3125 7.5-18.105469 7.488281zm-6.035156-19.554687c3.339844 3.324219 8.738281 3.324219 12.078125 0l30.164062-30.167969-12.066406-12.070312-30.175781 30.171875c-3.324219 3.335937-3.324219 8.730469 0 12.066406zm0 0"/><path d="m356.757812 458.53125c-3.449218 0-6.5625-2.078125-7.882812-5.269531-1.320312-3.1875-.589844-6.855469 1.851562-9.296875l30.164063-30.171875c3.335937-3.308594 8.71875-3.296875 12.042969.027343 3.320312 3.320313 3.332031 8.703126.027344 12.039063l-30.167969 30.171875c-1.597657 1.605469-3.769531 2.503906-6.035157 2.5zm0 0"/><path d="m401.066406 366.734375c-3.449218 0-6.5625-2.078125-7.882812-5.265625-1.320313-3.191406-.589844-6.859375 1.851562-9.300781l17.066406-17.066407c3.347657-3.234374 8.667969-3.1875 11.960938.105469 3.292969 3.289063 3.335938 8.613281.105469 11.960938l-17.066407 17.066406c-1.601562 1.605469-3.769531 2.503906-6.035156 2.5zm0 0"/><path d="m426.667969 383.800781c-3.453125 0-6.5625-2.078125-7.882813-5.265625-1.320312-3.1875-.589844-6.859375 1.847656-9.300781l34.132813-34.132813c3.347656-3.234374 8.671875-3.1875 11.964844.105469 3.289062 3.289063 3.335937 8.613281.101562 11.960938l-34.132812 34.132812c-1.597657 1.605469-3.769531 2.503907-6.03125 2.5zm0 0"/><path d="m196.265625 153.40625c-3.671875-.003906-6.933594-2.355469-8.089844-5.839844-6-13.277344-17.582031-23.207031-31.617187-27.101562-4.476563-1.480469-6.90625-6.304688-5.429688-10.78125 1.476563-4.476563 6.304688-6.90625 10.777344-5.429688 19.164062 5.5625 34.773438 19.507813 42.453125 37.921875.863281 2.601563.425781 5.460938-1.175781 7.683594-1.605469 2.222656-4.175782 3.542969-6.917969 3.546875zm0 0"/><path d="m196.265625 153.40625c-2.742187-.003906-5.3125-1.324219-6.914063-3.546875-1.605468-2.226563-2.042968-5.085937-1.175781-7.6875 7.675781-18.414063 23.289063-32.359375 42.449219-37.921875 4.476562-1.476562 9.300781.953125 10.777344 5.429688 1.480468 4.476562-.953125 9.300781-5.425782 10.777343-14.050781 3.875-25.644531 13.8125-31.617187 27.105469-1.15625 3.488281-4.417969 5.84375-8.09375 5.84375zm0 0"/></svg>