<svg height="512pt" viewBox="0 0 512.01836 512" width="512pt" xmlns="http://www.w3.org/2000/svg"><path d="m334.507812 385.847656h-276.480468c-25.429688-19.796875-30.550782-57.003906-15.359375-87.382812 17.066406-34.132813 8.53125-76.796875 8.53125-76.796875h290.132812s-8.53125 42.664062 8.535157 76.796875c15.1875 30.378906 10.070312 67.585937-15.359376 87.382812zm0 0" fill="#783e22"/><path d="m310.871094 385.847656h-252.84375c-25.429688-19.796875-30.550782-57.003906-15.359375-87.382812 17.066406-34.132813 8.53125-76.796875 8.53125-76.796875h266.496093s-8.53125 42.664062 8.535157 76.796875c15.1875 30.378906 10.066406 67.585937-15.359375 87.382812zm0 0" fill="#a0522d"/><path d="m483.5 419.808594c-21.804688 21.894531-55.621094 26.34375-82.347656 10.839844-5.238282-2.921876-10.035156-6.570313-14.25-10.839844-26.652344-26.671875-26.632813-69.902344.042968-96.554688 26.671876-26.648437 69.902344-26.628906 96.554688.042969 5.210938 5.207031 9.535156 11.230469 12.796875 17.835937 13.0625 26.253907 7.910156 57.914063-12.796875 78.675782zm0 0" fill="#02a9f4"/><path d="m483.5 419.808594c-21.804688 21.894531-55.621094 26.34375-82.347656 10.839844 2.320312-50.105469 43.625-89.527344 93.78125-89.515626h1.363281c13.0625 26.253907 7.910156 57.914063-12.796875 78.675782zm0 0" fill="#0377bc"/><path d="m366.933594 474.253906v9.640625c.570312 10.039063-7.035156 18.671875-17.066406 19.371094h-307.199219c-10.03125-.699219-17.636719-9.332031-17.066407-19.371094v-9.640625c0-64.257812 45.824219-116.226562 102.398438-116.226562h136.535156c35.988282.800781 68.757813 20.917968 85.757813 52.652344l5.121093 9.984374c7.675782 16.816407 11.609376 35.101563 11.519532 53.589844zm0 0" fill="#283593"/><path d="m343.296875 474.253906v9.640625c.570313 10.039063-7.035156 18.671875-17.066406 19.371094h-283.5625c-10.03125-.699219-17.636719-9.332031-17.066407-19.371094v-9.640625c0-64.257812 45.824219-116.226562 102.398438-116.226562h112.894531c35.992188.800781 68.761719 20.917968 85.761719 52.652344l5.121094 9.984374c7.675781 16.816407 11.605468 35.101563 11.519531 53.589844zm0 0" fill="#3f51b5"/><path d="m221.867188 307v67.777344c-19.03125 46.285156-25.601563 128.488281-25.601563 128.488281s-6.570313-82.203125-25.597656-128.488281v-67.777344zm0 0" fill="#ffe0b2"/><path d="m145.066406 416.226562c-8.53125-9.671874-42.667968-9.671874-42.667968-9.671874 8.535156-48.355469 59.734374-48.355469 59.734374-48.355469 3.394532 5.277343 6.253907 10.882812 8.535157 16.730469 19.027343 46.230468 25.597656 128.335937 25.597656 128.335937-25.597656-29.011719-85.332031-48.355469-85.332031-48.355469 5.167968-17.269531 17.640625-31.40625 34.132812-38.683594zm0 0" fill="#283593"/><path d="m281.601562 454.910156s-59.734374 19.34375-85.335937 48.355469c0 0 6.570313-82.105469 25.601563-128.335937 2.28125-5.847657 5.136718-11.453126 8.53125-16.730469 0 0 51.203124 0 59.734374 48.355469 0 0-34.132812 0-42.667968 9.671874 16.492187 7.277344 28.964844 21.414063 34.136718 38.683594zm0 0" fill="#283593"/><path d="m330.667969 93.835938c-2.15625-19.527344-7.699219-38.527344-16.386719-56.148438-10.214844-19.199219-30.785156-30.574219-52.480469-29.011719-11.046875.816407-21.664062 4.621094-30.71875 11.007813-4.574219 4.097656-9.546875 7.730468-14.847656 10.835937-6.09375 2.453125-12.632813 3.613281-19.199219 3.414063h-.769531c-6.820313.285156-13.625-.878906-19.96875-3.414063-5.296875-3.105469-10.273437-6.738281-14.847656-10.835937-9.050781-6.386719-19.671875-10.191406-30.71875-11.007813-21.691407-1.5625-42.265625 9.8125-52.480469 29.011719-8.683594 17.621094-14.230469 36.621094-16.382812 56.148438-33.023438 15.359374-53.332032 36.351562-53.332032 59.5625 0 13.824218 14.25 32.683593 27.132813 44.203124-1.027344 2.1875-1.554688 4.578126-1.535157 6.996094.027344 9.414063 7.652344 17.039063 17.066407 17.070313h19.542969c11.773437 53.585937 63.488281 93.863281 125.523437 93.863281 62.039063 0 113.75-40.277344 125.527344-93.863281h19.539062c9.414063-.03125 17.039063-7.65625 17.066407-17.070313.019531-2.417968-.503907-4.808594-1.535157-6.996094 2.476563-1.792968 4.695313-3.667968 6.914063-5.632812l.085937-.085938c11.953125-9.316406 19.292969-23.347656 20.136719-38.484374 0-23.210938-20.308594-44.203126-53.332031-59.5625zm0 0" fill="#91562d"/><path d="m324.265625 198.539062c-.011719 4.050782-.238281 8.09375-.679687 12.117188-.429688 3.757812-1.027344 7.339844-1.792969 11.011719-11.777344 53.585937-63.488281 93.863281-125.527344 93.863281-4.007813 0-7.933594-.167969-11.773437-.425781-56.75-4.777344-102.742188-43.261719-113.75-93.4375-.769532-3.671875-1.367188-7.253907-1.792969-11.011719-.441407-4.023438-.671875-8.066406-.683594-12.117188-.015625-3.675781.183594-7.351562.597656-11.007812.257813-3.070312.769531-6.140625 1.28125-9.214844.511719-2.304687 1.023438-4.523437 1.621094-6.828125.085937-.167969.085937-.425781.171875-.59375 1.023438.082031 1.960938.253907 2.898438.253907 24.167968 3.390624 48.714843-2.59375 68.609374-16.726563 3.78125-2.734375 7.195313-5.945313 10.15625-9.554687 27.671876 21.351562 61.179688 33.789062 96.082032 35.667968 16.34375 1.09375 32.757812.003906 48.8125-3.242187 7.519531-1.503907 14.957031-3.414063 22.273437-5.71875.597657 2.21875 1.191407 4.4375 1.621094 6.742187.511719 3.074219 1.023437 6.144532 1.277344 9.214844.417969 3.65625.617187 7.332031.597656 11.007812zm0 0" fill="#dfc49c"/><path d="m300.628906 198.539062c-.011718 4.050782-.238281 8.09375-.683594 12.117188-.425781 3.757812-1.023437 7.339844-1.789062 11.011719-11.007812 50.175781-57.003906 88.660156-113.664062 93.4375-56.75-4.777344-102.742188-43.261719-113.75-93.4375-.769532-3.671875-1.367188-7.253907-1.792969-11.011719-.441407-4.023438-.671875-8.066406-.683594-12.117188-.015625-3.675781.183594-7.351562.597656-11.007812.257813-3.070312.769531-6.140625 1.28125-9.214844.511719-2.304687 1.023438-4.523437 1.621094-6.828125 1.035156.015625 2.066406-.101562 3.070313-.339843 24.167968 3.390624 48.714843-2.59375 68.609374-16.726563 31.839844 19.53125 68.972657 28.65625 106.238282 26.113281 16.121094-1.058594 32.050781-4.066406 47.445312-8.960937.515625 1.878906 1.027344 3.757812 1.367188 5.71875l.257812 1.023437c.511719 3.074219 1.023438 6.144532 1.277344 9.214844.417969 3.65625.617188 7.332031.597656 11.007812zm0 0" fill="#ffe0b2"/><path d="m70.742188 221.667969h-19.542969c-9.414063-.03125-17.039063-7.65625-17.066407-17.070313-.019531-2.417968.507813-4.808594 1.535157-6.996094.824219-1.890624 2.015625-3.601562 3.5-5.035156 3.160156-3.238281 7.503906-5.058594 12.03125-5.035156h17.664062c-.414062 3.65625-.613281 7.332031-.597656 11.007812.011719 4.050782.242187 8.09375.683594 12.117188.425781 3.757812 1.023437 7.339844 1.792969 11.011719zm0 0" fill="#dfc49c"/><path d="m358.398438 204.597656c-.027344 9.414063-7.652344 17.039063-17.066407 17.070313h-19.539062c.765625-3.671875 1.363281-7.253907 1.792969-11.011719.441406-4.023438.667968-8.066406.679687-12.117188.019531-3.675781-.179687-7.351562-.597656-11.007812h17.664062c4.527344-.023438 8.871094 1.796875 12.035157 5.035156 1.484374 1.433594 2.671874 3.144532 3.496093 5.035156 1.03125 2.1875 1.554688 4.578126 1.535157 6.996094zm0 0" fill="#dfc49c"/><path d="m100.097656 122.679688c-11.148437 13.429687-20.289062 28.40625-27.136718 44.457031v.085937c-1.109376 3.671875-2.050782 7.339844-2.816407 11.09375-.511719 3.074219-1.023437 6.144532-1.28125 9.214844h-17.578125c-.085937-1.449219-.085937-11.433594-.085937-12.796875.027343-11.566406 1.457031-23.085937 4.265625-34.304687 14.027344-7.863282 29.035156-13.832032 44.632812-17.75zm0 0" fill="#91562d"/><path d="m341.332031 174.734375c0 1.363281 0 11.347656-.085937 12.796875h-17.578125c-.253907-3.070312-.765625-6.140625-1.277344-9.214844-.769531-3.753906-1.707031-7.421875-2.816406-11.09375v-.085937c-6.851563-16.050781-15.992188-31.027344-27.136719-44.457031 15.59375 3.917968 30.601562 9.886718 44.628906 17.75 2.808594 11.21875 4.242188 22.738281 4.265625 34.304687zm0 0" fill="#91562d"/><path d="m384 153.398438c-.84375 15.136718-8.183594 29.167968-20.136719 38.484374l-.085937.085938c-2.21875 1.964844-4.4375 3.839844-6.914063 5.632812-.824219-1.890624-2.011719-3.601562-3.496093-5.035156-3.164063-3.238281-7.507813-5.058594-12.035157-5.035156h-.085937c.085937-1.449219.085937-11.433594.085937-12.796875-.023437-11.566406-1.457031-23.085937-4.265625-34.304687-14.027344-7.863282-29.035156-13.832032-44.628906-17.75-19.359375-5.226563-39.152344-8.683594-59.136719-10.324219h-.085937c-11.859375-1.109375-24.234375-1.621094-36.949219-1.621094s-25.085937.597656-36.949219 1.621094h-.085937c-19.976563 1.699219-39.765625 5.152343-59.132813 10.324219-15.597656 3.917968-30.605468 9.886718-44.632812 17.75-2.808594 11.21875-4.238282 22.738281-4.265625 34.304687 0 1.363281 0 11.347656.085937 12.796875h-.085937c-4.527344-.023438-8.871094 1.796875-12.03125 5.035156-1.484375 1.433594-2.675781 3.144532-3.5 5.035156-12.882813-11.519531-27.132813-30.378906-27.132813-44.203124 0-23.210938 20.308594-44.203126 53.332032-59.5625 7.386718-3.445313 14.964843-6.464844 22.699218-9.042969h.085938c36.078125-11.46875 73.757812-17.117188 111.613281-16.726563 37.859375-.390625 75.535156 5.257813 111.617187 16.726563h.085938c7.730469 2.578125 15.3125 5.597656 22.699219 9.042969 33.023437 15.359374 53.332031 36.351562 53.332031 59.5625zm0 0" fill="#607d8b"/><path d="m384 153.398438c-.84375 15.136718-8.183594 29.167968-20.136719 38.484374l-.085937.085938c-2.21875 1.964844-4.4375 3.839844-6.914063 5.632812-.824219-1.890624-2.011719-3.601562-3.496093-5.035156-2.421876-2.480468-5.550782-4.152344-8.960938-4.777344 9.6875-8.878906 15.433594-21.257812 15.957031-34.390624 0-23.210938-20.308593-44.203126-53.332031-59.5625-7.390625-3.445313-14.96875-6.464844-22.699219-9.042969h-.085937c-32.269532-10.347657-65.875-15.921875-99.753906-16.554688 3.839843-.085937 7.847656-.171875 11.773437-.171875 37.859375-.390625 75.535156 5.257813 111.617187 16.726563h.085938c7.730469 2.578125 15.3125 5.597656 22.699219 9.042969 33.023437 15.359374 53.332031 36.351562 53.332031 59.5625zm0 0" fill="#37474f"/><path d="m330.667969 93.835938c-7.386719-3.445313-14.96875-6.464844-22.699219-9.042969h-.085938c-.769531-.257813-1.535156-.511719-2.390624-.769531-35.359376-10.949219-72.210938-16.332032-109.226563-15.957032-3.925781 0-7.933594.085938-11.773437.171875h-.511719c-33.734375.710938-67.1875 6.289063-99.328125 16.554688h-.085938c-7.734375 2.578125-15.3125 5.597656-22.699218 9.042969.425781-3.242188.9375-6.570313 1.535156-9.8125 2.519531-16.121094 7.527344-31.753907 14.847656-46.335938 7.5625-14.3125 21.105469-24.507812 36.949219-27.820312h.085937c5.058594-1.171876 10.265625-1.574219 15.445313-1.191407 11.046875.816407 21.667969 4.621094 30.71875 11.007813 4.574219 4.097656 9.550781 7.730468 14.847656 10.835937 2.621094 1.15625 5.371094 1.988281 8.195313 2.472657 3.882812.699218 7.828124 1.011718 11.773437.941406h.769531c6.566406.199218 13.105469-.960938 19.199219-3.414063 5.300781-3.105469 10.273437-6.738281 14.847656-10.835937 6.777344-4.746094 14.4375-8.082032 22.527344-9.816406h.085937c2.667969-.609376 5.378907-1.011719 8.105469-1.191407 21.695313-1.5625 42.265625 9.8125 52.480469 29.011719 8.6875 17.621094 14.230469 36.621094 16.386719 56.148438zm0 0" fill="#545c60"/><path d="m305.492188 84.023438c-35.359376-10.949219-72.210938-16.332032-109.226563-15.957032-3.925781 0-7.933594.085938-11.773437.171875h-.511719c-3.757813-.085937-7.511719-.171875-11.351563-.171875-37.015625-.375-73.863281 5.007813-109.226562 15.957032 2.519531-16.121094 7.527344-31.753907 14.847656-46.335938 7.5625-14.3125 21.105469-24.507812 36.949219-27.820312h.085937c8.089844 1.734374 15.75 5.070312 22.527344 9.816406 4.574219 4.097656 9.550781 7.730468 14.847656 10.835937 6.339844 2.535157 13.148438 3.699219 19.96875 3.414063h.769532c3.714843-.015625 7.425781-.332032 11.09375-.941406 3.882812.699218 7.828124 1.011718 11.773437.941406h.769531c6.566406.199218 13.105469-.960938 19.199219-3.414063 5.300781-3.105469 10.273437-6.738281 14.847656-10.835937 6.777344-4.746094 14.4375-8.082032 22.527344-9.816406h.085937c15.84375 3.3125 29.390626 13.507812 36.949219 27.820312 7.320313 14.582031 12.328125 30.214844 14.847657 46.335938zm0 0" fill="#7f8e94"/><path d="m350.722656 443.960938 12.070313 12.070312c3.332031 3.332031 3.332031 8.734375 0 12.066406l-30.171875 30.171875c-6.664063 6.664063-17.46875 6.664063-24.136719 0-6.664063-6.667969-6.664063-17.472656 0-24.136719l30.171875-30.171874c3.332031-3.332032 8.734375-3.332032 12.066406 0zm0 0" fill="#f44335"/><path d="m196.265625 324.066406c-70.171875 0-128.558594-48.355468-135.800781-112.476562-.476563-4.335938-.71875-8.695313-.730469-13.0625.015625-7.28125.691406-14.542969 2.015625-21.703125.875-4.332031 1.882812-8.375 3.050781-12.179688.828125-2.988281 3.210938-5.296875 6.230469-6.019531 3.015625-.726562 6.1875.242188 8.285156 2.53125 2.09375 2.285156 2.785156 5.53125 1.800782 8.472656-1.023438 3.371094-1.902344 6.894532-2.609376 10.417969-1.828124 9.78125-2.191406 19.78125-1.074218 29.671875 6.257812 55.4375 57.347656 97.28125 118.832031 97.28125s112.578125-41.84375 118.835937-97.324219c.410157-3.703125.621094-7.421875.632813-11.148437-.019531-6.253906-.601563-12.492188-1.734375-18.644532-.683594-3.359374-1.558594-6.882812-2.582031-10.253906-.988281-2.941406-.296875-6.1875 1.800781-8.472656 2.09375-2.289062 5.269531-3.257812 8.285156-2.53125 3.015625.722656 5.402344 3.03125 6.230469 6.019531 1.164063 3.804688 2.171875 7.847657 3.023437 12.019531 2.175782 11.496094 2.617188 23.253907 1.308594 34.882813-7.242187 64.164063-65.625 112.519531-135.800781 112.519531zm0 0"/><path d="m68.949219 230.199219h-17.75c-14.132813-.015625-25.582031-11.46875-25.597657-25.601563.070313-14.109375 11.488282-25.527344 25.597657-25.597656h17.664062c4.714844 0 8.535157 3.820312 8.535157 8.53125 0 4.714844-3.820313 8.535156-8.535157 8.535156h-17.578125c-2.253906-.039062-4.425781.851563-6.007812 2.457032-1.671875 1.578124-2.617188 3.777343-2.609375 6.074218.003906 4.710938 3.820312 8.53125 8.53125 8.535156h17.75c4.714843 0 8.535156 3.820313 8.535156 8.535157 0 4.710937-3.820313 8.53125-8.535156 8.53125zm0 0"/><path d="m341.332031 230.199219h-17.746093c-4.714844 0-8.535157-3.820313-8.535157-8.53125 0-4.714844 3.820313-8.535157 8.535157-8.535157h17.746093c4.710938-.003906 8.53125-3.824218 8.535157-8.535156.019531-2.222656-.863282-4.359375-2.449219-5.917968-1.582031-1.671876-3.785157-2.617188-6.085938-2.613282h-17.664062c-4.710938 0-8.53125-3.820312-8.53125-8.535156 0-4.710938 3.820312-8.53125 8.53125-8.53125h17.578125c14.144531.019531 25.621094 11.457031 25.6875 25.597656-.015625 14.132813-11.46875 25.585938-25.601563 25.601563zm0 0"/><path d="m51.273438 196.035156c-4.511719.011719-8.246094-3.503906-8.507813-8.011718-.089844-1.507813-.097656-11.871094-.097656-13.289063.023437-12.261719 1.539062-24.472656 4.515625-36.363281 1.136718-4.574219 5.765625-7.363282 10.339844-6.226563 4.578124 1.136719 7.363281 5.769531 6.226562 10.34375-2.644531 10.542969-3.992188 21.371094-4.015625 32.246094 0 1.300781-.007813 10.734375.066406 12.324219.234375 4.699218-3.371093 8.703125-8.066406 8.964844-.152344.007812-.308594.011718-.460937.011718zm0 0"/><path d="m197.035156 42.464844h-.769531c-4.710937 0-8.53125-3.820313-8.53125-8.53125 0-4.714844 3.820313-8.535156 8.53125-8.535156 4.789063-.027344 8.738281 3.75 8.917969 8.535156.085937 2.222656-.730469 4.382812-2.265625 5.992187-1.539063 1.609375-3.660157 2.523438-5.882813 2.539063zm0 0"/><path d="m341.257812 196.066406c-.171874 0-.332031 0-.5-.011718-4.699218-.277344-8.285156-4.304688-8.019531-9 .070313-1.605469.0625-11.019532.0625-12.320313-.027343-10.875-1.375-21.703125-4.015625-32.246094-1.136718-4.574219 1.648438-9.207031 6.222656-10.34375 4.574219-1.136719 9.207032 1.652344 10.34375 6.226563 2.972657 11.890625 4.492188 24.101562 4.515626 36.363281 0 1.417969-.007813 11.78125-.101563 13.289063-.253906 4.511718-3.988281 8.039062-8.507813 8.042968zm0 0"/><path d="m307.96875 93.324219h-.085938c-4.703124-.023438-8.503906-3.847657-8.492187-8.554688.011719-4.703125 3.832031-8.511719 8.535156-8.511719s8.519531 3.808594 8.53125 8.511719c.011719 4.707031-3.785156 8.53125-8.488281 8.554688zm0 0"/><path d="m84.652344 93.324219h-.085938c-4.707031-.023438-8.503906-3.847657-8.492187-8.554688.011719-4.703125 3.828125-8.511719 8.535156-8.511719 4.703125 0 8.519531 3.808594 8.53125 8.511719.011719 4.707031-3.785156 8.53125-8.488281 8.554688zm0 0"/><path d="m72.960938 175.710938c-2.257813.011718-4.429688-.878907-6.03125-2.46875-1.601563-1.59375-2.5-3.757813-2.503907-6.019532v-.082031c0-1.175781.246094-2.339844.71875-3.414063 7.179688-16.84375 16.78125-32.550781 28.5-46.621093 1.992188-2.308594 5.066407-3.378907 8.0625-2.804688 2.992188.574219 5.457031 2.699219 6.457031 5.578125 1 2.882813.390626 6.078125-1.601562 8.382813-10.542969 12.699219-19.1875 26.863281-25.667969 42.042969-1.289062 3.257812-4.433593 5.398437-7.933593 5.40625zm0 0"/><path d="m319.574219 175.710938c-3.664063.011718-6.925781-2.320313-8.101563-5.789063-6.453125-15.042969-15.042968-29.074219-25.5-41.664063-1.992187-2.308593-2.601562-5.503906-1.601562-8.382812s3.464844-5.007812 6.457031-5.578125c2.996094-.574219 6.070313.496094 8.0625 2.800781 11.714844 14.074219 21.316406 29.777344 28.5 46.621094.472656 1.078125.71875 2.238281.71875 3.414062.003906 4.722657-3.8125 8.5625-8.535156 8.578126zm0 0"/><path d="m170.667969 375.949219c-4.714844 0-8.535157-3.820313-8.535157-8.535157v-54.183593c0-4.714844 3.820313-8.535157 8.535157-8.535157 4.710937 0 8.53125 3.820313 8.53125 8.535157v54.183593c0 4.714844-3.820313 8.535157-8.53125 8.535157zm0 0"/><path d="m221.867188 375.949219c-4.714844 0-8.535157-3.820313-8.535157-8.535157v-54.183593c0-4.714844 3.820313-8.535157 8.535157-8.535157 4.710937 0 8.53125 3.820313 8.53125 8.535157v54.183593c0 4.714844-3.820313 8.535157-8.53125 8.535157zm0 0"/><path d="m320.511719 511.800781h-277.84375c-14.132813-.015625-25.585938-11.46875-25.601563-25.601562v-25.601563c.070313-61.238281 49.695313-110.863281 110.933594-110.929687h3.328125c4.710937-.027344 8.550781 3.777343 8.574219 8.488281.023437 4.714844-3.777344 8.554688-8.488282 8.578125h-3.414062c-51.816406.058594-93.808594 42.046875-93.867188 93.863281v25.601563c.003907 4.710937 3.824219 8.53125 8.535157 8.535156h277.84375c4.714843 0 8.535156 3.820313 8.535156 8.53125 0 4.714844-3.820313 8.535156-8.535156 8.535156zm0 0"/><path d="m365.140625 450.144531c-4.289063.015625-7.921875-3.167969-8.464844-7.421875-8.535156-44.140625-47.1875-76.015625-92.140625-75.988281h-3.328125c-4.714843.023437-8.554687-3.78125-8.578125-8.492187-.023437-4.714844 3.777344-8.550782 8.492188-8.574219h3.414062c53.332032-.03125 99.125 37.921875 108.996094 90.332031.09375.519531.140625 1.042969.144531 1.570312.003907 4.722657-3.8125 8.554688-8.535156 8.574219zm0 0"/><path d="m170.667969 366.734375h-3.839844c-4.714844.023437-8.554687-3.78125-8.578125-8.492187-.023438-4.714844 3.777344-8.550782 8.492188-8.574219h3.925781c4.710937 0 8.53125 3.820312 8.53125 8.53125 0 4.714843-3.820313 8.535156-8.53125 8.535156zm0 0"/><path d="m225.792969 366.734375h-3.925781c-4.714844 0-8.535157-3.820313-8.535157-8.535156 0-4.710938 3.820313-8.53125 8.535157-8.53125h3.925781c4.710937 0 8.53125 3.820312 8.53125 8.53125 0 4.714843-3.820313 8.535156-8.53125 8.535156zm0 0"/><path d="m337.058594 148.960938c-1.511719.003906-2.996094-.402344-4.300782-1.167969-13.367187-7.480469-27.664062-13.152344-42.523437-16.867188-30.667969-8.042969-62.265625-11.964843-93.96875-11.660156-31.675781-.25-63.25 3.664063-93.90625 11.640625-14.878906 3.722656-29.199219 9.398438-42.582031 16.886719-2.636719 1.625-5.945313 1.695312-8.648438.183593-2.703125-1.507812-4.375-4.367187-4.367187-7.460937.003906-3.097656 1.6875-5.949219 4.394531-7.449219 14.6875-8.261718 30.40625-14.527344 46.742188-18.632812 32.113281-8.371094 65.183593-12.480469 98.367187-12.234375 33.214844-.304688 66.324219 3.820312 98.449219 12.257812 16.3125 4.105469 32.003906 10.363281 46.660156 18.609375 3.324219 1.949219 4.929688 5.882813 3.921875 9.597656-1.011719 3.71875-4.386719 6.300782-8.238281 6.296876zm0 0"/><path d="m356.875 206.136719c-3.699219 0-6.980469-2.382813-8.121094-5.902344s.117188-7.375 3.113282-9.542969c2.242187-1.621094 4.242187-3.335937 6.25-5.109375 10.007812-7.847656 16.292968-19.507812 17.347656-32.183593 0-18.632813-17.640625-37.519532-48.398438-51.824219-6.9375-3.242188-14.054687-6.089844-21.316406-8.523438-.195312-.046875-.390625-.105469-.582031-.171875-35.203125-11.183594-71.964844-16.679687-108.902344-16.28125-36.933594-.398437-73.695313 5.097656-108.898437 16.28125-.199219.070313-.410157.128906-.609376.183594-7.230468 2.417969-14.316406 5.25-21.222656 8.480469-30.828125 14.335937-48.46875 33.222656-48.46875 51.855469 0 9.191406 10.441406 25.464843 24.292969 37.84375 3.511719 3.144531 3.8125 8.539062.667969 12.054687-3.140625 3.511719-8.539063 3.8125-12.050782.667969-13.828124-12.363282-29.976562-33.03125-29.976562-50.566406 0-25.925782 20.691406-49.824219 58.265625-67.300782 7.664063-3.578125 15.527344-6.710937 23.554687-9.382812.222657-.078125.457032-.144532.679688-.203125 36.785156-11.636719 75.1875-17.367188 113.765625-16.980469 38.59375-.390625 77.003906 5.347656 113.800781 16.992188.226563.058593.445313.121093.648438.1875 8.050781 2.679687 15.933594 5.828124 23.617187 9.421874 37.507813 17.441407 58.203125 41.339844 58.203125 67.265626-.816406 17.570312-9.203125 33.929687-22.992187 44.847656-2.449219 2.222656-5.011719 4.316406-7.679688 6.269531-1.449219 1.054687-3.195312 1.621094-4.988281 1.621094zm0 0"/><path d="m61.875 102.371094c-.371094 0-.742188-.023438-1.109375-.070313-2.246094-.292969-4.28125-1.464843-5.664063-3.257812-1.378906-1.796875-1.988281-4.066407-1.695312-6.308594 2.273438-20.527344 8.117188-40.492187 17.277344-59 11.820312-22.160156 35.558594-35.308594 60.617187-33.574219 12.613281.898438 24.742188 5.238282 35.066407 12.546875 1.992187 1.417969 3.832031 2.960938 5.667968 4.507813 2.320313 2.183594 4.929688 4.039062 7.757813 5.515625 5.25 2.011719 10.855469 2.917969 16.472656 2.667969 4.714844 0 8.535156 3.820312 8.535156 8.535156 0 4.710937-3.820312 8.53125-8.535156 8.53125-8.035156.292968-16.039063-1.128906-23.484375-4.167969-4.285156-2.101563-8.246094-4.8125-11.757812-8.042969-1.472657-1.242187-2.941407-2.496094-4.523438-3.621094-7.773438-5.464843-16.882812-8.726562-26.359375-9.445312-18.320313-1.324219-35.699219 8.269531-44.339844 24.476562-8.21875 16.726563-13.457031 34.753907-15.476562 53.277344-.554688 4.246094-4.167969 7.421875-8.449219 7.429688zm0 0"/><path d="m330.65625 102.371094c-4.28125-.003906-7.894531-3.183594-8.445312-7.429688-2.023438-18.535156-7.265626-36.570312-15.492188-53.300781-8.652344-16.199219-26.035156-25.78125-44.351562-24.453125-9.480469.726562-18.589844 4-26.367188 9.472656-1.550781 1.097656-3.015625 2.351563-4.492188 3.59375-3.519531 3.238282-7.488281 5.953125-11.78125 8.054688-7.160156 2.929687-14.851562 4.34375-22.585937 4.15625h-.875c-4.710937 0-8.53125-3.820313-8.53125-8.53125 0-4.714844 3.820313-8.535156 8.53125-8.535156h.769531c5.34375.164062 10.664063-.734376 15.65625-2.644532 2.847656-1.480468 5.472656-3.34375 7.808594-5.542968 1.835938-1.542969 3.675781-3.085938 5.632812-4.480469 10.320313-7.316407 22.453126-11.664063 35.074219-12.570313 25.050781-1.730468 48.785157 11.402344 60.621094 33.546875 9.167969 18.515625 15.023437 38.492188 17.292969 59.027344.296875 2.242187-.316406 4.511719-1.695313 6.308594-1.378906 1.792969-3.417969 2.964843-5.664062 3.257812-.363281.046875-.734375.070313-1.105469.070313zm0 0"/><path d="m196.265625 511.800781c-2.53125-.003906-4.933594-1.128906-6.558594-3.074219-23.789062-28.554687-80.964843-48.390624-81.539062-48.589843-4.273438-1.460938-6.667969-6.003907-5.460938-10.355469 4.054688-14.898438 12.746094-28.117188 24.816407-37.75-8.265626-1.730469-16.679688-2.613281-25.125-2.632812-2.507813 0-4.886719-1.105469-6.507813-3.019532-1.621094-1.914062-2.316406-4.445312-1.90625-6.917968 5.179687-33.613282 34.140625-58.398438 68.148437-58.328126 2.941407 0 5.675782 1.515626 7.234376 4.011719 26.417968 42.253907 35.050781 152.789063 35.40625 157.472657.183593 2.371093-.632813 4.707031-2.246094 6.449218-1.617188 1.746094-3.882813 2.734375-6.261719 2.734375zm-74.53125-64.828125c22.710937 8.617188 44.171875 20.226563 63.816406 34.523438-3.691406-32.777344-12.308593-93.101563-28.140625-122.933594-20.183594 1.699219-37.496094 15.070312-44.242187 34.167969 12.664062.90625 30.890625 3.832031 38.457031 12.914062 1.75 2.101563 2.386719 4.910157 1.714844 7.558594-.667969 2.648437-2.570313 4.816406-5.105469 5.828125-11.957031 5.753906-21.386719 15.699219-26.5 27.941406zm0 0"/><path d="m196.265625 511.800781c-2.375 0-4.644531-.988281-6.257813-2.730469-1.617187-1.746093-2.429687-4.082031-2.25-6.449218.359376-4.683594 8.992188-115.222656 35.410157-157.476563 1.558593-2.496093 4.289062-4.011719 7.230469-4.011719 34.011718-.070312 62.972656 24.714844 68.152343 58.328126.410157 2.472656-.289062 5.003906-1.910156 6.917968-1.621094 1.914063-4 3.019532-6.507813 3.019532-8.441406.019531-16.859374.902343-25.125 2.632812 12.070313 9.632812 20.761719 22.851562 24.816407 37.75 1.207031 4.355469-1.1875 8.894531-5.460938 10.355469-.574219.199219-57.789062 20.09375-81.539062 48.589843-1.625 1.945313-4.023438 3.070313-6.558594 3.074219zm38.859375-153.238281c-15.839844 29.851562-24.457031 90.167969-28.140625 122.933594 19.640625-14.292969 41.101563-25.902344 63.816406-34.519532-5.121093-12.238281-14.550781-22.179687-26.5-27.945312-2.539062-1.011719-4.4375-3.179688-5.109375-5.828125s-.03125-5.457031 1.714844-7.558594c7.570312-9.082031 25.792969-12.007812 38.460938-12.914062-6.746094-19.097657-24.058594-32.46875-44.242188-34.167969zm0 0"/><path d="m435.199219 448.316406c-36.617188-.027344-68.121094-25.914062-75.242188-61.835937-7.121093-35.921875 12.125-71.871094 45.964844-85.863281 33.839844-13.996094 72.851563-2.136719 93.179687 28.324218 20.328126 30.457032 16.3125 71.035156-9.59375 96.917969-14.394531 14.410156-33.9375 22.492187-54.308593 22.457031zm0-136.464844c-27.03125-.003906-50.695313 18.15625-57.6875 44.265626-6.996094 26.113281 4.421875 53.667968 27.835937 67.179687 23.414063 13.511719 52.980469 9.613281 72.09375-9.507813 17.089844-17.074218 22.207032-42.769531 12.957032-65.089843-9.246094-22.320313-31.039063-36.867188-55.199219-36.847657zm0 0"/><path d="m320.550781 511.785156c-6.789062.011719-13.304687-2.683594-18.101562-7.484375-9.972657-10.007812-9.972657-26.195312 0-36.203125l36.207031-36.203125c3.335938-3.332031 8.738281-3.332031 12.070312 0l24.132813 24.132813c3.332031 3.332031 3.332031 8.734375 0 12.066406l-36.203125 36.207031c-4.796875 4.804688-11.3125 7.5-18.105469 7.484375zm-6.035156-19.550781c3.339844 3.324219 8.738281 3.324219 12.078125 0l30.164062-30.171875-12.066406-12.066406-30.175781 30.171875c-3.324219 3.332031-3.324219 8.730469 0 12.066406zm0 0"/><path d="m356.757812 458.527344c-3.449218 0-6.5625-2.078125-7.882812-5.265625-1.320312-3.191407-.589844-6.859375 1.851562-9.300781l30.164063-30.171876c3.335937-3.304687 8.71875-3.292968 12.042969.027344 3.320312 3.320313 3.332031 8.703125.027344 12.042969l-30.167969 30.167969c-1.597657 1.605468-3.769531 2.503906-6.035157 2.5zm0 0"/><path d="m401.066406 366.734375c-3.449218-.003906-6.5625-2.082031-7.882812-5.269531-1.320313-3.1875-.589844-6.859375 1.851562-9.296875l17.066406-17.066407c3.347657-3.234374 8.667969-3.191406 11.960938.101563s3.335938 8.613281.105469 11.960937l-17.066407 17.070313c-1.601562 1.601563-3.769531 2.5-6.035156 2.5zm0 0"/><path d="m426.667969 383.800781c-3.453125-.003906-6.5625-2.082031-7.882813-5.269531-1.320312-3.1875-.589844-6.859375 1.847656-9.296875l34.132813-34.132813c3.347656-3.234374 8.671875-3.191406 11.964844.101563 3.289062 3.292969 3.335937 8.613281.101562 11.960937l-34.132812 34.136719c-1.597657 1.601563-3.769531 2.5-6.03125 2.5zm0 0"/><path d="m58.007812 394.378906c-1.894531.003906-3.738281-.628906-5.234374-1.796875-27.824219-21.664062-35.289063-62.847656-17.757813-97.933593 15.507813-31.011719 7.875-70.921876 7.800781-71.320313-.808594-4.570313 2.183594-8.949219 6.734375-9.855469s8.992188 1.988282 10 6.515625c.375 1.863281 8.898438 45.960938-9.265625 82.292969-13.917968 27.832031-8.460937 60.148438 12.972656 76.832031 2.878907 2.242188 4.011719 6.0625 2.828126 9.507813-1.1875 3.449218-4.429688 5.761718-8.078126 5.757812zm0 0"/><path d="m334.5 394.378906c-3.644531.003906-6.890625-2.308594-8.078125-5.757812-1.183594-3.445313-.046875-7.265625 2.828125-9.507813 21.433594-16.6875 26.878906-49 12.964844-76.832031-18.164063-36.332031-9.640625-80.429688-9.265625-82.292969 1.007812-4.527343 5.449219-7.421875 10-6.515625s7.542969 5.285156 6.734375 9.855469c-.074219.398437-7.707032 40.308594 7.800781 71.320313 17.539063 35.082031 10.074219 76.269531-17.75 97.933593-1.496094 1.167969-3.335937 1.800781-5.234375 1.796875zm0 0"/><path d="m260.984375 189.617188c-38.085937.128906-75.28125-11.492188-106.515625-33.28125-11.042969 10.191406-37.777344 28.433593-83.535156 23.03125-3.027344-.355469-5.636719-2.300782-6.839844-5.101563s-.824219-6.03125 1-8.476563c1.824219-2.441406 4.8125-3.726562 7.839844-3.371093 51.65625 6.09375 73.625-22.378907 73.839844-22.671875 1.425781-1.898438 3.578124-3.117188 5.9375-3.363282 2.359374-.25 4.71875.5 6.503906 2.0625 2.585937 2.234376 64.636718 54.738282 158.984375 24.996094 2.921875-.96875 6.136719-.289062 8.417969 1.78125 2.277343 2.066406 3.265624 5.203125 2.585937 8.203125s-2.921875 5.40625-5.871094 6.289063c-20.152343 6.472656-41.179687 9.8125-62.347656 9.902344zm0 0"/></svg>