<svg height="512pt" viewBox="0 0 512.00009 512" width="512pt" xmlns="http://www.w3.org/2000/svg"><path d="m348.246094 468.054688-30.039063-55.722657c-17.886719-17.183593-41.4375-27.226562-66.21875-28.246093-.707031-.070313-1.421875-.101563-2.132812-.085938h-138.921875c-.710938-.015625-1.425782.015625-2.132813.085938-55.746093 1.023437-100.371093 46.558593-100.265625 102.3125.027344 9.414062 7.652344 17.039062 17.066406 17.066406h307.199219c9.398438-.066406 16.996094-7.667969 17.066407-17.066406-.019532-6.148438-.5625-12.285157-1.621094-18.34375zm-187.425782-15.171876c-.902343.335938-1.792968.652344-2.703124.964844.90625-.3125 1.804687-.632812 2.703124-.964844zm11.042969-4.796874c-.257812.128906-.535156.214843-.792969.339843 2.792969-1.414062 5.507813-2.984375 8.128907-4.691406-2.386719 1.535156-4.777344 2.984375-7.335938 4.351563zm11.945313-2.988282c-.769532-.402344-1.511719-.859375-2.21875-1.363281 1.664062 1.082031 3.425781 2.039063 5.171875 3.015625-.894531-.503906-1.824219-.949219-2.695313-1.480469-.085937-.085937-.171875-.085937-.257812-.171875zm11.066406 5.699219c-1.578125-.695313-3.148438-1.390625-4.683594-2.167969 1.535156.777344 3.105469 1.472656 4.683594 2.167969zm11.195312 4.214844c2.664063.8125 5.347657 1.535156 8.03125 2.117187-2.683593-.59375-5.367187-1.304687-8.03125-2.117187zm-8.113281-2.863281c1.597657.640624 3.222657 1.183593 4.847657 1.738281-1.625-.554688-3.25-1.097657-4.847657-1.738281zm0 0" fill="#fdd7ad"/><path d="m238.933594 384v17.066406c-.007813 23.5625-19.105469 42.660156-42.667969 42.667969h-34.132813c-23.558593-.007813-42.65625-19.105469-42.667968-42.667969v-17.066406zm0 0" fill="#ffe0b2"/><path d="m349.867188 486.398438c-.070313 9.398437-7.667969 17-17.066407 17.066406h-307.199219c-9.414062-.027344-17.039062-7.652344-17.066406-17.066406-.105468-55.753907 44.519532-101.289063 100.265625-102.3125-5.046875.679687-9.867187 2.519531-14.082031 5.375-7.40625 4.476562-12.765625 11.675781-14.933594 20.054687-3.839844 17.664063 11.351563 35.15625 25.941406 42.921875 12.664063 6.382812 27.183594 8.046875 40.960938 4.691406 8.75-1.910156 17.210938-4.949218 25.175781-9.042968 2.558594-1.367188 4.949219-2.816407 7.335938-4.351563h2.390625c.707031.503906 1.449218.960937 2.21875 1.363281.085937.085938.171875.085938.253906.171875 9.296875 5.570313 19.445312 9.578125 30.039062 11.859375 13.804688 3.351563 28.351563 1.6875 41.046876-4.691406 14.503906-7.765625 29.695312-25.257812 25.855468-42.921875-2.132812-8.371094-7.464844-15.574219-14.847656-20.054687-4.246094-2.855469-9.09375-4.695313-14.167969-5.375 24.78125 1.019531 48.332031 11.0625 66.21875 28.246093l30.039063 55.722657c1.058594 6.058593 1.601562 12.195312 1.621094 18.34375zm0 0" fill="#f5f5f5"/><path d="m179.199219 443.734375c-9.9375 6.390625-20.953125 10.929687-32.511719 13.394531-13.777344 3.355469-28.296875 1.691406-40.960938-4.691406-14.589843-7.765625-29.78125-25.257812-25.941406-42.921875 2.167969-8.378906 7.527344-15.578125 14.933594-20.054687 4.214844-2.855469 9.035156-4.695313 14.082031-5.375.707031-.070313 1.421875-.101563 2.132813-.085938h8.53125v17.066406c.011718 23.5625 19.109375 42.660156 42.667968 42.667969zm0 0" fill="#009688"/><path d="m255.148438 452.4375c-12.695313 6.378906-27.242188 8.042969-41.046876 4.691406-11.554687-2.480468-22.566406-7.015625-32.511718-13.394531h14.675781c23.5625-.007813 42.660156-19.105469 42.667969-42.667969v-17.066406h10.921875c.710937-.015625 1.425781.015625 2.132812.085938 5.074219.679687 9.921875 2.519531 14.167969 5.375 7.382812 4.480468 12.714844 11.683593 14.847656 20.054687 3.839844 17.664063-11.351562 35.15625-25.855468 42.921875zm0 0" fill="#009688"/><path d="m153.601562 339.03125h51.199219v70.570312h-51.199219zm0 0" fill="#ffe0b2"/><path d="m336.296875 218.367188c-3.160156-3.242188-7.503906-5.058594-12.03125-5.035157h-.085937c.085937-1.449219.085937-11.433593.085937-12.796875-.027344-36.019531-14.144531-70.597656-39.335937-96.34375l-105.730469-64-105.726563 64c-25.226562 25.722656-39.351562 60.316406-39.339844 96.34375 0 1.363282 0 11.347656.085938 12.796875h-.085938c-9.398437.070313-16.996093 7.671875-17.066406 17.066407.027344 9.414062 7.652344 17.039062 17.066406 17.066406h19.578126c11.757812 53.574218 63.453124 93.867187 125.488281 93.867187 62.125 0 113.835937-40.359375 125.527343-93.949219l1.789063.082032h17.75c9.414063-.027344 17.039063-7.652344 17.066406-17.066406.027344-4.527344-1.792969-8.867188-5.035156-12.03125zm0 0" fill="#fdd7ad"/><path d="m56.148438 247.464844h-22.015626c-9.414062-.027344-17.039062-7.652344-17.066406-17.066406.066406-9.394532 7.667969-16.996094 17.066406-17.066407h21.417969" fill="#dfc49c"/><path d="m341.332031 230.398438c-.027343 9.414062-7.652343 17.039062-17.066406 17.066406h-17.75l-1.789063-.082032c.765626-3.585937 1.363282-7.253906 1.789063-10.925781.445313-4.023437.671875-8.066406.683594-12.117187.019531-3.675782-.179688-7.351563-.597657-11.007813h17.664063c9.398437.070313 17 7.671875 17.066406 17.066407zm0 0" fill="#dfc49c"/><path d="m324.265625 200.535156c0 1.363282 0 11.347656-.085937 12.796875h-17.578126c-.253906-3.070312-.765624-6.144531-1.277343-9.214843-.769531-3.753907-1.707031-7.421876-2.816407-11.09375v-.085938c-13.140624-30.207031-54.273437-104.703125-123.308593-56.402344-69.035157-48.300781-110.164063 26.195313-123.304688 56.402344v.085938c-1.109375 3.671874-2.050781 7.339843-2.816406 11.09375-.511719 3.070312-1.023437 6.144531-1.28125 9.214843h-17.578125c-.085938-1.449219-.085938-11.433593-.085938-12.796875-.011718-36.027344 14.113282-70.621094 39.339844-96.34375l105.726563-64 105.730469 64c25.191406 25.746094 39.308593 60.324219 39.335937 96.34375zm0 0" fill="#91562d"/><path d="m324.265625 200.535156c0 1.363282 0 11.347656-.085937 12.796875h-17.578126c-.253906-3.070312-.765624-6.144531-1.277343-9.214843-.769531-3.753907-1.707031-7.421876-2.816407-11.09375v-.085938c-.769531-1.707031-1.621093-3.582031-2.476562-5.628906-3.066406-31.3125-16.734375-60.632813-38.742188-83.117188l-93.863281-56.832031 11.773438-7.167969 105.730469 64c25.191406 25.746094 39.308593 60.324219 39.335937 96.34375zm0 0" fill="#6d4122"/><path d="m281.601562 110.933594 25.597657-51.199219s-25.597657-51.199219-128-51.199219c-102.398438 0-128 51.199219-128 51.199219l25.601562 51.199219s34.132813-34.132813 102.398438-34.132813 102.402343 34.132813 102.402343 34.132813zm0 0" fill="#ecf0f1"/><path d="m460.800781 418.132812h-33.535156l9.554687-9.558593c10.777344-10.773438 14.988282-26.484375 11.042969-41.203125-3.945312-14.722656-15.445312-26.222656-30.164062-30.167969-14.722657-3.945313-30.429688.265625-41.207031 11.042969l-24.152344 24.148437-24.148438 24.0625c-16.601562 16.71875-16.601562 43.699219 0 60.417969 5.507813 5.527344 12.457032 9.402344 20.054688 11.179688.785156.238281 1.582031.4375 2.386718.597656 3.757813 20.179687 21.371094 34.816406 41.902344 34.8125h68.265625c23.5625 0 42.664063-19.101563 42.664063-42.664063 0-23.566406-19.101563-42.667969-42.664063-42.667969zm0 0" fill="#ecf0f1"/><path d="m449.367188 378.367188c.003906 11.339843-4.511719 22.210937-12.546876 30.207031l-9.554687 9.558593h-29.183594l-45.742187-45.738281 24.152344-24.148437c12.207031-12.179688 30.542968-15.824219 46.480468-9.238282 15.9375 6.589844 26.347656 22.117188 26.394532 39.359376zm0 0" fill="#cfd8dc"/><path d="m425.726562 378.367188c.007813 11.339843-4.507812 22.210937-12.542968 30.207031l-9.558594 9.558593h-5.542969l-45.742187-45.738281 24.152344-24.148437c5.097656-5.105469 11.410156-8.835938 18.34375-10.839844 18.246093 5.289062 30.824218 21.964844 30.890624 40.960938zm0 0" fill="#f5f5f5"/><path d="m398.082031 418.132812h-5.546875c-11.328125-.035156-22.199218 4.449219-30.210937 12.460938-8.007813 8.007812-12.492188 18.878906-12.457031 30.207031-.003907 2.636719.253906 5.265625.765624 7.851563-.804687-.160156-1.601562-.359375-2.386718-.597656-7.597656-1.777344-14.546875-5.652344-20.054688-11.179688-16.601562-16.71875-16.601562-43.699219 0-60.417969l24.148438-24.0625zm0 0" fill="#60a917"/><path d="m426.667969 418.132812v85.332032h-34.132813c-20.53125.003906-38.144531-14.632813-41.902344-34.8125-.511718-2.585938-.769531-5.214844-.765624-7.851563-.035157-11.328125 4.449218-22.199219 12.457031-30.207031 8.011719-8.011719 18.882812-12.496094 30.210937-12.460938zm0 0" fill="#f44335"/><path d="m503.464844 460.800781c-.007813 23.558594-19.105469 42.65625-42.664063 42.664063h-34.132812v-85.332032h34.132812c23.558594.007813 42.65625 19.105469 42.664063 42.667969zm0 0" fill="#cfd8dc"/><path d="m479.828125 460.800781c-.007813 23.558594-19.105469 42.65625-42.664063 42.664063h-10.496093v-85.332032h10.496093c23.558594.007813 42.65625 19.105469 42.664063 42.667969zm0 0" fill="#f5f5f5"/><path d="m307.199219 224.339844c-.011719 4.050781-.238281 8.09375-.683594 12.117187-.425781 3.671875-1.023437 7.339844-1.789063 10.925781-11.691406 53.589844-63.402343 93.949219-125.527343 93.949219-3.925781 0-7.765625-.167969-11.605469-.511719-60.839844-4.949218-109.480469-48.894531-115.710938-104.363281-.441406-4.023437-.671874-8.066406-.683593-12.117187-.019531-3.675782.179687-7.351563.597656-11.007813.257813-3.070312.769531-6.144531 1.28125-9.214843.765625-3.753907 1.707031-7.421876 2.816406-11.09375v-.085938c9.128907-20.90625 31.65625-63.058594 67.582031-70.996094 15.027344-2.960937 30.617188-.351562 43.863282 7.339844h.085937c4.066407 2.171875 8 4.597656 11.773438 7.253906 9.5625-7.046875 20.492187-12.019531 32.085937-14.59375 49.835938-10.238281 80.300782 45.824219 91.222656 70.996094v.085938c1.109376 3.671874 2.046876 7.339843 2.816407 11.09375.511719 3.070312 1.023437 6.144531 1.277343 9.214843.417969 3.65625.617188 7.332031.597657 11.007813zm0 0" fill="#dfc49c"/><path d="m283.5625 224.339844c-.011719 4.050781-.238281 8.09375-.683594 12.117187-.425781 3.671875-1.023437 7.339844-1.789062 10.925781-10.925782 50.089844-56.832032 88.660157-113.496094 93.4375-60.839844-4.949218-109.480469-48.894531-115.710938-104.363281-.441406-4.023437-.671874-8.066406-.683593-12.117187-.019531-3.675782.179687-7.351563.597656-11.007813.257813-3.070312.769531-6.144531 1.28125-9.214843.765625-3.753907 1.707031-7.421876 2.816406-11.09375v-.085938c9.128907-20.90625 31.65625-63.058594 67.582031-70.996094 11.597657 2.574219 22.523438 7.546875 32.085938 14.59375 3.773438-2.65625 7.707031-5.082031 11.777344-7.253906h.085937c4.066407 2.171875 8 4.597656 11.773438 7.253906 9.5625-7.046875 20.492187-12.019531 32.085937-14.59375 36.011719 7.9375 58.453125 50.089844 67.585938 70.996094v.085938c1.109375 3.671874 2.046875 7.339843 2.8125 11.09375.515625 3.070312 1.027344 6.144531 1.28125 9.214843.417968 3.65625.617187 7.332031.597656 11.007813zm0 0" fill="#ffe0b2"/><path d="m307.199219 59.734375-25.597657 51.199219c-7.21875-6.535156-15.320312-12.019532-24.066406-16.300782l.425782-.765624 25.601562-51.199219c-2.976562-5.21875-6.746094-9.941407-11.179688-13.996094 14.335938 6.816406 26.417969 17.59375 34.816407 31.0625zm0 0" fill="#cfd8dc"/><path d="m179.199219 349.867188c-70.175781 0-128.558594-48.355469-135.800781-112.476563-.476563-4.335937-.71875-8.695313-.730469-13.0625.015625-7.28125.691406-14.542969 2.015625-21.703125.875-4.332031 1.882812-8.375 3.050781-12.179688.828125-2.988281 3.210937-5.296874 6.230469-6.019531 3.015625-.726562 6.1875.242188 8.285156 2.53125 2.09375 2.285157 2.785156 5.53125 1.800781 8.472657-1.023437 3.371093-1.902343 6.894531-2.609375 10.417968-1.828125 9.78125-2.191406 19.78125-1.074218 29.671875 6.257812 55.4375 57.347656 97.28125 118.832031 97.28125s112.574219-41.84375 118.835937-97.324219c.410156-3.703124.621094-7.421874.632813-11.148437-.019531-6.253906-.601563-12.492187-1.734375-18.644531-.683594-3.359375-1.558594-6.882813-2.582032-10.253906-.988281-2.941407-.296874-6.1875 1.800782-8.472657 2.09375-2.289062 5.269531-3.257812 8.285156-2.53125 3.015625.722657 5.402344 3.03125 6.230469 6.019531 1.164062 3.804688 2.171875 7.847657 3.023437 12.015626 2.175782 11.5 2.613282 23.257812 1.308594 34.886718-7.242188 64.164063-65.625 112.519532-135.800781 112.519532zm0 0"/><path d="m51.882812 256h-17.75c-14.132812-.015625-25.582031-11.46875-25.597656-25.601562.066406-14.109376 11.488282-25.527344 25.597656-25.597657h17.664063c4.714844 0 8.535156 3.820313 8.535156 8.53125 0 4.714844-3.820312 8.535157-8.535156 8.535157h-17.578125c-2.253906-.039063-4.425781.851562-6.007812 2.457031-1.671876 1.578125-2.617188 3.777343-2.609376 6.074219.003907 4.710937 3.820313 8.53125 8.53125 8.535156h17.75c4.710938 0 8.535157 3.820312 8.535157 8.53125 0 4.714844-3.824219 8.535156-8.535157 8.535156zm0 0"/><path d="m324.265625 256h-17.75c-4.710937 0-8.53125-3.820312-8.53125-8.535156 0-4.710938 3.820313-8.53125 8.53125-8.53125h17.75c4.710937-.003906 8.53125-3.824219 8.535156-8.535156.019531-2.222657-.863281-4.359376-2.449219-5.917969-1.582031-1.671875-3.785156-2.617188-6.085937-2.613281h-17.664063c-4.710937 0-8.53125-3.820313-8.53125-8.535157 0-4.710937 3.820313-8.53125 8.53125-8.53125h17.578126c14.144531.019531 25.621093 11.453125 25.6875 25.597657-.015626 14.132812-11.46875 25.585937-25.601563 25.601562zm0 0"/><path d="m34.207031 221.835938c-4.511719.011718-8.246093-3.503907-8.507812-8.011719-.089844-1.507813-.097657-11.871094-.097657-13.289063-.015624-38.25 14.980469-74.980468 41.757813-102.292968 3.296875-3.320313 8.648437-3.363282 12.003906-.101563 3.351563 3.261719 3.453125 8.613281.226563 12-23.667969 24.132813-36.925782 56.589844-36.921875 90.394531 0 1.300782-.007813 10.734375.066406 12.324219.234375 4.695313-3.371094 8.703125-8.066406 8.964844-.152344.007812-.308594.011719-.460938.011719zm0 0"/><path d="m324.191406 221.867188c-.171875 0-.332031 0-.5-.011719-4.699218-.277344-8.285156-4.304688-8.019531-9 .070313-1.605469.0625-11.019531.0625-12.320313-.03125-33.804687-13.285156-66.25-36.933594-90.402344-2.152343-2.183593-2.96875-5.351562-2.140625-8.304687.832032-2.949219 3.179688-5.230469 6.15625-5.96875 2.972656-.742187 6.117188.171875 8.234375 2.390625 26.746094 27.332031 41.730469 64.042969 41.75 102.285156 0 1.417969-.007812 11.78125-.101562 13.289063-.253907 4.511719-3.988281 8.039062-8.507813 8.042969zm0 0"/><path d="m55.894531 201.515625c-2.261719.011719-4.429687-.878906-6.03125-2.472656-1.601562-1.59375-2.503906-3.757813-2.503906-6.019531 0-1.199219.242187-2.386719.707031-3.492188 10.242188-23.535156 32.933594-64.574219 69.867188-74.992188 21.144531-5.972656 43.410156-.917968 66.160156 15.003907 3.785156 2.726562 4.679688 7.992187 2.003906 11.816406-2.675781 3.824219-7.925781 4.789063-11.789062 2.164063-18.34375-12.832032-35.730469-17.058594-51.738282-12.5625-31.136718 8.785156-51.371093 48.273437-58.742187 65.128906-1.285156 3.265625-4.429687 5.417968-7.933594 5.425781zm0 0"/><path d="m302.507812 201.515625c-3.667968.015625-6.933593-2.324219-8.101562-5.800781-7.5-17.066406-27.675781-56.03125-58.574219-64.75-15.976562-4.507813-33.390625-.277344-51.742187 12.5625-3.859375 2.621094-9.113282 1.65625-11.789063-2.167969-2.671875-3.824219-1.78125-9.089844 2.007813-11.816406 22.757812-15.921875 45.023437-20.964844 66.15625-15.003907 36.933594 10.421876 59.625 51.457032 69.867187 74.996094 1.148438 2.640625.890625 5.683594-.6875 8.097656-1.574219 2.410157-4.257812 3.871094-7.136719 3.882813zm0 0"/><path d="m153.601562 418.132812c-4.714843 0-8.535156-3.820312-8.535156-8.53125v-70.570312c0-4.714844 3.820313-8.535156 8.535156-8.535156 4.710938 0 8.53125 3.820312 8.53125 8.535156v70.570312c0 4.710938-3.820312 8.53125-8.53125 8.53125zm0 0"/><path d="m204.800781 418.132812c-4.714843 0-8.535156-3.820312-8.535156-8.53125v-70.570312c0-4.714844 3.820313-8.535156 8.535156-8.535156 4.710938 0 8.53125 3.820312 8.53125 8.535156v70.570312c0 4.710938-3.820312 8.53125-8.53125 8.53125zm0 0"/><path d="m332.800781 512h-307.199219c-14.132812-.015625-25.585937-11.46875-25.601562-25.601562-.0390625-29.429688 11.636719-57.667969 32.449219-78.480469s49.050781-32.488281 78.484375-32.453125h42.667968c4.710938 0 8.53125 3.824218 8.53125 8.535156s-3.820312 8.535156-8.53125 8.535156h-42.667968c-24.90625-.039062-48.804688 9.835938-66.417969 27.449219-17.609375 17.609375-27.488281 41.507813-27.449219 66.414063.003906 4.710937 3.824219 8.53125 8.535156 8.535156h307.199219c2.226563.019531 4.367188-.867188 5.925781-2.457032 1.667969-1.578124 2.613282-3.777343 2.605469-6.078124-.023437-5.664063-.523437-11.316407-1.5-16.894532-.695312-4.59375 2.414063-8.902344 6.992188-9.691406 4.582031-.785156 8.949219 2.238281 9.824219 6.800781 1.140624 6.535157 1.726562 13.152344 1.75 19.785157-.070313 14.109374-11.488282 25.53125-25.597657 25.601562zm0 0"/><path d="m318.207031 420.863281c-2.199219.003907-4.3125-.84375-5.898437-2.371093-17.433594-16.726563-40.679688-26.03125-64.84375-25.957032h-42.664063c-4.714843 0-8.535156-3.824218-8.535156-8.535156s3.820313-8.535156 8.535156-8.535156h42.664063c28.5625-.078125 56.039062 10.925781 76.644531 30.703125 2.515625 2.410156 3.316406 6.109375 2.015625 9.339843-1.296875 3.234376-4.433594 5.355469-7.917969 5.355469zm0 0"/><path d="m281.601562 119.464844c-2.257812.003906-4.421874-.890625-6.019531-2.480469-.566406-.554687-33.113281-31.652344-96.382812-31.652344-63.515625 0-96.066407 31.34375-96.390625 31.660157-1.945313 1.917968-4.695313 2.792968-7.390625 2.351562-2.699219-.445312-5.019531-2.152344-6.25-4.59375l-25.601563-51.199219c-1.199218-2.402343-1.199218-5.230469 0-7.632812 1.140625-2.285157 29.183594-55.917969 135.632813-55.917969s134.492187 53.632812 135.632812 55.917969c1.203125 2.402343 1.203125 5.230469 0 7.632812l-25.597656 51.199219c-1.226563 2.453125-3.558594 4.167969-6.265625 4.609375-.453125.070313-.910156.105469-1.367188.105469zm-102.402343-51.199219c35.4375-.957031 70.273437 9.304687 99.535156 29.316406l18.699219-37.398437c-7.625-10.753906-37.308594-43.117188-118.234375-43.117188-80.847657 0-110.550781 32.300782-118.234375 43.121094l18.703125 37.394531c29.257812-20.011719 64.09375-30.273437 99.53125-29.316406zm0 0"/><path d="m179.199219 85.332031c-4.710938 0-8.53125-3.820312-8.53125-8.53125v-68.265625c0-4.714844 3.820312-8.535156 8.53125-8.535156 4.714843 0 8.535156 3.820312 8.535156 8.535156v68.265625c0 4.710938-3.820313 8.53125-8.535156 8.53125zm0 0"/><path d="m204.800781 51.199219h-51.199219c-4.714843 0-8.535156-3.820313-8.535156-8.53125 0-4.714844 3.820313-8.535157 8.535156-8.535157h51.199219c4.710938 0 8.53125 3.820313 8.53125 8.535157 0 4.710937-3.820312 8.53125-8.53125 8.53125zm0 0"/><path d="m196.265625 452.265625h-34.132813c-28.261718-.03125-51.167968-22.933594-51.199218-51.199219v-17.066406c0-4.710938 3.820312-8.535156 8.53125-8.535156 4.714844 0 8.535156 3.824218 8.535156 8.535156v17.066406c.019531 18.84375 15.289062 34.113282 34.132812 34.132813h34.132813c18.84375-.019531 34.113281-15.289063 34.132813-34.132813v-17.066406c0-4.710938 3.820312-8.535156 8.535156-8.535156 4.710937 0 8.53125 3.824218 8.53125 8.535156v17.066406c-.027344 28.265625-22.933594 51.167969-51.199219 51.199219zm0 0"/><path d="m179.199219 512c-4.710938 0-8.53125-3.820312-8.53125-8.535156v-45.339844c-7.09375 3.234375-14.511719 5.699219-22.125 7.355469-15.769531 3.847656-32.398438 1.898437-46.847657-5.488281-18.542968-9.875-34.867187-31.003907-30.203124-52.285157 2.574218-10.597656 9.265624-19.738281 18.59375-25.394531 6.171874-4.1875 13.394531-6.558594 20.847656-6.847656 4.710937 0 8.53125 3.824218 8.53125 8.535156s-3.820313 8.535156-8.53125 8.535156c-4.183594.285156-8.210938 1.71875-11.632813 4.140625-5.484375 3.257813-9.480469 8.527344-11.140625 14.6875-2.710937 12.378907 8.832032 26.785157 21.546875 33.5625 10.910157 5.402344 23.378907 6.777344 35.199219 3.878907 10.53125-2.253907 20.570312-6.394532 29.628906-12.21875 2.621094-1.710938 5.972656-1.851563 8.726563-.359376 2.757812 1.492188 4.472656 4.375 4.472656 7.507813v59.730469c0 4.714844-3.820313 8.535156-8.535156 8.535156zm0 0"/><path d="m228.875 467.316406c-5.582031-.015625-11.148438-.632812-16.601562-1.835937-12.558594-2.699219-24.527344-7.644531-35.324219-14.601563-2.554688-1.667968-4.023438-4.570312-3.855469-7.613281.167969-3.046875 1.945312-5.769531 4.667969-7.148437 2.71875-1.375 5.96875-1.195313 8.519531.46875 9.058594 5.824218 19.097656 9.964843 29.625 12.21875 11.824219 2.898437 24.292969 1.523437 35.203125-3.878907 12.722656-6.777343 24.257813-21.183593 21.539063-33.5625-1.621094-6.179687-5.628907-11.460937-11.140626-14.6875-3.421874-2.421875-7.441406-3.855469-11.625-4.140625-4.710937 0-8.53125-3.824218-8.53125-8.535156s3.820313-8.535156 8.53125-8.535156c7.453126.289062 14.679688 2.660156 20.851563 6.847656 9.328125 5.652344 16.015625 14.792969 18.582031 25.394531 4.675782 21.277344-11.648437 42.410157-30.191406 52.285157-9.324219 4.898437-19.71875 7.414062-30.25 7.324218zm0 0"/><path d="m348.773438 476.980469c-1.265626-.28125-2.265626-.511719-3.191407-.816407-8.886719-2.160156-16.996093-6.75-23.425781-13.253906-13.910156-14.050781-18.5625-34.8125-11.980469-53.457031 2.511719-7.164063 6.605469-13.667969 11.980469-19.027344l48.300781-48.214843c19.992188-19.992188 52.40625-19.992188 72.398438 0 19.992187 19.988281 19.992187 52.402343 0 72.394531l-9.554688 9.558593c-3.347656 3.234376-8.671875 3.1875-11.964843-.101562-3.289063-3.292969-3.335938-8.617188-.101563-11.964844l9.554687-9.554687c6.441407-6.394531 10.054688-15.101563 10.042969-24.175781.003907-13.8125-8.320312-26.265626-21.085937-31.542969-12.765625-5.277344-27.453125-2.339844-37.207032 7.445312l-48.324218 48.234375c-3.574219 3.570313-6.296875 7.898438-7.964844 12.667969-4.503906 12.4375-1.382812 26.363281 8 35.691406 4.375 4.386719 9.890625 7.464844 15.925781 8.878907 1.109375.328124 1.535157.40625 1.925781.492187zm0 0"/><path d="m398.082031 426.667969c-2.265625 0-4.4375-.898438-6.035156-2.5l-45.738281-45.738281c-3.261719-3.347657-3.226563-8.691407.074218-11.992188 3.304688-3.304688 8.648438-3.335938 11.992188-.078125l45.738281 45.738281c2.441407 2.441406 3.171875 6.113282 1.851563 9.300782-1.320313 3.1875-4.433594 5.269531-7.882813 5.269531zm0 0"/><path d="m460.800781 512h-68.265625c-28.277344 0-51.203125-22.921875-51.203125-51.199219 0-28.277343 22.925781-51.199219 51.203125-51.199219h68.265625c28.277344 0 51.199219 22.921876 51.199219 51.199219 0 28.277344-22.921875 51.199219-51.199219 51.199219zm-68.265625-85.332031c-18.851562 0-34.136718 15.28125-34.136718 34.132812 0 18.851563 15.285156 34.132813 34.136718 34.132813h68.265625c18.851563 0 34.132813-15.28125 34.132813-34.132813 0-18.851562-15.28125-34.132812-34.132813-34.132812zm0 0"/><path d="m426.667969 512c-4.714844 0-8.535157-3.820312-8.535157-8.535156v-85.332032c0-4.710937 3.820313-8.53125 8.535157-8.53125 4.710937 0 8.53125 3.820313 8.53125 8.53125v85.332032c0 4.714844-3.820313 8.535156-8.53125 8.535156zm0 0"/></svg>