<svg height="512pt" viewBox="0 0 512.00009 512" width="512pt" xmlns="http://www.w3.org/2000/svg"><path d="m324.265625 247.464844c9.414063-.027344 17.039063-7.652344 17.066406-17.066406-.066406-9.394532-7.667969-16.996094-17.066406-17.066407h-.085937c.085937-1.449219.085937-11.433593.085937-12.796875-.027344-36.019531-14.144531-70.597656-39.335937-96.34375l-105.730469-64-105.726563 64c-25.226562 25.722656-39.351562 60.316406-39.339844 96.34375 0 1.363282 0 11.347656.085938 12.796875h-.085938c-9.398437.070313-16.996093 7.671875-17.066406 17.066407.027344 9.414062 7.652344 17.039062 17.066406 17.066406h-.011718s8.53125 42.667968-8.535156 76.800781c-15.1875 30.378906-10.066407 67.585937 15.363281 87.382813l280.84375 6.070312 13.054687-27.832031c9.308594-21.050781 8.554688-45.191407-2.046875-65.621094-17.066406-34.132813-8.535156-76.800781-8.535156-76.800781zm-20.734375-50.855469.070312.296875c-.03125-.066406-.054687-.140625-.070312-.210938v-.085937c-.074219-.234375-.183594-.488281-.269531-.726563-.019531-.222656-.074219-.4375-.15625-.640624.167969.425781.253906.9375.425781 1.367187zm-10.714844-19.585937c-5.640625-8.210938-11.214844-14.890626-11.214844-14.890626s5.582032 6.683594 11.214844 14.890626zm1.792969 2.667968c-.433594-.65625-.867187-1.296875-1.304687-1.9375.4375.640625.875 1.28125 1.304687 1.9375zm-87.875-24.929687c-19.082031-5.898438-36.457031-16.304688-50.660156-30.34375h.085937c14.171875 14.035156 31.519532 24.445312 50.574219 30.34375zm17.828125 4.65625c-.902344-.179688-1.734375-.410157-2.621094-.601563.886719.191406 1.71875.417969 2.621094.601563zm-9.246094-2.132813c-2.09375-.550781-4.066406-1.167968-6.050781-1.773437 1.980469.605469 3.957031 1.222656 6.050781 1.769531zm-145.683594 9.457032c-.308593.453124-.585937.925781-.832031 1.417968l-.105469.03125c.28125-.5.59375-.984375.9375-1.449218zm235.070313 80.722656.023437-.082032 1.789063.082032zm0 0" fill="#af8066"/><path d="m334.847656 389.886719-13.054687 27.820312-23.382813-.511719-257.449218-5.546874c-25.429688-19.796876-30.550782-57.003907-15.359376-87.382813 17.066407-34.132813 8.53125-76.800781 8.53125-76.800781h290.132813s-8.53125 42.667968 8.535156 76.800781c10.601563 20.429687 11.355469 44.570313 2.046875 65.621094zm0 0" fill="#783e22"/><path d="m311.210938 389.886719-12.800782 27.308593-257.449218-5.546874c-25.429688-19.796876-30.550782-57.003907-15.359376-87.382813 17.066407-34.132813 8.53125-76.800781 8.53125-76.800781h266.496094s-8.53125 42.667968 8.535156 76.800781c10.601563 20.429687 11.355469 44.570313 2.046876 65.621094zm0 0" fill="#a0522d"/><path d="m348.246094 468.054688-30.039063-55.722657c-17.886719-17.183593-41.4375-27.226562-66.21875-28.246093-.707031-.070313-1.421875-.101563-2.132812-.085938h-138.921875c-.710938-.015625-1.425782.015625-2.132813.085938-55.746093 1.023437-100.371093 46.558593-100.265625 102.3125.027344 9.414062 7.652344 17.039062 17.066406 17.066406h307.199219c9.398438-.066406 16.996094-7.667969 17.066407-17.066406-.019532-6.148438-.5625-12.285157-1.621094-18.34375zm-187.425782-15.171876c-.902343.335938-1.792968.652344-2.703124.964844.90625-.3125 1.804687-.632812 2.703124-.964844zm11.042969-4.796874c-.257812.128906-.535156.214843-.792969.339843 2.792969-1.414062 5.507813-2.984375 8.128907-4.691406-2.386719 1.535156-4.777344 2.984375-7.335938 4.351563zm11.945313-2.988282c-.769532-.402344-1.511719-.859375-2.21875-1.363281 1.664062 1.082031 3.425781 2.039063 5.171875 3.015625-.894531-.503906-1.824219-.949219-2.695313-1.480469-.085937-.085937-.171875-.085937-.257812-.171875zm11.066406 5.699219c-1.578125-.695313-3.148438-1.390625-4.683594-2.167969 1.535156.777344 3.105469 1.472656 4.683594 2.167969zm11.195312 4.214844c2.664063.8125 5.347657 1.535156 8.03125 2.117187-2.683593-.59375-5.367187-1.304687-8.03125-2.117187zm-8.113281-2.863281c1.597657.640624 3.222657 1.183593 4.847657 1.738281-1.625-.554688-3.25-1.097657-4.847657-1.738281zm0 0" fill="#fdd7ad"/><path d="m238.933594 384v17.066406c-.007813 23.5625-19.105469 42.660156-42.667969 42.667969h-34.132813c-23.558593-.007813-42.65625-19.105469-42.667968-42.667969v-17.066406zm0 0" fill="#ffe0b2"/><path d="m349.867188 486.398438c-.070313 9.398437-7.667969 17-17.066407 17.066406h-307.199219c-9.414062-.027344-17.039062-7.652344-17.066406-17.066406-.105468-55.753907 44.519532-101.289063 100.265625-102.3125-5.046875.679687-9.867187 2.519531-14.082031 5.375-7.40625 4.476562-12.765625 11.675781-14.933594 20.054687-3.839844 17.664063 11.351563 35.15625 25.941406 42.921875 12.664063 6.382812 27.183594 8.046875 40.960938 4.691406 8.75-1.910156 17.210938-4.949218 25.175781-9.042968 2.558594-1.367188 4.949219-2.816407 7.335938-4.351563h2.390625c.707031.503906 1.449218.960937 2.21875 1.363281.085937.085938.171875.085938.253906.171875 9.296875 5.570313 19.445312 9.578125 30.039062 11.859375 13.804688 3.351563 28.351563 1.6875 41.046876-4.691406 14.503906-7.765625 29.695312-25.257812 25.855468-42.921875-2.132812-8.371094-7.464844-15.574219-14.847656-20.054687-4.246094-2.855469-9.09375-4.695313-14.167969-5.375 24.78125 1.019531 48.332031 11.0625 66.21875 28.246093l30.039063 55.722657c1.058594 6.058593 1.601562 12.195312 1.621094 18.34375zm0 0" fill="#f5f5f5"/><path d="m179.199219 443.734375c-9.9375 6.390625-20.953125 10.929687-32.511719 13.394531-13.777344 3.355469-28.296875 1.691406-40.960938-4.691406-14.589843-7.765625-29.78125-25.257812-25.941406-42.921875 2.167969-8.378906 7.527344-15.578125 14.933594-20.054687 4.214844-2.855469 9.035156-4.695313 14.082031-5.375.707031-.070313 1.421875-.101563 2.132813-.085938h8.53125v17.066406c.011718 23.5625 19.109375 42.660156 42.667968 42.667969zm0 0" fill="#009688"/><path d="m255.148438 452.4375c-12.695313 6.378906-27.242188 8.042969-41.046876 4.691406-11.554687-2.480468-22.566406-7.015625-32.511718-13.394531h14.675781c23.5625-.007813 42.660156-19.105469 42.667969-42.667969v-17.066406h10.921875c.710937-.015625 1.425781.015625 2.132812.085938 5.074219.679687 9.921875 2.519531 14.167969 5.375 7.382812 4.480468 12.714844 11.683593 14.847656 20.054687 3.839844 17.664063-11.351562 35.15625-25.855468 42.921875zm0 0" fill="#009688"/><path d="m153.601562 339.03125h51.199219v70.570312h-51.199219zm0 0" fill="#ffe0b2"/><path d="m56.148438 247.464844h-22.015626c-9.414062-.027344-17.039062-7.652344-17.066406-17.066406.066406-9.394532 7.667969-16.996094 17.066406-17.066407h21.417969" fill="#dfc49c"/><path d="m341.332031 230.398438c-.027343 9.414062-7.652343 17.039062-17.066406 17.066406h-17.75l-1.789063-.082032c.765626-3.585937 1.363282-7.253906 1.789063-10.925781.445313-4.023437.671875-8.066406.683594-12.117187.019531-3.675782-.179688-7.351563-.597657-11.007813h17.664063c9.398437.070313 17 7.671875 17.066406 17.066407zm0 0" fill="#dfc49c"/><path d="m324.265625 200.535156c0 1.363282 0 11.347656-.085937 12.796875h-17.578126c-.253906-3.070312-.765624-6.144531-1.277343-9.214843-.511719-2.558594-1.109375-5.035157-1.792969-7.507813-.171875-.429687-.257812-.941406-.425781-1.367187.164062.316406.25.667968.253906 1.023437-5.648437-12.324219-12.972656-23.808594-21.757813-34.132813-70.402343 5.886719-108.628906-20.566406-125.441406-37.714843h-.085937l-.085938-.085938c-5.101562-1.785156-10.402343-2.929687-15.785156-3.414062-7.851563 12.628906-27.222656 34.390625-71.425781 47.273437.253906-.5.539062-.984375.855468-1.449218-.34375.464843-.65625.949218-.9375 1.449218-4.824218 7.949219-9.101562 16.21875-12.800781 24.746094v.085938c-1.109375 3.671874-2.050781 7.339843-2.816406 11.09375-.511719 3.070312-1.023437 6.144531-1.28125 9.214843h-17.578125c-.085938-1.449219-.085938-11.433593-.085938-12.796875-.011718-36.027344 14.113282-70.621094 39.339844-96.34375l105.726563-64 105.730469 64c25.191406 25.746094 39.308593 60.324219 39.335937 96.34375zm0 0" fill="#91562d"/><path d="m324.265625 200.535156c0 1.363282 0 11.347656-.085937 12.796875h-17.578126c-.253906-3.070312-.765624-6.144531-1.277343-9.214843-.511719-2.558594-1.109375-5.035157-1.792969-7.507813-.171875-.429687-.257812-.941406-.425781-1.367187.164062.316406.25.667968.253906 1.023437-.886719-2.582031-1.972656-5.089844-3.242187-7.507813-2.785157-31.828124-16.503907-61.707031-38.828126-84.566406l-93.863281-56.832031 11.773438-7.167969 105.730469 64c25.191406 25.746094 39.308593 60.324219 39.335937 96.34375zm0 0" fill="#6d4122"/><path d="m69.632812 166.742188c-.316406.464843-.601562.949218-.855468 1.449218h-.082032c.28125-.5.59375-.984375.9375-1.449218zm0 0" fill="#af8066"/><path d="m303.53125 196.609375c-.023438-.128906-.082031-.25-.171875-.34375-.003906-.355469-.089844-.707031-.253906-1.023437.167969.425781.253906.9375.425781 1.367187zm0 0" fill="#af8066"/><path d="m281.601562 110.933594 25.597657-51.199219s-25.597657-51.199219-128-51.199219c-102.398438 0-128 51.199219-128 51.199219l25.601562 51.199219s34.132813-34.132813 102.398438-34.132813 102.402343 34.132813 102.402343 34.132813zm0 0" fill="#f5f5f5"/><path d="m307.199219 59.734375-25.597657 51.199219c-7.21875-6.535156-15.320312-12.019532-24.066406-16.300782l.425782-.765624 25.601562-51.199219c-2.976562-5.21875-6.746094-9.941407-11.179688-13.996094 14.335938 6.816406 26.417969 17.59375 34.816407 31.0625zm0 0" fill="#cfd8dc"/><path d="m436.820312 348.246094c-7.984374-8.03125-18.839843-12.546875-30.164062-12.546875s-22.179688 4.515625-30.164062 12.546875l-24.152344 24.148437-24.148438 24.0625c-16.601562 16.71875-16.601562 43.699219 0 60.417969 5.507813 5.527344 12.457032 9.402344 20.054688 11.179688.785156.238281 1.582031.4375 2.386718.597656-.511718-2.585938-.769531-5.214844-.765624-7.851563-.035157-11.328125 4.449218-22.199219 12.457031-30.207031 8.011719-8.011719 18.882812-12.496094 30.210937-12.460938h34.730469l9.554687-9.558593c8.03125-7.984375 12.546876-18.839844 12.546876-30.164063 0-11.324218-4.515626-22.179687-12.546876-30.164062zm0 0" fill="#ecf0f1"/><path d="m449.367188 378.367188c.003906 11.339843-4.511719 22.210937-12.546876 30.207031l-9.554687 9.558593h-29.183594l-45.742187-45.738281 24.152344-24.148437c12.207031-12.179688 30.542968-15.824219 46.480468-9.238282 15.9375 6.589844 26.347656 22.117188 26.394532 39.359376zm0 0" fill="#cfd8dc"/><path d="m425.726562 378.367188c.007813 11.339843-4.507812 22.210937-12.542968 30.207031l-9.558594 9.558593h-5.542969l-45.742187-45.738281 24.152344-24.148437c5.097656-5.105469 11.410156-8.835938 18.34375-10.839844 18.246093 5.289062 30.824218 21.964844 30.890624 40.960938zm0 0" fill="#f5f5f5"/><path d="m398.082031 418.132812h-5.546875c-11.328125-.035156-22.199218 4.449219-30.210937 12.460938-8.007813 8.007812-12.492188 18.878906-12.457031 30.207031-.003907 2.636719.253906 5.265625.765624 7.851563-.804687-.160156-1.601562-.359375-2.386718-.597656-7.597656-1.777344-14.546875-5.652344-20.054688-11.179688-16.601562-16.71875-16.601562-43.699219 0-60.417969l24.148438-24.0625zm0 0" fill="#60a917"/><path d="m460.800781 418.132812h-68.265625c-11.328125-.035156-22.199218 4.449219-30.210937 12.460938-8.007813 8.007812-12.492188 18.878906-12.457031 30.207031-.003907 2.636719.253906 5.265625.765624 7.851563 3.757813 20.179687 21.371094 34.816406 41.902344 34.8125h68.265625c23.5625 0 42.664063-19.101563 42.664063-42.664063 0-23.566406-19.101563-42.667969-42.664063-42.667969zm0 0" fill="#ecf0f1"/><path d="m426.667969 418.132812v85.332032h-34.132813c-20.53125.003906-38.144531-14.632813-41.902344-34.8125-.511718-2.585938-.769531-5.214844-.765624-7.851563-.035157-11.328125 4.449218-22.199219 12.457031-30.207031 8.011719-8.011719 18.882812-12.496094 30.210937-12.460938zm0 0" fill="#f44335"/><path d="m503.464844 460.800781c-.007813 23.558594-19.105469 42.65625-42.664063 42.664063h-34.132812v-85.332032h34.132812c23.558594.007813 42.65625 19.105469 42.664063 42.667969zm0 0" fill="#cfd8dc"/><path d="m479.828125 460.800781c-.007813 23.558594-19.105469 42.65625-42.664063 42.664063h-10.496093v-85.332032h10.496093c23.558594.007813 42.65625 19.105469 42.664063 42.667969zm0 0" fill="#f5f5f5"/><path d="m69.632812 166.742188c-.316406.464843-.601562.949218-.855468 1.449218h-.082032c.28125-.5.59375-.984375.9375-1.449218zm0 0" fill="#af8066"/><path d="m303.53125 196.609375c-.023438-.128906-.082031-.25-.171875-.34375-.003906-.355469-.089844-.707031-.253906-1.023437.167969.425781.253906.9375.425781 1.367187zm0 0" fill="#af8066"/><path d="m307.199219 224.339844c-.011719 4.050781-.238281 8.09375-.683594 12.117187-.425781 3.671875-1.023437 7.339844-1.789063 10.925781-1.527343 7.136719-3.816406 14.085938-6.828124 20.734376-1.558594 3.597656-3.324219 7.105468-5.289063 10.496093-.941406 1.621094-1.964844 3.242188-2.988281 4.863281-.769532 1.195313-1.449219 2.304688-2.21875 3.414063-.085938.171875-.253906.257813-.253906.425781-1.707032 2.304688-3.414063 4.609375-5.207032 6.828125-1.878906 2.21875-3.753906 4.4375-5.71875 6.484375-2.046875 2.21875-4.179687 4.265625-6.398437 6.316406-1.960938 1.789063-4.011719 3.496094-6.058594 5.203126-.503906.375-.988281.773437-1.449219 1.195312-2.136718 1.621094-4.269531 3.15625-6.488281 4.695312-2.386719 1.621094-4.863281 3.15625-7.335937 4.691407-.246094.113281-.476563.253906-.683594.425781-2.476563 1.367188-5.035156 2.730469-7.59375 4.011719-2.21875 1.109375-4.4375 2.21875-6.742188 3.15625-.597656.257812-1.28125.511719-1.878906.769531-2.730469 1.109375-5.375 2.132812-8.191406 3.070312-.085938 0-.171875.085938-.339844.085938-2.476562.855469-5.035156 1.621094-7.597656 2.304688-.851563.257812-1.789063.511718-2.644532.683593-.472656.152344-.957031.265625-1.449218.339844-1.792969.511719-3.585938.855469-5.375 1.195313-1.367188.257812-2.648438.511718-4.011719.683593-1.707031.339844-3.5.597657-5.207031.765625-1.523438.257813-3.0625.425782-4.605469.511719-2.132813.257813-4.269531.34375-6.402344.429687-2.21875.082032-4.351562.167969-6.570312.167969-4.011719 0-8.019531-.167969-11.859375-.511719-2.132813-.167968-4.269532-.339843-6.402344-.679687-1.535156-.171875-3.070312-.429687-4.519531-.683594-.941407-.085937-1.878907-.257812-2.816407-.425781-3.421874-.597656-6.8125-1.367188-10.15625-2.304688-2.644531-.683593-5.289062-1.453124-7.851562-2.390624-.273438-.007813-.542969-.09375-.765625-.257813-2.695313-.824219-5.34375-1.792969-7.9375-2.898437-3.5-1.453126-6.996094-3.074219-10.324219-4.78125-2.21875-1.109376-4.351562-2.300782-6.484375-3.582032-2.648437-1.535156-5.207031-3.15625-7.683593-4.863281-2.300782-1.535156-4.605469-3.242187-6.824219-5.035156-.171875-.085938-.34375-.257813-.597657-.425781-2.21875-1.792969-4.4375-3.671876-6.570312-5.632813-14.148438-12.859375-24.855469-29.050781-31.148438-47.105469-.511718-1.363281-.9375-2.730468-1.363281-4.179687-.429687-1.453125-.855469-2.902344-1.195312-4.4375-.421875-1.34375-.761719-2.710938-1.023438-4.097657l-1.023437-5.117187c-.257813-1.792969-.511719-3.585937-.769532-5.464844-.441406-4.023437-.671874-8.066406-.683593-12.117187-.019531-3.675782.179687-7.351563.597656-11.007813.257813-3.070312.769531-6.144531 1.28125-9.214843.597656-2.988282 1.363281-5.886719 2.132813-8.789063v-.085937l4.523437-24.574219c3.070313-.769531 6.058594-1.539063 8.960937-2.476563 37.289063-10.835937 56.914063-27.988281 66.898438-40.703125 1.664062-2.097656 3.203125-4.292969 4.609375-6.570312 2.054687-3.101563 3.6875-6.457031 4.863281-9.984375 3.082032 4.894531 6.75 9.394531 10.921875 13.398437 14.082031 14.335938 43.351563 35.496094 94.378907 38.3125 2.644531.171875 5.375.257813 8.191406.257813 7.691406.15625 15.378906-.101563 23.042968-.769532 8.867188 10.421876 16.246094 22.023438 21.929688 34.476563v.085937c0 .082032.085938.167969.085938.253907.597656 2.390625 1.195312 4.777343 1.707031 7.167969.511719 3.070312 1.023437 6.144531 1.277343 9.214843.417969 3.65625.617188 7.332031.597657 11.007813zm0 0" fill="#dfc49c"/><path d="m283.5625 224.339844c-.011719 4.050781-.238281 8.09375-.683594 12.117187-.425781 3.671875-1.023437 7.339844-1.789062 10.925781-1.527344 7.136719-3.816406 14.085938-6.828125 20.734376-1.558594 3.597656-3.324219 7.105468-5.289063 10.496093-.941406 1.621094-1.964844 3.242188-2.988281 4.863281-.769531 1.195313-1.449219 2.304688-2.21875 3.414063-.085937.171875-.257813.257813-.257813.425781-1.703124 2.304688-3.410156 4.609375-5.203124 6.828125-1.878907 2.21875-3.753907 4.4375-5.71875 6.484375-2.046876 2.21875-4.179688 4.265625-6.398438 6.316406-1.964844 1.789063-4.011719 3.496094-6.058594 5.203126-.503906.375-.988281.773437-1.453125 1.195312-2.132812 1.621094-4.265625 3.15625-6.484375 4.695312-2.386718 1.621094-4.863281 3.15625-7.339844 4.691407-.242187.109375-.472656.253906-.679687.425781-2.476563 1.367188-5.035156 2.730469-7.597656 4.011719-2.214844 1.109375-4.433594 2.21875-6.738281 3.15625-.597657.257812-1.28125.511719-1.878907.769531-2.730469 1.109375-5.375 2.132812-8.191406 3.070312-.085937 0-.171875.085938-.339844.085938-2.476562.855469-5.035156 1.621094-7.597656 2.304688-.851563.257812-1.789063.511718-2.644531.683593-.472656.152344-.957032.265625-1.449219.339844-1.792969.511719-3.585937.855469-5.375 1.195313-1.367187.257812-2.648437.511718-4.011719.683593-1.707031.339844-3.5.597657-5.207031.765625-1.523437.257813-3.0625.425782-4.605469.511719-.394531.074219-.796875.101563-1.195312.085937-2.132813-.167968-4.269532-.339843-6.402344-.679687-1.535156-.171875-3.070312-.429687-4.519531-.683594-.941407-.085937-1.878907-.257812-2.816407-.425781-3.421874-.597656-6.8125-1.367188-10.15625-2.304688-2.644531-.683593-5.289062-1.453124-7.851562-2.390624-.273438-.007813-.542969-.09375-.765625-.257813-2.695313-.824219-5.34375-1.792969-7.9375-2.898437-3.5-1.453126-6.996094-3.074219-10.324219-4.78125-2.21875-1.109376-4.351562-2.300782-6.484375-3.582032-2.648437-1.535156-5.207031-3.15625-7.683593-4.863281-2.300782-1.535156-4.605469-3.242187-6.824219-5.035156-.171875-.085938-.34375-.257813-.597657-.425781-2.21875-1.792969-4.4375-3.671876-6.570312-5.632813-14.148438-12.859375-24.855469-29.050781-31.148438-47.105469-.511718-1.363281-.9375-2.730468-1.363281-4.179687-.429687-1.453125-.855469-2.902344-1.195312-4.4375-.421875-1.34375-.761719-2.710938-1.023438-4.097657l-1.023437-5.117187c-.257813-1.792969-.511719-3.585937-.769532-5.464844-.441406-4.023437-.671874-8.066406-.683593-12.117187-.019531-3.675782.179687-7.351563.597656-11.007813.257813-3.070312.769531-6.144531 1.28125-9.214843.597656-2.988282 1.363281-5.886719 2.132813-8.789063v-.085937l4.523437-24.574219c3.070313-.769531 6.058594-1.539063 8.960937-2.476563 37.289063-10.835937 56.914063-27.988281 66.898438-40.703125 17.410156 16.296875 52.992188 38.398438 114.773438 35.15625 2.476562-.085937 5.035156-.253906 7.59375-.511719.222656.238282.421874.496094.597656.769532 8.695312 10.152344 15.878906 21.503906 21.335937 33.707031v.085937c0 .082032.085938.167969.085938.253907.59375 2.390625 1.191406 4.777343 1.703125 7.167969.515625 3.070312 1.027344 6.144531 1.28125 9.214843.417968 3.65625.617187 7.332031.597656 11.007813zm0 0" fill="#ffe0b2"/><path d="m205.996094 338.773438c-.429688.085937-.769532.171874-1.195313.257812-.9375.167969-1.878906.339844-2.816406.425781" fill="#fdd7ad"/><path d="m160.9375 340.140625c-1.519531-.144531-3.027344-.375-4.519531-.683594" fill="#fdd7ad"/><path d="m51.882812 256h-17.75c-14.132812-.015625-25.582031-11.46875-25.597656-25.601562.066406-14.109376 11.488282-25.527344 25.597656-25.597657h17.664063c4.714844 0 8.535156 3.820313 8.535156 8.53125 0 4.714844-3.820312 8.535157-8.535156 8.535157h-17.578125c-2.253906-.039063-4.425781.851562-6.007812 2.457031-1.671876 1.578125-2.617188 3.777343-2.609376 6.074219.003907 4.710937 3.820313 8.53125 8.53125 8.535156h17.75c4.710938 0 8.535157 3.820312 8.535157 8.53125 0 4.714844-3.824219 8.535156-8.535157 8.535156zm0 0"/><path d="m324.265625 256h-17.75c-4.710937 0-8.53125-3.820312-8.53125-8.535156 0-4.710938 3.820313-8.53125 8.53125-8.53125h17.75c4.710937-.003906 8.53125-3.824219 8.535156-8.535156.019531-2.222657-.863281-4.359376-2.449219-5.917969-1.582031-1.671875-3.785156-2.617188-6.085937-2.613281h-17.664063c-4.710937 0-8.53125-3.820313-8.53125-8.535157 0-4.710937 3.820313-8.53125 8.53125-8.53125h17.578126c14.144531.019531 25.621093 11.453125 25.6875 25.597657-.015626 14.132812-11.46875 25.585937-25.601563 25.601562zm0 0"/><path d="m34.207031 221.835938c-4.511719.011718-8.246093-3.503907-8.507812-8.011719-.089844-1.507813-.097657-11.871094-.097657-13.289063-.015624-38.25 14.980469-74.980468 41.757813-102.292968 3.296875-3.320313 8.648437-3.363282 12.003906-.101563 3.351563 3.261719 3.453125 8.613281.226563 12-23.667969 24.132813-36.925782 56.589844-36.921875 90.394531 0 1.300782-.007813 10.734375.066406 12.324219.234375 4.695313-3.371094 8.703125-8.066406 8.964844-.152344.007812-.308594.011719-.460938.011719zm0 0"/><path d="m324.191406 221.867188c-.171875 0-.332031 0-.5-.011719-4.699218-.277344-8.285156-4.304688-8.019531-9 .070313-1.605469.0625-11.019531.0625-12.320313-.03125-33.804687-13.285156-66.25-36.933594-90.402344-2.152343-2.183593-2.96875-5.351562-2.140625-8.304687.832032-2.949219 3.179688-5.230469 6.15625-5.96875 2.972656-.742187 6.117188.171875 8.234375 2.390625 26.746094 27.332031 41.730469 64.042969 41.75 102.285156 0 1.417969-.007812 11.78125-.101562 13.289063-.253907 4.511719-3.988281 8.039062-8.507813 8.042969zm0 0"/><path d="m153.601562 418.132812c-4.714843 0-8.535156-3.820312-8.535156-8.53125v-70.570312c0-4.714844 3.820313-8.535156 8.535156-8.535156 4.710938 0 8.53125 3.820312 8.53125 8.535156v70.570312c0 4.710938-3.820312 8.53125-8.53125 8.53125zm0 0"/><path d="m204.800781 418.132812c-4.714843 0-8.535156-3.820312-8.535156-8.53125v-70.570312c0-4.714844 3.820313-8.535156 8.535156-8.535156 4.710938 0 8.53125 3.820312 8.53125 8.535156v70.570312c0 4.710938-3.820312 8.53125-8.53125 8.53125zm0 0"/><path d="m332.800781 512h-307.199219c-14.132812-.015625-25.585937-11.46875-25.601562-25.601562-.0390625-29.429688 11.636719-57.667969 32.449219-78.480469s49.050781-32.488281 78.484375-32.453125h42.667968c4.710938 0 8.53125 3.824218 8.53125 8.535156s-3.820312 8.535156-8.53125 8.535156h-42.667968c-24.90625-.039062-48.804688 9.835938-66.417969 27.449219-17.609375 17.609375-27.488281 41.507813-27.449219 66.414063.003906 4.710937 3.824219 8.53125 8.535156 8.535156h307.199219c2.226563.019531 4.367188-.867188 5.925781-2.457032 1.667969-1.578124 2.613282-3.777343 2.605469-6.078124-.023437-5.664063-.523437-11.316407-1.5-16.894532-.695312-4.59375 2.414063-8.902344 6.992188-9.691406 4.582031-.785156 8.949219 2.238281 9.824219 6.800781 1.140624 6.535157 1.726562 13.152344 1.75 19.785157-.070313 14.109374-11.488282 25.53125-25.597657 25.601562zm0 0"/><path d="m318.207031 420.863281c-2.199219.003907-4.3125-.84375-5.898437-2.371093-17.433594-16.726563-40.679688-26.03125-64.84375-25.957032h-42.664063c-4.714843 0-8.535156-3.824218-8.535156-8.535156s3.820313-8.535156 8.535156-8.535156h42.664063c28.5625-.078125 56.039062 10.925781 76.644531 30.703125 2.515625 2.410156 3.316406 6.109375 2.015625 9.339843-1.296875 3.234376-4.433594 5.355469-7.917969 5.355469zm0 0"/><path d="m281.601562 119.464844c-2.257812.003906-4.421874-.890625-6.019531-2.480469-.566406-.554687-33.113281-31.652344-96.382812-31.652344-63.515625 0-96.066407 31.34375-96.390625 31.660157-1.945313 1.917968-4.695313 2.792968-7.390625 2.351562-2.699219-.445312-5.019531-2.152344-6.25-4.59375l-25.601563-51.199219c-1.199218-2.402343-1.199218-5.230469 0-7.632812 1.140625-2.285157 29.183594-55.917969 135.632813-55.917969s134.492187 53.632812 135.632812 55.917969c1.203125 2.402343 1.203125 5.230469 0 7.632812l-25.597656 51.199219c-1.226563 2.453125-3.558594 4.167969-6.265625 4.609375-.453125.070313-.910156.105469-1.367188.105469zm-102.402343-51.199219c35.4375-.957031 70.273437 9.304687 99.535156 29.316406l18.699219-37.398437c-7.625-10.753906-37.308594-43.117188-118.234375-43.117188-80.847657 0-110.550781 32.300782-118.234375 43.121094l18.703125 37.394531c29.257812-20.011719 64.09375-30.273437 99.53125-29.316406zm0 0"/><path d="m179.199219 85.332031c-4.710938 0-8.53125-3.820312-8.53125-8.53125v-68.265625c0-4.714844 3.820312-8.535156 8.53125-8.535156 4.714843 0 8.535156 3.820312 8.535156 8.535156v68.265625c0 4.710938-3.820313 8.53125-8.535156 8.53125zm0 0"/><path d="m204.800781 51.199219h-51.199219c-4.714843 0-8.535156-3.820313-8.535156-8.53125 0-4.714844 3.820313-8.535157 8.535156-8.535157h51.199219c4.710938 0 8.53125 3.820313 8.53125 8.535157 0 4.710937-3.820312 8.53125-8.53125 8.53125zm0 0"/><path d="m196.265625 452.265625h-34.132813c-28.261718-.03125-51.167968-22.933594-51.199218-51.199219v-17.066406c0-4.710938 3.820312-8.535156 8.53125-8.535156 4.714844 0 8.535156 3.824218 8.535156 8.535156v17.066406c.019531 18.84375 15.289062 34.113282 34.132812 34.132813h34.132813c18.84375-.019531 34.113281-15.289063 34.132813-34.132813v-17.066406c0-4.710938 3.820312-8.535156 8.535156-8.535156 4.710937 0 8.53125 3.824218 8.53125 8.535156v17.066406c-.027344 28.265625-22.933594 51.167969-51.199219 51.199219zm0 0"/><path d="m179.199219 512c-4.710938 0-8.53125-3.820312-8.53125-8.535156v-45.339844c-7.09375 3.234375-14.511719 5.699219-22.125 7.355469-15.769531 3.847656-32.398438 1.898437-46.847657-5.488281-18.542968-9.875-34.867187-31.003907-30.203124-52.285157 2.574218-10.597656 9.265624-19.738281 18.59375-25.394531 6.171874-4.1875 13.394531-6.558594 20.847656-6.847656 4.710937 0 8.53125 3.824218 8.53125 8.535156s-3.820313 8.535156-8.53125 8.535156c-4.183594.285156-8.210938 1.71875-11.632813 4.140625-5.484375 3.257813-9.480469 8.527344-11.140625 14.6875-2.710937 12.378907 8.832032 26.785157 21.546875 33.5625 10.910157 5.402344 23.378907 6.777344 35.199219 3.878907 10.53125-2.253907 20.570312-6.394532 29.628906-12.21875 2.621094-1.710938 5.972656-1.851563 8.726563-.359376 2.757812 1.492188 4.472656 4.375 4.472656 7.507813v59.730469c0 4.714844-3.820313 8.535156-8.535156 8.535156zm0 0"/><path d="m228.875 467.316406c-5.582031-.015625-11.148438-.632812-16.601562-1.835937-12.558594-2.699219-24.527344-7.644531-35.324219-14.601563-2.554688-1.667968-4.023438-4.570312-3.855469-7.613281.167969-3.046875 1.945312-5.769531 4.667969-7.148437 2.71875-1.375 5.96875-1.195313 8.519531.46875 9.058594 5.824218 19.097656 9.964843 29.625 12.21875 11.824219 2.898437 24.292969 1.523437 35.203125-3.878907 12.722656-6.777343 24.257813-21.183593 21.539063-33.5625-1.621094-6.179687-5.628907-11.460937-11.140626-14.6875-3.421874-2.421875-7.441406-3.855469-11.625-4.140625-4.710937 0-8.53125-3.824218-8.53125-8.535156s3.820313-8.535156 8.53125-8.535156c7.453126.289062 14.679688 2.660156 20.851563 6.847656 9.328125 5.652344 16.015625 14.792969 18.582031 25.394531 4.675782 21.277344-11.648437 42.410157-30.191406 52.285157-9.324219 4.898437-19.71875 7.414062-30.25 7.324218zm0 0"/><path d="m348.773438 476.980469c-1.265626-.28125-2.265626-.511719-3.191407-.816407-8.886719-2.160156-16.996093-6.75-23.425781-13.253906-13.910156-14.050781-18.5625-34.8125-11.980469-53.457031 2.511719-7.164063 6.605469-13.667969 11.980469-19.027344l48.300781-48.214843c19.992188-19.992188 52.40625-19.992188 72.398438 0 19.992187 19.988281 19.992187 52.402343 0 72.394531l-9.554688 9.558593c-3.347656 3.234376-8.671875 3.1875-11.964843-.101562-3.289063-3.292969-3.335938-8.617188-.101563-11.964844l9.554687-9.554687c6.441407-6.394531 10.054688-15.101563 10.042969-24.175781.003907-13.8125-8.320312-26.265626-21.085937-31.542969-12.765625-5.277344-27.453125-2.339844-37.207032 7.445312l-48.324218 48.234375c-3.574219 3.570313-6.296875 7.898438-7.964844 12.667969-4.503906 12.4375-1.382812 26.363281 8 35.691406 4.375 4.386719 9.890625 7.464844 15.925781 8.878907 1.109375.328124 1.535157.40625 1.925781.492187zm0 0"/><path d="m398.082031 426.667969c-2.265625 0-4.4375-.898438-6.035156-2.5l-45.738281-45.738281c-3.261719-3.347657-3.226563-8.691407.074218-11.992188 3.304688-3.304688 8.648438-3.335938 11.992188-.078125l45.738281 45.738281c2.441407 2.441406 3.171875 6.113282 1.851563 9.300782-1.320313 3.1875-4.433594 5.269531-7.882813 5.269531zm0 0"/><path d="m460.800781 512h-68.265625c-28.277344 0-51.203125-22.921875-51.203125-51.199219 0-28.277343 22.925781-51.199219 51.203125-51.199219h68.265625c28.277344 0 51.199219 22.921876 51.199219 51.199219 0 28.277344-22.921875 51.199219-51.199219 51.199219zm-68.265625-85.332031c-18.851562 0-34.136718 15.28125-34.136718 34.132812 0 18.851563 15.285156 34.132813 34.136718 34.132813h68.265625c18.851563 0 34.132813-15.28125 34.132813-34.132813 0-18.851562-15.28125-34.132812-34.132813-34.132812zm0 0"/><path d="m426.667969 512c-4.714844 0-8.535157-3.820312-8.535157-8.535156v-85.332032c0-4.710937 3.820313-8.53125 8.535157-8.53125 4.710937 0 8.53125 3.820313 8.53125 8.53125v85.332032c0 4.714844-3.820313 8.535156-8.53125 8.535156zm0 0"/><path d="m40.941406 420.179688c-1.894531.003906-3.738281-.628907-5.234375-1.796876-27.824219-21.664062-35.289062-62.84375-17.757812-97.933593 15.507812-31.011719 7.875-70.921875 7.800781-71.320313-.808594-4.570312 2.183594-8.945312 6.734375-9.855468 4.550781-.90625 8.992187 1.988281 10 6.519531.375 1.863281 8.898437 45.957031-9.265625 82.289062-13.917969 27.835938-8.460938 60.152344 12.972656 76.835938 2.878906 2.238281 4.011719 6.058593 2.828125 9.507812-1.1875 3.445313-4.429687 5.761719-8.078125 5.757813zm0 0"/><path d="m334.84375 398.421875c-2.921875-.003906-5.640625-1.5-7.203125-3.96875s-1.753906-5.5625-.507813-8.207031c8.210938-18.679688 7.488282-40.078125-1.960937-58.160156-18.167969-36.335938-9.644531-80.429688-9.269531-82.292969 1-4.539063 5.445312-7.445313 10.003906-6.539063 4.558594.910156 7.550781 5.300782 6.730469 9.875-.074219.402344-7.707031 40.308594 7.800781 71.320313 11.773438 22.773437 12.558594 49.660156 2.132812 73.082031-1.414062 2.988281-4.421874 4.894531-7.726562 4.890625zm0 0"/><path d="m179.199219 349.867188c-9.109375.015624-18.199219-.804688-27.15625-2.445313-52.230469-8.269531-94.339844-47.175781-106.710938-98.589844-.816406-3.734375-1.464843-7.503906-1.921875-11.367187-.480468-4.359375-.730468-8.738282-.742187-13.125-.023438-4.019532.195312-8.035156.65625-12.03125.234375-2.886719.757812-6.105469 1.292969-9.328125.699218-3.570313 1.476562-6.554688 2.257812-9.511719l4.464844-24.34375c.609375-3.300781 3.09375-5.9375 6.351562-6.742188 66.949219-16.507812 78.726563-52.363281 79.199219-53.882812.992187-3.257812 3.820313-5.613281 7.203125-6.003906s6.671875 1.261718 8.382812 4.203125c1.289063 2.210937 33.109376 54.808593 128.414063 46.929687 2.765625-.230468 5.472656.898438 7.253906 3.027344 9.695313 11.238281 17.632813 23.882812 23.542969 37.5.808594 2.914062 1.441406 5.566406 1.992188 8.214844.640624 3.832031 1.164062 7.050781 1.433593 10.269531.4375 3.886719.644531 7.792969.621094 11.699219-.015625 4.351562-.257813 8.695312-.734375 13.019531-.464844 4.019531-1.109375 7.957031-1.933594 11.808594-12.582031 51.222656-54.617187 89.925781-106.699218 98.25-8.960938 1.644531-18.054688 2.464843-27.167969 2.449219zm-115.765625-152.261719c-.71875 2.703125-1.433594 5.40625-1.992188 8.191406-.449218 2.722656-.90625 5.476563-1.132812 8.230469-.402344 3.421875-.59375 6.867187-.574219 10.3125.011719 3.75.222656 7.492187.632813 11.21875.382812 3.199218.933593 6.429687 1.640624 9.65625 10.933594 44.683594 47.691407 78.390625 93.152344 85.425781 15.898438 2.871094 32.183594 2.867187 48.082032-.003906 45.320312-7.070313 82.011718-40.578125 93.148437-85.078125.699219-3.28125 1.261719-6.675782 1.652344-10.082032.402343-3.699218.609375-7.414062.625-11.136718.019531-3.335938-.160157-6.667969-.542969-9.984375-.257812-3.082031-.71875-5.835938-1.175781-8.589844-.457031-2.203125-1.007813-4.503906-1.640625-6.804687-4.507813-10.101563-10.410156-19.523438-17.53125-27.988282-75.875 4.972656-115.261719-26.257812-131.269532-44.101562-9.566406 14.683594-31.53125 37.664062-79.367187 50.683594l-3.539063 19.3125c-.042968.25-.101562.496093-.167968.738281zm0 0"/></svg>