<svg height="512pt" viewBox="0 0 512 512" width="512pt" xmlns="http://www.w3.org/2000/svg"><path d="m477.867188 238.933594h17.066406c4.710937 0 8.53125 3.820312 8.53125 8.53125v62.890625h-34.132813v-62.890625c0-4.710938 3.820313-8.53125 8.535157-8.53125zm0 0" fill="#f44335"/><path d="m503.464844 307.199219v68.265625l-85.332032 6.914062v-66.644531c.015626-4.707031 3.828126-8.519531 8.535157-8.535156zm0 0" fill="#0377bc"/><path d="m479.828125 307.199219v68.265625l-61.695313 5.035156v-64.765625c.015626-4.707031 3.828126-8.519531 8.535157-8.535156zm0 0" fill="#02a9f4"/><path d="m349.867188 484.011719v2.386719c-.027344 9.414062-7.652344 17.039062-17.066407 17.066406h-307.199219c-9.414062-.027344-17.039062-7.652344-17.066406-17.066406v-17.066407c0-2.898437.082032-5.714843.339844-8.53125 4.339844-53.113281 48.769531-93.976562 102.058594-93.867187h136.53125c27.578125-.09375 54.003906 11.027344 73.21875 30.804687zm0 0" fill="#f5f5f5"/><path d="m204.800781 321.960938v61.015624c-13.226562 18.6875-25.601562 35.15625-25.601562 35.15625s-12.371094-16.46875-25.597657-35.15625v-61.015624zm0 0" fill="#ffe0b2"/><path d="m60.414062 230.398438h-26.28125c-9.414062-.027344-17.039062-7.652344-17.066406-17.066407.066406-9.394531 7.667969-16.996093 17.066406-17.066406h17.664063zm0 0" fill="#ffe0b2"/><path d="m306.601562 196.265625h17.664063c9.398437.070313 17 7.671875 17.066406 17.066406-.027343 9.414063-7.652343 17.039063-17.066406 17.066407h-30.546875zm0 0" fill="#dfc49c"/><path d="m307.199219 207.273438c-.011719 4.050781-.238281 8.09375-.683594 12.117187-6.652344 58.964844-61.097656 104.875-127.316406 104.875-3.925781 0-7.851563-.167969-11.773438-.511719-60.757812-5.035156-109.3125-48.894531-115.542969-104.363281-.441406-4.023437-.671874-8.066406-.683593-12.117187-.011719-6.003907.503906-12 1.535156-17.917969.074219-.773438.1875-1.542969.34375-2.304688.765625-3.753906 1.707031-7.507812 2.816406-11.179687l111.53125-46.25 11.773438-4.949219 123.308593 51.199219c1.109376 3.671875 2.046876 7.425781 2.816407 11.179687.152343.761719.269531 1.53125.339843 2.304688 1.035157 5.917969 1.546876 11.914062 1.535157 17.917969zm0 0" fill="#dfc49c"/><path d="m283.5625 207.273438c-.011719 4.050781-.238281 8.09375-.683594 12.117187-6.226562 55.382813-54.699218 99.328125-115.453125 104.363281-60.757812-5.035156-109.3125-48.894531-115.542969-104.363281-.441406-4.023437-.671874-8.066406-.683593-12.117187-.011719-6.003907.503906-12 1.535156-17.917969.074219-.773438.1875-1.542969.34375-2.304688.765625-3.753906 1.707031-7.507812 2.816406-11.179687l111.53125-46.25 111.445313 46.25c1.109375 3.671875 2.046875 7.425781 2.8125 11.179687.15625.761719.269531 1.53125.34375 2.304688 1.03125 5.917969 1.546875 11.914062 1.535156 17.917969zm0 0" fill="#ffe0b2"/><path d="m298.667969 54.527344v33.453125h-238.933594v-33.453125c0-28.246094 22.953125-45.992188 51.199219-45.992188h136.53125c28.246094 0 51.203125 17.746094 51.203125 45.992188zm0 0" fill="#707070"/><path d="m275.03125 54.527344v33.453125h-215.296875v-33.453125c0-28.246094 22.953125-45.992188 51.199219-45.992188h112.894531c28.246094 0 51.203125 17.746094 51.203125 45.992188zm0 0" fill="#9e9e9e"/><path d="m338.347656 110.933594c-4.875 20.929687-11.464844 41.421875-19.714844 61.269531-1.546874 3.988281-5.835937 6.1875-9.980468 5.121094-3.671875-.855469-8.621094-2.050781-14.679688-3.328125-37.769531-7.753906-76.214844-11.726563-114.773437-11.863282-3.839844 0-7.59375 0-11.347657.085938-.308593.085938-.632812.085938-.941406 0-39.46875.992188-78.730468 6.054688-117.160156 15.105469-3.390625.859375-6.957031-.464844-8.960938-3.328125-.394531-.519532-.710937-1.097656-.9375-1.707032-8.265624-19.878906-14.886718-40.398437-19.796874-61.355468-.972657-4.921875.296874-10.023438 3.464843-13.914063 3.167969-3.894531 7.902344-6.171875 12.917969-6.226562 16.8125-.546875 33.382812-4.164063 48.894531-10.664063 38.402344-15.359375 49.152344-33.453125 82.09375-36.863281 3.910157-.429687 7.839844-.628906 11.773438-.597656 42.667969 0 51.199219 20.394531 93.867187 37.460937 15.515625 6.5 32.085938 10.117188 48.894532 10.664063 5.019531.054687 9.753906 2.332031 12.917968 6.226562 3.167969 3.890625 4.4375 8.992188 3.46875 13.914063zm0 0" fill="#cfd8dc"/><path d="m314.710938 110.933594c-4.875 20.929687-11.46875 41.421875-19.714844 61.269531-.238282.648437-.582032 1.257813-1.023438 1.792969-2.003906 2.863281-5.570312 4.1875-8.960937 3.328125-38.429688-9.050781-77.691407-14.113281-117.160157-15.105469-.308593.085938-.632812.085938-.941406 0-3.753906-.085938-7.507812-.085938-11.347656-.085938-38.554688.136719-77.003906 4.109376-114.773438 11.863282-.394531-.519532-.710937-1.097656-.9375-1.707032-8.265624-19.878906-14.886718-40.398437-19.796874-61.355468-.972657-4.921875.296874-10.023438 3.464843-13.914063 3.167969-3.894531 7.902344-6.171875 12.917969-6.226562 16.8125-.546875 33.382812-4.164063 48.894531-10.664063 38.402344-15.359375 49.152344-33.453125 82.09375-36.863281 32.851563 3.410156 43.605469 21.503906 82.003907 36.863281 15.511718 6.5 32.082031 10.117188 48.894531 10.664063 5.007812.085937 9.722656 2.375 12.878906 6.257812 3.160156 3.882813 4.445313 8.964844 3.507813 13.882813zm0 0" fill="#f5f5f5"/><path d="m76.886719 413.019531c-16.359375 8.570313-28.277344 23.71875-32.753907 41.636719-1.121093 3.695312-4.554687 6.203125-8.414062 6.144531h-26.84375c3.019531-35.945312 24.695312-67.664062 57.085938-83.542969l14.277343 23.835938c1.21875 2.007812 1.550781 4.429688.914063 6.691406-.636719 2.261719-2.179688 4.15625-4.265625 5.234375zm0 0" fill="#3f51b5"/><path d="m337.664062 460.800781h-14.980468c-3.863282.058594-7.292969-2.449219-8.414063-6.144531-4.476562-17.917969-16.394531-33.066406-32.753906-41.636719-2.085937-1.078125-3.632813-2.972656-4.269531-5.234375-.636719-2.257812-.304688-4.683594.914062-6.691406l14.277344-23.835938c10.523438 5.152344 20.078125 12.082032 28.246094 20.480469" fill="#3f51b5"/><path d="m503.464844 375.464844v119.46875c-.011719 4.707031-3.824219 8.519531-8.53125 8.53125h-128c-40.277344-33.535156-48.894532-114.601563-50.6875-147.710938-.09375-1.132812.078125-2.273437.511718-3.328125.808594-2.226562 2.519532-4.015625 4.707032-4.921875 2.191406-.910156 4.664062-.855468 6.8125.144532 63.402344 27.816406 175.1875 27.816406 175.1875 27.816406zm0 0" fill="#283593"/><path d="m479.828125 375.464844v119.46875c-.011719 4.707031-3.824219 8.519531-8.53125 8.53125h-104.363281c-40.277344-33.535156-48.894532-114.601563-50.6875-147.710938-.09375-1.132812.078125-2.273437.511718-3.328125 64.511719 23.039063 163.070313 23.039063 163.070313 23.039063zm0 0" fill="#3f51b5"/><path d="m503.464844 443.734375c0 9.425781-7.640625 17.066406-17.066406 17.066406-9.425782 0-17.066407-7.640625-17.066407-17.066406s7.640625-17.066406 17.066407-17.066406c9.425781 0 17.066406 7.640625 17.066406 17.066406zm0 0" fill="#283593"/><path d="m426.667969 443.734375c0 9.425781-7.640625 17.066406-17.066407 17.066406-9.425781 0-17.066406-7.640625-17.066406-17.066406s7.640625-17.066406 17.066406-17.066406c9.425782 0 17.066407 7.640625 17.066407 17.066406zm0 0" fill="#283593"/><path d="m179.199219 418.132812c0 17.066407-25.597657 34.132813-25.597657 34.132813-8.535156-34.132813-51.203124-68.265625-51.203124-68.265625 4.898437-14.835938 18.519531-25.054688 34.136718-25.601562 5.203125 7.851562 11.175782 16.386718 17.066406 24.578124 13.226563 18.6875 25.597657 35.15625 25.597657 35.15625zm0 0" fill="#3f51b5"/><path d="m256 384s-42.667969 34.132812-51.199219 68.265625c0 0-25.601562-17.066406-25.601562-34.132813 0 0 12.375-16.46875 25.601562-35.15625 5.886719-8.191406 11.859375-16.726562 17.066407-24.578124 15.613281.546874 29.238281 10.765624 34.132812 25.601562zm0 0" fill="#3f51b5"/><path d="m179.199219 332.800781c-70.183594 0-128.5625-48.355469-135.796875-112.476562-1.304688-11.589844-.871094-23.308594 1.28125-34.769531.878906-4.351563 1.894531-8.398438 3.046875-12.175782.890625-2.914062 3.269531-5.136718 6.238281-5.820312 2.972656-.6875 6.082031.261718 8.164062 2.488281 2.078126 2.230469 2.8125 5.398437 1.921876 8.316406-1.027344 3.371094-1.898438 6.894531-2.613282 10.417969-1.828125 9.777344-2.191406 19.777344-1.074218 29.664062 6.253906 55.445313 57.34375 97.289063 118.832031 97.289063s112.582031-41.84375 118.839843-97.328125c1.117188-9.925781.746094-19.96875-1.109374-29.785156-.683594-3.363282-1.550782-6.886719-2.578126-10.257813-1.378906-4.507812 1.160157-9.277343 5.667969-10.652343 4.507813-1.378907 9.277344 1.160156 10.65625 5.667968 1.148438 3.777344 2.164063 7.820313 3.011719 12.015625 1.339844 7.214844 2.027344 14.53125 2.046875 21.867188-.007813 4.351562-.253906 8.699219-.734375 13.027343-7.238281 64.15625-65.617188 112.511719-135.800781 112.511719zm0 0"/><path d="m51.882812 238.933594h-17.75c-14.132812-.015625-25.582031-11.46875-25.597656-25.601563.0625-14.109375 11.488282-25.53125 25.597656-25.597656h17.664063c4.714844 0 8.535156 3.820313 8.535156 8.53125 0 4.714844-3.820312 8.535156-8.535156 8.535156h-17.578125c-2.253906-.039062-4.425781.851563-6.007812 2.457031-1.671876 1.578126-2.617188 3.777344-2.609376 6.074219.003907 4.710938 3.820313 8.527344 8.53125 8.535157h17.75c4.710938 0 8.53125 3.820312 8.53125 8.53125 0 4.714843-3.820312 8.535156-8.53125 8.535156zm0 0"/><path d="m324.265625 238.933594h-17.75c-4.710937 0-8.53125-3.820313-8.53125-8.535156 0-4.710938 3.820313-8.53125 8.53125-8.53125h17.75c4.710937-.007813 8.527344-3.824219 8.535156-8.535157.019531-2.226562-.867187-4.367187-2.460937-5.921875-1.578125-1.671875-3.773438-2.617187-6.074219-2.609375h-17.664063c-4.710937 0-8.53125-3.820312-8.53125-8.535156 0-4.710937 3.820313-8.53125 8.53125-8.53125h17.578126c14.144531.019531 25.621093 11.453125 25.6875 25.597656-.015626 14.132813-11.46875 25.585938-25.601563 25.601563zm0 0"/><path d="m42.753906 187.691406c-2.261718.007813-4.429687-.882812-6.03125-2.472656-1.601562-1.59375-2.503906-3.761719-2.503906-6.019531v-.085938c.023438-4.707031 3.855469-8.503906 8.5625-8.488281 4.707031.011719 8.511719 3.839844 8.503906 8.546875-.007812 4.707031-3.824218 8.519531-8.53125 8.519531zm0 0"/><path d="m288.171875 93.875c-2.257813.011719-4.429687-.878906-6.03125-2.472656s-2.5-3.757813-2.503906-6.015625v-.085938c.023437-4.707031 3.855469-8.503906 8.5625-8.492187 4.707031.015625 8.511719 3.839844 8.503906 8.550781-.007813 4.707031-3.824219 8.515625-8.53125 8.515625zm0 0"/><path d="m70.230469 93.875c-2.257813.011719-4.429688-.878906-6.03125-2.472656-1.601563-1.59375-2.5-3.757813-2.503907-6.015625v-.085938c.023438-4.707031 3.855469-8.503906 8.5625-8.492187 4.707032.015625 8.511719 3.839844 8.503907 8.550781-.007813 4.707031-3.824219 8.515625-8.53125 8.515625zm0 0"/><path d="m315.734375 187.691406c-2.261719.007813-4.429687-.882812-6.03125-2.472656-1.601563-1.59375-2.5-3.761719-2.503906-6.019531v-.085938c.023437-4.707031 3.855469-8.503906 8.5625-8.488281 4.707031.011719 8.511719 3.839844 8.503906 8.546875s-3.824219 8.519531-8.53125 8.519531zm0 0"/><path d="m55.894531 184.449219c-2.261719.011719-4.429687-.878907-6.03125-2.472657-1.601562-1.59375-2.5-3.757812-2.503906-6.019531v-.085937c.027344-4.707032 3.855469-8.503906 8.5625-8.484375 4.707031.015625 8.511719 3.839843 8.503906 8.546875-.007812 4.707031-3.824219 8.519531-8.53125 8.519531zm0 0"/><path d="m302.507812 184.449219c-2.261718.011719-4.429687-.878907-6.03125-2.472657-1.601562-1.59375-2.5-3.757812-2.503906-6.019531v-.085937c.027344-4.707032 3.855469-8.503906 8.5625-8.484375 4.707032.015625 8.511719 3.839843 8.503906 8.546875-.007812 4.707031-3.824218 8.519531-8.53125 8.519531zm0 0"/><path d="m153.601562 391.507812c-4.714843 0-8.535156-3.820312-8.535156-8.53125v-61.015624c0-4.710938 3.820313-8.53125 8.535156-8.53125 4.710938 0 8.53125 3.820312 8.53125 8.53125v61.015624c0 4.710938-3.820312 8.53125-8.53125 8.53125zm0 0"/><path d="m204.800781 391.507812c-4.714843 0-8.535156-3.820312-8.535156-8.53125v-61.015624c0-4.710938 3.820313-8.53125 8.535156-8.53125 4.710938 0 8.53125 3.820312 8.53125 8.53125v61.015624c0 4.710938-3.820312 8.53125-8.53125 8.53125zm0 0"/><path d="m320.683594 406.273438c-2.308594.003906-4.519532-.933594-6.125-2.59375-17.609375-18.121094-41.824219-28.304688-67.09375-28.214844h-2.984375c-4.714844 0-8.535157-3.820313-8.535157-8.53125 0-4.714844 3.820313-8.535156 8.535157-8.535156h2.984375c29.886718-.09375 58.523437 11.960937 79.34375 33.398437 2.386718 2.460937 3.070312 6.109375 1.734375 9.265625-1.335938 3.160156-4.433594 5.210938-7.859375 5.210938zm0 0"/><path d="m332.800781 512h-307.199219c-14.132812-.015625-25.585937-11.46875-25.601562-25.601562v-17.066407c0-3.164062.09375-6.238281.378906-9.3125 4.738282-57.507812 52.851563-101.730469 110.554688-101.621093h2.988281c4.710937 0 8.53125 3.820312 8.53125 8.535156 0 4.710937-3.820313 8.53125-8.53125 8.53125h-2.988281c-48.855469-.109375-89.585938 37.351562-93.554688 86.042968-.242187 2.628907-.3125 5.191407-.3125 7.824219v17.066407c.007813 4.710937 3.824219 8.527343 8.535156 8.535156h307.199219c4.710938-.007813 8.527344-3.824219 8.53125-8.535156v-2.386719c0-4.714844 3.820313-8.535157 8.535157-8.535157 4.710937 0 8.53125 3.820313 8.53125 8.535157v2.386719c-.015626 14.132812-11.464844 25.585937-25.597657 25.601562zm0 0"/><path d="m42.667969 187.734375c-3.429688-.003906-6.527344-2.054687-7.863281-5.214844-9.648438-22.65625-17.386719-46.078125-23.132813-70.023437-1.402344-7.449219.566406-15.132813 5.375-20.992188 4.742187-5.792968 11.804687-9.1875 19.289063-9.28125 15.761718-.519531 31.292968-3.925781 45.824218-10.046875 12.347656-5.078125 24.214844-11.242187 35.464844-18.425781 17.90625-12.941406 39.480469-19.816406 61.574219-19.617188 4.714843 0 8.535156 3.820313 8.535156 8.535157 0 4.710937-3.820313 8.53125-8.535156 8.53125-18.960938-.160157-37.464844 5.851562-52.707031 17.132812-12.050782 7.683594-24.761719 14.273438-37.988282 19.6875-16.476562 6.90625-34.085937 10.726563-51.945312 11.265625-2.453125.015625-4.769532 1.132813-6.316406 3.039063-1.609376 1.96875-2.265626 4.550781-1.789063 7.046875 4.792969 20.386718 11.246094 40.347656 19.292969 59.683594 43.070312-10.226563 87.183594-15.410157 131.453125-15.453126 4.714843 0 8.535156 3.820313 8.535156 8.53125 0 4.714844-3.820313 8.535157-8.535156 8.535157-45.25.015625-90.324219 5.636719-134.191407 16.734375-.761718.222656-1.550781.332031-2.339843.332031zm0 0"/><path d="m315.820312 187.734375c-.792968 0-1.578124-.109375-2.339843-.324219-43.898438-11.101562-89-16.726562-134.28125-16.742187-4.710938 0-8.53125-3.820313-8.53125-8.535157 0-4.710937 3.820312-8.53125 8.53125-8.53125 44.292969.042969 88.429687 5.230469 131.527343 15.453126 8.007813-19.34375 14.4375-39.304688 19.226563-59.683594.472656-2.496094-.183594-5.074219-1.789063-7.042969-1.546874-1.910156-3.867187-3.023437-6.324218-3.039063-17.859375-.539062-35.464844-4.363281-51.941406-11.273437-13.222657-5.410156-25.9375-12-37.988282-19.683594-15.242187-11.28125-33.746094-17.292969-52.710937-17.132812-4.710938 0-8.53125-3.820313-8.53125-8.53125 0-4.714844 3.820312-8.535157 8.53125-8.535157 22.09375-.199218 43.671875 6.675782 61.574219 19.617188 11.25 7.183594 23.117187 13.347656 35.464843 18.421875 14.53125 6.125 30.0625 9.53125 45.824219 10.050781 7.488281.089844 14.550781 3.488282 19.292969 9.28125 4.808593 5.859375 6.777343 13.542969 5.378906 20.992188-5.734375 23.933594-13.445313 47.351562-23.050781 70.011718-1.332032 3.164063-4.429688 5.222657-7.863282 5.226563zm0 0"/><path d="m298.667969 96.480469c-4.714844 0-8.535157-3.820313-8.535157-8.535157v-33.449218c0-22.039063-17.546874-37.429688-42.667968-37.429688h-136.53125c-25.121094 0-42.667969 15.390625-42.667969 37.429688v33.449218c0 4.714844-3.820313 8.535157-8.53125 8.535157-4.714844 0-8.535156-3.820313-8.535156-8.535157v-33.449218c0-31.574219 25.121093-54.496094 59.734375-54.496094h136.53125c34.613281 0 59.734375 22.921875 59.734375 54.496094v33.449218c0 4.714844-3.820313 8.535157-8.53125 8.535157zm0 0"/><path d="m153.601562 460.800781c-3.917968 0-7.328124-2.664062-8.277343-6.464843-7.746094-30.980469-47.847657-63.347657-48.25-63.671876-2.792969-2.234374-3.898438-5.972656-2.769531-9.363281 6.035156-18.339843 22.929687-30.914062 42.230468-31.433593 2.851563 0 5.515625 1.425781 7.097656 3.800781 16.742188 25.113281 42.136719 59.003906 42.394532 59.34375 1.105468 1.480469 1.707031 3.273437 1.707031 5.121093 0 21.027344-26.394531 39.230469-29.402344 41.234376-1.402343.933593-3.046875 1.433593-4.730469 1.433593zm-40.882812-79.246093c18.574219 15.703124 33.851562 34.929687 44.957031 56.570312 5.710938-4.621094 10.09375-10.683594 12.691407-17.558594-5.96875-8.027344-24.070313-32.523437-38.027344-53.113281-8.320313 1.523437-15.523438 6.699219-19.621094 14.101563zm0 0"/><path d="m204.800781 460.800781c-1.683593 0-3.332031-.5-4.734375-1.433593-3.007812-2.003907-29.398437-20.207032-29.398437-41.234376 0-1.847656.597656-3.640624 1.707031-5.121093.253906-.339844 25.652344-34.238281 42.390625-59.34375 1.582031-2.375 4.246094-3.800781 7.101563-3.800781 19.296874.519531 36.195312 13.09375 42.226562 31.433593 1.128906 3.390625.027344 7.125-2.761719 9.363281-.402343.320313-40.53125 32.773438-48.253906 63.671876-.949219 3.800781-4.363281 6.464843-8.277344 6.464843zm-16.769531-40.230469c2.582031 6.886719 6.960938 12.957032 12.6875 17.578126 11.101562-21.648438 26.386719-40.882813 44.96875-56.589844-4.101562-7.402344-11.304688-12.574219-19.625-14.097656-13.960938 20.589843-32.066406 45.085937-38.03125 53.109374zm0 0"/><path d="m42.667969 469.332031h-33.792969c-2.386719 0-4.664062-1-6.28125-2.753906-1.613281-1.757813-2.421875-4.109375-2.222656-6.488281 3.347656-38.910156 26.804687-73.238282 61.839844-90.5 3.984374-1.941406 8.792968-.515625 11.074218 3.285156l19.367188 32.339844c1.386718 2.3125 1.597656 5.140625.570312 7.632812-1.023437 2.492188-3.164062 4.351563-5.773437 5.019532-19.5625 6.839843-33.628907 24.074218-36.417969 44.609374-.796875 3.984376-4.296875 6.855469-8.363281 6.855469zm-24.046875-17.066406h17.3125c5.066406-20.167969 18.523437-37.207031 36.972656-46.808594l-10.0625-16.804687c-23.148438 13.917968-39.242188 37.066406-44.222656 63.613281zm0 0"/><path d="m337.664062 469.332031h-21.929687c-4.066406 0-7.566406-2.871093-8.363281-6.855469-2.8125-20.507812-16.851563-37.722656-36.375-44.597656-2.621094-.65625-4.777344-2.515625-5.8125-5.011718-1.035156-2.496094-.824219-5.335938.5625-7.652344l19.371094-32.339844c2.285156-3.804688 7.101562-5.230469 11.085937-3.277344 11.402344 5.582032 21.757813 13.09375 30.605469 22.195313 3.28125 3.382812 3.199218 8.785156-.183594 12.070312-3.382812 3.28125-8.785156 3.199219-12.066406-.183593-5.648438-5.816407-12.039063-10.867188-19-15.019532l-10.0625 16.796875c18.445312 9.605469 31.902344 26.640625 36.972656 46.808594h15.195312c4.710938 0 8.535157 3.820313 8.535157 8.535156 0 4.710938-3.824219 8.53125-8.535157 8.53125zm0 0"/><path d="m179.199219 512c-4.710938 0-8.53125-3.820312-8.53125-8.535156v-85.332032c0-4.710937 3.820312-8.53125 8.53125-8.53125 4.714843 0 8.535156 3.820313 8.535156 8.53125v85.332032c0 4.714844-3.820313 8.535156-8.535156 8.535156zm0 0"/><path d="m503.464844 512h-136.53125c-1.996094 0-3.929688-.699219-5.460938-1.980469-53.65625-44.707031-54.273437-163.644531-54.273437-168.6875 0-3.039062 1.621093-5.851562 4.25-7.378906 2.632812-1.527344 5.875-1.539063 8.515625-.027344 57.105468 32.628907 182.242187 33.007813 183.5 33.007813 4.714844 0 8.535156 3.820312 8.535156 8.53125v128c0 4.714844-3.820312 8.535156-8.535156 8.535156zm-133.335938-17.066406h124.804688v-111.046875c-27.734375-.597657-115.382813-4.402344-170.15625-28.5 1.785156 31.410156 9.761718 107.070312 45.351562 139.546875zm0 0"/><path d="m503.464844 384c-4.710938 0-8.53125-3.820312-8.53125-8.535156v-59.730469h-68.265625v53.84375c0 4.714844-3.820313 8.535156-8.535157 8.535156-4.710937 0-8.53125-3.820312-8.53125-8.535156v-53.84375c.007813-9.421875 7.644532-17.058594 17.066407-17.066406h76.796875c4.714844 0 8.535156 3.820312 8.535156 8.53125v68.265625c0 4.714844-3.820312 8.535156-8.535156 8.535156zm0 0"/><path d="m503.464844 315.734375h-34.132813c-4.710937 0-8.53125-3.820313-8.53125-8.535156v-59.734375c.007813-9.421875 7.644531-17.054688 17.066407-17.066406h17.066406c9.421875.011718 17.058594 7.644531 17.066406 17.066406v59.734375c0 4.714843-3.820312 8.535156-8.535156 8.535156zm-25.597656-17.066406h17.066406v-51.203125h-17.066406zm0 0"/><path d="m486.398438 469.332031c-14.136719 0-25.597657-11.460937-25.597657-25.597656 0-14.140625 11.460938-25.601563 25.597657-25.601563 14.140624 0 25.601562 11.460938 25.601562 25.601563-.015625 14.132813-11.46875 25.582031-25.601562 25.597656zm0-34.132812c-4.710938 0-8.53125 3.820312-8.53125 8.535156 0 4.710937 3.820312 8.53125 8.53125 8.53125 4.714843 0 8.535156-3.820313 8.535156-8.53125-.007813-4.710937-3.824219-8.527344-8.535156-8.535156zm0 0"/><path d="m409.601562 469.332031c-14.140624 0-25.601562-11.460937-25.601562-25.597656 0-14.140625 11.460938-25.601563 25.601562-25.601563 14.136719 0 25.597657 11.460938 25.597657 25.601563-.015625 14.132813-11.46875 25.582031-25.597657 25.597656zm0-34.132812c-4.714843 0-8.535156 3.820312-8.535156 8.535156 0 4.710937 3.820313 8.53125 8.535156 8.53125 4.710938 0 8.53125-3.820313 8.53125-8.53125-.003906-4.710937-3.824218-8.527344-8.53125-8.535156zm0 0"/><path d="m179.199219 145.066406c-17.636719 1.074219-32.855469-12.242187-34.132813-29.867187 0-4.710938 3.820313-8.53125 8.535156-8.53125 4.710938 0 8.53125 3.820312 8.53125 8.53125 0 6.9375 7.816407 12.800781 17.066407 12.800781s17.066406-5.863281 17.066406-12.800781c0-4.710938 3.820313-8.53125 8.535156-8.53125 4.710938 0 8.53125 3.820312 8.53125 8.53125-1.273437 17.625-16.492187 30.941406-34.132812 29.867187zm0 0"/><path d="m179.199219 145.066406c-4.710938 0-8.53125-3.820312-8.53125-8.53125v-59.734375c0-4.714843 3.820312-8.535156 8.53125-8.535156 4.714843 0 8.535156 3.820313 8.535156 8.535156v59.734375c0 4.710938-3.820313 8.53125-8.535156 8.53125zm0 0"/><path d="m196.265625 93.867188h-34.132813c-4.710937 0-8.53125-3.820313-8.53125-8.535157 0-4.710937 3.820313-8.53125 8.53125-8.53125h34.132813c4.714844 0 8.535156 3.820313 8.535156 8.53125 0 4.714844-3.820312 8.535157-8.535156 8.535157zm0 0"/></svg>