<svg height="512pt" viewBox="0 0 512 512.01461" width="512pt" xmlns="http://www.w3.org/2000/svg"><path d="m330.675781 375.480469c-19.214843-26.828125-50.203125-42.71875-83.203125-42.667969h-42.664062v-44.96875h-51.203125v44.96875h-42.664063c-11.265625-.039062-22.457031 1.804688-33.109375 5.460938-12.949219 4.386718-24.855469 11.386718-34.988281 20.566406-21.875 19.34375-34.375 47.167968-34.304688 76.371094v51.203124c.027344 9.414063 7.652344 17.039063 17.066407 17.066407h307.203125c4.128906.03125 8.121094-1.492188 11.175781-4.269531zm0 0" fill="#bdc3c7"/><path d="m280.582031 338.273438-10.410156 55.636718c-8.226563 43.757813-46.441406 75.457032-90.964844 75.457032-44.523437 0-82.738281-31.699219-90.964843-75.457032l-10.410157-55.636718c10.652344-3.65625 21.84375-5.5 33.109375-5.460938h34.132813l8.53125 12.800781 18.519531 27.734375c.546875.828125 1.242188 1.550782 2.046875 2.132813h10.15625c.78125-.582031 1.445313-1.308594 1.960937-2.132813l18.519532-27.734375 8.53125-12.800781h34.132812c11.265625-.039062 22.457032 1.804688 33.109375 5.460938zm0 0" fill="#f5f5f5"/><path d="m59.742188 503.480469h-34.136719c-9.414063-.027344-17.039063-7.652344-17.066407-17.066407v-51.203124c-.070312-29.203126 12.429688-57.027344 34.304688-76.371094 16.898438 34.558594 16.898438 144.640625 16.898438 144.640625zm0 0" fill="#f5f5f5"/><path d="m343.984375 499.210938c-3.054687 2.777343-7.046875 4.300781-11.175781 4.269531h-273.066406s0-110.082031-16.898438-144.640625c10.132812-9.179688 22.039062-16.179688 34.988281-20.566406l10.410157 55.636718c8.238281 43.746094 46.449218 75.433594 90.964843 75.433594s82.726563-31.6875 90.964844-75.433594l10.410156-55.636718c20.132813 6.945312 37.628907 19.9375 50.09375 37.207031zm0 0" fill="#3f51b5"/><path d="m153.605469 332.8125v12.800781l-8.53125-12.800781zm0 0" fill="#bdc3c7"/><path d="m213.339844 332.8125-8.53125 12.800781v-12.800781zm0 0" fill="#bdc3c7"/><path d="m204.808594 287.84375v57.769531l-18.519532 27.734375c-.515624.824219-1.179687 1.550782-1.960937 2.132813h-10.15625c-.804687-.582031-1.5-1.304688-2.046875-2.132813l-18.519531-27.734375v-57.769531zm0 0" fill="#ffe0b2"/><path d="m336.304688 167.179688c-3.160157-3.242188-7.503907-5.058594-12.03125-5.035157h-.085938c.085938-1.449219.085938-11.433593.085938-12.796875-1.199219-78.933594-66.136719-141.957031-145.066407-140.800781-78.929687-1.15625-143.867187 61.867187-145.066406 140.800781 0 1.363282 0 11.347656.085937 12.796875h-.085937c-9.398437.070313-17 7.671875-17.066406 17.066407.027343 9.414062 7.652343 17.039062 17.066406 17.066406h19.542969c11.773437 53.589844 63.488281 93.867187 125.523437 93.867187 62.039063 0 113.75-40.277343 125.527344-93.867187h19.539063c9.414062-.027344 17.039062-7.652344 17.066406-17.066406.023437-4.527344-1.792969-8.867188-5.035156-12.03125zm0 0" fill="#fdd7ad"/><path d="m53.683594 196.277344h-19.542969c-9.414063-.027344-17.039063-7.652344-17.066406-17.066406.066406-9.394532 7.667969-16.996094 17.066406-17.066407h17.664063c-.417969 3.65625-.617188 7.332031-.597657 11.007813.011719 4.050781.242188 8.09375.683594 12.117187.425781 3.757813 1.023437 7.339844 1.792969 11.007813zm0 0" fill="#ffe0b2"/><path d="m341.339844 179.210938c-.027344 9.414062-7.652344 17.039062-17.066406 17.066406h-19.539063c.765625-3.667969 1.363281-7.25 1.789063-11.007813.445312-4.023437.671874-8.066406.683593-12.117187.019531-3.675782-.179687-7.351563-.597656-11.007813h17.664063c9.398437.070313 17 7.671875 17.066406 17.066407zm0 0" fill="#dfc49c"/><path d="m324.273438 149.347656c0 1.363282 0 11.347656-.085938 12.796875h-17.578125c-.253906-3.070312-.765625-6.144531-1.28125-9.214843-.765625-3.753907-1.703125-7.421876-2.8125-11.09375v-.085938c-13.144531-30.207031-54.273437-104.703125-123.308594-56.402344-69.035156-48.300781-110.164062 26.195313-123.304687 56.402344v.085938c-1.109375 3.671874-2.050782 7.339843-2.816406 11.09375-.511719 3.070312-1.023438 6.144531-1.28125 9.214843h-17.578126c-.085937-1.449219-.085937-11.433593-.085937-12.796875 1.199219-78.933594 66.136719-141.957031 145.066406-140.800781 78.929688-1.15625 143.867188 61.867187 145.066407 140.800781zm0 0" fill="#91562d"/><path d="m324.273438 149.347656c0 1.363282 0 11.347656-.085938 12.796875h-17.578125c-.253906-3.070312-.765625-6.144531-1.28125-9.214843-.765625-3.753907-1.703125-7.421876-2.8125-11.09375v-.085938c-.769531-1.789062-1.621094-3.667969-2.5625-5.714844-7.566406-68.878906-63.464844-122.402344-132.605469-126.976562 3.921875-.34375 7.847656-.511719 11.859375-.511719 78.929688-1.15625 143.867188 61.867187 145.066407 140.800781zm0 0" fill="#6d4122"/><path d="m307.207031 173.152344c-.011719 4.050781-.238281 8.09375-.683593 12.117187-.425782 3.757813-1.023438 7.339844-1.789063 11.007813-11.777344 53.589844-63.488281 93.867187-125.527344 93.867187-4.011719 0-7.9375-.167969-11.777343-.425781-56.746094-4.777344-102.738282-43.261719-113.746094-93.441406-.769532-3.667969-1.367188-7.25-1.792969-11.007813-.441406-4.023437-.671875-8.066406-.683594-12.117187-.019531-3.675782.179688-7.351563.597657-11.007813.257812-3.070312.769531-6.144531 1.28125-9.214843.765624-3.753907 1.707031-7.421876 2.816406-11.09375v-.085938c9.128906-20.90625 31.65625-63.058594 67.582031-70.996094 15.027344-2.960937 30.617187-.351562 43.863281 7.339844h.082032c4.070312 2.175781 8.003906 4.597656 11.777343 7.253906 9.5625-7.046875 20.492188-12.019531 32.085938-14.59375 49.835937-10.238281 80.296875 45.824219 91.222656 70.996094v.085938c1.109375 3.671874 2.046875 7.339843 2.8125 11.09375.515625 3.070312 1.027344 6.144531 1.28125 9.214843.417969 3.65625.617187 7.332031.597656 11.007813zm0 0" fill="#dfc49c"/><path d="m283.570312 173.152344c-.011718 4.050781-.242187 8.09375-.683593 12.117187-.425781 3.757813-1.023438 7.339844-1.792969 11.007813-11.007812 50.179687-57 88.664062-113.664062 93.441406-56.746094-4.777344-102.738282-43.261719-113.746094-93.441406-.769532-3.667969-1.367188-7.25-1.792969-11.007813-.441406-4.023437-.671875-8.066406-.683594-12.117187-.019531-3.675782.179688-7.351563.597657-11.007813.257812-3.070312.769531-6.144531 1.28125-9.214843.765624-3.753907 1.707031-7.421876 2.816406-11.09375v-.085938c9.128906-20.90625 31.65625-63.058594 67.582031-70.996094 11.59375 2.574219 22.523437 7.546875 32.085937 14.59375 3.773438-2.65625 7.707032-5.078125 11.777344-7.253906h.082032c4.070312 2.175781 8.003906 4.597656 11.777343 7.253906 9.5625-7.046875 20.492188-12.019531 32.085938-14.59375 36.011719 7.9375 58.453125 50.089844 67.582031 70.996094v.085938c1.109375 3.671874 2.050781 7.339843 2.816406 11.09375.511719 3.070312 1.023438 6.144531 1.28125 9.214843.417969 3.65625.617188 7.332031.597656 11.007813zm0 0" fill="#ffe0b2"/><g fill="#f44335"><path d="m170.675781 375.480469h17.066407c4.710937 0 8.53125 3.820312 8.53125 8.53125v17.066406c0 4.714844-3.820313 8.535156-8.53125 8.535156h-17.066407c-4.714843 0-8.535156-3.820312-8.535156-8.535156v-17.066406c0-4.710938 3.820313-8.53125 8.535156-8.53125zm0 0"/><path d="m162.140625 401.078125-21.785156 10.894531c-2.644531 1.320313-5.785157 1.179688-8.300781-.375-2.515626-1.554687-4.046876-4.300781-4.046876-7.257812v-23.585938c0-2.957031 1.53125-5.703125 4.046876-7.257812 2.515624-1.554688 5.65625-1.699219 8.300781-.375l21.785156 10.890625zm0 0"/><path d="m196.273438 401.078125 21.785156 10.894531c2.644531 1.320313 5.785156 1.179688 8.300781-.375 2.515625-1.554687 4.046875-4.300781 4.046875-7.257812v-23.585938c0-2.957031-1.53125-5.703125-4.046875-7.257812-2.515625-1.554688-5.65625-1.699219-8.300781-.375l-21.785156 10.890625zm0 0"/></g><path d="m503.472656 460.8125c0 23.550781-49.664062 42.667969-110.933594 42.667969-4.179687 0-8.277343-.085938-12.285156-.257813-.191406.085938-.410156.085938-.597656 0-11.96875-.527344-23.886719-1.867187-35.671875-4.011718-15.800781-2.53125-31.046875-7.785157-45.054687-15.527344-11.007813-6.65625-17.324219-14.421875-17.324219-22.871094 0-9.046875 7.339843-17.40625 19.714843-24.320312h.085938c6.253906-3.394532 12.828125-6.167969 19.625-8.277344l50.089844-9.300782c3.160156-.257812 6.402344-.425781 9.644531-.511718 3.839844-.171875 7.765625-.257813 11.773437-.257813 7.339844 0 14.507813.257813 21.421876.769531l50.089843 9.300782c24.148438 7.851562 39.421875 19.542968 39.421875 32.597656zm0 0" fill="#cfd8dc"/><path d="m479.835938 460.8125c0 22.101562-43.691407 40.277344-99.582032 42.410156-.191406.085938-.410156.085938-.597656 0-11.96875-.527344-23.886719-1.867187-35.671875-4.011718-15.800781-2.53125-31.046875-7.785157-45.054687-15.527344-11.007813-6.65625-17.324219-14.421875-17.324219-22.871094 0-9.046875 7.339843-17.40625 19.714843-24.320312h.085938c6.253906-3.394532 12.828125-6.167969 19.625-8.277344l50.089844-9.300782c3.160156-.257812 6.402344-.425781 9.644531-.511718 3.242187.085937 6.398437.253906 9.554687.511718l50.09375 9.300782c24.148438 7.851562 39.421876 19.542968 39.421876 32.597656zm0 0" fill="#f5f5f5"/><path d="m466.78125 401.078125-5.207031 52.054687c-.425781 4.347657-4.078125 7.667969-8.445313 7.679688h-27.308594c-4.371093-.011719-8.019531-3.332031-8.449218-7.679688l-5.203125-52.054687zm0 0" fill="#ffdc00"/><path d="m468.402344 384.867188-1.621094 16.210937h-54.613281l-1.621094-16.210937c-.242187-2.402344.542969-4.789063 2.160156-6.578126 1.617188-1.789062 3.917969-2.808593 6.328125-2.808593h40.875c2.414063 0 4.710938 1.019531 6.328125 2.808593 1.621094 1.789063 2.40625 4.175782 2.164063 6.578126zm0 0" fill="#02a9f4"/><path d="m372.914062 401.078125-5.207031 52.054687c-.425781 4.347657-4.078125 7.667969-8.445312 7.679688h-27.308594c-4.367187-.011719-8.019531-3.332031-8.445313-7.679688l-5.207031-52.054687zm0 0" fill="#ffdc00"/><path d="m374.535156 384.867188-1.621094 16.210937h-54.613281l-1.621093-16.210937c-.242188-2.402344.542968-4.789063 2.160156-6.578126 1.621094-1.789062 3.917968-2.808593 6.332031-2.808593h40.871094c2.414062 0 4.710937 1.019531 6.332031 2.808593 1.617188 1.789063 2.402344 4.175782 2.160156 6.578126zm0 0" fill="#02a9f4"/><path d="m179.207031 298.679688c-70.183593 0-128.5625-48.355469-135.796875-112.476563-1.304687-11.589844-.875-23.308594 1.28125-34.769531.878906-4.351563 1.894532-8.398438 3.046875-12.175782 1.375-4.507812 6.144531-7.046874 10.652344-5.667968 4.507813 1.375 7.046875 6.144531 5.671875 10.652344-1.03125 3.371093-1.898438 6.894531-2.613281 10.417968-1.828125 9.777344-2.191407 19.777344-1.074219 29.664063 6.253906 55.445312 57.34375 97.289062 118.832031 97.289062s112.578125-41.84375 118.839844-97.324219c1.117187-9.929687.742187-19.972656-1.109375-29.789062-.683594-3.363281-1.550781-6.886719-2.582031-10.257812-.890625-2.917969-.15625-6.085938 1.925781-8.316407 2.078125-2.226562 5.191406-3.175781 8.160156-2.488281 2.972656.683594 5.351563 2.90625 6.238282 5.820312 1.152343 3.777344 2.167968 7.820313 3.015624 12.015626 1.339844 7.214843 2.027344 14.53125 2.046876 21.867187-.007813 4.351563-.253907 8.699219-.734376 13.027344-7.238281 64.15625-65.617187 112.511719-135.800781 112.511719zm0 0"/><path d="m51.890625 204.8125h-17.75c-14.132813-.015625-25.585937-11.46875-25.601563-25.601562.066407-14.109376 11.492188-25.53125 25.601563-25.597657h17.664063c4.710937 0 8.535156 3.820313 8.535156 8.53125 0 4.714844-3.824219 8.535157-8.535156 8.535157h-17.578126c-2.253906-.039063-4.425781.851562-6.007812 2.457031-1.671875 1.578125-2.617188 3.777343-2.613281 6.074219.007812 4.710937 3.824219 8.527343 8.535156 8.535156h17.75c4.710937 0 8.53125 3.820312 8.53125 8.53125 0 4.714844-3.820313 8.535156-8.53125 8.535156zm0 0"/><path d="m324.273438 204.8125h-17.75c-4.710938 0-8.53125-3.820312-8.53125-8.535156 0-4.710938 3.820312-8.53125 8.53125-8.53125h17.75c4.710937-.007813 8.527343-3.824219 8.535156-8.535156.019531-2.226563-.867188-4.363282-2.460938-5.921876-1.578125-1.671874-3.777344-2.617187-6.074218-2.609374h-17.664063c-4.710937 0-8.53125-3.820313-8.53125-8.535157 0-4.710937 3.820313-8.53125 8.53125-8.53125h17.578125c14.144531.019531 25.621094 11.453125 25.6875 25.597657-.015625 14.132812-11.46875 25.585937-25.601562 25.601562zm0 0"/><path d="m324.199219 170.679688c-.171875 0-.328125 0-.5-.011719-4.703125-.273438-8.292969-4.300781-8.03125-9 .082031-1.605469.074219-11.019531.074219-12.320313-1.28125-74.183594-62.347657-133.34375-136.535157-132.269531-74.1875-1.074219-135.253906 58.085937-136.53125 132.269531 0 1.300782-.011719 10.734375.070313 12.324219.171875 3.042969-1.292969 5.949219-3.84375 7.621094-2.550782 1.671875-5.796875 1.855469-8.519532.480469-2.722656-1.371094-4.507812-4.089844-4.679687-7.136719-.082031-1.507813-.097656-11.871094-.097656-13.289063 1.289062-83.605468 69.992187-150.402344 153.601562-149.3359372 83.609375-1.0664068 152.3125 65.7304692 153.601563 149.3359372 0 1.417969-.015625 11.78125-.097656 13.289063-.257813 4.511719-3.992188 8.039062-8.511719 8.042969zm0 0"/><path d="m55.902344 150.328125c-2.261719.011719-4.429688-.878906-6.03125-2.472656-1.601563-1.59375-2.503906-3.757813-2.503906-6.019531 0-1.199219.242187-2.386719.707031-3.492188 10.242187-23.535156 32.929687-64.574219 69.863281-74.992188 21.160156-5.957031 43.410156-.917968 66.164062 15.003907 3.785157 2.726562 4.679688 7.992187 2.003907 11.816406s-7.925781 4.789063-11.789063 2.164063c-18.359375-12.839844-35.785156-17.058594-51.742187-12.5625-31.128907 8.785156-51.371094 48.273437-58.742188 65.132812-1.28125 3.261719-4.425781 5.410156-7.929687 5.421875zm0 0"/><path d="m302.515625 150.328125c-3.667969.011719-6.933594-2.324219-8.101563-5.800781-7.5-17.066406-27.675781-56.03125-58.574218-64.75-15.96875-4.5-33.378906-.28125-51.742188 12.5625-2.496094 1.796875-5.769531 2.113281-8.5625.824218-2.792968-1.289062-4.675781-3.980468-4.929687-7.046874-.253907-3.066407 1.164062-6.03125 3.707031-7.761719 22.761719-15.917969 45-20.949219 66.164062-15.003907 36.933594 10.417969 59.625 51.453126 69.863282 74.992188 1.144531 2.644531.886718 5.6875-.6875 8.101562-1.574219 2.410157-4.257813 3.871094-7.136719 3.882813zm0 0"/><path d="m153.605469 354.144531c-4.710938 0-8.53125-3.820312-8.53125-8.53125v-57.769531c0-4.714844 3.820312-8.535156 8.53125-8.535156 4.714843 0 8.535156 3.820312 8.535156 8.535156v57.769531c0 4.710938-3.820313 8.53125-8.535156 8.53125zm0 0"/><path d="m204.808594 354.144531c-4.714844 0-8.535156-3.820312-8.535156-8.53125v-57.769531c0-4.714844 3.820312-8.535156 8.535156-8.535156 4.710937 0 8.53125 3.820312 8.53125 8.535156v57.769531c0 4.710938-3.820313 8.53125-8.53125 8.53125zm0 0"/><path d="m332.808594 512.011719h-307.203125c-14.128907-.015625-25.5820315-11.46875-25.5976565-25.597657v-51.203124c-.0273437-47.460938 30.1523435-89.679688 75.0703125-105.011719 11.539063-3.964844 23.660156-5.964844 35.863281-5.921875h42.664063c4.714843 0 8.535156 3.824218 8.535156 8.535156 0 4.714844-3.820313 8.535156-8.535156 8.535156h-42.664063c-10.3125-.042968-20.558594 1.644532-30.3125 4.992188-38.023437 12.96875-63.574218 48.699218-63.554687 88.871094v51.203124c.007812 4.707032 3.824219 8.527344 8.53125 8.53125h307.203125c2 .035157 3.9375-.691406 5.421875-2.03125 3.488281-3.105468 8.824219-2.832031 11.976562.617188 3.148438 3.449219 2.941407 8.789062-.464843 11.980469-4.632813 4.210937-10.675782 6.53125-16.933594 6.5zm0 0"/><path d="m330.683594 384.011719c-2.746094.003906-5.320313-1.3125-6.925782-3.535157-17.613281-24.605468-46.027343-39.179687-76.285156-39.128906h-42.664062c-4.714844 0-8.535156-3.820312-8.535156-8.535156 0-4.710938 3.820312-8.535156 8.535156-8.535156h42.664062c35.714844.046875 69.230469 17.234375 90.113282 46.207031 1.875 2.59375 2.136718 6.023437.683593 8.875-1.457031 2.851563-4.386719 4.648437-7.585937 4.652344zm0 0"/><path d="m179.207031 477.878906c-48.628906.015625-90.375-34.601562-99.355469-82.394531l-10.410156-55.636719c-.578125-3.007812.492188-6.09375 2.8125-8.089844 2.320313-1.996093 5.53125-2.597656 8.414063-1.574218 2.886719 1.019531 5.003906 3.507812 5.550781 6.519531l10.410156 55.640625c7.480469 39.707031 42.167969 68.46875 82.578125 68.46875 40.410157 0 75.09375-28.761719 82.578125-68.46875l10.410156-55.640625c.546876-3.011719 2.664063-5.5 5.546876-6.519531 2.886718-1.023438 6.097656-.421875 8.417968 1.574218 2.316406 1.996094 3.390625 5.082032 2.8125 8.089844l-10.414062 55.636719c-8.996094 47.78125-50.730469 82.390625-99.351563 82.394531zm0 0"/><path d="m59.742188 512.011719c-4.714844 0-8.535157-3.820313-8.535157-8.53125 0-30.125-2.886719-114.160157-16.023437-140.972657-2.023438-4.222656-.261719-9.285156 3.941406-11.347656 4.203125-2.058594 9.285156-.347656 11.382812 3.839844 17.566407 35.839844 17.765626 143.894531 17.765626 148.480469 0 4.710937-3.820313 8.53125-8.53125 8.53125zm0 0"/><path d="m301.40625 445.027344h-.085938c-4.707031-.023438-8.503906-3.851563-8.492187-8.554688.011719-4.707031 3.828125-8.511718 8.535156-8.511718 4.703125 0 8.519531 3.804687 8.53125 8.511718.011719 4.703125-3.785156 8.53125-8.488281 8.554688zm0 0"/><path d="m184.332031 384.011719c-3.648437.003906-6.898437-2.3125-8.082031-5.761719-1.183594-3.453125-.042969-7.273438 2.839844-9.511719l27.152344-40.664062c2.632812-3.871094 7.894531-4.898438 11.789062-2.300781 3.894531 2.597656 4.972656 7.851562 2.410156 11.769531l-27.050781 40.539062c-1.011719 1.597657-2.308594 3-3.820313 4.132813-1.496093 1.164062-3.339843 1.796875-5.238281 1.796875zm0 0"/><path d="m174.324219 384.050781c-1.734375 0-3.429688-.507812-4.875-1.46875-1.699219-1.15625-3.160157-2.628906-4.308594-4.332031l-27.167969-40.703125c-1.722656-2.539063-1.953125-5.804687-.601562-8.558594 1.347656-2.753906 4.074218-4.570312 7.136718-4.757812s5.988282 1.28125 7.664063 3.847656l27.046875 40.53125c1.863281 1.246094 3.148438 3.1875 3.5625 5.390625.417969 2.203125-.066406 4.480469-1.34375 6.320312-1.597656 2.355469-4.265625 3.757813-7.113281 3.730469zm0 0"/><path d="m187.742188 418.144531h-17.066407c-9.421875-.007812-17.058593-7.644531-17.070312-17.066406v-17.066406c.011719-9.421875 7.648437-17.054688 17.070312-17.066407h17.066407c9.421874.011719 17.054687 7.644532 17.066406 17.066407v17.066406c-.011719 9.421875-7.644532 17.058594-17.066406 17.066406zm-17.066407-34.132812v17.066406h17.078125l-.011718-17.066406zm0 0"/><path d="m128.007812 426.679688c-4.714843 0-8.535156-3.820313-8.535156-8.535157v-51.199219c0-2.957031 1.53125-5.703124 4.046875-7.257812s5.660157-1.699219 8.304688-.375l34.132812 17.066406c2.890625 1.445313 4.71875 4.402344 4.71875 7.632813v17.066406c0 3.234375-1.828125 6.1875-4.71875 7.632813l-34.132812 17.066406c-1.183594.59375-2.492188.902344-3.816407.902344zm8.53125-45.925782v23.582032l17.066407-8.53125v-6.515626zm0 0"/><path d="m230.40625 426.679688c-1.324219 0-2.628906-.308594-3.816406-.902344l-34.132813-17.066406c-2.890625-1.445313-4.714843-4.398438-4.714843-7.632813v-17.066406c0-3.230469 1.824218-6.1875 4.714843-7.632813l34.132813-17.066406c2.644531-1.324219 5.789062-1.179688 8.304687.375s4.046875 4.300781 4.046875 7.257812v51.199219c0 4.714844-3.820312 8.535157-8.535156 8.535157zm-25.597656-30.875 17.066406 8.53125v-23.582032l-17.066406 8.535156zm0 0"/><path d="m179.207031 477.878906c-4.710937 0-8.53125-3.820312-8.53125-8.53125v-59.734375c0-4.714843 3.820313-8.535156 8.53125-8.535156 4.714844 0 8.535157 3.820313 8.535157 8.535156v59.734375c0 4.710938-3.820313 8.53125-8.535157 8.53125zm0 0"/><path d="m392.539062 512.011719c-16.800781.066406-33.578124-1.410157-50.109374-4.410157-16.824219-2.71875-33.046876-8.347656-47.9375-16.628906-17.699219-10.710937-21.417969-22.316406-21.417969-30.160156 0-8.363281 4.179687-20.652344 24.082031-31.769531.261719-.148438.53125-.28125.808594-.398438 6.542968-3.488281 13.402344-6.355469 20.480468-8.5625 2.90625-.921875 6.085938-.226562 8.335938 1.828125 2.253906 2.054688 3.242188 5.152344 2.589844 8.132813-.652344 2.976562-2.84375 5.382812-5.75 6.308593-6.261719 1.9375-12.320313 4.484376-18.082032 7.605469-.226562.121094-.453124.238281-.683593.34375-9.359375 5.355469-14.714844 11.347657-14.714844 16.511719 0 6.59375 8.277344 12.585938 13.203125 15.570312 13.140625 7.210938 27.425781 12.097657 42.226562 14.445313 15.5 2.804687 31.21875 4.179687 46.96875 4.117187 63.445313 0 102.402344-19.882812 102.402344-34.132812 0-8.25-13.164062-17.859375-33.53125-24.480469-4.480468-1.457031-6.933594-6.269531-5.476562-10.753906 1.457031-4.480469 6.269531-6.933594 10.753906-5.476563 29.222656 9.5 45.320312 23.957032 45.320312 40.710938 0 33.253906-61.554687 51.199219-119.46875 51.199219zm0 0"/><path d="m413.964844 427.445312c-.210938 0-.425782-.003906-.640625-.023437-13.839844-.980469-27.730469-.980469-41.566407 0-3.074218.289063-6.066406-1.105469-7.820312-3.644531-1.753906-2.542969-2-5.832032-.640625-8.605469s4.109375-4.597656 7.195313-4.765625c14.679687-1.050781 29.417968-1.050781 44.097656 0 4.566406.355469 8.035156 4.246094 7.867187 8.820312-.167969 4.574219-3.914062 8.203126-8.492187 8.21875zm0 0"/><path d="m453.085938 469.347656h-27.222657c-8.777343.027344-16.136719-6.636718-16.980469-15.378906l-7.765624-77.640625c-.238282-2.398437.546874-4.785156 2.164062-6.574219 1.617188-1.789062 3.914062-2.808594 6.324219-2.808594h59.734375c2.414062 0 4.710937 1.019532 6.328125 2.808594 1.621093 1.789063 2.40625 4.179688 2.164062 6.578125l-7.765625 77.652344c-.847656 8.734375-8.203125 15.390625-16.980468 15.363281zm0-17.070312v8.535156l.007812-8.535156zm-34.046876-68.265625 6.824219 68.265625h27.21875l6.824219-68.265625zm0 0"/><path d="m359.21875 469.347656h-27.21875c-8.78125.027344-16.140625-6.636718-16.984375-15.378906l-7.765625-77.640625c-.238281-2.398437.546875-4.785156 2.164062-6.574219 1.617188-1.789062 3.914063-2.808594 6.328126-2.808594h59.730468c2.414063 0 4.710938 1.019532 6.332032 2.808594 1.617187 1.789063 2.402343 4.179688 2.160156 6.578125l-7.765625 77.652344c-.847657 8.734375-8.203125 15.390625-16.980469 15.363281zm0-17.070312v8.535156l.007812-8.535156zm-34.046875-68.265625 6.828125 68.265625h27.214844l6.828125-68.265625zm0 0"/></svg>