<svg height="512pt" viewBox="0 0 512 512.01461" width="512pt" xmlns="http://www.w3.org/2000/svg"><path d="m324.285156 196.277344h-.011718c9.414062-.027344 17.039062-7.652344 17.066406-17.066406-.066406-9.394532-7.667969-16.996094-17.066406-17.066407h-.085938c.085938-1.449219.085938-11.433593.085938-12.796875-1.199219-78.933594-66.136719-141.957031-145.066407-140.800781-78.929687-1.15625-143.867187 61.867187-145.066406 140.800781 0 1.363282 0 11.347656.085937 12.796875h-.085937c-9.398437.070313-17 7.671875-17.066406 17.066407.027343 9.414062 7.652343 17.039062 17.066406 17.066406h.011719s8.535156 42.667968-8.53125 76.800781c-15.191406 30.378906-10.070313 67.585937 15.359375 87.382813h122.539062l8.605469 12.886718c.546875.828125 1.242188 1.550782 2.046875 2.132813h10.15625c.78125-.582031 1.445313-1.308594 1.960937-2.132813l8.605469-12.886718h122.566407c25.429687-19.796876 30.546874-57.003907 15.359374-87.382813-17.066406-34.132813-8.535156-76.800781-8.535156-76.800781zm-39.59375-86.875.03125-.015625c6.941406 10.203125 12.898438 21.039062 17.792969 32.363281-4.917969-11.3125-10.886719-22.144531-17.820313-32.347656zm-145.285156-39.734375c-.589844-.050781-1.171875-.089844-1.753906-.136719.578125.019531 1.167968.09375 1.753906.136719zm-81.285156 67.175781c-.804688 1.726562-1.558594 3.390625-2.21875 4.90625.660156-1.519531 1.414062-3.179688 2.21875-4.90625zm9.195312-17.457031c-.566406.960937-1.128906 1.917969-1.667968 2.863281.539062-.945312 1.097656-1.902344 1.664062-2.863281zm-3.101562 5.410156c-.878906 1.609375-1.71875 3.191406-2.507813 4.730469.792969-1.542969 1.625-3.117188 2.507813-4.730469zm-3.355469 6.394531c-.851563 1.707032-1.671875 3.371094-2.410156 4.945313.742187-1.582031 1.546875-3.234375 2.410156-4.945313zm0 0" fill="#af8066"/><path d="m317.449219 360.460938h-276.480469c-25.429688-19.796876-30.550781-57.003907-15.363281-87.382813 17.070312-34.132813 8.535156-76.800781 8.535156-76.800781h290.132813s-8.53125 42.667968 8.535156 76.800781c15.1875 30.378906 10.066406 67.585937-15.359375 87.382813zm0 0" fill="#783e22"/><path d="m293.808594 360.460938h-252.839844c-25.429688-19.796876-30.550781-57.003907-15.363281-87.382813 17.070312-34.132813 8.535156-76.800781 8.535156-76.800781h266.496094s-8.535157 42.667968 8.535156 76.800781c15.1875 30.378906 10.066406 67.585937-15.363281 87.382813zm0 0" fill="#a0522d"/><path d="m330.675781 375.480469c-19.214843-26.828125-50.203125-42.71875-83.203125-42.667969h-42.664062v12.800781l-18.519532 27.734375c-.515624.824219-1.179687 1.550782-1.960937 2.132813h-10.15625c-.804687-.582031-1.5-1.304688-2.046875-2.132813l-18.519531-27.734375v-12.800781h-42.664063c-11.265625-.039062-22.457031 1.804688-33.109375 5.460938-12.949219 4.386718-24.855469 11.386718-34.988281 20.566406-21.875 19.34375-34.375 47.167968-34.304688 76.371094v51.203124c.027344 9.414063 7.652344 17.039063 17.066407 17.066407h307.203125c4.128906.03125 8.121094-1.492188 11.175781-4.269531zm-125.792969 90.1875c-.375.109375-.734374.25-1.109374.355469.375-.105469.734374-.246094 1.109374-.355469zm-6.722656 1.644531c-.816406.171875-1.613281.398438-2.4375.546875.824219-.148437 1.621094-.375 2.4375-.546875zm-7.699218 1.265625c-.972657.121094-1.929688.304687-2.914063.390625.984375-.085938 1.941406-.269531 2.914063-.390625zm-19.597657.390625c-.925781-.085938-1.832031-.253906-2.75-.367188.917969.109376 1.824219.285157 2.75.367188zm-8.191406-1.109375c-.707031-.128906-1.390625-.324219-2.09375-.46875.710937.144531 1.390625.339844 2.09375.46875zm-8.078125-1.847656c-.207031-.054688-.402344-.132813-.609375-.191407.207031.054688.40625.136719.609375.191407zm-14.945312-5.539063c-.285157-.136718-.554688-.300781-.839844-.441406.285156.136719.554687.300781.839844.441406zm-6.871094-3.601562c-.339844-.199219-.664063-.433594-1.003906-.636719.339843.199219.660156.433594 1.003906.632813zm107.667968-10.773438c.664063-.589844 1.328126-1.183594 1.976563-1.792968-.648437.609374-1.308594 1.199218-1.976563 1.789062zm-19.160156 13.050782c.679688-.351563 1.359375-.695313 2.03125-1.058594-.675781.359375-1.351562.707031-2.03125 1.054687zm10.980469-6.527344c.230469-.160156.441406-.347656.671875-.511719-.226562.164063-.441406.347656-.671875.511719zm17.378906-15.777344c.097657-.113281.183594-.242188.28125-.359375-.097656.117187-.183593.242187-.28125.359375zm6.34375-8.472656c.457031-.683594.910157-1.371094 1.351563-2.0625-.441406.695312-.890625 1.378906-1.351563 2.0625zm10.648438-21.394532c.269531-.785156.53125-1.574218.78125-2.367187-.253907.792969-.511719 1.582031-.78125 2.367187zm0 0" fill="#bdc3c7"/><path d="m280.582031 338.273438-10.410156 55.636718c-8.226563 43.757813-46.441406 75.457032-90.964844 75.457032-44.523437 0-82.738281-31.699219-90.964843-75.457032l-10.410157-55.636718c10.652344-3.65625 21.84375-5.5 33.109375-5.460938h34.132813l8.53125 12.800781 18.519531 27.734375c.546875.828125 1.242188 1.550782 2.046875 2.132813h10.15625c.78125-.582031 1.445313-1.308594 1.960937-2.132813l18.519532-27.734375 8.53125-12.800781h34.132812c11.265625-.039062 22.457032 1.804688 33.109375 5.460938zm0 0" fill="#f5f5f5"/><path d="m59.742188 503.480469h-34.136719c-9.414063-.027344-17.039063-7.652344-17.066407-17.066407v-51.203124c-.070312-29.203126 12.429688-57.027344 34.304688-76.371094 16.898438 34.558594 16.898438 144.640625 16.898438 144.640625zm0 0" fill="#f5f5f5"/><path d="m343.984375 499.210938c-3.054687 2.777343-7.046875 4.300781-11.175781 4.269531h-273.066406s0-110.082031-16.898438-144.640625c10.132812-9.179688 22.039062-16.179688 34.988281-20.566406l10.410157 55.636718c8.25 43.738282 46.457031 75.410156 90.964843 75.410156 44.507813 0 82.714844-31.671874 90.964844-75.410156l10.410156-55.636718c20.132813 6.945312 37.628907 19.9375 50.09375 37.207031zm0 0" fill="#3f51b5"/><path d="m153.605469 332.8125v12.800781l-8.53125-12.800781zm0 0" fill="#bdc3c7"/><path d="m213.339844 332.8125-8.53125 12.800781v-12.800781zm0 0" fill="#bdc3c7"/><path d="m204.808594 287.84375v57.769531l-18.519532 27.734375c-.515624.824219-1.179687 1.550782-1.960937 2.132813h-10.15625c-.804687-.582031-1.5-1.304688-2.046875-2.132813l-18.519531-27.734375v-57.769531zm0 0" fill="#ffe0b2"/><path d="m53.683594 196.277344h-19.542969c-9.414063-.027344-17.039063-7.652344-17.066406-17.066406.066406-9.394532 7.667969-16.996094 17.066406-17.066407h17.664063c-.417969 3.65625-.617188 7.332031-.597657 11.007813.011719 4.050781.242188 8.09375.683594 12.117187.425781 3.757813 1.023437 7.339844 1.792969 11.007813zm0 0" fill="#ffe0b2"/><path d="m341.339844 179.210938c-.027344 9.414062-7.652344 17.039062-17.066406 17.066406h-19.539063c.765625-3.667969 1.363281-7.25 1.789063-11.007813.445312-4.023437.671874-8.066406.683593-12.117187.019531-3.675782-.179687-7.351563-.597656-11.007813h17.664063c9.398437.070313 17 7.671875 17.066406 17.066407zm0 0" fill="#dfc49c"/><path d="m324.273438 149.347656c0 1.363282 0 11.347656-.085938 12.796875h-17.578125c-.253906-3.070312-.765625-6.144531-1.28125-9.214843-.765625-3.753907-1.703125-7.421876-2.8125-11.09375v-.085938c-4.871094-11.335938-10.847656-22.167969-17.835937-32.339844l-3.074219 1.535156c-70.398438 5.886719-108.628907-20.566406-125.4375-37.714843-.085938-.085938-.085938-.085938-.171875-.085938-5.101563-1.785156-10.402344-2.929687-15.785156-3.414062-7.851563 12.628906-27.222657 34.390625-71.425782 47.273437h-.085937c-4.820313 7.949219-9.097657 16.21875-12.796875 24.746094v.085938c-1.109375 3.671874-2.050782 7.339843-2.816406 11.09375-.511719 3.070312-1.023438 6.144531-1.28125 9.214843h-17.578126c-.085937-1.449219-.085937-11.433593-.085937-12.796875 1.199219-78.933594 66.136719-141.957031 145.066406-140.800781 78.929688-1.15625 143.867188 61.867187 145.066407 140.800781zm0 0" fill="#91562d"/><path d="m324.273438 149.347656c0 1.363282 0 11.347656-.085938 12.796875h-17.578125c-.253906-3.070312-.765625-6.144531-1.28125-9.214843-.765625-3.753907-1.703125-7.421876-2.8125-11.09375v-.085938c-.769531-1.789062-1.621094-3.667969-2.5625-5.714844-7.566406-68.878906-63.464844-122.402344-132.605469-126.976562 3.921875-.34375 7.847656-.511719 11.859375-.511719 78.929688-1.15625 143.867188 61.867187 145.066407 140.800781zm0 0" fill="#6d4122"/><path d="m307.207031 173.152344c-.011719 4.050781-.238281 8.09375-.683593 12.117187-.425782 3.757813-1.023438 7.339844-1.789063 11.007813-11.777344 53.589844-63.488281 93.867187-125.527344 93.867187-4.011719 0-7.9375-.167969-11.777343-.425781-56.746094-4.777344-102.738282-43.261719-113.746094-93.441406-.769532-3.667969-1.367188-7.25-1.792969-11.007813-.441406-4.023437-.671875-8.066406-.683594-12.117187-.019531-3.675782.179688-7.351563.597657-11.007813.257812-3.070312.769531-6.144531 1.28125-9.214843.765624-3.753907 1.707031-7.421876 2.816406-11.09375v-.085938c3.699218-8.527344 7.976562-16.796875 12.796875-24.746094 37.292969-10.835937 56.917969-27.988281 66.902343-40.703125 1.664063-2.097656 3.203126-4.292969 4.609376-6.570312 2.054687-3.101563 3.6875-6.457031 4.863281-9.984375 3.082031 4.894531 6.75 9.394531 10.921875 13.398437 14.082031 14.335938 43.351562 35.496094 94.378906 38.3125 3.925781.257813 8.023438.34375 12.289062.34375 5.972657 0 12.371094-.34375 18.941407-.855469l2.816406-1.960937c7.058594 10.324219 13.117187 21.292969 18.09375 32.765625v.085938c1.109375 3.671874 2.046875 7.339843 2.8125 11.09375.515625 3.070312 1.027344 6.144531 1.28125 9.214843.417969 3.65625.617187 7.332031.597656 11.007813zm0 0" fill="#dfc49c"/><path d="m283.570312 173.152344c-.011718 4.050781-.242187 8.09375-.683593 12.117187-.425781 3.757813-1.023438 7.339844-1.792969 11.007813-11.007812 50.179687-57 88.664062-113.664062 93.441406-56.746094-4.777344-102.738282-43.261719-113.746094-93.441406-.769532-3.667969-1.367188-7.25-1.792969-11.007813-.441406-4.023437-.671875-8.066406-.683594-12.117187-.019531-3.675782.179688-7.351563.597657-11.007813.257812-3.070312.769531-6.144531 1.28125-9.214843.765624-3.753907 1.707031-7.421876 2.816406-11.09375v-.085938c3.699218-8.527344 7.976562-16.796875 12.796875-24.746094 37.292969-10.835937 56.917969-27.988281 66.902343-40.703125 17.410157 16.296875 52.992188 38.398438 114.773438 35.15625 2.476562-.085937 5.035156-.253906 7.59375-.511719l2.816406-1.960937c.683594.9375 1.28125 1.875 1.878906 2.816406 6.246094 9.503907 11.667969 19.523438 16.210938 29.949219v.085938c1.109375 3.671874 2.050781 7.339843 2.816406 11.09375.511719 3.070312 1.023438 6.144531 1.28125 9.214843.417969 3.65625.617188 7.332031.597656 11.007813zm0 0" fill="#ffe0b2"/><path d="m503.472656 460.8125c0 23.550781-49.664062 42.667969-110.933594 42.667969-4.179687 0-8.277343-.085938-12.285156-.257813-.191406.085938-.410156.085938-.597656 0-11.96875-.527344-23.886719-1.867187-35.671875-4.011718-15.800781-2.53125-31.046875-7.785157-45.054687-15.527344-11.007813-6.65625-17.324219-14.421875-17.324219-22.871094.019531-1.644531.25-3.277344.683593-4.863281 3.644532-8.667969 10.445313-15.621094 19.03125-19.457031h.085938c6.253906-3.394532 12.828125-6.167969 19.625-8.277344l50.089844-9.300782c3.160156-.257812 6.402344-.425781 9.644531-.511718.304687-.070313.621094-.101563.9375-.085938 3.5-.171875 7.167969-.171875 10.835937-.171875 3.671876 0 7.339844 0 10.839844.171875 3.582032.171875 7.082032.339844 10.582032.597656l50.089843 9.300782c21.160157 6.828125 35.496094 16.640625 38.742188 27.820312.441406 1.554688.667969 3.160156.679687 4.777344zm0 0" fill="#cfd8dc"/><path d="m479.835938 460.8125c0 22.101562-43.691407 40.277344-99.582032 42.410156-.191406.085938-.410156.085938-.597656 0-11.96875-.527344-23.886719-1.867187-35.671875-4.011718-15.800781-2.53125-31.046875-7.785157-45.054687-15.527344-11.007813-6.65625-17.324219-14.421875-17.324219-22.871094.019531-1.644531.25-3.277344.683593-4.863281 3.644532-8.667969 10.445313-15.621094 19.03125-19.457031h.085938c6.253906-3.394532 12.828125-6.167969 19.625-8.277344l50.089844-9.300782c3.160156-.257812 6.402344-.425781 9.644531-.511718 3.242187.085937 6.398437.253906 9.554687.511718l50.09375 9.300782c21.160157 6.828125 35.496094 16.640625 38.738282 27.820312.441406 1.554688.671875 3.160156.683594 4.777344zm0 0" fill="#f5f5f5"/><path d="m466.78125 401.078125-5.207031 52.054687c-.425781 4.347657-4.078125 7.667969-8.445313 7.679688h-27.308594c-4.371093-.011719-8.019531-3.332031-8.449218-7.679688l-5.203125-52.054687zm0 0" fill="#ffdc00"/><path d="m468.402344 384.867188-1.621094 16.210937h-54.613281l-1.621094-16.210937c-.242187-2.402344.542969-4.789063 2.160156-6.578126 1.617188-1.789062 3.917969-2.808593 6.328125-2.808593h40.875c2.414063 0 4.710938 1.019531 6.328125 2.808593 1.621094 1.789063 2.40625 4.175782 2.164063 6.578126zm0 0" fill="#02a9f4"/><path d="m372.914062 401.078125-5.207031 52.054687c-.425781 4.347657-4.078125 7.667969-8.445312 7.679688h-27.308594c-4.367187-.011719-8.019531-3.332031-8.445313-7.679688l-5.207031-52.054687zm0 0" fill="#ffdc00"/><path d="m374.535156 384.867188-1.621094 16.210937h-54.613281l-1.621093-16.210937c-.242188-2.402344.542968-4.789063 2.160156-6.578126 1.621094-1.789062 3.917968-2.808593 6.332031-2.808593h40.871094c2.414062 0 4.710937 1.019531 6.332031 2.808593 1.617188 1.789063 2.402344 4.175782 2.160156 6.578126zm0 0" fill="#02a9f4"/><path d="m162.140625 375.480469h34.132813c4.714843 0 8.535156 3.820312 8.535156 8.53125v17.066406c0 4.714844-3.820313 8.535156-8.535156 8.535156h-34.132813c-4.710937 0-8.535156-3.820312-8.535156-8.535156v-17.066406c0-4.710938 3.824219-8.53125 8.535156-8.53125zm0 0" fill="#f44335"/><path d="m211.632812 463.457031c-20.902343 7.851563-43.945312 7.851563-64.851562 0l15.359375-53.84375h34.132813zm0 0" fill="#f44335"/><path d="m51.890625 204.8125h-17.75c-14.132813-.015625-25.585937-11.46875-25.601563-25.601562.066407-14.109376 11.492188-25.53125 25.601563-25.597657h17.664063c4.710937 0 8.535156 3.820313 8.535156 8.53125 0 4.714844-3.824219 8.535157-8.535156 8.535157h-17.578126c-2.253906-.039063-4.425781.851562-6.007812 2.457031-1.671875 1.578125-2.617188 3.777343-2.613281 6.074219.007812 4.710937 3.824219 8.527343 8.535156 8.535156h17.75c4.710937 0 8.53125 3.820312 8.53125 8.53125 0 4.714844-3.820313 8.535156-8.53125 8.535156zm0 0"/><path d="m324.273438 204.8125h-17.75c-4.710938 0-8.53125-3.820312-8.53125-8.535156 0-4.710938 3.820312-8.53125 8.53125-8.53125h17.75c4.710937-.007813 8.527343-3.824219 8.535156-8.535156.019531-2.226563-.867188-4.363282-2.460938-5.921876-1.578125-1.671874-3.777344-2.617187-6.074218-2.609374h-17.664063c-4.710937 0-8.53125-3.820313-8.53125-8.535157 0-4.710937 3.820313-8.53125 8.53125-8.53125h17.578125c14.144531.019531 25.621094 11.453125 25.6875 25.597657-.015625 14.132812-11.46875 25.585937-25.601562 25.601562zm0 0"/><path d="m324.199219 170.679688c-.171875 0-.328125 0-.5-.011719-4.703125-.273438-8.292969-4.300781-8.03125-9 .082031-1.605469.074219-11.019531.074219-12.320313-1.28125-74.183594-62.347657-133.34375-136.535157-132.269531-74.1875-1.074219-135.253906 58.085937-136.53125 132.269531 0 1.300782-.011719 10.734375.070313 12.324219.171875 3.042969-1.292969 5.949219-3.84375 7.621094-2.550782 1.671875-5.796875 1.855469-8.519532.480469-2.722656-1.371094-4.507812-4.089844-4.679687-7.136719-.082031-1.507813-.097656-11.871094-.097656-13.289063 1.289062-83.605468 69.992187-150.402344 153.601562-149.3359372 83.609375-1.0664068 152.3125 65.7304692 153.601563 149.3359372 0 1.417969-.015625 11.78125-.097656 13.289063-.257813 4.511719-3.992188 8.039062-8.511719 8.042969zm0 0"/><path d="m153.605469 353.632812c-4.710938 0-8.53125-3.820312-8.53125-8.53125v-57.257812c0-4.714844 3.820312-8.535156 8.53125-8.535156 4.714843 0 8.535156 3.820312 8.535156 8.535156v57.257812c0 4.710938-3.820313 8.53125-8.535156 8.53125zm0 0"/><path d="m204.808594 353.632812c-4.714844 0-8.535156-3.820312-8.535156-8.53125v-57.257812c0-4.714844 3.820312-8.535156 8.535156-8.535156 4.710937 0 8.53125 3.820312 8.53125 8.535156v57.257812c0 4.710938-3.820313 8.53125-8.53125 8.53125zm0 0"/><path d="m332.808594 512.011719h-307.203125c-14.128907-.015625-25.5820315-11.46875-25.5976565-25.597657v-51.203124c-.0273437-47.460938 30.1523435-89.679688 75.0703125-105.011719 11.539063-3.964844 23.660156-5.964844 35.863281-5.921875h42.664063c4.714843 0 8.535156 3.824218 8.535156 8.535156 0 4.714844-3.820313 8.535156-8.535156 8.535156h-42.664063c-10.3125-.042968-20.558594 1.644532-30.3125 4.992188-38.023437 12.96875-63.574218 48.699218-63.554687 88.871094v51.203124c.007812 4.707032 3.824219 8.527344 8.53125 8.53125h307.203125c2 .035157 3.9375-.691406 5.421875-2.03125 3.488281-3.105468 8.824219-2.832031 11.976562.617188 3.148438 3.449219 2.941407 8.789062-.464843 11.980469-4.632813 4.210937-10.675782 6.53125-16.933594 6.5zm0 0"/><path d="m330.683594 384.011719c-2.746094.003906-5.320313-1.3125-6.925782-3.535157-17.613281-24.605468-46.027343-39.179687-76.285156-39.128906h-42.664062c-4.714844 0-8.535156-3.820312-8.535156-8.535156 0-4.710938 3.820312-8.535156 8.535156-8.535156h42.664062c35.714844.046875 69.230469 17.234375 90.113282 46.207031 1.875 2.59375 2.136718 6.023437.683593 8.875-1.457031 2.851563-4.386719 4.648437-7.585937 4.652344zm0 0"/><path d="m179.207031 477.878906c-48.628906.015625-90.375-34.601562-99.355469-82.394531l-10.410156-55.636719c-.578125-3.007812.492188-6.09375 2.8125-8.089844 2.320313-1.996093 5.53125-2.597656 8.414063-1.574218 2.886719 1.019531 5.003906 3.507812 5.550781 6.519531l10.410156 55.640625c7.480469 39.707031 42.167969 68.46875 82.578125 68.46875 40.410157 0 75.09375-28.761719 82.578125-68.46875l10.410156-55.640625c.546876-3.011719 2.664063-5.5 5.546876-6.519531 2.886718-1.023438 6.097656-.421875 8.417968 1.574218 2.316406 1.996094 3.390625 5.082032 2.8125 8.089844l-10.414062 55.636719c-8.996094 47.78125-50.730469 82.390625-99.351563 82.394531zm0 0"/><path d="m59.742188 512.011719c-4.714844 0-8.535157-3.820313-8.535157-8.53125 0-30.125-2.886719-114.160157-16.023437-140.972657-2.023438-4.222656-.261719-9.285156 3.941406-11.347656 4.203125-2.058594 9.285156-.347656 11.382812 3.839844 17.566407 35.839844 17.765626 143.894531 17.765626 148.480469 0 4.710937-3.820313 8.53125-8.53125 8.53125zm0 0"/><path d="m301.40625 445.027344h-.085938c-4.707031-.023438-8.503906-3.851563-8.492187-8.554688.011719-4.707031 3.828125-8.511718 8.535156-8.511718 4.703125 0 8.519531 3.804687 8.53125 8.511718.011719 4.703125-3.785156 8.53125-8.488281 8.554688zm0 0"/><path d="m179.207031 384.011719c-5.621093.019531-10.890625-2.71875-14.113281-7.324219l-27.03125-39.015625c-2.550781-3.871094-1.546875-9.070313 2.265625-11.710937 3.808594-2.640626 9.03125-1.753907 11.757813 1.992187l27.035156 39.011719 27.210937-39.011719c1.703125-2.582031 4.671875-4.042969 7.757813-3.8125 3.089844.230469 5.808594 2.113281 7.109375 4.921875 1.300781 2.8125.980469 6.105469-.84375 8.609375l-27.03125 39.011719c-3.21875 4.609375-8.496094 7.347656-14.117188 7.328125zm0 0"/><path d="m392.539062 512.011719c-16.800781.066406-33.578124-1.410157-50.109374-4.410157-16.824219-2.71875-33.046876-8.347656-47.9375-16.628906-17.699219-10.710937-21.417969-22.316406-21.417969-30.160156 0-8.363281 4.179687-20.652344 24.082031-31.769531.261719-.148438.53125-.28125.808594-.398438 6.542968-3.488281 13.402344-6.355469 20.480468-8.5625 2.90625-.921875 6.085938-.226562 8.335938 1.828125 2.253906 2.054688 3.242188 5.152344 2.589844 8.132813-.652344 2.976562-2.84375 5.382812-5.75 6.308593-6.261719 1.9375-12.320313 4.484376-18.082032 7.605469-.226562.121094-.453124.238281-.683593.34375-9.359375 5.355469-14.714844 11.347657-14.714844 16.511719 0 6.59375 8.277344 12.585938 13.203125 15.570312 13.140625 7.210938 27.425781 12.097657 42.226562 14.445313 15.5 2.804687 31.21875 4.179687 46.96875 4.117187 63.445313 0 102.402344-19.882812 102.402344-34.132812 0-8.25-13.164062-17.859375-33.53125-24.480469-4.480468-1.457031-6.933594-6.269531-5.476562-10.753906 1.457031-4.480469 6.269531-6.933594 10.753906-5.476563 29.222656 9.5 45.320312 23.957032 45.320312 40.710938 0 33.253906-61.554687 51.199219-119.46875 51.199219zm0 0"/><path d="m413.964844 427.445312c-.210938 0-.425782-.003906-.640625-.023437-13.839844-.980469-27.730469-.980469-41.566407 0-3.074218.289063-6.066406-1.105469-7.820312-3.644531-1.753906-2.542969-2-5.832032-.640625-8.605469s4.109375-4.597656 7.195313-4.765625c14.679687-1.050781 29.417968-1.050781 44.097656 0 4.566406.355469 8.035156 4.246094 7.867187 8.820312-.167969 4.574219-3.914062 8.203126-8.492187 8.21875zm0 0"/><path d="m453.085938 469.347656h-27.222657c-8.777343.027344-16.136719-6.636718-16.980469-15.378906l-7.765624-77.640625c-.238282-2.398437.546874-4.785156 2.164062-6.574219 1.617188-1.789062 3.914062-2.808594 6.324219-2.808594h59.734375c2.414062 0 4.710937 1.019532 6.328125 2.808594 1.621093 1.789063 2.40625 4.179688 2.164062 6.578125l-7.765625 77.652344c-.847656 8.734375-8.203125 15.390625-16.980468 15.363281zm0-17.070312v8.535156l.007812-8.535156zm-34.046876-68.265625 6.824219 68.265625h27.21875l6.824219-68.265625zm0 0"/><path d="m359.21875 469.347656h-27.21875c-8.78125.027344-16.140625-6.636718-16.984375-15.378906l-7.765625-77.640625c-.238281-2.398437.546875-4.785156 2.164062-6.574219 1.617188-1.789062 3.914063-2.808594 6.328126-2.808594h59.730468c2.414063 0 4.710938 1.019532 6.332032 2.808594 1.617187 1.789063 2.402343 4.179688 2.160156 6.578125l-7.765625 77.652344c-.847657 8.734375-8.203125 15.390625-16.980469 15.363281zm0-17.070312v8.535156l.007812-8.535156zm-34.046875-68.265625 6.828125 68.265625h27.214844l6.828125-68.265625zm0 0"/><path d="m196.273438 418.144531h-34.132813c-9.421875-.007812-17.058594-7.644531-17.066406-17.066406v-17.066406c.007812-9.421875 7.644531-17.054688 17.066406-17.066407h34.132813c9.421874.011719 17.058593 7.644532 17.066406 17.066407v17.066406c-.007813 9.421875-7.644532 17.058594-17.066406 17.066406zm-34.132813-34.132812v17.066406h34.144531l-.011718-17.066406zm0 0"/><path d="m146.785156 471.996094c-2.675781-.003906-5.195312-1.265625-6.804687-3.402344-1.613281-2.132812-2.132813-4.902344-1.402344-7.476562l15.359375-53.847657c.789062-2.988281 3.128906-5.316406 6.121094-6.085937 2.992187-.773438 6.167968.132812 8.300781 2.367187 2.136719 2.234375 2.894531 5.449219 1.988281 8.402344l-15.363281 53.847656c-1.042969 3.664063-4.386719 6.191407-8.199219 6.195313zm0 0"/><path d="m211.628906 471.996094c-3.8125-.003906-7.15625-2.53125-8.199218-6.195313l-15.363282-53.847656c-.90625-2.953125-.148437-6.164063 1.988282-8.398437 2.132812-2.238282 5.308593-3.144532 8.300781-2.371094 2.992187.769531 5.332031 3.101562 6.121093 6.089844l15.359376 53.84375c.730468 2.574218.210937 5.34375-1.402344 7.480468-1.609375 2.136719-4.128906 3.394532-6.804688 3.398438zm0 0"/><path d="m40.976562 368.992188c-1.894531.003906-3.738281-.628907-5.234374-1.796876-27.824219-21.667968-35.292969-62.847656-17.757813-97.933593 15.511719-31.011719 7.878906-70.921875 7.796875-71.320313-.921875-4.621094 2.078125-9.117187 6.699219-10.039062 4.625-.917969 9.117187 2.078125 10.039062 6.703125.371094 1.863281 8.898438 45.957031-9.265625 82.289062-13.917968 27.835938-8.457031 60.148438 12.96875 76.835938 2.878906 2.238281 4.011719 6.058593 2.828125 9.503906-1.183593 3.449219-4.425781 5.761719-8.074219 5.761719zm0 0"/><path d="m317.464844 368.992188c-3.644532.003906-6.886719-2.3125-8.074219-5.757813-1.183594-3.449219-.046875-7.265625 2.828125-9.507813 21.433594-16.6875 26.890625-49 12.972656-76.832031-18.171875-36.328125-9.644531-80.425781-9.273437-82.289062.597656-2.992188 2.742187-5.4375 5.632812-6.414063 2.886719-.980468 6.074219-.34375 8.367188 1.667969s3.335937 5.09375 2.738281 8.082031c-.078125.398438-7.710938 40.308594 7.796875 71.320313 17.542969 35.082031 10.074219 76.265625-17.75 97.933593-1.496094 1.167969-3.339844 1.800782-5.238281 1.796876zm0 0"/><path d="m55.242188 152.675781c-2.535157-.003906-4.933594-1.128906-6.558594-3.070312-1.621094-1.945313-2.296875-4.507813-1.84375-7l4.523437-24.664063c.9375-4.539062 5.332031-7.5 9.894531-6.664062 4.558594.835937 7.621094 5.160156 6.890626 9.738281l-4.523438 24.660156c-.742188 4.050781-4.269531 6.992188-8.382812 7zm0 0"/><path d="m179.21875 298.679688c-9.105469.011718-18.199219-.804688-27.15625-2.445313-52.230469-8.273437-94.339844-47.179687-106.714844-98.589844-.816406-3.734375-1.460937-7.503906-1.917968-11.367187-.484376-4.359375-.730469-8.738282-.742188-13.125-.019531-4.015625.199219-8.03125.660156-12.023438.242188-2.992187.785156-6.300781 1.335938-9.605468.660156-3.351563 1.449218-6.363282 2.25-9.375 1-4.195313 4.972656-6.984376 9.257812-6.5 4.285156.484374 7.535156 4.09375 7.574219 8.40625v.085937c0 .738281-.097656 1.476563-.289063 2.191406-.722656 2.730469-1.449218 5.453125-2.011718 8.265625-.425782 2.570313-.90625 5.414063-1.140625 8.25-.398438 3.421875-.589844 6.863282-.570313 10.304688.011719 3.75.226563 7.492187.636719 11.21875.378906 3.199218.933594 6.429687 1.640625 9.65625 10.9375 44.683594 47.691406 78.390625 93.152344 85.425781 15.898437 2.871094 32.179687 2.867187 48.078125-.003906 45.320312-7.066407 82.011719-40.578125 93.144531-85.078125.710938-3.285156 1.257812-6.679688 1.65625-10.082032.40625-3.699218.613281-7.414062.625-11.132812.019531-3.34375-.160156-6.683594-.539062-10.003906-.265626-3.128906-.746094-5.972656-1.21875-8.816406-.417969-1.976563-.976563-4.265626-1.605469-6.570313-5.246094-11.34375-12.0625-21.894531-20.246094-31.339844-2.992187-3.613281-2.503906-8.96875 1.09375-11.984375 3.597656-3.011718 8.957031-2.554687 11.988281 1.027344 9.699219 11.234375 17.636719 23.878906 23.539063 37.5.8125 2.929688 1.449219 5.582031 2 8.234375.613281 3.625 1.148437 6.929687 1.429687 10.226563.4375 3.894531.648438 7.808593.625 11.726562-.011718 4.351562-.253906 8.699219-.734375 13.023438-.46875 4.066406-1.117187 8.015624-1.933593 11.808593-12.582032 51.21875-54.617188 89.921875-106.699219 98.242188-8.960938 1.644531-18.054688 2.464843-27.167969 2.449219zm0 0"/><path d="m59.746094 128.011719c-4.3125-.007813-7.9375-3.230469-8.457032-7.507813-.515624-4.277344 2.238282-8.273437 6.421876-9.308594 67.804687-16.71875 79.066406-53.433593 79.171874-53.804687.945313-3.300781 3.777344-5.710937 7.183594-6.121094 3.410156-.410156 6.730469 1.261719 8.429688 4.246094 1.289062 2.207031 33.160156 54.804687 128.417968 46.925781 4.699219-.390625 8.824219 3.101563 9.214844 7.796875.390625 4.699219-3.101562 8.824219-7.796875 9.214844-78.90625 6.582031-119.480469-25.574219-135.800781-43.765625-9.914062 15.222656-33.15625 39.363281-84.734375 52.074219-.671875.167969-1.359375.25-2.050781.25zm0 0"/></svg>