<svg height="512pt" viewBox="0 0 512 512" width="512pt" xmlns="http://www.w3.org/2000/svg"><path d="m324.265625 315.734375v68.265625l-23.636719-1.367188-266.496094-15.1875v-51.710937c.027344-9.414063 7.652344-17.039063 17.066407-17.066406h256c9.414062.027343 17.039062 7.652343 17.066406 17.066406zm0 0" fill="#545c60"/><path d="m300.628906 315.734375v66.898437l-266.496094-15.1875v-51.710937c.027344-9.414063 7.652344-17.039063 17.066407-17.066406h232.363281c9.414062.027343 17.039062 7.652343 17.066406 17.066406zm0 0" fill="#7f8e94"/><path d="m313.34375 356.691406h-.085938c-18.464843-15.402344-41.742187-23.855468-65.792968-23.890625h-136.53125c-5.71875.003907-11.429688.492188-17.066406 1.449219-12.035157 1.972656-23.605469 6.140625-34.132813 12.289062-31.710937 18.253907-51.238281 52.070313-51.199219 88.660157v51.199219c.027344 9.414062 7.652344 17.039062 17.066406 17.066406h307.199219c9.414063-.027344 17.039063-7.652344 17.066407-17.066406v-38.058594l4.265624-42.824219zm0 0" fill="#ecf0f1"/><path d="m59.734375 346.539062v156.925782h-34.132813c-9.414062-.027344-17.039062-7.652344-17.066406-17.066406v-51.199219c-.039062-36.589844 19.488282-70.40625 51.199219-88.660157zm0 0" fill="#f5f5f5"/><path d="m264.535156 334.25v169.214844h-170.667968v-169.214844c5.636718-.957031 11.347656-1.445312 17.066406-1.449219h136.53125c5.722656.003907 11.429687.492188 17.070312 1.449219zm0 0" fill="#f5f5f5"/><path d="m354.132812 405.503906-4.265624 42.835938v38.058594c-.027344 9.414062-7.652344 17.039062-17.066407 17.066406h-34.132812v-157.011719c5.152343 2.980469 10.035156 6.40625 14.589843 10.238281h.085938zm0 0" fill="#cfd8dc"/><path d="m330.496094 405.503906-4.265625 42.835938v38.058594c-.027344 9.414062-7.652344 17.039062-17.066407 17.066406h-10.496093v-136.019532zm0 0" fill="#f5f5f5"/><path d="m204.800781 290.132812v68.265626h-51.199219v-68.265626zm0 0" fill="#f5f5f5"/><path d="m153.601562 8.535156h51.199219c70.691407 0 128 57.304688 128 128v34.132813c0 70.691406-57.308593 128-128 128h-51.199219c-70.695312 0-128-57.308594-128-128v-34.132813c0-70.695312 57.304688-128 128-128zm0 0" fill="#cfd8dc"/><path d="m153.601562 8.535156h27.5625c70.691407 0 128 57.304688 128 128v34.132813c0 70.691406-57.308593 128-128 128h-27.5625c-70.695312 0-128-57.308594-128-128v-34.132813c0-70.695312 57.304688-128 128-128zm0 0" fill="#f5f5f5"/><path d="m298.667969 145.066406v17.066406c.007812 27.160157-10.78125 53.210938-29.984375 72.417969-19.207032 19.203125-45.257813 29.988281-72.417969 29.984375h-34.132813c-6.992187-.015625-13.96875-.730468-20.820312-2.136718-47.527344-9.851563-81.597656-51.726563-81.578125-100.265626v-17.066406c.027344-9.414062 7.652344-17.039062 17.066406-17.066406h204.800781c9.414063.027344 17.039063 7.652344 17.066407 17.066406zm0 0" fill="#ff9801"/><path d="m93.867188 334.25v169.214844h-34.132813v-156.925782c10.527344-6.148437 22.097656-10.316406 34.132813-12.289062zm0 0" fill="#3f51b5"/><path d="m298.667969 346.453125v157.011719h-34.132813v-169.214844c12.015625 1.984375 23.578125 6.117188 34.132813 12.203125zm0 0" fill="#3f51b5"/><path d="m145.066406 452.265625h68.265625c9.425781 0 17.066407 7.640625 17.066407 17.066406v34.132813h-102.398438v-34.132813c0-9.425781 7.640625-17.066406 17.066406-17.066406zm0 0" fill="#7f8e94"/><g fill="#02a9f4"><path d="m426.015625 414.292969 7.390625 27.050781c1.421875 5.183594.3125 10.734375-2.984375 14.976562l-28.808594 37.046876c-1.128906 1.449218-3.054687 2.015624-4.789062 1.402343-1.730469-.609375-2.875-2.261719-2.84375-4.097656l.519531-29.859375-9.648438-29.015625zm0 0"/><path d="m350.976562 355.941406-28.03125-.5c-5.375-.097656-10.480468 2.34375-13.777343 6.585938l-28.808594 37.046875c-1.128906 1.449219-1.199219 3.457031-.183594 4.984375 1.019531 1.527344 2.902344 2.234375 4.675781 1.75l28.8125-7.863282 30.5 2.207032zm0 0"/><path d="m344.34375 400.1875-11.21875 56.132812 51.644531-24.703124zm0 0"/></g><path d="m298.667969 145.066406v17.066406c.007812 27.160157-10.78125 53.210938-29.984375 72.417969-19.207032 19.203125-45.257813 29.988281-72.417969 29.984375h-34.132813c-6.992187-.015625-13.96875-.730468-20.820312-2.136718-3.195312-10.363282-4.808594-21.152344-4.777344-32 .007813-44.753907 26.890625-85.125 68.179688-102.398438h76.886718c9.414063.027344 17.039063 7.652344 17.066407 17.066406zm0 0" fill="#f57c00"/><path d="m501.761719 285.011719c-9.125 37.058593-26.054688 71.738281-49.664063 101.71875-37.546875 48.382812-70.488281 53.25-92.757812 35.925781-2.632813-2.035156-5.039063-4.355469-7.167969-6.914062-15.359375-18.601563-13.996094-49.320313 19.113281-91.902344 23.234375-30.253906 52.640625-55.214844 86.273438-73.214844 8-4.105469 16.785156-6.464844 25.769531-6.914062 4.363281-.089844 8.644531 1.226562 12.203125 3.753906 8.105469 6.402344 9.640625 20.140625 6.230469 37.546875zm0 0" fill="#c81e1e"/><path d="m483.328125 271.703125c-9.105469 37.035156-26.042969 71.6875-49.664063 101.628906-31.742187 40.789063-60.074218 50.6875-81.492187 42.410157-15.359375-18.601563-13.996094-49.320313 19.113281-91.902344 23.234375-30.253906 52.640625-55.214844 86.273438-73.214844 8-4.105469 16.785156-6.464844 25.769531-6.914062 2.242187 9.195312 2.242187 18.796874 0 27.992187zm0 0" fill="#f44335"/><path d="m501.789062 285.019531c-20.261718-1.628906-37.621093-15.128906-44.191406-34.363281 16.039063-7.417969 29.765625-9.5 37.914063-3.15625 8.152343 6.34375 9.636719 20.136719 6.277343 37.519531zm0 0" fill="#9e9e9e"/><path d="m428.769531 355.277344c0 9.425781-7.644531 17.066406-17.070312 17.066406s-17.066407-7.640625-17.066407-17.066406c0-9.425782 7.640626-17.066406 17.066407-17.066406s17.070312 7.640624 17.070312 17.066406zm0 0" fill="#3f51b5"/><path d="m153.601562 366.933594c-4.714843 0-8.535156-3.820313-8.535156-8.535156v-59.730469c0-4.714844 3.820313-8.535157 8.535156-8.535157 4.710938 0 8.53125 3.820313 8.53125 8.535157v59.730469c0 4.714843-3.820312 8.535156-8.53125 8.535156zm0 0"/><path d="m204.800781 366.933594c-4.714843 0-8.535156-3.820313-8.535156-8.535156v-59.730469c0-4.714844 3.820313-8.535157 8.535156-8.535157 4.710938 0 8.53125 3.820313 8.53125 8.535157v59.730469c0 4.714843-3.820312 8.535156-8.53125 8.535156zm0 0"/><path d="m332.800781 512h-307.199219c-14.132812-.015625-25.585937-11.46875-25.601562-25.601562v-51.199219c-.0078125-29.421875 11.675781-57.644531 32.480469-78.453125 20.808593-20.804688 49.027343-32.488282 78.453125-32.480469h42.667968c4.710938 0 8.53125 3.820313 8.53125 8.535156 0 4.710938-3.820312 8.53125-8.53125 8.53125h-42.667968c-24.898438-.007812-48.777344 9.878907-66.382813 27.484375-17.605469 17.605469-27.492187 41.484375-27.484375 66.382813v51.199219c.007813 4.710937 3.824219 8.527343 8.535156 8.535156h307.199219c4.710938-.007813 8.527344-3.824219 8.53125-8.535156v-38.058594c0-4.710938 3.820313-8.53125 8.535157-8.53125 4.710937 0 8.53125 3.820312 8.53125 8.53125v38.058594c-.015626 14.132812-11.464844 25.585937-25.597657 25.601562zm0 0"/><path d="m313.34375 365.226562h-.085938c-2.023437 0-3.980468-.71875-5.519531-2.027343-4.175781-3.507813-8.648437-6.644531-13.371093-9.371094-9.65625-5.570313-20.238282-9.351563-31.238282-11.160156-5.175781-.882813-10.414062-1.328125-15.664062-1.335938h-42.664063c-4.714843 0-8.535156-3.820312-8.535156-8.53125 0-4.714843 3.820313-8.535156 8.535156-8.535156h42.664063c6.199218.007813 12.382812.535156 18.488281 1.570313 13.027344 2.148437 25.554687 6.628906 36.988281 13.226562 5.46875 3.167969 10.65625 6.792969 15.503906 10.839844 2.925782 2.199218 4.117188 6.023437 2.960938 9.496094-1.15625 3.472656-4.402344 5.820312-8.0625 5.828124zm0 0"/><path d="m344.054688 409.855469c-4.464844.277343-8.460938-2.742188-9.410157-7.109375-.953125-4.371094 1.421875-8.78125 5.597657-10.386719 4.171874-1.605469 8.890624.074219 11.113281 3.957031.515625 1.066406.878906 2.199219 1.082031 3.363282.492188 2.507812-.164062 5.097656-1.789062 7.070312-1.621094 1.96875-4.042969 3.109375-6.59375 3.105469zm-7.972657-5.917969.007813.011719zm7.980469-2.613281-8.40625 1.472656.042969.171875zm0 0"/><path d="m204.800781 307.199219h-51.199219c-75.371093-.085938-136.449218-61.164063-136.535156-136.53125v-34.132813c.085938-75.371094 61.164063-136.4492185 136.535156-136.535156h51.199219c75.367188.0859375 136.445313 61.164062 136.53125 136.535156v34.132813c-.085937 75.367187-61.164062 136.445312-136.53125 136.53125zm-51.199219-290.132813c-65.949218.074219-119.394531 53.519532-119.46875 119.46875v34.132813c.074219 65.949219 53.519532 119.390625 119.46875 119.464843h51.199219c65.949219-.074218 119.390625-53.515624 119.464844-119.464843v-34.132813c-.074219-65.949218-53.515625-119.394531-119.464844-119.46875zm0 0"/><path d="m196.265625 273.066406h-34.132813c-61.238281-.066406-110.863281-49.695312-110.933593-110.933594v-17.066406c.015625-14.132812 11.46875-25.585937 25.601562-25.601562h204.800781c14.128907.015625 25.582032 11.46875 25.597657 25.601562v17.066406c-.066407 61.238282-49.695313 110.867188-110.933594 110.933594zm-119.464844-136.53125c-4.710937.003906-8.527343 3.820313-8.535156 8.53125v17.066406c.058594 51.816407 42.050781 93.808594 93.867187 93.867188h34.132813c51.816406-.058594 93.808594-42.050781 93.867187-93.867188v-17.066406c-.003906-4.710937-3.824218-8.527344-8.53125-8.53125zm0 0"/><path d="m102.398438 196.265625c-3.449219 0-6.558594-2.078125-7.878907-5.265625-1.320312-3.191406-.59375-6.859375 1.847657-9.300781l25.601562-25.597657c3.347656-3.234374 8.667969-3.1875 11.960938.101563 3.292968 3.292969 3.335937 8.613281.101562 11.964844l-25.597656 25.597656c-1.597656 1.605469-3.769532 2.503906-6.035156 2.5zm0 0"/><path d="m128 213.332031c-3.449219 0-6.5625-2.078125-7.882812-5.265625-1.320313-3.1875-.589844-6.859375 1.851562-9.300781l42.664062-42.664063c3.347657-3.234374 8.671876-3.1875 11.964844.101563 3.289063 3.292969 3.335938 8.613281.101563 11.964844l-42.667969 42.664062c-1.597656 1.605469-3.769531 2.503907-6.03125 2.5zm0 0"/><path d="m93.867188 512h-34.132813c-4.714844 0-8.535156-3.820312-8.535156-8.535156v-157.011719c0-4.710937 3.820312-8.53125 8.535156-8.53125 4.710937 0 8.53125 3.820313 8.53125 8.53125v148.480469h17.066406v-160.683594c0-4.710938 3.820313-8.53125 8.535157-8.53125 4.710937 0 8.53125 3.820312 8.53125 8.53125v169.214844c0 4.714844-3.820313 8.535156-8.53125 8.535156zm0 0"/><path d="m298.667969 512h-34.132813c-4.714844 0-8.535156-3.820312-8.535156-8.535156v-169.214844c0-4.710938 3.820312-8.53125 8.535156-8.53125 4.710938 0 8.53125 3.820312 8.53125 8.53125v160.683594h17.066406v-92.929688c0-4.710937 3.820313-8.53125 8.535157-8.53125 4.710937 0 8.53125 3.820313 8.53125 8.53125v101.460938c0 4.714844-3.820313 8.535156-8.53125 8.535156zm0 0"/><path d="m230.398438 512h-102.398438c-4.710938 0-8.535156-3.820312-8.535156-8.535156v-34.132813c.015625-14.128906 11.46875-25.582031 25.601562-25.597656h68.265625c14.132813.015625 25.585938 11.46875 25.601563 25.597656v34.132813c0 4.714844-3.820313 8.535156-8.535156 8.535156zm-93.863282-17.066406h85.332032v-25.601563c-.007813-4.710937-3.824219-8.527343-8.535157-8.53125h-68.265625c-4.710937.003907-8.527344 3.820313-8.53125 8.53125zm0 0"/><path d="m34.132812 375.980469c-4.710937 0-8.53125-3.824219-8.53125-8.535157v-51.710937c.015626-14.132813 11.464844-25.585937 25.597657-25.601563h256c14.132812.015626 25.585937 11.46875 25.601562 25.601563v39.765625c0 4.710938-3.820312 8.53125-8.535156 8.53125-4.710937 0-8.53125-3.820312-8.53125-8.53125v-39.765625c-.007813-4.710937-3.824219-8.527344-8.535156-8.535156h-256c-4.710938.007812-8.527344 3.824219-8.53125 8.535156v51.710937c0 4.710938-3.820313 8.535157-8.535157 8.535157zm0 0"/><path d="m385.414062 440.332031c-11.375-.058593-22.402343-3.914062-31.335937-10.953125-14.179687-11.027344-41.535156-43.894531 10.46875-110.769531 24.078125-31.316406 54.574219-57.121094 89.445313-75.683594 20.597656-9.542969 36.332031-10.269531 46.761718-2.167969 7.253906 5.636719 14.777344 18.175782 9.417969 45.878907-9.402344 38.359375-26.898437 74.265625-51.316406 105.308593-29.445313 37.867188-54.597657 48.386719-73.441407 48.386719zm97.59375-188.085937c-7.617187.542968-15.046874 2.640625-21.824218 6.15625-32.433594 17.378906-60.785156 41.472656-83.164063 70.679687-30.402343 39.097657-35.183593 69.929688-13.464843 86.820313 21.714843 16.894531 50.429687 4.65625 80.828124-34.433594 22.804688-28.890625 39.175782-62.316406 48.027344-98.039062 2.8125-14.582032 1.640625-25.484376-3.136718-29.195313-2.136719-1.449219-4.691407-2.148437-7.265626-1.988281zm0 0"/><path d="m393.753906 512c-2.289062 0-4.480468-.921875-6.085937-2.554688-1.605469-1.632812-2.484375-3.839843-2.445313-6.128906l.714844-41.199218-9.191406-27.632813c-1.378906-4.4375 1.050781-9.164063 5.457031-10.628906 4.410156-1.464844 9.183594.867187 10.734375 5.246093l9.652344 29.011719c.304687.917969.449218 1.878907.433594 2.84375l-.292969 17.0625 23.566406-30.3125-8.515625-31.164062c-.804688-2.941407.023438-6.089844 2.167969-8.257813 2.144531-2.164062 5.285156-3.023437 8.234375-2.25 2.949218.777344 5.261718 3.066406 6.066406 6.007813l9.640625 35.28125c.707031 2.589843.152344 5.363281-1.5 7.484375l-41.898437 53.894531c-1.617188 2.078125-4.101563 3.296875-6.738282 3.296875zm0 0"/><path d="m272.5 417.710938c-3.257812.003906-6.234375-1.851563-7.667969-4.78125-1.433593-2.925782-1.074219-6.414063.925781-8.988282l41.90625-53.890625c1.609376-2.171875 4.191407-3.40625 6.890626-3.296875l36.570312.65625c3.050781.054688 5.835938 1.730469 7.3125 4.398438 1.476562 2.667968 1.417969 5.921875-.152344 8.53125-1.574218 2.613281-4.417968 4.191406-7.46875 4.136718l-32.296875-.582031-23.574219 30.3125 16.472657-4.496093c.929687-.253907 1.898437-.347657 2.859375-.277344l30.496094 2.203125c3.042968.222656 5.734374 2.046875 7.066406 4.789062 1.328125 2.746094 1.09375 5.992188-.617188 8.515625-1.710937 2.523438-4.640625 3.941406-7.679687 3.722656l-29.042969-2.101562-39.753906 10.851562c-.730469.199219-1.488282.300782-2.246094.296876zm0 0"/><path d="m333.125 464.855469c-2.554688-.003907-4.976562-1.148438-6.59375-3.125-1.621094-1.976563-2.269531-4.574219-1.769531-7.082031l11.222656-56.132813c.546875-3.039063 2.691406-5.546875 5.609375-6.554687 2.917969-1.011719 6.15625-.363282 8.460938 1.6875 2.308593 2.054687 3.324218 5.195312 2.664062 8.210937l-7.882812 39.398437 36.246093-17.335937c4.253907-2.035156 9.351563-.238281 11.382813 4.015625 2.035156 4.253906.238281 9.347656-4.015625 11.382812l-51.636719 24.699219c-1.152344.550781-2.410156.835938-3.6875.835938zm0 0"/><path d="m501.800781 293.554688c-.160156 0-.316406-.003907-.476562-.011719-23.8125-1.824219-44.230469-17.703125-51.867188-40.332031-1.28125-4.089844.667969-8.5 4.558594-10.296876 20.59375-9.527343 36.316406-10.257812 46.734375-2.15625 7.253906 5.636719 14.773438 18.175782 9.417969 45.878907-.773438 4.011719-4.28125 6.910156-8.367188 6.917969zm-32.925781-38.324219c5.683594 9.738281 14.902344 16.902343 25.742188 20 1-10.410157-.511719-18.015625-4.34375-20.992188-3.828126-2.972656-11.441407-2.585937-21.398438.992188zm0 0"/><path d="m411.667969 380.867188c-11.90625-.027344-22.222657-8.257813-24.886719-19.859376-2.667969-11.605468 3.023438-23.511718 13.722656-28.730468 10.699219-5.21875 23.585938-2.367188 31.089844 6.875 7.5 9.246094 7.632812 22.445312.324219 31.839844l-.007813.003906c-4.859375 6.242187-12.332031 9.886718-20.242187 9.871094zm.039062-34.121094c-3.996093-.003906-7.460937 2.761718-8.335937 6.660156s1.070312 7.882812 4.683594 9.589844c3.613281 1.707031 7.925781.675781 10.378906-2.480469 2-2.570313 2.359375-6.054687.929687-8.980469-1.429687-2.925781-4.398437-4.785156-7.65625-4.789062zm0 0"/><path d="m451.664062 314.859375c0 4.710937-3.820312 8.53125-8.535156 8.53125-4.710937 0-8.53125-3.820313-8.53125-8.53125 0-4.714844 3.820313-8.535156 8.53125-8.535156 4.714844 0 8.535156 3.820312 8.535156 8.535156zm0 0"/></svg>