<svg height="512pt" viewBox="0 0 512 512.01266" width="512pt" xmlns="http://www.w3.org/2000/svg"><path d="m247.472656 332.8125h-136.53125c-27.164062-.007812-53.210937 10.777344-72.417968 29.984375-19.207032 19.203125-29.992188 45.253906-29.984376 72.414063v51.203124c.027344 9.414063 7.652344 17.039063 17.066407 17.066407h298.496093l25.769532-66.988281v-1.28125c.007812-27.160157-10.777344-53.210938-29.980469-72.414063-19.207031-19.207031-45.257813-29.992187-72.417969-29.984375zm0 0" fill="#fdd7ad"/><path d="m238.941406 332.8125v34.132812c.007813 6.792969-2.6875 13.308594-7.488281 18.113282-4.804687 4.800781-11.320313 7.496094-18.113281 7.488281h-68.265625c-6.792969.007813-13.308594-2.6875-18.113281-7.488281-4.804688-4.804688-7.496094-11.320313-7.488282-18.113282v-34.132812zm0 0" fill="#ffe0b2"/><path d="m153.605469 287.84375h51.199219v70.570312h-51.199219zm0 0" fill="#ffe0b2"/><path d="m247.472656 332.8125h-8.53125v34.132812c.007813 6.792969-2.6875 13.308594-7.488281 18.113282-4.804687 4.800781-11.320313 7.496094-18.113281 7.488281h-68.265625c-6.792969.007813-13.308594-2.6875-18.113281-7.488281-4.804688-4.804688-7.496094-11.320313-7.488282-18.113282v-34.132812h-8.53125c-27.164062-.007812-53.210937 10.777344-72.417968 29.984375-19.207032 19.203125-29.992188 45.253906-29.984376 72.414063v51.203124c.027344 9.414063 7.652344 17.039063 17.066407 17.066407h298.496093l25.769532-66.988281v-1.28125c.007812-27.160157-10.777344-53.210938-29.980469-72.414063-19.207031-19.207031-45.257813-29.992187-72.417969-29.984375zm0 0" fill="#26b99a"/><path d="m145.074219 392.546875h-76.800781c-9.414063.027344-17.039063 7.652344-17.066407 17.066406v93.867188h-25.601562c-9.414063-.027344-17.039063-7.652344-17.066407-17.066407v-51.203124c-.007812-27.160157 10.777344-53.210938 29.984376-72.414063 19.207031-19.207031 45.253906-29.992187 72.417968-29.984375h8.53125v34.132812c-.007812 6.792969 2.683594 13.308594 7.488282 18.113282 4.804687 4.800781 11.320312 7.496094 18.113281 7.488281zm0 0" fill="#00695c"/><path d="m349.871094 435.210938v1.28125l-25.597656 66.476562-.171876.511719h-272.894531v-93.867188c.027344-9.414062 7.652344-17.039062 17.066407-17.066406h145.066406c6.792968.007813 13.308594-2.6875 18.113281-7.488281 4.800781-4.804688 7.496094-11.320313 7.488281-18.113282v-34.132812h8.53125c27.160156-.007812 53.210938 10.777344 72.417969 29.984375 19.203125 19.203125 29.988281 45.253906 29.980469 72.414063zm0 0" fill="#00695c"/><path d="m326.234375 435.210938v1.28125l-1.960937 66.476562v.511719h-273.066407v-93.867188c.027344-9.414062 7.652344-17.039062 17.066407-17.066406h145.066406c6.792968.007813 13.308594-2.6875 18.113281-7.488281 4.800781-4.804688 7.496094-11.320313 7.488281-18.113282v-33.023437c50.179688 7.460937 87.324219 50.558594 87.292969 101.289063zm0 0" fill="#009688"/><path d="m336.304688 167.179688c-3.160157-3.242188-7.503907-5.058594-12.03125-5.035157h-.085938c.085938-1.449219.085938-11.433593.085938-12.796875-1.199219-78.933594-66.136719-141.957031-145.066407-140.800781-78.933593-1.15625-143.867187 61.867187-145.066406 140.800781 0 1.363282 0 11.347656.085937 12.796875h-.085937c-9.398437.070313-17 7.671875-17.066406 17.066407.027343 9.414062 7.652343 17.039062 17.066406 17.066406h19.539063c.148437.839844.351562 1.664062.597656 2.476562 1.558594 6.449219 3.730468 12.738282 6.484375 18.773438 21.851562 45.316406 68.148437 73.699218 118.445312 72.617187 50.296875 1.082031 96.59375-27.300781 118.441407-72.617187 2.757812-6.035156 4.929687-12.324219 6.484374-18.773438.25-.8125.449219-1.636718.597657-2.476562h19.542969c9.414062-.027344 17.039062-7.652344 17.066406-17.066406.023437-4.527344-1.792969-8.867188-5.035156-12.03125zm0 0" fill="#fdd7ad"/><path d="m307.207031 173.152344c-.011719 4.050781-.242187 8.09375-.683593 12.117187-.425782 3.757813-1.023438 7.339844-1.792969 11.007813-.148438.839844-.347657 1.664062-.597657 2.476562-1.554687 6.449219-3.726562 12.738282-6.484374 18.773438-21.847657 45.316406-68.144532 73.699218-118.441407 72.617187-4.011719 0-7.9375-.167969-11.863281-.511719-45.964844-2.957031-86.734375-30.539062-106.582031-72.105468-2.753907-6.035156-4.925781-12.324219-6.484375-18.773438-.246094-.8125-.449219-1.636718-.597656-2.476562-.765626-3.667969-1.363282-7.25-1.789063-11.007813-.445313-4.023437-.671875-8.066406-.683594-12.117187-.003906-3.246094.167969-6.496094.511719-9.726563-.015625-.429687.015625-.855469.085938-1.28125.253906-3.070312.765624-6.144531 1.277343-9.214843.429688-2.304688 1.027344-4.523438 1.621094-6.742188.34375-1.449219.769531-2.898438 1.195313-4.351562v-.085938c9.132812-20.90625 31.660156-63.058594 67.585937-70.996094 15.027344-2.960937 30.617187-.351562 43.859375 7.339844h.085938c4.070312 2.171875 8.003906 4.597656 11.777343 7.253906 9.5625-7.046875 20.488281-12.019531 32.085938-14.59375 49.832031-10.238281 80.296875 45.824219 91.21875 70.996094v.085938c.429687 1.453124.855469 2.902343 1.195312 4.351562.597657 2.21875 1.195313 4.4375 1.621094 6.742188.511719 3.070312 1.023437 6.144531 1.28125 9.214843.070313.425781.097656.851563.085937 1.28125.34375 3.230469.515626 6.480469.511719 9.726563zm0 0" fill="#dfc49c"/><path d="m283.570312 173.152344c-.011718 4.050781-.242187 8.09375-.683593 12.117187-.425781 3.757813-1.023438 7.339844-1.792969 11.007813-.148438.839844-.347656 1.664062-.597656 2.476562-1.554688 6.449219-3.726563 12.738282-6.484375 18.773438-19.863281 41.585937-60.671875 69.175781-106.667969 72.105468-45.964844-2.957031-86.734375-30.539062-106.582031-72.105468-2.753907-6.035156-4.925781-12.324219-6.484375-18.773438-.246094-.8125-.449219-1.636718-.597656-2.476562-.765626-3.667969-1.363282-7.25-1.789063-11.007813-.445313-4.023437-.671875-8.066406-.683594-12.117187-.003906-3.246094.167969-6.496094.511719-9.726563-.015625-.429687.015625-.855469.085938-1.28125.253906-3.070312.765624-6.144531 1.277343-9.214843.429688-2.304688 1.027344-4.523438 1.621094-6.742188.34375-1.449219.769531-2.898438 1.195313-4.351562v-.085938c9.132812-20.90625 31.660156-63.058594 67.585937-70.996094 11.59375 2.574219 22.523437 7.546875 32.085937 14.59375 3.773438-2.65625 7.703126-5.082031 11.773438-7.253906h.085938c4.070312 2.171875 8.003906 4.597656 11.777343 7.253906 9.5625-7.046875 20.488281-12.019531 32.085938-14.59375 36.007812 7.9375 58.453125 50.089844 67.582031 70.996094v.085938c.425781 1.453124.855469 2.902343 1.195312 4.351562.597657 2.21875 1.195313 4.4375 1.621094 6.742188.511719 3.070312 1.023438 6.144531 1.28125 9.214843.070313.425781.097656.851563.085938 1.28125.34375 3.230469.515625 6.480469.511718 9.726563zm0 0" fill="#ffe0b2"/><path d="m53.679688 196.277344h-19.539063c-9.414063-.027344-17.039063-7.652344-17.066406-17.066406.066406-9.394532 7.667969-16.996094 17.066406-17.066407h17.664063c-.417969 3.65625-.617188 7.332031-.597657 11.007813.011719 4.050781.238281 8.09375.683594 12.117187.425781 3.757813 1.023437 7.339844 1.789063 11.007813zm0 0" fill="#ffe0b2"/><path d="m341.339844 179.210938c-.027344 9.414062-7.652344 17.039062-17.066406 17.066406h-19.542969c.769531-3.667969 1.367187-7.25 1.792969-11.007813.441406-4.023437.671874-8.066406.683593-12.117187.019531-3.675782-.183593-7.351563-.597656-11.007813h17.664063c9.398437.070313 17 7.671875 17.066406 17.066407zm0 0" fill="#dfc49c"/><path d="m324.273438 149.347656c0 1.363282 0 11.347656-.085938 12.796875h-17.578125c-.257813-3.070312-.769531-6.144531-1.28125-9.214843-.765625-3.753907-1.707031-7.421876-2.816406-11.09375v-.085938c-13.140625-30.207031-54.269531-104.703125-123.304688-56.402344-69.035156-48.300781-110.167969 26.195313-123.308593 56.402344v.085938c-1.109376 3.671874-2.046876 7.339843-2.816407 11.09375-.511719 3.070312-1.023437 6.144531-1.277343 9.214843h-17.578126c-.085937-1.449219-.085937-11.433593-.085937-12.796875 1.199219-78.933594 66.132813-141.957031 145.066406-140.800781 78.929688-1.15625 143.867188 61.867187 145.066407 140.800781zm0 0" fill="#91562d"/><path d="m324.273438 149.347656c0 1.363282 0 11.347656-.085938 12.796875h-17.578125c-.257813-3.070312-.769531-6.144531-1.28125-9.214843-.765625-3.753907-1.707031-7.421876-2.816406-11.09375v-.085938c-.765625-1.789062-1.621094-3.667969-2.558594-5.714844-7.570313-68.878906-63.464844-122.402344-132.609375-126.976562 3.925781-.34375 7.851562-.511719 11.863281-.511719 78.929688-1.15625 143.867188 61.867187 145.066407 140.800781zm0 0" fill="#6d4122"/><path d="m438.714844 395.933594-30.21875 30.148437-24.0625-24.0625 36.179687-36.269531 18.109375 18.109375c1.601563 1.601563 2.5 3.773437 2.5 6.039063-.003906 2.265624-.902344 4.4375-2.507812 6.035156zm0 0" fill="#7f8e94"/><g fill="#f5f5f5"><path d="m408.496094 426.082031-72.363282 72.363281c-6.652343 6.617188-17.402343 6.613282-24.050781-.011718-6.648437-6.625-6.691406-17.375-.097656-24.054688l72.449219-72.359375zm0 0"/><path d="m476.167969 366.691406c-6.050781 3.460938-12.355469 6.457032-18.859375 8.957032-6.230469 2.648437-12.546875 5.121093-18.605469 8.195312l-18.089844-18.09375s44.296875-44.292969 63.574219-63.613281c2.011719-2.015625 4.894531-2.894531 7.6875-2.34375s5.125 2.457031 6.222656 5.085937c.8125 1.953125 1.613282 3.894532 2.304688 5.578125 1.023437 2.644531 1.875 4.691407 1.960937 5.117188 5.035157 22.273437-7.339843 40.191406-26.195312 51.117187zm0 0"/><path d="m128.007812 170.679688h102.398438c4.714844 0 8.535156 3.820312 8.535156 8.53125v59.734374c0 4.714844-3.820312 8.535157-8.535156 8.535157h-102.398438c-4.714843 0-8.535156-3.820313-8.535156-8.535157v-59.734374c0-4.710938 3.820313-8.53125 8.535156-8.53125zm0 0"/></g><path d="m476.167969 366.691406c-6.050781 3.460938-12.355469 6.457032-18.859375 8.957032 5.011718-26.640626 20.542968-50.140626 43.09375-65.191407 1.023437 2.644531 1.875 4.691407 1.960937 5.117188 5.035157 22.273437-7.339843 40.191406-26.195312 51.117187zm0 0" fill="#cfd8dc"/><path d="m179.207031 298.679688c-70.175781 0-128.558593-48.355469-135.800781-112.476563-.476562-4.335937-.722656-8.695313-.734375-13.0625.019531-7.28125.695313-14.542969 2.015625-21.703125.878906-4.332031 1.886719-8.375 3.050781-12.179688.828125-2.988281 3.214844-5.296874 6.230469-6.019531 3.015625-.726562 6.191406.242188 8.285156 2.53125 2.097656 2.285157 2.789063 5.53125 1.804688 8.472657-1.027344 3.371093-1.902344 6.894531-2.609375 10.417968-1.832031 9.78125-2.191407 19.78125-1.078125 29.671875 6.261718 55.4375 57.351562 97.28125 118.835937 97.28125s112.574219-41.84375 118.832031-97.324219c.414063-3.703124.625-7.421874.632813-11.148437-.019531-6.253906-.597656-12.492187-1.730469-18.644531-.683594-3.359375-1.558594-6.882813-2.585937-10.253906-.984375-2.941407-.292969-6.1875 1.800781-8.472657 2.097656-2.289062 5.269531-3.257812 8.289062-2.53125 3.015626.722657 5.398438 3.03125 6.226563 6.019531 1.167969 3.804688 2.175781 7.847657 3.027344 12.015626 2.171875 11.5 2.613281 23.257812 1.308593 34.886718-7.242187 64.164063-65.625 112.519532-135.800781 112.519532zm0 0"/><path d="m51.890625 204.8125h-17.75c-14.132813-.015625-25.585937-11.46875-25.601563-25.601562.070313-14.109376 11.492188-25.527344 25.601563-25.597657h17.664063c4.710937 0 8.53125 3.820313 8.53125 8.53125 0 4.714844-3.820313 8.535157-8.53125 8.535157h-17.578126c-2.257812-.039063-4.425781.851562-6.011718 2.457031-1.667969 1.578125-2.613282 3.777343-2.609375 6.074219.003906 4.710937 3.824219 8.53125 8.535156 8.535156h17.75c4.710937 0 8.53125 3.820312 8.53125 8.53125 0 4.714844-3.820313 8.535156-8.53125 8.535156zm0 0"/><path d="m324.273438 204.8125h-17.75c-4.710938 0-8.53125-3.820312-8.53125-8.535156 0-4.710938 3.820312-8.53125 8.53125-8.53125h17.75c4.710937-.003906 8.527343-3.824219 8.53125-8.535156.023437-2.222657-.863282-4.359376-2.449219-5.917969-1.582031-1.671875-3.78125-2.617188-6.082031-2.613281h-17.664063c-4.714844 0-8.535156-3.820313-8.535156-8.535157 0-4.710937 3.820312-8.53125 8.535156-8.53125h17.578125c14.144531.019531 25.621094 11.453125 25.683594 25.597657-.011719 14.132812-11.464844 25.585937-25.597656 25.601562zm0 0"/><path d="m324.199219 170.679688c-.171875 0-.335938 0-.5-.011719-4.699219-.277344-8.289063-4.304688-8.023438-9 .074219-1.605469.0625-11.019531.0625-12.320313-1.277343-74.183594-62.347656-133.34375-136.53125-132.269531-74.1875-1.074219-135.253906 58.085937-136.535156 132.269531 0 1.300782-.007813 10.734375.066406 12.324219.140625 4.621094-3.425781 8.515625-8.042969 8.777344-4.621093.261719-8.605468-3.203125-8.988281-7.8125-.09375-1.507813-.101562-11.871094-.101562-13.289063 1.292969-83.605468 69.992187-150.398437 153.601562-149.3359372 83.605469-1.0624998 152.308594 65.7304692 153.597657 149.3359372 0 1.417969-.007813 11.78125-.097657 13.289063-.257812 4.511719-3.988281 8.039062-8.507812 8.042969zm0 0"/><path d="m55.898438 150.328125c-2.257813.011719-4.425782-.878906-6.027344-2.472656-1.601563-1.59375-2.503906-3.757813-2.503906-6.019531 0-1.199219.238281-2.386719.707031-3.492188 10.242187-23.535156 32.933593-64.574219 69.867187-74.992188 21.148438-5.972656 43.398438-.914062 66.15625 15.003907 3.789063 2.726562 4.679688 7.992187 2.007813 11.816406-2.675781 3.824219-7.929688 4.789063-11.789063 2.164063-18.34375-12.828126-35.730468-17.058594-51.742187-12.5625-31.136719 8.785156-51.371094 48.273437-58.742188 65.128906-1.28125 3.265625-4.425781 5.414062-7.933593 5.425781zm0 0"/><path d="m302.511719 150.328125c-3.667969.015625-6.929688-2.324219-8.097657-5.800781-7.5-17.066406-27.675781-56.03125-58.578124-64.75-15.964844-4.507813-33.398438-.277344-51.738282 12.5625-2.5 1.796875-5.769531 2.113281-8.5625.824218-2.792968-1.289062-4.679687-3.980468-4.929687-7.046874-.253907-3.066407 1.164062-6.03125 3.707031-7.761719 22.757812-15.925781 45.035156-20.972657 66.160156-15.003907 36.933594 10.421876 59.625 51.457032 69.867188 74.996094 1.144531 2.640625.886718 5.683594-.6875 8.097656-1.574219 2.410157-4.257813 3.871094-7.140625 3.882813zm0 0"/><path d="m153.605469 366.945312c-4.710938 0-8.53125-3.820312-8.53125-8.53125v-70.570312c0-4.714844 3.820312-8.535156 8.53125-8.535156 4.714843 0 8.535156 3.820312 8.535156 8.535156v70.570312c0 4.710938-3.820313 8.53125-8.535156 8.53125zm0 0"/><path d="m204.804688 366.945312c-4.710938 0-8.53125-3.820312-8.53125-8.53125v-70.570312c0-4.714844 3.820312-8.535156 8.53125-8.535156 4.714843 0 8.535156 3.820312 8.535156 8.535156v70.570312c0 4.710938-3.820313 8.53125-8.535156 8.53125zm0 0"/><path d="m324.105469 512.011719h-298.5c-14.132813-.015625-25.5820315-11.46875-25.5976565-25.597657v-51.203124c.0664063-61.238282 49.6953125-110.863282 110.9335935-110.933594h42.664063c4.714843 0 8.535156 3.824218 8.535156 8.535156s-3.820313 8.535156-8.535156 8.535156h-42.664063c-51.820312.058594-93.808594 42.046875-93.867187 93.863282v51.203124c.003906 4.710938 3.820312 8.527344 8.53125 8.53125h298.5c4.714843 0 8.535156 3.820313 8.535156 8.535157 0 4.710937-3.820313 8.53125-8.535156 8.53125zm0 0"/><path d="m349.871094 445.027344c-4.710938 0-8.53125-3.820313-8.53125-8.535156v-1.28125c-.058594-51.816407-42.050782-93.804688-93.867188-93.863282h-42.667968c-4.710938 0-8.53125-3.824218-8.53125-8.535156s3.820312-8.535156 8.53125-8.535156h42.667968c61.238282.070312 110.863282 49.695312 110.933594 110.933594v1.28125c0 4.714843-3.820312 8.535156-8.535156 8.535156zm0 0"/><path d="m230.40625 256.011719h-102.398438c-9.421874-.011719-17.058593-7.644531-17.066406-17.066407v-59.734374c.007813-9.417969 7.644532-17.054688 17.066406-17.066407h102.398438c9.421875.011719 17.054688 7.648438 17.066406 17.066407v59.734374c-.011718 9.421876-7.644531 17.054688-17.066406 17.066407zm-102.398438-76.800781v59.734374h102.40625l-.007812-59.734374zm0 0"/><path d="m119.464844 196.277344c-1.320313.003906-2.621094-.304688-3.800782-.898438l-66.644531-33.28125c-2.8125-1.308594-4.6875-4.042968-4.90625-7.140625-.214843-3.09375 1.265625-6.058593 3.867188-7.75 2.605469-1.6875 5.917969-1.832031 8.65625-.375l66.644531 33.28125c3.539062 1.769531 5.398438 5.742188 4.488281 9.59375-.90625 3.851563-4.347656 6.574219-8.304687 6.570313zm0 0"/><path d="m119.472656 238.949219c-1.023437 0-2.039062-.1875-3-.546875l-62.804687-23.550782c-4.414063-1.65625-6.648438-6.578124-4.992188-10.992187s6.578125-6.648437 10.992188-4.992187l62.804687 23.554687c3.871094 1.441406 6.15625 5.453125 5.417969 9.519531s-4.285156 7.019532-8.417969 7.007813zm0 0"/><path d="m238.949219 196.277344c-3.960938.003906-7.398438-2.71875-8.308594-6.570313-.910156-3.851562.949219-7.824219 4.492187-9.59375l66.644532-33.28125c2.738281-1.457031 6.050781-1.3125 8.652344.375 2.601562 1.691407 4.082031 4.65625 3.867187 7.75-.214844 3.097657-2.09375 5.832031-4.902344 7.140625l-66.644531 33.28125c-1.179688.59375-2.480469.902344-3.800781.898438zm0 0"/><path d="m238.941406 238.949219c-4.132812.011719-7.679687-2.941407-8.417968-7.007813-.738282-4.066406 1.542968-8.078125 5.414062-9.519531l62.808594-23.554687c4.414062-1.65625 9.332031.582031 10.992187 4.992187 1.65625 4.414063-.578125 9.335937-4.992187 10.992187l-62.808594 23.554688c-.957031.355469-1.972656.542969-2.996094.542969zm0 0"/><path d="m213.339844 401.078125h-68.265625c-18.84375-.019531-34.113281-15.289063-34.132813-34.132813v-34.132812c0-4.710938 3.820313-8.535156 8.53125-8.535156 4.714844 0 8.535156 3.824218 8.535156 8.535156v34.132812c.007813 9.421876 7.644532 17.054688 17.066407 17.066407h68.265625c9.421875-.011719 17.054687-7.644531 17.066406-17.066407v-34.132812c0-4.710938 3.820312-8.535156 8.535156-8.535156 4.710938 0 8.53125 3.824218 8.53125 8.535156v34.132812c-.019531 18.84375-15.289062 34.113282-34.132812 34.132813zm0 0"/><path d="m51.207031 512.011719c-4.714843 0-8.535156-3.820313-8.535156-8.53125v-93.867188c.015625-14.132812 11.46875-25.585937 25.601563-25.601562h76.800781c4.710937 0 8.53125 3.820312 8.53125 8.535156 0 4.710937-3.820313 8.53125-8.53125 8.53125h-76.800781c-4.710938.003906-8.53125 3.824219-8.535157 8.535156v93.867188c0 4.710937-3.820312 8.53125-8.53125 8.53125zm0 0"/><path d="m93.871094 426.679688c0 4.710937-3.820313 8.53125-8.53125 8.53125-4.714844 0-8.535156-3.820313-8.535156-8.53125 0-4.714844 3.820312-8.535157 8.535156-8.535157 4.710937 0 8.53125 3.820313 8.53125 8.535157zm0 0"/><path d="m93.871094 460.8125c0 4.710938-3.820313 8.535156-8.53125 8.535156-4.714844 0-8.535156-3.824218-8.535156-8.535156s3.820312-8.535156 8.535156-8.535156c4.710937 0 8.53125 3.824218 8.53125 8.535156zm0 0"/><path d="m324.046875 512.011719c-10.355469 0-19.6875-6.238281-23.652344-15.804688-3.960937-9.566406-1.769531-20.578125 5.554688-27.898437l108.617187-108.609375c1.597656-1.601563 3.769532-2.5 6.03125-2.5 2.261719 0 4.433594.898437 6.035156 2.5l24.132813 24.144531c3.332031 3.332031 3.332031 8.734375 0 12.066406l-108.617187 108.601563c-4.789063 4.820312-11.308594 7.519531-18.101563 7.5zm96.550781-134.210938-102.582031 102.578125c-1.601563 1.597656-2.5 3.769532-2.5 6.03125 0 2.261719.898437 4.433594 2.5 6.03125 3.371094 3.226563 8.683594 3.230469 12.058594.007813l102.589843-102.578125zm0 0"/><path d="m438.703125 392.367188c-3.957031.003906-7.402344-2.714844-8.3125-6.570313-.910156-3.851563.945313-7.828125 4.488281-9.597656 5.449219-2.722657 11.042969-5.035157 16.441406-7.269531 7.070313-2.730469 13.945313-5.9375 20.585938-9.59375 10.441406-6.078126 27.191406-19.597657 22.101562-41.859376-.328124-.960937-2-5.066406-3.777343-9.320312-9.082031 9.097656-27.242188 27.246094-63.597657 63.609375l-12.066406-12.066406s71.539063-71.546875 72.375-72.386719c2.210938-2.210938 5.449219-3.046875 8.457032-2.179688 7.765624 2.261719 15.183593 28.28125 15.242187 28.539063 5.425781 23.679687-5.851563 46.265625-30.152344 60.414063-7.296875 4.046874-14.863281 7.589843-22.640625 10.613281-5.359375 2.21875-10.425781 4.3125-15.332031 6.765625-1.183594.59375-2.488281.902344-3.8125.902344zm0 0"/><path d="m408.523438 434.605469c-2.265626 0-4.4375-.898438-6.035157-2.5l-24.132812-24.132813c-2.210938-2.144531-3.09375-5.316406-2.3125-8.292968.785156-2.980469 3.109375-5.304688 6.089843-6.085938 2.976563-.785156 6.144532.101562 8.289063 2.3125l24.132813 24.132812c2.441406 2.4375 3.171874 6.109376 1.851562 9.296876-1.324219 3.1875-4.433594 5.269531-7.882812 5.269531zm0 0"/></svg>