<svg height="512pt" viewBox="0 0 512 512.01266" width="512pt" xmlns="http://www.w3.org/2000/svg"><path d="m324.285156 196.277344h-.011718c9.414062-.027344 17.039062-7.652344 17.066406-17.066406-.066406-9.394532-7.667969-16.996094-17.066406-17.066407h-.085938c.085938-1.449219.085938-11.433593.085938-12.796875-1.199219-78.933594-66.136719-141.957031-145.066407-140.800781-78.933593-1.15625-143.867187 61.867187-145.066406 140.800781 0 1.363282 0 11.347656.085937 12.796875h-.085937c-9.398437.070313-17 7.671875-17.066406 17.066407.027343 9.414062 7.652343 17.039062 17.066406 17.066406h.011719s8.535156 42.667968-8.535156 76.800781c-15.1875 30.378906-10.066407 67.585937 15.363281 87.382813h276.480469c25.425781-19.796876 30.546874-57.003907 15.359374-87.382813-17.066406-34.132813-8.535156-76.800781-8.535156-76.800781zm-117.546875-92.703125c-19.09375-5.902344-36.480469-16.324219-50.6875-30.378907l.117188.035157c14.167969 14.035156 31.519531 24.445312 50.570312 30.34375zm17.832031 4.65625c-.90625-.179688-1.734374-.410157-2.621093-.601563.886719.191406 1.714843.417969 2.621093.601563zm-9.25-2.132813c-2.09375-.550781-4.066406-1.167968-6.050781-1.773437 1.984375.605469 3.960938 1.222656 6.050781 1.769531zm-145.683593 9.457032c-.304688.453124-.585938.925781-.832031 1.417968l-.105469.03125c.28125-.5.597656-.988281.9375-1.449218zm-16.304688 78.589843c.117188.566407.234375 1.132813.347657 1.707031l.101562.425782h-.101562c-.148438-.710938-.210938-1.425782-.347657-2.132813zm251.375 2.132813.023438-.082032c.769531-3.585937 1.367187-7.253906 1.792969-10.925781-.425782 3.757813-1.023438 7.339844-1.792969 11.007813zm0 0" fill="#af8066"/><path d="m317.445312 360.460938h-276.480468c-25.429688-19.796876-30.546875-57.003907-15.359375-87.382813 17.066406-34.132813 8.535156-76.800781 8.535156-76.800781h290.132813s-8.535157 42.667968 8.53125 76.800781c15.191406 30.378906 10.070312 67.585937-15.359376 87.382813zm0 0" fill="#783e22"/><path d="m293.808594 360.460938h-252.84375c-25.429688-19.796876-30.546875-57.003907-15.359375-87.382813 17.066406-34.132813 8.535156-76.800781 8.535156-76.800781h266.496094s-8.535157 42.667968 8.53125 76.800781c15.191406 30.378906 10.070312 67.585937-15.359375 87.382813zm0 0" fill="#a0522d"/><path d="m153.605469 287.84375h51.199219v70.570312h-51.199219zm0 0" fill="#fdd7ad"/><path d="m247.472656 332.8125h-136.53125c-27.164062-.007812-53.210937 10.777344-72.417968 29.984375-19.207032 19.203125-29.992188 45.253906-29.984376 72.414063v51.203124c.027344 9.414063 7.652344 17.039063 17.066407 17.066407h298.496093l25.769532-66.988281v-1.28125c.007812-27.160157-10.777344-53.210938-29.980469-72.414063-19.207031-19.207031-45.257813-29.992187-72.417969-29.984375zm0 0" fill="#fdd7ad"/><path d="m238.941406 332.8125v34.132812c.007813 6.792969-2.6875 13.308594-7.488281 18.113282-4.804687 4.800781-11.320313 7.496094-18.113281 7.488281h-68.265625c-6.792969.007813-13.308594-2.6875-18.113281-7.488281-4.804688-4.804688-7.496094-11.320313-7.488282-18.113282v-34.132812zm0 0" fill="#ffe0b2"/><path d="m69.636719 115.554688c-.3125.464843-.597657.949218-.851563 1.449218h-.085937c.28125-.5.597656-.988281.9375-1.449218zm0 0" fill="#af8066"/><path d="m324.273438 149.347656c0 1.363282 0 11.347656-.085938 12.796875h-17.578125c-.257813-3.070312-.769531-6.144531-1.28125-9.214843-.492187-2.5625-1.121094-5.097657-1.875-7.59375-5.625-12.4375-12.980469-24.015626-21.847656-34.390626-70.398438 5.886719-108.628907-20.566406-125.4375-37.714843-5.148438-1.851563-10.511719-3.027344-15.957031-3.5-7.851563 12.628906-27.222657 34.390625-71.425782 47.273437.253906-.5.539063-.984375.851563-1.449218-.339844.460937-.65625.949218-.9375 1.449218-4.820313 7.949219-9.097657 16.21875-12.800781 24.746094v.085938c-1.109376 3.671874-2.046876 7.339843-2.816407 11.09375-.511719 3.070312-1.023437 6.144531-1.277343 9.214843h-17.578126c-.085937-1.449219-.085937-11.433593-.085937-12.796875 1.199219-78.933594 66.132813-141.957031 145.066406-140.800781 78.929688-1.15625 143.867188 61.867187 145.066407 140.800781zm0 0" fill="#91562d"/><path d="m324.273438 149.347656c0 1.363282 0 11.347656-.085938 12.796875h-17.578125c-.257813-3.070312-.769531-6.144531-1.28125-9.214843-.492187-2.5625-1.121094-5.097657-1.875-7.59375-.917969-2.695313-2.03125-5.320313-3.328125-7.851563-6.949219-69.496094-63.09375-123.796875-132.78125-128.425781 3.925781-.34375 7.851562-.511719 11.863281-.511719 78.929688-1.15625 143.867188 61.867187 145.066407 140.800781zm0 0" fill="#6d4122"/><path d="m69.636719 115.554688c-.3125.464843-.597657.949218-.851563 1.449218h-.085937c.28125-.5.597656-.988281.9375-1.449218zm0 0" fill="#af8066"/><path d="m307.207031 173.152344c-.011719 4.050781-.242187 8.09375-.683593 12.117187-.425782 3.671875-1.023438 7.339844-1.792969 10.925781-1.671875 7.609376-4.164063 15.019532-7.421875 22.101563-1.023438 2.21875-2.132813 4.351563-3.242188 6.484375-.0625.222656-.179687.429688-.34375.597656-1.195312 2.253906-2.503906 4.449219-3.925781 6.570313-.347656.65625-.746094 1.285156-1.191406 1.875-.941407 1.453125-1.878907 2.816406-2.902344 4.183593-.941406 1.28125-1.792969 2.472657-2.730469 3.667969-.855468 1.109375-1.792968 2.132813-2.730468 3.15625-.351563.523438-.753907 1.007813-1.195313 1.453125-.613281.800782-1.300781 1.542969-2.046875 2.21875-2.703125 3.011719-5.582031 5.863282-8.621094 8.53125-1.277344 1.195313-2.644531 2.304688-4.011718 3.414063-1.023438.855469-2.046876 1.707031-3.15625 2.476562-1.464844 1.203125-3.003907 2.316407-4.605469 3.328125-.730469.570313-1.5 1.082032-2.304688 1.535156-1.511719 1.101563-3.078125 2.128907-4.695312 3.070313-.683594.429687-1.449219.855469-2.21875 1.28125-2.304688 1.367187-4.777344 2.644531-7.167969 3.839844-1.707031.851562-3.414062 1.707031-5.117188 2.390625-1.367187.679687-2.816406 1.277344-4.269531 1.875-2.558593 1.023437-5.117187 1.964844-7.765625 2.816406-10.070312 3.445312-20.535156 5.625-31.144531 6.484375-2.050781.257813-4.097656.34375-6.144531.429687-2.21875.085938-4.351563.167969-6.570313.167969s-4.351562-.082031-6.570312-.167969c-1.707031-.085937-3.5-.171874-5.207031-.34375-.339844 0-.597657-.085937-.9375-.085937-4.320313-.347656-8.621094-.914063-12.886719-1.703125-6.421875-1.199219-12.753907-2.851562-18.941407-4.953125-2.390624-.851563-4.78125-1.703125-7.085937-2.644531-6.351563-2.542969-12.484375-5.59375-18.34375-9.128906-1.644531-.945313-3.238281-1.96875-4.78125-3.074219-1.101563-.628907-2.15625-1.34375-3.15625-2.132813-1.496094-.945312-2.921875-2.003906-4.265625-3.15625-1.050781-.691406-2.050781-1.464844-2.988281-2.304687-1.160157-.8125-2.242188-1.726563-3.242188-2.730469-1.621093-1.363281-3.242187-2.816406-4.863281-4.4375-2.046875-1.960938-4.097656-4.09375-5.972656-6.230469-.257813-.253906-.511719-.59375-.769532-.851562-1.707031-1.878907-3.242187-3.839844-4.777343-5.800781l-.769531-1.027344c-1.535157-2.046875-2.984376-4.179688-4.351563-6.3125-.246094-.296875-.476563-.613282-.683594-.9375-1.363281-2.21875-2.730469-4.4375-3.925781-6.742188-.171875-.238281-.316406-.496094-.425781-.769531-1.195313-2.21875-2.304688-4.523437-3.414063-6.824219-.679687-1.707031-1.449218-3.328125-2.132812-5.121094-.683594-1.644531-1.285156-3.328124-1.792969-5.035156-.851563-2.390625-1.535156-4.949218-2.21875-7.425781l-1.023437-4.351563c-.339844-1.707031-.679688-3.328124-1.023438-5.035156-.253906-1.789062-.511719-3.667968-.765625-5.546875-.445313-4.023437-.671875-8.066406-.683594-12.117187-.019531-3.675782.179688-7.351563.597657-11.007813.253906-3.070312.765624-6.144531 1.277343-9.214843.597657-2.988282 1.367188-5.886719 2.136719-8.789063v-.085937l4.519531-24.574219c3.074219-.769531 6.058594-1.539063 8.960938-2.476563 37.292969-10.835937 56.917969-27.988281 66.902343-40.703125 1.664063-2.097656 3.203126-4.292969 4.609376-6.570312 2.050781-3.101563 3.6875-6.457031 4.863281-9.984375 3.082031 4.894531 6.75 9.394531 10.921875 13.398437 14.078125 14.335938 43.347656 35.496094 94.378906 38.3125 2.644531.171875 5.375.257813 8.191406.257813 7.6875.15625 15.378906-.101563 23.039063-.769532 8.867187 10.375 16.222656 21.953126 21.847656 34.390626.082031.085937.082031.085937.082031.171874.085938.253907.085938.425782.171875.679688.597657 2.21875 1.195313 4.523438 1.621094 6.742188.511719 3.070312 1.023437 6.144531 1.28125 9.214843.414063 3.65625.617187 7.332031.597656 11.007813zm0 0" fill="#dfc49c"/><path d="m283.570312 173.152344c-.011718 4.050781-.242187 8.09375-.683593 12.117187-.425781 3.671875-1.023438 7.339844-1.792969 10.925781-1.671875 7.609376-4.164062 15.019532-7.421875 22.101563-1.027344 2.21875-2.136719 4.351563-3.246094 6.484375-.058593.222656-.175781.429688-.339843.597656-1.195313 2.253906-2.503907 4.449219-3.925782 6.570313-.347656.65625-.746094 1.285156-1.195312 1.875-.9375 1.453125-1.875 2.816406-2.898438 4.183593-.941406 1.28125-1.792968 2.472657-2.730468 3.667969-.855469 1.109375-1.792969 2.132813-2.730469 3.15625-.351563.523438-.753907 1.007813-1.195313 1.453125-.613281.800782-1.300781 1.542969-2.050781 2.21875-2.699219 3.011719-5.578125 5.863282-8.617187 8.53125-1.28125 1.195313-2.644532 2.304688-4.011719 3.414063-1.023438.855469-2.046875 1.707031-3.15625 2.476562-1.464844 1.203125-3.003907 2.316407-4.609375 3.328125-.726563.570313-1.496094 1.082032-2.300782 1.535156-1.511718 1.101563-3.078124 2.128907-4.695312 3.070313-.683594.429687-1.449219.855469-2.21875 1.28125-2.304688 1.367187-4.777344 2.644531-7.167969 3.839844-1.707031.851562-3.414062 1.707031-5.121093 2.390625-1.363282.679687-2.816407 1.277344-4.265626 1.875-2.558593 1.023437-5.121093 1.964844-7.765624 2.816406-10.074219 3.445312-20.535157 5.625-31.144532 6.484375-.257812 0-.597656.085937-.855468.085937-.339844 0-.597657-.085937-.9375-.085937-4.320313-.347656-8.621094-.914063-12.886719-1.703125-6.421875-1.199219-12.753907-2.851562-18.941407-4.953125-2.390624-.851563-4.78125-1.703125-7.085937-2.644531-6.351563-2.542969-12.484375-5.59375-18.34375-9.128906-1.644531-.945313-3.238281-1.96875-4.78125-3.074219-1.101563-.628907-2.15625-1.34375-3.15625-2.132813-1.496094-.945312-2.921875-2.003906-4.265625-3.15625-1.050781-.691406-2.050781-1.464844-2.988281-2.304687-1.160157-.8125-2.242188-1.726563-3.242188-2.730469-1.621093-1.363281-3.242187-2.816406-4.863281-4.4375-2.046875-1.960938-4.097656-4.09375-5.972656-6.230469-.257813-.253906-.511719-.59375-.769532-.851562-1.707031-1.878907-3.242187-3.839844-4.777343-5.800781l-.769531-1.027344c-1.535157-2.046875-2.984376-4.179688-4.351563-6.3125-.246094-.296875-.476563-.613282-.683594-.9375-1.363281-2.21875-2.730469-4.4375-3.925781-6.742188-.171875-.238281-.316406-.496094-.425781-.769531-1.195313-2.21875-2.304688-4.523437-3.414063-6.824219-.679687-1.707031-1.449218-3.328125-2.132812-5.121094-.683594-1.644531-1.285156-3.328124-1.792969-5.035156-.851563-2.390625-1.535156-4.949218-2.21875-7.425781l-1.023437-4.351563c-.339844-1.707031-.679688-3.328124-1.023438-5.035156-.253906-1.789062-.511719-3.667968-.765625-5.546875-.445313-4.023437-.671875-8.066406-.683594-12.117187-.019531-3.675782.179688-7.351563.597657-11.007813.253906-3.070312.765624-6.144531 1.277343-9.214843.597657-2.988282 1.367188-5.886719 2.136719-8.789063v-.085937l4.519531-24.574219c3.074219-.769531 6.058594-1.539063 8.960938-2.476563 37.292969-10.835937 56.917969-27.988281 66.902343-40.703125 17.40625 16.296875 52.992188 38.398438 114.773438 35.15625 2.472656-.085937 5.035156-.253906 7.59375-.511719.222656.238282.421875.496094.597656.769532 8.691406 10.105468 15.851563 21.433594 21.246094 33.621094.085938.085937.085938.085937.085938.171874.085937.253907.085937.425782.171874.679688.597657 2.21875 1.195313 4.523438 1.621094 6.742188.511719 3.070312 1.023438 6.144531 1.28125 9.214843.414063 3.65625.613282 7.332031.597656 11.007813zm0 0" fill="#ffe0b2"/><path d="m247.472656 332.8125h-8.53125v34.132812c.007813 6.792969-2.6875 13.308594-7.488281 18.113282-4.804687 4.800781-11.320313 7.496094-18.113281 7.488281h-68.265625c-6.792969.007813-13.308594-2.6875-18.113281-7.488281-4.804688-4.804688-7.496094-11.320313-7.488282-18.113282v-34.132812h-8.53125c-27.164062-.007812-53.210937 10.777344-72.417968 29.984375-19.207032 19.203125-29.992188 45.253906-29.984376 72.414063v51.203124c.027344 9.414063 7.652344 17.039063 17.066407 17.066407h298.496093l25.769532-66.988281v-1.28125c.007812-27.160157-10.777344-53.210938-29.980469-72.414063-19.207031-19.207031-45.257813-29.992187-72.417969-29.984375zm0 0" fill="#26b99a"/><path d="m145.074219 392.546875h-76.800781c-9.414063.027344-17.039063 7.652344-17.066407 17.066406v93.867188h-25.601562c-9.414063-.027344-17.039063-7.652344-17.066407-17.066407v-51.203124c-.007812-27.160157 10.777344-53.210938 29.984376-72.414063 19.207031-19.207031 45.253906-29.992187 72.417968-29.984375h8.53125v34.132812c-.007812 6.792969 2.683594 13.308594 7.488282 18.113282 4.804687 4.800781 11.320312 7.496094 18.113281 7.488281zm0 0" fill="#00695c"/><path d="m349.871094 435.210938v1.28125l-25.597656 66.476562-.171876.511719h-272.894531v-93.867188c.027344-9.414062 7.652344-17.039062 17.066407-17.066406h145.066406c6.792968.007813 13.308594-2.6875 18.113281-7.488281 4.800781-4.804688 7.496094-11.320313 7.488281-18.113282v-34.132812h8.53125c27.160156-.007812 53.210938 10.777344 72.417969 29.984375 19.203125 19.203125 29.988281 45.253906 29.980469 72.414063zm0 0" fill="#00695c"/><path d="m326.234375 435.210938v1.28125l-1.960937 66.476562v.511719h-273.066407v-93.867188c.027344-9.414062 7.652344-17.039062 17.066407-17.066406h145.066406c6.792968.007813 13.308594-2.6875 18.113281-7.488281 4.800781-4.804688 7.496094-11.320313 7.488281-18.113282v-33.023437c50.179688 7.460937 87.324219 50.558594 87.292969 101.289063zm0 0" fill="#009688"/><path d="m53.679688 195.851562 1.023437 4.351563c-.179687-.46875-.320313-.953125-.425781-1.449219-.246094-.8125-.449219-1.636718-.597656-2.476562-.425782-1.875-.765626-3.667969-1.023438-5.460938.34375 1.707032.683594 3.328125 1.023438 5.035156zm0 0" fill="#fdd7ad"/><path d="m53.679688 196.277344h-19.539063c-9.414063-.027344-17.039063-7.652344-17.066406-17.066406.066406-9.394532 7.667969-16.996094 17.066406-17.066407h17.664063c-.417969 3.65625-.617188 7.332031-.597657 11.007813.011719 4.050781.238281 8.09375.683594 12.117187.425781 3.757813 1.023437 7.339844 1.789063 11.007813zm0 0" fill="#ffe0b2"/><path d="m341.339844 179.210938c-.027344 9.414062-7.652344 17.039062-17.066406 17.066406h-19.542969c.769531-3.667969 1.367187-7.25 1.792969-11.007813.441406-4.023437.671874-8.066406.683593-12.117187.019531-3.675782-.183593-7.351563-.597656-11.007813h17.664063c9.398437.070313 17 7.671875 17.066406 17.066407zm0 0" fill="#dfc49c"/><path d="m438.714844 395.933594-30.21875 30.148437-24.0625-24.0625 36.179687-36.269531 18.109375 18.109375c1.601563 1.601563 2.5 3.773437 2.5 6.039063-.003906 2.265624-.902344 4.4375-2.507812 6.035156zm0 0" fill="#7f8e94"/><path d="m408.496094 426.082031-72.363282 72.363281c-6.652343 6.617188-17.402343 6.613282-24.050781-.011718-6.648437-6.625-6.691406-17.375-.097656-24.054688l72.449219-72.359375zm0 0" fill="#9e9e9e"/><path d="m476.167969 366.691406c-6.050781 3.460938-12.355469 6.457032-18.859375 8.957032-6.230469 2.648437-12.546875 5.121093-18.605469 8.195312l-18.089844-18.09375s44.296875-44.292969 63.574219-63.613281c2.011719-2.015625 4.894531-2.894531 7.6875-2.34375s5.125 2.457031 6.222656 5.085937c.8125 1.953125 1.613282 3.894532 2.304688 5.578125 1.023437 2.644531 1.875 4.691407 1.960937 5.117188 5.035157 22.273437-7.339843 40.191406-26.195312 51.117187zm0 0" fill="#f5f5f5"/><path d="m128.007812 170.679688h102.398438c4.714844 0 8.535156 3.820312 8.535156 8.53125v59.734374c0 4.714844-3.820312 8.535157-8.535156 8.535157h-102.398438c-4.714843 0-8.535156-3.820313-8.535156-8.535157v-59.734374c0-4.710938 3.820313-8.53125 8.535156-8.53125zm0 0" fill="#f5f5f5"/><path d="m476.167969 366.691406c-6.050781 3.460938-12.355469 6.457032-18.859375 8.957032 5.011718-26.640626 20.542968-50.140626 43.09375-65.191407 1.023437 2.644531 1.875 4.691407 1.960937 5.117188 5.035157 22.273437-7.339843 40.191406-26.195312 51.117187zm0 0" fill="#cfd8dc"/><path d="m97.03125 262.753906c-1.058594-.6875-2.054688-1.457031-2.988281-2.304687" fill="#fdd7ad"/><path d="m51.890625 204.8125h-17.75c-14.132813-.015625-25.585937-11.46875-25.601563-25.601562.070313-14.109376 11.492188-25.527344 25.601563-25.597657h17.664063c4.710937 0 8.53125 3.820313 8.53125 8.53125 0 4.714844-3.820313 8.535157-8.53125 8.535157h-17.578126c-2.257812-.039063-4.425781.851562-6.011718 2.457031-1.667969 1.578125-2.613282 3.777343-2.609375 6.074219.003906 4.710937 3.824219 8.53125 8.535156 8.535156h17.75c4.710937 0 8.53125 3.820312 8.53125 8.53125 0 4.714844-3.820313 8.535156-8.53125 8.535156zm0 0"/><path d="m324.273438 204.8125h-17.75c-4.710938 0-8.53125-3.820312-8.53125-8.535156 0-4.710938 3.820312-8.53125 8.53125-8.53125h17.75c4.710937-.003906 8.527343-3.824219 8.53125-8.535156.023437-2.222657-.863282-4.359376-2.449219-5.917969-1.582031-1.671875-3.78125-2.617188-6.082031-2.613281h-17.664063c-4.714844 0-8.535156-3.820313-8.535156-8.535157 0-4.710937 3.820312-8.53125 8.535156-8.53125h17.578125c14.144531.019531 25.621094 11.453125 25.683594 25.597657-.011719 14.132812-11.464844 25.585937-25.597656 25.601562zm0 0"/><path d="m324.199219 170.679688c-.171875 0-.335938 0-.5-.011719-4.699219-.277344-8.289063-4.304688-8.023438-9 .074219-1.605469.0625-11.019531.0625-12.320313-1.277343-74.183594-62.347656-133.34375-136.53125-132.269531-74.1875-1.074219-135.253906 58.085937-136.535156 132.269531 0 1.300782-.007813 10.734375.066406 12.324219.140625 4.621094-3.425781 8.515625-8.042969 8.777344-4.621093.261719-8.605468-3.203125-8.988281-7.8125-.09375-1.507813-.101562-11.871094-.101562-13.289063 1.292969-83.605468 69.992187-150.398437 153.601562-149.3359372 83.605469-1.0624998 152.308594 65.7304692 153.597657 149.3359372 0 1.417969-.007813 11.78125-.097657 13.289063-.257812 4.511719-3.988281 8.039062-8.507812 8.042969zm0 0"/><path d="m153.605469 366.945312c-4.710938 0-8.53125-3.820312-8.53125-8.53125v-70.570312c0-4.714844 3.820312-8.535156 8.53125-8.535156 4.714843 0 8.535156 3.820312 8.535156 8.535156v70.570312c0 4.710938-3.820313 8.53125-8.535156 8.53125zm0 0"/><path d="m204.804688 366.945312c-4.710938 0-8.53125-3.820312-8.53125-8.53125v-70.570312c0-4.714844 3.820312-8.535156 8.53125-8.535156 4.714843 0 8.535156 3.820312 8.535156 8.535156v70.570312c0 4.710938-3.820313 8.53125-8.535156 8.53125zm0 0"/><path d="m324.105469 512.011719h-298.5c-14.132813-.015625-25.5820315-11.46875-25.5976565-25.597657v-51.203124c.0664063-61.238282 49.6953125-110.863282 110.9335935-110.933594h42.664063c4.714843 0 8.535156 3.824218 8.535156 8.535156s-3.820313 8.535156-8.535156 8.535156h-42.664063c-51.820312.058594-93.808594 42.046875-93.867187 93.863282v51.203124c.003906 4.710938 3.820312 8.527344 8.53125 8.53125h298.5c4.714843 0 8.535156 3.820313 8.535156 8.535157 0 4.710937-3.820313 8.53125-8.535156 8.53125zm0 0"/><path d="m349.871094 445.027344c-4.710938 0-8.53125-3.820313-8.53125-8.535156v-1.28125c-.058594-51.816407-42.050782-93.804688-93.867188-93.863282h-42.667968c-4.710938 0-8.53125-3.824218-8.53125-8.535156s3.820312-8.535156 8.53125-8.535156h42.667968c61.238282.070312 110.863282 49.695312 110.933594 110.933594v1.28125c0 4.714843-3.820312 8.535156-8.535156 8.535156zm0 0"/><path d="m230.40625 256.011719h-102.398438c-9.421874-.011719-17.058593-7.644531-17.066406-17.066407v-59.734374c.007813-9.417969 7.644532-17.054688 17.066406-17.066407h102.398438c9.421875.011719 17.054688 7.648438 17.066406 17.066407v59.734374c-.011718 9.421876-7.644531 17.054688-17.066406 17.066407zm-102.398438-76.800781v59.734374h102.40625l-.007812-59.734374zm0 0"/><path d="m119.464844 196.277344c-1.320313.003906-2.621094-.304688-3.800782-.898438l-66.644531-33.28125c-2.8125-1.308594-4.6875-4.042968-4.90625-7.140625-.214843-3.09375 1.265625-6.058593 3.867188-7.75 2.605469-1.6875 5.917969-1.832031 8.65625-.375l66.644531 33.28125c3.539062 1.769531 5.398438 5.742188 4.488281 9.59375-.90625 3.851563-4.347656 6.574219-8.304687 6.570313zm0 0"/><path d="m119.472656 238.949219c-1.023437 0-2.039062-.1875-3-.546875l-62.804687-23.550782c-4.414063-1.65625-6.648438-6.578124-4.992188-10.992187s6.578125-6.648437 10.992188-4.992187l62.804687 23.554687c3.871094 1.441406 6.15625 5.453125 5.417969 9.519531s-4.285156 7.019532-8.417969 7.007813zm0 0"/><path d="m238.949219 196.277344c-3.960938.003906-7.398438-2.71875-8.308594-6.570313-.910156-3.851562.949219-7.824219 4.492187-9.59375l66.644532-33.28125c2.738281-1.457031 6.050781-1.3125 8.652344.375 2.601562 1.691407 4.082031 4.65625 3.867187 7.75-.214844 3.097657-2.09375 5.832031-4.902344 7.140625l-66.644531 33.28125c-1.179688.59375-2.480469.902344-3.800781.898438zm0 0"/><path d="m238.941406 238.949219c-4.132812.011719-7.679687-2.941407-8.417968-7.007813-.738282-4.066406 1.542968-8.078125 5.414062-9.519531l62.808594-23.554687c4.414062-1.65625 9.332031.582031 10.992187 4.992187 1.65625 4.414063-.578125 9.335937-4.992187 10.992187l-62.808594 23.554688c-.957031.355469-1.972656.542969-2.996094.542969zm0 0"/><path d="m213.339844 401.078125h-68.265625c-18.84375-.019531-34.113281-15.289063-34.132813-34.132813v-34.132812c0-4.710938 3.820313-8.535156 8.53125-8.535156 4.714844 0 8.535156 3.824218 8.535156 8.535156v34.132812c.007813 9.421876 7.644532 17.054688 17.066407 17.066407h68.265625c9.421875-.011719 17.054687-7.644531 17.066406-17.066407v-34.132812c0-4.710938 3.820312-8.535156 8.535156-8.535156 4.710938 0 8.53125 3.824218 8.53125 8.535156v34.132812c-.019531 18.84375-15.289062 34.113282-34.132812 34.132813zm0 0"/><path d="m51.207031 512.011719c-4.714843 0-8.535156-3.820313-8.535156-8.53125v-93.867188c.015625-14.132812 11.46875-25.585937 25.601563-25.601562h76.800781c4.710937 0 8.53125 3.820312 8.53125 8.535156 0 4.710937-3.820313 8.53125-8.53125 8.53125h-76.800781c-4.710938.003906-8.53125 3.824219-8.535157 8.535156v93.867188c0 4.710937-3.820312 8.53125-8.53125 8.53125zm0 0"/><path d="m93.871094 426.679688c0 4.710937-3.820313 8.53125-8.53125 8.53125-4.714844 0-8.535156-3.820313-8.535156-8.53125 0-4.714844 3.820312-8.535157 8.535156-8.535157 4.710937 0 8.53125 3.820313 8.53125 8.535157zm0 0"/><path d="m93.871094 460.8125c0 4.710938-3.820313 8.535156-8.53125 8.535156-4.714844 0-8.535156-3.824218-8.535156-8.535156s3.820312-8.535156 8.535156-8.535156c4.710937 0 8.53125 3.824218 8.53125 8.535156zm0 0"/><path d="m324.046875 512.011719c-10.355469 0-19.6875-6.238281-23.652344-15.804688-3.960937-9.566406-1.769531-20.578125 5.554688-27.898437l108.617187-108.609375c1.597656-1.601563 3.769532-2.5 6.03125-2.5 2.261719 0 4.433594.898437 6.035156 2.5l24.132813 24.144531c3.332031 3.332031 3.332031 8.734375 0 12.066406l-108.617187 108.601563c-4.789063 4.820312-11.308594 7.519531-18.101563 7.5zm96.550781-134.210938-102.582031 102.578125c-1.601563 1.597656-2.5 3.769532-2.5 6.03125 0 2.261719.898437 4.433594 2.5 6.03125 3.371094 3.226563 8.683594 3.230469 12.058594.007813l102.589843-102.578125zm0 0"/><path d="m438.703125 392.367188c-3.957031.003906-7.402344-2.714844-8.3125-6.570313-.910156-3.851563.945313-7.828125 4.488281-9.597656 5.449219-2.722657 11.042969-5.035157 16.441406-7.269531 7.070313-2.730469 13.945313-5.9375 20.585938-9.59375 10.441406-6.078126 27.191406-19.597657 22.101562-41.859376-.328124-.960937-2-5.066406-3.777343-9.320312-9.082031 9.097656-27.242188 27.246094-63.597657 63.609375l-12.066406-12.066406s71.539063-71.546875 72.375-72.386719c2.210938-2.210938 5.449219-3.046875 8.457032-2.179688 7.765624 2.261719 15.183593 28.28125 15.242187 28.539063 5.425781 23.679687-5.851563 46.265625-30.152344 60.414063-7.296875 4.046874-14.863281 7.589843-22.640625 10.613281-5.359375 2.21875-10.425781 4.3125-15.332031 6.765625-1.183594.59375-2.488281.902344-3.8125.902344zm0 0"/><path d="m408.523438 434.605469c-2.265626 0-4.4375-.898438-6.035157-2.5l-24.132812-24.132813c-2.210938-2.144531-3.09375-5.316406-2.3125-8.292968.785156-2.980469 3.109375-5.304688 6.089843-6.085938 2.976563-.785156 6.144532.101562 8.289063 2.3125l24.132813 24.132812c2.441406 2.4375 3.171874 6.109376 1.851562 9.296876-1.324219 3.1875-4.433594 5.269531-7.882812 5.269531zm0 0"/><path d="m40.972656 368.992188c-1.894531.003906-3.738281-.628907-5.234375-1.796876-27.824219-21.664062-35.289062-62.847656-17.75-97.933593 15.507813-31.011719 7.875-70.921875 7.800781-71.320313-.808593-4.570312 2.183594-8.945312 6.734376-9.855468 4.550781-.90625 8.992187 1.988281 10 6.519531.375 1.863281 8.898437 45.957031-9.265626 82.289062-13.917968 27.835938-8.46875 60.148438 12.96875 76.835938 2.878907 2.238281 4.011719 6.058593 2.828126 9.507812-1.1875 3.445313-4.429688 5.761719-8.078126 5.757813zm0 0"/><path d="m317.464844 368.992188c-3.644532.003906-6.890625-2.308594-8.078125-5.757813-1.183594-3.445313-.046875-7.265625 2.828125-9.507813 21.433594-16.683593 26.890625-49 12.96875-76.832031-18.164063-36.332031-9.640625-80.429687-9.265625-82.292969 1.007812-4.527343 5.449219-7.421874 10-6.515624s7.542969 5.285156 6.734375 9.855468c-.074219.398438-7.707032 40.308594 7.800781 71.320313 17.53125 35.085937 10.070313 76.269531-17.757813 97.933593-1.496093 1.164063-3.335937 1.800782-5.230468 1.796876zm0 0"/><path d="m55.238281 152.675781c-2.53125 0-4.933593-1.125-6.554687-3.070312-1.621094-1.945313-2.296875-4.507813-1.84375-7l4.523437-24.664063c.917969-4.566406 5.328125-7.550781 9.90625-6.710937 4.582031.84375 7.640625 5.203125 6.875 9.796875l-4.519531 24.660156c-.746094 4.046875-4.273438 6.980469-8.386719 6.988281zm0 0"/><path d="m179.222656 298.679688c-9.109375.015624-18.199218-.804688-27.160156-2.445313-52.230469-8.265625-94.34375-47.179687-106.707031-98.597656-.832031-3.75-1.476563-7.542969-1.925781-11.363281-.480469-4.355469-.730469-8.734376-.738282-13.121094-.019531-4.011719.195313-8.023438.648438-12.011719.25-3.015625.78125-6.324219 1.34375-9.628906.664062-3.34375 1.457031-6.351563 2.246094-9.351563.984374-4.214844 4.964843-7.023437 9.261718-6.539062s7.554688 4.109375 7.574219 8.433594v.085937c0 .734375-.09375 1.46875-.285156 2.179687-.722657 2.734376-1.449219 5.46875-2.015625 8.285157-.425782 2.578125-.910156 5.417969-1.148438 8.253906-.390625 3.417969-.574218 6.855469-.558594 10.292969.007813 3.742187.21875 7.480468.632813 11.203125.386719 3.242187.933594 6.464843 1.640625 9.652343 10.921875 44.695313 47.683594 78.414063 93.148438 85.445313 15.902343 2.875 32.1875 2.875 48.085937-.003906 45.320313-7.074219 82.007813-40.582031 93.148437-85.078125.699219-3.285156 1.25-6.691406 1.652344-10.097656.402344-3.691407.609375-7.40625.625-11.121094.015625-3.339844-.164062-6.679688-.542968-10.003906-.265626-3.125-.75-5.964844-1.226563-8.804688-.414063-1.988281-.964844-4.277344-1.597656-6.570312-5.246094-11.347657-12.058594-21.902344-20.242188-31.351563-2.917969-3.621094-2.398437-8.914063 1.167969-11.898437 3.5625-2.984376 8.863281-2.566407 11.914062.941406 9.699219 11.238281 17.632813 23.882812 23.535157 37.503906.808593 2.921875 1.457031 5.585938 2 8.246094.617187 3.601562 1.148437 6.910156 1.421875 10.214844.445312 3.890624.65625 7.808593.636718 11.722656-.015624 4.351562-.261718 8.695312-.734374 13.019531-.476563 4.03125-1.109376 7.960937-1.933594 11.808594-12.582032 51.21875-54.617188 89.925781-106.699219 98.25-8.964844 1.640625-18.054687 2.460937-27.167969 2.449219zm0 0"/><path d="m59.75 128.011719c-4.3125-.007813-7.9375-3.230469-8.457031-7.507813-.515625-4.277344 2.238281-8.273437 6.421875-9.308594 66.949218-16.507812 78.726562-52.367187 79.199218-53.882812.992188-3.257812 3.820313-5.613281 7.203126-6.003906 3.378906-.390625 6.671874 1.257812 8.378906 4.203125 1.292968 2.210937 33.09375 54.863281 128.417968 46.929687 2.261719-.214844 4.511719.488282 6.246094 1.957032s2.800782 3.574218 2.960938 5.839843c.191406 2.253907-.523438 4.492188-1.984375 6.222657-1.460938 1.726562-3.550781 2.804687-5.804688 2.992187-78.933593 6.625-119.46875-25.570313-135.800781-43.761719-9.917969 15.222656-33.160156 39.363282-84.738281 52.074219-.667969.164063-1.355469.25-2.042969.246094zm0 0"/></svg>