<svg height="512pt" viewBox="-1 0 512 512.00033" width="512pt" xmlns="http://www.w3.org/2000/svg"><path d="m273.066406 353.109375c-8.359375-2.167969-16.960937-3.257813-25.597656-3.242187h-42.667969v-44.972657h-51.199219v44.972657h-42.667968c-8.636719-.015626-17.238282 1.074218-25.601563 3.242187-45.21875 11.667969-76.808593 52.457031-76.796875 99.15625v34.132813c.027344 9.417968 7.652344 17.039062 17.066406 17.070312h307.199219l16.980469-55.46875c-1.882812-45.074219-33.035156-83.605469-76.714844-94.890625zm0 0" fill="#f09372"/><path d="m153.601562 349.867188v17.75c-2.28125-6.171876-5.136718-12.117188-8.535156-17.75zm0 0" fill="#2c3e50"/><path d="m213.332031 349.867188c-3.394531 5.632812-6.253906 11.578124-8.53125 17.75v-17.75zm0 0" fill="#2c3e50"/><path d="m179.199219 503.46875h-153.597657c-9.414062-.03125-17.039062-7.652344-17.066406-17.070312v-34.132813c-.011718-46.699219 31.578125-87.488281 76.796875-99.15625 8.363281-2.167969 16.964844-3.257813 25.601563-3.242187h34.132812s-51.199218 0-59.734375 51.199218c0 0 34.136719 0 42.667969 10.242188-16.828125 7.992187-29.304688 22.964844-34.132812 40.957031 0 0 59.734374 20.480469 85.332031 51.203125zm0 0" fill="#3f51b5"/><path d="m349.78125 448-16.980469 55.46875h-153.601562c25.601562-30.722656 85.335937-51.203125 85.335937-51.203125-4.832031-17.992187-17.308594-32.964844-34.136718-40.957031 5.472656-4.695313 12.277343-7.558594 19.457031-8.195313 7.671875-1.277343 15.433593-1.964843 23.210937-2.046875-8.53125-51.199218-59.734375-51.199218-59.734375-51.199218h34.136719c8.636719-.015626 17.238281 1.074218 25.597656 3.242187 43.679688 11.285156 74.832032 49.816406 76.714844 94.890625zm0 0" fill="#283593"/><path d="m326.144531 448-16.980469 55.46875h-129.964843c25.601562-30.722656 85.335937-51.203125 85.335937-51.203125-4.832031-17.992187-17.308594-32.964844-34.136718-40.957031 5.472656-4.695313 12.277343-7.558594 19.457031-8.195313 7.671875-1.277343 15.433593-1.964843 23.210937-2.046875-8.53125-51.199218-59.734375-51.199218-59.734375-51.199218h10.496094c8.636719-.015626 17.242187 1.074218 25.601563 3.242187 43.679687 11.285156 74.832031 49.816406 76.714843 94.890625zm0 0" fill="#3f51b5"/><path d="m204.800781 304.894531v62.722657c-19.03125 48.894531-25.601562 135.851562-25.601562 135.851562s-6.570313-86.957031-25.597657-135.851562v-62.722657zm0 0" fill="#ffe0b2"/><path d="m179.199219 503.46875c-25.597657-30.722656-85.332031-51.203125-85.332031-51.203125 4.828124-17.992187 17.304687-32.964844 34.132812-40.957031-8.53125-10.242188-42.667969-10.242188-42.667969-10.242188 8.535157-51.199218 59.734375-51.199218 59.734375-51.199218 3.398438 5.632812 6.253906 11.578124 8.535156 17.75 19.027344 48.894531 25.597657 135.851562 25.597657 135.851562zm0 0" fill="#283593"/><path d="m264.535156 452.265625s-59.734375 20.480469-85.335937 51.203125c0 0 6.570312-86.957031 25.601562-135.851562 2.277344-6.171876 5.136719-12.117188 8.53125-17.75 0 0 51.203125 0 59.734375 51.199218 0 0-34.132812 0-42.667968 10.242188 16.828124 7.992187 29.304687 22.964844 34.136718 40.957031zm0 0" fill="#283593"/><path d="m346.113281 151.46875c-7.433593-8.371094-16.378906-15.261719-26.367187-20.3125v-.082031c-8.660156-31.820313-28.195313-59.601563-55.210938-78.507813v-9.898437c-.070312-9.398438-7.671875-17-17.066406-17.066407-6.542969.015626-12.503906 3.757813-15.363281 9.640626-11.53125-4.378907-23.574219-7.273438-35.839844-8.617188v-1.023438c.023437-4.527343-1.792969-8.871093-5.035156-12.035156-3.160157-3.238281-7.503907-5.054687-12.03125-5.03125-9.414063.027344-17.039063 7.652344-17.066407 17.066406v1.023438c-12.261718 1.34375-24.304687 4.238281-35.839843 8.617188-.851563-1.707032-1.976563-3.261719-3.328125-4.605469-3.160156-3.242188-7.503906-5.058594-12.03125-5.035157-9.414063.027344-17.039063 7.652344-17.066406 17.066407v9.898437c-27.019532 18.90625-46.554688 46.6875-55.210938 78.507813v.082031c-9.992188 5.050781-18.9375 11.941406-26.367188 20.3125-5.753906 7.234375-4.652343 17.746094 2.472657 23.636719 5.519531 4.53125 13.265625 5.175781 19.457031 1.621093-.089844.820313-.089844 1.652344 0 2.472657h-.085938c-9.398437.070312-17 7.671875-17.066406 17.066406.027344 9.414063 7.652344 17.039063 17.066406 17.066406h19.542969c11.773438 53.589844 63.488281 93.867188 125.523438 93.867188 62.125 0 113.75-40.277344 125.527343-93.867188h19.539063c9.414063-.027343 17.039063-7.652343 17.066406-17.066406-.066406-9.394531-7.667969-16.996094-17.066406-17.066406h-.085937c.046874-.765625.046874-1.535157 0-2.304688 2.621093 1.515625 5.59375 2.3125 8.621093 2.304688 3.882813.019531 7.652344-1.308594 10.667969-3.753907 7.339844-5.894531 8.523438-16.625 2.644531-23.976562zm0 0" fill="#f29c1f"/><path d="m319.746094 131.074219v.082031h-281.089844v-.082031c8.65625-31.820313 28.191406-59.601563 55.210938-78.507813v-9.898437c-.003907-4.625 1.910156-9.046875 5.289062-12.203125 3.113281-3.140625 7.359375-4.894532 11.777344-4.863282 3.960937-.003906 7.796875 1.382813 10.835937 3.925782.421875.34375.820313.714844 1.195313 1.109375 1.351562 1.34375 2.476562 2.898437 3.328125 4.605469 11.535156-4.378907 23.578125-7.273438 35.839843-8.617188v-1.023438c-.003906-4.625 1.910157-9.046874 5.292969-12.203124 3.109375-3.140626 7.355469-4.894532 11.773438-4.863282 4.527343-.023437 8.871093 1.792969 12.03125 5.03125 3.242187 3.164063 5.058593 7.507813 5.035156 12.035156v1.023438c5.660156.613281 11.273437 1.582031 16.8125 2.902344 6.46875 1.453125 12.828125 3.363281 19.027344 5.714844.878906-1.808594 2.09375-3.429688 3.585937-4.777344 3.109375-3.140625 7.355469-4.894532 11.777344-4.863282 9.394531.066407 16.996094 7.667969 17.066406 17.066407v9.898437c27.015625 18.90625 46.550782 46.6875 55.210938 78.507813zm0 0" fill="#f57c00"/><path d="m296.105469 131.074219v.082031h-257.449219v-.082031c8.65625-31.820313 28.191406-59.601563 55.210938-78.507813v-9.898437c-.003907-4.625 1.910156-9.046875 5.289062-12.203125l.171875.171875c1.351563 1.34375 2.476563 2.898437 3.328125 4.605469 6.230469-2.351563 12.617188-4.261719 19.113281-5.714844.421875.34375.820313.714844 1.195313 1.109375 1.351562 1.34375 2.476562 2.898437 3.328125 4.605469 11.535156-4.378907 23.578125-7.273438 35.839843-8.617188v-1.023438c-.003906-4.625 1.910157-9.046874 5.292969-12.203124l.167969.167968c3.242188 3.164063 5.058594 7.507813 5.035156 12.035156v1.023438c12.265625 1.34375 24.308594 4.238281 35.839844 8.617188 1.09375-2.222657 2.667969-4.175782 4.609375-5.714844 6.46875 1.453125 12.828125 3.363281 19.027344 5.714844.878906-1.808594 2.09375-3.429688 3.585937-4.777344l.171875.171875c3.238281 3.160156 5.058594 7.503906 5.03125 12.03125v9.898437c27.019531 18.90625 46.554688 46.6875 55.210938 78.507813zm0 0" fill="#ff9801"/><path d="m307.199219 187.734375v1.195313c-.339844 9.214843-4.4375 67.070312-64 67.070312-4.164063.042969-8.328125-.214844-12.457031-.769531-22.527344-2.984375-19.796876-14.417969-51.542969-14.417969-3.933594-.023438-7.867188.203125-11.773438.679688h-.085937c-23.125 2.902343-20.140625 14.507812-52.140625 14.507812-3.738281.015625-7.476563-.242188-11.175781-.769531-48.898438-6.738281-52.480469-57.683594-52.824219-66.300781v-1.195313c.171875-2.902344.257812-5.71875.597656-8.535156.085937-1.109375.257813-2.304688.34375-3.414063.253906-1.960937.59375-3.839844.9375-5.800781.597656-2.988281 1.28125-5.886719 2.132813-8.789063 23.4375-12.007812 48.957031-19.421874 75.179687-21.84375 1.875-.257812 3.839844-.515624 5.800781-.683593h86.015625c1.964844.167969 3.925781.425781 5.804688.683593 26.210937 2.417969 51.726562 9.800782 75.179687 21.757813.765625 2.902344 1.535156 5.886719 2.132813 8.875.339843 1.878906.597656 3.839844.851562 5.71875.171875 1.191406.339844 2.300781.425781 3.496094.34375 2.816406.429688 5.632812.597657 8.535156zm0 0" fill="#dfc49c"/><path d="m283.5625 187.734375v1.195313c-.339844 8.617187-3.925781 59.5625-52.820312 66.300781-22.527344-2.984375-19.796876-14.417969-51.542969-14.417969-3.933594-.023438-7.867188.203125-11.773438.679688h-.085937c-3.90625-.476563-7.839844-.703126-11.777344-.679688-31.742188 0-29.011719 11.433594-51.539062 14.417969-48.898438-6.738281-52.480469-57.683594-52.824219-66.300781v-1.195313c.171875-2.902344.257812-5.71875.597656-8.535156.085937-1.109375.257813-2.304688.34375-3.414063.253906-1.960937.59375-3.839844.9375-5.800781.597656-2.988281 1.28125-5.886719 2.132813-8.789063 23.4375-12.007812 48.957031-19.421874 75.179687-21.84375 1.875-.257812 3.839844-.515624 5.800781-.683593h62.378906c1.964844.167969 3.925782.425781 5.804688.683593 26.210938 2.417969 51.722656 9.800782 75.175781 21.757813.769531 2.902344 1.539063 5.886719 2.132813 8.875.34375 1.878906.597656 3.839844.855468 5.71875.171876 1.191406.339844 2.300781.425782 3.496094.34375 2.816406.425781 5.632812.597656 8.535156zm0 0" fill="#ffe0b2"/><path d="m53.675781 213.332031h-19.542969c-9.414062-.027343-17.039062-7.652343-17.066406-17.066406.066406-9.394531 7.667969-16.996094 17.066406-17.066406h17.664063c-.339844 2.816406-.425781 5.632812-.597656 8.535156v2.472656c.011719 4.050781.242187 8.09375.683593 12.117188.425782 3.757812 1.023438 7.339843 1.792969 11.007812zm0 0" fill="#ffe0b2"/><path d="m307.199219 188.929688v1.277343c-.011719 4.050781-.238281 8.09375-.683594 12.117188-.425781 3.671875-1.023437 7.339843-1.789063 10.925781v.082031c-11.777343 53.589844-63.402343 93.867188-125.527343 93.867188-4.007813 0-7.933594-.167969-11.773438-.425781-38.269531-2.773438-73.367187-22.289063-95.917969-53.332032-8.585937-12.03125-14.652343-25.671875-17.832031-40.109375-.769531-3.667969-1.367187-7.25-1.792969-11.007812-.441406-4.023438-.671874-8.066407-.683593-12.117188v-1.277343c.34375 8.617187 3.925781 59.5625 52.824219 66.300781 3.699218.527343 7.4375.785156 11.175781.769531 32 0 29.015625-11.605469 52.140625-14.507812h.085937c3.90625-.476563 7.839844-.703126 11.773438-.679688 31.746093 0 29.015625 11.433594 51.542969 14.417969 4.128906.554687 8.292968.8125 12.457031.769531 6.769531.054688 13.515625-.808594 20.054687-2.558594 40.449219-11.265625 43.691406-56.492187 43.945313-64.511718zm0 0" fill="#624421"/><path d="m263.253906 253.441406c-22.5 31.054688-57.578125 50.578125-95.828125 53.332032-38.269531-2.773438-73.367187-22.289063-95.917969-53.332032 6.539063 1.761719 13.285157 2.621094 20.054688 2.558594 4.167969.046875 8.332031-.210938 12.460938-.769531 3.699218.527343 7.4375.785156 11.175781.769531 32 0 29.015625-11.605469 52.140625-14.507812h.085937c23.125 2.902343 20.136719 14.507812 52.136719 14.507812 3.742188.015625 7.476562-.238281 11.179688-.769531 4.128906.554687 8.292968.8125 12.457031.769531 6.769531.054688 13.515625-.808594 20.054687-2.558594zm0 0" fill="#825a2c"/><path d="m341.332031 196.265625c-.027343 9.414063-7.652343 17.039063-17.066406 17.066406h-19.539063v-.082031c.765626-3.585938 1.363282-7.253906 1.789063-10.925781.445313-4.023438.671875-8.066407.683594-12.117188v-2.472656c-.167969-2.902344-.253907-5.71875-.597657-8.535156h17.664063c9.398437.070312 17 7.671875 17.066406 17.066406zm0 0" fill="#dfc49c"/><path d="m324.179688 179.199219h-17.578126c-.253906-3.070313-.765624-6.144531-1.277343-9.214844-.597657-2.988281-1.367188-5.972656-2.132813-8.875 5.976563 3.074219 11.46875 7.011719 16.296875 11.691406 1.289063 1.652344 2.882813 3.042969 4.691407 4.09375.046874.769531.046874 1.539063 0 2.304688zm0 0" fill="#7f5b53"/><path d="m55.210938 161.195312c-.851563 2.902344-1.535157 5.800782-2.132813 8.789063-.511719 3.070313-1.023437 6.144531-1.28125 9.214844h-17.578125c-.089844-.820313-.089844-1.652344 0-2.472657 1.695312-.972656 3.222656-2.210937 4.523438-3.671874 4.871093-4.746094 10.421874-8.742188 16.46875-11.859376zm0 0" fill="#7f5b53"/><path d="m343.46875 175.445312c-3.015625 2.445313-6.785156 3.773438-10.667969 3.753907-3.027343.007812-6-.789063-8.621093-2.304688-1.808594-1.050781-3.402344-2.441406-4.691407-4.09375-4.828125-4.679687-10.320312-8.617187-16.296875-11.691406-25.242187-12.769531-52.769531-20.398437-80.984375-22.441406h-86.015625c-28.222656 2.046875-55.753906 9.707031-80.980468 22.527343-6.046876 3.117188-11.597657 7.113282-16.46875 11.859376-1.300782 1.460937-2.828126 2.699218-4.523438 3.671874-6.191406 3.554688-13.9375 2.910157-19.457031-1.621093-7.125-5.890625-8.226563-16.402344-2.472657-23.636719 7.429688-8.371094 16.375-15.261719 26.367188-20.3125v-.082031c27.921875-14.402344 58.386719-23.214844 89.683594-25.941407h101.71875c31.300781 2.726563 61.765625 11.539063 89.6875 25.941407v.082031c9.988281 5.050781 18.933594 11.941406 26.367187 20.3125 5.878907 7.351562 4.695313 18.082031-2.644531 23.976562zm0 0" fill="#ffdc00"/><path d="m343.46875 175.445312c-3.015625 2.445313-6.785156 3.773438-10.667969 3.753907-3.027343.007812-6-.789063-8.621093-2.304688-1.195313-.660156-2.261719-1.523437-3.15625-2.558593 6.304687-6.109376 6.929687-16.011719 1.453124-22.867188-7.433593-8.371094-16.378906-15.261719-26.371093-20.3125v-.082031c-27.921875-14.402344-58.386719-23.214844-89.683594-25.941407h23.636719c31.300781 2.726563 61.765625 11.539063 89.6875 25.941407v.082031c9.988281 5.050781 18.933594 11.941406 26.367187 20.3125 5.878907 7.351562 4.695313 18.082031-2.644531 23.976562zm0 0" fill="#fec108"/><path d="m483.753906 503.46875h-157.4375c-5.917968.023438-11.425781-3.027344-14.539062-8.058594-3.117188-5.03125-3.394532-11.316406-.738282-16.605468l9.300782-18.773438c2.472656-4.863281 7.085937-8.277344 12.460937-9.214844l33.195313-5.460937c5.867187-1.023438 10.796875-4.984375 13.054687-10.496094l11.777344-29.609375c1.117187-2.734375 2.90625-5.140625 5.203125-7l35.925781-28.757812c2.148438-1.691407 4.660157-2.859376 7.339844-3.410157l13.3125-2.648437 11.347656-2.21875c8.050781-1.609375 16.105469 2.722656 19.199219 10.328125l10.582031 26.453125c.78125 2.042968 1.1875 4.210937 1.195313 6.398437v38.144531c.015625.800782.070312 1.597657.171875 2.390626l5.546875 39.082031c.707031 4.898437-.75 9.859375-3.996094 13.597656-3.242188 3.734375-7.953125 5.875-12.902344 5.859375zm0 0" fill="#545c60"/><path d="m460.117188 503.46875h-133.800782c-5.917968.023438-11.425781-3.027344-14.539062-8.058594-3.117188-5.03125-3.394532-11.316406-.738282-16.605468l9.300782-18.773438c2.472656-4.863281 7.085937-8.277344 12.460937-9.214844l33.195313-5.460937c5.867187-1.023438 10.796875-4.984375 13.054687-10.496094l11.777344-29.609375c1.117187-2.734375 2.90625-5.140625 5.203125-7l35.925781-28.757812c2.148438-1.691407 4.660157-2.859376 7.339844-3.410157l13.3125-2.648437c3.109375 1.871094 5.511719 4.722656 6.824219 8.109375l10.582031 26.453125c.851563 2.027344 1.285156 4.203125 1.28125 6.398437v38.144531c-.027344.800782.027344 1.601563.171875 2.390626l5.542969 39.082031c.695312 4.894531-.769531 9.847656-4.011719 13.578125-3.238281 3.734375-7.941406 5.875-12.882812 5.878906zm0 0" fill="#7f8e94"/><path d="m417.148438 299.117188-54.308594 54.304687c-6.671875 6.617187-17.4375 6.589844-24.082032-.050781-6.644531-6.644532-6.667968-17.410156-.050781-24.085938l54.304688-54.304687 22.445312-22.441407 7.726563-7.726562c6.675781-6.636719 17.457031-6.636719 24.132812 0 6.597656 6.695312 6.597656 17.445312 0 24.136719zm0 0" fill="#91562d"/><path d="m230.398438 110.933594c0 28.277344-22.921876 51.199218-51.199219 51.199218-28.277344 0-51.199219-22.921874-51.199219-51.199218s22.921875-51.199219 51.199219-51.199219c28.277343 0 51.199219 22.921875 51.199219 51.199219zm0 0" fill="#9e9e9e"/><path d="m196.265625 110.933594c0 9.425781-7.640625 17.066406-17.066406 17.066406s-17.066407-7.640625-17.066407-17.066406c0-9.425782 7.640626-17.066406 17.066407-17.066406s17.066406 7.640624 17.066406 17.066406zm0 0" fill="#f5f5f5"/><path d="m405.078125 287.050781 42.238281 42.238281c12.070313-36.203124-18.101562-66.375-18.101562-66.375s-30.167969-30.167968-66.375-18.101562zm0 0" fill="#9e9e9e"/><path d="m179.199219 315.734375c-70.171875 0-128.558594-48.34375-135.800781-112.449219-.472657-4.34375-.714844-8.707031-.730469-13.078125-.023438-4.019531.199219-8.035156.65625-12.03125.234375-2.886719.757812-6.109375 1.292969-9.328125.742187-3.777344 1.484374-6.914062 2.398437-10.050781 1.328125-4.523437 6.070313-7.117187 10.59375-5.792969 4.523437 1.328125 7.117187 6.070313 5.792969 10.59375-.785156 2.660156-1.410156 5.324219-1.964844 8.066406-.449219 2.722657-.90625 5.480469-1.132812 8.230469-.398438 3.421875-.589844 6.867188-.570313 10.3125.011719 3.75.222656 7.492188.632813 11.21875 6.257812 55.410157 57.347656 97.242188 118.832031 97.242188 56.875 0 106.15625-36.6875 117.191406-87.238281.699219-3.289063 1.261719-6.683594 1.652344-10.089844.402343-3.695313.613281-7.410156.625-11.132813.023437-3.335937-.160157-6.667969-.542969-9.984375-.257812-3.082031-.71875-5.835937-1.175781-8.589844-.558594-2.792968-1.277344-5.605468-2.007813-8.34375-1.160156-4.542968 1.558594-9.167968 6.089844-10.363281 4.527344-1.195312 9.175781 1.484375 10.410156 6.003907.808594 3.066406 1.617188 6.21875 2.25 9.375.625 3.761718 1.148438 6.980468 1.417969 10.203124.441406 3.882813.648437 7.792969.625 11.699219-.015625 4.351563-.257813 8.695313-.734375 13.019531-.464844 4.019532-1.109375 7.957032-1.933594 11.808594-12.734375 58.359375-69.023437 100.699219-133.867187 100.699219zm0 0"/><path d="m51.882812 221.867188h-17.75c-14.132812-.015626-25.582031-11.46875-25.597656-25.601563.070313-14.109375 11.488282-25.527344 25.597656-25.597656h17.664063c4.714844 0 8.535156 3.820312 8.535156 8.53125 0 4.714843-3.820312 8.535156-8.535156 8.535156h-17.578125c-2.253906-.039063-4.425781.851563-6.007812 2.457031-1.671876 1.578125-2.617188 3.777344-2.609376 6.074219.003907 4.710937 3.820313 8.53125 8.53125 8.535156h17.75c4.710938 0 8.535157 3.820313 8.535157 8.53125 0 4.714844-3.824219 8.535157-8.535157 8.535157zm0 0"/><path d="m324.265625 221.867188h-17.75c-4.710937 0-8.53125-3.820313-8.53125-8.535157 0-4.710937 3.820313-8.53125 8.53125-8.53125h17.75c4.710937-.003906 8.53125-3.824219 8.535156-8.535156.019531-2.222656-.863281-4.359375-2.449219-5.917969-1.582031-1.671875-3.785156-2.617187-6.085937-2.613281h-17.664063c-4.710937 0-8.53125-3.820313-8.53125-8.535156 0-4.710938 3.820313-8.53125 8.53125-8.53125h17.578126c14.144531.019531 25.621093 11.453125 25.6875 25.597656-.015626 14.132813-11.46875 25.585937-25.601563 25.601563zm0 0"/><path d="m38.65625 139.644531c-2.257812.011719-4.429688-.875-6.03125-2.46875s-2.5-3.757812-2.503906-6.015625c.003906-.773437.101562-1.542968.292968-2.289062 9.1875-33.738282 29.894532-63.199219 58.527344-83.269532 2.484375-1.839843 5.769532-2.1875 8.585938-.914062s4.726562 3.972656 4.988281 7.054688c.261719 3.078124-1.164063 6.0625-3.726563 7.792968-25.316406 17.726563-43.648437 43.738282-51.832031 73.539063-.921875 3.84375-4.351562 6.558593-8.300781 6.570312zm0 0"/><path d="m232.105469 43.777344c-1.03125 0-2.058594-.191406-3.023438-.558594-10.859375-4.121094-22.195312-6.847656-33.742187-8.113281-4.683594-.511719-8.070313-4.722657-7.558594-9.410157.511719-4.683593 4.722656-8.066406 9.410156-7.554687 12.980469 1.421875 25.730469 4.484375 37.941406 9.117187 3.859376 1.457032 6.125 5.464844 5.378907 9.523438-.742188 4.054688-4.28125 7-8.40625 6.996094zm0 0"/><path d="m319.746094 139.644531c-4.089844.019531-7.613282-2.878906-8.386719-6.894531-8.234375-29.667969-26.527344-55.550781-51.746094-73.214844-2.5625-1.730468-3.988281-4.714844-3.726562-7.792968.261719-3.082032 2.167969-5.78125 4.984375-7.054688s6.101562-.925781 8.589844.914062c28.632812 20.070313 49.339843 49.53125 58.523437 83.269532.6875 2.566406.148437 5.304687-1.46875 7.417968-1.613281 2.109376-4.113281 3.347657-6.769531 3.355469zm0 0"/><path d="m126.292969 43.777344c-4.125.003906-7.664063-2.941406-8.40625-6.996094-.742188-4.058594 1.523437-8.066406 5.382812-9.523438 12.207031-4.628906 24.957031-7.695312 37.9375-9.117187 4.6875-.507813 8.898438 2.875 9.410157 7.558594.511718 4.6875-2.875 8.898437-7.558594 9.410156-11.546875 1.265625-22.882813 3.992187-33.742188 8.113281-.964844.367188-1.988281.554688-3.023437.554688zm0 0"/><path d="m34.207031 187.734375c-3.929687-.003906-7.351562-2.695313-8.28125-6.511719-.351562-1.675781-.425781-3.390625-.226562-5.089844.328125-4.703124 4.40625-8.25 9.109375-7.925781 4.703125.328125 8.25 4.40625 7.925781 9.109375-.027344.320313-.042969.609375-.050781.84375.535156 4.292969-2.238282 8.308594-6.441406 9.332032-.667969.160156-1.347657.238281-2.035157.242187zm0 0"/><path d="m324.179688 187.554688h-.179688c-4.605469-.019532-8.335938-3.75-8.351562-8.355469 0-.128907.015624-.605469.015624-.734375.027344-.308594.027344-.617188.007813-.925782-.28125-3.070312 1.117187-6.050781 3.652344-7.804687 2.535156-1.75 5.820312-1.996094 8.589843-.644531 2.769532 1.351562 4.59375 4.089844 4.777344 7.167968.066406.992188.078125 1.984376.023438 2.976563-.191406 4.59375-3.933594 8.242187-8.535156 8.320313zm0 0"/><path d="m153.601562 376.148438c-4.714843 0-8.535156-3.820313-8.535156-8.53125v-62.722657c0-4.710937 3.820313-8.53125 8.535156-8.53125 4.710938 0 8.53125 3.820313 8.53125 8.53125v62.722657c0 4.710937-3.820312 8.53125-8.53125 8.53125zm0 0"/><path d="m204.800781 376.148438c-4.714843 0-8.535156-3.820313-8.535156-8.53125v-62.722657c0-4.710937 3.820313-8.53125 8.535156-8.53125 4.710938 0 8.53125 3.820313 8.53125 8.53125v62.722657c0 4.710937-3.820312 8.53125-8.53125 8.53125zm0 0"/><path d="m179.199219 512h-153.597657c-14.132812-.015625-25.585937-11.46875-25.601562-25.601562v-34.132813c-.015625-29.425781 11.667969-57.648437 32.476562-78.457031 20.804688-20.804688 49.03125-32.488282 78.457032-32.476563h42.667968c4.710938 0 8.53125 3.820313 8.53125 8.535157 0 4.710937-3.820312 8.53125-8.53125 8.53125h-42.667968c-24.898438-.007813-48.78125 9.878906-66.386719 27.484374-17.605469 17.605469-27.492187 41.484376-27.480469 66.382813v34.132813c.003906 4.714843 3.824219 8.53125 8.535156 8.535156h153.597657c4.714843 0 8.535156 3.820312 8.535156 8.535156 0 4.710938-3.820313 8.53125-8.535156 8.53125zm0 0"/><path d="m332.800781 512h-153.601562c-4.710938 0-8.53125-3.820312-8.53125-8.53125 0-4.714844 3.820312-8.535156 8.53125-8.535156h153.601562c4.710938 0 8.53125 3.820312 8.53125 8.535156 0 4.710938-3.820312 8.53125-8.53125 8.53125zm0 0"/><path d="m349.777344 456.535156c-4.578125-.003906-8.335938-3.613281-8.519532-8.183594-1.886718-41.253906-30.371093-76.492187-70.3125-86.976562-7.667968-1.984375-15.558593-2.984375-23.476562-2.976562h-42.667969c-4.714843 0-8.535156-3.820313-8.535156-8.53125 0-4.714844 3.820313-8.535157 8.535156-8.535157h42.667969c9.359375-.007812 18.683594 1.171875 27.75 3.519531 47.203125 12.398438 80.863281 54.042969 83.089844 102.800782.191406 4.707031-3.46875 8.679687-8.175782 8.871094zm0 0"/><path d="m332.800781 187.734375c-7.632812.027344-14.871093-3.378906-19.710937-9.28125-4.300782-4.128906-28.285156-24.589844-91.785156-31.300781-3.03125-.320313-5.660157-2.234375-6.898438-5.019532-1.238281-2.789062-.894531-6.023437.898438-8.488281 1.792968-2.464843 4.769531-3.785156 7.800781-3.464843 73.472656 7.765624 99.824219 33.816406 102.589843 36.761718 1.648438 2.292969 4.28125 3.675782 7.105469 3.726563 1.925781.011719 3.792969-.640625 5.289063-1.851563 1.773437-1.410156 2.914062-3.46875 3.171875-5.71875.253906-2.253906-.394531-4.515625-1.804688-6.289062-6.75-7.488282-14.835937-13.652344-23.84375-18.175782-.328125-.183593-.648437-.386718-.949219-.613281-26.734374-13.46875-55.777343-21.753906-85.597656-24.414062-4.632812-.601563-7.921875-4.816407-7.378906-9.457031.542969-4.636719 4.714844-7.980469 9.363281-7.492188 32.394531 2.914062 63.917969 12.066406 92.832031 26.953125.339844.183594.660157.394531.96875.628906 10.613282 5.496094 20.097657 12.941407 27.957032 21.945313 6.125 7.6875 7.308594 18.203125 3.046875 27.058594-4.265625 8.855468-13.226563 14.488281-23.054688 14.492187zm0 0"/><path d="m25.640625 187.511719c-9.804687.035156-18.761719-5.558594-23.03125-14.386719-4.269531-8.832031-3.09375-19.324219 3.023437-26.992188 7.855469-8.988281 17.332032-16.421874 27.933594-21.90625.300782-.230468.617188-.433593.949219-.617187 28.917969-14.886719 60.441406-24.039063 92.832031-26.953125 2.253906-.289062 4.527344.339844 6.308594 1.75s2.921875 3.476562 3.160156 5.734375c.542969 4.679687-2.804687 8.917969-7.484375 9.464844-29.824219 2.65625-58.878906 10.945312-85.617187 24.425781-.296875.214844-.609375.414062-.929688.59375-8.988281 4.515625-17.054687 10.660156-23.792968 18.121094-2.886719 3.628906-2.320313 8.90625 1.273437 11.835937 3.679687 2.910157 9 2.398438 12.058594-1.15625 3.035156-3.226562 29.683593-29.5 102.96875-37.246093 4.6875-.496094 8.890625 2.898437 9.386719 7.585937.496093 4.6875-2.902344 8.890625-7.589844 9.386719-68.324219 7.222656-91.164063 30.722656-92.105469 31.71875-4.90625 5.527344-11.953125 8.675781-19.34375 8.640625zm0 0"/><path d="m93.867188 61.097656c-4.714844 0-8.535157-3.820312-8.535157-8.53125v-9.898437c.015625-14.132813 11.46875-25.585938 25.601563-25.601563 6.828125-.035156 13.378906 2.710938 18.140625 7.609375 1.96875 1.976563 3.609375 4.257813 4.851562 6.757813 1.457031 2.738281 1.3125 6.050781-.375 8.652344-1.691406 2.605468-4.65625 4.085937-7.753906 3.867187-3.09375-.214844-5.828125-2.089844-7.136719-4.902344-.441406-.882812-1.023437-1.6875-1.726562-2.382812-1.570313-1.632813-3.738282-2.546875-6-2.535157-4.710938.003907-8.527344 3.824219-8.535156 8.535157v9.898437c0 4.710938-3.820313 8.53125-8.53125 8.53125zm0 0"/><path d="m196.265625 35.15625c-4.710937 0-8.53125-3.820312-8.53125-8.53125v-1.023438c.019531-2.226562-.863281-4.363281-2.449219-5.921874-1.582031-1.671876-3.785156-2.617188-6.085937-2.613282-4.710938.003906-8.527344 3.824219-8.53125 8.535156v1.023438c0 4.710938-3.820313 8.53125-8.535157 8.53125-4.710937 0-8.53125-3.820312-8.53125-8.53125v-1.023438c.015626-14.132812 11.464844-25.585937 25.597657-25.601562 6.832031-.0351562 13.382812 2.710938 18.144531 7.609375 4.816406 4.738281 7.507812 11.230469 7.457031 17.992187v1.023438c0 4.710938-3.820312 8.53125-8.535156 8.53125zm0 0"/><path d="m264.535156 61.097656c-4.714844 0-8.535156-3.820312-8.535156-8.53125v-9.898437c.019531-2.226563-.863281-4.363281-2.449219-5.921875-1.96875-1.941406-4.742187-2.820313-7.46875-2.375-2.726562.449218-5.074219 2.175781-6.316406 4.640625-2.082031 4.230469-7.199219 5.972656-11.429687 3.890625-4.226563-2.085938-5.96875-7.203125-3.886719-11.429688 4.277343-8.820312 13.21875-14.414062 23.019531-14.40625 14.109375.066406 25.53125 11.488282 25.597656 25.601563v9.898437c0 4.710938-3.820312 8.53125-8.53125 8.53125zm0 0"/><path d="m115.199219 264.535156c-18.703125.820313-36.914063-6.105468-50.347657-19.148437-14.09375-15.953125-21.96875-36.445313-22.183593-57.730469.042969-4.683594 3.851562-8.457031 8.53125-8.457031h.085937c4.703125.050781 8.480469 3.894531 8.449219 8.597656.289063 16.769531 6.414063 32.917969 17.320313 45.660156 10.265624 9.691407 24.050781 14.753907 38.144531 14.011719 9.742187.765625 19.480469-1.511719 27.867187-6.523438 10.910156-6.425781 23.496094-9.441406 36.132813-8.648437 4.714843 0 8.535156 3.820313 8.535156 8.53125 0 4.714844-3.820313 8.535156-8.535156 8.535156-9.738281-.769531-19.476563 1.507813-27.867188 6.519531-10.910156 6.429688-23.492187 9.441407-36.132812 8.652344zm0 0"/><path d="m243.199219 264.535156c-12.636719.789063-25.222657-2.222656-36.132813-8.652344-8.386718-5.011718-18.125-7.289062-27.867187-6.519531-4.710938 0-8.53125-3.820312-8.53125-8.535156 0-4.710937 3.820312-8.53125 8.53125-8.53125 12.640625-.792969 25.222656 2.222656 36.132812 8.648437 8.390625 5.011719 18.128907 7.289063 27.867188 6.523438 14.097656.742188 27.878906-4.320312 38.144531-14.011719 10.90625-12.742187 17.03125-28.890625 17.324219-45.660156-.027344-4.710937 3.765625-8.550781 8.472656-8.582031h.058594c4.679687-.007813 8.488281 3.761718 8.535156 8.441406-.21875 21.285156-8.09375 41.777344-22.1875 57.730469-13.429687 13.042969-31.644531 19.96875-50.347656 19.148437zm0 0"/><path d="m179.199219 170.667969c-32.988281 0-59.730469-26.746094-59.730469-59.734375 0-32.988282 26.742188-59.734375 59.730469-59.734375 32.992187 0 59.734375 26.746093 59.734375 59.734375-.039063 32.972656-26.757813 59.695312-59.734375 59.734375zm0-102.402344c-23.5625 0-42.664063 19.105469-42.664063 42.667969s19.101563 42.667968 42.664063 42.667968c23.566406 0 42.667969-19.105468 42.667969-42.667968-.027344-23.550782-19.113282-42.640625-42.667969-42.667969zm0 0"/><path d="m179.199219 136.535156c-14.136719 0-25.597657-11.464844-25.597657-25.601562 0-14.136719 11.460938-25.601563 25.597657-25.601563 14.140625 0 25.601562 11.464844 25.601562 25.601563-.015625 14.132812-11.46875 25.585937-25.601562 25.601562zm0-34.136718c-4.710938 0-8.53125 3.824218-8.53125 8.535156 0 4.714844 3.820312 8.535156 8.53125 8.535156 4.714843 0 8.535156-3.820312 8.535156-8.535156-.003906-4.710938-3.824219-8.527344-8.535156-8.535156zm0 0"/><path d="m179.199219 512c-2.53125 0-4.933594-1.125-6.558594-3.070312-23.789063-28.554688-80.964844-48.394532-81.539063-48.59375-4.273437-1.460938-6.667968-6-5.460937-10.351563 4.054687-14.898437 12.746094-28.121094 24.816406-37.75-8.265625-1.730469-16.683593-2.613281-25.125-2.632813-2.507812-.003906-4.886719-1.109374-6.507812-3.023437-1.621094-1.914063-2.316407-4.441406-1.90625-6.914063 5.179687-33.617187 34.136719-58.402343 68.148437-58.332031 2.941406.003907 5.675782 1.519531 7.234375 4.011719 26.417969 42.253906 35.050781 152.792969 35.40625 157.476562.183594 2.367188-.632812 4.707032-2.246093 6.449219-1.617188 1.742188-3.882813 2.730469-6.261719 2.730469zm-74.53125-64.824219c22.710937 8.617188 44.171875 20.226563 63.816406 34.519531-3.691406-32.773437-12.308594-93.097656-28.140625-122.933593-20.183594 1.699219-37.496094 15.070312-44.242188 34.167969 12.664063.90625 30.890626 3.832031 38.457032 12.917968 1.75 2.097656 2.386718 4.90625 1.714844 7.558594-.667969 2.648438-2.570313 4.8125-5.105469 5.828125-11.957031 5.753906-21.386719 15.695313-26.5 27.941406zm0 0"/><path d="m179.199219 512c-2.375 0-4.644531-.988281-6.257813-2.730469-1.617187-1.742187-2.429687-4.078125-2.25-6.449219.359375-4.683593 8.992188-115.21875 35.410156-157.472656 1.558594-2.496094 4.289063-4.011718 7.230469-4.015625 34.011719-.070312 62.972657 24.714844 68.152344 58.332031.410156 2.472657-.289063 5-1.910156 6.914063-1.621094 1.914063-4 3.019531-6.507813 3.023437-8.441406.019532-16.859375.902344-25.125 2.632813 12.070313 9.628906 20.761719 22.851563 24.816406 37.75 1.207032 4.351563-1.1875 8.890625-5.460937 10.351563-.574219.203124-57.789063 20.09375-81.539063 48.59375-1.625 1.945312-4.023437 3.070312-6.558593 3.070312zm38.859375-153.238281c-15.839844 29.855469-24.457032 90.167969-28.140625 122.933593 19.640625-14.292968 41.101562-25.902343 63.816406-34.515624-5.121094-12.242188-14.550781-22.183594-26.5-27.945313-2.539063-1.015625-4.4375-3.179687-5.109375-5.828125-.671875-2.652344-.03125-5.460938 1.714844-7.558594 7.570312-9.085937 25.792968-12.011718 38.460937-12.917968-6.746093-19.097657-24.058593-32.46875-44.242187-34.167969zm0 0"/><path d="m483.792969 512h-157.507813c-8.875 0-17.117187-4.59375-21.78125-12.140625-4.664062-7.546875-5.089844-16.972656-1.121094-24.910156l9.363282-18.722657c3.675781-7.316406 10.617187-12.445312 18.6875-13.804687l33.160156-5.527344c2.933594-.5 5.402344-2.488281 6.515625-5.25l11.824219-29.566406c1.652344-4.105469 4.332031-7.71875 7.785156-10.488281l35.90625-28.722656c3.203125-2.554688 6.96875-4.308594 10.984375-5.113282l24.667969-4.9375c12.101562-2.425781 24.210937 4.132813 28.792968 15.59375l10.574219 26.4375c1.207031 3.023438 1.824219 6.25 1.824219 9.507813v38.164062c-.003906.394531.027344.789063.082031 1.179688l5.585938 39.082031c1.046875 7.347656-1.144531 14.785156-6.007813 20.390625-4.863281 5.605469-11.917968 8.828125-19.335937 8.828125zm-16.492188-142.617188c-.5625.003907-1.125.058594-1.675781.171876l-24.675781 4.9375c-1.335938.269531-2.59375.855468-3.65625 1.707031l-35.910157 28.726562c-1.160156.921875-2.058593 2.128907-2.609374 3.507813l-11.816407 29.558594c-3.347656 8.285156-10.753906 14.246093-19.566406 15.746093l-33.148437 5.523438c-2.691407.453125-5 2.160156-6.226563 4.597656l-9.367187 18.730469c-1.316407 2.644531-1.175782 5.785156.378906 8.296875 1.554687 2.515625 4.300781 4.046875 7.257812 4.046875h157.507813c2.472656 0 4.824219-1.074219 6.441406-2.945313 1.621094-1.867187 2.347656-4.347656 2-6.796875l-5.578125-39.054687c-.171875-1.195313-.253906-2.40625-.257812-3.617188v-38.164062c0-1.089844-.207032-2.171875-.613282-3.183594l-10.5625-26.421875c-1.296875-3.238281-4.433594-5.363281-7.921875-5.367188zm0 0"/><path d="m409.609375 452.265625c-3.761719.003906-7.082031-2.457031-8.175781-6.054687-1.089844-3.601563.304687-7.488282 3.433594-9.578126l17-11.332031c7.003906-4.679687 15.242187-7.175781 23.664062-7.167969h6.734375c4.714844 0 8.535156 3.820313 8.535156 8.535157 0 4.710937-3.820312 8.53125-8.535156 8.53125h-6.734375c-5.050781-.003907-9.992188 1.496093-14.199219 4.300781l-17 11.332031c-1.398437.9375-3.042969 1.4375-4.722656 1.433594zm0 0"/><path d="m447.316406 337.820312c-2.261718 0-4.433594-.898437-6.03125-2.5l-84.476562-84.480468c-2.089844-2.089844-2.949219-5.113282-2.269532-7.992188.675782-2.878906 2.796876-5.199218 5.605469-6.136718 40.765625-13.574219 73.726563 18.785156 75.105469 20.167968 1.382812 1.382813 33.742188 34.363282 20.160156 75.109375-1.164062 3.480469-4.421875 5.828125-8.09375 5.832031zm-66.683594-87.285156 30.484376 30.480469 30.5 30.503906c-1.003907-15.902343-7.523438-30.957031-18.429688-42.574219-11.652344-10.835937-26.675781-17.339843-42.554688-18.410156zm0 0"/><path d="m439.589844 285.203125c-3.449219 0-6.5625-2.078125-7.882813-5.265625-1.320312-3.1875-.589843-6.859375 1.851563-9.300781l7.726562-7.722657c1.585938-1.558593 2.472656-3.695312 2.449219-5.921874.066406-2.304688-.824219-4.53125-2.460937-6.15625-3.332032-3.320313-8.722657-3.320313-12.058594 0l-7.722656 7.726562c-2.132813 2.261719-5.324219 3.1875-8.335938 2.410156-3.011719-.773437-5.363281-3.125-6.136719-6.136718-.773437-3.007813.148438-6.203126 2.410157-8.335938l7.726562-7.726562c10.140625-9.640626 26.058594-9.640626 36.199219 0 9.933593 10.027343 9.933593 26.183593 0 36.207031l-7.726563 7.722656c-1.597656 1.605469-3.773437 2.503906-6.039062 2.5zm0 0"/><path d="m350.773438 366.933594c-10.34375-.007813-19.667969-6.242188-23.628907-15.800782-3.957031-9.558593-1.777343-20.558593 5.53125-27.882812l54.300781-54.304688c2.144532-2.199218 5.308594-3.078124 8.28125-2.292968 2.972657.78125 5.296876 3.105468 6.078126 6.078125.785156 2.972656-.09375 6.136719-2.292969 8.28125l-54.300781 54.308593c-3.3125 3.339844-3.3125 8.722657 0 12.0625 3.382812 3.207032 8.683593 3.207032 12.066406 0l54.308594-54.304687c3.332031-3.332031 8.738281-3.328125 12.070312.003906 3.332031 3.335938 3.328125 8.738281-.003906 12.070313l-54.308594 54.304687c-4.792969 4.808594-11.308594 7.503907-18.101562 7.476563zm0 0"/></svg>