<svg height="512pt" viewBox="0 0 512 512.00374" width="512pt" xmlns="http://www.w3.org/2000/svg"><path d="m335.53125 337.070312v.085938l-11.261719 55.378906-23.125-2.644531-260.183593-29.4375c-25.429688-19.796875-30.546876-57.003906-15.359376-87.382813 17.066407-34.132812 8.535157-85.332031 8.535157-85.332031h290.132812s-8.535156 51.199219 8.53125 85.332031c10.257813 19.898438 11.253907 43.300782 2.730469 64zm0 0" fill="#783e22"/><path d="m311.894531 337.070312v.085938l-10.75 52.734375-260.183593-29.4375c-25.429688-19.796875-30.546876-57.003906-15.359376-87.382813 17.066407-34.132812 8.535157-85.332031 8.535157-85.332031h266.496093s-8.535156 51.199219 8.53125 85.332031c10.257813 19.898438 11.253907 43.300782 2.730469 64zm0 0" fill="#a0522d"/><path d="m349.867188 401.070312v85.332032c-.027344 9.414062-7.652344 17.039062-17.066407 17.066406h-307.199219c-9.414062-.027344-17.039062-7.652344-17.066406-17.066406v-51.199219c.023438-47.316406 32.429688-88.46875 78.421875-99.582031h184.492188c19.328125 4.660156 36.867187 14.898437 50.429687 29.4375zm0 0" fill="#549414"/><path d="m326.230469 401.070312v85.332032c-.027344 9.414062-7.652344 17.039062-17.066407 17.066406h-283.5625c-9.414062-.027344-17.039062-7.652344-17.066406-17.066406v-51.199219c.023438-47.316406 32.429688-88.46875 78.421875-99.582031h160.851563c19.332031 4.660156 36.867187 14.898437 50.433594 29.4375zm0 0" fill="#60a917"/><path d="m153.601562 332.804688v21.332031l-14.25-21.332031zm0 0" fill="#527f72"/><path d="m219.054688 332.804688-14.253907 21.332031v-21.332031zm0 0" fill="#527f72"/><path d="m204.800781 287.832031v66.304688l-25.597656 38.398437-25.601563-38.398437v-66.304688zm0 0" fill="#ffe0b2"/><path d="m503.46875 339.628906-18.175781 75.523438c-4.90625 20.328125-16.25 38.523437-32.339844 51.878906l-43.351563 36.4375-11.773437-9.898438-31.574219-26.539062c-16.09375-13.355469-27.4375-31.550781-32.34375-51.878906l-18.175781-75.523438c30.125 0 64.511719-20.394531 82.09375-32.339844 7.335937-5.121093 11.773437-8.617187 11.773437-8.617187s51.199219 40.957031 93.867188 40.957031zm0 0" fill="#707070"/><path d="m479.832031 339.628906-18.175781 75.523438c-4.90625 20.328125-16.25 38.523437-32.34375 51.878906l-31.484375 26.539062-31.574219-26.539062c-16.09375-13.355469-27.4375-31.550781-32.34375-51.878906l-18.175781-75.523438c30.125 0 64.511719-20.394531 82.09375-32.339844 17.660156 12.03125 51.964844 32.339844 82.003906 32.339844zm0 0" fill="#9e9e9e"/><path d="m344.835938 131.503906c3.238281-3.164062 5.058593-7.503906 5.03125-12.035156-.027344-9.414062-7.652344-17.039062-17.066407-17.066406h-16.808593c-21.390626-56.886719-76.015626-94.371094-136.789063-93.867188-60.773437-.503906-115.402344 36.980469-136.789063 93.867188h-16.8125c-4.527343-.023438-8.871093 1.792968-12.03125 5.035156-3.242187 3.164062-5.058593 7.503906-5.035156 12.03125.027344 9.414062 7.652344 17.039062 17.066406 17.066406h9.132813c-.429687 4.269532-.597656 8.535156-.597656 12.800782v4.269531c0 3.410156 0 7.59375.085937 8.53125h-.085937c-9.398438.070312-17 7.667969-17.066407 17.066406.027344 9.414063 7.652344 17.039063 17.066407 17.066406h19.539062c11.777344 53.589844 63.488281 93.867188 125.527344 93.867188 62.121094 0 113.75-40.277344 125.523437-93.867188h19.542969c9.414063-.027343 17.039063-7.652343 17.066407-17.066406-.070313-9.398437-7.667969-16.996094-17.066407-17.066406h-.085937c.085937-.9375.085937-5.121094.085937-8.53125v-4.269531c0-4.265626-.171875-8.53125-.597656-12.800782h9.128906c4.527344.027344 8.871094-1.792968 12.035157-5.03125zm0 0" fill="#fdd7ad"/><path d="m307.203125 173.144531c-.011719 4.050781-.242187 8.09375-.683594 12.117188-.425781 3.671875-1.023437 7.339843-1.792969 10.921875v.085937c-11.773437 53.589844-63.402343 93.867188-125.523437 93.867188-4.011719 0-7.9375-.171875-11.777344-.425781-56.746093-4.777344-102.742187-43.265626-113.75-93.441407-.765625-3.667969-1.363281-7.253906-1.789062-11.007812-.445313-4.023438-.671875-8.066407-.683594-12.117188-.019531-3.675781.179687-7.351562.597656-11.007812.253907-2.816407.679688-5.71875 1.195313-8.53125 0-.257813.082031-.429688.082031-.683594.769531-3.753906 1.707031-7.425781 2.816406-11.09375v-.085937c.683594-1.621094 1.453125-3.328126 2.304688-5.207032h242.003906c.855469 1.878906 1.625 3.585938 2.304687 5.207032v.085937c1.109376 3.667969 2.050782 7.339844 2.816407 11.09375 0 .253906.085937.425781.085937.683594.511719 2.8125.9375 5.714843 1.195313 8.53125.414062 3.65625.613281 7.332031.597656 11.007812zm0 0" fill="#dfc49c"/><path d="m283.566406 173.144531c-.015625 4.050781-.242187 8.09375-.683594 12.117188-.425781 3.671875-1.023437 7.339843-1.792968 10.921875v.085937c-11.007813 50.175781-56.917969 88.664063-113.664063 93.441407-56.746093-4.777344-102.742187-43.265626-113.75-93.441407-.765625-3.667969-1.363281-7.253906-1.789062-11.007812-.445313-4.023438-.671875-8.066407-.683594-12.117188-.019531-3.675781.179687-7.351562.597656-11.007812.253907-2.816407.679688-5.71875 1.195313-8.53125 0-.257813.082031-.429688.082031-.683594.769531-3.753906 1.707031-7.425781 2.816406-11.09375v-.085937c.683594-1.621094 1.453125-3.328126 2.304688-5.207032h218.367187c.855469 1.878906 1.621094 3.585938 2.304688 5.207032v.085937c1.109375 3.667969 2.046875 7.339844 2.816406 11.09375 0 .253906.085938.425781.085938.683594.511718 2.8125.9375 5.714843 1.195312 8.53125.414062 3.65625.613281 7.332031.597656 11.007812zm0 0" fill="#ffe0b2"/><path d="m53.675781 196.269531h-19.539062c-9.414063-.027343-17.039063-7.652343-17.066407-17.066406.066407-9.398437 7.667969-16.996094 17.066407-17.066406h17.664062c-.417969 3.65625-.617187 7.332031-.597656 11.007812.011719 4.050781.238281 8.09375.683594 12.117188.425781 3.753906 1.023437 7.339843 1.789062 11.007812zm0 0" fill="#ffe0b2"/><path d="m341.335938 179.203125c-.027344 9.414063-7.652344 17.039063-17.066407 17.066406h-19.542969v-.085937c.769532-3.582032 1.367188-7.25 1.792969-10.921875.441407-4.023438.671875-8.066407.683594-12.117188.019531-3.675781-.179687-7.351562-.597656-11.007812h17.664062c9.398438.070312 16.996094 7.667969 17.066407 17.066406zm0 0" fill="#dfc49c"/><path d="m324.269531 149.335938v4.269531c0 3.410156 0 7.59375-.085937 8.53125h-17.578125c-.257813-2.816407-.683594-5.71875-1.195313-8.53125 0-.257813-.085937-.429688-.085937-.683594-.765625-3.753906-1.707031-7.425781-2.816407-11.09375v-.085937c-.679687-1.621094-1.449218-3.328126-2.304687-5.207032h23.46875c.425781 4.269532.597656 8.535156.597656 12.800782zm0 0" fill="#91562d"/><path d="m315.992188 102.402344h-273.578126c19.800782-52.847656 68.554688-89.335938 124.839844-93.4375h.257813c3.839843-.257813 7.765625-.429688 11.691406-.429688 60.773437-.503906 115.398437 36.980469 136.789063 93.867188zm0 0" fill="#549414"/><path d="m292.355469 102.402344h-249.941407c19.800782-52.847656 68.554688-89.335938 124.839844-93.4375h.257813c56.289062 4.101562 105.039062 40.589844 124.84375 93.4375zm0 0" fill="#60a917"/><path d="m58.199219 136.535156c-.851563 1.878906-1.621094 3.585938-2.304688 5.207032v.085937c-1.109375 3.667969-2.046875 7.339844-2.816406 11.09375 0 .253906-.082031.425781-.082031.683594-.515625 2.8125-.941406 5.714843-1.195313 8.53125h-17.578125c-.085937-.9375-.085937-5.121094-.085937-8.53125v-4.269531c0-4.265626.167969-8.53125.597656-12.800782zm0 0" fill="#91562d"/><path d="m349.867188 119.46875c-.066407 9.398438-7.667969 17-17.066407 17.066406h-307.199219c-9.414062-.027344-17.039062-7.652344-17.066406-17.066406-.023437-4.527344 1.792969-8.867188 5.035156-12.03125 3.160157-3.242188 7.503907-5.058594 12.03125-5.035156h307.199219c9.414063.027344 17.039063 7.652344 17.066407 17.066406zm0 0" fill="#00695c"/><g fill="#009688"><path d="m326.230469 119.46875c-.066407 9.398438-7.667969 17-17.066407 17.066406h-283.5625c-9.414062-.027344-17.039062-7.652344-17.066406-17.066406-.023437-4.527344 1.792969-8.867188 5.035156-12.03125 3.160157-3.242188 7.503907-5.058594 12.03125-5.035156h283.5625c9.414063.027344 17.039063 7.652344 17.066407 17.066406zm0 0"/><path d="m179.203125 392.535156-26.367187 32.960938c-1.757813 2.195312-4.484376 3.382812-7.289063 3.179687-2.808594-.207031-5.332031-1.78125-6.746094-4.210937l-48.480469-83.117188c-1.25-2.144531-1.507812-4.726562-.699218-7.074218.804687-2.347657 2.597656-4.226563 4.902344-5.148438l27.078124-10.828125c3.75-1.488281 8.03125-.132813 10.242188 3.242187l7.507812 11.265626 14.25 21.332031zm0 0"/><path d="m268.082031 341.351562-48.480469 83.113282c-1.414062 2.429687-3.9375 4.007812-6.746093 4.210937-2.804688.207031-5.53125-.980469-7.285157-3.179687l-26.367187-32.960938 25.597656-38.398437 14.253907-21.332031 7.507812-11.265626c2.210938-3.375 6.488281-4.730468 10.238281-3.242187l27.082031 10.832031c2.304688.921875 4.09375 2.800782 4.898438 5.148438.808594 2.347656.550781 4.929687-.699219 7.074218zm0 0"/></g><path d="m179.203125 298.671875c-70.183594 0-128.5625-48.355469-135.796875-112.476563-1.304688-11.589843-.875-23.308593 1.28125-34.769531.878906-4.351562 1.894531-8.402343 3.046875-12.175781 1.375-4.507812 6.144531-7.046875 10.652344-5.671875 4.507812 1.378906 7.046875 6.148437 5.671875 10.65625-1.03125 3.371094-1.902344 6.894531-2.613282 10.414063-1.832031 9.78125-2.191406 19.78125-1.074218 29.667968 6.25 55.445313 57.34375 97.289063 118.832031 97.289063s112.578125-41.84375 118.835937-97.328125c1.121094-9.925782.746094-19.96875-1.109374-29.785156-.683594-3.363282-1.546876-6.886719-2.578126-10.257813-.890624-2.917969-.15625-6.085937 1.921876-8.316406 2.082031-2.226563 5.191406-3.179688 8.164062-2.492188 2.96875.6875 5.347656 2.90625 6.238281 5.824219 1.152344 3.773438 2.167969 7.820312 3.011719 12.015625 1.34375 7.210937 2.027344 14.53125 2.046875 21.867187-.007813 4.351563-.25 8.699219-.730469 13.023438-7.238281 64.160156-65.617187 112.515625-135.800781 112.515625zm0 0"/><path d="m51.886719 204.804688h-17.75c-14.132813-.015626-25.585938-11.46875-25.601563-25.601563.066406-14.109375 11.488282-25.535156 25.601563-25.597656h17.664062c4.710938 0 8.53125 3.820312 8.53125 8.53125 0 4.714843-3.820312 8.535156-8.53125 8.535156h-17.578125c-2.257812-.039063-4.429687.847656-6.011718 2.457031-1.671876 1.578125-2.613282 3.777344-2.609376 6.074219.007813 4.710937 3.824219 8.527344 8.535157 8.535156h17.75c4.710937 0 8.53125 3.820313 8.53125 8.53125 0 4.714844-3.820313 8.535157-8.53125 8.535157zm0 0"/><path d="m324.269531 204.804688h-17.75c-4.710937 0-8.535156-3.820313-8.535156-8.535157 0-4.710937 3.824219-8.53125 8.535156-8.53125h17.75c4.710938-.007812 8.527344-3.824219 8.53125-8.535156.023438-2.226563-.867187-4.367187-2.457031-5.925781-1.578125-1.667969-3.777344-2.613282-6.074219-2.605469h-17.664062c-4.714844 0-8.535157-3.820313-8.535157-8.535156 0-4.710938 3.820313-8.53125 8.535157-8.53125h17.578125c14.144531.015625 25.617187 11.453125 25.683594 25.597656-.015626 14.132813-11.464844 25.585937-25.597657 25.601563zm0 0"/><path d="m34.207031 170.640625c-4.511719.007813-8.246093-3.507813-8.507812-8.011719-.085938-1.507812-.097657-11.871094-.097657-13.292968 0-4.875.207032-9.335938.636719-13.644532.269531-3.0625 2.160157-5.746094 4.957031-7.023437 2.796876-1.277344 6.0625-.949219 8.550782.851562 2.492187 1.804688 3.816406 4.808594 3.476562 7.863281-.386718 3.972657-.570312 7.960938-.554687 11.953126 0 1.304687-.007813 10.738281.070312 12.324218.230469 4.699219-3.371093 8.703125-8.070312 8.96875-.152344.007813-.308594.011719-.460938.011719zm0 0"/><path d="m324.195312 170.671875c-.171874 0-.332031 0-.5-.015625-4.703124-.269531-8.296874-4.296875-8.03125-9 .078126-1.601562.070313-11.015625.070313-12.320312.015625-3.992188-.167969-7.980469-.550781-11.953126-.40625-4.652343 3.003906-8.769531 7.652344-9.230468 4.648437-.464844 8.804687 2.898437 9.328124 7.539062.425782 4.308594.636719 8.769532.636719 13.644532 0 1.421874-.011719 11.785156-.097656 13.292968-.257813 4.511719-3.992187 8.039063-8.507813 8.042969zm0 0"/><path d="m315.992188 110.941406c-3.589844-.003906-6.792969-2.246094-8.023438-5.621094-20.195312-53.484374-71.59375-88.710937-128.765625-88.25-57.171875-.460937-108.570313 34.765626-128.769531 88.25-1.609375 4.429688-6.507813 6.714844-10.9375 5.105469-4.429688-1.613281-6.714844-6.507812-5.105469-10.9375 22.664063-60.222656 80.46875-99.933593 144.8125-99.48437475 64.34375-.44921825 122.144531 39.26171875 144.808594 99.48437475.949219 2.617188.5625 5.53125-1.03125 7.8125-1.597657 2.277344-4.207031 3.636719-6.988281 3.640625zm0 0"/><path d="m55.894531 150.316406c-2.257812.011719-4.425781-.878906-6.027343-2.472656-1.601563-1.59375-2.503907-3.757812-2.503907-6.015625v-.085937c0-1.136719.226563-2.265626.667969-3.316407.710938-1.683593 1.511719-3.453125 2.390625-5.402343 1.941406-4.296876 6.996094-6.203126 11.292969-4.261719 4.292968 1.945312 6.199218 7 4.257812 11.292969-.777344 1.714843-1.484375 3.277343-2.113281 4.761718-1.261719 3.304688-4.429687 5.488282-7.964844 5.5zm0 0"/><path d="m302.507812 150.316406c-3.695312.011719-6.976562-2.359375-8.125-5.871094-.585937-1.375-1.242187-2.820312-1.953124-4.390624-1.941407-4.296876-.035157-9.351563 4.257812-11.292969 4.292969-1.941407 9.351562-.035157 11.292969 4.257812.882812 1.949219 1.683593 3.722657 2.386719 5.40625 1.113281 2.636719.832031 5.660157-.75 8.046875-1.578126 2.390625-4.246094 3.832032-7.109376 3.84375zm0 0"/><path d="m153.601562 362.671875c-4.710937 0-8.53125-3.820313-8.53125-8.535156v-66.304688c0-4.710937 3.820313-8.53125 8.53125-8.53125 4.714844 0 8.535157 3.820313 8.535157 8.53125v66.304688c0 4.714843-3.820313 8.535156-8.535157 8.535156zm0 0"/><path d="m204.800781 362.671875c-4.710937 0-8.53125-3.820313-8.53125-8.535156v-66.304688c0-4.710937 3.820313-8.53125 8.53125-8.53125 4.714844 0 8.535157 3.820313 8.535157 8.53125v66.304688c0 4.714843-3.820313 8.535156-8.535157 8.535156zm0 0"/><path d="m153.601562 341.335938h-14.25c-4.710937 0-8.535156-3.820313-8.535156-8.53125 0-4.714844 3.824219-8.535157 8.535156-8.535157h14.25c4.714844 0 8.535157 3.820313 8.535157 8.535157 0 4.710937-3.820313 8.53125-8.535157 8.53125zm0 0"/><path d="m219.054688 341.335938h-14.253907c-4.710937 0-8.53125-3.820313-8.53125-8.53125 0-4.714844 3.820313-8.535157 8.53125-8.535157h14.253907c4.710937 0 8.53125 3.820313 8.53125 8.535157 0 4.710937-3.820313 8.53125-8.53125 8.53125zm0 0"/><path d="m332.800781 512.003906h-307.199219c-14.132812-.015625-25.5820308-11.46875-25.59765575-25.601562v-51.199219c-.12500025-51.308594 35.04687475-95.96875 84.95312475-107.878906 2.964844-.722657 6.09375.195312 8.195313 2.40625 2.105468 2.210937 2.871094 5.378906 2.003906 8.308593-.867188 2.925782-3.230469 5.167969-6.199219 5.875-42.230469 10.082032-71.992187 47.871094-71.886719 91.289063v51.199219c.003907 4.710937 3.820313 8.527344 8.53125 8.535156h307.199219c4.710938-.007812 8.527344-3.824219 8.535157-8.535156v-36.777344c0-4.710938 3.820312-8.535156 8.53125-8.535156 4.714843 0 8.535156 3.824218 8.535156 8.535156v36.777344c-.015625 14.132812-11.46875 25.585937-25.601563 25.601562zm0 0"/><path d="m321.878906 373.59375c-2.363281.003906-4.625-.980469-6.238281-2.710938-12.398437-13.339843-28.464844-22.71875-46.179687-26.964843-4.582032-1.09375-7.410157-5.699219-6.316407-10.28125 1.097657-4.585938 5.703125-7.414063 10.285157-6.316407 20.972656 5.023438 39.996093 16.125 54.6875 31.914063 2.320312 2.484375 2.945312 6.109375 1.589843 9.226563-1.351562 3.117187-4.429687 5.132812-7.828125 5.132812zm0 0"/><path d="m332.800781 145.070312h-307.199219c-14.136718 0-25.59765575-11.460937-25.59765575-25.601562 0-14.136719 11.46093775-25.597656 25.59765575-25.597656h307.199219c14.140625 0 25.601563 11.460937 25.601563 25.597656 0 14.140625-11.460938 25.601562-25.601563 25.601562zm-307.199219-34.132812c-4.710937 0-8.53125 3.820312-8.53125 8.53125 0 4.714844 3.820313 8.535156 8.53125 8.535156h307.199219c4.714844 0 8.535157-3.820312 8.535157-8.535156 0-4.710938-3.820313-8.53125-8.535157-8.53125zm0 0"/><path d="m179.203125 85.335938c-.917969 0-1.832031-.148438-2.699219-.4375l-25.601562-8.53125c-4.472656-1.492188-6.886719-6.324219-5.394532-10.796876 1.488282-4.472656 6.324219-6.886718 10.792969-5.394531l22.902344 7.632813 22.898437-7.632813c4.472657-1.492187 9.304688.921875 10.796876 5.394531 1.492187 4.472657-.925782 9.304688-5.394532 10.796876l-25.601562 8.53125c-.871094.289062-1.78125.4375-2.699219.4375zm0 0"/><path d="m179.203125 59.738281c-.917969 0-1.832031-.148437-2.699219-.4375l-25.601562-8.535156c-4.472656-1.492187-6.886719-6.324219-5.394532-10.796875 1.488282-4.46875 6.324219-6.886719 10.792969-5.394531l22.902344 7.632812 22.898437-7.632812c4.472657-1.492188 9.304688.925781 10.796876 5.394531 1.492187 4.472656-.925782 9.304688-5.394532 10.796875l-25.601562 8.535156c-.871094.289063-1.78125.4375-2.699219.4375zm0 0"/><path d="m145.070312 443.738281c-.210937 0-.417968-.007812-.625-.027343-2.804687-.203126-5.328124-1.777344-6.746093-4.207032l-59.734375-102.398437c-1.253906-2.144531-1.507813-4.730469-.699219-7.078125.804687-2.347656 2.59375-4.226563 4.898437-5.148438l36.238282-14.496094c7.496094-2.96875 16.046875-.308593 20.542968 6.382813l47.359376 71.039063c2.058593 3.089843 1.882812 7.160156-.4375 10.0625l-34.132813 42.664062c-1.621094 2.027344-4.074219 3.207031-6.664063 3.207031zm-47.375-106.683593 48.476563 83.105468 22.46875-28.082031-43.894531-65.84375zm0 0"/><path d="m213.335938 443.738281c-2.59375 0-5.042969-1.179687-6.664063-3.207031l-34.132813-42.664062c-2.320312-2.902344-2.496093-6.972657-.4375-10.0625l47.359376-71.039063c4.496093-6.695313 13.046874-9.351563 20.542968-6.378906l36.238282 14.492187c2.304687.921875 4.09375 2.800782 4.898437 5.148438.808594 2.347656.550781 4.933594-.699219 7.078125l-59.734375 102.398437c-1.417969 2.429688-3.941406 4.003906-6.746093 4.207032-.207032.019531-.417969.027343-.625.027343zm-23.570313-51.660156 22.464844 28.082031 48.480469-83.113281-27.050782-10.816406zm0 0"/><path d="m179.203125 512.003906c-4.714844 0-8.535156-3.820312-8.535156-8.535156v-110.933594c0-4.710937 3.820312-8.53125 8.535156-8.53125 4.710937 0 8.53125 3.820313 8.53125 8.53125v110.933594c0 4.714844-3.820313 8.535156-8.53125 8.535156zm0 0"/><path d="m102.402344 460.804688h-51.199219c-4.714844 0-8.535156-3.820313-8.535156-8.535157 0-4.710937 3.820312-8.53125 8.535156-8.53125h51.199219c4.710937 0 8.53125 3.820313 8.53125 8.53125 0 4.714844-3.820313 8.535157-8.53125 8.535157zm0 0"/><path d="m409.601562 512.003906c-2.007812 0-3.949218-.707031-5.488281-2l-43.359375-36.425781c-17.492187-14.523437-29.824218-34.3125-35.160156-56.414063l-18.15625-75.539062c-.613281-2.542969-.023438-5.222656 1.59375-7.277344 1.621094-2.054687 4.089844-3.25 6.703125-3.25 39.222656 0 88.046875-38.695312 88.539063-39.089844 3.117187-2.480468 7.539062-2.480468 10.65625 0 .488281.390626 49.410156 39.09375 88.539062 39.09375 2.613281 0 5.085938 1.199219 6.703125 3.25 1.617187 2.054688 2.203125 4.738282 1.59375 7.277344l-18.160156 75.542969c-5.335938 22.101563-17.667969 41.886719-35.15625 56.414063l-43.363281 36.421874c-1.535157 1.292969-3.476563 1.996094-5.484376 1.996094zm-83.207031-164.554687 15.792969 65.726562c4.492188 18.546875 14.851562 35.148438 29.539062 47.335938l37.875 31.8125 37.875-31.8125c14.6875-12.1875 25.046876-28.789063 29.539063-47.335938l15.796875-65.726562c-34.3125-4.429688-69.9375-28.359375-83.210938-38.074219-13.269531 9.714844-48.894531 33.644531-83.207031 38.074219zm0 0"/><path d="m435.195312 375.46875c-1.683593.003906-3.328124-.496094-4.726562-1.433594l-20.867188-13.910156-20.867187 13.910156c-2.535156 1.722656-5.800781 1.953125-8.554687.605469-2.753907-1.351563-4.570313-4.078125-4.761719-7.140625-.1875-3.058594 1.285156-5.988281 3.851562-7.664062l25.597657-17.066407c2.867187-1.910156 6.601562-1.910156 9.46875 0l25.601562 17.066407c3.128906 2.085937 4.527344 5.976562 3.433594 9.578124-1.09375 3.601563-4.414063 6.0625-8.175782 6.054688zm0 0"/><path d="m435.195312 409.605469c-1.683593 0-3.328124-.5-4.726562-1.433594l-20.867188-13.914063-20.867187 13.910157c-2.535156 1.722656-5.800781 1.957031-8.554687.605469-2.753907-1.351563-4.570313-4.078126-4.761719-7.140626-.1875-3.058593 1.285156-5.988281 3.851562-7.664062l25.597657-17.066406c2.867187-1.910156 6.601562-1.910156 9.46875 0l25.601562 17.066406c3.128906 2.085938 4.527344 5.976562 3.433594 9.578125s-4.414063 6.0625-8.175782 6.058594zm0 0"/><path d="m435.195312 443.738281c-1.683593 0-3.328124-.5-4.726562-1.433593l-20.867188-13.914063-20.867187 13.910156c-2.535156 1.726563-5.800781 1.957031-8.554687.605469-2.753907-1.351562-4.570313-4.078125-4.761719-7.136719-.1875-3.0625 1.285156-5.988281 3.851562-7.667969l25.597657-17.066406c2.867187-1.910156 6.601562-1.910156 9.46875 0l25.601562 17.066406c3.128906 2.085938 4.527344 5.976563 3.433594 9.578126-1.09375 3.601562-4.414063 6.0625-8.175782 6.058593zm0 0"/><path d="m40.957031 368.984375c-1.898437.003906-3.742187-.632813-5.238281-1.800781-27.824219-21.660156-35.289062-62.847656-17.75-97.929688 15.507812-31.011718 7.875-70.921875 7.796875-71.320312-.921875-4.621094 2.078125-9.117188 6.699219-10.039063s9.117187 2.078125 10.039062 6.699219c.367188 1.863281 8.898438 45.960938-9.269531 82.292969-13.914063 27.832031-8.460937 60.144531 12.972656 76.832031 2.875 2.242188 4.011719 6.0625 2.824219 9.507812-1.183594 3.449219-4.425781 5.761719-8.070312 5.761719zm0 0"/><path d="m335.53125 345.644531c-2.257812.011719-4.425781-.878906-6.027344-2.472656-1.601562-1.59375-2.503906-3.757813-2.503906-6.019531v-.082032c0-1.183593.246094-2.355468.726562-3.441406 7.5-18.378906 6.566407-39.125-2.5625-56.753906-18.160156-36.316406-9.632812-80.417969-9.257812-82.28125.921875-4.621094 5.414062-7.621094 10.039062-6.699219 4.621094.921875 7.621094 5.417969 6.699219 10.039063-.078125.398437-7.714843 40.308594 7.796875 71.320312 11.320313 22.085938 12.421875 48.019532 3.019532 70.988282-1.285157 3.253906-4.429688 5.394531-7.929688 5.402343zm0 0"/></svg>