<svg height="512pt" viewBox="0 0 512 512.00002" width="512pt" xmlns="http://www.w3.org/2000/svg"><path d="m332.800781 503.464844h-307.199219c-9.414062-.027344-17.039062-7.652344-17.066406-17.066406v-8.53125c-.015625-46.699219 31.578125-87.492188 76.796875-99.15625v73.554687h34.132813v-76.800781h119.46875v76.800781h34.132812v-73.554687c16.902344 4.363281 32.410156 12.96875 45.054688 25zm0 0" fill="#ef314c"/><path d="m153.601562 330.496094h51.199219v70.570312h-51.199219zm0 0" fill="#ffe0b2"/><path d="m85.332031 452.265625h187.734375c4.714844 0 8.535156 3.820313 8.535156 8.535156v42.664063h-204.800781v-42.664063c0-4.714843 3.820313-8.535156 8.53125-8.535156zm0 0" fill="#f5f5f5"/><path d="m119.464844 375.464844v76.800781h-34.132813v-73.554687c8.359375-2.171876 16.964844-3.261719 25.601563-3.246094zm0 0" fill="#9e9e9e"/><path d="m273.066406 378.710938v73.554687h-34.132812v-76.800781h8.53125c8.636718-.007813 17.242187 1.082031 25.601562 3.246094zm0 0" fill="#9e9e9e"/><path d="m324.265625 401.066406h170.667969c4.710937 0 8.53125 3.820313 8.53125 8.535156v85.332032c0 4.710937-3.820313 8.53125-8.53125 8.53125h-170.667969c-4.710937 0-8.53125-3.820313-8.53125-8.53125v-85.332032c0-4.714843 3.820313-8.535156 8.53125-8.535156zm0 0" fill="#707070"/><path d="m324.265625 401.066406h147.03125c4.710937 0 8.53125 3.820313 8.53125 8.535156v85.332032c0 4.710937-3.820313 8.53125-8.53125 8.53125h-147.03125c-4.710937 0-8.53125-3.820313-8.53125-8.53125v-85.332032c0-4.714843 3.820313-8.535156 8.53125-8.535156zm0 0" fill="#9e9e9e"/><path d="m486.398438 358.398438v42.667968h-85.332032v-42.667968c.015625-4.707032 3.828125-8.519532 8.535156-8.53125h68.265626c4.707031.011718 8.519531 3.824218 8.53125 8.53125zm0 0" fill="#545c60"/><path d="m462.761719 358.398438v42.667968h-61.695313v-42.667968c.015625-4.707032 3.828125-8.519532 8.535156-8.53125h44.628907c4.707031.011718 8.519531 3.824218 8.53125 8.53125zm0 0" fill="#7f8e94"/><path d="m443.734375 281.601562h34.132813c4.710937 0 8.53125 3.820313 8.53125 8.53125v17.066407c0 4.714843-3.820313 8.535156-8.53125 8.535156h-34.132813c-4.714844 0-8.535156-3.820313-8.535156-8.535156v-17.066407c0-4.710937 3.820312-8.53125 8.535156-8.53125zm0 0" fill="#02a9f4"/><path d="m336.296875 209.835938c-3.160156-3.242188-7.503906-5.058594-12.03125-5.035157h-.085937c.085937-1.453125.085937-11.433593.085937-12.800781-.179687-46.277344-23.328125-89.445312-61.78125-115.199219h2.050781l-13.824218-55.382812c-1.894532-7.59375-8.730469-12.914063-16.554688-12.882813h-109.910156c-7.828125-.03125-14.664063 5.289063-16.554688 12.882813l-13.824218 55.382812h2.046874c-38.449218 25.753907-61.601562 68.921875-61.78125 115.199219 0 1.367188 0 11.347656.085938 12.800781h-.085938c-9.398437.066407-17 7.667969-17.066406 17.066407.027344 9.414062 7.652344 17.039062 17.066406 17.066406h19.542969c11.773438 53.589844 63.488281 93.867187 125.523438 93.867187 62.039062 0 113.75-40.277343 125.527343-93.867187h19.539063c9.414063-.027344 17.039063-7.652344 17.066406-17.066406.023438-4.527344-1.792969-8.871094-5.035156-12.03125zm0 0" fill="#af8066"/><path d="m53.675781 238.933594h-19.542969c-9.414062-.027344-17.039062-7.652344-17.066406-17.066406.066406-9.398438 7.667969-17 17.066406-17.066407h17.664063c-.414063 3.652344-.617187 7.328125-.597656 11.007813.011719 4.046875.242187 8.09375.683593 12.117187.425782 3.753907 1.023438 7.339844 1.792969 11.007813zm0 0" fill="#ffe0b2"/><path d="m307.199219 215.808594c-.011719 4.046875-.238281 8.09375-.683594 12.117187-.425781 3.753907-1.023437 7.339844-1.789063 11.007813-11.777343 53.589844-63.488281 93.867187-125.527343 93.867187-4.011719 0-7.933594-.171875-11.773438-.425781-56.75-4.78125-102.742187-43.265625-113.75-93.441406-.769531-3.667969-1.367187-7.253906-1.792969-11.007813-.441406-4.023437-.671874-8.070312-.683593-12.117187-.019531-3.679688.183593-7.355469.597656-11.007813.257813-3.074219.769531-6.144531 1.28125-9.214843.765625-3.757813 1.707031-7.425782 2.816406-11.09375v-.085938c9.128907-20.90625 31.65625-63.0625 67.582031-71 15.027344-2.957031 30.617188-.347656 43.863282 7.339844h.085937c4.066407 2.175781 8 4.597656 11.773438 7.253906 9.5625-7.046875 20.492187-12.015625 32.085937-14.59375 49.835938-10.238281 80.300782 45.824219 91.222656 71v.085938c1.109376 3.667968 2.046876 7.335937 2.816407 11.09375.511719 3.070312 1.023437 6.140624 1.277343 9.214843.417969 3.652344.617188 7.328125.597657 11.007813zm0 0" fill="#dfc49c"/><path d="m283.5625 215.808594c-.011719 4.046875-.238281 8.09375-.683594 12.117187-.425781 3.753907-1.023437 7.339844-1.789062 11.007813-11.011719 50.175781-57.003906 88.660156-113.664063 93.441406-56.75-4.78125-102.742187-43.265625-113.75-93.441406-.769531-3.667969-1.367187-7.253906-1.792969-11.007813-.441406-4.023437-.671874-8.070312-.683593-12.117187-.019531-3.679688.183593-7.355469.597656-11.007813.257813-3.074219.769531-6.144531 1.28125-9.214843.765625-3.757813 1.707031-7.425782 2.816406-11.09375v-.085938c9.128907-20.90625 31.65625-63.0625 67.582031-71 11.597657 2.578125 22.523438 7.546875 32.085938 14.59375 3.773438-2.65625 7.707031-5.078125 11.777344-7.253906h.085937c4.066407 2.175781 8 4.597656 11.773438 7.253906 9.5625-7.046875 20.492187-12.015625 32.085937-14.59375 36.011719 7.9375 58.453125 50.09375 67.585938 71v.085938c1.109375 3.667968 2.046875 7.335937 2.8125 11.09375.515625 3.070312 1.027344 6.140624 1.28125 9.214843.417968 3.652344.617187 7.328125.597656 11.007813zm0 0" fill="#ffe0b2"/><path d="m341.332031 221.867188c-.027343 9.414062-7.652343 17.039062-17.066406 17.066406h-19.539063c.765626-3.667969 1.363282-7.253906 1.789063-11.007813.445313-4.023437.671875-8.070312.683594-12.117187.019531-3.679688-.179688-7.355469-.597657-11.007813h17.664063c9.398437.066407 17 7.667969 17.066406 17.066407zm0 0" fill="#dfc49c"/><path d="m324.265625 192c0 1.367188 0 11.347656-.085937 12.800781h-17.578126c-.253906-3.074219-.765624-6.144531-1.277343-9.214843-.769531-3.757813-1.707031-7.425782-2.816407-11.09375v-.085938c-13.140624-30.207031-54.273437-104.703125-123.308593-56.40625-69.035157-48.296875-110.164063 26.199219-123.304688 56.40625v.085938c-1.109375 3.667968-2.050781 7.335937-2.816406 11.09375-.511719 3.070312-1.023437 6.140624-1.28125 9.214843h-17.578125c-.085938-1.453125-.085938-11.433593-.085938-12.800781.179688-46.277344 23.332032-89.445312 61.78125-115.199219h166.570313c38.453125 25.753907 61.601563 68.921875 61.78125 115.199219zm0 0" fill="#91562d"/><path d="m324.265625 192c0 1.367188 0 11.347656-.085937 12.800781h-17.578126c-.253906-3.074219-.765624-6.144531-1.277343-9.214843-.769531-3.757813-1.707031-7.425782-2.816407-11.09375v-.085938c-.769531-1.792969-1.621093-3.671875-2.5625-5.71875-4.167968-41.367188-26.566406-78.722656-61.097656-101.886719h23.636719c38.453125 25.753907 61.601563 68.921875 61.78125 115.199219zm0 0" fill="#6d4122"/><path d="m264.535156 76.800781h-170.667968l13.824218-55.382812c1.890625-7.59375 8.726563-12.914063 16.554688-12.882813h109.910156c7.824219-.03125 14.660156 5.289063 16.554688 12.882813zm0 0" fill="#ef314c"/><path d="m240.894531 76.800781h-147.027343l13.824218-55.382812c1.890625-7.59375 8.726563-12.914063 16.554688-12.882813h86.269531c7.828125-.03125 14.664063 5.289063 16.554687 12.882813zm0 0" fill="#ef314c"/><path d="m179.199219 341.332031c-70.183594 0-128.5625-48.351562-135.796875-112.472656-1.304688-11.589844-.871094-23.308594 1.28125-34.773437.878906-4.351563 1.894531-8.398438 3.046875-12.171876 1.375-4.507812 6.144531-7.046874 10.652343-5.671874 4.507813 1.375 7.046876 6.144531 5.671876 10.652343-1.027344 3.371094-1.898438 6.898438-2.613282 10.417969-1.828125 9.78125-2.191406 19.777344-1.074218 29.667969 6.253906 55.445312 57.34375 97.285156 118.832031 97.285156s112.582031-41.839844 118.839843-97.324219c1.117188-9.929687.746094-19.96875-1.109374-29.789062-.683594-3.359375-1.550782-6.886719-2.578126-10.257813-1.378906-4.507812 1.160157-9.277343 5.667969-10.652343 4.507813-1.375 9.277344 1.164062 10.65625 5.671874 1.148438 3.773438 2.164063 7.820313 3.011719 12.015626 1.339844 7.210937 2.027344 14.53125 2.046875 21.867187-.007813 4.351563-.253906 8.699219-.734375 13.023437-7.238281 64.160157-65.617188 112.511719-135.800781 112.511719zm0 0"/><path d="m51.882812 247.464844h-17.75c-14.132812-.015625-25.582031-11.464844-25.597656-25.597656.0625-14.113282 11.488282-25.535157 25.597656-25.601563h17.664063c4.714844 0 8.535156 3.820313 8.535156 8.535156 0 4.710938-3.820312 8.53125-8.535156 8.53125h-17.578125c-2.253906-.035156-4.425781.851563-6.007812 2.460938-1.671876 1.578125-2.617188 3.773437-2.609376 6.074219.003907 4.710937 3.820313 8.527343 8.53125 8.53125h17.75c4.710938 0 8.53125 3.820312 8.53125 8.535156 0 4.710937-3.820312 8.53125-8.53125 8.53125zm0 0"/><path d="m324.265625 247.464844h-17.75c-4.710937 0-8.53125-3.820313-8.53125-8.53125 0-4.714844 3.820313-8.535156 8.53125-8.535156h17.75c4.710937-.003907 8.527344-3.820313 8.535156-8.53125.019531-2.226563-.867187-4.367188-2.460937-5.925782-1.578125-1.671875-3.773438-2.613281-6.074219-2.609375h-17.664063c-4.710937 0-8.53125-3.820312-8.53125-8.53125 0-4.714843 3.820313-8.535156 8.53125-8.535156h17.578126c14.144531.019531 25.621093 11.457031 25.6875 25.601563-.015626 14.132812-11.46875 25.582031-25.601563 25.597656zm0 0"/><path d="m34.203125 213.304688c-4.511719.007812-8.246094-3.507813-8.507813-8.011719-.082031-1.507813-.09375-11.871094-.09375-13.292969.234376-49.089844 24.773438-94.871094 65.515626-122.253906 3.894531-2.578125 9.136718-1.546875 11.765624 2.3125 2.625 3.863281 1.660157 9.121094-2.167968 11.796875-36.066406 24.207031-57.808594 64.707031-58.046875 108.144531 0 1.304688-.011719 10.738281.070312 12.324219.230469 4.699219-3.375 8.703125-8.070312 8.96875-.15625.007812-.308594.011719-.464844.011719zm0 0"/><path d="m324.191406 213.332031c-.171875 0-.328125 0-.5-.011719-4.699218-.269531-8.292968-4.296874-8.027344-9 .078126-1.601562.070313-11.015624.070313-12.320312-.242187-43.4375-21.980469-83.9375-58.050781-108.144531-2.5625-1.699219-4.015625-4.644531-3.800782-7.710938.210938-3.066406 2.058594-5.78125 4.835938-7.105469 2.773438-1.324218 6.046875-1.054687 8.566406.707032 40.742188 27.382812 65.277344 73.164062 65.515625 122.253906 0 1.421875-.011719 11.785156-.097656 13.292969-.257813 4.511719-3.992187 8.035156-8.511719 8.039062zm0 0"/><path d="m55.894531 192.984375c-2.261719.007813-4.429687-.882813-6.03125-2.476563-1.601562-1.59375-2.5-3.757812-2.503906-6.015624 0-1.199219.242187-2.386719.707031-3.492188 10.242188-23.539062 32.929688-64.574219 69.863282-74.996094 21.148437-5.953125 43.40625-.914062 66.164062 15.003906 3.785156 2.730469 4.679688 7.992188 2.003906 11.816407-2.675781 3.824219-7.925781 4.789062-11.789062 2.167969-18.351563-12.847657-35.777344-17.050782-51.738282-12.5625-31.132812 8.78125-51.371093 48.269531-58.742187 65.128906-1.285156 3.261718-4.429687 5.414062-7.933594 5.425781zm0 0"/><path d="m302.507812 192.984375c-3.667968.007813-6.929687-2.328125-8.101562-5.804687-7.5-17.066407-27.675781-56.027344-58.574219-64.75-15.957031-4.488282-33.382812-.28125-51.742187 12.5625-2.496094 1.796874-5.769532 2.113281-8.5625.824218-2.792969-1.289062-4.675782-3.980468-4.929688-7.046875-.253906-3.066406 1.164063-6.03125 3.710938-7.761719 22.75-15.914062 45-20.949218 66.160156-15.003906 36.933594 10.421875 59.625 51.457032 69.863281 74.996094 1.148438 2.644531.886719 5.6875-.6875 8.097656-1.574219 2.414063-4.257812 3.875-7.136719 3.886719zm0 0"/><path d="m153.601562 409.601562c-4.714843 0-8.535156-3.820312-8.535156-8.535156v-70.570312c0-4.714844 3.820313-8.535156 8.535156-8.535156 4.710938 0 8.53125 3.820312 8.53125 8.535156v70.570312c0 4.714844-3.820312 8.535156-8.53125 8.535156zm0 0"/><path d="m204.800781 409.601562c-4.714843 0-8.535156-3.820312-8.535156-8.535156v-70.570312c0-4.714844 3.820313-8.535156 8.535156-8.535156 4.710938 0 8.53125 3.820312 8.53125 8.535156v70.570312c0 4.714844-3.820312 8.535156-8.53125 8.535156zm0 0"/><path d="m332.800781 512h-307.199219c-14.132812-.015625-25.585937-11.46875-25.601562-25.601562v-8.53125c.0664062-61.238282 49.695312-110.867188 110.933594-110.933594h42.667968c4.710938 0 8.53125 3.820312 8.53125 8.53125 0 4.714844-3.820312 8.535156-8.53125 8.535156h-42.667968c-51.816406.058594-93.808594 42.050781-93.867188 93.867188v8.53125c.007813 4.710937 3.824219 8.527343 8.535156 8.535156h307.199219c4.710938 0 8.53125 3.820312 8.53125 8.53125 0 4.714844-3.820312 8.535156-8.53125 8.535156zm0 0"/><path d="m318.121094 412.246094c-2.191406.003906-4.300782-.84375-5.886719-2.359375-17.4375-16.664063-40.644531-25.941407-64.769531-25.886719h-42.664063c-4.714843 0-8.535156-3.820312-8.535156-8.535156 0-4.710938 3.820313-8.53125 8.535156-8.53125h42.664063c28.511718-.066406 55.941406 10.902344 76.546875 30.605468 2.523437 2.40625 3.328125 6.105469 2.03125 9.34375-1.296875 3.238282-4.433594 5.363282-7.921875 5.363282zm0 0"/><path d="m264.535156 85.332031h-170.667968c-2.628907 0-5.109376-1.210937-6.726563-3.28125-1.617187-2.070312-2.1875-4.773437-1.550781-7.320312l13.832031-55.339844c2.839844-11.402344 13.085937-19.4023438 24.835937-19.390625h109.882813c11.753906-.0117188 22 7.988281 24.839844 19.390625l13.832031 55.339844c.636719 2.546875.0625 5.25-1.554688 7.320312-1.617187 2.070313-4.097656 3.28125-6.722656 3.28125zm-159.738281-17.066406h148.808594l-11.183594-44.730469c-.945313-3.804687-4.363281-6.472656-8.28125-6.46875h-109.882813c-3.917968-.003906-7.332031 2.664063-8.277343 6.46875zm0 0"/><path d="m281.601562 512h-204.800781c-4.714843 0-8.535156-3.820312-8.535156-8.535156v-42.664063c.011719-9.421875 7.644531-17.058593 17.066406-17.066406h187.734375c9.421875.007813 17.058594 7.644531 17.066406 17.066406v42.664063c0 4.714844-3.820312 8.535156-8.53125 8.535156zm-196.269531-17.066406h187.734375v-34.132813h-187.734375zm0 0"/><path d="m119.464844 460.800781h-34.132813c-4.710937 0-8.53125-3.820312-8.53125-8.535156v-73.554687c0-4.714844 3.820313-8.535157 8.53125-8.535157 4.714844 0 8.535157 3.820313 8.535157 8.535157v65.023437h17.066406v-59.734375c-4.714844 0-8.535156-3.820312-8.535156-8.535156 0-4.710938 3.820312-8.53125 8.535156-8.53125h8.53125c4.714844 0 8.535156 3.820312 8.535156 8.53125v76.800781c0 4.714844-3.820312 8.535156-8.535156 8.535156zm0 0"/><path d="m273.066406 460.800781h-34.132812c-4.714844 0-8.535156-3.820312-8.535156-8.535156v-76.800781c0-4.710938 3.820312-8.53125 8.535156-8.53125h8.53125c4.714844 0 8.535156 3.820312 8.535156 8.53125 0 4.714844-3.820312 8.535156-8.535156 8.535156v59.734375h17.070312v-65.023437c0-4.714844 3.820313-8.535157 8.53125-8.535157 4.714844 0 8.535156 3.820313 8.535156 8.535157v73.554687c0 4.714844-3.820312 8.535156-8.535156 8.535156zm0 0"/><path d="m494.933594 512h-170.667969c-9.421875-.007812-17.054687-7.644531-17.066406-17.066406v-85.332032c.011719-9.421874 7.644531-17.058593 17.066406-17.066406h170.667969c9.421875.007813 17.058594 7.644532 17.066406 17.066406v85.332032c-.007812 9.421875-7.644531 17.058594-17.066406 17.066406zm-170.667969-102.398438h-.011719l.011719 85.332032h170.667969v-85.332032zm0 0"/><path d="m486.398438 409.601562h-85.332032c-4.710937 0-8.53125-3.820312-8.53125-8.535156v-42.667968c.007813-9.421876 7.644532-17.054688 17.066406-17.066407h68.265626c9.421874.011719 17.058593 7.644531 17.066406 17.066407v42.667968c0 4.714844-3.820313 8.535156-8.535156 8.535156zm-76.796876-17.066406h68.265626v-34.136718h-68.265626zm0 0"/><path d="m477.867188 324.265625h-34.132813c-9.421875-.007813-17.058594-7.644531-17.066406-17.066406v-17.066407c.007812-9.421874 7.644531-17.058593 17.066406-17.066406h34.132813c9.421874.007813 17.058593 7.644532 17.066406 17.066406v17.066407c-.007813 9.421875-7.644532 17.058593-17.066406 17.066406zm-34.132813-34.132813v17.066407h34.144531l-.011718-17.066407zm0 0"/><path d="m460.800781 358.398438c-4.714843 0-8.535156-3.820313-8.535156-8.53125v-34.132813c0-4.714844 3.820313-8.535156 8.535156-8.535156 4.710938 0 8.53125 3.820312 8.53125 8.535156v34.132813c0 4.710937-3.820312 8.53125-8.53125 8.53125zm0 0"/><path d="m503.464844 477.867188h-85.332032c-4.710937 0-8.53125-3.820313-8.53125-8.535157 0-4.710937 3.820313-8.53125 8.53125-8.53125h85.332032c4.714844 0 8.535156 3.820313 8.535156 8.53125 0 4.714844-3.820312 8.535157-8.535156 8.535157zm0 0"/><path d="m375.464844 477.867188h-59.730469c-4.714844 0-8.535156-3.820313-8.535156-8.535157 0-4.710937 3.820312-8.53125 8.535156-8.53125h59.730469c4.714844 0 8.535156 3.820313 8.535156 8.53125 0 4.714844-3.820312 8.535157-8.535156 8.535157zm0 0"/></svg>