<svg height="512pt" viewBox="0 0 512.1163 512" width="512pt" xmlns="http://www.w3.org/2000/svg"><path d="m247.464844 332.871094h-42.664063v-44.972656h-51.199219v44.972656h-42.667968c-27.160156-.007813-53.210938 10.777344-72.417969 29.984375-19.203125 19.203125-29.988281 45.253906-29.980469 72.414062v51.203125c.027344 9.414063 7.652344 17.035156 17.066406 17.066406h307.199219l8.875-108.546874c-16.128906-37.707032-53.199219-62.152344-94.210937-62.121094zm0 0" fill="#ecf0f1"/><path d="m204.800781 287.898438v64.683593c-19.03125 54.273438-25.601562 150.957031-25.601562 150.957031s-6.570313-96.683593-25.597657-150.957031v-64.683593zm0 0" fill="#ffe0b2"/><path d="m336.296875 167.238281c-3.160156-3.242187-7.503906-5.058593-12.03125-5.035156h-.085937c.085937-1.449219.085937-11.433594.085937-12.800781-1.199219-78.929688-66.132813-141.953125-145.066406-140.796875-78.929688-1.15625-143.867188 61.867187-145.066407 140.796875 0 1.367187 0 11.351562.085938 12.800781h-.085938c-9.398437.070313-17 7.671875-17.066406 17.066406.027344 9.414063 7.652344 17.039063 17.066406 17.066407h19.542969c11.773438 53.589843 63.488281 93.867187 125.523438 93.867187 62.039062 0 113.75-40.277344 125.527343-93.867187h19.539063c9.414063-.027344 17.039063-7.652344 17.066406-17.066407.023438-4.527343-1.792969-8.871093-5.035156-12.03125zm0 0" fill="#af8066"/><path d="m307.199219 173.210938c-.011719 4.050781-.238281 8.09375-.683594 12.117187-.425781 3.757813-1.023437 7.339844-1.789063 11.007813-11.777343 53.589843-63.488281 93.867187-125.527343 93.867187-4.011719 0-7.933594-.167969-11.773438-.425781-56.75-4.777344-102.742187-43.265625-113.75-93.441406-.769531-3.667969-1.367187-7.25-1.792969-11.007813-.441406-4.023437-.671874-8.066406-.683593-12.117187-.019531-3.675782.183593-7.351563.597656-11.007813.257813-3.070313.769531-6.144531 1.28125-9.214844.765625-3.753906 1.707031-7.425781 2.816406-11.09375v-.085937c9.128907-20.90625 31.65625-63.058594 67.582031-70.996094 15.027344-2.960938 30.617188-.351562 43.863282 7.339844h.085937c4.066407 2.171875 8 4.597656 11.773438 7.25 9.5625-7.046875 20.492187-12.015625 32.085937-14.589844 49.835938-10.242188 80.300782 45.824219 91.222656 70.996094v.085937c1.109376 3.667969 2.046876 7.339844 2.816407 11.09375.511719 3.070313 1.023437 6.144531 1.277343 9.214844.417969 3.65625.617188 7.332031.597657 11.007813zm0 0" fill="#dfc49c"/><path d="m283.5625 173.210938c-.011719 4.050781-.238281 8.09375-.683594 12.117187-.425781 3.757813-1.023437 7.339844-1.789062 11.007813-11.011719 50.175781-57.003906 88.664062-113.664063 93.441406-56.75-4.777344-102.742187-43.265625-113.75-93.441406-.769531-3.667969-1.367187-7.25-1.792969-11.007813-.441406-4.023437-.671874-8.066406-.683593-12.117187-.019531-3.675782.183593-7.351563.597656-11.007813.257813-3.070313.769531-6.144531 1.28125-9.214844.765625-3.753906 1.707031-7.425781 2.816406-11.09375v-.085937c9.128907-20.90625 31.65625-63.058594 67.582031-70.996094 11.597657 2.574219 22.523438 7.542969 32.085938 14.589844 3.773438-2.652344 7.707031-5.078125 11.777344-7.25h.085937c4.066407 2.171875 8 4.597656 11.773438 7.25 9.5625-7.046875 20.492187-12.015625 32.085937-14.589844 36.011719 7.9375 58.453125 50.089844 67.585938 70.996094v.085937c1.109375 3.667969 2.046875 7.339844 2.8125 11.09375.515625 3.070313 1.027344 6.144531 1.28125 9.214844.417968 3.65625.617187 7.332031.597656 11.007813zm0 0" fill="#ffe0b2"/><path d="m53.675781 196.335938h-19.542969c-9.414062-.027344-17.039062-7.652344-17.066406-17.066407.066406-9.394531 7.667969-16.996093 17.066406-17.066406h17.664063c-.414063 3.65625-.617187 7.332031-.597656 11.007813.011719 4.050781.242187 8.09375.683593 12.117187.425782 3.757813 1.023438 7.339844 1.792969 11.007813zm0 0" fill="#ffe0b2"/><path d="m341.332031 179.269531c-.027343 9.414063-7.652343 17.039063-17.066406 17.066407h-19.539063c.765626-3.667969 1.363282-7.25 1.789063-11.007813.445313-4.023437.671875-8.066406.683594-12.117187.019531-3.675782-.179688-7.351563-.597657-11.007813h17.664063c9.398437.070313 17 7.671875 17.066406 17.066406zm0 0" fill="#dfc49c"/><path d="m324.265625 149.402344c0 1.367187 0 11.351562-.085937 12.800781h-17.578126c-.253906-3.070313-.765624-6.144531-1.277343-9.214844-.769531-3.753906-1.707031-7.425781-2.816407-11.09375v-.085937c-13.140624-30.207032-54.273437-104.703125-123.308593-56.40625-69.035157-48.296875-110.164063 26.199218-123.304688 56.40625v.085937c-1.109375 3.667969-2.050781 7.339844-2.816406 11.09375-.511719 3.070313-1.023437 6.144531-1.28125 9.214844h-17.578125c-.085938-1.449219-.085938-11.433594-.085938-12.800781 1.199219-78.929688 66.136719-141.953125 145.066407-140.796875 78.933593-1.15625 143.867187 61.867187 145.066406 140.796875zm0 0" fill="#91562d"/><path d="m324.265625 149.402344c0 1.367187 0 11.351562-.085937 12.800781h-17.578126c-.253906-3.070313-.765624-6.144531-1.277343-9.214844-.769531-3.753906-1.707031-7.425781-2.816407-11.09375v-.085937c-.769531-1.792969-1.621093-3.667969-2.5625-5.714844-7.566406-68.882812-63.464843-122.402344-132.605468-126.976562 3.925781-.34375 7.847656-.511719 11.859375-.511719 78.933593-1.15625 143.867187 61.867187 145.066406 140.796875zm0 0" fill="#6d4122"/><path d="m153.601562 332.871094v19.710937c-2.265624-6.804687-5.121093-13.402343-8.535156-19.710937zm0 0" fill="#95a5a5"/><path d="m213.332031 332.871094c-3.414062 6.308594-6.269531 12.90625-8.53125 19.710937v-19.710937zm0 0" fill="#95a5a5"/><path d="m179.199219 503.539062h-153.597657c-9.414062-.03125-17.039062-7.652343-17.066406-17.066406v-51.203125c-.007812-27.160156 10.777344-53.210937 29.980469-72.414062 19.207031-19.207031 45.257813-29.992188 72.417969-29.984375h34.132812c-31.425781 1.171875-57.046875 25.585937-59.734375 56.917968 0 0 34.132813 0 42.667969 11.347657-17.464844 9.460937-29.929688 26.070312-34.132812 45.484375 0 0 59.734374 22.78125 85.332031 56.917968zm0 0" fill="#f5f5f5"/><path d="m341.675781 394.992188-8.875 108.546874h-153.601562c25.601562-34.136718 85.335937-56.917968 85.335937-56.917968-4.207031-19.414063-16.671875-36.023438-34.136718-45.484375 8.535156-11.347657 42.667968-11.347657 42.667968-11.347657-2.6875-31.332031-28.308594-55.746093-59.734375-56.917968h34.132813c41.011718-.03125 78.082031 24.414062 94.210937 62.121094zm0 0" fill="#f5f5f5"/><path d="m264.535156 446.621094s-59.734375 22.78125-85.335937 56.917968c0 0 6.570312-96.683593 25.601562-150.957031 2.261719-6.804687 5.117188-13.402343 8.53125-19.710937 31.425781 1.171875 57.046875 25.585937 59.734375 56.917968 0 0-34.132812 0-42.667968 11.347657 17.464843 9.460937 29.929687 26.070312 34.136718 45.484375zm0 0" fill="#9e9e9e"/><path d="m460.800781 386.546875v-53.675781h-34.132812v53.675781c-20.4375 6.089844-36.078125 22.609375-41.046875 43.347656l1.367187 3.242188 25.085938 61.269531c9.464843 6.003906 20.453125 9.171875 31.660156 9.132812 29.660156-.003906 54.828125-21.769531 59.109375-51.121093 4.28125-29.347657-13.621094-57.394531-42.042969-65.871094zm0 0" fill="#67b9cc"/><path d="m503.464844 443.804688c.011718 15.84375-6.277344 31.046874-17.480469 42.25-11.207031 11.203124-26.40625 17.496093-42.25 17.484374-11.207031.039063-22.195313-3.128906-31.660156-9.132812l-25.085938-61.269531c14.699219-8.101563 31.90625-10.386719 48.210938-6.398438 34.132812 8.53125 34.132812 25.597657 68.265625 17.066407zm0 0" fill="#ffdc00"/><path d="m503.464844 443.804688c-8.761719 2.792968-18.140625 3.058593-27.050782.765624-11.601562-3.582031-19.539062-12.371093-41.214843-17.832031-9.03125-2.183593-18.414063-2.476562-27.5625-.855469h-.253907c-7.1875 1.148438-14.101562 3.605469-20.394531 7.253907l-1.367187-3.242188c.335937-1.503906.765625-2.984375 1.28125-4.4375 6.027344-18.734375 20.90625-33.289062 39.765625-38.910156v-53.675781h34.132812v53.675781c25.328125 7.539063 42.683594 30.832031 42.664063 57.257813zm0 0" fill="#0377bc"/><path d="m479.828125 443.804688c-1.195313.253906-2.304687.597656-3.414063.765624-11.601562-3.582031-19.539062-12.371093-41.214843-17.832031-9.03125-2.183593-18.414063-2.476562-27.5625-.855469h-.253907c-6.765624-1.199218-13.675781-1.34375-20.480468-.425781 6.027344-18.734375 20.90625-33.289062 39.765625-38.910156v-53.675781h10.496093v53.675781c25.324219 7.539063 42.683594 30.832031 42.664063 57.257813zm0 0" fill="#02a9f4"/><path d="m412.5 461.980469-11.261719-13.484375-25.429687-30.292969v-76.800781h-34.132813v76.800781l-31.914062 37.460937-5.378907 6.316407c-6.152343 7.675781-7.355468 18.199219-3.097656 27.0625 4.261719 8.867187 13.230469 14.503906 23.066406 14.496093h68.097657c9.839843.015626 18.820312-5.609374 23.097656-14.472656 4.273437-8.863281 3.09375-19.394531-3.046875-27.085937zm0 0" fill="#67b9cc"/><path d="m392.449219 503.539062h-68.097657c-9.835937.007813-18.804687-5.628906-23.066406-14.496093-4.257812-8.863281-3.054687-19.386719 3.097656-27.0625l5.378907-6.316407c11.199219 6.949219 24.617187 9.386719 37.546875 6.828126 25.511718-4.4375 38.996094-12.03125 53.929687-13.996094l11.261719 13.484375c6.140625 7.691406 7.320312 18.222656 3.046875 27.085937-4.277344 8.863282-13.257813 14.488282-23.097656 14.472656zm0 0" fill="#9d27b0"/><g fill="#02a9f4"><path d="m401.238281 448.496094c-14.933593 1.964844-28.417969 9.558594-53.929687 13.996094-12.929688 2.558593-26.347656.121093-37.546875-6.828126l31.914062-37.460937v-76.800781h34.132813v76.800781zm0 0"/><path d="m93.867188 145.136719h59.734374c4.710938 0 8.53125 3.820312 8.53125 8.535156v8.53125c0 18.851563-15.28125 34.132813-34.132812 34.132813h-8.535156c-18.847656 0-34.132813-15.28125-34.132813-34.132813v-8.53125c0-4.714844 3.820313-8.535156 8.535157-8.535156zm0 0"/><path d="m204.800781 145.136719h59.734375c4.710938 0 8.53125 3.820312 8.53125 8.535156v8.53125c0 18.851563-15.28125 34.132813-34.132812 34.132813h-8.535156c-18.851563 0-34.132813-15.28125-34.132813-34.132813v-8.53125c0-4.714844 3.820313-8.535156 8.535156-8.535156zm0 0"/></g><path d="m162.132812 159.472656v2.730469c.003907 9.054687-3.59375 17.738281-9.996093 24.140625-6.398438 6.402344-15.082031 9.996094-24.136719 9.992188h-8.535156c-5.15625.050781-10.25-1.152344-14.847656-3.496094 10.878906-21.527344 33.429687-34.609375 57.515624-33.367188zm0 0" fill="#0377bc"/><path d="m273.066406 159.984375v2.21875c.003906 9.054687-3.59375 17.738281-9.996094 24.140625-6.398437 6.402344-15.082031 9.996094-24.136718 9.992188h-8.535156c-7.550782.03125-14.886719-2.496094-20.820313-7.167969 9.644531-15.785157 28.332031-32.425781 63.488281-29.183594zm0 0" fill="#0377bc"/><path d="m179.199219 503.539062c-25.597657-34.136718-85.332031-56.917968-85.332031-56.917968 4.203124-19.414063 16.667968-36.023438 34.132812-45.484375-8.535156-11.347657-42.667969-11.347657-42.667969-11.347657 2.6875-31.332031 28.308594-55.746093 59.734375-56.917968 3.414063 6.308594 6.269532 12.90625 8.535156 19.710937 19.027344 54.273438 25.597657 150.957031 25.597657 150.957031zm0 0" fill="#9e9e9e"/><path d="m503.464844 443.804688c.011718 15.84375-6.277344 31.046874-17.480469 42.25-11.207031 11.203124-26.40625 17.496093-42.25 17.484374-3.898437-.003906-7.789063-.40625-11.605469-1.195312 27.179688-5.585938 46.917969-29.179688 47.613282-56.917969 7.929687 1.261719 16.042968.710938 23.722656-1.621093zm0 0" fill="#fec108"/><path d="m179.199219 298.738281c-70.183594 0-128.5625-48.355469-135.796875-112.476562-1.304688-11.589844-.871094-23.308594 1.28125-34.769531.878906-4.351563 1.894531-8.398438 3.046875-12.175782 1.375-4.507812 6.144531-7.046875 10.652343-5.671875 4.507813 1.378907 7.046876 6.148438 5.671876 10.65625-1.027344 3.371094-1.898438 6.894531-2.613282 10.417969-1.828125 9.777344-2.191406 19.777344-1.074218 29.664062 6.253906 55.445313 57.34375 97.289063 118.832031 97.289063s112.582031-41.84375 118.839843-97.328125c1.117188-9.925781.746094-19.96875-1.109374-29.785156-.683594-3.363282-1.550782-6.886719-2.578126-10.257813-.890624-2.917969-.160156-6.085937 1.921876-8.316406 2.078124-2.226563 5.191406-3.175781 8.160156-2.492187 2.972656.6875 5.351562 2.910156 6.242187 5.824218 1.148438 3.777344 2.164063 7.820313 3.011719 12.015625 1.339844 7.214844 2.027344 14.53125 2.046875 21.867188-.007813 4.351562-.253906 8.699219-.734375 13.023437-7.238281 64.160156-65.617188 112.515625-135.800781 112.515625zm0 0"/><path d="m51.882812 204.871094h-17.75c-14.132812-.015625-25.582031-11.46875-25.597656-25.601563.0625-14.109375 11.488282-25.53125 25.597656-25.597656h17.664063c4.714844 0 8.535156 3.820313 8.535156 8.53125 0 4.714844-3.820312 8.535156-8.535156 8.535156h-17.578125c-2.253906-.039062-4.425781.851563-6.007812 2.457031-1.671876 1.578126-2.617188 3.777344-2.609376 6.074219.003907 4.710938 3.820313 8.527344 8.53125 8.535157h17.75c4.710938 0 8.53125 3.820312 8.53125 8.53125 0 4.714843-3.820312 8.535156-8.53125 8.535156zm0 0"/><path d="m324.265625 204.871094h-17.75c-4.710937 0-8.53125-3.820313-8.53125-8.535156 0-4.710938 3.820313-8.53125 8.53125-8.53125h17.75c4.710937-.007813 8.527344-3.824219 8.535156-8.535157.019531-2.226562-.867187-4.367187-2.460937-5.921875-1.578125-1.671875-3.773438-2.617187-6.074219-2.609375h-17.664063c-4.710937 0-8.53125-3.820312-8.53125-8.535156 0-4.710937 3.820313-8.53125 8.53125-8.53125h17.578126c14.144531.019531 25.621093 11.453125 25.6875 25.597656-.015626 14.132813-11.46875 25.585938-25.601563 25.601563zm0 0"/><path d="m324.191406 170.738281c-.171875 0-.328125 0-.5-.011719-4.699218-.273437-8.292968-4.300781-8.027344-9.003906.078126-1.601562.070313-11.015625.070313-12.320312-1.28125-74.179688-62.347656-133.339844-136.535156-132.265625-74.183594-1.074219-135.253907 58.085937-136.53125 132.265625 0 1.304687-.011719 10.738281.070312 12.328125.171875 3.042969-1.292969 5.949219-3.84375 7.621093-2.550781 1.671876-5.796875 1.855469-8.519531.480469-2.722656-1.371093-4.507812-4.09375-4.679688-7.136719-.082031-1.507812-.09375-11.871093-.09375-13.292968 1.289063-83.601563 69.988282-150.398438 153.597657-149.3320315 83.609375-1.0664065 152.3125 65.7304685 153.601562 149.3320315 0 1.421875-.011719 11.785156-.097656 13.292968-.257813 4.511719-3.992187 8.039063-8.511719 8.042969zm0 0"/><path d="m55.894531 150.386719c-2.261719.007812-4.429687-.878907-6.03125-2.472657-1.601562-1.59375-2.5-3.757812-2.503906-6.019531 0-1.199219.242187-2.386719.707031-3.492187 10.242188-23.535156 32.929688-64.574219 69.863282-74.992188 21.15625-5.960937 43.410156-.910156 66.164062 15.003906 3.785156 2.726563 4.679688 7.992188 2.003906 11.816407-2.675781 3.820312-7.925781 4.789062-11.789062 2.164062-18.355469-12.839843-35.773438-17.046875-51.738282-12.5625-31.132812 8.785157-51.371093 48.273438-58.742187 65.128907-1.285156 3.265624-4.429687 5.414062-7.933594 5.425781zm0 0"/><path d="m302.507812 150.386719c-3.667968.011719-6.929687-2.328125-8.101562-5.800781-7.5-17.066407-27.675781-56.03125-58.574219-64.75-15.957031-4.488282-33.378906-.28125-51.742187 12.558593-2.496094 1.800781-5.769532 2.113281-8.5625.828125-2.792969-1.289062-4.675782-3.984375-4.929688-7.050781s1.164063-6.03125 3.710938-7.757813c22.75-15.914062 45.007812-20.953124 66.160156-15.003906 36.933594 10.421875 59.625 51.457032 69.863281 74.996094 1.148438 2.640625.886719 5.683594-.6875 8.097656-1.574219 2.410156-4.257812 3.871094-7.136719 3.882813zm0 0"/><path d="m153.601562 361.117188c-4.714843 0-8.535156-3.820313-8.535156-8.535157v-64.683593c0-4.710938 3.820313-8.53125 8.535156-8.53125 4.710938 0 8.53125 3.820312 8.53125 8.53125v64.683593c0 2.265625-.898437 4.433594-2.5 6.035157-1.597656 1.601562-3.769531 2.5-6.03125 2.5zm0 0"/><path d="m204.800781 361.117188c-4.714843 0-8.535156-3.820313-8.535156-8.535157v-64.683593c0-4.710938 3.820313-8.53125 8.535156-8.53125 4.710938 0 8.53125 3.820312 8.53125 8.53125v64.683593c0 2.265625-.898437 4.433594-2.5 6.035157-1.597656 1.601562-3.769531 2.5-6.03125 2.5zm0 0"/><path d="m332.800781 512.070312h-307.199219c-14.132812-.015624-25.585937-11.46875-25.601562-25.597656v-51.203125c.0664062-61.238281 49.695312-110.863281 110.933594-110.933593h42.667968c4.710938 0 8.53125 3.820312 8.53125 8.535156 0 4.710937-3.820312 8.53125-8.53125 8.53125h-42.667968c-51.816406.058594-93.808594 42.050781-93.867188 93.867187v51.203125c.007813 4.707032 3.824219 8.523438 8.535156 8.53125h307.199219c4.710938 0 8.53125 3.820313 8.53125 8.535156 0 4.710938-3.820312 8.53125-8.53125 8.53125zm0 0"/><path d="m341.679688 403.527344c-3.417969 0-6.507813-2.039063-7.851563-5.183594-14.769531-34.574219-48.761719-56.988281-86.363281-56.941406h-42.664063c-4.714843 0-8.535156-3.820313-8.535156-8.53125 0-4.714844 3.820313-8.535156 8.535156-8.535156h42.664063c44.4375-.050782 84.609375 26.4375 102.058594 67.300781 1.125 2.636719.851562 5.660156-.726563 8.050781-1.578125 2.394531-4.25 3.835938-7.113281 3.84375zm0 0"/><path d="m179.199219 512.070312c-2.683594 0-5.214844-1.261718-6.824219-3.414062-23.847656-31.789062-80.972656-53.816406-81.546875-54.03125-4.039063-1.539062-6.289063-5.855469-5.242187-10.046875 3.953124-16.777344 13.191406-31.835937 26.359374-42.957031-8.695312-2.222656-17.636718-3.34375-26.613281-3.328125-2.480469-.003907-4.839843-1.085938-6.460937-2.96875-1.621094-1.882813-2.339844-4.375-1.972656-6.832031 7.609374-50.746094 47.917968-64.15625 68.167968-64.15625 3.082032 0 5.925782 1.664062 7.4375 4.351562 26.242188 46.65625 34.855469 169.082031 35.207032 174.273438.160156 2.355468-.664063 4.675781-2.277344 6.402343-1.613282 1.726563-3.871094 2.707031-6.234375 2.707031zm-74.921875-70.367187c23.132812 9.730469 44.777344 22.675781 64.292968 38.453125-3.644531-36.328125-12.332031-104.65625-28.457031-138.304688-21.617187 2.785157-39.269531 18.625-44.371093 39.816407 12.429687.996093 31.46875 4.195312 39.085937 14.347656 1.558594 2.078125 2.085937 4.753906 1.429687 7.269531-.652343 2.511719-2.417968 4.59375-4.789062 5.648438-12.886719 7.089844-22.601562 18.800781-27.191406 32.769531zm0 0"/><path d="m179.199219 512.070312c-2.363281 0-4.621094-.980468-6.234375-2.707031-1.613282-1.726562-2.4375-4.046875-2.277344-6.40625.355469-5.191406 8.964844-127.613281 35.207031-174.269531 1.511719-2.6875 4.355469-4.351562 7.4375-4.351562 20.25 0 60.558594 13.410156 68.171875 64.15625.367188 2.457031-.351562 4.949218-1.96875 6.832031-1.621094 1.882812-3.980468 2.964843-6.464844 2.96875-8.976562-.015625-17.917968 1.105469-26.617187 3.328125 13.164063 11.121094 22.40625 26.183594 26.359375 42.957031 1.042969 4.191406-1.203125 8.503906-5.238281 10.046875-.574219.21875-57.753907 22.308594-81.550781 54.035156-1.609376 2.148438-4.136719 3.410156-6.824219 3.410156zm39.109375-170.261718c-16.136719 33.636718-24.832032 102-28.480469 138.347656 19.515625-15.777344 41.160156-28.722656 64.292969-38.453125-4.59375-13.988281-14.332032-25.707031-27.242188-32.789063-2.34375-1.078124-4.082031-3.160156-4.722656-5.660156-.644531-2.503906-.121094-5.160156 1.417969-7.238281 7.617187-10.152344 26.660156-13.355469 39.089843-14.347656-4.960937-21.273438-22.675781-37.191407-44.355468-39.859375zm0 0"/><path d="m136.535156 477.9375h-85.335937c-4.710938 0-8.53125-3.820312-8.53125-8.535156 0-4.710938 3.820312-8.53125 8.53125-8.53125h85.335937c4.710938 0 8.53125 3.820312 8.53125 8.53125 0 4.714844-3.820312 8.535156-8.53125 8.535156zm0 0"/><path d="m443.734375 512.070312c-12.828125.03125-25.398437-3.597656-36.234375-10.457031-2.574219-1.636719-4.082031-4.519531-3.953125-7.566406s1.875-5.792969 4.578125-7.203125c2.699219-1.410156 5.953125-1.273438 8.523438.359375 8.101562 5.125 17.5 7.832031 27.085937 7.800781 25.421875-.003906 46.992187-18.65625 50.664063-43.8125 3.667968-25.15625-11.671876-49.199218-36.03125-56.464844-3.621094-1.078124-6.101563-4.40625-6.101563-8.179687v-45.144531h-17.066406v45.144531c0 3.773437-2.476563 7.101563-6.09375 8.179687-17.507813 5.230469-30.910157 19.378907-35.183594 37.144532-1.164063 4.5-5.714844 7.238281-10.238281 6.164062-4.519532-1.074218-7.351563-5.574218-6.363282-10.113281 5.15625-21.464844 20.355469-39.121094 40.8125-47.414063v-47.636718c0-4.714844 3.820313-8.535156 8.535157-8.535156h34.132812c4.710938 0 8.53125 3.820312 8.53125 8.535156v47.621094c30.292969 12.257812 47.652344 44.261718 41.410157 76.335937-6.238282 32.078125-34.332032 55.234375-67.007813 55.242187zm0 0"/><path d="m469.332031 341.402344h-51.199219c-4.710937 0-8.53125-3.820313-8.53125-8.53125 0-4.714844 3.820313-8.535156 8.53125-8.535156h51.199219c4.714844 0 8.535157 3.820312 8.535157 8.535156 0 4.710937-3.820313 8.53125-8.535157 8.53125zm0 0"/><path d="m392.484375 512.070312h-68.136719c-13.121094 0-25.082031-7.519531-30.765625-19.347656-5.683593-11.824218-4.085937-25.859375 4.109375-36.105468l35.425782-41.558594v-73.65625c0-4.710938 3.820312-8.53125 8.53125-8.53125h34.136718c4.710938 0 8.53125 3.820312 8.53125 8.53125v73.699218l34.695313 41.359376c8.277343 10.226562 9.941406 24.300781 4.277343 36.171874-5.664062 11.875-17.648437 19.4375-30.804687 19.4375zm-42.300781-162.132812v68.265625c0 2.03125-.726563 3.992187-2.042969 5.539063l-37.296875 43.742187c-3.984375 5.148437-4.691406 12.117187-1.824219 17.964844 2.871094 5.847656 8.8125 9.554687 15.328125 9.554687h68.136719c6.558594 0 12.542969-3.757812 15.382813-9.671875 2.84375-5.914062 2.046874-12.933593-2.054688-18.058593l-36.566406-43.585938c-1.289063-1.535156-1.996094-3.476562-1.996094-5.484375v-68.265625zm0 0"/><path d="m384.316406 349.9375h-51.199218c-4.714844 0-8.535157-3.820312-8.535157-8.535156 0-4.710938 3.820313-8.53125 8.535157-8.53125h51.199218c4.714844 0 8.535156 3.820312 8.535156 8.53125 0 4.714844-3.820312 8.535156-8.535156 8.535156zm0 0"/><path d="m487.046875 454.667969c-10-.222657-19.730469-3.300781-28.035156-8.871094-8.054688-4.839844-16.773438-8.472656-25.882813-10.78125-12.730468-3.773437-26.503906-.824219-36.570312 7.832031-2.308594 2.019532-5.519532 2.644532-8.417969 1.636719-2.894531-1.003906-5.03125-3.488281-5.589844-6.5-.558593-3.015625.539063-6.097656 2.882813-8.078125 14.277344-12.246094 33.730468-16.542969 51.835937-11.445312 10.574219 2.667968 20.703125 6.859374 30.070313 12.441406 9.886718 7.082031 22.640625 8.816406 34.054687 4.625 2.976563-.789063 6.144531.085937 8.292969 2.285156 2.152344 2.203125 2.949219 5.390625 2.089844 8.347656-.859375 2.953125-3.246094 5.214844-6.238282 5.921875-6.035156 1.613281-12.246093 2.480469-18.492187 2.585938zm0 0"/><path d="m337.066406 471.9375c-11.25.054688-22.285156-3.078125-31.828125-9.039062-2.667969-1.578126-4.269531-4.476563-4.183593-7.574219.082031-3.09375 1.839843-5.902344 4.585937-7.335938 2.75-1.429687 6.054687-1.261719 8.640625.445313 9.417969 5.824218 20.699219 7.847656 31.554688 5.652344 10.707031-1.949219 21.253906-4.695313 31.554687-8.210938 7.382813-2.640625 14.992187-4.59375 22.734375-5.84375 3.023438-.394531 6.027344.851562 7.882812 3.269531 1.855469 2.417969 2.28125 5.644531 1.113282 8.460938-1.167969 2.820312-3.75 4.800781-6.773438 5.195312-6.71875 1.136719-13.324218 2.867188-19.742187 5.167969-11.042969 3.765625-22.351563 6.695312-33.835938 8.773438-3.863281.683593-7.777343 1.03125-11.703125 1.039062zm0 0"/><path d="m128 204.871094h-8.535156c-23.550782-.027344-42.636719-19.113282-42.664063-42.667969v-8.53125c.007813-9.421875 7.644531-17.058594 17.066407-17.066406h59.734374c9.421876.007812 17.054688 7.644531 17.066407 17.066406v8.53125c-.027344 23.554687-19.117188 42.640625-42.667969 42.667969zm-34.132812-51.199219v8.53125c.015624 14.132813 11.46875 25.585937 25.597656 25.601563h8.535156c14.132812-.015626 25.585938-11.46875 25.601562-25.601563v-8.53125zm0 0"/><path d="m238.933594 204.871094h-8.535156c-23.550782-.027344-42.636719-19.113282-42.664063-42.667969v-8.53125c.007813-9.421875 7.644531-17.058594 17.066406-17.066406h59.734375c9.421875.007812 17.054688 7.644531 17.066406 17.066406v8.53125c-.03125 23.554687-19.117187 42.640625-42.667968 42.667969zm-34.132813-51.199219v8.53125c.015625 14.132813 11.46875 25.585937 25.597657 25.601563h8.535156c14.132812-.015626 25.585937-11.46875 25.601562-25.601563v-8.53125zm0 0"/><path d="m198.160156 156.988281c-2.113281.003907-4.148437-.78125-5.714844-2.199219-7.378906-7.042968-18.992187-7.042968-26.375 0-3.507812 3.066407-8.828124 2.753907-11.953124-.707031-3.125-3.457031-2.894532-8.785156.519531-11.960937 13.863281-12.941406 35.375-12.941406 49.238281 0 2.617188 2.367187 3.511719 6.101562 2.242188 9.394531-1.265626 3.296875-4.429688 5.472656-7.960938 5.472656zm0 0"/><path d="m51.96875 169.542969c-4.125.003906-7.660156-2.941407-8.402344-7-.742187-4.054688 1.523438-8.0625 5.378906-9.515625l36.269532-13.742188c2.867187-1.15625 6.136718-.667968 8.542968 1.269532 2.410157 1.941406 3.578126 5.03125 3.058594 8.078124-.519531 3.050782-2.644531 5.578126-5.5625 6.613282l-36.265625 13.738281c-.964843.367187-1.988281.558594-3.019531.558594zm0 0"/><path d="m306.433594 169.542969c-1.035156 0-2.058594-.191407-3.023438-.558594l-36.265625-13.738281c-2.914062-1.035156-5.042969-3.5625-5.5625-6.609375-.519531-3.050781.652344-6.140625 3.058594-8.082031 2.410156-1.9375 5.675781-2.421876 8.546875-1.265626l36.265625 13.738282c3.855469 1.457031 6.121094 5.460937 5.378906 9.515625-.742187 4.058593-4.277343 7.003906-8.398437 7zm0 0"/></svg>