<svg height="512pt" viewBox="0 0 512 512.01277" width="512pt" xmlns="http://www.w3.org/2000/svg"><path d="m336.304688 167.179688c-3.160157-3.242188-7.503907-5.058594-12.03125-5.035157h-.085938c.085938-1.449219.085938-11.433593.085938-12.796875-1.199219-78.933594-66.136719-141.957031-145.066407-140.800781-78.933593-1.15625-143.867187 61.867187-145.066406 140.800781 0 1.363282 0 11.347656.085937 12.796875h-.085937c-9.398437.070313-17 7.671875-17.066406 17.066407.027343 9.414062 7.652343 17.039062 17.066406 17.066406h19.539063c11.777343 53.589844 63.488281 93.867187 125.527343 93.867187 62.035157 0 113.75-40.277343 125.523438-93.867187h19.542969c9.414062-.027344 17.039062-7.652344 17.066406-17.066406.023437-4.527344-1.792969-8.867188-5.035156-12.03125zm0 0" fill="#af8066"/><path d="m317.445312 360.460938h-276.480468c-25.429688-19.796876-30.546875-57.003907-15.359375-87.382813 17.066406-34.132813 8.535156-85.332031 8.535156-85.332031h290.132813s-8.535157 51.199218 8.53125 85.332031c15.191406 30.378906 10.070312 67.585937-15.359376 87.382813zm0 0" fill="#783e22"/><path d="m293.808594 360.460938h-252.84375c-25.429688-19.796876-30.546875-57.003907-15.359375-87.382813 17.066406-34.132813 8.535156-85.332031 8.535156-85.332031h266.496094s-8.535157 51.199218 8.53125 85.332031c15.191406 30.378906 10.070312 67.585937-15.359375 87.382813zm0 0" fill="#a0522d"/><path d="m69.636719 115.554688c-.3125.464843-.597657.949218-.851563 1.449218h-.085937c.28125-.5.597656-.988281.9375-1.449218zm0 0" fill="#af8066"/><path d="m324.273438 149.347656c0 1.363282 0 11.347656-.085938 12.796875h-17.578125c-.257813-3.070312-.769531-6.144531-1.28125-9.214843-.765625-3.753907-1.707031-7.421876-2.816406-11.09375v-.085938c-3.585938-8.300781-7.75-16.339844-12.457031-24.0625-2.347657-2.777344-5.21875-5.070312-8.449219-6.742188-70.398438 5.886719-108.628907-20.566406-125.4375-37.714843-5.148438-1.851563-10.511719-3.027344-15.957031-3.5-7.851563 12.628906-27.222657 34.390625-71.425782 47.273437.253906-.5.539063-.984375.851563-1.449218-.339844.460937-.65625.949218-.9375 1.449218-4.820313 7.949219-9.097657 16.21875-12.800781 24.746094v.085938c-1.109376 3.671874-2.046876 7.339843-2.816407 11.09375-.511719 3.070312-1.023437 6.144531-1.277343 9.214843h-17.578126c-.085937-1.449219-.085937-11.433593-.085937-12.796875 1.199219-78.933594 66.132813-141.957031 145.066406-140.800781 78.929688-1.15625 143.867188 61.867187 145.066407 140.800781zm0 0" fill="#91562d"/><path d="m324.273438 149.347656c0 1.363282 0 11.347656-.085938 12.796875h-17.578125c-.257813-3.070312-.769531-6.144531-1.28125-9.214843-.765625-3.753907-1.707031-7.421876-2.816406-11.09375v-.085938c-.765625-1.707031-1.621094-3.582031-2.558594-5.628906-7.5625-68.898438-63.449219-122.449219-132.609375-127.0625 3.925781-.34375 7.851562-.511719 11.863281-.511719 78.929688-1.15625 143.867188 61.867187 145.066407 140.800781zm0 0" fill="#6d4122"/><path d="m69.636719 115.554688c-.3125.464843-.597657.949218-.851563 1.449218h-.085937c.28125-.5.597656-.988281.9375-1.449218zm0 0" fill="#af8066"/><path d="m247.472656 332.8125h-136.53125c-27.164062-.007812-53.210937 10.777344-72.417968 29.984375-19.203126 19.207031-29.992188 45.253906-29.984376 72.414063v51.203124c.027344 9.414063 7.652344 17.039063 17.066407 17.066407h307.199219l8.875-108.546875c-16.125-37.707032-53.195313-62.152344-94.207032-62.121094zm0 0" fill="#ecf0f1"/><path d="m204.804688 287.84375v64.679688c-19.027344 54.273437-25.597657 150.957031-25.597657 150.957031s-6.570312-96.683594-25.601562-150.957031v-64.679688zm0 0" fill="#ffe0b2"/><path d="m53.679688 196.277344h-19.539063c-9.414063-.027344-17.039063-7.652344-17.066406-17.066406.066406-9.394532 7.667969-16.996094 17.066406-17.066407h17.664063c-.417969 3.65625-.617188 7.332031-.597657 11.007813.011719 4.050781.238281 8.09375.683594 12.117187.425781 3.757813 1.023437 7.339844 1.789063 11.007813zm0 0" fill="#ffe0b2"/><path d="m341.339844 179.210938c-.027344 9.414062-7.652344 17.039062-17.066406 17.066406h-19.542969c.769531-3.667969 1.367187-7.25 1.792969-11.007813.441406-4.023437.671874-8.066406.683593-12.117187.019531-3.675782-.183593-7.351563-.597656-11.007813h17.664063c9.398437.070313 17 7.671875 17.066406 17.066407zm0 0" fill="#dfc49c"/><path d="m153.605469 332.8125v19.710938c-2.261719-6.804688-5.117188-13.402344-8.53125-19.710938zm0 0" fill="#95a5a5"/><path d="m213.339844 332.8125c-3.414063 6.308594-6.269532 12.90625-8.535156 19.710938v-19.710938zm0 0" fill="#95a5a5"/><path d="m179.207031 503.480469h-153.601562c-9.414063-.027344-17.039063-7.652344-17.066407-17.066407v-51.203124c-.007812-27.160157 10.78125-53.207032 29.984376-72.414063 19.207031-19.207031 45.253906-29.992187 72.417968-29.984375h34.132813c-31.425781 1.171875-57.046875 25.585938-59.734375 56.917969 0 0 34.132812 0 42.667968 11.347656-17.464843 9.460937-29.929687 26.070313-34.132812 45.484375 0 0 59.730469 22.785156 85.332031 56.917969zm0 0" fill="#f5f5f5"/><path d="m341.679688 394.933594-8.875 108.546875h-153.597657c25.597657-34.132813 85.332031-56.917969 85.332031-56.917969-4.203124-19.414062-16.667968-36.023438-34.132812-45.484375 8.535156-11.347656 42.667969-11.347656 42.667969-11.347656-2.6875-31.332031-28.308594-55.746094-59.734375-56.917969h34.132812c41.011719-.03125 78.082032 24.414062 94.207032 62.121094zm0 0" fill="#f5f5f5"/><path d="m264.539062 446.5625s-59.734374 22.785156-85.332031 56.917969c0 0 6.570313-96.683594 25.597657-150.957031 2.265624-6.804688 5.121093-13.402344 8.535156-19.710938 31.425781 1.171875 57.046875 25.585938 59.734375 56.917969 0 0-34.132813 0-42.667969 11.347656 17.464844 9.460937 29.929688 26.070313 34.132812 45.484375zm0 0" fill="#9e9e9e"/><path d="m460.804688 386.488281v-53.675781h-34.132813v53.675781c-20.433594 6.089844-36.078125 22.609375-41.042969 43.347657l1.363282 3.242187 25.089843 61.269531c9.464844 6.003906 20.449219 9.171875 31.65625 9.132813 29.664063-.003907 54.828125-21.769531 59.109375-51.121094 4.28125-29.347656-13.617187-57.394531-42.042968-65.871094zm0 0" fill="#67b9cc"/><path d="m503.472656 443.746094c.011719 15.84375-6.277344 31.046875-17.480468 42.25-11.207032 11.207031-26.40625 17.496094-42.253907 17.484375-11.207031.039062-22.191406-3.128907-31.65625-9.132813l-25.089843-61.269531c14.699218-8.101563 31.910156-10.386719 48.214843-6.398437 34.132813 8.53125 34.132813 25.597656 68.265625 17.066406zm0 0" fill="#ffdc00"/><path d="m503.472656 443.746094c.011719 15.84375-6.277344 31.046875-17.480468 42.25-11.207032 11.207031-26.40625 17.496094-42.253907 17.484375-3.898437-.003907-7.785156-.40625-11.605469-1.195313 27.183594-5.585937 46.921876-29.179687 47.617188-56.917968 7.929688 1.265624 16.039062.710937 23.722656-1.621094zm0 0" fill="#fec108"/><path d="m503.472656 443.746094c-8.765625 2.792968-18.140625 3.058594-27.050781.769531-11.605469-3.585937-19.539063-12.375-41.214844-17.835937-9.03125-2.183594-18.414062-2.476563-27.5625-.855469-7.277343 1.113281-14.277343 3.574219-20.652343 7.253906l-1.363282-3.242187c.335938-1.503907.761719-2.984376 1.277344-4.4375 6.03125-18.730469 20.90625-33.289063 39.765625-38.910157v-53.675781h34.132813v53.675781c25.328124 7.539063 42.6875 30.832031 42.667968 57.257813zm0 0" fill="#0377bc"/><path d="m479.835938 443.746094c-1.195313.253906-2.304688.597656-3.414063.769531-11.605469-3.585937-19.539063-12.375-41.214844-17.835937-9.03125-2.183594-18.414062-2.476563-27.5625-.855469-6.851562-1.199219-13.84375-1.34375-20.738281-.425781 6.03125-18.730469 20.90625-33.289063 39.765625-38.910157v-53.675781h10.496094v53.675781c25.328125 7.539063 42.6875 30.832031 42.667969 57.257813zm0 0" fill="#02a9f4"/><path d="m412.507812 461.921875-11.265624-13.484375-25.429688-30.292969v-76.796875h-34.132812v76.796875l-31.914063 37.460938-5.375 6.316406c-6.152344 7.675781-7.359375 18.199219-3.097656 27.0625 4.261719 8.867187 13.230469 14.503906 23.066406 14.496094h68.09375c9.84375.015625 18.820313-5.609375 23.097656-14.472657 4.277344-8.863281 3.09375-19.394531-3.042969-27.085937zm0 0" fill="#67b9cc"/><path d="m392.453125 503.480469h-68.09375c-9.835937.007812-18.804687-5.628907-23.066406-14.496094-4.261719-8.863281-3.054688-19.386719 3.097656-27.0625l5.375-6.316406c11.199219 6.949219 24.617187 9.386719 37.546875 6.828125 25.515625-4.4375 38.996094-12.03125 53.929688-13.996094l11.265624 13.484375c6.136719 7.691406 7.320313 18.222656 3.042969 27.085937-4.277343 8.863282-13.253906 14.488282-23.097656 14.472657zm0 0" fill="#9d27b0"/><path d="m401.242188 448.4375c-14.933594 1.964844-28.414063 9.558594-53.929688 13.996094-12.929688 2.558594-26.347656.121094-37.546875-6.828125l31.914063-37.460938v-76.796875h34.132812v76.796875zm0 0" fill="#02a9f4"/><path d="m179.207031 503.480469c-25.601562-34.132813-85.332031-56.917969-85.332031-56.917969 4.203125-19.414062 16.667969-36.023438 34.132812-45.484375-8.535156-11.347656-42.667968-11.347656-42.667968-11.347656 2.6875-31.332031 28.308594-55.746094 59.734375-56.917969 3.414062 6.308594 6.269531 12.90625 8.53125 19.710938 19.03125 54.273437 25.601562 150.957031 25.601562 150.957031zm0 0" fill="#9e9e9e"/><path d="m307.207031 173.152344c-.007812 9.570312-1.269531 19.09375-3.753906 28.332031-.941406 3.242187-1.964844 6.398437-3.074219 9.472656-.085937.253907-.253906.597657-.339844.851563-.683593 1.707031-1.367187 3.328125-2.046874 5.035156-.855469 1.792969-1.707032 3.671875-2.5625 5.375-.765626 1.453125-1.535157 2.902344-2.304688 4.269531-2.644531 4.765625-5.640625 9.328125-8.957031 13.652344-1.109375 1.449219-2.21875 2.816406-3.414063 4.265625-.769531.941406-1.621094 1.964844-2.476562 2.902344-.679688.769531-1.363282 1.449218-2.132813 2.21875-1.128906 1.285156-2.324219 2.511718-3.582031 3.667968-8.054688 7.859376-17.121094 14.605469-26.964844 20.054688-1.195312.683594-2.476562 1.367188-3.757812 1.960938-1.621094.855468-3.328125 1.707031-5.117188 2.476562-5.585937 2.59375-11.34375 4.789062-17.238281 6.570312-1.023437.339844-2.132813.597657-3.242187.9375-2.304688.597657-4.609376 1.195313-7 1.707032-1.109376.257812-2.300782.511718-3.496094.683594-1.28125.257812-2.5625.511718-3.753906.683593-3.671876.597657-7.425782 1.109375-11.265626 1.449219-3.839843.257812-7.679687.425781-11.519531.425781-3.839843 0-7.679687-.167969-11.519531-.425781h-.257812c-3.753907-.339844-7.421876-.851562-11.007813-1.449219-1.195313-.171875-2.472656-.425781-3.753906-.683593-1.195313-.171876-2.390625-.425782-3.5-.683594-2.386719-.511719-4.691407-1.109375-6.996094-1.707032-1.109375-.339843-2.21875-.597656-3.242187-.9375-5.894532-1.78125-11.652344-3.976562-17.238282-6.570312-1.792968-.769531-3.5-1.621094-5.121094-2.476562-1.277343-.59375-2.558593-1.277344-3.753906-1.960938-9.84375-5.449219-18.914062-12.195312-26.964844-20.054688-1.257812-1.15625-2.453124-2.382812-3.582031-3.667968-.769531-.769532-1.453125-1.449219-2.136719-2.21875-.851562-.9375-1.707031-1.960938-2.472656-2.902344-1.195312-1.449219-2.304687-2.816406-3.414062-4.265625-3.320313-4.324219-6.3125-8.886719-8.960938-13.652344-.765625-1.367187-1.535156-2.816406-2.304687-4.269531-.851563-1.703125-1.703125-3.582031-2.558594-5.375-.683594-1.707031-1.363281-3.328125-2.046875-5.035156-.085938-.253906-.257812-.597656-.34375-.851563-1.109375-3.074219-2.132812-6.230469-3.070312-9.472656-2.484376-9.238281-3.746094-18.761719-3.753907-28.332031-.003906-3.417969.167969-6.835938.511719-10.238282.171875-1.707031.339844-3.328124.597656-5.035156.171875-1.660156.429688-3.3125.765625-4.949218.597657-2.988282 1.28125-5.886719 2.136719-8.789063l4.519531-24.660156c3.074219-.769531 6.058594-1.539063 8.960938-2.476563 37.292969-10.835937 56.917969-27.988281 66.902343-40.703125 1.664063-2.097656 3.203126-4.292969 4.609376-6.570312 2.050781-3.101563 3.6875-6.457031 4.863281-9.984375 3.082031 4.894531 6.75 9.394531 10.921875 13.398437 14.078125 14.335938 43.347656 35.496094 94.378906 38.3125 2.902344.171875 5.886719.257813 8.960938.257813 7.429687.15625 14.867187-.101563 22.269531-.769532 3.230469 1.671876 6.101562 3.964844 8.449219 6.742188.085937 0 .085937.085938.171874.171875 5.566407 7.007813 9.710938 15.039063 12.199219 23.636719.769531 2.644531 1.453125 4.949218 1.878907 6.910156.171874.941406.425781 1.878906.683593 2.816406.082031.574219.195313 1.144532.339844 1.707032.339844 1.636718.597656 3.289062.769531 4.949218.253906 1.707032.425782 3.328125.597656 5.035156.34375 3.402344.515626 6.820313.511719 10.238282zm0 0" fill="#dfc49c"/><path d="m283.570312 173.152344c-.007812 9.570312-1.269531 19.09375-3.757812 28.332031-.9375 3.242187-1.960938 6.398437-3.070312 9.472656-.085938.253907-.253907.597657-.339844.851563-.683594 1.707031-1.367188 3.328125-2.050782 5.035156-.851562 1.792969-1.707031 3.671875-2.558593 5.375-.769531 1.453125-1.535157 2.902344-2.304688 4.269531-2.644531 4.765625-5.640625 9.328125-8.960937 13.652344-1.109375 1.449219-2.21875 2.816406-3.410156 4.265625-.769532.941406-1.621094 1.964844-2.476563 2.902344-.683594.769531-1.363281 1.449218-2.132813 2.21875-1.128906 1.285156-2.324218 2.511718-3.585937 3.667968-8.050781 7.859376-17.121094 14.605469-26.964844 20.054688-1.191406.683594-2.472656 1.367188-3.753906 1.960938-1.621094.855468-3.328125 1.707031-5.121094 2.476562-5.582031 2.59375-11.34375 4.789062-17.234375 6.570312-1.023437.339844-2.132812.597657-3.242187.9375-2.304688.597657-4.609375 1.195313-7 1.707032-1.109375.257812-2.304688.511718-3.496094.683594-1.28125.257812-2.5625.511718-3.757813.683593-3.582031.597657-7.167968 1.109375-10.921874 1.449219-3.753907-.339844-7.421876-.851562-11.007813-1.449219-1.195313-.171875-2.472656-.425781-3.753906-.683593-1.195313-.171876-2.390625-.425782-3.5-.683594-2.386719-.511719-4.691407-1.109375-6.996094-1.707032-1.109375-.339843-2.21875-.597656-3.242187-.9375-5.894532-1.78125-11.652344-3.976562-17.238282-6.570312-1.792968-.769531-3.5-1.621094-5.121094-2.476562-1.277343-.59375-2.558593-1.277344-3.753906-1.960938-9.84375-5.449219-18.914062-12.195312-26.964844-20.054688-1.257812-1.15625-2.453124-2.382812-3.582031-3.667968-.769531-.769532-1.453125-1.449219-2.136719-2.21875-.851562-.9375-1.707031-1.960938-2.472656-2.902344-1.195312-1.449219-2.304687-2.816406-3.414062-4.265625-3.320313-4.324219-6.3125-8.886719-8.960938-13.652344-.765625-1.367187-1.535156-2.816406-2.304687-4.269531-.851563-1.703125-1.703125-3.582031-2.558594-5.375-.683594-1.707031-1.363281-3.328125-2.046875-5.035156-.085938-.253906-.257812-.597656-.34375-.851563-1.109375-3.074219-2.132812-6.230469-3.070312-9.472656-2.484376-9.238281-3.746094-18.761719-3.753907-28.332031-.003906-3.417969.167969-6.835938.511719-10.238282.171875-1.707031.339844-3.328124.597656-5.035156.171875-1.660156.429688-3.3125.765625-4.949218.597657-2.988282 1.28125-5.886719 2.136719-8.789063l4.519531-24.660156c3.074219-.769531 6.058594-1.539063 8.960938-2.476563 37.292969-10.835937 56.917969-27.988281 66.902343-40.703125 17.40625 16.296875 52.992188 38.398438 114.773438 35.15625 2.472656-.085937 5.035156-.253906 7.59375-.511719.425781.257813.9375.511719 1.367188.769532 2.660156 1.601562 5.050781 3.617187 7.082031 5.972656.085937 0 .085937.085938.167969.171875 5.570312 7.007813 9.714843 15.039063 12.203124 23.636719.769532 2.644531 1.453126 4.949218 1.878907 6.910156.171875.941406.425781 1.878906.683593 2.816406.078126.574219.195313 1.144532.339844 1.707032.339844 1.636718.597656 3.289062.769532 4.949218.253906 1.707032.425781 3.328125.597656 5.035156.34375 3.402344.515625 6.820313.511718 10.238282zm0 0" fill="#ffe0b2"/><path d="m93.875 145.078125h59.730469c4.714843 0 8.535156 3.820313 8.535156 8.535156v8.53125c0 18.851563-15.28125 34.132813-34.132813 34.132813h-8.535156c-18.851562 0-34.132812-15.28125-34.132812-34.132813v-8.53125c0-4.714843 3.820312-8.535156 8.535156-8.535156zm0 0" fill="#02a9f4"/><path d="m204.804688 145.078125h59.734374c4.714844 0 8.535157 3.820313 8.535157 8.535156v8.53125c0 18.851563-15.28125 34.132813-34.132813 34.132813h-8.535156c-18.851562 0-34.132812-15.28125-34.132812-34.132813v-8.53125c0-4.714843 3.820312-8.535156 8.53125-8.535156zm0 0" fill="#02a9f4"/><path d="m162.140625 159.414062v2.730469c0 9.054688-3.59375 17.738281-9.996094 24.140625-6.402343 6.402344-15.085937 9.996094-24.136719 9.992188h-8.535156c-5.160156.050781-10.253906-1.152344-14.847656-3.496094 10.878906-21.523438 33.429688-34.609375 57.515625-33.367188zm0 0" fill="#0377bc"/><path d="m273.074219 159.925781v2.21875c0 9.054688-3.59375 17.738281-9.996094 24.140625s-15.085937 9.996094-24.136719 9.992188h-8.535156c-7.550781.03125-14.890625-2.496094-20.820312-7.167969 9.640624-15.785156 28.328124-32.425781 63.488281-29.183594zm0 0" fill="#0377bc"/><path d="m179.207031 298.679688c-70.183593 0-128.5625-48.355469-135.796875-112.476563-1.304687-11.589844-.875-23.3125 1.28125-34.773437.878906-4.351563 1.894532-8.394532 3.046875-12.171876.886719-2.914062 3.265625-5.136718 6.238281-5.820312 2.96875-.6875 6.082032.261719 8.160157 2.488281 2.082031 2.230469 2.816406 5.398438 1.925781 8.316407-1.03125 3.371093-1.902344 6.894531-2.613281 10.417968-1.832031 9.777344-2.191407 19.777344-1.074219 29.664063 6.253906 55.445312 57.34375 97.289062 118.832031 97.289062s112.578125-41.84375 118.835938-97.324219c1.121093-9.929687.746093-19.96875-1.109375-29.78125-2.851563-14.140624-9.390625-31.054687-19.128906-35.925781-2.726563-1.363281-4.519532-4.078125-4.703126-7.125-.179687-3.042969 1.273438-5.953125 3.820313-7.632812 2.542969-1.679688 5.789063-1.875 8.515625-.507813 18.644531 9.328125 25.960938 36.589844 28.238281 47.878906 1.351563 7.238282 2.042969 14.582032 2.0625 21.945313-.007812 4.351563-.25 8.699219-.730469 13.027344-7.238281 64.15625-65.617187 112.511719-135.800781 112.511719zm0 0"/><path d="m51.890625 204.8125h-17.75c-14.132813-.015625-25.585937-11.46875-25.601563-25.601562.066407-14.109376 11.488282-25.53125 25.601563-25.597657h17.664063c4.710937 0 8.53125 3.820313 8.53125 8.53125 0 4.714844-3.820313 8.535157-8.53125 8.535157h-17.578126c-2.257812-.039063-4.429687.851562-6.011718 2.457031-1.667969 1.578125-2.613282 3.777343-2.609375 6.074219.007812 4.710937 3.824219 8.527343 8.535156 8.535156h17.75c4.710937 0 8.53125 3.820312 8.53125 8.53125 0 4.714844-3.820313 8.535156-8.53125 8.535156zm0 0"/><path d="m324.273438 204.8125h-17.75c-4.710938 0-8.53125-3.820312-8.53125-8.535156 0-4.710938 3.820312-8.53125 8.53125-8.53125h17.75c4.710937-.007813 8.527343-3.824219 8.53125-8.535156.023437-2.226563-.863282-4.363282-2.457032-5.921876-1.578125-1.671874-3.777344-2.617187-6.074218-2.609374h-17.664063c-4.714844 0-8.535156-3.820313-8.535156-8.535157 0-4.710937 3.820312-8.53125 8.535156-8.53125h17.578125c14.144531.019531 25.621094 11.453125 25.6875 25.597657-.015625 14.132812-11.46875 25.585937-25.601562 25.601562zm0 0"/><path d="m324.199219 170.679688c-.171875 0-.332031 0-.5-.011719-4.703125-.273438-8.296875-4.300781-8.03125-9 .082031-1.605469.070312-11.019531.070312-12.320313-1.277343-74.183594-62.347656-133.34375-136.53125-132.269531-74.1875-1.074219-135.253906 58.085937-136.535156 132.269531 0 1.300782-.007813 10.734375.070313 12.324219.175781 3.042969-1.289063 5.949219-3.839844 7.621094-2.550782 1.671875-5.796875 1.855469-8.519532.480469-2.722656-1.371094-4.507812-4.089844-4.679687-7.136719-.082031-1.507813-.097656-11.871094-.097656-13.289063 1.289062-83.605468 69.992187-150.402344 153.601562-149.3359372 83.609375-1.0664068 152.3125 65.7304692 153.597657 149.3359372 0 1.417969-.011719 11.78125-.09375 13.289063-.261719 4.511719-3.992188 8.039062-8.511719 8.042969zm0 0"/><path d="m153.605469 361.058594c-4.710938 0-8.53125-3.820313-8.53125-8.535156v-64.679688c0-4.714844 3.820312-8.535156 8.53125-8.535156 4.714843 0 8.535156 3.820312 8.535156 8.535156v64.679688c0 2.265624-.898437 4.433593-2.5 6.035156-1.601563 1.601562-3.769531 2.5-6.035156 2.5zm0 0"/><path d="m204.804688 361.058594c-4.710938 0-8.53125-3.820313-8.53125-8.535156v-64.679688c0-4.714844 3.820312-8.535156 8.53125-8.535156 4.714843 0 8.535156 3.820312 8.535156 8.535156v64.679688c0 2.265624-.898438 4.433593-2.5 6.035156-1.601563 1.601562-3.769532 2.5-6.035156 2.5zm0 0"/><path d="m332.804688 512.011719h-307.199219c-14.132813-.015625-25.5820315-11.46875-25.5976565-25.597657v-51.203124c.0664063-61.238282 49.6914065-110.863282 110.9335935-110.933594h42.664063c4.714843 0 8.535156 3.824218 8.535156 8.535156 0 4.714844-3.820313 8.535156-8.535156 8.535156h-42.664063c-51.820312.058594-93.808594 42.046875-93.867187 93.863282v51.203124c.003906 4.707032 3.820312 8.527344 8.53125 8.53125h307.199219c4.714843 0 8.535156 3.820313 8.535156 8.535157 0 4.710937-3.820313 8.53125-8.535156 8.53125zm0 0"/><path d="m341.683594 403.46875c-3.417969 0-6.507813-2.039062-7.847656-5.183594-14.773438-34.574218-48.765626-56.988281-86.363282-56.9375h-42.667968c-4.710938 0-8.53125-3.820312-8.53125-8.535156 0-4.710938 3.820312-8.535156 8.53125-8.535156h42.667968c44.433594-.050782 84.605469 26.4375 102.058594 67.300781 1.125 2.636719.851562 5.660156-.726562 8.054687-1.578126 2.390626-4.25 3.832032-7.113282 3.839844zm0 0"/><path d="m179.207031 512.011719c-2.6875.003906-5.214843-1.261719-6.828125-3.414063-23.84375-31.789062-80.96875-53.816406-81.546875-54.03125-4.035156-1.539062-6.285156-5.855468-5.238281-10.046875 3.949219-16.773437 13.191406-31.835937 26.355469-42.957031-8.695313-2.222656-17.632813-3.339844-26.609375-3.328125-2.484375-.003906-4.84375-1.085937-6.460938-2.96875-1.621094-1.882813-2.339844-4.375-1.972656-6.832031 7.609375-50.746094 47.917969-64.15625 68.167969-64.15625 3.082031.003906 5.925781 1.667968 7.4375 4.355468 26.242187 46.652344 34.851562 169.078126 35.207031 174.269532.160156 2.355468-.664062 4.675781-2.277344 6.402344-1.613281 1.726562-3.871094 2.707031-6.234375 2.707031zm-74.921875-70.367188c23.132813 9.730469 44.777344 22.675781 64.292969 38.453125-3.648437-36.328125-12.335937-104.652344-28.460937-138.304687-21.613282 2.785156-39.265626 18.628906-44.367188 39.816406 12.429688.996094 31.46875 4.195313 39.082031 14.347656 1.558594 2.078125 2.085938 4.753907 1.433594 7.269531-.652344 2.511719-2.417969 4.59375-4.792969 5.648438-12.882812 7.089844-22.597656 18.800781-27.1875 32.769531zm0 0"/><path d="m179.207031 512.011719c-2.363281 0-4.621093-.980469-6.234375-2.707031-1.613281-1.726563-2.441406-4.046876-2.277344-6.40625.351563-5.191407 8.964844-127.613282 35.207032-174.269532 1.511718-2.6875 4.355468-4.351562 7.4375-4.351562 20.25 0 60.558594 13.410156 68.171875 64.15625.367187 2.457031-.351563 4.949218-1.972657 6.832031-1.617187 1.882813-3.976562 2.964844-6.460937 2.96875-8.976563-.015625-17.921875 1.105469-26.617187 3.328125 13.164062 11.121094 22.402343 26.183594 26.355468 42.957031 1.046875 4.191407-1.203125 8.503907-5.238281 10.046875-.574219.21875-57.753906 22.308594-81.546875 54.035156-1.613281 2.148438-4.140625 3.410157-6.824219 3.410157zm39.109375-170.261719c-16.140625 33.636719-24.832031 102-28.480468 138.347656 19.515624-15.777344 41.160156-28.722656 64.292968-38.453125-4.597656-13.988281-14.332031-25.707031-27.242187-32.789062-2.347657-1.078125-4.082031-3.160157-4.726563-5.660157-.640625-2.503906-.121094-5.160156 1.417969-7.234374 7.617187-10.15625 26.664063-13.359376 39.09375-14.351563-4.964844-21.273437-22.675781-37.191406-44.355469-39.859375zm0 0"/><path d="m136.539062 477.878906h-85.332031c-4.714843 0-8.535156-3.820312-8.535156-8.53125 0-4.714844 3.820313-8.535156 8.535156-8.535156h85.332031c4.714844 0 8.535157 3.820312 8.535157 8.535156 0 4.710938-3.820313 8.53125-8.535157 8.53125zm0 0"/><path d="m443.738281 512.011719c-12.824219.03125-25.394531-3.597657-36.230469-10.457031-3.980468-2.527344-5.15625-7.800782-2.628906-11.78125 2.523438-3.976563 7.800782-5.15625 11.777344-2.628907 8.101562 5.125 17.496094 7.832031 27.082031 7.800781 25.425781-.003906 46.996094-18.65625 50.664063-43.8125 3.671875-25.15625-11.667969-49.199218-36.03125-56.464843-3.617188-1.078125-6.097656-4.40625-6.097656-8.179688v-45.140625h-17.066407v45.140625c0 3.773438-2.476562 7.097657-6.09375 8.179688-17.507812 5.226562-30.914062 19.378906-35.1875 37.144531-1.164062 4.5-5.714843 7.242188-10.234375 6.164062-4.523437-1.074218-7.351562-5.570312-6.363281-10.113281 5.152344-21.464843 20.351563-39.121093 40.8125-47.414062v-47.636719c0-4.710938 3.820313-8.535156 8.53125-8.535156h34.132813c4.714843 0 8.535156 3.824218 8.535156 8.535156v47.621094c30.292968 12.257812 47.652344 44.261718 41.410156 76.335937-6.242188 32.078125-34.332031 55.234375-67.011719 55.242188zm0 0"/><path d="m469.339844 341.347656h-51.199219c-4.714844 0-8.535156-3.820312-8.535156-8.535156 0-4.710938 3.820312-8.535156 8.535156-8.535156h51.199219c4.710937 0 8.535156 3.824218 8.535156 8.535156 0 4.714844-3.824219 8.535156-8.535156 8.535156zm0 0"/><path d="m392.488281 512.011719h-68.136719c-13.121093 0-25.078124-7.519531-30.761718-19.34375-5.683594-11.828125-4.085938-25.863281 4.109375-36.109375l35.421875-41.558594v-73.652344c0-4.714844 3.824218-8.535156 8.535156-8.535156h34.132812c4.714844 0 8.535157 3.820312 8.535157 8.535156v73.695313l34.699219 41.359375c8.277343 10.226562 9.941406 24.300781 4.273437 36.175781-5.664063 11.875-17.652344 19.433594-30.808594 19.433594zm-42.296875-162.132813v68.265625c-.003906 2.03125-.726562 3.992188-2.042968 5.539063l-37.296876 43.742187c-3.984374 5.148438-4.691406 12.121094-1.824218 17.964844 2.867187 5.847656 8.8125 9.554687 15.324218 9.554687h68.136719c6.5625 0 12.542969-3.761718 15.382813-9.671874 2.84375-5.914063 2.042968-12.933594-2.054688-18.054688l-36.5625-43.589844c-1.289062-1.535156-1.996094-3.476562-1.996094-5.484375v-68.265625zm0 0"/><path d="m384.324219 349.878906h-51.203125c-4.710938 0-8.53125-3.820312-8.53125-8.53125 0-4.714844 3.820312-8.535156 8.53125-8.535156h51.203125c4.710937 0 8.53125 3.820312 8.53125 8.535156 0 4.710938-3.820313 8.53125-8.53125 8.53125zm0 0"/><path d="m487.054688 454.609375c-9.996094-.21875-19.726563-3.296875-28.03125-8.871094-8.054688-4.835937-16.777344-8.46875-25.882813-10.78125-12.730469-3.777343-26.507813-.824219-36.574219 7.832031-2.308594 2.019532-5.523437 2.644532-8.417968 1.636719-2.898438-1.003906-5.03125-3.488281-5.589844-6.5-.5625-3.015625.539062-6.097656 2.882812-8.078125 14.269532-12.253906 33.726563-16.550781 51.832032-11.445312 10.574218 2.667968 20.707031 6.859375 30.074218 12.441406 9.886719 7.082031 22.640625 8.816406 34.058594 4.625 4.527344-1.03125 9.046875 1.75 10.171875 6.253906s-1.558594 9.082032-6.039063 10.300782c-6.03125 1.613281-12.238281 2.484374-18.484374 2.585937zm0 0"/><path d="m337.074219 471.878906c-11.25.054688-22.285157-3.078125-31.832031-9.035156-2.664063-1.582031-4.265626-4.480469-4.183594-7.578125.085937-3.09375 1.839844-5.902344 4.589844-7.335937 2.746093-1.429688 6.054687-1.261719 8.640624.445312 9.417969 5.824219 20.699219 7.847656 31.554688 5.65625 10.707031-1.953125 21.253906-4.695312 31.554688-8.214844 7.378906-2.640625 14.988281-4.597656 22.726562-5.839844 4.675781-.613281 8.960938 2.679688 9.574219 7.351563s-2.679688 8.960937-7.355469 9.570313c-6.714844 1.136718-13.316406 2.867187-19.726562 5.167968-11.050782 3.753906-22.363282 6.6875-33.84375 8.777344-3.863282.683594-7.777344 1.027344-11.699219 1.035156zm0 0"/><path d="m40.976562 368.992188c-1.898437.003906-3.742187-.628907-5.238281-1.796876-27.824219-21.667968-35.289062-62.847656-17.753906-97.933593 15.507813-31.011719 7.875-70.921875 7.796875-71.320313-.921875-4.621094 2.078125-9.117187 6.699219-10.039062 4.621093-.917969 9.117187 2.078125 10.039062 6.703125.371094 1.863281 8.898438 45.957031-9.265625 82.289062-13.917968 27.835938-8.460937 60.148438 12.96875 76.835938 2.875 2.238281 4.011719 6.058593 2.828125 9.503906-1.183593 3.449219-4.429687 5.761719-8.074219 5.761719zm0 0"/><path d="m317.464844 368.992188c-3.644532.003906-6.890625-2.3125-8.074219-5.757813-1.183594-3.449219-.046875-7.265625 2.828125-9.507813 21.433594-16.6875 26.886719-49 12.972656-76.832031-18.171875-36.328125-9.644531-80.425781-9.273437-82.289062.597656-2.992188 2.742187-5.4375 5.628906-6.414063 2.890625-.980468 6.078125-.34375 8.371094 1.667969 2.289062 2.011719 3.335937 5.09375 2.738281 8.082031-.078125.398438-7.710938 40.308594 7.796875 71.320313 17.542969 35.082031 10.074219 76.265625-17.75 97.933593-1.496094 1.167969-3.339844 1.800782-5.238281 1.796876zm0 0"/><path d="m55.238281 152.675781c-2.53125-.003906-4.929687-1.128906-6.554687-3.070312-1.621094-1.945313-2.296875-4.507813-1.84375-7l4.523437-24.664063c.9375-4.539062 5.332031-7.5 9.890625-6.664062 4.5625.835937 7.621094 5.160156 6.890625 9.738281l-4.519531 24.660156c-.742188 4.050781-4.269531 6.992188-8.386719 7zm0 0"/><path d="m59.742188 128.011719c-4.308594-.007813-7.933594-3.230469-8.453126-7.507813-.515624-4.277344 2.238282-8.273437 6.421876-9.308594 67.804687-16.71875 79.066406-53.433593 79.171874-53.804687.945313-3.300781 3.773438-5.710937 7.183594-6.121094 3.40625-.410156 6.730469 1.261719 8.429688 4.246094 1.289062 2.207031 33.171875 54.816406 128.417968 46.925781 4.695313-.390625 8.820313 3.101563 9.210938 7.796875.394531 4.699219-3.097656 8.824219-7.792969 9.214844-78.929687 6.601563-119.46875-25.570313-135.796875-43.761719-9.917968 15.21875-33.160156 39.359375-84.738281 52.074219-.671875.164063-1.359375.25-2.054687.246094zm0 0"/><path d="m128.007812 204.8125h-8.535156c-23.550781-.027344-42.636718-19.113281-42.667968-42.667969v-8.53125c.011718-9.421875 7.648437-17.058593 17.070312-17.066406h59.730469c9.421875.007813 17.058593 7.644531 17.066406 17.066406v8.53125c-.027344 23.554688-19.113281 42.640625-42.664063 42.667969zm-34.132812-51.199219v8.53125c.011719 14.132813 11.464844 25.585938 25.597656 25.601563h8.535156c14.128907-.015625 25.582032-11.46875 25.597657-25.601563v-8.53125zm0 0"/><path d="m238.941406 204.8125h-8.535156c-23.550781-.027344-42.640625-19.113281-42.667969-42.667969v-8.53125c.011719-9.421875 7.644531-17.058593 17.066407-17.066406h59.734374c9.421876.007813 17.058594 7.644531 17.066407 17.066406v8.53125c-.027344 23.554688-19.113281 42.640625-42.664063 42.667969zm-34.136718-51.199219v8.53125c.015624 14.132813 11.46875 25.585938 25.601562 25.601563h8.535156c14.128906-.015625 25.582032-11.46875 25.597656-25.601563v-8.53125zm0 0"/><path d="m198.164062 156.929688c-2.109374.003906-4.148437-.78125-5.710937-2.199219-7.382813-7.042969-18.996094-7.042969-26.375 0-3.507813 3.070312-8.832031 2.753906-11.953125-.703125-3.125-3.460938-2.894531-8.789063.515625-11.964844 13.863281-12.9375 35.375-12.9375 49.238281 0 2.621094 2.367188 3.515625 6.101562 2.246094 9.398438-1.265625 3.292968-4.433594 5.46875-7.960938 5.46875zm0 0"/><path d="m51.972656 169.484375c-4.121094.003906-7.660156-2.941406-8.398437-6.996094-.742188-4.058593 1.519531-8.066406 5.378906-9.519531l36.265625-13.738281c2.871094-1.160157 6.136719-.671875 8.546875 1.265625 2.40625 1.941406 3.578125 5.03125 3.058594 8.082031-.519531 3.046875-2.648438 5.574219-5.5625 6.609375l-36.265625 13.738281c-.964844.367188-1.988282.558594-3.023438.558594zm0 0"/><path d="m306.4375 169.484375c-1.03125 0-2.054688-.1875-3.019531-.558594l-36.265625-13.738281c-2.917969-1.035156-5.042969-3.5625-5.5625-6.609375-.519532-3.050781.648437-6.140625 3.058594-8.078125 2.40625-1.941406 5.675781-2.425781 8.542968-1.269531l36.269532 13.738281c3.855468 1.457031 6.117187 5.460938 5.378906 9.519531-.742188 4.054688-4.277344 7-8.402344 6.996094zm0 0"/></svg>