<svg height="512pt" viewBox="0 0 512 512.01255" width="512pt" xmlns="http://www.w3.org/2000/svg"><path d="m324.273438 152.503906c0 1.449219 0 11.605469-.085938 13.140625h-289.960938c-.085937-1.535156-.085937-11.691406-.085937-13.140625.261719-75.210937 58.21875-137.625 133.203125-143.445312 3.925781-.34375 7.851562-.511719 11.863281-.511719 79.804688-.289063 144.742188 64.152344 145.066407 143.957031zm0 0" fill="#6d4122"/><path d="m300.636719 152.503906c0 1.449219 0 11.605469-.085938 13.140625h-266.324219c-.085937-1.535156-.085937-11.691406-.085937-13.140625.261719-75.210937 58.21875-137.625 133.203125-143.445312 75.035156 5.753906 133.050781 68.191406 133.292969 143.445312zm0 0" fill="#91562d"/><path d="m306.609375 162.144531h17.664063c9.398437.070313 17 7.671875 17.066406 17.066407-.027344 9.414062-7.652344 17.039062-17.066406 17.066406h-290.132813c-9.414063-.027344-17.039063-7.652344-17.066406-17.066406.066406-9.394532 7.667969-16.996094 17.066406-17.066407zm0 0" fill="#dfc49c"/><path d="m230.40625 332.8125-18.3125 21.332031-32.886719 38.402344-32.886719-38.402344-18.3125-21.332031zm0 0" fill="#bdc3c7"/><path d="m349.875 482.0625v4.351562c-.03125 9.414063-7.652344 17.039063-17.070312 17.066407h-307.199219c-9.414063-.027344-17.039063-7.652344-17.066407-17.066407v-51.203124c.023438-47.316407 32.429688-88.46875 78.421876-99.582032h.085937l40.960937-2.816406 17.066407 21.332031 34.132812 38.402344 34.132813-38.402344 17.066406-21.332031 40.960938 2.816406h.085937c20.90625 5.066406 39.6875 16.589844 53.671875 32.9375zm0 0" fill="#3f51b5"/><path d="m213.339844 503.480469-17.066406-68.269531h-34.132813l-17.066406 68.269531zm0 0" fill="#f44335"/><path d="m204.804688 287.84375v66.300781l-25.597657 38.402344-25.601562-38.402344v-66.300781zm0 0" fill="#ffe0b2"/><path d="m187.824219 392.546875c9.386719.019531 16.984375 7.636719 16.980469 17.023437v17.109376c-.027344 9.414062-7.652344 17.039062-17.066407 17.066406h-17.066406c-9.414063-.027344-17.039063-7.652344-17.066406-17.066406v-17.109376c0-9.386718 7.59375-17.003906 16.984375-17.023437zm0 0" fill="#f44335"/><path d="m503.472656 409.613281c.015625 24.898438-9.871094 48.78125-27.476562 66.386719-17.605469 17.609375-41.488282 27.492188-66.390625 27.480469-3.9375.003906-7.871094-.253907-11.773438-.769531-46.914062-5.917969-82.089843-45.816407-82.089843-93.097657 0-47.285156 35.175781-87.179687 82.089843-93.097656 3.902344-.519531 7.835938-.773437 11.773438-.769531 24.902343-.015625 48.785156 9.871094 66.390625 27.476562 17.605468 17.605469 27.492187 41.492188 27.476562 66.390625zm0 0" fill="#fec108"/><path d="m479.835938 409.613281c.023437 47.261719-35.117188 87.15625-82.003907 93.097657-46.914062-5.917969-82.089843-45.816407-82.089843-93.097657 0-47.285156 35.175781-87.179687 82.089843-93.097656 46.886719 5.9375 82.027344 45.835937 82.003907 93.097656zm0 0" fill="#ffdc00"/><path d="m179.207031 392.546875-42.667969 25.597656-49.492187-82.515625h-.085937l-1.621094-2.816406 36.265625-14.507812c3.75-1.488282 8.03125-.132813 10.242187 3.242187l7.507813 11.265625 14.25 21.332031zm0 0" fill="#f5f5f5"/><path d="m273.074219 332.8125-1.621094 2.816406h-.085937l-49.492188 82.515625-42.667969-25.597656 25.597657-38.402344 14.253906-21.332031 7.507812-11.265625c2.210938-3.375 6.488282-4.730469 10.238282-3.242187zm0 0" fill="#f5f5f5"/><path d="m307.207031 173.152344c-.011719 4.050781-.242187 8.09375-.683593 12.117187-6.65625 58.96875-61.097657 104.875-127.316407 104.875-3.925781 0-7.851562-.167969-11.777343-.511719-60.757813-5.035156-109.3125-48.894531-115.539063-104.363281-.445313-4.023437-.671875-8.066406-.683594-12.117187.015625-6.78125.644531-13.550782 1.875-20.222656.769531-3.753907 1.707031-7.507813 2.816407-11.179688 9.132812-20.90625 31.660156-63.058594 67.585937-70.996094 15.027344-2.960937 30.617187-.351562 43.859375 7.339844h.085938c4.070312 2.171875 8.003906 4.597656 11.777343 7.253906 9.5625-7.046875 20.488281-12.019531 32.085938-14.59375 49.832031-10.238281 80.296875 45.824219 91.21875 70.996094 1.109375 3.671875 2.050781 7.425781 2.816406 11.179688 1.234375 6.671874 1.863281 13.441406 1.878906 20.222656zm0 0" fill="#dfc49c"/><path d="m283.570312 173.152344c-.011718 4.050781-.242187 8.09375-.683593 12.117187-6.230469 55.382813-54.699219 99.328125-115.457031 104.363281-60.757813-5.035156-109.3125-48.894531-115.539063-104.363281-.445313-4.023437-.671875-8.066406-.683594-12.117187.015625-6.78125.644531-13.550782 1.875-20.222656.769531-3.753907 1.707031-7.507813 2.816407-11.179688 9.132812-20.90625 31.660156-63.058594 67.585937-70.996094 11.59375 2.574219 22.523437 7.546875 32.085937 14.59375 3.773438-2.65625 7.707032-5.082031 11.773438-7.253906h.085938c4.070312 2.171875 8.003906 4.597656 11.777343 7.253906 9.5625-7.046875 20.488281-12.019531 32.085938-14.59375 36.007812 7.9375 58.453125 50.089844 67.582031 70.996094 1.109375 3.671875 2.050781 7.425781 2.816406 11.179688 1.234375 6.671874 1.859375 13.441406 1.878906 20.222656zm0 0" fill="#ffe0b2"/><path d="m179.207031 298.679688c-70.175781 0-128.558593-48.355469-135.800781-112.476563-.476562-4.335937-.722656-8.695313-.734375-13.0625.019531-7.28125.695313-14.542969 2.019531-21.703125.875-4.332031 1.882813-8.375 3.050782-12.179688.824218-2.988281 3.210937-5.296874 6.226562-6.019531 3.015625-.726562 6.191406.242188 8.285156 2.53125 2.097656 2.285157 2.789063 5.53125 1.804688 8.472657-1.027344 3.371093-1.902344 6.894531-2.609375 10.417968-1.832031 9.78125-2.191407 19.78125-1.074219 29.671875 6.257812 55.4375 57.347656 97.28125 118.832031 97.28125s112.574219-41.84375 118.832031-97.324219c.414063-3.703124.625-7.421874.632813-11.148437-.019531-6.253906-.597656-12.492187-1.730469-18.644531-.683594-3.359375-1.558594-6.882813-2.585937-10.253906-.984375-2.941407-.292969-6.1875 1.800781-8.472657 2.097656-2.289062 5.269531-3.257812 8.289062-2.53125 3.015626.722657 5.398438 3.03125 6.226563 6.019531 1.167969 3.804688 2.175781 7.847657 3.027344 12.015626 2.171875 11.5 2.613281 23.257812 1.308593 34.886718-7.242187 64.164063-65.625 112.519532-135.800781 112.519532zm0 0"/><path d="m51.890625 204.8125h-17.75c-14.132813-.015625-25.585937-11.46875-25.601563-25.601562.070313-14.109376 11.492188-25.527344 25.601563-25.597657h17.664063c4.710937 0 8.53125 3.820313 8.53125 8.53125 0 4.714844-3.820313 8.535157-8.53125 8.535157h-17.578126c-2.257812-.039063-4.425781.851562-6.007812 2.457031-1.671875 1.578125-2.617188 3.777343-2.613281 6.074219.003906 4.710937 3.824219 8.53125 8.535156 8.535156h17.75c4.710937 0 8.53125 3.820312 8.53125 8.53125 0 4.714844-3.820313 8.535156-8.53125 8.535156zm0 0"/><path d="m324.273438 204.8125h-17.75c-4.710938 0-8.53125-3.820312-8.53125-8.535156 0-4.710938 3.820312-8.53125 8.53125-8.53125h17.75c4.710937-.003906 8.527343-3.824219 8.53125-8.535156.023437-2.222657-.863282-4.359376-2.449219-5.917969-1.578125-1.671875-3.78125-2.617188-6.082031-2.613281h-17.664063c-4.714844 0-8.535156-3.820313-8.535156-8.535157 0-4.710937 3.820312-8.53125 8.535156-8.53125h17.578125c14.144531.019531 25.621094 11.453125 25.6875 25.597657-.015625 14.132812-11.46875 25.585937-25.601562 25.601562zm0 0"/><path d="m324.199219 170.679688c-.171875 0-.335938 0-.5-.011719-4.699219-.277344-8.289063-4.304688-8.023438-9 .074219-1.605469.0625-11.019531.0625-12.320313-1.277343-74.183594-62.34375-133.34375-136.53125-132.269531-74.1875-1.074219-135.253906 58.085937-136.535156 132.269531 0 1.300782-.007813 10.734375.066406 12.324219.140625 4.621094-3.425781 8.515625-8.042969 8.777344-4.621093.261719-8.605468-3.203125-8.988281-7.8125-.09375-1.507813-.101562-11.871094-.101562-13.289063 1.292969-83.605468 69.992187-150.398437 153.601562-149.3359372 83.605469-1.0624998 152.308594 65.7304692 153.597657 149.3359372 0 1.417969-.007813 11.78125-.097657 13.289063-.257812 4.511719-3.988281 8.039062-8.507812 8.042969zm0 0"/><path d="m55.898438 150.328125c-2.257813.011719-4.425782-.878906-6.027344-2.472656-1.601563-1.59375-2.503906-3.757813-2.503906-6.019531 0-1.199219.242187-2.386719.707031-3.492188 10.242187-23.535156 32.933593-64.574219 69.867187-74.992188 21.148438-5.972656 43.398438-.917968 66.15625 15.003907 3.789063 2.726562 4.683594 7.992187 2.007813 11.816406s-7.929688 4.789063-11.789063 2.164063c-18.34375-12.832032-35.726562-17.050782-51.742187-12.5625-31.132813 8.785156-51.371094 48.273437-58.742188 65.128906-1.28125 3.265625-4.425781 5.414062-7.933593 5.425781zm0 0"/><path d="m302.511719 150.328125c-3.667969.015625-6.929688-2.324219-8.097657-5.800781-7.5-17.066406-27.675781-56.03125-58.574218-64.75-15.96875-4.5-33.402344-.273438-51.742188 12.5625-2.496094 1.796875-5.769531 2.113281-8.5625.824218-2.792968-1.289062-4.679687-3.980468-4.929687-7.046874-.253907-3.066407 1.164062-6.03125 3.707031-7.761719 22.757812-15.921875 45.035156-20.96875 66.160156-15.003907 36.933594 10.421876 59.625 51.457032 69.867188 74.996094 1.144531 2.640625.886718 5.683594-.6875 8.097656-1.574219 2.410157-4.257813 3.871094-7.140625 3.882813zm0 0"/><path d="m153.605469 362.679688c-4.710938 0-8.53125-3.820313-8.53125-8.535157v-66.300781c0-4.714844 3.820312-8.535156 8.53125-8.535156 4.714843 0 8.535156 3.820312 8.535156 8.535156v66.300781c0 4.714844-3.820313 8.535157-8.535156 8.535157zm0 0"/><path d="m204.804688 362.679688c-4.710938 0-8.53125-3.820313-8.53125-8.535157v-66.300781c0-4.714844 3.820312-8.535156 8.53125-8.535156 4.714843 0 8.535156 3.820312 8.535156 8.535156v66.300781c0 4.714844-3.820313 8.535157-8.535156 8.535157zm0 0"/><path d="m332.804688 512.011719h-307.199219c-14.132813-.015625-25.5820315-11.46875-25.5976565-25.597657v-51.203124c-.1250005-51.308594 35.0468755-95.96875 84.9570315-107.878907 2.96875-.71875 6.09375.199219 8.199218 2.410157 2.105469 2.210937 2.867188 5.375 2 8.304687-.867187 2.925781-3.230468 5.167969-6.199218 5.878906-42.230469 10.078125-71.992188 47.867188-71.890625 91.285157v51.203124c.003906 4.710938 3.820312 8.527344 8.53125 8.53125h307.199219c4.714843-.003906 8.53125-3.820312 8.535156-8.53125v-4.351562c0-4.714844 3.820312-8.535156 8.535156-8.535156 4.710938 0 8.53125 3.820312 8.53125 8.535156v4.351562c-.015625 14.128907-11.46875 25.582032-25.601562 25.597657zm0 0"/><path d="m325.125 377.101562c-2.492188 0-4.863281-1.089843-6.484375-2.988281-12.839844-14.953125-30.042969-25.511719-49.191406-30.191406-2.96875-.707031-5.332031-2.949219-6.199219-5.878906-.867188-2.925781-.101562-6.09375 2.003906-8.304688 2.101563-2.210937 5.230469-3.128906 8.195313-2.40625 22.636719 5.53125 42.972656 18.011719 58.15625 35.6875 2.167969 2.53125 2.660156 6.09375 1.265625 9.117188-1.390625 3.027343-4.417969 4.964843-7.75 4.964843zm0 0"/><path d="m153.605469 341.347656h-14.25c-4.710938 0-8.53125-3.824218-8.53125-8.535156s3.820312-8.535156 8.53125-8.535156h14.25c4.714843 0 8.535156 3.824218 8.535156 8.535156s-3.820313 8.535156-8.535156 8.535156zm0 0"/><path d="m219.058594 341.347656h-14.253906c-4.710938 0-8.53125-3.824218-8.53125-8.535156s3.820312-8.535156 8.53125-8.535156h14.253906c4.710937 0 8.53125 3.824218 8.53125 8.535156s-3.820313 8.535156-8.53125 8.535156zm0 0"/><path d="m136.546875 426.679688c-3 .003906-5.78125-1.570313-7.324219-4.140626l-51.199218-85.335937c-1.285157-2.144531-1.566407-4.746094-.765626-7.113281.796876-2.371094 2.59375-4.273438 4.914063-5.203125l36.242187-14.496094c7.492188-2.964844 16.039063-.308594 20.535157 6.378906l47.359375 71.042969c1.292968 1.941406 1.738281 4.328125 1.226562 6.605469-.511718 2.277343-1.933594 4.242187-3.9375 5.445312l-42.664062 25.597657c-1.324219.796874-2.839844 1.21875-4.386719 1.21875zm-38.730469-89.667969 41.648438 69.425781 27.675781-16.605469-42.390625-63.589843zm0 0"/><path d="m221.863281 426.679688c-1.542969 0-3.058593-.421876-4.382812-1.21875l-42.664063-25.597657c-2-1.203125-3.421875-3.167969-3.933594-5.445312-.511718-2.277344-.070312-4.664063 1.222657-6.605469l47.363281-71.039062c4.492188-6.691407 13.042969-9.347657 20.539062-6.378907l36.234376 14.492188c2.320312.929687 4.117187 2.832031 4.917968 5.203125.796875 2.367187.515625 4.96875-.769531 7.113281l-51.199219 85.335937c-1.542968 2.574219-4.324218 4.144532-7.328125 4.140626zm-30.589843-36.847657 27.675781 16.605469 41.648437-69.425781-26.933594-10.769531zm0 0"/><path d="m187.738281 452.277344h-17.066406c-14.128906-.011719-25.582031-11.464844-25.597656-25.597656v-17.066407c-.015625-.996093.042969-1.988281.167969-2.976562.351562-3.082031 2.347656-5.730469 5.210937-6.917969 2.867187-1.1875 6.148437-.726562 8.578125 1.203125 2.429688 1.925781 3.617188 5.023437 3.109375 8.082031v17.675782c.003906 4.710937 3.820313 8.527343 8.53125 8.53125h17.066406c4.710938-.003907 8.53125-3.820313 8.535157-8.53125v-17.066407c-.664063-4.734375 2.554687-9.136719 7.265624-9.9375 2.207032-.386719 4.472657.136719 6.289063 1.449219 1.8125 1.308594 3.019531 3.296875 3.34375 5.511719.128906.988281.183594 1.980469.167969 2.976562v17.066407c-.015625 14.132812-11.46875 25.585937-25.601563 25.597656zm0 0"/><path d="m145.082031 512.011719c-2.679687 0-5.203125-1.253907-6.816406-3.394531-1.617187-2.136719-2.132813-4.90625-1.402344-7.484376l17.070313-59.734374c1.292968-4.53125 6.019531-7.15625 10.554687-5.859376 4.53125 1.296876 7.15625 6.019532 5.859375 10.554688l-17.066406 59.734375c-1.050781 3.65625-4.394531 6.179687-8.199219 6.183594zm0 0"/><path d="m213.332031 512.011719c-3.808593-.003907-7.152343-2.527344-8.199219-6.1875l-17.066406-59.734375c-1.296875-4.53125 1.328125-9.257813 5.859375-10.554688 4.535157-1.292968 9.257813 1.328125 10.554688 5.863282l17.066406 59.734374c.734375 2.574219.21875 5.347657-1.398437 7.484376-1.613282 2.140624-4.136719 3.394531-6.816407 3.394531zm0 0"/><path d="m102.40625 477.878906h-51.199219c-4.714843 0-8.535156-3.820312-8.535156-8.53125 0-4.714844 3.820313-8.535156 8.535156-8.535156h51.199219c4.714844 0 8.535156 3.820312 8.535156 8.535156 0 4.710938-3.820312 8.53125-8.535156 8.53125zm0 0"/><path d="m409.605469 512.011719c-56.554688 0-102.398438-45.84375-102.398438-102.398438 0-56.554687 45.84375-102.402343 102.398438-102.402343 56.554687 0 102.402343 45.847656 102.402343 102.402343-.0625 56.527344-45.875 102.335938-102.402343 102.398438zm0-187.734375c-47.128907 0-85.332031 38.207031-85.332031 85.335937 0 47.128907 38.203124 85.332031 85.332031 85.332031 47.128906 0 85.335937-38.203124 85.335937-85.332031-.054687-47.105469-38.230468-85.28125-85.335937-85.335937zm0 0"/><path d="m413.875 460.8125h-29.867188c-4.714843 0-8.535156-3.820312-8.535156-8.535156 0-4.710938 3.820313-8.53125 8.535156-8.53125h29.867188c7.066406 0 12.796875-5.730469 12.796875-12.800782 0-7.070312-5.730469-12.800781-12.796875-12.800781h-8.535156c-16.496094 0-29.867188-13.371093-29.867188-29.867187 0-16.492188 13.371094-29.863282 29.867188-29.863282h29.867187c4.710938 0 8.53125 3.820313 8.53125 8.53125 0 4.714844-3.820312 8.535157-8.53125 8.535157h-29.867187c-7.070313 0-12.800782 5.730469-12.800782 12.796875 0 7.070312 5.730469 12.800781 12.800782 12.800781h8.535156c16.492188 0 29.863281 13.371094 29.863281 29.867187 0 16.496094-13.371093 29.867188-29.863281 29.867188zm0 0"/><path d="m409.605469 375.480469c-4.710938 0-8.53125-3.820313-8.53125-8.535157v-17.066406c0-4.710937 3.820312-8.53125 8.53125-8.53125 4.714843 0 8.535156 3.820313 8.535156 8.53125v17.066406c0 4.714844-3.820313 8.535157-8.535156 8.535157zm0 0"/><path d="m409.605469 477.878906c-4.710938 0-8.53125-3.820312-8.53125-8.53125v-17.070312c0-4.710938 3.820312-8.53125 8.53125-8.53125 4.714843 0 8.535156 3.820312 8.535156 8.53125v17.070312c0 4.710938-3.820313 8.53125-8.535156 8.53125zm0 0"/></svg>