<svg height="512pt" viewBox="0 0 512 512.01255" width="512pt" xmlns="http://www.w3.org/2000/svg"><path d="m324.273438 153.699219c0 1.363281 0 11.6875-.085938 13.226562h-289.960938c-.085937-1.539062-.085937-11.863281-.085937-13.226562.019531-12.257813 1.539063-24.464844 4.523437-36.351563 15.441407-59.554687 66.710938-102.925781 128-108.289062.167969-.085938.253907-.085938.339844 0 4.011719-.34375 8.105469-.511719 12.203125-.511719 80.136719.03125 145.078125 65.011719 145.066407 145.152344zm0 0" fill="#6d4122"/><path d="m300.636719 153.699219c0 1.363281 0 11.6875-.085938 13.226562h-266.324219c-.085937-1.539062-.085937-11.863281-.085937-13.226562.019531-12.257813 1.539063-24.464844 4.523437-36.351563 15.441407-59.554687 66.710938-102.925781 128-108.289062.167969-.085938.253907-.085938.339844 0 75.453125 5.972656 133.640625 68.949218 133.632813 144.640625zm0 0" fill="#91562d"/><path d="m317.445312 360.460938h-276.480468c-25.425782-19.796876-30.546875-57.003907-15.359375-87.382813 17.066406-34.132813 8.535156-85.332031 8.535156-85.332031h290.132813s-8.535157 51.199218 8.53125 85.332031c15.191406 30.378906 10.070312 67.585937-15.359376 87.382813zm0 0" fill="#783e22"/><path d="m293.808594 360.460938h-252.84375c-25.425782-19.796876-30.546875-57.003907-15.359375-87.382813 17.066406-34.132813 8.535156-85.332031 8.535156-85.332031h266.496094s-8.535157 51.199218 8.53125 85.332031c15.191406 30.378906 10.070312 67.585937-15.359375 87.382813zm0 0" fill="#a0522d"/><path d="m306.609375 162.144531h17.664063c9.398437.070313 17 7.671875 17.066406 17.066407-.027344 9.414062-7.652344 17.039062-17.066406 17.066406h-290.132813c-9.414063-.027344-17.039063-7.652344-17.066406-17.066406.066406-9.394532 7.667969-16.996094 17.066406-17.066407zm0 0" fill="#dfc49c"/><path d="m230.40625 332.8125-18.3125 21.332031-32.886719 38.402344-32.886719-38.402344-18.3125-21.332031zm0 0" fill="#bdc3c7"/><path d="m349.875 482.0625v4.351562c-.03125 9.414063-7.652344 17.039063-17.070312 17.066407h-307.199219c-9.414063-.027344-17.039063-7.652344-17.066407-17.066407v-51.203124c.023438-47.316407 32.429688-88.46875 78.421876-99.582032h.085937l40.960937-2.816406 17.066407 21.332031 34.132812 38.402344 34.132813-38.402344 17.066406-21.332031 40.960938 2.816406h.085937c20.90625 5.066406 39.6875 16.589844 53.671875 32.9375zm0 0" fill="#3f51b5"/><path d="m213.339844 503.480469-17.066406-68.269531h-34.132813l-17.066406 68.269531zm0 0" fill="#f44335"/><path d="m204.804688 287.84375v66.300781l-25.597657 38.402344-25.601562-38.402344v-66.300781zm0 0" fill="#ffe0b2"/><path d="m187.824219 392.546875c9.386719.019531 16.984375 7.636719 16.980469 17.023437v17.109376c-.027344 9.414062-7.652344 17.039062-17.066407 17.066406h-17.066406c-9.414063-.027344-17.039063-7.652344-17.066406-17.066406v-17.109376c0-9.386718 7.59375-17.003906 16.984375-17.023437zm0 0" fill="#f44335"/><path d="m503.472656 409.613281c.015625 24.898438-9.871094 48.78125-27.476562 66.386719-17.605469 17.609375-41.488282 27.492188-66.390625 27.480469-3.9375.003906-7.871094-.253907-11.773438-.769531-46.914062-5.917969-82.089843-45.816407-82.089843-93.097657 0-47.285156 35.175781-87.179687 82.089843-93.097656 3.902344-.519531 7.835938-.773437 11.773438-.769531 24.902343-.015625 48.785156 9.871094 66.390625 27.476562 17.605468 17.605469 27.492187 41.492188 27.476562 66.390625zm0 0" fill="#fec108"/><path d="m479.835938 409.613281c.023437 47.261719-35.117188 87.15625-82.003907 93.097657-46.914062-5.917969-82.089843-45.816407-82.089843-93.097657 0-47.285156 35.175781-87.179687 82.089843-93.097656 46.886719 5.9375 82.027344 45.835937 82.003907 93.097656zm0 0" fill="#ffdc00"/><path d="m179.207031 392.546875-35.351562 21.207031c-1.9375 1.164063-4.261719 1.511719-6.457031.960938-2.195313-.546875-4.085938-1.945313-5.25-3.886719l-41.652344-69.421875c-1.289063-2.144531-1.570313-4.746094-.769532-7.117188.796876-2.367187 2.59375-4.269531 4.917969-5.199218l26.960938-10.785156c3.75-1.488282 8.03125-.132813 10.242187 3.242187l7.507813 11.265625 14.25 21.332031zm0 0" fill="#f5f5f5"/><path d="m267.917969 341.40625-41.65625 69.421875c-1.164063 1.941406-3.050781 3.339844-5.246094 3.886719-2.199219.550781-4.519531.203125-6.460937-.960938l-35.347657-21.207031 25.597657-38.402344 14.253906-21.332031 7.507812-11.265625c2.210938-3.375 6.488282-4.730469 10.238282-3.242187l26.96875 10.785156c2.320312.929687 4.117187 2.832031 4.914062 5.199218.796875 2.371094.515625 4.972657-.769531 7.117188zm0 0" fill="#f5f5f5"/><path d="m262.492188 261.984375c-4.488282 3.609375-9.253907 6.863281-14.25 9.730469 4.933593-2.96875 9.691406-6.214844 14.25-9.730469zm0 0" fill="#fdd7ad"/><path d="m307.207031 173.152344c-.011719 4.050781-.242187 8.09375-.683593 12.117187-.425782 3.671875-1.023438 7.339844-1.792969 10.925781-.40625 2.105469-.949219 4.1875-1.621094 6.226563-.347656 1.445313-.773437 2.871094-1.277344 4.269531-.511719 1.621094-1.027343 3.15625-1.621093 4.691406-2.386719 6.347657-5.359376 12.464844-8.875 18.261719-.597657.9375-1.109376 1.792969-1.707032 2.644531-1.550781 2.476563-3.234375 4.871094-5.035156 7.167969-.683594.941407-1.367188 1.878907-2.046875 2.730469-1.109375 1.367188-2.21875 2.730469-3.5 4.097656-.9375 1.109375-1.878906 2.21875-2.902344 3.242188-1.023437 1.109375-2.046875 2.132812-3.070312 3.15625-3.074219 2.988281-6.230469 5.804687-9.558594 8.535156l-1.023437.765625c-4.558594 3.515625-9.316407 6.761719-14.25 9.730469-2.644532 1.535156-5.292969 2.984375-8.023438 4.265625-2.730469 1.367187-5.546875 2.644531-8.363281 3.839843-.167969.085938-.253907.085938-.339844.171876-2.816406 1.109374-5.546875 2.132812-8.449219 3.070312-2.644531.9375-5.375 1.707031-8.105468 2.476562-3.328126.851563-6.742188 1.621094-10.15625 2.304688-.9375.167969-1.875.339844-2.8125.425781-1.453126.253907-2.988282.511719-4.523438.683594-6.050781.828125-12.15625 1.226563-18.261719 1.191406-4.011719 0-7.9375-.167969-11.777343-.511719-2.21875-.167968-4.351563-.339843-6.484376-.679687-1.535156-.171875-3.070312-.429687-4.523437-.683594-.9375-.085937-1.875-.257812-2.816406-.425781-3.421875-.597656-6.808594-1.367188-10.152344-2.304688-2.648437-.683593-5.292969-1.453124-7.851563-2.390624-.277343-.007813-.542968-.09375-.769531-.257813-2.695312-.824219-5.34375-1.792969-7.933593-2.898437-3.5-1.453126-7-3.074219-10.328126-4.78125-2.21875-1.109376-4.351562-2.300782-6.484374-3.582032-2.644532-1.535156-5.203126-3.15625-7.679688-4.863281-2.304688-1.535156-4.609375-3.242187-6.828125-5.035156-.167969-.085938-.339844-.257813-.59375-.425781-2.21875-1.792969-4.4375-3.671876-6.574219-5.632813-14.148437-12.859375-24.855468-29.050781-31.144531-47.105469-.511719-1.363281-.9375-2.730468-1.367187-4.179687-.425782-1.453125-.851563-2.902344-1.191407-4.4375-.421875-1.34375-.765625-2.710938-1.027343-4.097657l-1.023438-5.117187c-.253906-1.792969-.511719-3.585937-.765625-5.464844-.445313-4.023437-.671875-8.066406-.683594-12.117187-.003906-3.417969.167969-6.835938.511719-10.238282 0-.257812.085938-.511718.085938-.769531.085937-1.429687.257812-2.855469.511718-4.265625.171875-1.660156.429688-3.3125.765625-4.949218.597657-2.988282 1.367188-5.886719 2.136719-8.789063v-.085937l4.519531-24.574219c3.074219-.769531 6.058594-1.539063 8.960938-2.476563 37.292969-10.835937 56.917969-27.988281 66.902343-40.703125 1.664063-2.097656 3.203126-4.292969 4.609376-6.570312 2.050781-3.101563 3.6875-6.457031 4.863281-9.984375 3.082031 4.894531 6.75 9.394531 10.921875 13.398437 14.078125 14.335938 43.347656 35.496094 94.378906 38.3125 2.644531.171875 5.375.257813 8.191406.257813 7.6875.15625 15.378906-.101563 23.039063-.769532 8.925781 10.414063 16.308593 22.050782 21.933593 34.5625.679688 2.472657 1.277344 4.949219 1.789063 7.421876.339844 1.636718.597656 3.289062.769531 4.949218.253906 1.410156.425782 2.835938.511719 4.265625 0 .257813.085937.511719.085937.769531.34375 3.402344.515626 6.820313.511719 10.238282zm0 0" fill="#dfc49c"/><path d="m283.570312 173.152344c-.011718 4.050781-.242187 8.09375-.683593 12.117187-.425781 3.671875-1.023438 7.339844-1.792969 10.925781-.410156 2.105469-.949219 4.1875-1.621094 6.226563-.347656 1.445313-.773437 2.871094-1.28125 4.269531-.511718 1.621094-1.023437 3.15625-1.621094 4.691406-2.382812 6.347657-5.355468 12.464844-8.875 18.261719-.59375.9375-1.105468 1.792969-1.703124 2.644531-1.554688 2.476563-3.234376 4.871094-5.035157 7.167969-.683593.941407-1.367187 1.878907-2.050781 2.730469-1.109375 1.367188-2.21875 2.730469-3.496094 4.097656-.941406 1.109375-1.878906 2.21875-2.902344 3.242188-1.023437 1.109375-2.046874 2.132812-3.070312 3.15625-3.074219 2.988281-6.230469 5.804687-9.558594 8.535156l-1.023437.765625c-4.558594 3.515625-9.316407 6.761719-14.25 9.730469-2.648438 1.535156-5.292969 2.984375-8.023438 4.265625-2.730469 1.367187-5.546875 2.644531-8.363281 3.839843-.167969.085938-.253906.085938-.339844.171876-2.816406 1.109374-5.546875 2.132812-8.449218 3.070312-2.644532.9375-5.375 1.707031-8.105469 2.476562-3.328125.851563-6.742188 1.621094-10.15625 2.304688-.9375.167969-1.875.339844-2.816407.425781-1.449218.253907-2.984374.511719-4.519531.683594-2.136719.339844-4.269531.511719-6.402343.679687-2.21875-.167968-4.351563-.339843-6.484376-.679687-1.535156-.171875-3.070312-.429687-4.523437-.683594-.9375-.085937-1.875-.257812-2.816406-.425781-3.421875-.597656-6.808594-1.367188-10.152344-2.304688-2.648437-.683593-5.292969-1.453124-7.851563-2.390624-.277343-.007813-.542968-.09375-.769531-.257813-2.695312-.824219-5.34375-1.792969-7.933593-2.898437-3.5-1.453126-7-3.074219-10.328126-4.78125-2.21875-1.109376-4.351562-2.300782-6.484374-3.582032-2.644532-1.535156-5.203126-3.15625-7.679688-4.863281-2.304688-1.535156-4.609375-3.242187-6.828125-5.035156-.167969-.085938-.339844-.257813-.59375-.425781-2.21875-1.792969-4.4375-3.671876-6.574219-5.632813-14.148437-12.859375-24.855468-29.050781-31.144531-47.105469-.511719-1.363281-.9375-2.730468-1.367187-4.179687-.425782-1.453125-.851563-2.902344-1.191407-4.4375-.421875-1.34375-.765625-2.710938-1.027343-4.097657l-1.023438-5.117187c-.253906-1.792969-.511719-3.585937-.765625-5.464844-.445313-4.023437-.671875-8.066406-.683594-12.117187-.003906-3.417969.167969-6.835938.511719-10.238282 0-.257812.085938-.511718.085938-.769531.085937-1.429687.257812-2.855469.511718-4.265625.171875-1.660156.429688-3.3125.765625-4.949218.597657-2.988282 1.367188-5.886719 2.136719-8.789063v-.085937l4.519531-24.574219c3.074219-.769531 6.058594-1.539063 8.960938-2.476563 37.292969-10.835937 56.917969-27.988281 66.902343-40.703125 17.40625 16.296875 52.992188 38.398438 114.773438 35.15625 2.472656-.085937 5.035156-.253906 7.59375-.511719.222656.238282.421875.496094.597656.769532 8.71875 10.164062 15.90625 21.546875 21.332032 33.792968.683593 2.472657 1.28125 4.949219 1.792968 7.421876.339844 1.636718.597656 3.289062.769532 4.949218.253906 1.410156.425781 2.835938.511718 4.265625 0 .257813.085938.511719.085938.769531.34375 3.402344.515625 6.820313.511718 10.238282zm0 0" fill="#ffe0b2"/><path d="m51.890625 204.8125h-17.75c-14.132813-.015625-25.585937-11.46875-25.601563-25.601562.070313-14.109376 11.492188-25.527344 25.601563-25.597657h17.664063c4.710937 0 8.53125 3.820313 8.53125 8.53125 0 4.714844-3.820313 8.535157-8.53125 8.535157h-17.578126c-2.257812-.039063-4.425781.851562-6.007812 2.457031-1.671875 1.578125-2.617188 3.777343-2.613281 6.074219.003906 4.710937 3.824219 8.53125 8.535156 8.535156h17.75c4.710937 0 8.53125 3.820312 8.53125 8.53125 0 4.714844-3.820313 8.535156-8.53125 8.535156zm0 0"/><path d="m324.273438 204.8125h-17.75c-4.710938 0-8.53125-3.820312-8.53125-8.535156 0-4.710938 3.820312-8.53125 8.53125-8.53125h17.75c4.710937-.003906 8.527343-3.824219 8.53125-8.535156.023437-2.222657-.863282-4.359376-2.449219-5.917969-1.578125-1.671875-3.78125-2.617188-6.082031-2.613281h-17.664063c-4.714844 0-8.535156-3.820313-8.535156-8.535157 0-4.710937 3.820312-8.53125 8.535156-8.53125h17.578125c14.144531.019531 25.621094 11.453125 25.6875 25.597657-.015625 14.132812-11.46875 25.585937-25.601562 25.601562zm0 0"/><path d="m324.199219 170.679688c-.171875 0-.335938 0-.5-.011719-4.699219-.277344-8.289063-4.304688-8.023438-9 .074219-1.605469.0625-11.019531.0625-12.320313-1.277343-74.183594-62.34375-133.34375-136.53125-132.269531-74.1875-1.074219-135.253906 58.085937-136.535156 132.269531 0 1.300782-.007813 10.734375.066406 12.324219.140625 4.621094-3.425781 8.515625-8.042969 8.777344-4.621093.261719-8.605468-3.203125-8.988281-7.8125-.09375-1.507813-.101562-11.871094-.101562-13.289063 1.292969-83.605468 69.992187-150.398437 153.601562-149.3359372 83.605469-1.0624998 152.308594 65.7304692 153.597657 149.3359372 0 1.417969-.007813 11.78125-.097657 13.289063-.257812 4.511719-3.988281 8.039062-8.507812 8.042969zm0 0"/><path d="m153.605469 362.679688c-4.710938 0-8.53125-3.820313-8.53125-8.535157v-66.300781c0-4.714844 3.820312-8.535156 8.53125-8.535156 4.714843 0 8.535156 3.820312 8.535156 8.535156v66.300781c0 4.714844-3.820313 8.535157-8.535156 8.535157zm0 0"/><path d="m204.804688 362.679688c-4.710938 0-8.53125-3.820313-8.53125-8.535157v-66.300781c0-4.714844 3.820312-8.535156 8.53125-8.535156 4.714843 0 8.535156 3.820312 8.535156 8.535156v66.300781c0 4.714844-3.820313 8.535157-8.535156 8.535157zm0 0"/><path d="m332.804688 512.011719h-307.199219c-14.132813-.015625-25.5820315-11.46875-25.5976565-25.597657v-51.203124c-.1250005-51.308594 35.0468755-95.96875 84.9570315-107.878907 2.96875-.71875 6.09375.199219 8.199218 2.410157 2.105469 2.210937 2.867188 5.375 2 8.304687-.867187 2.925781-3.230468 5.167969-6.199218 5.878906-42.230469 10.078125-71.992188 47.867188-71.890625 91.285157v51.203124c.003906 4.710938 3.820312 8.527344 8.53125 8.53125h307.199219c4.714843-.003906 8.53125-3.820312 8.535156-8.53125v-4.351562c0-4.714844 3.820312-8.535156 8.535156-8.535156 4.710938 0 8.53125 3.820312 8.53125 8.535156v4.351562c-.015625 14.128907-11.46875 25.582032-25.601562 25.597657zm0 0"/><path d="m325.125 377.101562c-2.492188 0-4.863281-1.089843-6.484375-2.988281-12.839844-14.953125-30.042969-25.511719-49.191406-30.191406-2.96875-.707031-5.332031-2.949219-6.199219-5.878906-.867188-2.925781-.101562-6.09375 2.003906-8.304688 2.101563-2.210937 5.230469-3.128906 8.195313-2.40625 22.636719 5.53125 42.972656 18.011719 58.15625 35.6875 2.167969 2.53125 2.660156 6.09375 1.265625 9.117188-1.390625 3.027343-4.417969 4.964843-7.75 4.964843zm0 0"/><path d="m153.605469 341.347656h-14.25c-4.710938 0-8.53125-3.824218-8.53125-8.535156s3.820312-8.535156 8.53125-8.535156h14.25c4.714843 0 8.535156 3.824218 8.535156 8.535156s-3.820313 8.535156-8.535156 8.535156zm0 0"/><path d="m219.058594 341.347656h-14.253906c-4.710938 0-8.53125-3.824218-8.53125-8.535156s3.820312-8.535156 8.53125-8.535156h14.253906c4.710937 0 8.53125 3.824218 8.53125 8.535156s-3.820313 8.535156-8.53125 8.535156zm0 0"/><path d="m136.546875 426.679688c-3 .003906-5.78125-1.570313-7.324219-4.140626l-51.199218-85.335937c-1.285157-2.144531-1.566407-4.746094-.765626-7.113281.796876-2.371094 2.59375-4.273438 4.914063-5.203125l36.242187-14.496094c7.492188-2.964844 16.039063-.308594 20.535157 6.378906l47.359375 71.042969c1.292968 1.941406 1.738281 4.328125 1.226562 6.605469-.511718 2.277343-1.933594 4.242187-3.9375 5.445312l-42.664062 25.597657c-1.324219.796874-2.839844 1.21875-4.386719 1.21875zm-38.730469-89.667969 41.648438 69.425781 27.675781-16.605469-42.390625-63.589843zm0 0"/><path d="m221.863281 426.679688c-1.542969 0-3.058593-.421876-4.382812-1.21875l-42.664063-25.597657c-2-1.203125-3.421875-3.167969-3.933594-5.445312-.511718-2.277344-.070312-4.664063 1.222657-6.605469l47.363281-71.039062c4.492188-6.691407 13.042969-9.347657 20.539062-6.378907l36.234376 14.492188c2.320312.929687 4.117187 2.832031 4.917968 5.203125.796875 2.367187.515625 4.96875-.769531 7.113281l-51.199219 85.335937c-1.542968 2.574219-4.324218 4.144532-7.328125 4.140626zm-30.589843-36.847657 27.675781 16.605469 41.648437-69.425781-26.933594-10.769531zm0 0"/><path d="m187.738281 452.277344h-17.066406c-14.128906-.011719-25.582031-11.464844-25.597656-25.597656v-17.066407c-.015625-.996093.042969-1.988281.167969-2.976562.351562-3.082031 2.347656-5.730469 5.210937-6.917969 2.867187-1.1875 6.148437-.726562 8.578125 1.203125 2.429688 1.925781 3.617188 5.023437 3.109375 8.082031v17.675782c.003906 4.710937 3.820313 8.527343 8.53125 8.53125h17.066406c4.710938-.003907 8.53125-3.820313 8.535157-8.53125v-17.066407c-.664063-4.734375 2.554687-9.136719 7.265624-9.9375 2.207032-.386719 4.472657.136719 6.285157 1.449219 1.816406 1.3125 3.023437 3.300781 3.347656 5.511719.128906.988281.183594 1.980469.167969 2.976562v17.066407c-.015625 14.132812-11.46875 25.585937-25.601563 25.597656zm0 0"/><path d="m145.082031 512.011719c-2.679687 0-5.203125-1.253907-6.816406-3.394531-1.617187-2.136719-2.132813-4.90625-1.402344-7.484376l17.070313-59.734374c1.292968-4.53125 6.019531-7.15625 10.554687-5.859376 4.53125 1.296876 7.15625 6.019532 5.859375 10.554688l-17.066406 59.734375c-1.050781 3.65625-4.394531 6.179687-8.199219 6.183594zm0 0"/><path d="m213.332031 512.011719c-3.808593-.003907-7.152343-2.527344-8.199219-6.1875l-17.066406-59.734375c-1.296875-4.53125 1.328125-9.257813 5.859375-10.554688 4.535157-1.292968 9.257813 1.328125 10.554688 5.863282l17.066406 59.734374c.734375 2.574219.21875 5.347657-1.398437 7.484376-1.613282 2.140624-4.136719 3.394531-6.816407 3.394531zm0 0"/><path d="m102.40625 477.878906h-51.199219c-4.714843 0-8.535156-3.820312-8.535156-8.53125 0-4.714844 3.820313-8.535156 8.535156-8.535156h51.199219c4.714844 0 8.535156 3.820312 8.535156 8.535156 0 4.710938-3.820312 8.53125-8.535156 8.53125zm0 0"/><path d="m409.605469 512.011719c-56.554688 0-102.398438-45.84375-102.398438-102.398438 0-56.554687 45.84375-102.402343 102.398438-102.402343 56.554687 0 102.402343 45.847656 102.402343 102.402343-.0625 56.527344-45.875 102.335938-102.402343 102.398438zm0-187.734375c-47.128907 0-85.332031 38.207031-85.332031 85.335937 0 47.128907 38.203124 85.332031 85.332031 85.332031 47.128906 0 85.335937-38.203124 85.335937-85.332031-.054687-47.105469-38.230468-85.28125-85.335937-85.335937zm0 0"/><path d="m413.875 460.8125h-29.867188c-4.714843 0-8.535156-3.820312-8.535156-8.535156 0-4.710938 3.820313-8.53125 8.535156-8.53125h29.867188c7.066406 0 12.796875-5.730469 12.796875-12.800782 0-7.070312-5.730469-12.800781-12.796875-12.800781h-8.535156c-16.496094 0-29.867188-13.371093-29.867188-29.867187 0-16.492188 13.371094-29.863282 29.867188-29.863282h29.867187c4.710938 0 8.53125 3.820313 8.53125 8.53125 0 4.714844-3.820312 8.535157-8.53125 8.535157h-29.867187c-7.070313 0-12.800782 5.730469-12.800782 12.796875 0 7.070312 5.730469 12.800781 12.800782 12.800781h8.535156c16.492188 0 29.863281 13.371094 29.863281 29.867187 0 16.496094-13.371093 29.867188-29.863281 29.867188zm0 0"/><path d="m409.605469 375.480469c-4.710938 0-8.53125-3.820313-8.53125-8.535157v-17.066406c0-4.710937 3.820312-8.53125 8.53125-8.53125 4.714843 0 8.535156 3.820313 8.535156 8.53125v17.066406c0 4.714844-3.820313 8.535157-8.535156 8.535157zm0 0"/><path d="m409.605469 477.878906c-4.710938 0-8.53125-3.820312-8.53125-8.53125v-17.070312c0-4.710938 3.820312-8.53125 8.53125-8.53125 4.714843 0 8.535156 3.820312 8.535156 8.53125v17.070312c0 4.710938-3.820313 8.53125-8.535156 8.53125zm0 0"/><path d="m40.972656 368.992188c-1.894531.003906-3.738281-.628907-5.234375-1.796876-27.824219-21.664062-35.289062-62.847656-17.75-97.933593 15.511719-31.011719 7.875-70.921875 7.800781-71.320313-.808593-4.570312 2.183594-8.945312 6.734376-9.855468 4.550781-.90625 8.992187 1.988281 10 6.519531.375 1.863281 8.898437 45.957031-9.265626 82.289062-13.917968 27.835938-8.46875 60.148438 12.96875 76.835938 2.878907 2.238281 4.011719 6.058593 2.828126 9.507812-1.1875 3.445313-4.429688 5.761719-8.078126 5.757813zm0 0"/><path d="m317.464844 368.992188c-3.644532.003906-6.890625-2.308594-8.078125-5.757813-1.183594-3.445313-.046875-7.265625 2.828125-9.507813 21.433594-16.683593 26.890625-49 12.96875-76.832031-18.164063-36.332031-9.640625-80.429687-9.265625-82.292969 1.007812-4.527343 5.449219-7.421874 10-6.515624s7.542969 5.285156 6.734375 9.855468c-.074219.398438-7.707032 40.308594 7.800781 71.320313 17.53125 35.085937 10.070313 76.269531-17.757813 97.933593-1.496093 1.164063-3.335937 1.800782-5.230468 1.796876zm0 0"/><path d="m55.242188 152.675781c-2.535157 0-4.9375-1.125-6.558594-3.070312-1.621094-1.945313-2.296875-4.507813-1.84375-7l4.523437-24.664063c.917969-4.566406 5.328125-7.550781 9.90625-6.710937 4.582031.84375 7.644531 5.203125 6.875 9.796875l-4.519531 24.660156c-.746094 4.046875-4.273438 6.980469-8.382812 6.988281zm0 0"/><path d="m179.222656 298.679688c-9.109375.015624-18.199218-.804688-27.15625-2.445313-52.234375-8.265625-94.347656-47.179687-106.710937-98.597656-.832031-3.75-1.472657-7.542969-1.921875-11.363281-.484375-4.355469-.734375-8.734376-.742188-13.121094-.019531-4.011719.195313-8.023438.648438-12.011719.25-3.015625.785156-6.324219 1.34375-9.628906.664062-3.34375 1.457031-6.351563 2.246094-9.351563.984374-4.214844 4.964843-7.023437 9.261718-6.539062s7.554688 4.109375 7.574219 8.433594v.085937c0 .734375-.09375 1.46875-.285156 2.179687-.722657 2.734376-1.449219 5.46875-2.015625 8.285157-.425782 2.578125-.910156 5.417969-1.148438 8.253906-.390625 3.417969-.574218 6.855469-.558594 10.292969.007813 3.742187.21875 7.480468.632813 11.203125.386719 3.242187.933594 6.464843 1.640625 9.652343 10.921875 44.695313 47.683594 78.414063 93.152344 85.445313 15.898437 2.875 32.183594 2.875 48.082031-.003906 45.320313-7.074219 82.007813-40.582031 93.148437-85.078125.699219-3.285156 1.25-6.691406 1.652344-10.097656.402344-3.691407.613282-7.40625.625-11.121094.015625-3.339844-.164062-6.679688-.542968-10.003906-.265626-3.125-.75-5.964844-1.226563-8.804688-.414063-1.988281-.964844-4.277344-1.597656-6.570312-5.242188-11.347657-12.058594-21.902344-20.242188-31.351563-2.917969-3.621094-2.398437-8.914063 1.167969-11.898437 3.5625-2.984376 8.863281-2.566407 11.914062.941406 9.699219 11.238281 17.636719 23.882812 23.535157 37.503906.808593 2.921875 1.457031 5.585938 2 8.246094.617187 3.601562 1.148437 6.910156 1.421875 10.214844.445312 3.890624.65625 7.808593.636718 11.722656-.015624 4.351562-.257812 8.695312-.734374 13.019531-.476563 4.03125-1.109376 7.960937-1.933594 11.808594-12.582032 51.21875-54.617188 89.925781-106.699219 98.25-8.960937 1.640625-18.054687 2.460937-27.167969 2.449219zm0 0"/><path d="m59.75 128.011719c-4.3125-.007813-7.9375-3.230469-8.457031-7.507813-.515625-4.277344 2.238281-8.273437 6.421875-9.308594 66.949218-16.507812 78.726562-52.367187 79.199218-53.882812 1.003907-3.257812 3.839844-5.617188 7.226563-6.007812 3.378906-.398438 6.667969 1.257812 8.363281 4.207031 1.289063 2.203125 33.089844 54.824219 128.414063 46.929687 4.699219-.390625 8.824219 3.097656 9.214843 7.796875.390626 4.695313-3.101562 8.820313-7.796874 9.210938-78.933594 6.628906-119.464844-25.570313-135.800782-43.761719-9.914062 15.222656-33.15625 39.363281-84.734375 52.074219-.671875.167969-1.359375.25-2.050781.25zm0 0"/></svg>