<svg height="512pt" viewBox="0 0 512 512" width="512pt" xmlns="http://www.w3.org/2000/svg"><path d="m349.609375 489.386719c-1.527344 7.996093-8.5 13.789062-16.640625 13.824219l-42.664062.085937h-17.066407l-187.734375.339844h-17.066406l-42.667969.085937c-9.429687-.019531-17.082031-7.636718-17.152343-17.066406l-.082032-51.199219c0-2.902343.082032-5.71875.339844-8.535156v-.253906c4.167969-49.824219 43.703125-89.355469 93.523438-93.527344v.085937c2.730468-.257812 5.546874-.339843 8.363281-.339843l136.535156-.171875c2.902344 0 5.714844.085937 8.53125.339844l.171875.085937c19.640625 1.636719 38.394531 8.894531 54.015625 20.90625l21.078125 72.363281h.085938zm0 0" fill="#3f5c6c"/><path d="m349.609375 489.386719c-1.527344 7.996093-8.5 13.789062-16.640625 13.824219l-42.664062.085937h-17.066407l-187.734375.339844h-17.066406l-42.667969.085937c-9.429687-.019531-17.082031-7.636718-17.152343-17.066406l-.082032-51.199219c0-2.902343.082032-5.71875.339844-8.535156h33.792969c-.085938-51.199219 59.648437-59.902344 59.648437-59.902344l-.085937-33.792969h.167969c2.730468-.257812 5.546874-.339843 8.363281-.339843l136.535156-.171875c2.902344 0 5.714844.085937 8.53125.339844l.085937 33.792968s59.734376 8.363282 59.820313 59.5625h15.445313zm0 0" fill="#3f51b5"/><path d="m204.800781 296.449219v61.949219c0 14.140624-11.460937 25.601562-25.601562 25.601562-14.136719 0-25.597657-11.460938-25.597657-25.601562v-61.949219zm0 0" fill="#ffe0b2"/><path d="m102.398438 333.140625v26.878906c-.007813 3.929688-2.695313 7.347657-6.507813 8.289063-14.496094 3.675781-48.492187 15.949218-52.777344 50.882812-.515625 4.257813-4.125 7.464844-8.414062 7.476563h-25.824219c4.167969-49.824219 43.703125-89.355469 93.523438-93.527344zm0 0" fill="#7f8e94"/><path d="m331.179688 426.667969h-15.445313c0-40.699219-37.738281-54.4375-53.222656-58.363281-3.816407-.9375-6.5-4.355469-6.511719-8.285157v-26.878906c19.640625 1.636719 38.394531 8.894531 54.015625 20.90625zm0 0" fill="#7f8e94"/><path d="m401.066406 298.667969c-56.554687 0-102.398437 45.84375-102.398437 102.398437 0 56.554688 45.84375 102.398438 102.398437 102.398438 56.554688 0 102.398438-45.84375 102.398438-102.398438.007812-27.160156-10.777344-53.210937-29.980469-72.414062-19.207031-19.207032-45.257813-29.992188-72.417969-29.984375zm0 34.132812c24.617188.007813 47.316406 13.28125 59.390625 34.730469-1.875 2.984375-13.054687 16.46875-59.390625 16.46875-46.421875 0-57.515625-13.484375-59.390625-16.46875 12.074219-21.449219 34.777344-34.722656 59.390625-34.730469zm0 136.53125c-24.613281-.003906-47.316406-13.28125-59.390625-34.730469 1.875-2.984374 12.96875-16.46875 59.390625-16.46875 46.335938 0 57.515625 13.484376 59.390625 16.46875-12.074219 21.449219-34.773437 34.726563-59.390625 34.730469zm0 0" fill="#7f8c8d"/><path d="m401.066406 298.667969c-56.554687 0-102.398437 45.84375-102.398437 102.398437 0 56.554688 45.84375 102.398438 102.398437 102.398438 56.554688 0 102.398438-45.84375 102.398438-102.398438.007812-27.160156-10.777344-53.210937-29.980469-72.414062-19.207031-19.207032-45.257813-29.992188-72.417969-29.984375zm59.390625 135.933593c-16.847656 29.605469-53.046875 42.113282-84.578125 29.226563-31.53125-12.890625-48.605468-47.175781-39.890625-80.105469 8.714844-32.933594 40.511719-54.285156 74.289063-49.890625 33.78125 4.394531 59.054687 33.171875 59.054687 67.234375-.015625 11.757813-3.074219 23.308594-8.875 33.535156zm0 0" fill="#7f8e94"/><path d="m503.464844 401.066406c.007812 27.160156-10.777344 53.210938-29.980469 72.417969-19.207031 19.203125-45.257813 29.988281-72.417969 29.980469-3.933594-.007813-7.867187-.234375-11.777344-.679688 51.617188-6.023437 90.539063-49.753906 90.539063-101.71875s-38.921875-95.691406-90.539063-101.71875c3.910157-.441406 7.84375-.671875 11.777344-.679687 27.160156-.007813 53.210938 10.777343 72.417969 29.984375 19.203125 19.203125 29.988281 45.253906 29.980469 72.414062zm0 0" fill="#545c60"/><path d="m469.332031 401.066406c.011719 11.761719-3.046875 23.320313-8.875 33.535156-1.875-2.984374-13.054687-16.46875-59.390625-16.46875-46.421875 0-57.515625 13.484376-59.390625 16.46875-11.835937-20.789062-11.835937-46.277343 0-67.070312 1.875 2.984375 12.96875 16.46875 59.390625 16.46875 46.335938 0 57.515625-13.484375 59.390625-16.46875 5.828125 10.214844 8.886719 21.773438 8.875 33.535156zm0 0" fill="#607d8b"/><path d="m332.800781 145.066406c.015625 40.742188-16.164062 79.820313-44.972656 108.628906-28.808594 28.808594-67.886719 44.988282-108.628906 44.972657-3.925781 0-7.851563-.171875-11.773438-.429688-80.035156-6.160156-141.832031-72.902343-141.824219-153.171875-.050781-36.226562 14.320313-70.980468 39.933594-96.597656 25.617188-25.613281 60.371094-39.984375 96.597656-39.933594h34.132813c36.214844-.011718 70.949219 14.371094 96.554687 39.976563 25.609376 25.609375 39.988282 60.339843 39.980469 96.554687zm0 0" fill="#283593"/><path d="m309.164062 145.066406c.019532 80.246094-61.734374 146.980469-141.738281 153.171875-80.035156-6.160156-141.832031-72.902343-141.824219-153.171875-.050781-36.226562 14.320313-70.980468 39.933594-96.597656 25.617188-25.613281 60.371094-39.984375 96.597656-39.933594h10.496094c75.402344.007813 136.523438 61.128906 136.535156 136.53125zm0 0" fill="#3f51b5"/><path d="m298.667969 128v8.535156c.003906 18.105469-7.1875 35.472656-19.992188 48.277344-12.800781 12.800781-30.167969 19.992188-48.277343 19.988281h-102.398438c-18.105469.003907-35.472656-7.1875-48.277344-19.988281-12.804687-12.804688-19.996094-30.171875-19.988281-48.277344v-8.535156c-.011719-6.792969 2.683594-13.308594 7.488281-18.113281 4.800782-4.800781 11.316406-7.496094 18.109375-7.488281h187.734375c6.792969-.007813 13.308594 2.6875 18.113282 7.488281 4.800781 4.804687 7.496093 11.320312 7.488281 18.113281zm0 0" fill="#02a9f4"/><path d="m298.667969 128v8.535156c.003906 18.105469-7.1875 35.472656-19.992188 48.277344-12.800781 12.800781-30.167969 19.992188-48.277343 19.988281h-85.332032c19.976563-49.421875 61.320313-87.097656 112.382813-102.402343h15.617187c6.792969-.007813 13.308594 2.6875 18.113282 7.488281 4.800781 4.804687 7.496093 11.320312 7.488281 18.113281zm0 0" fill="#0377bc"/><path d="m153.601562 366.933594c-4.714843 0-8.535156-3.820313-8.535156-8.535156v-61.949219c0-4.714844 3.820313-8.535157 8.535156-8.535157 4.710938 0 8.53125 3.820313 8.53125 8.535157v61.949219c0 4.714843-3.820312 8.535156-8.53125 8.535156zm0 0"/><path d="m204.800781 366.933594c-4.714843 0-8.535156-3.820313-8.535156-8.535156v-61.949219c0-4.714844 3.820313-8.535157 8.535156-8.535157 4.710938 0 8.53125 3.820313 8.53125 8.535157v61.949219c0 4.714843-3.820312 8.535156-8.53125 8.535156zm0 0"/><path d="m332.800781 512h-307.199219c-14.132812-.015625-25.585937-11.46875-25.601562-25.601562v-51.199219c.0703125-61.238281 49.695312-110.863281 110.933594-110.933594h42.667968c4.710938 0 8.53125 3.820313 8.53125 8.535156 0 4.710938-3.820312 8.53125-8.53125 8.53125h-42.667968c-51.816406.058594-93.808594 42.050781-93.867188 93.867188v51.199219c.003906 4.710937 3.824219 8.53125 8.535156 8.535156h307.199219c4.078125-.019532 7.578125-2.921875 8.347657-6.929688.90625-4.625 5.386718-7.640625 10.015624-6.738281 4.625.90625 7.640626 5.386719 6.734376 10.015625-2.347657 12.007812-12.859376 20.6875-25.097657 20.71875zm0 0"/><path d="m310.007812 362.582031c-1.878906 0-3.710937-.625-5.199218-1.769531-14.324219-11.019531-31.515625-17.675781-49.527344-19.167969-2.621094-.242187-5.179688-.3125-7.816406-.3125h-42.664063c-4.714843 0-8.535156-3.820312-8.535156-8.53125 0-4.714843 3.820313-8.535156 8.535156-8.535156h42.664063c3.167968 0 6.242187.097656 9.320312.378906 21.25 1.777344 41.539063 9.636719 58.4375 22.644531 2.894532 2.230469 4.050782 6.054688 2.871094 9.515626-1.179688 3.460937-4.433594 5.78125-8.089844 5.777343zm0 0"/><path d="m179.199219 307.199219c-89.5-.101563-162.03125-72.632813-162.132813-162.132813.089844-80.082031 64.984375-144.9765622 145.066406-145.066406h34.132813c80.082031.0898438 144.976563 64.984375 145.066406 145.066406-.101562 89.5-72.628906 162.03125-162.132812 162.132813zm-17.066407-290.132813c-70.660156.078125-127.921874 57.339844-128 128 0 80.117188 64.949219 145.066406 145.066407 145.066406 80.117187 0 145.066406-64.949218 145.066406-145.066406-.078125-70.660156-57.339844-127.921875-128-128zm0 0"/><path d="m230.398438 213.332031h-102.398438c-42.394531-.046875-76.753906-34.402343-76.800781-76.796875v-8.535156c.019531-18.84375 15.289062-34.113281 34.132812-34.132812h187.734375c18.84375.019531 34.113282 15.289062 34.132813 34.132812v8.535156c-.046875 42.394532-34.402344 76.75-76.800781 76.796875zm-145.066407-102.398437c-9.417969.011718-17.054687 7.644531-17.066406 17.066406v8.535156c.039063 32.972656 26.761719 59.695313 59.734375 59.730469h102.398438c32.976562-.035156 59.695312-26.757813 59.734374-59.730469v-8.535156c-.011718-9.421875-7.644531-17.054688-17.066406-17.066406zm0 0"/><path d="m42.667969 435.199219h-34.132813c-4.714844 0-8.535156-3.820313-8.535156-8.53125 0-4.714844 3.820312-8.535157 8.535156-8.535157h26.113282c4.476562-35.933593 36.902343-52.863281 59.222656-58.226562v-27.105469c0-4.714843 3.820312-8.535156 8.53125-8.535156 4.714844 0 8.535156 3.820313 8.535156 8.535156v34.132813c0 4.246094-3.121094 7.847656-7.324219 8.449218-2.128906.308594-52.414062 8.210938-52.414062 51.285157 0 4.710937-3.820313 8.53125-8.53125 8.53125zm0 0"/><path d="m299.519531 396.289062c-2.21875.003907-4.351562-.863281-5.941406-2.414062-10.992187-9.601562-24.414063-16-38.796875-18.492188-4.195312-.613281-7.308594-4.210937-7.316406-8.449218v-33.792969c-.011719-4.746094 3.789062-8.625 8.535156-8.703125 2.246094-.039062 4.414062.824219 6.015625 2.394531 1.605469 1.574219 2.511719 3.722657 2.519531 5.96875v27.207031c15.25 3.625 29.332032 11.066407 40.921875 21.625 2.496094 2.417969 3.277344 6.109376 1.972657 9.328126-1.308594 3.222656-4.433594 5.328124-7.910157 5.328124zm0 0"/><path d="m179.199219 392.535156c-18.84375-.023437-34.113281-15.292968-34.132813-34.136718v-25.597657c0-4.714843 3.820313-8.535156 8.535156-8.535156 4.710938 0 8.53125 3.820313 8.53125 8.535156v25.597657c0 9.425781 7.640626 17.066406 17.066407 17.066406s17.066406-7.640625 17.066406-17.066406v-25.597657c0-4.714843 3.820313-8.535156 8.535156-8.535156 4.710938 0 8.53125 3.820313 8.53125 8.535156v25.597657c-.019531 18.84375-15.289062 34.113281-34.132812 34.136718zm0 0"/><path d="m162.132812 264.535156c-4.710937 0-8.53125-3.824218-8.53125-8.535156v-17.066406c0-4.714844 3.820313-8.535156 8.53125-8.535156 4.714844 0 8.535157 3.820312 8.535157 8.535156v17.066406c0 4.710938-3.820313 8.535156-8.535157 8.535156zm0 0"/><path d="m196.265625 264.535156c-4.710937 0-8.53125-3.824218-8.53125-8.535156v-17.066406c0-4.714844 3.820313-8.535156 8.53125-8.535156 4.714844 0 8.535156 3.820312 8.535156 8.535156v17.066406c0 4.710938-3.820312 8.535156-8.535156 8.535156zm0 0"/><path d="m102.398438 162.132812c-3.449219 0-6.558594-2.078124-7.878907-5.265624-1.320312-3.191407-.59375-6.859376 1.847657-9.300782l17.066406-17.066406c3.347656-3.234375 8.671875-3.1875 11.960937.105469 3.292969 3.289062 3.339844 8.613281.105469 11.960937l-17.066406 17.066406c-1.597656 1.601563-3.769532 2.503907-6.035156 2.5zm0 0"/><path d="m136.535156 170.667969c-3.453125-.003907-6.5625-2.082031-7.882812-5.269531-1.320313-3.1875-.59375-6.859376 1.847656-9.296876l25.601562-25.601562c3.347657-3.234375 8.667969-3.1875 11.960938.105469 3.292969 3.289062 3.335938 8.613281.105469 11.960937l-25.601563 25.601563c-1.597656 1.601562-3.769531 2.5-6.03125 2.5zm0 0"/><path d="m76.800781 512c-4.714843 0-8.535156-3.820312-8.535156-8.535156v-42.664063c0-4.714843 3.820313-8.535156 8.535156-8.535156 4.710938 0 8.53125 3.820313 8.53125 8.535156v42.664063c0 4.714844-3.820312 8.535156-8.53125 8.535156zm0 0"/><path d="m281.601562 512c-4.714843 0-8.535156-3.820312-8.535156-8.535156v-42.664063c0-4.714843 3.820313-8.535156 8.535156-8.535156 4.710938 0 8.53125 3.820313 8.53125 8.535156v42.664063c0 4.714844-3.820312 8.535156-8.53125 8.535156zm0 0"/><path d="m401.066406 512c-61.265625 0-110.933594-49.667969-110.933594-110.933594s49.667969-110.933594 110.933594-110.933594 110.933594 49.667969 110.933594 110.933594c-.070312 61.238282-49.695312 110.863282-110.933594 110.933594zm0-204.800781c-51.839844 0-93.867187 42.027343-93.867187 93.867187s42.027343 93.867188 93.867187 93.867188 93.867188-42.027344 93.867188-93.867188c-.058594-51.816406-42.050782-93.808594-93.867188-93.867187zm0 0"/><path d="m401.066406 477.867188c-31.0625 0-59.066406-18.710938-70.953125-47.410157s-5.316406-61.730469 16.648438-83.695312c21.964843-21.964844 54.996093-28.535157 83.695312-16.648438s47.410157 39.890625 47.410157 70.953125c-.046876 42.394532-34.40625 76.753906-76.800782 76.800782zm0-136.535157c-32.988281 0-59.734375 26.746094-59.734375 59.734375 0 32.988282 26.746094 59.734375 59.734375 59.734375 32.988282 0 59.734375-26.746093 59.734375-59.734375-.039062-32.972656-26.761719-59.695312-59.734375-59.734375zm0 0"/><path d="m401.066406 392.535156c-55.058594 0-65.933594-18.476562-67.550781-22.179687-1.863281-4.3125.109375-9.320313 4.410156-11.203125 4.304688-1.882813 9.320313.0625 11.222657 4.355468.09375-.003906 8.792968 11.957032 51.917968 11.957032 43.84375 0 52.101563-12.363282 52.183594-12.488282.902344-2.042968 2.589844-3.628906 4.679688-4.40625 2.089843-.777343 4.40625-.679687 6.421874.273438 4.3125 2.039062 6.207032 7.152344 4.265626 11.511719-1.617188 3.703125-12.492188 22.179687-67.550782 22.179687zm0 0"/><path d="m341.375 444.050781c-1.238281-.003906-2.460938-.261719-3.589844-.761719-4.316406-2.039062-6.210937-7.152343-4.269531-11.511718 1.617187-3.703125 12.492187-22.175782 67.550781-22.175782s65.933594 18.472657 67.550782 22.175782c1.871093 4.230468.035156 9.175781-4.140626 11.160156-4.175781 1.984375-9.171874.285156-11.269531-3.832031-.632812-.894531-9.773437-12.4375-52.140625-12.4375-43.839844 0-52.101562 12.363281-52.183594 12.492187-1.289062 2.992188-4.246093 4.921875-7.507812 4.890625zm0 0"/><path d="m401.066406 477.867188c-4.710937 0-8.53125-3.820313-8.53125-8.535157v-51.199219c0-4.710937 3.820313-8.53125 8.53125-8.53125 4.714844 0 8.535156 3.820313 8.535156 8.53125v51.199219c0 4.714844-3.820312 8.535157-8.535156 8.535157zm0 0"/></svg>