<svg height="503pt" viewBox="0 0 503 503.96608" width="503pt" xmlns="http://www.w3.org/2000/svg"><path d="m350.238281 407.273438-23.921875-1.425782-285.542968-17.375c-25.011719-19.472656-30.050782-56.070312-15.109376-85.949218 16.785157-33.574219 8.394532-79.738282 8.394532-79.738282h285.375s-.167969 5.203125-.503906 7.050782c-1.507813 10.074218-5.285157 44.316406 8.898437 72.6875 9.539063 18.570312 10.996094 40.25 4.027344 59.929687zm0 0" fill="#783e22"/><path d="m326.316406 405.847656-285.542968-17.375c-25.011719-19.472656-30.050782-56.070312-15.109376-85.949218 16.785157-33.574219 8.394532-79.738282 8.394532-79.738282h262.125s-.167969 5.203125-.503906 7.050782c-1.507813 10.074218-5.285157 44.316406 8.898437 72.6875 9.535156 18.570312 10.996094 40.25 4.027344 59.929687zm0 0" fill="#a0522d"/><path d="m319.433594 180.820312c0 1.339844 0 15.359376-.082032 16.785157h-285.210937c-.082031-1.425781-.082031-15.445313-.082031-16.785157.089844-41.597656 19.160156-80.878906 51.785156-106.683593l79.320312-14.601563 11.582032-2.183594 90.902344 16.785157c32.625 25.804687 51.695312 65.085937 51.785156 106.683593zm0 0" fill="#6d4122"/><path d="m296.183594 180.820312c0 1.339844 0 15.359376-.082032 16.785157h-261.960937c-.082031-1.425781-.082031-15.445313-.082031-16.785157.089844-41.597656 19.160156-80.878906 51.785156-106.683593l79.320312-14.601563 79.234376 14.601563c32.628906 25.800781 51.695312 65.085937 51.785156 106.683593zm0 0" fill="#91562d"/><path d="m302.058594 193.410156h17.375c9.246094.066406 16.722656 7.542969 16.789062 16.785156-.027344 9.261719-7.527344 16.761719-16.789062 16.789063h-285.375c-9.261719-.027344-16.761719-7.527344-16.789063-16.789063.066407-9.242187 7.542969-16.71875 16.789063-16.785156zm0 0" fill="#ffe0b2"/><path d="m344.613281 462v16.785156c-.027343 9.261719-7.523437 16.761719-16.785156 16.789063h-302.164063c-9.257812-.027344-16.757812-7.527344-16.785156-16.789063v-16.785156c.003906-46.863281 32.324219-87.535156 77.972656-98.121094l51.871094-2.601562h76.046875l51.871094 2.601562c17.273437 3.953125 33.179687 12.441406 46.078125 24.59375 2.097656 1.929688 4.03125 3.945313 6.042969 6.125l18.300781 29.128906c5.042969 12.125 7.609375 25.136719 7.550781 38.273438zm0 0" fill="#283593"/><path d="m321.363281 462v16.785156c-.023437 9.261719-7.523437 16.761719-16.785156 16.789063h-278.914063c-9.257812-.027344-16.757812-7.527344-16.785156-16.789063v-16.785156c.003906-46.863281 32.324219-87.535156 77.972656-98.121094l51.871094-2.601562h52.796875l51.871094 2.601562c17.273437 3.953125 33.179687 12.441406 46.078125 24.59375 2.101562 1.929688 4.03125 3.945313 6.042969 6.125l18.300781 29.128906c5.042969 12.125 7.609375 25.136719 7.550781 38.273438zm0 0" fill="#3f51b5"/><path d="m128.953125 361.277344 47.792969 58.082031 46.164062-58.082031zm0 0" fill="#bdc3c7"/><path d="m201.925781 317.042969v63.875l-25.179687 38.441406-25.179688-38.441406v-63.875zm0 0" fill="#ffe0b2"/><path d="m243.894531 92.6875s33.574219-16.785156 33.574219-41.96875c0-25.179688-44.457031-14.921875-44.457031-14.921875s-11.8125-54.089844-56.265625-10.257813c-44.453125-43.832031-56.265625 10.257813-56.265625 10.257813s-44.457031-10.257813-44.457031 14.921875c0 25.183594 33.574218 41.96875 33.574218 41.96875 38.472656-33.574219 95.824219-33.574219 134.296875 0zm0 0" fill="#f5f5f5"/><path d="m176.746094 419.359375-33.574219 42.640625-58.753906-102.402344 35.671875-14.519531c3.6875-1.503906 7.925781-.164063 10.074218 3.191406l21.402344 32.648438zm0 0" fill="#ecf0f1"/><path d="m269.074219 359.597656-58.753907 102.402344-33.574218-42.640625 25.179687-38.441406 21.402344-32.648438c2.148437-3.355469 6.386719-4.695312 10.074219-3.191406zm0 0" fill="#ecf0f1"/><path d="m353.253906 383.824219c-35.609375-35.609375 0-83.09375 23.742188-94.960938 23.742187-11.863281 17.804687-41.546875 17.804687-41.546875s23.742188 0 35.609375 11.871094c0 0-5.933594 29.675781-17.804687 41.546875 0 0 29.675781-5.933594 41.546875-29.675781 21.746094 15.59375 36.628906 38.980468 41.542968 65.285156-19.21875-2.714844-38.117187 6.734375-47.480468 23.742188-13.652344 22.761718-47.480469 71.21875-94.960938 23.738281zm0 0" fill="#ffeb3a"/><path d="m341.386719 371.953125 23.742187 23.742187-94.960937 94.960938c-6.558594 6.554688-17.1875 6.554688-23.742188 0-6.554687-6.558594-6.554687-17.1875 0-23.742188zm0 0" fill="#825a2c"/><path d="m302.648438 204.234375c-.011719 3.984375-.238282 7.960937-.671876 11.921875-.417968 3.609375-1.007812 7.21875-1.761718 10.742188-11.808594 46.988281-50.457032 82.433593-98.289063 90.144531-8.304687 1.527343-16.734375 2.285156-25.179687 2.265625-3.945313 0-7.804688-.167969-11.582032-.5-4.5625-.332032-9.101562-.917969-13.597656-1.765625-47.972656-7.65625-86.695312-43.304688-98.289062-90.480469-.753906-3.441406-1.339844-6.882812-1.761719-10.40625-.433594-3.960938-.660156-7.9375-.671875-11.921875-.019531-3.617187.179688-7.230469.589844-10.824219.25-3.023437.753906-6.042968 1.257812-9.066406.585938-2.9375 1.34375-5.792969 2.097656-8.644531v-.085938l4.449219-24.171875c41.96875-10.324218 63.539063-25.683594 74.199219-36.761718 4.109375-3.847657 7.417969-8.46875 9.734375-13.597657 0 0 25.9375 38.859375 100.636719 42.554688 3.609375.25 7.304687.335937 11.164062.335937 7.136719 0 14.605469-.253906 22.496094-.925781 8.746094 10.265625 16.007812 21.707031 21.570312 33.996094.671876 2.433593 1.257813 4.867187 1.761719 7.300781.503907 3.023438 1.007813 6.042969 1.257813 9.066406.410156 3.59375.609375 7.207032.589844 10.824219zm0 0" fill="#dfc49c"/><path d="m279.398438 204.234375c-.011719 3.984375-.238282 7.960937-.671876 11.921875-.417968 3.609375-1.007812 7.21875-1.761718 10.742188-11.808594 46.988281-50.457032 82.433593-98.289063 90.144531-4.464843.847656-8.976562 1.433593-13.511719 1.765625-4.5625-.332032-9.101562-.917969-13.597656-1.765625-47.972656-7.65625-86.695312-43.304688-98.289062-90.480469-.753906-3.441406-1.339844-6.882812-1.761719-10.40625-.433594-3.960938-.660156-7.9375-.671875-11.921875-.019531-3.617187.179688-7.230469.589844-10.824219.25-3.023437.753906-6.042968 1.257812-9.066406.585938-2.9375 1.34375-5.792969 2.097656-8.644531v-.085938l4.449219-24.171875c41.96875-10.324218 63.539063-25.683594 74.199219-36.761718 16.953125 13.511718 51.03125 31.726562 110.371094 28.957031 3.359375-.085938 6.882812-.253907 10.410156-.589844 0 0 .25.335937.753906.925781 8.511719 9.949219 15.523438 21.089844 20.816406 33.070313.671876 2.433593 1.257813 4.867187 1.761719 7.300781.503907 3.023438 1.007813 6.042969 1.257813 9.066406.410156 3.59375.609375 7.207032.589844 10.824219zm0 0" fill="#ffe0b2"/><path d="m493.09375 335.648438c-19.234375-2.734376-38.148438 6.726562-47.503906 23.75-13.597656 22.746093-47.425782 71.179687-94.929688 23.753906-2.230468-2.1875-4.25-4.578125-6.046875-7.132813 41.046875 28.789063 70.253907-13.347656 82.761719-34.160156 9.386719-16.988281 28.292969-26.410156 47.507812-23.671875-2.773437-17.214844-10.238281-33.332031-21.574218-46.582031 20.875 15.554687 35.089844 38.433593 39.785156 64.042969zm0 0" fill="#fdd834"/><path d="m51.515625 235.375h-17.457031c-13.902344-.015625-25.167969-11.277344-25.179688-25.179688.066406-13.878906 11.300782-25.109374 25.179688-25.179687h17.375c4.632812 0 8.390625 3.757813 8.390625 8.394531 0 4.632813-3.757813 8.390625-8.390625 8.390625h-17.375c-2.191406-.019531-4.296875.855469-5.828125 2.417969-1.644531 1.554688-2.570313 3.714844-2.566407 5.976562.003907 4.632813 3.757813 8.390626 8.394532 8.394532h17.457031c4.636719 0 8.394531 3.757812 8.394531 8.394531 0 4.632813-3.757812 8.390625-8.394531 8.390625zm0 0"/><path d="m319.433594 235.375h-17.457032c-4.636718 0-8.394531-3.757812-8.394531-8.390625 0-4.636719 3.757813-8.394531 8.394531-8.394531h17.457032c4.636718-.003906 8.390625-3.761719 8.394531-8.394532.019531-2.1875-.851563-4.289062-2.410156-5.824218-1.554688-1.644532-3.71875-2.574219-5.984375-2.570313h-17.375c-4.632813 0-8.390625-3.757812-8.390625-8.390625 0-4.636718 3.757812-8.394531 8.390625-8.394531h17.375c13.882812.0625 25.117187 11.300781 25.179687 25.179687-.011719 13.902344-11.277343 25.164063-25.179687 25.179688zm0 0"/><path d="m151.566406 389.3125c-4.636718 0-8.394531-3.757812-8.394531-8.394531v-63.875c0-4.632813 3.757813-8.390625 8.394531-8.390625 4.636719 0 8.394532 3.757812 8.394532 8.390625v63.875c0 2.226562-.886719 4.359375-2.460938 5.933593-1.574219 1.574219-3.707031 2.460938-5.933594 2.460938zm0 0"/><path d="m201.925781 389.3125c-4.636719 0-8.394531-3.757812-8.394531-8.394531v-63.875c0-4.632813 3.757812-8.390625 8.394531-8.390625s8.394531 3.757812 8.394531 8.390625v63.875c0 2.226562-.882812 4.359375-2.457031 5.933593-1.574219 1.574219-3.710937 2.460938-5.9375 2.460938zm0 0"/><path d="m327.828125 503.964844h-302.164063c-13.898437-.015625-25.164062-11.277344-25.179687-25.179688v-16.785156c-.199219-50.839844 34.90625-95.007812 84.476563-106.296875 2.9375-.71875 6.03125.199219 8.105468 2.398437 2.074219 2.203126 2.800782 5.347657 1.90625 8.238282-.894531 2.886718-3.273437 5.070312-6.226562 5.714844-41.941406 9.554687-71.640625 46.929687-71.476563 89.945312v16.785156c.003907 4.632813 3.761719 8.390625 8.394531 8.394532h302.164063c4.632813-.003907 8.390625-3.761719 8.394531-8.394532v-16.785156c.058594-12.023438-2.289062-23.933594-6.902344-35.035156-1.265624-2.78125-.917968-6.035156.910157-8.488282 1.828125-2.453124 4.84375-3.71875 7.875-3.300781s5.59375 2.449219 6.691406 5.304688c5.480469 13.152343 8.273437 27.269531 8.210937 41.519531v16.785156c-.015624 13.902344-11.28125 25.164063-25.179687 25.179688zm0 0"/><path d="m318.761719 402.992188c-2.339844.003906-4.578125-.976563-6.164063-2.699219-1.859375-2.007813-3.628906-3.863281-5.554687-5.644531-11.835938-11.152344-26.425781-18.949219-42.269531-22.589844-4.425782-1.113282-7.152344-5.558594-6.136719-10.007813s5.402343-7.269531 9.871093-6.351562c18.730469 4.289062 35.976563 13.492187 49.96875 26.660156 2.195313 2.019531 4.28125 4.1875 6.449219 6.546875 2.269531 2.445312 2.867188 6.003906 1.53125 9.058594-1.335937 3.058594-4.359375 5.03125-7.695312 5.027344zm0 0"/><path d="m151.566406 369.671875h-12.84375c-4.632812 0-8.390625-3.757813-8.390625-8.394531 0-4.636719 3.757813-8.394532 8.390625-8.394532h12.84375c4.636719 0 8.394532 3.757813 8.394532 8.394532 0 4.636718-3.757813 8.394531-8.394532 8.394531zm0 0"/><path d="m214.769531 369.671875h-12.84375c-4.636719 0-8.394531-3.757813-8.394531-8.394531 0-4.636719 3.757812-8.394532 8.394531-8.394532h12.84375c4.632813 0 8.390625 3.757813 8.390625 8.394532 0 4.636718-3.757812 8.394531-8.390625 8.394531zm0 0"/><path d="m34.132812 201.773438c-4.441406.011718-8.113281-3.449219-8.371093-7.882813-.089844-1.480469-.097657-11.675781-.097657-13.070313.078126-44.148437 20.304688-85.84375 54.933594-113.230468 2.328125-1.988282 5.554688-2.550782 8.417969-1.46875 2.863281 1.082031 4.910156 3.636718 5.34375 6.667968.429687 3.03125-.820313 6.058594-3.269531 7.894532-30.640625 24.210937-48.550782 61.085937-48.640625 100.136718 0 1.28125-.007813 10.558594.066406 12.121094.230469 4.621094-3.3125 8.5625-7.933594 8.820313-.148437.007812-.304687.011719-.449219.011719zm0 0"/><path d="m319.359375 201.800781c-.167969 0-.328125 0-.492187-.011719-4.621094-.269531-8.148438-4.230468-7.886719-8.851562.070312-1.578125.0625-10.835938.0625-12.117188-.089844-39.050781-18-75.925781-48.640625-100.136718-2.449219-1.835938-3.699219-4.863282-3.269532-7.894532.433594-3.03125 2.480469-5.585937 5.34375-6.667968 2.863282-1.082032 6.089844-.519532 8.417969 1.46875 34.628907 27.386718 54.855469 69.082031 54.933594 113.230468 0 1.394532-.007813 11.589844-.097656 13.070313-.253907 4.441406-3.925781 7.910156-8.371094 7.910156zm0 0"/><path d="m40.761719 396.867188c-1.863281 0-3.675781-.625-5.148438-1.773438-27.367187-21.308594-34.710937-61.820312-17.457031-96.324219 15.253906-30.503906 7.746094-69.757812 7.671875-70.152343-.808594-4.5 2.136719-8.816407 6.621094-9.710938 4.480469-.894531 8.855469 1.964844 9.839843 6.429688.367188 1.832031 8.75 45.203124-9.117187 80.941406-13.6875 27.375-8.328125 59.15625 12.757813 75.574218 2.828124 2.203126 3.945312 5.960938 2.78125 9.351563-1.167969 3.390625-4.359376 5.667969-7.945313 5.664063zm0 0"/><path d="m331.859375 370.851562c-2.75-.003906-5.324219-1.355468-6.894531-3.617187-1.566406-2.261719-1.925782-5.148437-.964844-7.726563 6.085938-17.503906 4.757812-36.730468-3.679688-53.230468-10.691406-24.410156-14.058593-51.402344-9.6875-77.691406l.515626-2.953126c.742187-4.574218 5.058593-7.683593 9.632812-6.9375 4.578125.746094 7.683594 5.058594 6.941406 9.636719l-.535156 3.007813c-3.683594 22.792968-.859375 46.167968 8.148438 67.429687 10.628906 20.644531 12.21875 44.773438 4.386718 66.632813-1.230468 3.273437-4.363281 5.445312-7.863281 5.449218zm0 0"/><path d="m54.796875 184.09375c-2.492187 0-4.855469-1.109375-6.449219-3.019531-1.597656-1.914063-2.261718-4.4375-1.816406-6.886719l4.449219-24.257812c.5-2.988282 2.570312-5.476563 5.421875-6.511719 2.851562-1.03125 6.035156-.445313 8.335937 1.53125 2.296875 1.980469 3.347657 5.042969 2.75 8.015625l-4.445312 24.257812c-.734375 3.976563-4.203125 6.867188-8.246094 6.871094zm0 0"/><path d="m176.746094 327.703125c-8.957032.015625-17.902344-.789063-26.714844-2.40625-51.371094-8.132813-92.789062-46.402344-104.957031-96.972656-.804688-3.671875-1.441407-7.378907-1.894531-11.179688-.46875-4.285156-.714844-8.59375-.730469-12.910156-.019531-3.953125.195312-7.90625.648437-11.832031.230469-2.839844.746094-6.007813 1.269532-9.175782.699218-3.5625 1.476562-6.527343 2.257812-9.476562.960938-4.148438 4.878906-6.914062 9.109375-6.4375s7.433594 4.042969 7.449219 8.300781v.085938c0 .722656-.09375 1.445312-.28125 2.144531-.710938 2.691406-1.425782 5.378906-1.980469 8.148438-.441406 2.683593-.894531 5.390624-1.117187 8.097656-.394532 3.367187-.585938 6.753906-.566407 10.144531.011719 3.6875.222657 7.371094.621094 11.035156.378906 3.148438.917969 6.324219 1.617187 9.5 10.753907 43.949219 46.90625 77.105469 91.621094 84.023438 15.640625 2.824219 31.65625 2.820312 47.296875-.003907 44.578125-6.953124 80.664063-39.914062 91.621094-83.683593.6875-3.226563 1.238281-6.566407 1.625-9.917969.394531-3.636719.601563-7.292969.613281-10.953125.023438-3.28125-.15625-6.558594-.53125-9.820313-.253906-3.03125-.707031-5.738281-1.15625-8.449218-.453125-2.167969-.992187-4.429688-1.617187-6.691406-5.160157-11.164063-11.863281-21.546876-19.917969-30.839844-2.867188-3.5625-2.359375-8.765625 1.148438-11.703125 3.507812-2.9375 8.71875-2.523438 11.722656.925781 9.539062 11.054688 17.34375 23.492188 23.15625 36.886719.792968 2.867187 1.417968 5.476562 1.957031 8.082031.632813 3.765625 1.148437 6.933594 1.410156 10.101562.433594 3.820313.640625 7.664063.617188 11.507813-.015625 4.28125-.253907 8.554687-.722657 12.804687-.457031 3.957032-1.09375 7.828126-1.902343 11.617188-12.375 50.378906-53.71875 88.453125-104.949219 96.636719-8.816406 1.617187-17.761719 2.425781-26.722656 2.410156zm0 0"/><path d="m59.230469 159.835938c-4.242188-.007813-7.808594-3.179688-8.316407-7.386719-.507812-4.207031 2.199219-8.136719 6.316407-9.15625 65.972656-16.265625 77.941406-44.777344 78.046875-45.0625 1.078125-2.976563 3.738281-5.097657 6.882812-5.480469 3.144532-.382812 6.238282 1.039062 7.996094 3.675781 1.269531 1.847657 32.746094 46.117188 126.613281 38.257813 2.222657-.207032 4.4375.488281 6.140625 1.929687 1.707032 1.441407 2.757813 3.511719 2.917969 5.738281.1875 2.21875-.515625 4.421876-1.953125 6.121094-1.4375 1.699219-3.492188 2.757813-5.710938 2.945313-78.433593 6.53125-118.269531-21.230469-133.902343-36.421875-9.84375 12.359375-32.722657 32.199218-83.015625 44.597656-.660156.160156-1.335938.242188-2.015625.242188zm0 0"/><path d="m243.894531 101.082031c-2.21875 0-4.34375-.875-5.917969-2.433593-35.191406-30.324219-87.273437-30.324219-122.460937 0-2.5625 2.527343-6.449219 3.148437-9.671875 1.550781-1.554688-.785157-38.210938-19.453125-38.210938-49.480469-.222656-7.128906 2.929688-13.945312 8.507813-18.394531 10.507813-8.34375 28.238281-7.484375 38.515625-6.078125 3.546875-11.5 12.160156-20.742188 23.375-25.097656 11.609375-3.460938 24.632812.910156 38.714844 12.980468 14.082031-12.054687 27.097656-16.433594 38.714844-12.980468 11.214843 4.351562 19.828124 13.597656 23.375 25.09375 10.285156-1.40625 28.015624-2.265626 38.515624 6.078124 5.578126 4.449219 8.730469 11.269532 8.507813 18.398438 0 30.027344-36.65625 48.695312-38.210937 49.476562-1.167969.582032-2.453126.886719-3.753907.886719zm-67.148437-41.96875c24.683594-.039062 48.671875 8.179688 68.148437 23.347657 9.492188-5.953126 24.179688-18.078126 24.179688-31.742188.222656-2.003906-.59375-3.984375-2.164063-5.253906-5.925781-4.714844-22.296875-3.710938-32.015625-1.484375-2.183593.496093-4.476562.105469-6.371093-1.097657-1.890626-1.199218-3.222657-3.105468-3.703126-5.292968-1.007812-4.484375-5.785156-17.902344-14.164062-20.359375-6.726562-1.972657-16.679688 3.097656-28.015625 14.285156-3.269531 3.222656-8.519531 3.222656-11.785156 0-11.347657-11.183594-21.3125-16.265625-28.019531-14.285156-8.375 2.457031-13.15625 15.875-14.164063 20.386719-1.023437 4.535156-5.53125 7.386718-10.070313 6.363281-9.738281-2.222657-26.089843-3.226563-32.019531 1.488281-1.570312 1.265625-2.386719 3.246094-2.164062 5.25 0 14.550781 16.023437 26.535156 24.222656 31.710938 19.46875-15.148438 43.4375-23.355469 68.105469-23.316407zm0 0"/><path d="m143.171875 470.390625c-.203125 0-.410156-.007813-.613281-.019531-2.78125-.203125-5.277344-1.777344-6.664063-4.195313l-58.753906-102.398437c-1.207031-2.101563-1.445313-4.621094-.660156-6.910156.789062-2.292969 2.527343-4.128907 4.773437-5.042969l35.644532-14.496094c7.410156-2.992187 15.902343-.328125 20.28125 6.355469l46.582031 71.046875c1.984375 3.015625 1.8125 6.957031-.417969 9.789062l-33.574219 42.667969c-1.589843 2.023438-4.023437 3.207031-6.597656 3.203125zm-46.695313-106.640625 47.785157 83.285156 22.160156-28.152344-43.273437-65.992187zm0 0"/><path d="m210.320312 470.390625c-2.574218.003906-5.007812-1.179687-6.597656-3.203125l-33.574218-42.667969c-2.234376-2.832031-2.402344-6.777343-.421876-9.789062l46.585938-71.042969c4.386719-6.671875 12.867188-9.332031 20.277344-6.359375l35.648437 14.496094c2.242188.910156 3.980469 2.75 4.769531 5.039062.789063 2.292969.550782 4.808594-.65625 6.910157l-58.753906 102.398437c-1.386718 2.421875-3.882812 3.992187-6.664062 4.199219-.203125.011718-.410156.019531-.613282.019531zm-23.25-51.511719 22.160157 28.15625 47.777343-83.28125-26.746093-10.878906zm0 0"/><path d="m185.140625 470.390625c0 4.636719-3.757813 8.394531-8.394531 8.394531-4.636719 0-8.394532-3.757812-8.394532-8.394531 0-4.632813 3.757813-8.390625 8.394532-8.390625 4.636718 0 8.394531 3.757812 8.394531 8.390625zm0 0"/><path d="m258.296875 503.953125c-10.183594.003906-19.367187-6.128906-23.265625-15.539063-3.894531-9.40625-1.742188-20.234374 5.460938-27.433593l94.957031-94.960938c3.332031-3.148437 8.539062-3.148437 11.871093 0l23.734376 23.742188c3.277343 3.277343 3.277343 8.589843 0 11.867187l-94.957032 94.960938c-4.71875 4.726562-11.125 7.375-17.800781 7.363281zm83.089844-120.128906-89.027344 89.027343c-3.191406 3.292969-3.152344 8.535157.089844 11.777344 3.246093 3.246094 8.488281 3.285156 11.78125.089844l89.023437-89.023438zm0 0"/><path d="m376.992188 415.957031c-2.226563.003907-4.363282-.882812-5.933594-2.457031l-47.476563-47.480469c-2.175781-2.109375-3.042969-5.226562-2.273437-8.15625.769531-2.929687 3.058594-5.21875 5.988281-5.988281s6.046875.101562 8.152344 2.277344l47.476562 47.476562c2.402344 2.402344 3.117188 6.011719 1.820313 9.148438-1.300782 3.136718-4.359375 5.179687-7.753906 5.179687zm0 0"/><path d="m392.941406 412.34375c-17.625-1.082031-34.070312-9.222656-45.621094-22.578125-13.582031-12.773437-19.863281-31.5-16.738281-49.878906 5.007813-24.792969 20.585938-46.171875 42.65625-58.53125 17.800781-8.898438 13.382813-32.15625 13.332031-32.390625-.492187-2.464844.144532-5.019532 1.738282-6.964844s3.976562-3.074219 6.488281-3.074219c2.789063 0 27.617187.402344 41.542969 14.328125 1.984375 1.984375 2.84375 4.828125 2.292968 7.582032-1.589843 7.605468-3.753906 15.082031-6.472656 22.363281 6.105469-3.96875 11.089844-9.441407 14.472656-15.894531 1.078126-2.152344 3.027344-3.738282 5.355469-4.355469 2.324219-.617188 4.804688-.207031 6.808594 1.128906 23.78125 16.871094 40.007813 42.386719 45.210937 71.078125.386719 2.695312-.5625 5.414062-2.542968 7.285156-1.976563 1.875-4.742188 2.667969-7.414063 2.132813-15.742187-2.015625-31.101562 5.867187-38.640625 19.832031-17.699218 29.492188-36.273437 45.0625-56.78125 47.589844-1.886718.230468-3.785156.347656-5.6875.347656zm-33.753906-34.445312c13.019531 13.015624 25.609375 18.910156 37.386719 17.4375 14.835937-1.824219 29.785156-15.136719 44.441406-39.566407 9.011719-16.292969 25.679687-26.902343 44.253906-28.164062-5.382812-17.125-15.433593-32.414063-29.023437-44.148438-10.828125 12.867188-25.578125 21.824219-41.988282 25.503907-3.628906.726562-7.300781-1.007813-9.046874-4.269532-1.746094-3.257812-1.152344-7.277344 1.464843-9.894531 7.089844-9.617187 12-20.667969 14.382813-32.378906-5.289063-3.039063-11.113282-5.023438-17.15625-5.847657.445312 16.582032-8.519532 31.992188-23.15625 39.800782-17.210938 9.976562-29.414063 26.753906-33.597656 46.207031-2.238282 13.050781 2.292968 26.351563 12.039062 35.320313zm0 0"/><path d="m353.253906 392.21875c-3.394531 0-6.453125-2.042969-7.753906-5.179688-1.296875-3.136718-.578125-6.746093 1.820312-9.148437l29.679688-29.675781 11.871094 11.871094-29.683594 29.675781c-1.570312 1.578125-3.707031 2.460937-5.933594 2.457031zm0 0"/></svg>