<svg height="512pt" viewBox="0 0 512 512.01255" width="512pt" xmlns="http://www.w3.org/2000/svg"><path d="m342.191406 396.300781-18.601562-29.609375c-19.421875-21.578125-47.089844-33.890625-76.117188-33.878906h-136.53125c-8.636718-.015625-17.242187 1.074219-25.601562 3.242188-45.21875 11.667968-76.8125 52.457031-76.800782 99.15625v51.203124c.027344 9.414063 7.652344 17.039063 17.066407 17.066407h307.199219c9.414062-.027344 17.039062-7.652344 17.066406-17.066407v-51.203124c.011718-13.347657-2.597656-26.566407-7.679688-38.910157zm0 0" fill="#ecf0f1"/><path d="m342.191406 396.300781-18.601562-29.609375c-19.421875-21.578125-47.089844-33.890625-76.117188-33.878906h-136.53125c-8.636718-.015625-17.242187 1.074219-25.601562 3.242188-45.21875 11.667968-76.8125 52.457031-76.800782 99.15625v51.203124c.027344 9.414063 7.652344 17.039063 17.066407 17.066407h307.199219c9.414062-.027344 17.039062-7.652344 17.066406-17.066407v-51.203124c.011718-13.347657-2.597656-26.566407-7.679688-38.910157zm0 0" fill="#ecf0f1"/><path d="m349.871094 435.210938v51.203124c-.027344 9.414063-7.652344 17.039063-17.066406 17.066407h-307.199219c-9.414063-.027344-17.039063-7.652344-17.066407-17.066407v-51.203124c-.011718-46.699219 31.582032-87.488282 76.800782-99.15625l34.132812-3.242188h119.46875l34.132813 3.242188c19.492187 5.007812 37.066406 15.664062 50.515625 30.636718l18.601562 29.609375c5.082032 12.34375 7.691406 25.5625 7.679688 38.910157zm0 0" fill="#cfd8dc"/><path d="m326.234375 435.210938v51.203124c-.027344 9.414063-7.652344 17.039063-17.066406 17.066407h-283.5625c-9.414063-.027344-17.039063-7.652344-17.066407-17.066407v-51.203124c-.011718-46.699219 31.582032-87.488282 76.800782-99.15625l34.132812-3.242188h95.828125l34.136719 3.242188c19.488281 5.007812 37.066406 15.664062 50.515625 30.636718l18.601563 29.609375c5.078124 12.34375 7.6875 25.5625 7.679687 38.910157zm0 0" fill="#f5f5f5"/><path d="m119.472656 332.8125v85.332031h-34.132812v-82.089843c8.359375-2.167969 16.964844-3.257813 25.601562-3.242188zm0 0" fill="#02a9f4"/><path d="m273.074219 336.054688v81.152343l-.941407.9375h-33.191406v-85.332031h8.53125c8.636719-.015625 17.242188 1.074219 25.601563 3.242188zm0 0" fill="#02a9f4"/><path d="m272.132812 418.144531h-195.328124c-9.414063.027344-17.039063 7.652344-17.066407 17.066407v68.269531h238.933594v-63.660157" fill="#3f51b5"/><path d="m204.804688 287.84375v70.570312c0 14.136719-11.460938 25.597657-25.597657 25.597657-14.140625 0-25.601562-11.460938-25.601562-25.597657v-70.570312zm0 0" fill="#ffe0b2"/><path d="m324.273438 149.347656c0 1.363282 0 15.613282-.085938 17.066406h-289.960938c-.085937-1.453124-.085937-15.703124-.085937-17.066406.984375-74.363281 58.992187-135.457031 133.203125-140.289062 3.925781-.34375 7.851562-.511719 11.863281-.511719 78.929688-1.15625 143.867188 61.867187 145.066407 140.800781zm0 0" fill="#6d4122"/><path d="m300.636719 149.347656c0 1.363282 0 15.613282-.085938 17.066406h-266.324219c-.085937-1.453124-.085937-15.703124-.085937-17.066406.984375-74.363281 58.992187-135.457031 133.203125-140.289062 74.242188 4.792968 132.300781 65.898437 133.292969 140.289062zm0 0" fill="#91562d"/><path d="m306.609375 162.144531h17.664063c9.398437.070313 17 7.671875 17.066406 17.066407-.027344 9.414062-7.652344 17.039062-17.066406 17.066406h-290.132813c-9.414063-.027344-17.039063-7.652344-17.066406-17.066406.066406-9.394532 7.667969-16.996094 17.066406-17.066407zm0 0" fill="#dfc49c"/><path d="m307.207031 173.152344c-.011719 4.050781-.242187 8.09375-.683593 12.117187-6.65625 58.96875-61.097657 104.875-127.316407 104.875-3.925781 0-7.851562-.167969-11.777343-.511719-60.757813-5.035156-109.3125-48.894531-115.539063-104.363281-1.214844-10.777343-.8125-21.679687 1.191406-32.339843.769531-3.753907 1.707031-7.421876 2.816407-11.09375v-.085938c9.132812-20.90625 31.660156-63.058594 67.585937-70.996094 15.027344-2.960937 30.617187-.351562 43.859375 7.339844h.085938c4.070312 2.171875 8.003906 4.597656 11.777343 7.253906 9.5625-7.046875 20.488281-12.019531 32.085938-14.59375 49.832031-10.238281 80.296875 45.824219 91.21875 70.996094v.085938c1.109375 3.671874 2.050781 7.339843 2.816406 11.09375 1.234375 6.671874 1.859375 13.441406 1.878906 20.222656zm0 0" fill="#dfc49c"/><path d="m283.570312 173.152344c-.015624 4.050781-.242187 8.09375-.683593 12.117187-6.230469 55.382813-54.699219 99.328125-115.457031 104.363281-60.757813-5.035156-109.3125-48.894531-115.539063-104.363281-1.214844-10.777343-.8125-21.679687 1.191406-32.339843.769531-3.753907 1.707031-7.421876 2.816407-11.09375v-.085938c9.132812-20.90625 31.660156-63.058594 67.585937-70.996094 11.59375 2.574219 22.523437 7.546875 32.085937 14.59375 3.773438-2.65625 7.703126-5.082031 11.773438-7.253906h.085938c4.070312 2.171875 8.003906 4.597656 11.777343 7.253906 9.5625-7.046875 20.488281-12.019531 32.085938-14.59375 36.007812 7.9375 58.453125 50.089844 67.582031 70.996094v.085938c1.109375 3.671874 2.046875 7.339843 2.816406 11.09375 1.234375 6.671874 1.859375 13.441406 1.878906 20.222656zm0 0" fill="#ffe0b2"/><path d="m358.140625 355.734375c-36.203125-36.203125 0-84.480469 24.136719-96.542969 24.132812-12.0625 18.101562-42.238281 18.101562-42.238281s24.136719 0 36.203125 12.066406c0 0-6.035156 30.171875-18.101562 42.242188 0 0 30.167969-6.035157 42.238281-30.171875 22.109375 15.851562 37.242188 39.632812 42.242188 66.375-19.542969-2.761719-38.757813 6.847656-48.273438 24.136718-13.886719 23.140626-48.277344 72.40625-96.546875 24.132813zm0 0" fill="#ffeb3a"/><path d="m502.960938 307.46875c-19.554688-2.777344-38.789063 6.839844-48.296876 24.148438-13.824218 23.125-48.214843 72.363281-96.515624 24.148437-2.261719-2.226563-4.320313-4.652344-6.140626-7.25 41.726563 29.269531 71.421876-13.570313 84.136719-34.730469 9.542969-17.273437 28.765625-26.851562 48.300781-24.066406-2.820312-17.5-10.410156-33.886719-21.933593-47.359375 21.226562 15.8125 35.675781 39.074219 40.449219 65.109375zm0 0" fill="#fdd834"/><path d="m346.074219 343.667969 24.136719 24.132812-96.546876 96.542969c-6.664062 6.667969-17.46875 6.667969-24.132812 0-6.667969-6.664062-6.667969-17.46875 0-24.132812zm0 0" fill="#825a2c"/><path d="m179.207031 298.679688c-70.175781 0-128.558593-48.355469-135.800781-112.476563-.476562-4.335937-.722656-8.695313-.734375-13.0625.019531-7.28125.691406-14.542969 2.015625-21.703125.878906-4.332031 1.886719-8.375 3.050781-12.179688.828125-2.988281 3.214844-5.296874 6.230469-6.019531 3.015625-.726562 6.191406.242188 8.285156 2.53125 2.097656 2.285157 2.789063 5.53125 1.800782 8.472657-1.023438 3.371093-1.898438 6.894531-2.605469 10.417968-1.832031 9.78125-2.191407 19.78125-1.078125 29.671875 6.261718 55.4375 57.351562 97.28125 118.835937 97.28125s112.574219-41.84375 118.832031-97.324219c.414063-3.703124.625-7.421874.632813-11.148437-.019531-6.253906-.597656-12.492187-1.730469-18.644531-.683594-3.359375-1.558594-6.882813-2.585937-10.253906-.984375-2.941407-.292969-6.1875 1.800781-8.472657 2.097656-2.289062 5.269531-3.257812 8.289062-2.53125 3.015626.722657 5.398438 3.03125 6.226563 6.019531 1.167969 3.804688 2.175781 7.847657 3.027344 12.015626 2.171875 11.5 2.613281 23.257812 1.308593 34.886718-7.242187 64.164063-65.625 112.519532-135.800781 112.519532zm0 0"/><path d="m51.890625 204.8125h-17.75c-14.132813-.015625-25.585937-11.46875-25.601563-25.601562.070313-14.109376 11.492188-25.527344 25.601563-25.597657h17.664063c4.710937 0 8.53125 3.820313 8.53125 8.53125 0 4.714844-3.820313 8.535157-8.53125 8.535157h-17.578126c-2.257812-.039063-4.429687.851562-6.011718 2.457031-1.667969 1.578125-2.613282 3.777343-2.609375 6.074219.003906 4.710937 3.824219 8.53125 8.535156 8.535156h17.75c4.710937 0 8.53125 3.820312 8.53125 8.53125 0 4.714844-3.820313 8.535156-8.53125 8.535156zm0 0"/><path d="m324.273438 204.8125h-17.75c-4.710938 0-8.53125-3.820312-8.53125-8.535156 0-4.710938 3.820312-8.53125 8.53125-8.53125h17.75c4.710937-.003906 8.527343-3.824219 8.53125-8.535156.023437-2.222657-.863282-4.359376-2.449219-5.917969-1.582031-1.671875-3.78125-2.617188-6.082031-2.613281h-17.664063c-4.714844 0-8.535156-3.820313-8.535156-8.535157 0-4.710937 3.820312-8.53125 8.535156-8.53125h17.578125c14.144531.019531 25.621094 11.453125 25.683594 25.597657-.011719 14.132812-11.464844 25.585937-25.597656 25.601562zm0 0"/><path d="m324.199219 170.679688c-.171875 0-.335938 0-.5-.011719-4.699219-.277344-8.289063-4.304688-8.023438-9 .074219-1.605469.0625-11.019531.0625-12.320313-1.277343-74.183594-62.347656-133.34375-136.53125-132.269531-74.1875-1.074219-135.253906 58.085937-136.535156 132.269531 0 1.300782-.007813 10.734375.066406 12.324219.140625 4.621094-3.425781 8.515625-8.042969 8.777344-4.621093.261719-8.605468-3.203125-8.988281-7.8125-.09375-1.507813-.101562-11.871094-.101562-13.289063 1.292969-83.605468 69.992187-150.398437 153.601562-149.3359372 83.605469-1.0624998 152.308594 65.7304692 153.597657 149.3359372 0 1.417969-.007813 11.78125-.097657 13.289063-.257812 4.511719-3.988281 8.039062-8.507812 8.042969zm0 0"/><path d="m55.898438 150.328125c-2.257813.011719-4.429688-.878906-6.027344-2.472656-1.601563-1.59375-2.503906-3.757813-2.503906-6.019531 0-1.199219.238281-2.386719.707031-3.492188 10.242187-23.535156 32.933593-64.574219 69.867187-74.992188 21.140625-5.972656 43.398438-.917968 66.15625 15.003907 3.789063 2.726562 4.679688 7.992187 2.007813 11.816406-2.675781 3.824219-7.929688 4.789063-11.789063 2.164063-18.34375-12.832032-35.730468-17.050782-51.742187-12.5625-31.136719 8.785156-51.371094 48.273437-58.742188 65.128906-1.28125 3.265625-4.425781 5.414062-7.933593 5.425781zm0 0"/><path d="m302.511719 150.328125c-3.667969.015625-6.929688-2.324219-8.097657-5.800781-7.5-17.066406-27.675781-56.03125-58.578124-64.75-15.964844-4.5-33.398438-.273438-51.738282 12.5625-2.5 1.796875-5.769531 2.113281-8.5625.824218-2.792968-1.289062-4.679687-3.980468-4.929687-7.046874-.253907-3.066407 1.164062-6.03125 3.707031-7.761719 22.757812-15.921875 45.023438-20.96875 66.160156-15.003907 36.933594 10.421876 59.625 51.457032 69.867188 74.996094 1.144531 2.640625.886718 5.683594-.6875 8.097656-1.574219 2.410157-4.257813 3.871094-7.140625 3.882813zm0 0"/><path d="m153.605469 366.945312c-4.710938 0-8.53125-3.820312-8.53125-8.53125v-70.570312c0-4.714844 3.820312-8.535156 8.53125-8.535156 4.714843 0 8.535156 3.820312 8.535156 8.535156v70.570312c0 4.710938-3.820313 8.53125-8.535156 8.53125zm0 0"/><path d="m204.804688 366.945312c-4.710938 0-8.53125-3.820312-8.53125-8.53125v-70.570312c0-4.714844 3.820312-8.535156 8.53125-8.535156 4.714843 0 8.535156 3.820312 8.535156 8.535156v70.570312c0 4.710938-3.820313 8.53125-8.535156 8.53125zm0 0"/><path d="m332.804688 512.011719h-307.199219c-14.132813-.015625-25.5820315-11.46875-25.5976565-25.597657v-51.203124c.0664063-61.238282 49.6953125-110.863282 110.9335935-110.933594h42.664063c4.714843 0 8.535156 3.824218 8.535156 8.535156s-3.820313 8.535156-8.535156 8.535156h-42.664063c-51.820312.058594-93.808594 42.046875-93.867187 93.863282v51.203124c.003906 4.710938 3.820312 8.527344 8.53125 8.53125h307.199219c4.710937-.003906 8.53125-3.820312 8.535156-8.53125v-51.203124c.015625-12.234376-2.375-24.355469-7.042969-35.667969-1.160156-2.820313-.726563-6.042969 1.136719-8.457031 1.863281-2.414063 4.871094-3.652344 7.894531-3.246094 3.019531.40625 5.597656 2.390625 6.757813 5.210937 5.511718 13.371094 8.339843 27.699219 8.320312 42.160157v51.203124c-.015625 14.128907-11.46875 25.582032-25.601562 25.597657zm0 0"/><path d="m323.589844 375.222656c-2.417969.003906-4.722656-1.019531-6.339844-2.820312-17.800781-19.78125-43.164062-31.070313-69.777344-31.054688h-42.667968c-4.710938 0-8.53125-3.824218-8.53125-8.535156s3.820312-8.535156 8.53125-8.535156h42.667968c31.445313-.011719 61.421875 13.328125 82.457032 36.703125 2.257812 2.503906 2.828124 6.101562 1.457031 9.179687-1.371094 3.078125-4.425781 5.0625-7.796875 5.0625zm0 0"/><path d="m119.472656 426.679688h-34.132812c-4.714844 0-8.535156-3.820313-8.535156-8.535157v-82.089843c0-4.710938 3.820312-8.53125 8.535156-8.53125 4.710937 0 8.53125 3.820312 8.53125 8.53125v73.558593h17.070312v-68.265625c-4.714844 0-8.535156-3.824218-8.535156-8.535156s3.820312-8.535156 8.535156-8.535156h8.53125c4.714844 0 8.535156 3.824218 8.535156 8.535156v85.332031c0 4.714844-3.820312 8.535157-8.535156 8.535157zm0 0"/><path d="m272.132812 426.679688h-33.191406c-4.714844 0-8.535156-3.820313-8.535156-8.535157v-85.332031c0-4.710938 3.820312-8.535156 8.535156-8.535156h8.53125c4.714844 0 8.535156 3.824218 8.535156 8.535156s-3.820312 8.535156-8.535156 8.535156v68.265625h24.660156c4.714844 0 8.535157 3.820313 8.535157 8.53125 0 4.714844-3.820313 8.535157-8.535157 8.535157zm0 0"/><path d="m273.074219 425.742188c-4.714844 0-8.535157-3.820313-8.535157-8.535157v-81.152343c0-4.710938 3.820313-8.53125 8.535157-8.53125 4.710937 0 8.53125 3.820312 8.53125 8.53125v81.152343c0 4.714844-3.820313 8.535157-8.53125 8.535157zm0 0"/><path d="m298.671875 512.011719h-238.933594c-4.710937 0-8.53125-3.820313-8.53125-8.53125v-68.269531c.015625-14.128907 11.46875-25.582032 25.597657-25.597657h195.328124c4.714844 0 8.535157 3.820313 8.535157 8.53125 0 4.714844-3.820313 8.535157-8.535157 8.535157h-195.328124c-4.710938.003906-8.527344 3.820312-8.53125 8.53125v59.734374h221.867187v-55.125c0-4.710937 3.820313-8.53125 8.53125-8.53125 4.714844 0 8.535156 3.820313 8.535156 8.53125v63.660157c0 4.710937-3.820312 8.53125-8.535156 8.53125zm0 0"/><path d="m110.941406 452.277344c0 4.714844-3.824218 8.535156-8.535156 8.535156s-8.535156-3.820312-8.535156-8.535156c0-4.710938 3.824218-8.53125 8.535156-8.53125s8.535156 3.820312 8.535156 8.53125zm0 0"/><path d="m262.113281 477.867188c-10.351562.003906-19.6875-6.234376-23.648437-15.796876-3.964844-9.566406-1.773438-20.574218 5.550781-27.894531l96.539063-96.542969c3.386718-3.199218 8.683593-3.199218 12.070312 0l24.128906 24.136719c3.332032 3.335938 3.332032 8.734375 0 12.066407l-96.539062 96.542968c-4.796875 4.804688-11.3125 7.5-18.101563 7.488282zm84.476563-122.132813-90.507813 90.511719c-3.246093 3.347656-3.207031 8.679687.089844 11.976562s8.628906 3.335938 11.976563.089844l90.507812-90.507812zm0 0"/><path d="m382.789062 388.402344c-2.261718.003906-4.433593-.894532-6.03125-2.496094l-48.269531-48.273438c-2.210937-2.144531-3.09375-5.3125-2.3125-8.292968.785157-2.976563 3.109375-5.304688 6.089844-6.085938 2.976563-.78125 6.144531.101563 8.289063 2.3125l48.269531 48.269532c2.4375 2.441406 3.167969 6.113281 1.847656 9.300781s-4.429687 5.265625-7.882813 5.265625zm0 0"/><path d="m399.007812 384.730469c-17.921874-1.101563-34.640624-9.378907-46.382812-22.957031-13.808594-12.984376-20.195312-32.019532-17.019531-50.707032 5.089843-25.210937 20.929687-46.941406 43.367187-59.507812 18.097656-9.046875 13.605469-32.691406 13.558594-32.929688-.503906-2.507812.144531-5.105468 1.765625-7.082031 1.617187-1.976563 4.039063-3.125 6.59375-3.125 2.835937 0 28.074219.40625 42.234375 14.566406 2.019531 2.015625 2.894531 4.910157 2.332031 7.707031-1.613281 7.734376-3.816406 15.335938-6.582031 22.738282 6.210938-4.035156 11.277344-9.601563 14.71875-16.160156 1.09375-2.1875 3.078125-3.800782 5.441406-4.425782 2.367188-.628906 4.886719-.210937 6.921875 1.144532 24.175781 17.15625 40.675781 43.09375 45.964844 72.261718.390625 2.742188-.570313 5.503906-2.582031 7.410156-2.015625 1.902344-4.824219 2.710938-7.542969 2.167969-16.003906-2.054687-31.621094 5.960938-39.285156 20.160157-17.992188 29.988281-36.875 45.816406-57.722657 48.382812-1.917968.238281-3.851562.355469-5.78125.355469zm-34.320312-35.023438c13.234375 13.238281 26.035156 19.238281 38.011719 17.730469 15.082031-1.855469 30.28125-15.386719 45.183593-40.222656 9.160157-16.566406 26.101563-27.351563 44.988282-28.636719-5.472656-17.410156-15.691406-32.953125-29.503906-44.882813-11.011719 13.082032-26.007813 22.1875-42.691407 25.929688-3.6875.738281-7.421875-1.027344-9.195312-4.339844-1.777344-3.316406-1.171875-7.402344 1.484375-10.058594 7.210937-9.78125 12.203125-21.015624 14.625-32.921874-5.375-3.089844-11.296875-5.105469-17.441406-5.945313.453124 16.859375-8.660157 32.523437-23.539063 40.464844-17.503906 10.140625-29.90625 27.199219-34.160156 46.976562-2.277344 13.269531 2.332031 26.792969 12.238281 35.90625zm0 0"/><path d="m358.65625 364.269531c-3.449219 0-6.5625-2.078125-7.882812-5.265625-1.320313-3.1875-.589844-6.859375 1.851562-9.300781l30.171875-30.171875 12.066406 12.070312-30.175781 30.167969c-1.597656 1.605469-3.769531 2.503907-6.03125 2.5zm0 0"/></svg>