<svg height="512pt" viewBox="0 0 512 512.01259" width="512pt" xmlns="http://www.w3.org/2000/svg"><path d="m346.628906 409.613281-28.5-48.554687c-10.417968-9.957032-22.839844-17.578125-36.4375-22.359375-5.480468-1.976563-11.140625-3.433594-16.894531-4.351563-5.71875-1.03125-11.515625-1.542968-17.324219-1.535156h-136.53125c-5.804687.007812-11.601562.492188-17.324218 1.449219-49.117188 8.511719-85.011719 51.101562-85.078126 100.949219v51.203124c.027344 9.414063 7.652344 17.039063 17.066407 17.066407h307.199219c9.414062-.027344 17.039062-7.652344 17.066406-17.066407v-51.203124c.019531-8.636719-1.070313-17.238282-3.242188-25.597657zm0 0" fill="#ecf0f1"/><path d="m349.871094 435.210938v51.203124c-.027344 9.414063-7.652344 17.039063-17.066406 17.066407h-307.199219c-9.414063-.027344-17.039063-7.652344-17.066407-17.066407v-51.203124c.066407-49.847657 35.960938-92.4375 85.078126-100.949219 5.722656-.957031 11.519531-1.441407 17.324218-1.449219h8.53125v25.601562c-.003906 9.050782 3.59375 17.734376 9.996094 24.136719 6.402344 6.402344 15.085938 9.996094 24.136719 9.996094h51.199219c9.054687 0 17.738281-3.59375 24.140624-9.996094 6.402344-6.402343 9.996094-15.085937 9.996094-24.136719v-25.601562h8.53125c5.808594-.007812 11.605469.503906 17.324219 1.535156 5.753906.917969 11.414063 2.375 16.894531 4.351563 13.597656 4.78125 26.019532 12.402343 36.4375 22.359375l28.5 48.554687c2.171875 8.359375 3.261719 16.960938 3.242188 25.597657zm0 0" fill="#3f51b5"/><path d="m349.871094 435.210938v51.203124c-.027344 9.414063-7.652344 17.039063-17.066406 17.066407h-23.636719c9.414062-.027344 17.039062-7.652344 17.066406-17.066407v-51.203124c.015625-8.636719-1.074219-17.238282-3.242187-25.597657l-28.5-48.554687c-10.417969-9.957032-22.839844-17.578125-36.4375-22.359375-5.484376-1.976563-11.140626-3.433594-16.894532-4.351563-.734375-.15625-1.476562-.269531-2.21875-.339844v-1.195312h8.53125c5.808594-.007812 11.605469.503906 17.324219 1.535156 5.753906.917969 11.414063 2.375 16.894531 4.351563 13.597656 4.78125 26.019532 12.402343 36.4375 22.359375l28.5 48.554687c2.171875 8.359375 3.261719 16.960938 3.242188 25.597657zm0 0" fill="#283593"/><path d="m238.941406 332.8125v25.601562c0 9.050782-3.59375 17.734376-9.996094 24.136719-6.402343 6.402344-15.085937 9.996094-24.140624 9.996094h-51.199219c-9.050781 0-17.734375-3.59375-24.136719-9.996094-6.402344-6.402343-10-15.085937-9.996094-24.136719v-25.601562zm0 0" fill="#f5f5f5"/><path d="m324.273438 149.347656c0 1.363282 0 15.613282-.085938 17.066406h-289.960938c-.085937-1.453124-.085937-15.703124-.085937-17.066406.984375-74.363281 58.992187-135.457031 133.203125-140.289062 3.925781-.34375 7.851562-.511719 11.863281-.511719 78.929688-1.15625 143.867188 61.867187 145.066407 140.800781zm0 0" fill="#6d4122"/><path d="m300.636719 149.347656c0 1.363282 0 15.613282-.085938 17.066406h-266.324219c-.085937-1.453124-.085937-15.703124-.085937-17.066406.984375-74.363281 58.992187-135.457031 133.203125-140.289062 74.242188 4.792968 132.300781 65.898437 133.292969 140.289062zm0 0" fill="#91562d"/><path d="m306.609375 162.144531h17.664063c9.398437.070313 17 7.671875 17.066406 17.066407-.027344 9.414062-7.652344 17.039062-17.066406 17.066406h-290.132813c-9.414063-.027344-17.039063-7.652344-17.066406-17.066406.066406-9.394532 7.667969-16.996094 17.066406-17.066407zm0 0" fill="#dfc49c"/><path d="m204.804688 287.84375v44.96875c-4.992188 9.746094-14.683594 16.203125-25.597657 17.066406-10.917969-.863281-20.605469-7.320312-25.601562-17.066406v-44.96875zm0 0" fill="#ffe0b2"/><path d="m503.472656 366.945312v34.132813c-.011718 4.707031-3.824218 8.519531-8.53125 8.535156h-51.203125c-4.707031.011719-8.519531 3.824219-8.53125 8.53125v76.800781c-.015625 4.707032-3.828125 8.519532-8.535156 8.535157h-34.132813c-4.707031-.015625-8.519531-3.828125-8.53125-8.535157v-76.800781c-.015624-4.707031-3.828124-8.519531-8.535156-8.53125h-51.199218c-4.707032-.015625-8.519532-3.828125-8.535157-8.535156v-34.132813c.015625-4.707031 3.828125-8.519531 8.535157-8.53125h51.199218c4.707032-.015624 8.519532-3.828124 8.535156-8.535156v-42.667968c.011719-4.707032 3.824219-8.519532 8.53125-8.53125h34.132813c4.707031.011718 8.519531 3.824218 8.535156 8.53125v42.667968c.011719 4.707032 3.824219 8.519532 8.53125 8.535156h51.203125c4.707032.011719 8.519532 3.824219 8.53125 8.53125zm0 0" fill="#fec108"/><path d="m479.835938 366.945312v34.132813c-.015626 4.707031-3.828126 8.519531-8.535157 8.535156h-51.199219c-2.265624-.007812-4.441406.886719-6.042968 2.488281-1.601563 1.605469-2.496094 3.777344-2.488282 6.042969v76.800781c-.015624 4.707032-3.828124 8.519532-8.535156 8.535157h-10.496094c-4.707031-.015625-8.519531-3.828125-8.53125-8.535157v-76.800781c-.015624-4.707031-3.828124-8.519531-8.535156-8.53125h-51.199218c-4.707032-.015625-8.519532-3.828125-8.535157-8.535156v-34.132813c.015625-4.707031 3.828125-8.519531 8.535157-8.53125h51.199218c4.707032-.015624 8.519532-3.828124 8.535156-8.535156v-42.667968c.011719-4.707032 3.824219-8.519532 8.53125-8.53125h10.496094c4.707032.011718 8.519532 3.824218 8.535156 8.53125v42.667968c-.007812 2.265625.886719 4.441406 2.488282 6.042969 1.601562 1.601563 3.777344 2.5 6.042968 2.492187h51.199219c4.707031.011719 8.519531 3.824219 8.535157 8.53125zm0 0" fill="#ffdc00"/><path d="m307.207031 173.152344c-.011719 4.050781-.242187 8.09375-.683593 12.117187-6.65625 58.96875-61.097657 104.875-127.316407 104.875-3.925781 0-7.851562-.167969-11.777343-.511719-60.757813-5.035156-109.3125-48.894531-115.539063-104.363281-.445313-4.023437-.671875-8.066406-.683594-12.117187.015625-6.78125.644531-13.550782 1.875-20.222656.769531-3.753907 1.707031-7.507813 2.816407-11.179688 9.132812-20.90625 31.660156-63.058594 67.585937-70.996094 15.027344-2.960937 30.617187-.351562 43.859375 7.339844h.085938c4.070312 2.175781 8.003906 4.597656 11.777343 7.253906 9.5625-7.046875 20.488281-12.019531 32.085938-14.59375 49.832031-10.238281 80.296875 45.824219 91.21875 70.996094 1.109375 3.671875 2.050781 7.425781 2.816406 11.179688 1.234375 6.671874 1.863281 13.441406 1.878906 20.222656zm0 0" fill="#dfc49c"/><path d="m283.570312 173.152344c-.015624 4.050781-.242187 8.09375-.683593 12.117187-6.230469 55.382813-54.699219 99.328125-115.457031 104.363281-60.757813-5.035156-109.3125-48.894531-115.539063-104.363281-.445313-4.023437-.671875-8.066406-.683594-12.117187.015625-6.78125.644531-13.550782 1.875-20.222656.769531-3.753907 1.707031-7.507813 2.816407-11.179688 9.132812-20.90625 31.660156-63.058594 67.585937-70.996094 11.59375 2.574219 22.523437 7.546875 32.085937 14.59375 3.773438-2.65625 7.703126-5.078125 11.773438-7.253906h.085938c4.070312 2.175781 8.003906 4.597656 11.777343 7.253906 9.5625-7.046875 20.488281-12.019531 32.085938-14.59375 36.007812 7.9375 58.453125 50.089844 67.582031 70.996094 1.109375 3.671875 2.046875 7.425781 2.816406 11.179688 1.234375 6.671874 1.859375 13.441406 1.878906 20.222656zm0 0" fill="#ffe0b2"/><path d="m179.207031 298.679688c-70.183593 0-128.5625-48.359376-135.796875-112.476563-1.304687-11.585937-.875-23.304687 1.28125-34.765625.878906-4.359375 1.894532-8.414062 3.046875-12.175781.886719-2.914063 3.265625-5.132813 6.238281-5.820313 2.96875-.6875 6.082032.261719 8.160157 2.488282 2.082031 2.230468 2.8125 5.398437 1.925781 8.316406-1.03125 3.367187-1.902344 6.882812-2.609375 10.417968-1.835937 9.78125-2.199219 19.78125-1.082031 29.667969 6.253906 55.4375 57.347656 97.28125 118.835937 97.28125s112.578125-41.84375 118.835938-97.324219c1.121093-9.929687.746093-19.96875-1.109375-29.78125-.679688-3.375-1.546875-6.894531-2.578125-10.261718-1.375-4.507813 1.164062-9.277344 5.671875-10.652344 4.507812-1.375 9.277344 1.164062 10.652344 5.671875 1.152343 3.765625 2.167968 7.816406 3.019531 12.015625 1.335937 7.210938 2.019531 14.523438 2.039062 21.855469-.007812 4.351562-.25 8.699219-.730469 13.027343-7.238281 64.15625-65.617187 112.515626-135.800781 112.515626zm0 0"/><path d="m51.890625 204.8125h-17.75c-14.132813-.015625-25.585937-11.46875-25.601563-25.601562.066407-14.109376 11.488282-25.53125 25.601563-25.597657h17.664063c4.710937 0 8.53125 3.820313 8.53125 8.53125 0 4.714844-3.820313 8.535157-8.53125 8.535157h-17.578126c-2.253906-.039063-4.421874.847656-6.003906 2.449218-1.675781 1.582032-2.621094 3.78125-2.617187 6.082032.003906 4.710937 3.824219 8.53125 8.535156 8.535156h17.75c4.710937 0 8.53125 3.820312 8.53125 8.53125 0 4.714844-3.820313 8.535156-8.53125 8.535156zm0 0"/><path d="m324.273438 204.8125h-17.75c-4.710938 0-8.53125-3.820312-8.53125-8.535156 0-4.710938 3.820312-8.53125 8.53125-8.53125h17.75c4.710937-.003906 8.527343-3.824219 8.53125-8.535156.023437-2.226563-.867188-4.363282-2.457032-5.921876-1.578125-1.671874-3.777344-2.617187-6.074218-2.609374h-17.664063c-4.714844 0-8.535156-3.820313-8.535156-8.535157 0-4.710937 3.820312-8.53125 8.535156-8.53125h17.578125c14.144531.023438 25.617188 11.457031 25.683594 25.597657-.011719 14.132812-11.464844 25.585937-25.597656 25.601562zm0 0"/><path d="m324.199219 170.679688c-.171875 0-.332031-.007813-.5-.015626-4.703125-.273437-8.296875-4.300781-8.03125-9 .082031-1.601562.070312-11.019531.070312-12.316406-1.277343-74.183594-62.347656-133.34375-136.53125-132.269531-74.1875-1.074219-135.253906 58.085937-136.535156 132.269531 0 1.304688-.007813 10.730469.070313 12.324219.175781 3.042969-1.289063 5.949219-3.839844 7.621094-2.550782 1.671875-5.796875 1.855469-8.519532.480469-2.722656-1.371094-4.507812-4.089844-4.679687-7.136719-.085937-1.507813-.097656-11.875-.097656-13.289063 1.289062-83.605468 69.992187-150.402344 153.601562-149.3359372 83.609375-1.0664068 152.3125 65.7304692 153.597657 149.3359372 0 1.414063-.011719 11.78125-.09375 13.289063-.261719 4.511719-3.996094 8.035156-8.511719 8.042969zm0 0"/><path d="m55.898438 150.328125c-2.257813.011719-4.429688-.878906-6.027344-2.472656-1.601563-1.59375-2.503906-3.757813-2.503906-6.019531 0-1.195313.238281-2.378907.707031-3.480469 10.242187-23.542969 32.933593-64.585938 69.867187-75 21.136719-5.984375 43.398438-.925781 66.15625 15 3.789063 2.726562 4.679688 7.992187 2.007813 11.816406-2.675781 3.824219-7.929688 4.789063-11.789063 2.164063-18.355468-12.839844-35.765625-17.074219-51.742187-12.554688-31.128907 8.78125-51.378907 48.273438-58.742188 65.132812-1.28125 3.261719-4.425781 5.40625-7.933593 5.414063zm0 0"/><path d="m302.511719 150.328125c-3.660157.011719-6.917969-2.316406-8.09375-5.78125-7.496094-17.066406-27.675781-56.050781-58.582031-64.769531-15.96875-4.515625-33.382813-.28125-51.738282 12.558594-2.5 1.796874-5.769531 2.113281-8.5625.824218-2.792968-1.289062-4.679687-3.980468-4.929687-7.046875-.253907-3.066406 1.164062-6.03125 3.707031-7.761719 22.757812-15.921874 45.035156-20.972656 66.160156-15 36.933594 10.417969 59.628906 51.457032 69.867188 75 1.144531 2.644532.886718 5.683594-.6875 8.097657-1.578125 2.410156-4.257813 3.867187-7.140625 3.878906zm0 0"/><path d="m153.605469 366.945312c-4.710938 0-8.53125-3.820312-8.53125-8.53125v-70.566406c0-4.714844 3.820312-8.535156 8.53125-8.535156 4.714843 0 8.535156 3.820312 8.535156 8.535156v70.566406c0 4.710938-3.820313 8.53125-8.535156 8.53125zm0 0"/><path d="m204.804688 366.945312c-4.710938 0-8.53125-3.820312-8.53125-8.53125v-70.566406c0-4.714844 3.820312-8.535156 8.53125-8.535156 4.714843 0 8.535156 3.820312 8.535156 8.535156v70.566406c0 4.710938-3.820313 8.53125-8.535156 8.53125zm0 0"/><path d="m332.804688 512.011719h-307.199219c-14.132813-.015625-25.5820315-11.46875-25.5976565-25.597657v-51.203124c.0664063-61.238282 49.6953125-110.863282 110.9335935-110.933594h42.664063c4.714843 0 8.535156 3.824218 8.535156 8.535156 0 4.714844-3.820313 8.535156-8.535156 8.535156h-42.664063c-51.820312.058594-93.808594 42.046875-93.867187 93.863282v51.203124c.003906 4.710938 3.820312 8.527344 8.53125 8.53125h307.199219c4.710937-.003906 8.53125-3.820312 8.535156-8.53125v-51.203124c.011718-7.910157-.988282-15.789063-2.96875-23.449219-1.1875-4.558594 1.546875-9.21875 6.109375-10.40625s9.222656 1.546875 10.410156 6.105469c2.34375 9.066406 3.527344 18.390624 3.515625 27.75v51.203124c-.015625 14.128907-11.46875 25.582032-25.601562 25.597657zm0 0"/><path d="m318.128906 369.589844c-2.195312.003906-4.304687-.839844-5.886718-2.355469-17.441407-16.667969-40.648438-25.945313-64.769532-25.886719h-42.667968c-4.710938 0-8.53125-3.820312-8.53125-8.535156 0-4.710938 3.820312-8.535156 8.53125-8.535156h42.667968c28.507813-.0625 55.9375 10.902344 76.542969 30.601562 2.527344 2.40625 3.332031 6.109375 2.035156 9.347656-1.296875 3.238282-4.433593 5.359376-7.921875 5.359376zm0 0"/><path d="m179.207031 358.414062c-22.566406 0-32.625-28.21875-33.695312-31.433593-1.449219-4.457031.964843-9.242188 5.40625-10.730469 4.441406-1.484375 9.25.882812 10.777343 5.3125 1.742188 5.132812 8.691407 19.785156 17.511719 19.785156 9.0625 0 16.113281-15.59375 17.503907-19.769531 1.492187-4.46875 6.324218-6.886719 10.796874-5.394531 4.46875 1.492187 6.886719 6.324218 5.394532 10.796875-1.070313 3.214843-11.128906 31.433593-33.695313 31.433593zm0 0"/><path d="m204.804688 401.078125h-51.199219c-23.550781-.027344-42.636719-19.113281-42.664063-42.664063v-25.601562c0-4.710938 3.820313-8.535156 8.53125-8.535156 4.714844 0 8.535156 3.824218 8.535156 8.535156v25.601562c.015626 14.128907 11.464844 25.582032 25.597657 25.597657h51.199219c14.132812-.015625 25.585937-11.46875 25.601562-25.597657v-25.601562c0-4.710938 3.820312-8.535156 8.535156-8.535156 4.710938 0 8.53125 3.824218 8.53125 8.535156v25.601562c-.027344 23.550782-19.113281 42.636719-42.667968 42.664063zm0 0"/><path d="m179.207031 435.210938c-33.621093 0-59.675781-9.257813-77.421875-27.507813-17.5625-19.6875-26.574218-45.550781-25.058594-71.890625.199219-4.679688 4.082032-8.355469 8.765626-8.292969 2.265624.066407 4.410156 1.023438 5.964843 2.671875 1.554688 1.644532 2.394531 3.839844 2.328125 6.105469-.316406 11.308594 1.023438 39.75 20.234375 59.507813 14.414063 14.824218 36.34375 22.339843 65.1875 22.339843 28.867188 0 50.808594-7.515625 65.214844-22.332031 14.3125-16.402344 21.570313-37.792969 20.203125-59.515625-.066406-2.265625.773438-4.460937 2.328125-6.105469 1.554687-1.648437 3.699219-2.605468 5.960937-2.671875 4.6875-.0625 8.574219 3.613281 8.769532 8.292969 1.523437 26.335938-7.476563 52.199219-25.023438 71.898438-17.746094 18.25-43.804687 27.5-77.453125 27.5zm0 0"/><path d="m179.207031 477.878906c-4.714843 0-8.535156-3.820312-8.535156-8.53125v-42.667968c0-4.714844 3.820313-8.535157 8.535156-8.535157 4.710938 0 8.53125 3.820313 8.53125 8.535157v42.667968c0 4.710938-3.820312 8.53125-8.53125 8.53125zm0 0"/><path d="m196.273438 460.8125h-34.132813c-4.714844 0-8.535156-3.820312-8.535156-8.535156 0-4.710938 3.820312-8.53125 8.535156-8.53125h34.132813c4.710937 0 8.53125 3.820312 8.53125 8.53125 0 4.714844-3.820313 8.535156-8.53125 8.535156zm0 0"/><path d="m426.671875 512.011719h-34.132813c-9.421874-.011719-17.054687-7.644531-17.066406-17.066407v-76.800781h-51.199218c-9.421876-.007812-17.054688-7.644531-17.066407-17.066406v-34.132813c.011719-9.421874 7.644531-17.054687 17.066407-17.066406h51.199218v-42.667968c.011719-9.417969 7.644532-17.054688 17.066406-17.066407h34.132813c9.421875.011719 17.058594 7.648438 17.066406 17.066407v42.667968h51.203125c9.417969.011719 17.054688 7.644532 17.066406 17.066406v34.132813c-.011718 9.421875-7.648437 17.058594-17.066406 17.066406h-51.203125v76.800781c-.007812 9.421876-7.644531 17.054688-17.066406 17.066407zm-102.398437-145.066407v34.132813h51.199218c9.421875.011719 17.054688 7.648437 17.066406 17.066406v76.800781h34.132813v-76.800781c.011719-9.417969 7.648437-17.054687 17.066406-17.066406h51.203125v-34.140625l-51.203125.007812c-9.417969-.011718-17.054687-7.644531-17.066406-17.066406v-42.667968h-34.132813v42.667968c-.011718 9.421875-7.644531 17.054688-17.066406 17.066406zm0 0"/></svg>