<svg height="512pt" viewBox="0 0 512 512.01259" width="512pt" xmlns="http://www.w3.org/2000/svg"><path d="m324.273438 149.347656c0 1.363282 0 15.613282-.085938 17.066406h-289.960938c-.085937-1.453124-.085937-15.703124-.085937-17.066406.984375-74.363281 58.992187-135.457031 133.203125-140.289062 3.925781-.34375 7.851562-.511719 11.863281-.511719 78.929688-1.15625 143.867188 61.867187 145.066407 140.800781zm0 0" fill="#6d4122"/><path d="m300.636719 149.347656c0 1.363282 0 15.613282-.085938 17.066406h-266.324219c-.085937-1.453124-.085937-15.703124-.085937-17.066406.984375-74.363281 58.992187-135.457031 133.203125-140.289062 74.242188 4.792968 132.300781 65.898437 133.292969 140.289062zm0 0" fill="#91562d"/><path d="m317.445312 360.460938h-276.480468c-25.429688-19.796876-30.546875-57.003907-15.359375-87.382813 17.066406-34.132813 8.535156-81.066406 8.535156-81.066406h290.132813s-8.535157 46.933593 8.53125 81.066406c15.191406 30.378906 10.070312 67.585937-15.359376 87.382813zm0 0" fill="#783e22"/><path d="m293.808594 360.460938h-252.84375c-25.429688-19.796876-30.546875-57.003907-15.359375-87.382813 17.066406-34.132813 8.535156-81.066406 8.535156-81.066406h266.496094s-8.535157 46.933593 8.53125 81.066406c15.191406 30.378906 10.070312 67.585937-15.359375 87.382813zm0 0" fill="#a0522d"/><path d="m306.609375 162.144531h17.664063c9.398437.070313 17 7.671875 17.066406 17.066407-.027344 9.414062-7.652344 17.039062-17.066406 17.066406h-290.132813c-9.414063-.027344-17.039063-7.652344-17.066406-17.066406.066406-9.394532 7.667969-16.996094 17.066406-17.066407zm0 0" fill="#dfc49c"/><path d="m346.628906 409.613281-28.5-48.554687c-10.417968-9.957032-22.839844-17.578125-36.4375-22.359375-5.480468-1.976563-11.140625-3.433594-16.894531-4.351563-5.71875-1.03125-11.515625-1.542968-17.324219-1.535156h-136.53125c-5.804687.007812-11.601562.492188-17.324218 1.449219-49.117188 8.511719-85.011719 51.101562-85.078126 100.949219v51.203124c.027344 9.414063 7.652344 17.039063 17.066407 17.066407h307.199219c9.414062-.027344 17.039062-7.652344 17.066406-17.066407v-51.203124c.019531-8.636719-1.070313-17.238282-3.242188-25.597657zm0 0" fill="#35495e"/><path d="m349.871094 435.210938v51.203124c-.027344 9.414063-7.652344 17.039063-17.066406 17.066407h-307.199219c-9.414063-.027344-17.039063-7.652344-17.066407-17.066407v-51.203124c.066407-49.847657 35.960938-92.4375 85.078126-100.949219 5.722656-.957031 11.519531-1.441407 17.324218-1.449219h8.53125v25.601562c-.003906 9.050782 3.59375 17.734376 9.996094 24.136719 6.402344 6.402344 15.085938 9.996094 24.136719 9.996094h51.199219c9.054687 0 17.738281-3.59375 24.140624-9.996094 6.402344-6.402343 9.996094-15.085937 9.996094-24.136719v-25.601562h8.53125c5.808594-.007812 11.605469.503906 17.324219 1.535156 5.753906.917969 11.414063 2.375 16.894531 4.351563 13.597656 4.78125 26.019532 12.402343 36.4375 22.359375l28.5 48.554687c2.171875 8.359375 3.261719 16.960938 3.242188 25.597657zm0 0" fill="#3f51b5"/><path d="m349.871094 435.210938v51.203124c-.027344 9.414063-7.652344 17.039063-17.066406 17.066407h-23.636719c9.414062-.027344 17.039062-7.652344 17.066406-17.066407v-51.203124c.015625-8.636719-1.074219-17.238282-3.242187-25.597657l-28.5-48.554687c-10.417969-9.957032-22.839844-17.578125-36.4375-22.359375-5.484376-1.976563-11.140626-3.433594-16.894532-4.351563-.734375-.15625-1.476562-.269531-2.21875-.339844v-1.195312h8.53125c5.808594-.007812 11.605469.503906 17.324219 1.535156 5.753906.917969 11.414063 2.375 16.894531 4.351563 13.597656 4.78125 26.019532 12.402343 36.4375 22.359375l28.5 48.554687c2.171875 8.359375 3.261719 16.960938 3.242188 25.597657zm0 0" fill="#283593"/><path d="m238.941406 332.8125v25.601562c0 9.050782-3.59375 17.734376-9.996094 24.136719-6.402343 6.402344-15.085937 9.996094-24.140624 9.996094h-51.199219c-9.050781 0-17.734375-3.59375-24.136719-9.996094-6.402344-6.402343-10-15.085937-9.996094-24.136719v-25.601562zm0 0" fill="#f5f5f5"/><path d="m204.804688 287.84375v44.96875c-4.992188 9.746094-14.683594 16.203125-25.597657 17.066406-10.917969-.863281-20.605469-7.320312-25.601562-17.066406v-44.96875zm0 0" fill="#ffe0b2"/><path d="m503.472656 366.945312v34.132813c-.011718 4.707031-3.824218 8.519531-8.53125 8.535156h-51.203125c-4.707031.011719-8.519531 3.824219-8.53125 8.53125v76.800781c-.015625 4.707032-3.828125 8.519532-8.535156 8.535157h-34.132813c-4.707031-.015625-8.519531-3.828125-8.53125-8.535157v-76.800781c-.015624-4.707031-3.828124-8.519531-8.535156-8.53125h-51.199218c-4.707032-.015625-8.519532-3.828125-8.535157-8.535156v-34.132813c.015625-4.707031 3.828125-8.519531 8.535157-8.53125h51.199218c4.707032-.015624 8.519532-3.828124 8.535156-8.535156v-42.667968c.011719-4.707032 3.824219-8.519532 8.53125-8.53125h34.132813c4.707031.011718 8.519531 3.824218 8.535156 8.53125v42.667968c.011719 4.707032 3.824219 8.519532 8.53125 8.535156h51.203125c4.707032.011719 8.519532 3.824219 8.53125 8.53125zm0 0" fill="#fec108"/><path d="m479.835938 366.945312v34.132813c-.015626 4.707031-3.828126 8.519531-8.535157 8.535156h-51.199219c-2.265624-.007812-4.441406.886719-6.042968 2.488281-1.601563 1.605469-2.496094 3.777344-2.488282 6.042969v76.800781c-.015624 4.707032-3.828124 8.519532-8.535156 8.535157h-10.496094c-4.707031-.015625-8.519531-3.828125-8.53125-8.535157v-76.800781c-.015624-4.707031-3.828124-8.519531-8.535156-8.53125h-51.199218c-4.707032-.015625-8.519532-3.828125-8.535157-8.535156v-34.132813c.015625-4.707031 3.828125-8.519531 8.535157-8.53125h51.199218c4.707032-.015624 8.519532-3.828124 8.535156-8.535156v-42.667968c.011719-4.707032 3.824219-8.519532 8.53125-8.53125h10.496094c4.707032.011718 8.519532 3.824218 8.535156 8.53125v42.667968c-.007812 2.265625.886719 4.441406 2.488282 6.042969 1.601562 1.601563 3.777344 2.5 6.042968 2.492187h51.199219c4.707031.011719 8.519531 3.824219 8.535157 8.53125zm0 0" fill="#ffdc00"/><path d="m307.207031 173.152344c-.011719 4.050781-.242187 8.09375-.683593 12.117187-.425782 3.671875-1.023438 7.339844-1.792969 10.925781-12.003907 47.769532-51.296875 83.804688-99.925781 91.648438-8.441407 1.550781-17.011719 2.320312-25.597657 2.300781-4.011719 0-7.9375-.167969-11.777343-.511719-4.636719-.332031-9.253907-.929687-13.824219-1.789062-48.773438-7.789062-88.136719-44.027344-99.925781-91.992188-.765626-3.496093-1.363282-6.996093-1.789063-10.582031-.445313-4.023437-.671875-8.066406-.683594-12.117187-.019531-3.675782.179688-7.351563.597657-11.007813.253906-3.070312.765624-6.144531 1.277343-9.214843.597657-2.988282 1.367188-5.886719 2.136719-8.789063l4.519531-24.660156c43.179688-10.667969 65.109375-29.441407 75.777344-43.179688 4.121094-4.921875 7.355469-10.523437 9.558594-16.554687 0 0 27.132812 47.53125 105.640625 51.710937 2.5625.171875 5.121094.257813 7.851562.257813 7.6875.15625 15.378906-.101563 23.039063-.769532 8.894531 10.4375 16.277343 22.070313 21.929687 34.5625.683594 2.472657 1.28125 4.949219 1.792969 7.421876.511719 3.070312 1.023437 6.144531 1.28125 9.214843.414063 3.65625.617187 7.332031.597656 11.007813zm0 0" fill="#dfc49c"/><path d="m283.570312 173.152344c-.015624 4.050781-.242187 8.09375-.683593 12.117187-.425781 3.671875-1.023438 7.339844-1.792969 10.925781-12.003906 47.769532-51.296875 83.804688-99.925781 91.648438-4.539063.859375-9.128907 1.457031-13.738281 1.789062-4.636719-.332031-9.253907-.929687-13.824219-1.789062-48.773438-7.789062-88.136719-44.027344-99.925781-91.992188-.765626-3.496093-1.363282-6.996093-1.789063-10.582031-.445313-4.023437-.671875-8.066406-.683594-12.117187-.019531-3.675782.179688-7.351563.597657-11.007813.253906-3.070312.765624-6.144531 1.277343-9.214843.597657-2.988282 1.367188-5.886719 2.136719-8.789063l4.519531-24.660156c43.179688-10.667969 65.109375-29.441407 75.777344-43.179688 17.578125 16.296875 53.246094 38.484375 115.199219 35.15625 2.390625-.085937 4.78125-.253906 7.253906-.511719.222656.238282.421875.496094.597656.769532 8.71875 10.164062 15.90625 21.546875 21.332032 33.792968.683593 2.472657 1.28125 4.949219 1.792968 7.421876.511719 3.070312 1.023438 6.144531 1.28125 9.214843.414063 3.65625.613282 7.332031.597656 11.007813zm0 0" fill="#ffe0b2"/><path d="m51.890625 204.8125h-17.75c-14.132813-.015625-25.585937-11.46875-25.601563-25.601562.066407-14.109376 11.488282-25.53125 25.601563-25.597657h17.664063c4.710937 0 8.53125 3.820313 8.53125 8.53125 0 4.714844-3.820313 8.535157-8.53125 8.535157h-17.578126c-2.253906-.039063-4.421874.847656-6.003906 2.449218-1.675781 1.582032-2.621094 3.78125-2.617187 6.082032.003906 4.710937 3.824219 8.53125 8.535156 8.535156h17.75c4.710937 0 8.53125 3.820312 8.53125 8.53125 0 4.714844-3.820313 8.535156-8.53125 8.535156zm0 0"/><path d="m324.273438 204.8125h-17.75c-4.710938 0-8.53125-3.820312-8.53125-8.535156 0-4.710938 3.820312-8.53125 8.53125-8.53125h17.75c4.710937-.003906 8.527343-3.824219 8.53125-8.535156.023437-2.226563-.867188-4.363282-2.457032-5.921876-1.578125-1.671874-3.777344-2.617187-6.074218-2.609374h-17.664063c-4.714844 0-8.535156-3.820313-8.535156-8.535157 0-4.710937 3.820312-8.53125 8.535156-8.53125h17.578125c14.144531.023438 25.617188 11.457031 25.683594 25.597657-.011719 14.132812-11.464844 25.585937-25.597656 25.601562zm0 0"/><path d="m324.199219 170.679688c-.171875 0-.332031-.007813-.5-.015626-4.703125-.273437-8.296875-4.300781-8.03125-9 .082031-1.601562.070312-11.019531.070312-12.316406-1.277343-74.183594-62.347656-133.34375-136.53125-132.269531-74.1875-1.074219-135.253906 58.085937-136.535156 132.269531 0 1.304688-.007813 10.730469.070313 12.324219.175781 3.042969-1.289063 5.949219-3.839844 7.621094-2.550782 1.671875-5.796875 1.855469-8.519532.480469-2.722656-1.371094-4.507812-4.089844-4.679687-7.136719-.085937-1.507813-.097656-11.875-.097656-13.289063 1.289062-83.605468 69.992187-150.402344 153.601562-149.3359372 83.609375-1.0664068 152.3125 65.7304692 153.597657 149.3359372 0 1.414063-.011719 11.78125-.09375 13.289063-.261719 4.511719-3.996094 8.035156-8.511719 8.042969zm0 0"/><path d="m153.605469 366.945312c-4.710938 0-8.53125-3.820312-8.53125-8.53125v-70.566406c0-4.714844 3.820312-8.535156 8.53125-8.535156 4.714843 0 8.535156 3.820312 8.535156 8.535156v70.566406c0 4.710938-3.820313 8.53125-8.535156 8.53125zm0 0"/><path d="m204.804688 366.945312c-4.710938 0-8.53125-3.820312-8.53125-8.53125v-70.566406c0-4.714844 3.820312-8.535156 8.53125-8.535156 4.714843 0 8.535156 3.820312 8.535156 8.535156v70.566406c0 4.710938-3.820313 8.53125-8.535156 8.53125zm0 0"/><path d="m332.804688 512.011719h-307.199219c-14.132813-.015625-25.5820315-11.46875-25.5976565-25.597657v-51.203124c.0664063-61.238282 49.6953125-110.863282 110.9335935-110.933594h42.664063c4.714843 0 8.535156 3.824218 8.535156 8.535156 0 4.714844-3.820313 8.535156-8.535156 8.535156h-42.664063c-51.820312.058594-93.808594 42.046875-93.867187 93.863282v51.203124c.003906 4.710938 3.820312 8.527344 8.53125 8.53125h307.199219c4.710937-.003906 8.53125-3.820312 8.535156-8.53125v-51.203124c.011718-7.910157-.988282-15.789063-2.96875-23.449219-1.1875-4.558594 1.546875-9.21875 6.109375-10.40625s9.222656 1.546875 10.410156 6.105469c2.34375 9.066406 3.527344 18.390624 3.515625 27.75v51.203124c-.015625 14.128907-11.46875 25.582032-25.601562 25.597657zm0 0"/><path d="m318.128906 369.589844c-2.195312.003906-4.304687-.839844-5.886718-2.355469-17.441407-16.667969-40.648438-25.945313-64.769532-25.886719h-42.667968c-4.710938 0-8.53125-3.820312-8.53125-8.535156 0-4.710938 3.820312-8.535156 8.53125-8.535156h42.667968c28.507813-.0625 55.9375 10.902344 76.542969 30.601562 2.527344 2.40625 3.332031 6.109375 2.035156 9.347656-1.296875 3.238282-4.433593 5.359376-7.921875 5.359376zm0 0"/><path d="m179.207031 358.414062c-22.566406 0-32.625-28.21875-33.695312-31.433593-1.449219-4.457031.964843-9.242188 5.40625-10.730469 4.441406-1.484375 9.25.882812 10.777343 5.3125 1.742188 5.132812 8.691407 19.785156 17.511719 19.785156 9.0625 0 16.113281-15.59375 17.503907-19.769531 1.492187-4.46875 6.324218-6.886719 10.796874-5.394531 4.46875 1.492187 6.886719 6.324218 5.394532 10.796875-1.070313 3.214843-11.128906 31.433593-33.695313 31.433593zm0 0"/><path d="m204.804688 401.078125h-51.199219c-23.550781-.027344-42.636719-19.113281-42.664063-42.664063v-25.601562c0-4.710938 3.820313-8.535156 8.53125-8.535156 4.714844 0 8.535156 3.824218 8.535156 8.535156v25.601562c.015626 14.128907 11.464844 25.582032 25.597657 25.597657h51.199219c14.132812-.015625 25.585937-11.46875 25.601562-25.597657v-25.601562c0-4.710938 3.820312-8.535156 8.535156-8.535156 4.710938 0 8.53125 3.824218 8.53125 8.535156v25.601562c-.027344 23.550782-19.113281 42.636719-42.667968 42.664063zm0 0"/><path d="m179.207031 435.210938c-33.621093 0-59.675781-9.257813-77.421875-27.507813-17.5625-19.6875-26.574218-45.550781-25.058594-71.890625.199219-4.679688 4.082032-8.355469 8.765626-8.292969 2.265624.066407 4.410156 1.023438 5.964843 2.671875 1.554688 1.644532 2.394531 3.839844 2.328125 6.105469-.316406 11.308594 1.023438 39.75 20.234375 59.507813 14.414063 14.824218 36.34375 22.339843 65.1875 22.339843 28.867188 0 50.808594-7.515625 65.214844-22.332031 14.3125-16.402344 21.570313-37.792969 20.203125-59.515625-.066406-2.265625.773438-4.460937 2.328125-6.105469 1.554687-1.648437 3.699219-2.605468 5.960937-2.671875 4.675782-.039062 8.546876 3.625 8.769532 8.292969 1.523437 26.335938-7.476563 52.199219-25.023438 71.898438-17.746094 18.25-43.804687 27.5-77.453125 27.5zm0 0"/><path d="m179.207031 477.878906c-4.714843 0-8.535156-3.820312-8.535156-8.53125v-42.667968c0-4.714844 3.820313-8.535157 8.535156-8.535157 4.710938 0 8.53125 3.820313 8.53125 8.535157v42.667968c0 4.710938-3.820312 8.53125-8.53125 8.53125zm0 0"/><path d="m196.273438 460.8125h-34.132813c-4.714844 0-8.535156-3.820312-8.535156-8.535156 0-4.710938 3.820312-8.53125 8.535156-8.53125h34.132813c4.710937 0 8.53125 3.820312 8.53125 8.53125 0 4.714844-3.820313 8.535156-8.53125 8.535156zm0 0"/><path d="m426.671875 512.011719h-34.132813c-9.421874-.011719-17.054687-7.644531-17.066406-17.066407v-76.800781h-51.199218c-9.421876-.007812-17.054688-7.644531-17.066407-17.066406v-34.132813c.011719-9.421874 7.644531-17.054687 17.066407-17.066406h51.199218v-42.667968c.011719-9.417969 7.644532-17.054688 17.066406-17.066407h34.132813c9.421875.011719 17.058594 7.648438 17.066406 17.066407v42.667968h51.203125c9.417969.011719 17.054688 7.644532 17.066406 17.066406v34.132813c-.011718 9.421875-7.648437 17.058594-17.066406 17.066406h-51.203125v76.800781c-.007812 9.421876-7.644531 17.054688-17.066406 17.066407zm-102.398437-145.066407v34.132813h51.199218c9.421875.011719 17.054688 7.648437 17.066406 17.066406v76.800781h34.132813v-76.800781c.011719-9.417969 7.648437-17.054687 17.066406-17.066406h51.203125v-34.140625l-51.203125.007812c-9.417969-.011718-17.054687-7.644531-17.066406-17.066406v-42.667968h-34.132813v42.667968c-.011718 9.421875-7.644531 17.054688-17.066406 17.066406zm0 0"/><path d="m40.960938 368.992188c-1.898438.003906-3.742188-.628907-5.238282-1.796876-27.824218-21.667968-35.289062-62.847656-17.75-97.933593 15.507813-31.007813 7.875-70.914063 7.796875-71.316407-.597656-2.988281.445313-6.070312 2.738281-8.082031 2.289063-2.011719 5.480469-2.648437 8.367188-1.671875 2.886719.976563 5.035156 3.421875 5.632812 6.414063.367188 1.855469 8.898438 45.957031-9.269531 82.289062-13.914062 27.835938-8.460937 60.152344 12.972657 76.835938 2.875 2.238281 4.011718 6.058593 2.828124 9.503906-1.1875 3.449219-4.429687 5.761719-8.074218 5.761719zm0 0"/><path d="m317.453125 368.992188c-3.644531.003906-6.890625-2.3125-8.074219-5.757813-1.183594-3.449219-.050781-7.265625 2.828125-9.507813 21.429688-16.683593 26.878907-49 12.96875-76.832031-18.164062-36.332031-9.636719-80.433593-9.265625-82.292969.921875-4.621093 5.417969-7.621093 10.039063-6.699218 4.621093.925781 7.621093 5.417968 6.699219 10.042968-.082032.398438-7.714844 40.308594 7.792968 71.316407 17.539063 35.082031 10.078125 76.265625-17.746094 97.933593-1.496093 1.167969-3.34375 1.804688-5.242187 1.796876zm0 0"/><path d="m179.207031 298.679688c-9.105469.011718-18.195312-.804688-27.15625-2.441407-52.230469-8.277343-94.339843-47.1875-106.714843-98.601562-.816407-3.722657-1.464844-7.5-1.921876-11.359375-.484374-4.355469-.730468-8.738282-.742187-13.125-.019531-4.011719.199219-8.027344.65625-12.015625.246094-2.992188.78125-6.273438 1.332031-9.558594.664063-3.355469 1.4375-6.332031 2.226563-9.304687l4.460937-24.335938c.605469-3.300781 3.089844-5.941406 6.351563-6.742188 67.800781-16.714843 79.066406-53.433593 79.167969-53.796874.945312-3.300782 3.777343-5.714844 7.183593-6.128907 3.410157-.410156 6.734375 1.261719 8.433594 4.242188 1.289063 2.210937 33.15625 54.769531 128.417969 46.933593 2.773437-.277343 5.5.859376 7.253906 3.027344 9.699219 11.234375 17.632812 23.878906 23.535156 37.5.808594 2.925782 1.453125 5.582032 2 8.242188.617188 3.648437 1.15625 6.929687 1.429688 10.214844.4375 3.894531.644531 7.808593.617187 11.722656-.007812 4.351562-.253906 8.703125-.730469 13.027344-.464843 4.011718-1.109374 7.957031-1.929687 11.800781-12.585937 51.222656-54.621094 89.929687-106.707031 98.257812-8.960938 1.636719-18.054688 2.453125-27.164063 2.441407zm-115.761719-152.265626c-.71875 2.707032-1.433593 5.40625-1.992187 8.191407-.425781 2.605469-.910156 5.425781-1.148437 8.257812-.390626 3.414063-.582032 6.851563-.566407 10.289063.011719 3.746094.222657 7.488281.632813 11.210937.386718 3.207031.933594 6.429688 1.648437 9.664063 10.933594 44.683594 47.6875 78.394531 93.148438 85.425781 15.902343 2.867187 32.183593 2.867187 48.085937 0 45.316406-7.074219 82-40.585937 93.140625-85.082031.703125-3.285156 1.257813-6.683594 1.652344-10.082032.40625-3.699218.617187-7.414062.625-11.136718.019531-3.339844-.160156-6.679688-.535156-9.996094-.269531-3.125-.746094-5.945312-1.21875-8.777344-.421875-2.023437-.972657-4.316406-1.605469-6.601562-4.503906-10.101563-10.402344-19.523438-17.527344-27.988282-75.914062 5.101563-115.257812-26.257812-131.265625-44.097656-9.566406 14.683594-31.53125 37.664063-79.367187 50.683594l-3.539063 19.289062-.023437.132813v.019531c-.046875.195313-.09375.394532-.144532.597656zm0 0"/></svg>