<svg height="512pt" viewBox="0 0 512 512" width="512pt" xmlns="http://www.w3.org/2000/svg"><path d="m332.800781 212.734375c0 1.453125 0 12.546875-.085937 14.167969h-289.960938c-.085937-1.621094-.085937-12.714844-.085937-14.167969.003906-8.570313.660156-17.128906 1.960937-25.597656.171875-1.519531.429688-3.03125.769532-4.523438.339843-2.132812.765624-4.265625 1.195312-6.398437h282.28125c.425781 2.132812.851562 4.265625 1.195312 6.398437.335938 1.492188.59375 3.003907.765626 4.523438 1.304687 8.46875 1.960937 17.027343 1.964843 25.597656zm0 0" fill="#91562d"/><path d="m358.398438 477.867188v8.53125c-.027344 9.414062-7.652344 17.039062-17.066407 17.066406h-307.199219c-9.414062-.027344-17.039062-7.652344-17.066406-17.066406v-8.53125c0-50.859376 36.949219-79.191407 85.503906-84.308594.859376-.246094 1.75-.359375 2.644532-.34375l48.984375-.679688h67.070312l48.980469.679688c.894531-.015625 1.785156.097656 2.644531.34375 31.320313 3.328125 57.773438 16.210937 72.707031 38.65625l11.6875 30.972656c.769532 4.855469 1.140626 9.765625 1.109376 14.679688zm0 0" fill="#283593"/><path d="m334.761719 477.867188v8.53125c-.027344 9.414062-7.652344 17.039062-17.066407 17.066406h-283.5625c-9.414062-.027344-17.039062-7.652344-17.066406-17.066406v-8.53125c0-50.859376 36.949219-79.191407 85.503906-84.308594.859376-.246094 1.75-.359375 2.644532-.34375l48.984375-.679688h43.433593l48.980469.679688c.894531-.015625 1.785157.097656 2.644531.34375 31.316407 3.328125 57.773438 16.210937 72.703126 38.65625l11.691406 30.972656c.769531 4.855469 1.140625 9.765625 1.109375 14.679688zm0 0" fill="#3f51b5"/><path d="m273.066406 392.535156-17.066406 110.929688h-136.535156l-17.066406-110.929688zm0 0" fill="#9e9e9e"/><path d="m213.332031 347.5625v56.320312l-25.597656 36.777344-25.601563-36.777344v-56.320312zm0 0" fill="#ffe0b2"/><path d="m187.734375 440.660156-31.0625 37.207032-54.273437-89.257813 32.941406-12.628906c3.378906-1.289063 7.203125-.132813 9.300781 2.8125l17.492187 25.089843zm0 0" fill="#f5f5f5"/><path d="m273.066406 388.609375-54.273437 89.257813-31.058594-37.207032 25.597656-36.777344 17.496094-25.089843c2.097656-2.945313 5.917969-4.101563 9.300781-2.8125zm0 0" fill="#f5f5f5"/><path d="m502.101562 340.480469c-1.734374 7.125-5.328124 13.660156-10.410156 18.945312l-96.9375 96.9375c-.582031.582031-1.328125.96875-2.136718 1.109375l-57.511719 9.300782c-1.144531.222656-2.324219-.128907-3.160157-.9375l-2.046874-2.050782-16.042969-16.042968c-.847657-.933594-1.183594-2.222657-.890625-3.453126.289062-1.226562 1.164062-2.234374 2.34375-2.6875 0 0 49.066406-15.191406 49.40625-15.53125l96.851562-96.769531c4.050782-4.078125 8.75-7.453125 13.910156-9.984375 1.882813-.890625 3.820313-1.660156 5.804688-2.304687 4.058594-1.429688 8.449219-1.636719 12.628906-.597657 11.09375 3.328126 10.496094 14.933594 8.191406 24.066407zm0 0" fill="#707070"/><path d="m478.378906 340.480469c-1.703125 7.117187-5.265625 13.65625-10.324218 18.945312l-25.429688 25.425781-71.511719 71.511719c-.578125.582031-1.324219.96875-2.132812 1.109375l-39.082031 6.3125-16.042969-16.042968c-.847657-.933594-1.183594-2.222657-.890625-3.453126.289062-1.226562 1.164062-2.234374 2.34375-2.6875 0 0 49.066406-15.191406 49.40625-15.53125l96.851562-96.769531c4.050782-4.078125 8.75-7.453125 13.910156-9.984375 4.757813 5.996094 5.867188 14.109375 2.902344 21.164063zm0 0" fill="#9e9e9e"/><path d="m462.894531 364.117188 4.890625 40.542968 2.457032 20.253906 2.847656 23.511719c.144531 1.144531-.246094 2.289063-1.0625 3.105469l-17.414063 17.414062c-1.015625.9375-2.441406 1.28125-3.773437.917969-1.332032-.363281-2.382813-1.386719-2.78125-2.707031l-23.03125-65.164062zm0 0" fill="#9e9e9e"/><path d="m395.691406 395.117188-24.777344-11.679688c-3.644531-1.71875-5.554687-6.261719-3.5-8.316406l18.71875-18.71875c.984376-.851563 2.351563-1.097656 3.570313-.640625l35.320313 10.019531zm0 0" fill="#607d8b"/><path d="m315.136719 221.867188h17.664062c9.398438.066406 16.996094 7.667968 17.066407 17.066406-.027344 9.414062-7.652344 17.039062-17.066407 17.066406h-290.132812c-9.414063-.027344-17.039063-7.652344-17.066407-17.066406.066407-9.398438 7.667969-17 17.066407-17.066406zm0 0" fill="#dfc49c"/><path d="m315.734375 232.875c-.011719 4.046875-.242187 8.09375-.683594 12.117188-6.65625 58.964843-61.097656 104.875-127.316406 104.875-3.925781 0-7.851563-.171876-11.777344-.511719-60.757812-5.035157-109.3125-48.898438-115.542969-104.363281-.441406-4.023438-.667968-8.070313-.679687-12.117188.015625-6.785156.644531-13.554688 1.875-20.222656.769531-3.757813 1.707031-7.511719 2.816406-11.179688.425781-1.109375.941407-2.21875 1.535157-3.5 1.539062-3.414062 3.414062-7.253906 5.632812-11.261718h232.277344c2.21875 4.007812 4.097656 7.847656 5.632812 11.261718.597656 1.28125 1.109375 2.390625 1.535156 3.5 1.109376 3.667969 2.050782 7.421875 2.816407 11.179688 1.234375 6.667968 1.863281 13.4375 1.878906 20.222656zm0 0" fill="#dfc49c"/><path d="m292.097656 232.875c-.015625 4.046875-.242187 8.09375-.683594 12.117188-6.230468 55.382812-54.699218 99.328124-115.457031 104.363281-60.757812-5.035157-109.3125-48.898438-115.542969-104.363281-.441406-4.023438-.667968-8.070313-.679687-12.117188.015625-6.785156.644531-13.554688 1.875-20.222656.769531-3.757813 1.707031-7.511719 2.816406-11.179688.425781-1.109375.941407-2.21875 1.535157-3.5 1.539062-3.414062 3.414062-7.253906 5.632812-11.261718h208.640625c2.21875 4.007812 4.097656 7.847656 5.632813 11.261718.597656 1.28125 1.109374 2.390625 1.535156 3.5 1.109375 3.667969 2.046875 7.421875 2.816406 11.179688 1.230469 6.667968 1.859375 13.4375 1.878906 20.222656zm0 0" fill="#ffe0b2"/><path d="m42.667969 170.667969s0 25.597656 145.066406 25.597656 145.066406-25.597656 145.066406-25.597656l-145.066406-46.933594zm0 0" fill="#3f51b5"/><path d="m366.933594 110.933594c0 42.667968-34.132813 42.667968-34.132813 42.667968h-290.132812s-34.132813 0-34.132813-42.667968c0-41.300782 48.039063-98.644532 167.335938-102.230469h.085937c3.839844-.085937 7.765625-.167969 11.777344-.167969 128 0 179.199219 59.730469 179.199219 102.398438zm0 0" fill="#283593"/><path d="m343.296875 110.933594c0 42.667968-34.132813 42.667968-34.132813 42.667968h-266.496093s-34.132813 0-34.132813-42.667968c0-41.300782 48.039063-98.644532 167.335938-102.230469h.085937c119.296875 3.585937 167.339844 60.929687 167.339844 102.230469zm0 0" fill="#3f51b5"/><path d="m187.734375 68.265625c51.199219.007813 68.265625 34.132813 68.265625 34.132813 31.574219 6.316406 58.46875 12.632812 70.324219 15.488281 3.820312.921875 6.5 4.351562 6.476562 8.28125v44.5c-47.722656-10.183594-96.285156-15.898438-145.066406-17.066407-48.78125 1.167969-97.347656 6.882813-145.066406 17.066407v-44.5c-.027344-3.929688 2.65625-7.359375 6.476562-8.28125 11.851563-2.855469 38.75-9.171875 70.320313-15.488281 0 0 17.070312-34.125 68.269531-34.132813zm0 0" fill="#ffdc00"/><path d="m187.734375 358.398438c-70.183594 0-128.5625-48.355469-135.796875-112.472657-1.304688-11.589843-.875-23.308593 1.28125-34.769531.878906-4.355469 1.894531-8.414062 3.046875-12.171875 1.375-4.507813 6.144531-7.046875 10.652344-5.671875 4.507812 1.375 7.046875 6.144531 5.671875 10.652344-1.03125 3.367187-1.902344 6.886718-2.609375 10.417968-1.835938 9.78125-2.199219 19.78125-1.082031 29.671876 6.253906 55.4375 57.347656 97.277343 118.835937 97.277343s112.578125-41.839843 118.835937-97.324219c1.121094-9.925781.746094-19.964843-1.109374-29.78125-.683594-3.375-1.550782-6.890624-2.578126-10.257812-.890624-2.917969-.15625-6.085938 1.921876-8.316406 2.082031-2.226563 5.195312-3.175782 8.164062-2.488282s5.347656 2.90625 6.238281 5.820313c1.152344 3.769531 2.167969 7.816406 3.019531 12.019531 1.335938 7.207032 2.019532 14.523438 2.039063 21.855469-.007813 4.351563-.253906 8.699219-.730469 13.023437-7.238281 64.160157-65.617187 112.515626-135.800781 112.515626zm0 0"/><path d="m60.414062 264.535156h-17.746093c-14.132813-.015625-25.585938-11.46875-25.601563-25.601562.066406-14.113282 11.488282-25.535156 25.601563-25.601563h17.664062c4.710938 0 8.53125 3.820313 8.53125 8.535157 0 4.710937-3.820312 8.53125-8.53125 8.53125h-17.578125c-2.253906-.035157-4.421875.851562-6.007812 2.453124-1.671875 1.578126-2.617188 3.78125-2.613282 6.082032.003907 4.710937 3.824219 8.527344 8.535157 8.53125h17.746093c4.714844 0 8.535157 3.824218 8.535157 8.535156s-3.820313 8.535156-8.535157 8.535156zm0 0"/><path d="m332.800781 264.535156h-17.75c-4.714843 0-8.535156-3.824218-8.535156-8.535156s3.820313-8.535156 8.535156-8.535156h17.75c4.710938-.003906 8.527344-3.820313 8.53125-8.53125.019531-2.226563-.867187-4.367188-2.457031-5.925782-1.578125-1.667968-3.777344-2.613281-6.074219-2.609374h-17.664062c-4.714844 0-8.535157-3.820313-8.535157-8.53125 0-4.714844 3.820313-8.535157 8.535157-8.535157h17.578125c14.144531.023438 25.617187 11.457031 25.683594 25.601563-.015626 14.132812-11.464844 25.585937-25.597657 25.601562zm0 0"/><path d="m42.738281 230.367188c-4.511719.007812-8.246093-3.503907-8.507812-8.007813-.085938-1.507813-.097657-11.875-.097657-13.292969.003907-11.742187 1.402344-23.445312 4.164063-34.859375 1.109375-4.582031 5.722656-7.394531 10.304687-6.285156 4.578126 1.109375 7.394532 5.722656 6.285157 10.304687-2.445313 10.097657-3.683594 20.449219-3.6875 30.839844 0 1.308594-.007813 10.734375.070312 12.324219.230469 4.699219-3.371093 8.703125-8.070312 8.96875-.152344.007813-.308594.007813-.460938.007813zm0 0"/><path d="m332.726562 230.398438c-.171874 0-.332031-.007813-.5-.015626-4.703124-.269531-8.296874-4.296874-8.03125-9 .078126-1.597656.070313-11.015624.070313-12.316406-.003906-10.390625-1.242187-20.742187-3.6875-30.839844-.714844-2.964843.203125-6.085937 2.410156-8.191406 2.207031-2.101562 5.371094-2.867187 8.296875-2.007812 2.925782.859375 5.167969 3.21875 5.886719 6.179687 2.761719 11.414063 4.15625 23.117188 4.160156 34.859375 0 1.417969-.011719 11.785156-.09375 13.292969-.261719 4.507813-3.996093 8.035156-8.511719 8.039063zm0 0"/><path d="m64.425781 210.050781c-2.257812.007813-4.429687-.882812-6.03125-2.476562-1.597656-1.589844-2.5-3.757813-2.5-6.015625v-.085938c-.003906-1.15625.230469-2.296875.6875-3.359375 2.28125-5.332031 4.816407-10.550781 7.527344-15.507812 2.265625-4.136719 7.453125-5.652344 11.589844-3.386719 4.132812 2.265625 5.652343 7.453125 3.386719 11.585938-2.414063 4.402343-4.667969 9.035156-6.710938 13.785156-1.273438 3.28125-4.425781 5.449218-7.949219 5.460937zm0 0"/><path d="m87.039062 171.050781c-2.257812.007813-4.429687-.882812-6.027343-2.472656-1.601563-1.59375-2.503907-3.761719-2.503907-6.019531v-.085938c.023438-4.707031 3.851563-8.507812 8.558594-8.492187 4.707032.015625 8.515625 3.839843 8.507813 8.546875-.007813 4.707031-3.828125 8.519531-8.535157 8.519531zm0 0"/><path d="m311.039062 210.050781c-3.675781.007813-6.941406-2.339843-8.105468-5.824219-2-4.617187-4.199219-9.132812-6.550782-13.417968-2.265624-4.136719-.746093-9.324219 3.386719-11.585938 4.136719-2.265625 9.324219-.75 11.589844 3.386719 2.710937 4.957031 5.246094 10.175781 7.527344 15.507813 1.128906 2.640624.855469 5.671874-.71875 8.070312-1.578125 2.402344-4.253907 3.851562-7.125 3.863281zm0 0"/><path d="m288.425781 171.050781c-2.257812.007813-4.429687-.882812-6.03125-2.472656-1.597656-1.59375-2.5-3.761719-2.5-6.019531v-.085938c.023438-4.707031 3.851563-8.507812 8.558594-8.492187s8.515625 3.839843 8.507813 8.546875c-.007813 4.707031-3.828126 8.519531-8.535157 8.519531zm0 0"/><path d="m162.132812 412.414062c-4.710937 0-8.53125-3.820312-8.53125-8.53125v-56.320312c0-4.710938 3.820313-8.53125 8.53125-8.53125 4.714844 0 8.535157 3.820312 8.535157 8.53125v56.320312c0 4.710938-3.820313 8.53125-8.535157 8.53125zm0 0"/><path d="m213.332031 412.414062c-4.710937 0-8.53125-3.820312-8.53125-8.53125v-56.320312c0-4.710938 3.820313-8.53125 8.53125-8.53125 4.714844 0 8.535157 3.820312 8.535157 8.53125v56.320312c0 4.710938-3.820313 8.53125-8.535157 8.53125zm0 0"/><path d="m162.132812 401.066406h-7.933593c-4.714844 0-8.535157-3.820312-8.535157-8.53125 0-4.714844 3.820313-8.535156 8.535157-8.535156h7.933593c4.714844 0 8.535157 3.820312 8.535157 8.535156 0 4.710938-3.820313 8.53125-8.535157 8.53125zm0 0"/><path d="m221.269531 401.066406h-7.9375c-4.710937 0-8.53125-3.820312-8.53125-8.53125 0-4.714844 3.820313-8.535156 8.53125-8.535156h7.9375c4.710938 0 8.53125 3.820312 8.53125 8.535156 0 4.710938-3.820312 8.53125-8.53125 8.53125zm0 0"/><path d="m341.332031 512h-307.199219c-14.132812-.015625-25.582031-11.46875-25.597656-25.601562v-8.53125c0-50.984376 35.410156-86.46875 92.480469-92.726563 1.378906-.316406 2.789063-.46875 4.199219-.457031 4.714844 0 8.535156 3.820312 8.535156 8.53125 0 4.714844-3.820312 8.535156-8.535156 8.535156-.570313.148438-1.15625.25-1.75.292969-48.757813 5.140625-77.863282 33.480469-77.863282 75.824219v8.53125c.003907 4.710937 3.820313 8.53125 8.53125 8.535156h307.199219c4.710938-.003906 8.53125-3.824219 8.535157-8.535156v-8.53125c.03125-4.453126-.304688-8.902344-.996094-13.300782-.546875-3.03125.585937-6.125 2.960937-8.085937 2.375-1.964844 5.625-2.496094 8.5-1.390625 2.875 1.109375 4.933594 3.679687 5.378907 6.726562.84375 5.308594 1.253906 10.675782 1.222656 16.050782v8.53125c-.015625 14.132812-11.46875 25.585937-25.601563 25.601562zm0 0"/><path d="m345.609375 440.746094c-2.859375.007812-5.53125-1.421875-7.113281-3.808594-12.851563-19.316406-36.46875-31.707031-66.5-34.902344-.535156-.050781-1.058594-.15625-1.570313-.316406-4.726562.011719-8.574219-3.789062-8.621093-8.515625-.019532-2.253906.863281-4.421875 2.449218-6.023437 1.585938-1.601563 3.746094-2.5 6-2.5 1.417969-.011719 2.828125.140624 4.207032.457031 34.863281 3.859375 62.636718 18.875 78.246093 42.351562 1.742188 2.617188 1.902344 5.980469.417969 8.753907-1.484375 2.769531-4.371094 4.503906-7.515625 4.503906zm0 0"/><path d="m42.667969 179.199219c-4.714844 0-8.535157-3.820313-8.535157-8.53125v-51.203125c0-3.914063 2.664063-7.324219 6.460938-8.277344.335938-.082031 32.839844-8.191406 73.511719-16.414062 6.515625-9.832032 27.707031-35.03125 73.628906-35.039063 45.917969.007813 67.109375 25.207031 73.628906 35.039063 40.667969 8.226562 73.175781 16.335937 73.507813 16.417968 3.796875.949219 6.460937 4.363282 6.460937 8.273438v51.203125c.003907 2.585937-1.171875 5.035156-3.191406 6.65625-2.019531 1.621093-4.664063 2.238281-7.191406 1.675781-47.117188-10.023438-95.058594-15.667969-143.214844-16.867188-48.15625 1.195313-96.101563 6.839844-143.21875 16.867188-.605469.132812-1.226563.199219-1.847656.199219zm145.066406-34.132813c45.871094.925782 91.566406 5.984375 136.53125 15.117188v-34.015625c-11.847656-2.851563-38.722656-9.160157-69.941406-15.402344-2.582031-.515625-4.78125-2.195313-5.957031-4.546875-.597657-1.152344-15.753907-29.410156-60.632813-29.417969-44.878906.007813-60.039063 28.265625-60.664063 29.464844-1.199218 2.316406-3.375 3.96875-5.929687 4.5-31.230469 6.25-58.09375 12.550781-69.941406 15.402344v34.015625c44.964843-9.132813 90.660156-14.191406 136.535156-15.117188zm0 0"/><path d="m187.734375 204.800781c-133.648437 0-153.601563-21.382812-153.601563-34.132812-.003906-4.3125 3.207032-7.949219 7.484376-8.476563 4.277343-.53125 8.277343 2.210938 9.328124 6.390625 1.921876 2.21875 20.496094 19.152344 136.789063 19.152344 115.589844 0 136.53125-16.898437 136.53125-17.066406 0-4.714844 3.820313-8.535157 8.535156-8.535157 4.710938 0 8.53125 3.820313 8.53125 8.535157 0 12.75-19.953125 34.132812-153.597656 34.132812zm0 0"/><path d="m42.667969 162.132812c-14.757813 0-42.667969-10.699218-42.667969-51.199218 0-44.59375 49.996094-110.933594 187.734375-110.933594 4.710937 0 8.53125 3.820312 8.53125 8.535156 0 4.710938-3.820313 8.53125-8.53125 8.53125-124.332031 0-170.667969 57.574219-170.667969 93.867188 0 33.742187 24.554688 34.132812 25.601563 34.132812 4.710937 0 8.53125 3.820313 8.53125 8.535156 0 4.710938-3.820313 8.53125-8.53125 8.53125zm0 0"/><path d="m332.800781 162.132812c-4.714843.019532-8.550781-3.785156-8.566406-8.5-.019531-4.710937 3.785156-8.546874 8.5-8.566406 2.675781-.050781 25.664063-1.449218 25.664063-34.132812 0-36.292969-46.335938-93.867188-170.664063-93.867188-4.714844 0-8.535156-3.820312-8.535156-8.53125 0-4.714844 3.820312-8.535156 8.535156-8.535156 137.738281 0 187.730469 66.339844 187.730469 110.933594 0 40.5-27.902344 51.199218-42.664063 51.199218zm0 0"/><path d="m187.734375 136.535156c-4.714844 0-8.535156-3.824218-8.535156-8.535156v-25.601562c0-4.710938 3.820312-8.53125 8.535156-8.53125 4.710937 0 8.53125 3.820312 8.53125 8.53125v25.601562c0 4.710938-3.820313 8.535156-8.53125 8.535156zm0 0"/><path d="m213.332031 110.933594h-51.199219c-4.710937 0-8.53125-3.820313-8.53125-8.535156 0-4.710938 3.820313-8.53125 8.53125-8.53125h51.199219c4.714844 0 8.535157 3.820312 8.535157 8.53125 0 4.714843-3.820313 8.535156-8.535157 8.535156zm0 0"/><path d="m156.703125 486.398438c-.207031 0-.417969-.007813-.632813-.023438-2.746093-.203125-5.226562-1.71875-6.65625-4.074219l-54.304687-89.234375c-1.3125-2.164062-1.597656-4.796875-.78125-7.191406.820313-2.394531 2.65625-4.300781 5.019531-5.207031l32.941406-12.628907c7.046876-2.757812 15.066407-.332031 19.398438 5.875l43.050781 61.898438c2.195313 3.15625 2.007813 7.390625-.453125 10.339844l-31.03125 37.183594c-1.621094 1.941406-4.019531 3.066406-6.550781 3.0625zm-41.78125-93.609376 42.871094 70.449219 19.21875-23.023437-39.335938-56.566406zm0 0"/><path d="m218.761719 486.398438c-2.53125 0-4.929688-1.121094-6.546875-3.066407l-31.03125-37.183593c-2.464844-2.949219-2.648438-7.183594-.453125-10.339844l43.054687-61.910156c4.332032-6.199219 12.351563-8.625 19.398438-5.863282l32.9375 12.628906c2.363281.90625 4.203125 2.8125 5.019531 5.207032.820313 2.394531.53125 5.027344-.78125 7.191406l-54.304687 89.242188c-1.429688 2.355468-3.910157 3.871093-6.65625 4.074218-.214844.011719-.429688.019532-.636719.019532zm-20.332031-46.214844 19.246093 23.058594 42.78125-70.308594-23.386719-8.96875zm0 0"/><path d="m119.453125 512c-4.207031-.007812-7.78125-3.078125-8.421875-7.234375l-17.066406-110.933594c-.671875-4.636719 2.515625-8.949219 7.144531-9.664062 4.632813-.710938 8.972656 2.441406 9.722656 7.066406l17.066407 110.933594c.347656 2.234375-.210938 4.519531-1.550782 6.34375s-3.347656 3.042969-5.585937 3.386719c-.433594.066406-.871094.101562-1.308594.101562zm0 0"/><path d="m256.011719 512c-.4375 0-.875-.035156-1.308594-.101562-2.238281-.34375-4.246094-1.5625-5.585937-3.386719-1.335938-1.824219-1.894532-4.109375-1.550782-6.34375l17.066406-110.933594c.753907-4.625 5.09375-7.777344 9.722657-7.066406 4.632812.714843 7.820312 5.027343 7.144531 9.664062l-17.066406 110.933594c-.640625 4.15625-4.214844 7.226563-8.421875 7.234375zm0 0"/><path d="m334.390625 475.425781c-3.164063-.035156-6.191406-1.308593-8.429687-3.550781l-18.113282-18.117188c-2.863281-2.863281-4.097656-6.972656-3.296875-10.941406.808594-4.078125 3.605469-7.480468 7.449219-9.066406 16.492188-5.140625 41.503906-12.933594 48.082031-15.105469l95.414063-95.402343c6.496094-6.511719 14.421875-11.421876 23.144531-14.335938 5.699219-1.996094 11.867187-2.230469 17.699219-.667969 5.019531 1.511719 20.71875 8.402344 14.003906 34.390625-2.101562 8.601563-6.449219 16.488282-12.605469 22.855469l-25.410156 25.398437c-3.34375 3.246094-8.675781 3.207032-11.972656-.089843s-3.339844-8.628907-.09375-11.976563l25.40625-25.402344c3.984375-4.222656 6.792969-9.410156 8.148437-15.054687 3.132813-12.117187-.984375-13.359375-2.335937-13.761719-2.53125-.542968-5.167969-.355468-7.597657.542969-6.144531 2.097656-11.730468 5.574219-16.324218 10.167969l-96.777344 96.78125c-1.734375 1.75-1.828125 1.851562-45.1875 15.277344l10.605469 10.605468 53.628906-8.722656 35.5-35.5c2.132813-2.257812 5.324219-3.175781 8.332031-2.402344 3.007813.777344 5.355469 3.125 6.132813 6.132813.777343 3.007812-.144531 6.199219-2.402344 8.332031l-36.5625 36.566406c-1.875 1.894532-4.320313 3.125-6.960937 3.5l-57.378907 9.34375c-.691406.132813-1.394531.203125-2.097656.203125zm-.574219-17.058593c-.125.015624-.257812.035156-.378906.058593zm54.945313-8.050782-.019531.015625zm2.488281-1.300781-.101562.019531zm0 0"/><path d="m451.992188 478.566406c-.996094 0-1.988282-.121094-2.953126-.359375-4.308593-1.015625-7.765624-4.214843-9.105468-8.433593l-22.953125-64.949219c-1.53125-4.433594.800781-9.269531 5.222656-10.832031 4.421875-1.558594 9.273437.738281 10.867187 5.148437l20.699219 58.578125 10.570313-10.570312-9.917969-82.007813c-.40625-3.046875.855469-6.074219 3.308594-7.929687 2.449219-1.855469 5.707031-2.25 8.527343-1.03125 2.824219 1.21875 4.773438 3.859374 5.105469 6.914062l10.195313 84.308594c.460937 3.738281-.824219 7.480468-3.484375 10.148437l-17.433594 17.425781c-2.289063 2.304688-5.402344 3.59375-8.648437 3.589844zm4.046874-14.433594.0625.171876zm0 0"/><path d="m395.691406 403.648438c-1.257812.003906-2.5-.277344-3.632812-.816407l-24.785156-11.683593c-4.6875-2.183594-8.046876-6.484376-9.035157-11.566407-.746093-3.800781.429688-7.730469 3.144531-10.496093l18.71875-18.714844c3.15625-3.054688 7.734376-4.136719 11.921876-2.816406l35.328124 10.023437c2.976563.796875 5.292969 3.132813 6.0625 6.117187.769532 2.980469-.128906 6.148438-2.347656 8.28125-2.222656 2.136719-5.421875 2.90625-8.371094 2.019532l-32.785156-9.300782-12.414062 12.40625 21.832031 10.300782c3.609375 1.703125 5.558594 5.6875 4.683594 9.582031-.875 3.898437-4.332031 6.667969-8.328125 6.667969zm0 0"/></svg>