<svg height="512pt" viewBox="0 0 512 512.01829" width="512pt" xmlns="http://www.w3.org/2000/svg"><path d="m341.34375 136.535156v93.863282c.007812 27.160156-10.78125 53.210937-29.984375 72.417968-19.207031 19.203125-45.257813 29.992188-72.417969 29.984375h-119.464844c-27.160156.007813-53.210937-10.78125-72.417968-29.984375-19.203125-19.207031-29.992188-45.257812-29.984375-72.417968v-93.863282zm0 0" fill="#f57c00"/><path d="m317.707031 136.535156v93.863282c-.015625 56.550781-45.855469 102.386718-102.402343 102.402343h-95.828126c-27.160156.007813-53.210937-10.78125-72.417968-29.984375-19.203125-19.207031-29.992188-45.257812-29.984375-72.417968v-93.863282zm0 0" fill="#ff9801"/><path d="m306.613281 162.132812h17.664063c9.394531.070313 16.996094 7.667969 17.066406 17.066407-.027344 9.414062-7.652344 17.039062-17.066406 17.066406h-290.136719c-9.414063-.027344-17.039063-7.652344-17.066406-17.066406.070312-9.398438 7.671875-16.996094 17.066406-17.066407zm0 0" fill="#dfc49c"/><path d="m381.109375 388.265625-31.234375 86.015625v12.117188c-.027344 9.414062-7.652344 17.039062-17.066406 17.066406h-307.199219c-9.414063-.027344-17.039063-7.652344-17.066406-17.066406v-51.199219c-.007813-27.160157 10.777343-53.210938 29.984375-72.414063 19.203125-19.207031 45.253906-29.992187 72.414062-29.984375h136.535156c27.984376-.039062 54.757813 11.40625 74.070313 31.65625 2.238281 2.300781 4.347656 4.71875 6.3125 7.253907zm0 0" fill="#ffeb3a"/><path d="m110.941406 332.800781v25.597657c0 23.566406 19.105469 42.667968 42.667969 42.667968h51.199219c23.566406 0 42.667968-19.101562 42.667968-42.667968v-25.597657zm0 0" fill="#ffe0b2"/><path d="m153.609375 287.828125h51.199219v70.570313h-51.199219zm0 0" fill="#ffe0b2"/><path d="m341.34375 136.535156h-324.269531l17.066406-42.667968h290.136719zm0 0" fill="#fdd834"/><path d="m317.707031 136.535156h-300.632812l17.066406-42.667968h266.496094zm0 0" fill="#ffeb3a"/><path d="m324.277344 93.867188h-290.136719c.019531-47.121094 38.214844-85.316407 85.335937-85.332032h119.464844c47.121094.015625 85.316406 38.210938 85.335938 85.332032zm0 0" fill="#fdd834"/><path d="m300.636719 93.867188h-266.496094c.019531-47.121094 38.214844-85.316407 85.335937-85.332032h95.828126c47.121093.015625 85.316406 38.210938 85.332031 85.332032zm0 0" fill="#ffeb3a"/><path d="m330.753906 374.003906 18.808594 6.335938 22.988281-23.488282-9.179687-20.789062c-9.074219-20.550781-34.75-27.484375-48.757813-13.171875-14.984375 15.308594-6.035156 43.648437 16.140625 51.113281zm0 0" fill="#f5f5f5"/><path d="m483.933594 495.871094c-4.808594 4.949218-11.445313 7.695312-18.347656 7.59375-13.378907-.371094-25.300782-8.554688-30.460938-20.90625-.429688-1.023438-.855469-2.046875-1.195312-3.15625l-6.230469-19.199219 23.039062-23.46875 19.542969 9.046875.769531.339844c20.136719 9.21875 26.878907 35.5 12.882813 49.75zm0 0" fill="#cfd8dc"/><path d="m465.585938 477.523438c-4.808594 4.949218-11.445313 7.695312-18.34375 7.597656-4.171876-.011719-8.296876-.882813-12.117188-2.5625-.429688-1.023438-.855469-2.046875-1.195312-3.15625l-6.230469-19.199219 23.039062-23.46875 19.542969 9.046875c5.023438 10.554688 3.167969 23.097656-4.695312 31.742188zm0 0" fill="#f5f5f5"/><path d="m307.210938 173.140625c-.015626 4.050781-.242188 8.09375-.683594 12.117187-6.65625 58.964844-61.097656 104.875-127.316406 104.875-3.925782 0-7.851563-.171874-11.777344-.511718-60.757813-5.035156-109.3125-48.894532-115.542969-104.363282-.441406-4.023437-.667969-8.066406-.679687-12.117187.015624-6.785156.644531-13.550781 1.875-20.222656.257812-1.195313.511718-2.390625.855468-3.585938.523438-2.5625 1.175782-5.097656 1.960938-7.59375.683594-1.621093 1.449218-3.328125 2.304687-5.203125h242.003907c.855468 1.875 1.621093 3.582032 2.304687 5.203125.785156 2.496094 1.4375 5.03125 1.960937 7.59375.34375 1.195313.597657 2.390625.855469 3.585938 1.230469 6.671875 1.859375 13.4375 1.878907 20.222656zm0 0" fill="#dfc49c"/><path d="m283.570312 173.140625c-.011718 4.050781-.238281 8.09375-.679687 12.117187-6.230469 55.382813-54.699219 99.328126-115.457031 104.363282-60.757813-5.035156-109.3125-48.894532-115.542969-104.363282-.441406-4.023437-.667969-8.066406-.679687-12.117187.015624-6.785156.644531-13.550781 1.875-20.222656.257812-1.195313.511718-2.390625.855468-3.585938.523438-2.5625 1.175782-5.097656 1.960938-7.59375.683594-1.621093 1.449218-3.328125 2.304687-5.203125h218.367188c.855469 1.875 1.621093 3.582032 2.304687 5.203125.785156 2.496094 1.4375 5.03125 1.960938 7.59375.34375 1.195313.597656 2.390625.855468 3.585938 1.230469 6.671875 1.859376 13.4375 1.875 20.222656zm0 0" fill="#ffe0b2"/><path d="m460.722656 426.410156-44.800781 45.824219c-9.496094 9.777344-22.546875 15.296875-36.179687 15.296875-13.632813 0-26.683594-5.519531-36.179688-15.296875l-5.804688-5.886719c-20.132812-20.550781-20.132812-53.433594 0-73.984375l44.886719-45.824219c16.742188-17.226562 43.324219-20.226562 63.488281-7.167968 3.238282 2.015625 6.21875 4.425781 8.875 7.167968l5.714844 5.886719c20.054688 20.585938 20.054688 53.398438 0 73.984375zm0 0" fill="#fec108"/><path d="m439.902344 405.589844-44.800782 45.824218c-16.777343 17.210938-43.347656 20.242188-63.574218 7.253907-13.71875-20.832031-11.128906-48.394531 6.230468-66.304688l44.886719-45.824219c16.742188-17.226562 43.324219-20.226562 63.488281-7.167968 13.679688 20.808594 11.09375 48.324218-6.230468 66.21875zm0 0" fill="#ffdc00"/><path d="m347.171875 382.789062 78.15625 79.84375 26.042969-26.613281-78.148438-79.855469zm0 0" fill="#37474f"/><path d="m179.210938 298.667969c-70.183594 0-128.5625-48.359375-135.796876-112.476563-1.308593-11.589844-.875-23.304687 1.277344-34.765625.882813-4.359375 1.898438-8.417969 3.046875-12.175781.890625-2.914062 3.269531-5.136719 6.238281-5.824219 2.972657-.6875 6.082032.265625 8.164063 2.492188 2.078125 2.230469 2.8125 5.398437 1.921875 8.316406-1.027344 3.367187-1.898438 6.882813-2.605469 10.414063-1.835937 9.78125-2.199219 19.78125-1.082031 29.671874 6.253906 55.4375 57.347656 97.28125 118.835938 97.28125 61.484374 0 112.578124-41.84375 118.835937-97.328124 1.121094-9.925782.746094-19.964844-1.109375-29.78125-.683594-3.375-1.550781-6.890626-2.578125-10.257813-1.375-4.507813 1.164063-9.277344 5.671875-10.652344s9.277344 1.164063 10.652344 5.671875c1.148437 3.765625 2.167968 7.816406 3.015625 12.015625 1.339843 7.207031 2.023437 14.523438 2.042969 21.855469-.007813 4.351562-.253907 8.699219-.734376 13.027344-7.234374 64.15625-65.617187 112.515625-135.796874 112.515625zm0 0"/><path d="m51.890625 204.800781h-17.75c-14.128906-.015625-25.582031-11.46875-25.597656-25.601562.066406-14.109375 11.488281-25.535157 25.597656-25.597657h17.664063c4.714843 0 8.535156 3.820313 8.535156 8.53125 0 4.714844-3.820313 8.535157-8.535156 8.535157h-17.578126c-2.25-.039063-4.417968.847656-6.003906 2.449219-1.671875 1.582031-2.617187 3.78125-2.613281 6.082031.003906 4.710937 3.820313 8.53125 8.53125 8.535156h17.75c4.714844 0 8.535156 3.820313 8.535156 8.53125 0 4.714844-3.820312 8.535156-8.535156 8.535156zm0 0"/><path d="m324.277344 204.800781h-17.75c-4.714844 0-8.535156-3.820312-8.535156-8.535156 0-4.710937 3.820312-8.53125 8.535156-8.53125h17.75c4.710937-.003906 8.527344-3.824219 8.53125-8.535156.019531-2.226563-.867188-4.367188-2.457032-5.925781-1.578124-1.667969-3.777343-2.613282-6.074218-2.605469h-17.664063c-4.714843 0-8.535156-3.820313-8.535156-8.535157 0-4.710937 3.820313-8.53125 8.535156-8.53125h17.578125c14.140625.019532 25.613282 11.457032 25.683594 25.597657-.015625 14.132812-11.46875 25.585937-25.597656 25.601562zm0 0"/><path d="m55.902344 150.316406c-2.257813.011719-4.429688-.878906-6.03125-2.472656-1.601563-1.59375-2.5-3.761719-2.5-6.019531v-.085938c-.003906-1.136719.222656-2.257812.664062-3.308593.714844-1.691407 1.511719-3.472657 2.402344-5.425782 1.242188-2.800781 3.894531-4.71875 6.941406-5.027344 3.050782-.304687 6.03125 1.046876 7.808594 3.542969 1.777344 2.496094 2.078125 5.753907.789062 8.535157-.765624 1.707031-1.476562 3.269531-2.105468 4.75-1.257813 3.3125-4.429688 5.503906-7.96875 5.511718zm0 0"/><path d="m302.515625 150.316406c-3.691406.011719-6.972656-2.355468-8.121094-5.867187-.589843-1.375-1.246093-2.824219-1.953125-4.390625-1.289062-2.78125-.988281-6.039063.789063-8.535156 1.777343-2.5 4.757812-3.851563 7.808593-3.542969 3.050782.308593 5.699219 2.226562 6.941407 5.027343.890625 1.949219 1.691406 3.734376 2.402343 5.425782 1.105469 2.640625.824219 5.65625-.757812 8.042968-1.578125 2.386719-4.246094 3.828126-7.109375 3.839844zm0 0"/><path d="m153.609375 366.933594c-4.714844 0-8.535156-3.820313-8.535156-8.535156v-70.566407c0-4.710937 3.820312-8.53125 8.535156-8.53125 4.710937 0 8.53125 3.820313 8.53125 8.53125v70.566407c0 4.714843-3.820313 8.535156-8.53125 8.535156zm0 0"/><path d="m204.808594 366.933594c-4.710938 0-8.53125-3.820313-8.53125-8.535156v-70.566407c0-4.710937 3.820312-8.53125 8.53125-8.53125 4.714844 0 8.535156 3.820313 8.535156 8.53125v70.566407c0 4.714843-3.820312 8.535156-8.535156 8.535156zm0 0"/><path d="m332.808594 512h-307.199219c-14.132813-.015625-25.5859375-11.46875-25.6015625-25.601562v-51.199219c.0703125-61.238281 49.6953125-110.863281 110.9335935-110.933594h42.667969c4.710937 0 8.53125 3.820313 8.53125 8.535156 0 4.710938-3.820313 8.53125-8.53125 8.53125h-42.667969c-51.816406.058594-93.808594 42.050781-93.867187 93.867188v51.199219c.003906 4.710937 3.824219 8.53125 8.535156 8.535156h307.199219c4.710937-.003906 8.53125-3.824219 8.535156-8.535156v-4.4375c0-4.710938 3.820312-8.53125 8.53125-8.53125 4.714844 0 8.535156 3.820312 8.535156 8.53125v4.4375c-.015625 14.132812-11.46875 25.585937-25.601562 25.601562zm0 0"/><path d="m307.96875 361.128906c-1.816406.003906-3.582031-.574218-5.042969-1.648437-16.0625-11.835938-35.5-18.195313-55.449219-18.148438h-42.667968c-4.710938 0-8.53125-3.820312-8.53125-8.53125 0-4.714843 3.820312-8.535156 8.53125-8.535156h42.667968c23.582032-.054687 46.5625 7.464844 65.550782 21.453125 2.976562 2.179688 4.214844 6.03125 3.0625 9.542969-1.152344 3.507812-4.429688 5.878906-8.121094 5.871093zm0 0"/><path d="m341.34375 145.066406h-324.269531c-2.828125 0-5.476563-1.402344-7.066407-3.746094-1.585937-2.34375-1.90625-5.324218-.855468-7.953124l17.066406-42.667969c1.296875-3.238281 4.433594-5.363281 7.921875-5.367188h290.136719c3.488281.003907 6.625 2.128907 7.921875 5.367188l17.066406 42.667969c1.050781 2.628906.730469 5.609374-.855469 7.953124-1.589844 2.34375-4.238281 3.746094-7.066406 3.746094zm-311.664062-17.066406h299.058593l-10.242187-25.601562h-278.574219zm0 0"/><path d="m324.277344 102.398438h-290.136719c-4.710937 0-8.53125-3.820313-8.53125-8.53125.058594-51.816407 42.050781-93.8085942 93.867187-93.867188h119.464844c51.816406.0585938 93.808594 42.050781 93.867188 93.867188 0 4.710937-3.820313 8.53125-8.53125 8.53125zm-281.128906-17.066407h272.125c-4.390626-38.847656-37.234376-68.21875-76.332032-68.265625h-119.464844c-39.097656.046875-71.9375 29.417969-76.328124 68.265625zm0 0"/><path d="m238.941406 341.332031c-4.710937 0-8.53125-3.820312-8.53125-8.53125 0-4.714843 3.820313-8.535156 8.53125-8.535156 51.816406-.058594 93.808594-42.050781 93.867188-93.867187v-85.332032h-307.199219v85.332032c.058594 51.816406 42.050781 93.808593 93.867187 93.867187 4.710938 0 8.53125 3.820313 8.53125 8.535156 0 4.710938-3.820312 8.53125-8.53125 8.53125-61.238281-.066406-110.863281-49.695312-110.933593-110.933593v-93.863282c0-4.714844 3.820312-8.535156 8.53125-8.535156h324.269531c4.710938 0 8.53125 3.820312 8.53125 8.535156v93.863282c-.066406 61.238281-49.695312 110.867187-110.933594 110.933593zm0 0"/><path d="m204.808594 409.601562h-51.199219c-28.265625-.03125-51.167969-22.9375-51.199219-51.203124v-25.597657c0-4.714843 3.820313-8.535156 8.53125-8.535156 4.714844 0 8.535156 3.820313 8.535156 8.535156v25.597657c.019532 18.84375 15.289063 34.113281 34.132813 34.136718h51.199219c18.84375-.023437 34.113281-15.292968 34.132812-34.136718v-25.597657c0-4.714843 3.820313-8.535156 8.535156-8.535156 4.710938 0 8.53125 3.820313 8.53125 8.535156v25.597657c-.03125 28.265624-22.933593 51.171874-51.199218 51.203124zm0 0"/><path d="m68.277344 512c-4.714844 0-8.535156-3.820312-8.535156-8.535156v-59.730469c0-4.714844 3.820312-8.535156 8.535156-8.535156 4.710937 0 8.53125 3.820312 8.53125 8.535156v59.730469c0 4.714844-3.820313 8.535156-8.53125 8.535156zm0 0"/><path d="m290.140625 512c-4.710937 0-8.53125-3.820312-8.53125-8.535156v-59.730469c0-4.714844 3.820313-8.535156 8.53125-8.535156 4.714844 0 8.535156 3.820312 8.535156 8.535156v59.730469c0 4.714844-3.820312 8.535156-8.535156 8.535156zm0 0"/><path d="m213.34375 51.199219h-68.269531c-4.710938 0-8.53125-3.820313-8.53125-8.53125 0-4.714844 3.820312-8.535157 8.53125-8.535157h68.269531c4.710938 0 8.53125 3.820313 8.53125 8.535157 0 4.710937-3.820312 8.53125-8.53125 8.53125zm0 0"/><path d="m379.734375 496.074219h-.003906c-15.941407.019531-31.207031-6.433594-42.296875-17.882813h-.003906l-5.742188-5.867187c-23.183594-23.945313-23.183594-61.96875 0-85.917969l44.816406-45.796875c11.089844-11.449219 26.355469-17.902344 42.292969-17.882813h.007813c15.945312-.023437 31.214843 6.433594 42.308593 17.882813l5.742188 5.875c23.183593 23.945313 23.183593 61.96875 0 85.914063l-44.816407 45.792968c-11.09375 11.449219-26.363281 17.902344-42.304687 17.882813zm-30.105469-29.8125c7.890625 8.15625 18.757813 12.757812 30.105469 12.75 11.347656.007812 22.214844-4.59375 30.109375-12.75l44.816406-45.792969c16.742188-17.292969 16.742188-44.753906 0-62.046875l-5.742187-5.875c-7.894531-8.152344-18.757813-12.753906-30.105469-12.753906s-22.207031 4.601562-30.101562 12.753906l-44.824219 45.796875c-16.746094 17.296875-16.746094 44.757812 0 62.050781zm0 0"/><path d="m451.375 444.550781c-2.296875 0-4.496094-.925781-6.097656-2.566406l-78.15625-79.851563c-2.132813-2.179687-2.9375-5.332031-2.117188-8.265624.824219-2.9375 3.148438-5.210938 6.101563-5.96875 2.953125-.753907 6.085937.121093 8.21875 2.300781l78.15625 79.851562c2.398437 2.453125 3.09375 6.109375 1.761719 9.273438-1.332032 3.167969-4.429688 5.226562-7.863282 5.226562zm0 0"/><path d="m425.324219 471.167969c-2.292969 0-4.496094-.925781-6.097657-2.566407l-78.15625-79.851562c-2.128906-2.179688-2.9375-5.332031-2.113281-8.265625.820313-2.9375 3.144531-5.210937 6.101563-5.96875 2.953125-.753906 6.085937.121094 8.214844 2.300781l78.15625 79.851563c2.398437 2.453125 3.097656 6.109375 1.765624 9.273437-1.332031 3.164063-4.433593 5.222656-7.867187 5.226563zm0 0"/><path d="m451.375 351.390625c-3.429688 0-6.527344-2.054687-7.863281-5.21875-1.332031-3.160156-.640625-6.816406 1.753906-9.273437.351563-.363282 15.792969-16.683594 11.019531-31.324219-.945312-2.898438-.269531-6.082031 1.769532-8.347657 2.039062-2.269531 5.132812-3.277343 8.117187-2.644531 2.984375.632813 5.402344 2.808594 6.347656 5.710938 8.015625 24.597656-14.101562 47.566406-15.042969 48.53125-1.605468 1.644531-3.804687 2.570312-6.101562 2.566406zm0 0"/><path d="m464.410156 364.683594c-3.433594.003906-6.53125-2.050782-7.867187-5.210938-1.332031-3.164062-.640625-6.816406 1.757812-9.273437.957031-.972657 23.617188-23.699219 47.925781-15.417969 4.34375 1.605469 6.613282 6.378906 5.121094 10.757812-1.492187 4.382813-6.203125 6.773438-10.621094 5.394532-13.910156-4.707032-30.085937 11.066406-30.242187 11.21875-1.605469 1.621094-3.792969 2.535156-6.074219 2.53125zm0 0"/><path d="m349.5625 388.875c-.925781.003906-1.847656-.148438-2.722656-.449219l-18.808594-6.332031c-14.078125-4.847656-24.714844-16.539062-28.21875-31.011719-3.199219-12.125.09375-25.042969 8.707031-34.15625 8.160157-8.222656 19.90625-11.792969 31.261719-9.5 14 2.660157 25.765625 12.09375 31.402344 25.183594l9.183594 20.789063c1.40625 3.195312.730468 6.921874-1.707032 9.417968l-22.988281 23.492188c-1.605469 1.640625-3.808594 2.566406-6.109375 2.566406zm-16.617188-65c-4.589843-.09375-9.015624 1.707031-12.230468 4.984375-4.527344 4.90625-6.160156 11.820313-4.304688 18.230469 2.101563 8.78125 8.539063 15.882812 17.070313 18.835937l13.730469 4.617188 15.199218-15.53125-6.847656-15.5c-3.398438-7.871094-10.429688-13.582031-18.832031-15.292969-1.25-.226562-2.515625-.34375-3.785157-.34375zm0 0"/><path d="m465.71875 512.015625c-3.007812-.007813-6-.363281-8.925781-1.058594-14.664063-3.589843-26.40625-14.550781-31-28.933593l-6.199219-19.214844c-.96875-3.015625-.1875-6.320313 2.023438-8.582032l22.984374-23.492187c2.527344-2.574219 6.398438-3.285156 9.675782-1.785156l20.347656 9.386719c12.824219 5.898437 21.988281 17.65625 24.578125 31.535156 2.398437 11.523437-1.027344 23.488281-9.160156 32-6.382813 6.558594-15.171875 10.222656-24.324219 10.144531zm-28.300781-49.539063 4.625 14.316407c2.742187 8.695312 9.808593 15.34375 18.65625 17.558593 6.09375 1.6875 12.625.003907 17.144531-4.417968 4.21875-4.566406 5.921875-10.910156 4.566406-16.976563-1.628906-8.394531-7.175781-15.503906-14.925781-19.125l-14.890625-6.867187zm0 0"/></svg>