<svg height="512pt" viewBox="0 0 512.00004 512" width="512pt" xmlns="http://www.w3.org/2000/svg"><path d="m317.441406 377.515625h-276.480468c-25.429688-20.824219-30.550782-59.992187-15.359376-91.90625 17.066407-35.925781 8.53125-80.808594 8.53125-80.808594h290.132813s-8.53125 44.882813 8.535156 80.808594c15.1875 31.914063 10.070313 71.082031-15.359375 91.90625zm0 0" fill="#783e22"/><path d="m293.800781 377.515625h-252.839843c-25.429688-20.824219-30.550782-59.992187-15.359376-91.90625 17.066407-35.925781 8.53125-80.808594 8.53125-80.808594h266.496094s-8.53125 44.882813 8.535156 80.808594c15.1875 31.914063 10.066407 71.082031-15.363281 91.90625zm0 0" fill="#a0522d"/><path d="m273.066406 353.109375c-8.359375-2.167969-16.964844-3.257813-25.601562-3.242187h-136.53125c-8.636719-.015626-17.242188 1.074218-25.601563 3.242187-45.21875 11.667969-76.8125 52.457031-76.796875 99.15625v34.132813c.027344 9.414062 7.652344 17.039062 17.066406 17.066406h247.464844l65.125-98.136719c-7.703125-21.328125-31.246094-43.515625-65.125-52.21875zm0 0" fill="#ecf0f1"/><path d="m85.332031 353.109375v150.355469h-59.730469c-9.414062-.027344-17.039062-7.652344-17.066406-17.066406v-34.132813c-.015625-46.699219 31.578125-87.488281 76.796875-99.15625zm0 0" fill="#f44335"/><path d="m338.191406 405.328125-65.125 98.136719v-150.355469c33.878906 8.703125 57.421875 30.890625 65.125 52.21875zm0 0" fill="#f44335"/><path d="m273.066406 353.109375v150.355469h-187.734375v-150.355469c8.359375-2.167969 16.964844-3.257813 25.601563-3.242187h136.53125c8.636718-.015626 17.242187 1.074218 25.601562 3.242187zm0 0" fill="#f5f5f5"/><path d="m110.933594 349.867188h8.53125v68.265624c.03125 9.414063 7.65625 17.039063 17.070312 17.066407h85.332032c9.414062-.027344 17.039062-7.652344 17.066406-17.066407v-68.265624zm0 0" fill="#ffe0b2"/><path d="m153.601562 304.894531h51.199219v70.570313h-51.199219zm0 0" fill="#ffe0b2"/><path d="m346.113281 151.464844c-7.433593-8.367188-16.378906-15.257813-26.371093-20.308594v-.085938c-8.65625-31.820312-28.191407-59.597656-55.207032-78.503906v-9.898437c.015625-7.957031-5.480468-14.867188-13.234375-16.640625-7.757812-1.773438-15.707031 2.0625-19.148437 9.238281l-.046875-.023437c-11.53125-4.378907-23.574219-7.273438-35.839844-8.617188v-1.023438c0-9.425781-7.640625-17.066406-17.066406-17.066406s-17.066407 7.640625-17.066407 17.066406v1.023438c-12.261718 1.34375-24.304687 4.238281-35.839843 8.617188l-.042969.023437c-3.441406-7.175781-11.390625-11.011719-19.148438-9.238281-7.757812 1.773437-13.253906 8.683594-13.234374 16.640625v9.898437c-27.019532 18.90625-46.554688 46.683594-55.210938 78.503906v.085938c-9.992188 5.050781-18.9375 11.941406-26.367188 20.308594-5.753906 7.238281-4.652343 17.75 2.472657 23.640625 5.519531 4.53125 13.265625 5.175781 19.457031 1.621093-.089844.820313-.089844 1.652344 0 2.472657h-.085938c-9.398437.070312-17 7.671875-17.066406 17.066406.027344 9.414063 7.652344 17.039063 17.066406 17.066406h19.578126c11.757812 53.574219 63.453124 93.867188 125.488281 93.867188 62.125 0 113.835937-40.363281 125.527343-93.953125l1.789063.085937h17.75c9.414063-.027343 17.039063-7.652343 17.066406-17.066406-.066406-9.394531-7.667969-16.996094-17.066406-17.066406h-.085937c.046874-.765625.046874-1.535157 0-2.304688 2.621093 1.515625 5.59375 2.308594 8.621093 2.304688 3.882813.019531 7.652344-1.308594 10.664063-3.753907 7.34375-5.894531 8.527344-16.625 2.648437-23.980468zm0 0" fill="#f29c1f"/><path d="m59.734375 201.984375 8.53125 11.347656h-34.132813c-9.414062-.027343-17.039062-7.652343-17.066406-17.066406.066406-9.394531 7.667969-16.996094 17.066406-17.066406h17.664063l7.9375 8.023437zm0 0" fill="#ffe0b2"/><path d="m341.332031 196.265625c-.027343 9.414063-7.652343 17.039063-17.066406 17.066406h-17.75l-1.789063-.085937c.765626-3.582032 1.363282-7.25 1.789063-10.921875.445313-4.023438.671875-8.066407.683594-12.117188 0-2.132812-.085938-4.179687-.253907-6.226562.253907-2.988281-8.277343-4.78125-8.277343-4.78125h25.597656c9.398437.070312 17 7.671875 17.066406 17.066406zm0 0" fill="#dfc49c"/><path d="m307.199219 190.207031c-.011719 4.050781-.238281 8.09375-.683594 12.117188-.425781 3.671875-1.023437 7.339843-1.789063 10.921875-11.691406 53.589844-63.402343 93.953125-125.527343 93.953125-3.925781 0-7.765625-.167969-11.605469-.511719-60.839844-4.949219-109.480469-48.894531-115.710938-104.363281-.441406-4.023438-.671874-8.066407-.683593-12.117188 0-2.132812.085937-4.179687.257812-6.226562-.003906-1.230469.082031-2.457031.253907-3.671875 0-.425782.085937-.765625.085937-1.109375.257813-3.070313.769531-6.144531 1.28125-9.214844.597656-2.988281 1.277344-5.886719 2.132813-8.789063 17.917968-9.984374 52.394531-22.957031 111.785156-24.492187h.769531c3.667969-.085937 7.507813-.167969 11.433594-.167969 66.902343 0 104.875 13.992188 123.988281 24.574219.769531 2.902344 1.539062 5.886719 2.136719 8.875.511719 3.070313 1.023437 6.144531 1.277343 9.214844 0 .34375.085938.683593.085938 1.109375.171875 1.214844.257812 2.441406.257812 3.671875.167969 2.046875.253907 4.09375.253907 6.226562zm0 0" fill="#dfc49c"/><path d="m283.5625 190.207031c-.011719 4.050781-.238281 8.09375-.683594 12.117188-.425781 3.671875-1.023437 7.339843-1.789062 10.921875-10.925782 50.09375-56.832032 88.664062-113.496094 93.441406-60.839844-4.949219-109.480469-48.894531-115.710938-104.363281-.441406-4.023438-.671874-8.066407-.683593-12.117188 0-2.132812.085937-4.179687.257812-6.226562-.003906-1.230469.082031-2.457031.253907-3.671875 0-.425782.085937-.765625.085937-1.109375.257813-3.070313.769531-6.144531 1.28125-9.214844.597656-2.988281 1.277344-5.886719 2.132813-8.789063 17.917968-9.984374 52.394531-22.957031 111.785156-24.492187h.769531c59.390625 1.535156 93.867187 14.507813 111.785156 24.40625.769531 2.902344 1.539063 5.886719 2.132813 8.875.515625 3.070313 1.027344 6.144531 1.28125 9.214844 0 .34375.085937.683593.085937 1.109375.171875 1.214844.257813 2.441406.257813 3.671875.167968 2.046875.253906 4.09375.253906 6.226562zm0 0" fill="#ffe0b2"/><path d="m319.742188 131.070312h-281.085938c8.65625-31.820312 28.191406-59.597656 55.210938-78.503906l32.425781-17.324218c11.535156-4.378907 23.578125-7.273438 35.839843-8.617188h34.132813c12.265625 1.34375 24.308594 4.238281 35.839844 8.617188l32.429687 17.324218c27.015625 18.90625 46.550782 46.683594 55.207032 78.503906zm0 0" fill="#f57c00"/><path d="m296.105469 131.070312h-257.449219c8.65625-31.820312 28.191406-59.597656 55.210938-78.503906l32.425781-17.324218c11.535156-4.378907 23.578125-7.273438 35.839843-8.617188h10.496094c12.265625 1.34375 24.308594 4.238281 35.839844 8.617188l32.425781 17.324218c27.019531 18.90625 46.554688 46.683594 55.210938 78.503906zm0 0" fill="#ff9801"/><path d="m324.179688 179.199219h-17.578126c-.253906-3.070313-.765624-6.144531-1.277343-9.214844-.597657-2.988281-1.367188-5.972656-2.136719-8.875 5.980469 3.074219 11.472656 7.011719 16.300781 11.691406 1.289063 1.652344 2.882813 3.042969 4.691407 4.09375.046874.769531.046874 1.539063 0 2.304688zm0 0" fill="#59474e"/><path d="m55.210938 161.195312c-.855469 2.902344-1.535157 5.800782-2.132813 8.789063-.511719 3.070313-1.023437 6.144531-1.28125 9.214844h-17.578125c-.089844-.820313-.089844-1.652344 0-2.472657 1.695312-.972656 3.222656-2.210937 4.523438-3.671874 4.820312-4.804688 10.382812-8.808594 16.46875-11.859376zm0 0" fill="#59474e"/><g fill="#ffdc00"><path d="m343.464844 175.445312c-3.011719 2.445313-6.78125 3.773438-10.664063 3.753907-3.027343.003906-6-.789063-8.621093-2.304688-1.808594-1.050781-3.402344-2.441406-4.691407-4.09375-4.828125-4.679687-10.320312-8.617187-16.300781-11.691406-19.113281-10.582031-57.085938-24.574219-123.988281-24.574219-66.902344 0-104.875 13.992188-123.988281 24.660156-6.085938 3.050782-11.648438 7.054688-16.46875 11.859376-1.300782 1.460937-2.828126 2.699218-4.523438 3.671874-6.191406 3.554688-13.9375 2.910157-19.457031-1.621093-7.125-5.890625-8.226563-16.402344-2.472657-23.640625 7.429688-8.367188 16.375-15.257813 26.367188-20.308594v-.085938c24.234375-13.480468 67.753906-28.671874 140.542969-28.671874 72.789062 0 116.308593 15.191406 140.542969 28.671874v.085938c9.992187 5.050781 18.9375 11.941406 26.371093 20.308594 5.878907 7.355468 4.695313 18.085937-2.648437 23.980468zm0 0"/><path d="m110.933594 25.601562c9.425781 0 17.066406 7.640626 17.066406 17.066407v17.066406c0 9.425781-7.640625 17.066406-17.066406 17.066406-9.425782 0-17.066406-7.640625-17.066406-17.066406v-17.066406c0-9.425781 7.640624-17.066407 17.066406-17.066407zm0 0"/><path d="m179.199219 8.535156c9.425781 0 17.066406 7.640625 17.066406 17.066406v17.066407c0 9.425781-7.640625 17.066406-17.066406 17.066406s-17.066407-7.640625-17.066407-17.066406v-17.066407c0-9.425781 7.640626-17.066406 17.066407-17.066406zm0 0"/><path d="m247.464844 25.601562c9.425781 0 17.070312 7.640626 17.070312 17.066407v17.066406c0 9.425781-7.644531 17.066406-17.070312 17.066406-9.421875 0-17.066406-7.640625-17.066406-17.066406v-17.066406c0-9.425781 7.644531-17.066407 17.066406-17.066407zm0 0"/></g><path d="m500.976562 375.289062-72.40625 72.40625c-6.664062 6.667969-17.472656 6.667969-24.136718 0-3.199219-3.199218-5-7.539062-5-12.066406s1.800781-8.867187 5-12.066406l6.035156-6.035156c6.664062-6.664063 6.664062-17.472656 0-24.136719s-6.664062-17.46875 0-24.136719c6.664062-6.664062 6.664062-17.46875 0-24.132812l-66.375-66.375c-3.320312-3.339844-3.320312-8.730469 0-12.066406l24.136719-24.136719c3.339843-3.320313 8.730469-3.320313 12.066406 0l120.679687 120.679687c3.320313 3.335938 3.320313 8.726563 0 12.066406zm0 0" fill="#0377bc"/><path d="m307.890625 411.492188 24.136719 24.136718c3.332031 3.332032 3.332031 8.734375 0 12.066406l-48.273438 48.273438c-9.996094 9.996094-26.207031 9.996094-36.203125 0-9.996093-9.996094-9.996093-26.207031 0-36.203125l48.273438-48.273437c3.332031-3.332032 8.734375-3.332032 12.066406 0zm0 0" fill="#3f51b5"/><path d="m343.464844 175.445312c-3.011719 2.445313-6.78125 3.773438-10.664063 3.753907-3.027343.003906-6-.789063-8.621093-2.304688-1.195313-.660156-2.261719-1.527343-3.15625-2.558593 6.304687-6.109376 6.929687-16.011719 1.453124-22.871094-7.433593-8.367188-16.378906-15.257813-26.371093-20.308594v-.085938c-22.699219-12.628906-62.378907-26.792968-127.230469-28.5 3.414062-.171874 6.828125-.171874 10.324219-.171874 72.789062 0 116.308593 15.191406 140.542969 28.671874v.085938c9.992187 5.050781 18.9375 11.941406 26.371093 20.308594 5.878907 7.355468 4.695313 18.085937-2.648437 23.980468zm0 0" fill="#fec108"/><path d="m483.667969 357.121094-72.445313 72.363281c-3.128906 3.132813-7.347656 4.9375-11.777344 5.03125.25-4.125 2.011719-8.015625 4.949219-10.921875l6.058594-6.058594c6.65625-6.671875 6.65625-17.472656 0-24.148437-6.597656-6.695313-6.597656-17.453125 0-24.148438 6.597656-6.699219 6.597656-17.453125 0-24.148437l-14.589844-14.59375c-.730469-1.324219-1.652343-2.53125-2.734375-3.585938l-50.941406-50.941406c-1.292969-3.199219-.554688-6.855469 1.875-9.300781l24.152344-24.152344c3.351562-3.324219 8.761718-3.324219 12.117187 0l105.128907 105.132813c0 .085937.085937.085937.085937.171874 1.292969 3.195313.554687 6.855469-1.878906 9.300782zm0 0" fill="#02a9f4"/><path d="m179.199219 315.734375c-70.175781 0-128.558594-48.34375-135.800781-112.449219-.472657-4.34375-.714844-8.707031-.730469-13.078125-.023438-4.019531.195312-8.035156.65625-12.03125.234375-2.867187.75-6.058593 1.28125-9.257812.757812-3.839844 1.5-6.976563 2.414062-10.117188.855469-2.925781 3.207031-5.175781 6.167969-5.898437 2.960938-.726563 6.082031.1875 8.191406 2.386718 2.105469 2.203126 2.878906 5.363282 2.027344 8.289063-.785156 2.675781-1.410156 5.34375-1.964844 8.085937-.449218 2.765626-.914062 5.492188-1.132812 8.222657-.402344 3.425781-.59375 6.871093-.574219 10.320312.011719 3.75.222656 7.492188.632813 11.21875 6.257812 55.40625 57.347656 97.242188 118.832031 97.242188 56.875 0 106.15625-36.695313 117.191406-87.234375.699219-3.292969 1.257813-6.691406 1.652344-10.09375.402343-3.695313.609375-7.414063.625-11.132813.023437-3.335937-.160157-6.667969-.542969-9.984375-.25-3.066406-.71875-5.789062-1.167969-8.523437-.566406-2.851563-1.289062-5.675781-2.015625-8.410157-1.207031-4.554687 1.511719-9.226562 6.066406-10.433593 4.558594-1.203125 9.226563 1.511719 10.433594 6.070312.808594 3.066407 1.617188 6.226563 2.25 9.375.632813 3.816407 1.148438 7.007813 1.417969 10.207031.441406 3.882813.648437 7.789063.625 11.699219-.015625 4.351563-.257813 8.695313-.734375 13.019531-.464844 4.015626-1.109375 7.964844-1.933594 11.804688-12.734375 58.367188-69.023437 100.703125-133.867187 100.703125zm0 0"/><path d="m51.882812 221.867188h-17.75c-14.132812-.015626-25.582031-11.46875-25.597656-25.601563.0625-14.109375 11.488282-25.53125 25.597656-25.597656h17.664063c4.714844 0 8.535156 3.820312 8.535156 8.53125 0 4.714843-3.820312 8.535156-8.535156 8.535156h-17.578125c-2.25-.039063-4.417969.847656-6 2.449219-1.675781 1.578125-2.625 3.78125-2.617188 6.082031 0 4.710937 3.820313 8.53125 8.53125 8.535156h17.75c4.710938 0 8.53125 3.820313 8.53125 8.53125 0 4.714844-3.820312 8.535157-8.53125 8.535157zm0 0"/><path d="m324.265625 221.867188h-17.75c-4.710937 0-8.53125-3.820313-8.53125-8.535157 0-4.710937 3.820313-8.53125 8.53125-8.53125h17.75c4.710937-.003906 8.53125-3.824219 8.535156-8.535156.019531-2.222656-.863281-4.359375-2.449219-5.914063-1.582031-1.675781-3.78125-2.621093-6.085937-2.617187h-17.664063c-4.710937 0-8.53125-3.820313-8.53125-8.535156 0-4.710938 3.820313-8.53125 8.53125-8.53125h17.578126c14.144531.019531 25.621093 11.453125 25.6875 25.597656-.015626 14.132813-11.46875 25.585937-25.601563 25.601563zm0 0"/><path d="m38.65625 139.648438c-2.257812.011718-4.429688-.878907-6.03125-2.472657s-2.503906-3.757812-2.503906-6.015625c.003906-.773437.101562-1.539062.292968-2.285156 9.1875-33.738281 29.894532-63.199219 58.527344-83.273438 2.484375-1.839843 5.769532-2.1875 8.585938-.914062s4.726562 3.972656 4.988281 7.054688c.261719 3.078124-1.164063 6.0625-3.726563 7.792968-25.316406 17.726563-43.648437 43.738282-51.832031 73.539063-.917969 3.84375-4.347656 6.5625-8.300781 6.574219zm0 0"/><path d="m232.105469 43.777344c-1.03125 0-2.058594-.1875-3.023438-.550782-10.859375-4.121093-22.195312-6.851562-33.742187-8.117187-4.683594-.511719-8.070313-4.722656-7.558594-9.410156.511719-4.683594 4.722656-8.066407 9.410156-7.554688 12.980469 1.421875 25.726563 4.488281 37.941406 9.113281 3.859376 1.457032 6.121094 5.464844 5.378907 9.523438-.742188 4.054688-4.28125 7-8.40625 6.996094zm0 0"/><path d="m319.742188 139.648438c-4.082032.015624-7.601563-2.871094-8.382813-6.882813-8.230469-29.675781-26.523437-55.5625-51.75-73.230469-2.558594-1.730468-3.984375-4.714844-3.722656-7.792968.261719-3.082032 2.167969-5.78125 4.984375-7.054688s6.101562-.925781 8.589844.914062c28.632812 20.074219 49.335937 49.535157 58.523437 83.273438.6875 2.566406.144531 5.304688-1.46875 7.414062-1.613281 2.113282-4.113281 3.351563-6.773437 3.359376zm0 0"/><path d="m126.292969 43.777344c-4.125.003906-7.664063-2.941406-8.40625-6.996094-.742188-4.058594 1.523437-8.066406 5.382812-9.523438 12.210938-4.625 24.957031-7.691406 37.9375-9.117187 4.6875-.507813 8.898438 2.875 9.410157 7.558594.511718 4.6875-2.875 8.898437-7.558594 9.410156-11.546875 1.265625-22.882813 3.992187-33.742188 8.117187-.964844.363282-1.992187.550782-3.023437.550782zm0 0"/><path d="m34.207031 187.734375c-3.929687-.003906-7.347656-2.691406-8.28125-6.507813-.351562-1.675781-.425781-3.394531-.226562-5.09375.386719-4.671874 4.425781-8.1875 9.109375-7.925781 4.703125.328125 8.25 4.40625 7.925781 9.109375-.027344.324219-.042969.609375-.050781.839844.304687 2.429688-.453125 4.871094-2.074219 6.703125s-3.953125 2.878906-6.402344 2.875zm0 0"/><path d="m153.601562 384c-4.714843 0-8.535156-3.820312-8.535156-8.535156v-70.566406c0-4.710938 3.820313-8.53125 8.535156-8.53125 4.710938 0 8.53125 3.820312 8.53125 8.53125v70.566406c0 4.714844-3.820312 8.535156-8.53125 8.535156zm0 0"/><path d="m204.800781 384c-4.714843 0-8.535156-3.820312-8.535156-8.535156v-70.566406c0-4.710938 3.820313-8.53125 8.535156-8.53125 4.710938 0 8.53125 3.820312 8.53125 8.53125v70.566406c0 4.714844-3.820312 8.535156-8.53125 8.535156zm0 0"/><path d="m273.066406 512h-247.464844c-14.132812-.015625-25.585937-11.46875-25.601562-25.601562v-34.132813c-.015625-29.425781 11.667969-57.648437 32.476562-78.457031 20.804688-20.808594 49.03125-32.488282 78.457032-32.476563h42.667968c4.710938 0 8.53125 3.820313 8.53125 8.535157 0 4.710937-3.820312 8.53125-8.53125 8.53125h-42.667968c-24.898438-.007813-48.78125 9.875-66.386719 27.484374-17.605469 17.605469-27.492187 41.484376-27.480469 66.382813v34.132813c.003906 4.714843 3.820313 8.53125 8.535156 8.535156h247.464844c4.714844 0 8.535156 3.820312 8.535156 8.53125 0 4.714844-3.820312 8.535156-8.535156 8.535156zm0 0"/><path d="m338.359375 413.609375c-3.183594.003906-6.105469-1.765625-7.574219-4.589844-16.132812-31.117187-48.269531-50.644531-83.320312-50.621093h-42.664063c-4.714843 0-8.535156-3.820313-8.535156-8.53125 0-4.714844 3.820313-8.535157 8.535156-8.535157h42.664063c41.410156-.015625 79.378906 23.046875 98.453125 59.800781 1.375 2.644532 1.273437 5.816407-.273438 8.363282-1.542969 2.550781-4.304687 4.109375-7.285156 4.113281zm0 0"/><path d="m332.816406 187.734375c-7.777344.015625-15.140625-3.515625-20-9.59375-.03125 0-32.257812-33.074219-133.617187-33.074219-101.808594 0-133.832031 33.359375-134.144531 33.691406-9.171876 10.46875-25 11.753907-35.742188 2.902344-10.78125-8.8125-12.4375-24.671875-3.703125-35.519531 4.289063-5.359375 45.546875-52.273437 173.589844-52.273437s169.300781 46.914062 173.585937 52.265624c6.148438 7.679688 7.351563 18.207032 3.09375 27.078126-4.257812 8.871093-13.222656 14.515624-23.0625 14.523437zm-153.617187-59.734375c109.617187 0 145.117187 37.441406 146.566406 39.042969 1.65625 2.242187 4.265625 3.582031 7.050781 3.625 1.933594.003906 3.8125-.65625 5.316406-1.867188 3.671876-2.953125 4.261719-8.320312 1.324219-12-1.488281-1.875-38.125-45.867187-160.257812-45.867187-122.132813 0-158.765625 43.992187-160.265625 45.867187-2.863282 3.609375-2.28125 8.855469 1.308594 11.75 3.648437 2.941407 8.972656 2.457031 12.03125-1.09375 1.375-1.597656 35.359374-39.457031 146.925781-39.457031zm0 0"/><path d="m110.933594 85.332031c-14.132813-.015625-25.585938-11.464843-25.601563-25.597656v-17.066406c0-14.140625 11.460938-25.601563 25.601563-25.601563 14.136718 0 25.601562 11.460938 25.601562 25.601563v17.066406c-.015625 14.132813-11.46875 25.582031-25.601562 25.597656zm0-51.199219c-4.710938.003907-8.53125 3.820313-8.535156 8.535157v17.066406c0 4.710937 3.820312 8.53125 8.535156 8.53125 4.710937 0 8.53125-3.820313 8.53125-8.53125v-17.066406c0-4.714844-3.820313-8.53125-8.53125-8.535157zm0 0"/><path d="m179.199219 68.265625c-14.132813-.015625-25.582031-11.46875-25.597657-25.597656v-17.066407c0-14.140624 11.460938-25.601562 25.597657-25.601562 14.140625 0 25.601562 11.460938 25.601562 25.601562v17.066407c-.015625 14.128906-11.46875 25.582031-25.601562 25.597656zm0-51.199219c-4.710938.003906-8.53125 3.820313-8.53125 8.535156v17.066407c0 4.710937 3.820312 8.53125 8.53125 8.53125 4.714843 0 8.535156-3.820313 8.535156-8.53125v-17.066407c-.003906-4.714843-3.824219-8.53125-8.535156-8.535156zm0 0"/><path d="m247.464844 85.332031c-14.128906-.015625-25.582032-11.464843-25.597656-25.597656v-17.066406c0-14.140625 11.460937-25.601563 25.597656-25.601563 14.140625 0 25.601562 11.460938 25.601562 25.601563v17.066406c-.015625 14.132813-11.46875 25.582031-25.601562 25.597656zm0-51.199219c-4.710938.003907-8.527344 3.820313-8.53125 8.535157v17.066406c0 4.710937 3.820312 8.53125 8.53125 8.53125 4.714844 0 8.535156-3.820313 8.535156-8.53125v-17.066406c-.003906-4.714844-3.820312-8.53125-8.535156-8.535157zm0 0"/><path d="m85.332031 512c-4.710937 0-8.53125-3.820312-8.53125-8.535156v-150.355469c0-4.710937 3.820313-8.535156 8.53125-8.535156 4.714844 0 8.535157 3.824219 8.535157 8.535156v150.355469c0 4.714844-3.820313 8.535156-8.535157 8.535156zm0 0"/><path d="m273.066406 512c-4.710937 0-8.53125-3.820312-8.53125-8.535156v-1.191406c0-4.714844 3.820313-8.535157 8.53125-8.535157 4.714844 0 8.535156 3.820313 8.535156 8.535157v1.191406c0 4.714844-3.820312 8.535156-8.535156 8.535156zm0 0"/><path d="m273.066406 442.792969c-2.261718.003906-4.433594-.894531-6.035156-2.496094s-2.5-3.773437-2.496094-6.035156v-81.152344c0-4.710937 3.820313-8.535156 8.53125-8.535156 4.714844 0 8.535156 3.824219 8.535156 8.535156v81.152344c0 2.261719-.898437 4.433593-2.5 6.035156-1.601562 1.601563-3.769531 2.5-6.035156 2.496094zm0 0"/><path d="m221.867188 443.734375h-85.332032c-14.132812-.015625-25.585937-11.46875-25.601562-25.601563v-59.734374c-4.714844 0-8.535156-3.820313-8.535156-8.53125 0-4.714844 3.820312-8.535157 8.535156-8.535157h8.53125c4.714844 0 8.535156 3.820313 8.535156 8.535157v68.265624c.003906 4.710938 3.820312 8.53125 8.535156 8.535157h85.332032c4.710937-.003907 8.53125-3.824219 8.53125-8.535157v-68.265624c0-4.714844 3.820312-8.535157 8.535156-8.535157h8.53125c4.714844 0 8.535156 3.820313 8.535156 8.535157 0 4.710937-3.820312 8.53125-8.535156 8.53125v59.734374c-.015625 14.132813-11.464844 25.585938-25.597656 25.601563zm0 0"/><path d="m265.648438 511.984375c-9.050782.011719-17.734376-3.578125-24.132813-9.984375-6.402344-6.402344-10-15.082031-10-24.132812 0-9.054688 3.597656-17.734376 10-24.132813l48.277344-48.277344c6.667969-6.648437 17.460937-6.648437 24.132812 0l24.132813 24.136719c6.65625 6.667969 6.65625 17.46875 0 24.140625l-48.265625 48.265625c-6.398438 6.40625-15.085938 10-24.144531 9.984375zm36.210937-94.460937-48.277344 48.277343c-3.199219 3.199219-5 7.539063-5 12.066407 0 4.527343 1.800781 8.867187 5 12.066406 6.757813 6.449218 17.386719 6.449218 24.144531 0l48.265626-48.265625zm0 0"/><path d="m319.957031 432.089844c-3.449219 0-6.558593-2.078125-7.882812-5.265625-1.320313-3.1875-.589844-6.859375 1.851562-9.300781l18.234375-18.230469c4.832032-4.828125 6.316406-12.070313 3.773438-18.410157l-37.824219-94.558593c-3.8125-9.507813-1.578125-20.375 5.675781-27.605469l16.171875-16.175781c10.136719-9.667969 26.074219-9.667969 36.210938 0l6.023437 6.03125c3.234375 3.347656 3.1875 8.671875-.105468 11.964843-3.289063 3.289063-8.613282 3.335938-11.960938.101563l-6.035156-6.03125c-3.378906-3.21875-8.683594-3.21875-12.066406 0l-16.171876 16.171875c-2.421874 2.414062-3.164062 6.039062-1.894531 9.210938l37.828125 94.558593c5.078125 12.675781 2.101563 27.160157-7.558594 36.808594l-18.234374 18.234375c-1.597657 1.601562-3.769532 2.5-6.035157 2.496094zm0 0"/><path d="m416.5 461.214844c-10.355469.011718-19.699219-6.222656-23.664062-15.789063-3.964844-9.570312-1.765626-20.582031 5.5625-27.898437l6.035156-6.035156c3.324218-3.335938 3.324218-8.730469 0-12.066407-4.800782-4.800781-7.5-11.3125-7.5-18.105469 0-6.789062 2.699218-13.300781 7.5-18.101562 3.324218-3.335938 3.324218-8.734375 0-12.066406l-66.375-66.375c-6.648438-6.667969-6.652344-17.457032-.007813-24.125l24.148438-24.144532c6.667969-6.648437 17.460937-6.648437 24.132812 0l120.675781 120.683594c6.65625 6.667969 6.65625 17.464844 0 24.132813l-72.40625 72.410156c-4.796874 4.804687-11.3125 7.496094-18.101562 7.480469zm-42.234375-212.640625-24.144531 24.132812 66.375 66.375c9.984375 10.007813 9.984375 26.203125 0 36.210938-3.332032 3.332031-3.332032 8.734375 0 12.066406 9.984375 10 9.984375 26.195313 0 36.199219l-6.03125 6.035156c-3.335938 3.332031-3.335938 8.734375-.003906 12.070312 3.332031 3.332032 8.734374 3.335938 12.070312.003907l72.402344-72.402344zm120.675781 120.683593 6.035156 6.035157zm0 0"/><path d="m40.949219 386.046875c-1.894531.003906-3.738281-.628906-5.234375-1.796875-27.824219-21.667969-35.289063-62.859375-17.746094-97.933594 15.507812-31.007812 7.871094-70.917968 7.796875-71.316406-.835937-4.582031 2.15625-8.988281 6.726563-9.898438 4.566406-.910156 9.019531 2.007813 10.007812 6.558594.375 1.855469 8.898438 45.957032-9.265625 82.289063-13.917969 27.835937-8.46875 60.140625 12.96875 76.835937 2.878906 2.238282 4.011719 6.058594 2.828125 9.507813-1.1875 3.445312-4.433594 5.761719-8.078125 5.757812zm0 0"/><path d="m322.632812 260.4375c-4.429687 0-8.125-3.398438-8.492187-7.816406-1.152344-13.667969-.5625-27.425782 1.757813-40.941406.964843-4.570313 5.421874-7.515626 10.003906-6.613282 4.582031.90625 7.585937 5.328125 6.738281 9.921875-1.992187 11.957031-2.492187 24.117188-1.5 36.199219.191406 2.253906-.519531 4.492188-1.980469 6.222656-1.460937 1.726563-3.546875 2.804688-5.800781 2.992188-.242187.023437-.484375.035156-.726563.035156zm0 0"/></svg>