<svg height="512pt" viewBox="0 0 512 512" width="512pt" xmlns="http://www.w3.org/2000/svg"><path d="m358.398438 477.183594v9.214844c-.027344 9.414062-7.652344 17.039062-17.066407 17.066406h-307.199219c-9.414062-.027344-17.039062-7.652344-17.066406-17.066406v-25.597657c-.007812-27.160156 10.777344-53.210937 29.984375-72.417969 19.207031-19.203124 45.253907-29.992187 72.414063-29.984374h136.535156c15.167969-.03125 30.152344 3.324218 43.863281 9.816406l1.277344 2.472656 20.992187 38.996094zm0 0" fill="#0377bc"/><path d="m334.761719 477.183594v9.214844c-.027344 9.414062-7.652344 17.039062-17.066407 17.066406h-283.5625c-9.414062-.027344-17.039062-7.652344-17.066406-17.066406v-25.597657c-.007812-27.160156 10.777344-53.210937 29.984375-72.417969 19.207031-19.203124 45.253907-29.992187 72.414063-29.984374h112.898437c23.25 2.023437 46.265625 6.136718 68.777344 12.289062 4.984375 1.203125 9.863281 2.800781 14.59375 4.777344l6.398437 34.21875zm0 0" fill="#02a9f4"/><path d="m128 358.398438v34.136718c0 14.136719 11.460938 25.597656 25.601562 25.597656h68.265626c14.136718 0 25.597656-11.460937 25.597656-25.597656v-34.136718zm0 0" fill="#ffe0b2"/><path d="m162.132812 313.429688h51.199219v70.570312h-51.199219zm0 0" fill="#ffe0b2"/><path d="m332.800781 153.601562v43.007813l-23.636719-.769531-264.449218-8.105469-2.046875-34.132813h2.046875c10.835937-59.394531 64.683594-105.558593 131.242187-110.421874 3.839844-.34375 7.765625-.511719 11.777344-.511719 71.933594 0 131.582031 48.042969 143.019531 110.933593zm0 0" fill="#6d4122"/><path d="m309.164062 153.601562v42.238282l-264.449218-8.105469-2.046875-34.132813h2.046875c10.835937-59.394531 64.683594-105.558593 131.242187-110.421874 66.558594 4.863281 120.320313 51.027343 131.15625 110.421874zm0 0" fill="#91562d"/><path d="m401.066406 281.601562c-56.554687 0-102.398437 45.84375-102.398437 102.398438s45.84375 102.398438 102.398437 102.398438c56.554688 0 102.398438-45.84375 102.398438-102.398438.007812-27.160156-10.777344-53.210938-29.980469-72.414062-19.207031-19.207032-45.257813-29.992188-72.417969-29.984376zm0 119.464844c-9.425781 0-17.066406-7.640625-17.066406-17.066406s7.640625-17.066406 17.066406-17.066406c9.425782 0 17.066406 7.640625 17.066406 17.066406-.027343 9.414062-7.652343 17.039062-17.066406 17.066406zm0 0" fill="#607d8b"/><path d="m503.464844 384c.007812 27.160156-10.777344 53.210938-29.980469 72.414062-19.207031 19.207032-45.257813 29.992188-72.417969 29.984376-3.933594-.007813-7.867187-.234376-11.777344-.679688 51.617188-6.023438 90.539063-49.753906 90.539063-101.71875s-38.921875-95.695312-90.539063-101.71875c3.910157-.445312 7.84375-.671875 11.777344-.679688 27.160156-.007812 53.210938 10.777344 72.417969 29.984376 19.203125 19.203124 29.988281 45.253906 29.980469 72.414062zm0 0" fill="#37474f"/><path d="m315.734375 198.742188c-.011719 4.046874-.242187 8.09375-.683594 12.117187-6.65625 58.964844-61.097656 104.875-127.316406 104.875-3.925781 0-7.851563-.171875-11.777344-.511719-60.757812-5.035156-109.3125-48.898437-115.542969-104.363281-.441406-4.023437-.667968-8.070313-.679687-12.117187.015625-6.785157.644531-13.554688 1.875-20.226563.769531-3.753906 1.707031-7.421875 2.816406-11.089844v-.085937c9.132813-20.90625 31.660157-63.0625 67.585938-71 15.027343-2.957032 30.617187-.347656 43.859375 7.339844h.085937c4.070313 2.175781 8.003907 4.597656 11.777344 7.253906 9.558594-7.046875 20.488281-12.015625 32.085937-14.59375 49.832032-10.238282 80.296876 45.824218 91.21875 71v.085937c1.109376 3.667969 2.050782 7.335938 2.816407 11.089844 1.234375 6.671875 1.863281 13.441406 1.878906 20.226563zm0 0" fill="#dfc49c"/><path d="m292.097656 198.742188c-.015625 4.046874-.242187 8.09375-.683594 12.117187-6.230468 55.378906-54.699218 99.328125-115.457031 104.363281-60.757812-5.035156-109.3125-48.898437-115.542969-104.363281-.441406-4.023437-.667968-8.070313-.679687-12.117187.015625-6.785157.644531-13.554688 1.875-20.226563.769531-3.753906 1.707031-7.421875 2.816406-11.089844v-.085937c9.132813-20.90625 31.660157-63.0625 67.585938-71 11.59375 2.578125 22.523437 7.546875 32.085937 14.59375 3.773438-2.65625 7.703125-5.078125 11.773438-7.253906h.085937c4.070313 2.175781 8.003907 4.597656 11.777344 7.253906 9.558594-7.046875 20.488281-12.015625 32.085937-14.59375 36.007813 7.9375 58.453126 50.09375 67.582032 71v.085937c1.109375 3.667969 2.046875 7.335938 2.816406 11.089844 1.230469 6.671875 1.859375 13.441406 1.878906 20.226563zm0 0" fill="#ffe0b2"/><path d="m42.667969 153.601562h8.53125c4.714843 0 8.535156 3.820313 8.535156 8.53125v85.332032c0 4.714844-3.820313 8.535156-8.535156 8.535156h-8.53125c-18.851563 0-34.132813-15.28125-34.132813-34.132812v-34.132813c0-18.851563 15.28125-34.132813 34.132813-34.132813zm0 0" fill="#607d8b"/><path d="m366.933594 187.734375v34.132813c.003906 9.054687-3.59375 17.738281-9.996094 24.136718-6.402344 6.402344-15.085938 10-24.136719 9.996094h-8.535156c-1.738281-.011719-3.433594-.546875-4.863281-1.535156h-.085938c-2.214844-1.648438-3.539062-4.234375-3.582031-7v-85.332032c.042969-2.761718 1.367187-5.347656 3.582031-6.996093h.085938c1.429687-.988281 3.125-1.523438 4.863281-1.535157h8.535156c9.050781-.003906 17.734375 3.589844 24.136719 9.992188s10 15.085938 9.996094 24.140625zm0 0" fill="#37474f"/><path d="m343.296875 187.734375v34.132813c-.011719 14.910156-9.679687 28.097656-23.894531 32.597656h-.085938c-2.214844-1.648438-3.539062-4.234375-3.582031-7v-85.332032c.042969-2.761718 1.367187-5.347656 3.582031-6.996093h.085938c14.214844 4.5 23.882812 17.6875 23.894531 32.597656zm0 0" fill="#607d8b"/><path d="m102.398438 170.667969h59.734374c4.714844 0 8.535157 3.820312 8.535157 8.53125v8.535156c0 18.851563-15.285157 34.132813-34.132813 34.132813h-8.535156c-18.851562 0-34.132812-15.28125-34.132812-34.132813v-8.535156c0-4.710938 3.820312-8.53125 8.53125-8.53125zm0 0" fill="#02a9f4"/><path d="m213.332031 170.667969h59.734375c4.714844 0 8.535156 3.820312 8.535156 8.53125v8.535156c0 18.851563-15.285156 34.132813-34.136718 34.132813h-8.53125c-18.851563 0-34.132813-15.28125-34.132813-34.132813v-8.535156c0-4.710938 3.820313-8.53125 8.53125-8.53125zm0 0" fill="#02a9f4"/><path d="m170.667969 185.003906v2.730469c0 9.050781-3.59375 17.734375-9.996094 24.136719s-15.085937 10-24.136719 9.996094h-8.535156c-5.160156.046874-10.253906-1.152344-14.847656-3.5 10.878906-21.523438 33.429687-34.605469 57.515625-33.363282zm0 0" fill="#0377bc"/><path d="m281.601562 185.515625v2.21875c0 9.050781-3.59375 17.734375-9.996093 24.136719-6.402344 6.402344-15.085938 10-24.140625 9.996094h-8.53125c-7.550782.03125-14.890625-2.496094-20.820313-7.167969 9.640625-15.789063 28.328125-32.425781 63.488281-29.183594zm0 0" fill="#0377bc"/><path d="m187.734375 324.265625c-70.175781 0-128.558594-48.355469-135.800781-112.472656-.476563-4.339844-.722656-8.703125-.734375-13.066407.019531-7.28125.691406-14.542968 2.015625-21.703124.8125-4.105469 1.832031-8.167969 3.050781-12.171876.828125-2.992187 3.210937-5.300781 6.230469-6.027343 3.015625-.726563 6.191406.242187 8.289062 2.53125 2.097656 2.289062 2.785156 5.535156 1.796875 8.476562-1.023437 3.367188-1.898437 6.886719-2.605469 10.417969-1.121093 6.09375-1.695312 12.277344-1.710937 18.476562.011719 3.742188.222656 7.480469.632813 11.199219 6.257812 55.433594 57.351562 97.273438 118.835937 97.273438s112.574219-41.839844 118.832031-97.324219c.414063-3.703125.625-7.425781.632813-11.148438-.019531-6.25-.597657-12.488281-1.730469-18.636718-.683594-3.371094-1.558594-6.890625-2.585938-10.257813-.988281-2.941406-.296874-6.1875 1.800782-8.476562 2.097656-2.289063 5.269531-3.257813 8.289062-2.53125 3.015625.726562 5.402344 3.035156 6.226563 6.027343 1.167969 3.789063 2.183593 7.839844 3.027343 12.015626 2.171876 11.496093 2.613282 23.25 1.308594 34.875-7.242187 64.167968-65.628906 112.523437-135.800781 112.523437zm0 0"/><path d="m330.742188 162.132812c-4.121094 0-7.652344-2.953124-8.382813-7.007812-10.949219-60.214844-67.566406-103.925781-134.625-103.925781s-123.675781 43.710937-134.625 103.925781c-.96875 4.503906-5.335937 7.429688-9.871094 6.605469-4.535156-.824219-7.59375-5.097657-6.914062-9.65625 12.417969-68.339844 76.101562-117.941407 151.410156-117.941407s138.992187 49.601563 151.40625 117.941407c.410156 2.226562-.085937 4.523437-1.375 6.382812-1.289063 1.863281-3.261719 3.132813-5.492187 3.535157-.503907.097656-1.015626.144531-1.53125.140624zm0 0"/><path d="m358.398438 173.617188c-2.25.027343-4.417969-.84375-6.019532-2.421876-1.605468-1.582031-2.507812-3.734374-2.511718-5.988281v-.253906c0-81.542969-72.734376-147.886719-162.132813-147.886719-89.402344 0-162.132813 66.34375-162.132813 147.882813.011719 4.738281-3.796874 8.605469-8.535156 8.667969-2.25.027343-4.417968-.84375-6.023437-2.425782-1.601563-1.578125-2.507813-3.734375-2.507813-5.984375 0-91.207031 80.390625-165.207031 179.199219-165.207031s179.199219 74 179.199219 164.949219c.011718 4.742187-3.792969 8.605469-8.535156 8.667969zm0 0"/><path d="m64.425781 175.917969c-2.257812.007812-4.429687-.878907-6.03125-2.472657-1.601562-1.59375-2.5-3.761718-2.5-6.019531-.003906-1.199219.238281-2.382812.707031-3.484375 10.238282-23.542968 32.933594-64.582031 69.867188-75 21.132812-6 43.40625-.917968 66.15625 15 3.789062 2.726563 4.679688 7.992188 2.007812 11.816406-2.675781 3.824219-7.929687 4.789063-11.789062 2.167969-18.34375-12.84375-35.734375-17.066406-51.742188-12.558593-31.132812 8.785156-51.371093 48.273437-58.742187 65.132812-1.285156 3.261719-4.429687 5.40625-7.933594 5.417969zm0 0"/><path d="m311.039062 175.917969c-3.65625.007812-6.914062-2.320313-8.089843-5.785157-7.5-17.066406-27.675781-56.050781-58.585938-64.765624-16-4.519532-33.398437-.285157-51.742187 12.554687-2.496094 1.800781-5.765625 2.113281-8.558594.824219-2.792969-1.285156-4.679688-3.980469-4.929688-7.046875-.253906-3.066407 1.164063-6.03125 3.707032-7.757813 22.757812-15.910156 45-20.984375 66.160156-15 36.929688 10.414063 59.625 51.453125 69.863281 75 1.148438 2.640625.890625 5.683594-.683593 8.09375-1.578126 2.410156-4.257813 3.867188-7.140626 3.878906zm0 0"/><path d="m162.132812 392.535156c-4.710937 0-8.53125-3.824218-8.53125-8.535156v-70.566406c0-4.710938 3.820313-8.535156 8.53125-8.535156 4.714844 0 8.535157 3.824218 8.535157 8.535156v70.566406c0 4.710938-3.820313 8.535156-8.535157 8.535156zm0 0"/><path d="m213.332031 392.535156c-4.710937 0-8.53125-3.824218-8.53125-8.535156v-70.566406c0-4.710938 3.820313-8.535156 8.53125-8.535156 4.714844 0 8.535157 3.824218 8.535157 8.535156v70.566406c0 4.710938-3.820313 8.535156-8.535157 8.535156zm0 0"/><path d="m341.332031 512h-307.199219c-14.132812-.015625-25.582031-11.46875-25.597656-25.601562v-25.597657c.070313-61.238281 49.695313-110.863281 110.929688-110.933593h42.667968c4.714844 0 8.535157 3.820312 8.535157 8.53125 0 4.714843-3.820313 8.535156-8.535157 8.535156h-42.667968c-51.816406.058594-93.804688 42.050781-93.863282 93.867187v25.597657c0 4.714843 3.820313 8.53125 8.53125 8.535156h307.199219c4.714844-.003906 8.53125-3.820313 8.535157-8.535156v-9.214844c0-4.710938 3.820312-8.53125 8.53125-8.53125 4.714843 0 8.535156 3.820312 8.535156 8.53125v9.214844c-.015625 14.132812-11.46875 25.585937-25.601563 25.601562zm0 0"/><path d="m299.851562 376.746094c-1.265624 0-2.511718-.28125-3.652343-.824219-12.558594-5.960937-26.296875-9.035156-40.199219-8.988281h-42.667969c-4.710937 0-8.53125-3.820313-8.53125-8.535156 0-4.710938 3.820313-8.53125 8.53125-8.53125h42.667969c16.433594-.046876 32.671875 3.589843 47.515625 10.640624 3.605469 1.714844 5.542969 5.695313 4.664063 9.589844-.878907 3.894532-4.339844 6.65625-8.332032 6.652344zm0 0"/><path d="m51.199219 264.535156h-8.53125c-23.554688-.03125-42.6406252-19.117187-42.667969-42.667968v-34.132813c.0273438-23.554687 19.113281-42.640625 42.667969-42.667969h8.53125c9.421875.011719 17.054687 7.648438 17.066406 17.066406v85.332032c-.011719 9.421875-7.644531 17.054687-17.066406 17.070312zm-8.53125-102.402344c-14.132813.015626-25.585938 11.46875-25.601563 25.601563v34.132813c.015625 14.132812 11.46875 25.582031 25.601563 25.597656h8.550781l-.019531-85.332032zm0 0"/><path d="m332.800781 264.535156h-8.535156c-9.417969-.015625-17.054687-7.648437-17.066406-17.070312v-85.332032c.011719-9.417968 7.648437-17.054687 17.066406-17.066406h8.535156c23.550781.027344 42.636719 19.113282 42.664063 42.667969v34.132813c-.027344 23.550781-19.113282 42.636718-42.664063 42.667968zm-8.535156-102.402344v85.332032h8.535156c14.132813-.015625 25.582031-11.464844 25.597657-25.597656v-34.132813c-.015626-14.132813-11.464844-25.585937-25.597657-25.601563zm0 0"/><path d="m221.867188 426.667969h-68.265626c-18.84375-.019531-34.117187-15.289063-34.136718-34.132813v-34.136718c0-4.710938 3.824218-8.53125 8.535156-8.53125s8.535156 3.820312 8.535156 8.53125v34.136718c.011719 9.417969 7.644532 17.050782 17.066406 17.066406h68.265626c9.417968-.015624 17.054687-7.648437 17.066406-17.066406v-34.136718c0-4.710938 3.820312-8.53125 8.53125-8.53125 4.714844 0 8.535156 3.820312 8.535156 8.53125v34.136718c-.019531 18.84375-15.289062 34.113282-34.132812 34.132813zm0 0"/><path d="m68.265625 512c-4.710937 0-8.53125-3.820312-8.53125-8.535156v-42.664063c0-4.714843 3.820313-8.535156 8.53125-8.535156 4.714844 0 8.535156 3.820313 8.535156 8.535156v42.664063c0 4.714844-3.820312 8.535156-8.535156 8.535156zm0 0"/><path d="m307.199219 512c-4.710938 0-8.53125-3.820312-8.53125-8.535156v-25.597656c0-4.714844 3.820312-8.535157 8.53125-8.535157 4.714843 0 8.535156 3.820313 8.535156 8.535157v25.597656c0 4.714844-3.820313 8.535156-8.535156 8.535156zm0 0"/><path d="m401.066406 494.933594c-61.265625 0-110.933594-49.667969-110.933594-110.933594s49.667969-110.933594 110.933594-110.933594 110.933594 49.667969 110.933594 110.933594c-.070312 61.238281-49.695312 110.863281-110.933594 110.933594zm0-204.800782c-51.839844 0-93.867187 42.027344-93.867187 93.867188s42.027343 93.867188 93.867187 93.867188 93.867188-42.027344 93.867188-93.867188c-.058594-51.816406-42.050782-93.808594-93.867188-93.867188zm0 0"/><path d="m332.800781 392.535156c-4.714843 0-8.535156-3.824218-8.535156-8.535156.046875-42.394531 34.40625-76.753906 76.800781-76.800781 4.714844 0 8.535156 3.820312 8.535156 8.535156 0 4.710937-3.820312 8.53125-8.535156 8.53125-32.972656.039063-59.691406 26.761719-59.734375 59.734375 0 4.710938-3.820312 8.535156-8.53125 8.535156zm0 0"/><path d="m401.066406 460.800781c-4.710937 0-8.53125-3.820312-8.53125-8.535156 0-4.710937 3.820313-8.53125 8.53125-8.53125 32.972656-.039063 59.695313-26.761719 59.734375-59.734375 0-4.710938 3.820313-8.535156 8.53125-8.535156 4.714844 0 8.535157 3.824218 8.535157 8.535156-.046876 42.394531-34.40625 76.753906-76.800782 76.800781zm0 0"/><path d="m401.066406 409.601562c-10.355468 0-19.6875-6.238281-23.652344-15.804687-3.960937-9.566406-1.769531-20.578125 5.550782-27.898437 7.320312-7.320313 18.332031-9.511719 27.898437-5.550782 9.566407 3.964844 15.804688 13.296875 15.804688 23.652344-.015625 14.132812-11.46875 25.585938-25.601563 25.601562zm0-34.136718c-4.710937 0-8.53125 3.824218-8.53125 8.535156s3.820313 8.535156 8.53125 8.535156c4.714844 0 8.535156-3.824218 8.535156-8.535156-.003906-4.710938-3.824218-8.53125-8.535156-8.535156zm0 0"/><path d="m136.535156 221.867188h-8.535156c-23.550781-.027344-42.640625-19.113282-42.667969-42.667969v-8.53125c.015625-9.421875 7.648438-17.054688 17.066407-17.066407h59.734374c9.421876.011719 17.054688 7.644532 17.066407 17.066407v8.53125c-.027344 23.554687-19.113281 42.640625-42.664063 42.667969zm-34.136718-51.199219v8.53125c.015624 14.132812 11.46875 25.585937 25.601562 25.601562h8.535156c14.128906-.015625 25.582032-11.46875 25.597656-25.601562v-8.53125zm0 0"/><path d="m247.464844 221.867188h-8.53125c-23.554688-.027344-42.640625-19.113282-42.667969-42.667969v-8.53125c.015625-9.421875 7.648437-17.054688 17.066406-17.066407h59.734375c9.421875.011719 17.054688 7.644532 17.066406 17.066407v8.53125c-.027343 23.554687-19.113281 42.640625-42.667968 42.667969zm-34.132813-51.199219v8.53125c.015625 14.132812 11.46875 25.585937 25.601563 25.601562h8.53125c14.132812-.015625 25.585937-11.46875 25.601562-25.601562v-8.53125zm0 0"/><path d="m206.699219 173.984375c-2.113281.003906-4.148438-.78125-5.714844-2.199219-7.378906-7.058594-19-7.058594-26.375 0-2.253906 2.097656-5.464844 2.820313-8.402344 1.886719-2.933593-.933594-5.140625-3.375-5.769531-6.390625s.417969-6.136719 2.734375-8.164062c13.863281-12.949219 35.382813-12.949219 49.242187 0 2.621094 2.367187 3.515626 6.101562 2.246094 9.394531-1.265625 3.296875-4.433594 5.472656-7.960937 5.472656zm0 0"/><path d="m60.5 186.539062c-4.121094.003907-7.660156-2.941406-8.402344-6.996093-.746094-4.058594 1.519532-8.066407 5.378906-9.519531l36.265626-13.742188c2.855468-1.078125 6.066406-.554688 8.425781 1.375 2.363281 1.929688 3.515625 4.972656 3.027343 7.980469-.492187 3.011719-2.550781 5.53125-5.402343 6.613281l-36.265625 13.738281c-.96875.363281-1.992188.550781-3.027344.550781zm0 0"/><path d="m314.964844 186.539062c-1.03125 0-2.058594-.1875-3.023438-.550781l-36.269531-13.738281c-2.851563-1.082031-4.910156-3.601562-5.398437-6.609375-.492188-3.011719.660156-6.054687 3.023437-7.984375s5.574219-2.453125 8.425781-1.371094l36.265625 13.738282c3.859375 1.457031 6.121094 5.460937 5.378907 9.519531-.742188 4.054687-4.277344 7-8.402344 6.996093zm0 0"/></svg>