<svg height="512pt" viewBox="0 0 512 512" width="512pt" xmlns="http://www.w3.org/2000/svg"><path d="m342.101562 300.289062-17.835937 121.941407-23.210937-3.074219-251.5625-33.109375c-25.429688-19.796875-30.546876-57-15.359376-87.378906 6.300782-13.378907 9.839844-27.890625 10.410157-42.667969l5.632812-84.566406.085938-.765625 282.539062 8.957031-1.878906 76.375c.570313 14.777344 4.109375 29.289062 10.410156 42.667969.257813.511719.511719 1.109375.769531 1.621093zm0 0" fill="#783e22"/><path d="m318.464844 300.289062-17.410156 118.867188-251.5625-33.109375c-25.429688-19.796875-30.546876-57-15.359376-87.378906 6.300782-13.378907 9.839844-27.890625 10.410157-42.667969l5.632812-84.566406 258.988281 8.191406-1.878906 76.375c.570313 14.777344 4.109375 29.289062 10.410156 42.667969.257813.511719.511719 1.109375.769532 1.621093zm0 0" fill="#a0522d"/><path d="m358.398438 477.183594v9.214844c-.027344 9.414062-7.652344 17.039062-17.066407 17.066406h-307.199219c-9.414062-.027344-17.039062-7.652344-17.066406-17.066406v-25.597657c-.007812-27.160156 10.777344-53.210937 29.984375-72.417969 19.207031-19.203124 45.253907-29.992187 72.414063-29.984374h136.535156c15.167969-.03125 30.152344 3.320312 43.863281 9.816406zm0 0" fill="#02a9f4"/><path d="m128 358.398438v34.136718c0 14.136719 11.460938 25.597656 25.601562 25.597656h68.265626c14.136718 0 25.597656-11.460937 25.597656-25.597656v-34.136718zm0 0" fill="#ffe0b2"/><path d="m162.132812 313.429688h51.199219v70.570312h-51.199219zm0 0" fill="#ffe0b2"/><path d="m332.800781 153.601562v43.007813l-23.636719-.769531-264.449218-8.105469-2.046875-34.132813h2.046875c10.835937-59.394531 64.683594-105.558593 131.242187-110.421874 3.839844-.34375 7.765625-.511719 11.777344-.511719 71.933594 0 131.582031 48.042969 143.019531 110.933593zm0 0" fill="#6d4122"/><path d="m309.164062 153.601562v42.238282l-264.449218-8.105469-2.046875-34.132813h2.046875c10.835937-59.394531 64.683594-105.558593 131.242187-110.421874 66.558594 4.863281 120.320313 51.027343 131.15625 110.421874zm0 0" fill="#91562d"/><path d="m315.734375 198.742188c-.011719 4.046874-.242187 8.09375-.683594 12.117187-.425781 3.667969-1.023437 7.339844-1.792969 10.921875-12.003906 47.769531-51.296874 83.808594-99.925781 91.648438-8.441406 1.550781-17.011719 2.320312-25.597656 2.304687-4.011719 0-7.9375-.171875-11.777344-.511719-4.636719-.335937-9.253906-.933594-13.824219-1.792968-48.773437-7.785157-88.136718-44.027344-99.925781-91.988282-.765625-3.5-1.363281-7-1.792969-10.582031-.441406-4.023437-.667968-8.070313-.679687-12.117187-.019531-3.679688.179687-7.355469.597656-11.007813.253907-3.074219.765625-6.144531 1.277344-9.21875.597656-2.984375 1.367187-5.886719 2.132813-8.789063l4.523437-24.660156c43.179687-10.667968 65.109375-29.441406 75.777344-43.179687 4.121093-4.921875 7.355469-10.523438 9.558593-16.554688 0 0 27.132813 47.53125 105.640626 51.714844 2.558593.167969 5.121093.253906 7.851562.253906 7.6875.15625 15.378906-.097656 23.039062-.765625 8.925782 10.410156 16.308594 22.050782 21.929688 34.558594.683594 2.472656 1.28125 4.949219 1.792969 7.421875.511719 3.074219 1.023437 6.144531 1.28125 9.21875.414062 3.652344.617187 7.328125.597656 11.007813zm0 0" fill="#dfc49c"/><path d="m292.097656 198.742188c-.015625 4.046874-.242187 8.09375-.683594 12.117187-.425781 3.667969-1.023437 7.339844-1.792968 10.921875-12.003906 47.769531-51.296875 83.808594-99.925782 91.648438-4.539062.859374-9.128906 1.457031-13.738281 1.792968-4.636719-.335937-9.253906-.933594-13.824219-1.792968-48.773437-7.785157-88.136718-44.027344-99.925781-91.988282-.765625-3.5-1.363281-7-1.792969-10.582031-.441406-4.023437-.667968-8.070313-.679687-12.117187-.019531-3.679688.179687-7.355469.597656-11.007813.253907-3.074219.765625-6.144531 1.277344-9.21875.597656-2.984375 1.367187-5.886719 2.132813-8.789063l4.523437-24.660156c43.179687-10.667968 65.109375-29.441406 75.777344-43.179687 17.578125 16.300781 53.246093 38.488281 115.199219 35.160156 2.390624-.085937 4.777343-.257813 7.253906-.511719.222656.234375.421875.492188.597656.765625 8.71875 10.164063 15.90625 21.550781 21.332031 33.792969.683594 2.472656 1.28125 4.949219 1.792969 7.421875.511719 3.074219 1.023438 6.144531 1.28125 9.21875.414062 3.652344.613281 7.328125.597656 11.007813zm0 0" fill="#ffe0b2"/><path d="m401.066406 281.601562c-56.554687 0-102.398437 45.84375-102.398437 102.398438s45.84375 102.398438 102.398437 102.398438c56.554688 0 102.398438-45.84375 102.398438-102.398438.007812-27.160156-10.777344-53.210938-29.980469-72.414062-19.207031-19.207032-45.257813-29.992188-72.417969-29.984376zm0 119.464844c-9.425781 0-17.066406-7.640625-17.066406-17.066406s7.640625-17.066406 17.066406-17.066406c9.425782 0 17.066406 7.640625 17.066406 17.066406-.027343 9.414062-7.652343 17.039062-17.066406 17.066406zm0 0" fill="#607d8b"/><path d="m503.464844 384c.007812 27.160156-10.777344 53.210938-29.980469 72.414062-19.207031 19.207032-45.257813 29.992188-72.417969 29.984376-3.933594-.007813-7.867187-.234376-11.777344-.679688 51.617188-6.023438 90.539063-49.753906 90.539063-101.71875s-38.921875-95.695312-90.539063-101.71875c3.910157-.445312 7.84375-.671875 11.777344-.679688 27.160156-.007812 53.210938 10.777344 72.417969 29.984376 19.203125 19.203124 29.988281 45.253906 29.980469 72.414062zm0 0" fill="#37474f"/><path d="m42.667969 153.601562h8.53125c4.714843 0 8.535156 3.820313 8.535156 8.53125v85.332032c0 4.714844-3.820313 8.535156-8.535156 8.535156h-8.53125c-18.851563 0-34.132813-15.28125-34.132813-34.132812v-34.132813c0-18.851563 15.28125-34.132813 34.132813-34.132813zm0 0" fill="#607d8b"/><path d="m366.933594 187.734375v34.132813c.003906 9.054687-3.59375 17.738281-9.996094 24.136718-6.402344 6.402344-15.085938 10-24.136719 9.996094h-8.535156c-1.738281-.011719-3.433594-.546875-4.863281-1.535156h-.085938c-2.214844-1.648438-3.539062-4.234375-3.582031-7v-85.332032c.042969-2.761718 1.367187-5.347656 3.582031-6.996093h.085938c1.429687-.988281 3.125-1.523438 4.863281-1.535157h8.535156c9.050781-.003906 17.734375 3.589844 24.136719 9.992188s10 15.085938 9.996094 24.140625zm0 0" fill="#37474f"/><path d="m343.296875 187.734375v34.132813c-.011719 14.910156-9.679687 28.097656-23.894531 32.597656h-.085938c-2.214844-1.648438-3.539062-4.234375-3.582031-7v-85.332032c.042969-2.761718 1.367187-5.347656 3.582031-6.996093h.085938c14.214844 4.5 23.882812 17.6875 23.894531 32.597656zm0 0" fill="#607d8b"/><path d="m102.398438 170.667969h59.734374c4.714844 0 8.535157 3.820312 8.535157 8.53125v8.535156c0 18.851563-15.285157 34.132813-34.132813 34.132813h-8.535156c-18.851562 0-34.132812-15.28125-34.132812-34.132813v-8.535156c0-4.710938 3.820312-8.53125 8.53125-8.53125zm0 0" fill="#02a9f4"/><path d="m213.332031 170.667969h59.734375c4.714844 0 8.535156 3.820312 8.535156 8.53125v8.535156c0 18.851563-15.285156 34.132813-34.136718 34.132813h-8.53125c-18.851563 0-34.132813-15.28125-34.132813-34.132813v-8.535156c0-4.710938 3.820313-8.53125 8.53125-8.53125zm0 0" fill="#02a9f4"/><path d="m170.667969 185.003906v2.730469c0 9.050781-3.59375 17.734375-9.996094 24.136719s-15.085937 10-24.136719 9.996094h-8.535156c-5.160156.046874-10.253906-1.152344-14.847656-3.5 10.878906-21.523438 33.429687-34.605469 57.515625-33.363282zm0 0" fill="#0377bc"/><path d="m281.601562 185.515625v2.21875c0 9.050781-3.59375 17.734375-9.996093 24.136719-6.402344 6.402344-15.085938 10-24.140625 9.996094h-8.53125c-7.550782.03125-14.890625-2.496094-20.820313-7.167969 9.640625-15.789063 28.328125-32.425781 63.488281-29.183594zm0 0" fill="#0377bc"/><path d="m330.742188 162.132812c-4.121094 0-7.652344-2.953124-8.382813-7.007812-10.949219-60.214844-67.566406-103.925781-134.625-103.925781s-123.675781 43.710937-134.625 103.925781c-.96875 4.503906-5.335937 7.429688-9.871094 6.605469-4.535156-.824219-7.59375-5.097657-6.914062-9.65625 12.417969-68.339844 76.101562-117.941407 151.410156-117.941407s138.992187 49.601563 151.40625 117.941407c.410156 2.226562-.085937 4.523437-1.375 6.382812-1.289063 1.863281-3.261719 3.132813-5.492187 3.535157-.503907.097656-1.015626.144531-1.53125.140624zm0 0"/><path d="m358.398438 173.617188c-2.25.027343-4.417969-.84375-6.019532-2.421876-1.605468-1.582031-2.507812-3.734374-2.511718-5.988281v-.253906c0-81.542969-72.734376-147.886719-162.132813-147.886719-89.402344 0-162.132813 66.34375-162.132813 147.882813.011719 4.738281-3.796874 8.605469-8.535156 8.667969-2.25.027343-4.417968-.84375-6.023437-2.425782-1.601563-1.578125-2.507813-3.734375-2.507813-5.984375 0-91.207031 80.390625-165.207031 179.199219-165.207031s179.199219 74 179.199219 164.949219c.011718 4.742187-3.792969 8.605469-8.535156 8.667969zm0 0"/><path d="m162.132812 392.535156c-4.710937 0-8.53125-3.824218-8.53125-8.535156v-70.566406c0-4.710938 3.820313-8.535156 8.53125-8.535156 4.714844 0 8.535157 3.824218 8.535157 8.535156v70.566406c0 4.710938-3.820313 8.535156-8.535157 8.535156zm0 0"/><path d="m213.332031 392.535156c-4.710937 0-8.53125-3.824218-8.53125-8.535156v-70.566406c0-4.710938 3.820313-8.535156 8.53125-8.535156 4.714844 0 8.535157 3.824218 8.535157 8.535156v70.566406c0 4.710938-3.820313 8.535156-8.535157 8.535156zm0 0"/><path d="m341.332031 512h-307.199219c-14.132812-.015625-25.582031-11.46875-25.597656-25.601562v-25.597657c.070313-61.238281 49.695313-110.863281 110.929688-110.933593h42.667968c4.714844 0 8.535157 3.820312 8.535157 8.53125 0 4.714843-3.820313 8.535156-8.535157 8.535156h-42.667968c-51.816406.058594-93.804688 42.050781-93.863282 93.867187v25.597657c0 4.714843 3.820313 8.53125 8.53125 8.535156h307.199219c4.714844-.003906 8.53125-3.820313 8.535157-8.535156v-9.214844c0-4.710938 3.820312-8.53125 8.53125-8.53125 4.714843 0 8.535156 3.820312 8.535156 8.53125v9.214844c-.015625 14.132812-11.46875 25.585937-25.601563 25.601562zm0 0"/><path d="m299.851562 376.746094c-1.265624 0-2.511718-.28125-3.652343-.824219-12.558594-5.960937-26.296875-9.035156-40.199219-8.988281h-42.667969c-4.710937 0-8.53125-3.820313-8.53125-8.535156 0-4.710938 3.820313-8.53125 8.53125-8.53125h42.667969c16.433594-.046876 32.671875 3.589843 47.515625 10.640624 3.605469 1.714844 5.542969 5.695313 4.664063 9.589844-.878907 3.894532-4.339844 6.65625-8.332032 6.652344zm0 0"/><path d="m51.199219 264.535156h-8.53125c-23.554688-.03125-42.6406252-19.117187-42.667969-42.667968v-34.132813c.0273438-23.554687 19.113281-42.640625 42.667969-42.667969h8.53125c9.421875.011719 17.054687 7.648438 17.066406 17.066406v85.332032c-.011719 9.421875-7.644531 17.054687-17.066406 17.070312zm-8.53125-102.402344c-14.132813.015626-25.585938 11.46875-25.601563 25.601563v34.132813c.015625 14.132812 11.46875 25.582031 25.601563 25.597656h8.550781l-.019531-85.332032zm0 0"/><path d="m332.800781 264.535156h-8.535156c-9.417969-.015625-17.054687-7.648437-17.066406-17.070312v-85.332032c.011719-9.417968 7.648437-17.054687 17.066406-17.066406h8.535156c23.550781.027344 42.636719 19.113282 42.664063 42.667969v34.132813c-.027344 23.550781-19.113282 42.636718-42.664063 42.667968zm-8.535156-102.402344v85.332032h8.535156c14.132813-.015625 25.582031-11.464844 25.597657-25.597656v-34.132813c-.015626-14.132813-11.464844-25.585937-25.597657-25.601563zm0 0"/><path d="m221.867188 426.667969h-68.265626c-18.84375-.019531-34.117187-15.289063-34.136718-34.132813v-34.136718c0-4.710938 3.824218-8.53125 8.535156-8.53125s8.535156 3.820312 8.535156 8.53125v34.136718c.011719 9.417969 7.644532 17.050782 17.066406 17.066406h68.265626c9.417968-.015624 17.054687-7.648437 17.066406-17.066406v-34.136718c0-4.710938 3.820312-8.53125 8.53125-8.53125 4.714844 0 8.535156 3.820312 8.535156 8.53125v34.136718c-.019531 18.84375-15.289062 34.113282-34.132812 34.132813zm0 0"/><path d="m68.265625 512c-4.710937 0-8.53125-3.820312-8.53125-8.535156v-42.664063c0-4.714843 3.820313-8.535156 8.53125-8.535156 4.714844 0 8.535156 3.820313 8.535156 8.535156v42.664063c0 4.714844-3.820312 8.535156-8.535156 8.535156zm0 0"/><path d="m307.199219 512c-4.710938 0-8.53125-3.820312-8.53125-8.535156v-25.597656c0-4.714844 3.820312-8.535157 8.53125-8.535157 4.714843 0 8.535156 3.820313 8.535156 8.535157v25.597656c0 4.714844-3.820313 8.535156-8.535156 8.535156zm0 0"/><path d="m401.066406 494.933594c-61.265625 0-110.933594-49.667969-110.933594-110.933594s49.667969-110.933594 110.933594-110.933594 110.933594 49.667969 110.933594 110.933594c-.070312 61.238281-49.695312 110.863281-110.933594 110.933594zm0-204.800782c-51.839844 0-93.867187 42.027344-93.867187 93.867188s42.027343 93.867188 93.867187 93.867188 93.867188-42.027344 93.867188-93.867188c-.058594-51.816406-42.050782-93.808594-93.867188-93.867188zm0 0"/><path d="m332.800781 392.535156c-4.714843 0-8.535156-3.824218-8.535156-8.535156.046875-42.394531 34.40625-76.753906 76.800781-76.800781 4.714844 0 8.535156 3.820312 8.535156 8.535156 0 4.710937-3.820312 8.53125-8.535156 8.53125-32.972656.039063-59.691406 26.761719-59.734375 59.734375 0 4.710938-3.820312 8.535156-8.53125 8.535156zm0 0"/><path d="m401.066406 460.800781c-4.710937 0-8.53125-3.820312-8.53125-8.535156 0-4.710937 3.820313-8.53125 8.53125-8.53125 32.972656-.039063 59.695313-26.761719 59.734375-59.734375 0-4.710938 3.820313-8.535156 8.53125-8.535156 4.714844 0 8.535157 3.824218 8.535157 8.535156-.046876 42.394531-34.40625 76.753906-76.800782 76.800781zm0 0"/><path d="m401.066406 409.601562c-10.355468 0-19.6875-6.238281-23.652344-15.804687-3.960937-9.566406-1.769531-20.578125 5.550782-27.898437 7.320312-7.320313 18.332031-9.511719 27.898437-5.550782 9.566407 3.964844 15.804688 13.296875 15.804688 23.652344-.015625 14.132812-11.46875 25.585938-25.601563 25.601562zm0-34.136718c-4.710937 0-8.53125 3.824218-8.53125 8.535156s3.820313 8.535156 8.53125 8.535156c4.714844 0 8.535156-3.824218 8.535156-8.535156-.003906-4.710938-3.824218-8.53125-8.535156-8.535156zm0 0"/><path d="m49.484375 394.582031c-1.898437.003907-3.742187-.632812-5.234375-1.800781-27.824219-21.667969-35.289062-62.855469-17.75-97.929688 5.800781-12.335937 9.042969-25.71875 9.523438-39.339843.378906-4.617188 4.375-8.089844 9-7.824219 4.625.269531 8.191406 4.175781 8.035156 8.804688-.601563 15.941406-4.445313 31.589843-11.292969 45.996093-13.914063 27.832031-8.464844 60.140625 12.972656 76.832031 2.875 2.242188 4.011719 6.0625 2.824219 9.511719-1.183594 3.445313-4.429688 5.757813-8.074219 5.757813zm0 0"/><path d="m341.800781 308.625c-3.109375.023438-5.957031-1.730469-7.335937-4.515625l-.5-1.050781c-6.988282-14.570313-10.925782-30.417969-11.558594-46.566406-.128906-2.261719.640625-4.480469 2.148438-6.167969 1.503906-1.691407 3.621093-2.710938 5.878906-2.839844 4.671875-.1875 8.65625 3.359375 9.007812 8.019531.480469 13.625 3.722656 27.007813 9.523438 39.339844l.527344 1.117188c1.410156 2.683593 1.3125 5.914062-.265626 8.503906-1.574218 2.59375-4.394531 4.171875-7.425781 4.152344zm0 0"/><path d="m63.765625 178.261719c-.519531 0-1.039063-.046875-1.550781-.140625-4.632813-.855469-7.699219-5.300782-6.847656-9.933594l4.523437-24.660156c.917969-4.570313 5.324219-7.554688 9.90625-6.714844 4.582031.84375 7.640625 5.203125 6.875 9.796875l-4.523437 24.660156c-.738282 4.050781-4.265626 6.992188-8.382813 6.992188zm0 0"/><path d="m187.75 324.265625c-9.109375.015625-18.199219-.804687-27.160156-2.441406-52.230469-8.269531-94.339844-47.183594-106.707032-98.597657-.832031-3.753906-1.476562-7.542968-1.925781-11.359374-.480469-4.359376-.730469-8.742188-.738281-13.125-.019531-4.015626.195312-8.027344.648438-12.015626.25-3.019531.78125-6.316406 1.339843-9.625.667969-3.34375 1.460938-6.351562 2.25-9.351562.980469-4.214844 4.960938-7.027344 9.261719-6.546875 4.296875.484375 7.554688 4.113281 7.574219 8.4375v.085937c0 .734376-.09375 1.464844-.285157 2.175782-.742187 2.816406-1.457031 5.515625-2.015624 8.300781-.425782 2.574219-.910157 5.40625-1.148438 8.25-.390625 3.414063-.574219 6.851563-.558594 10.289063.007813 3.742187.21875 7.480468.632813 11.199218.382812 3.207032.929687 6.429688 1.640625 9.660156 10.921875 44.691407 47.683594 78.410157 93.148437 85.441407 15.902344 2.867187 32.191407 2.867187 48.09375 0 45.316407-7.082031 81.996094-40.59375 93.140625-85.085938.699219-3.28125 1.25-6.699219 1.648438-10.097656.40625-3.691406.613281-7.402344.628906-11.117187.015625-3.339844-.164062-6.679688-.542969-10-.269531-3.132813-.75-5.96875-1.226562-8.808594-.414063-1.992188-.964844-4.285156-1.597657-6.566406-5.242187-11.351563-12.058593-21.90625-20.242187-31.359376-2.050781-2.324218-2.679687-5.582031-1.640625-8.503906s3.582031-5.050781 6.640625-5.558594c3.058594-.507812 6.15625.683594 8.082031 3.113282 9.699219 11.234375 17.632813 23.878906 23.535156 37.5.808594 2.925781 1.457032 5.582031 2 8.242187.613282 3.609375 1.148438 6.90625 1.421876 10.214844.445312 3.894531.65625 7.808594.636718 11.726563-.015625 4.347656-.261718 8.691406-.734375 13.015624-.476562 4.035157-1.109375 7.96875-1.933593 11.808594-12.585938 51.222656-54.617188 89.929688-106.699219 98.257813-8.964844 1.636719-18.058594 2.453125-27.167969 2.441406zm0 0"/><path d="m68.273438 153.601562c-4.308594-.011718-7.933594-3.230468-8.453126-7.511718-.515624-4.277344 2.238282-8.269532 6.421876-9.304688 66.949218-16.511718 78.726562-52.367187 79.199218-53.886718.992188-3.253907 3.820313-5.613282 7.203125-6.003907 3.378907-.390625 6.671875 1.261719 8.378907 4.207031 1.292968 2.207032 33.117187 54.796876 128.417968 46.933594 2.261719-.230468 4.519532.472656 6.257813 1.941406 1.734375 1.46875 2.800781 3.578126 2.949219 5.847657.191406 2.253906-.523438 4.492187-1.984376 6.21875-1.464843 1.730469-3.550781 2.804687-5.804687 2.992187-78.902344 6.640625-119.46875-25.570312-135.800781-43.761718-9.917969 15.21875-33.160156 39.359374-84.738282 52.078124-.667968.167969-1.355468.25-2.046874.25zm0 0"/><path d="m187.734375 512c-4.714844 0-8.535156-3.820312-8.535156-8.535156v-17.066406c0-4.710938 3.820312-8.53125 8.535156-8.53125 4.710937 0 8.53125 3.820312 8.53125 8.53125v17.066406c0 4.714844-3.820313 8.535156-8.53125 8.535156zm0 0"/><path d="m136.535156 221.867188h-8.535156c-23.550781-.027344-42.640625-19.113282-42.667969-42.667969v-8.53125c.015625-9.421875 7.648438-17.054688 17.066407-17.066407h59.734374c9.421876.011719 17.054688 7.644532 17.066407 17.066407v8.53125c-.027344 23.554687-19.113281 42.640625-42.664063 42.667969zm-34.136718-51.199219v8.53125c.015624 14.132812 11.46875 25.585937 25.601562 25.601562h8.535156c14.128906-.015625 25.582032-11.46875 25.597656-25.601562v-8.53125zm0 0"/><path d="m247.464844 221.867188h-8.53125c-23.554688-.027344-42.640625-19.113282-42.667969-42.667969v-8.53125c.015625-9.421875 7.648437-17.054688 17.066406-17.066407h59.734375c9.421875.011719 17.054688 7.644532 17.066406 17.066407v8.53125c-.027343 23.554687-19.113281 42.640625-42.667968 42.667969zm-34.132813-51.199219v8.53125c.015625 14.132812 11.46875 25.585937 25.601563 25.601562h8.53125c14.132812-.015625 25.585937-11.46875 25.601562-25.601562v-8.53125zm0 0"/><path d="m206.699219 173.984375c-2.113281.003906-4.148438-.78125-5.714844-2.199219-7.378906-7.058594-19-7.058594-26.375 0-2.253906 2.097656-5.464844 2.820313-8.402344 1.886719-2.933593-.933594-5.140625-3.375-5.769531-6.390625s.417969-6.136719 2.734375-8.164062c13.863281-12.949219 35.382813-12.949219 49.242187 0 2.621094 2.367187 3.515626 6.101562 2.246094 9.394531-1.265625 3.296875-4.433594 5.472656-7.960937 5.472656zm0 0"/><path d="m60.5 186.539062c-4.121094.003907-7.660156-2.941406-8.402344-6.996093-.746094-4.058594 1.519532-8.066407 5.378906-9.519531l36.265626-13.742188c2.855468-1.078125 6.066406-.554688 8.425781 1.375 2.363281 1.929688 3.515625 4.972656 3.027343 7.980469-.492187 3.011719-2.550781 5.53125-5.402343 6.613281l-36.265625 13.738281c-.96875.363281-1.992188.550781-3.027344.550781zm0 0"/><path d="m314.964844 186.539062c-1.03125 0-2.058594-.1875-3.023438-.550781l-36.269531-13.738281c-2.851563-1.082031-4.910156-3.601562-5.398437-6.609375-.492188-3.011719.660156-6.054687 3.023437-7.984375s5.574219-2.453125 8.425781-1.371094l36.265625 13.738282c3.859375 1.457031 6.121094 5.460937 5.378907 9.519531-.742188 4.054687-4.277344 7-8.402344 6.996093zm0 0"/></svg>