<svg height="512pt" viewBox="0 0 512 512.01255" width="512pt" xmlns="http://www.w3.org/2000/svg"><path d="m349.875 435.210938v68.269531h-324.269531c-9.414063-.027344-17.039063-7.652344-17.066407-17.066407v-51.203124c.035157-47.207032 32.308594-88.285157 78.167969-99.496094.066407-.066406.160157-.097656.253907-.085938l52.394531-2.816406h79.703125l76.117187 11.777344c33.628907 17.722656 54.683594 52.609375 54.699219 90.621094zm0 0" fill="#283593"/><path d="m326.234375 435.210938v68.269531h-300.628906c-9.414063-.027344-17.039063-7.652344-17.066407-17.066407v-51.203124c.035157-47.207032 32.308594-88.285157 78.167969-99.496094.066407-.066406.160157-.097656.253907-.085938l52.394531-2.816406h56.0625l76.121093 11.777344c33.628907 17.722656 54.683594 52.609375 54.695313 90.621094zm0 0" fill="#3f51b5"/><path d="m208.644531 429.410156c-7.785156 8.136719-18.230469 13.222656-29.4375 14.335938-11.210937-1.113282-21.652343-6.199219-29.441406-14.335938l29.441406-36.863281zm0 0" fill="#7f8e94"/><path d="m219.058594 332.8125-14.253906 21.332031-25.597657 38.402344-25.601562-38.402344-14.25-21.332031zm0 0" fill="#bdc3c7"/><path d="m204.804688 287.84375v66.300781l-25.597657 38.402344-25.601562-38.402344v-66.300781zm0 0" fill="#ffe0b2"/><path d="m179.207031 392.546875-29.441406 36.863281c-29.523437-26.28125-56.746094-80.640625-63.058594-93.695312-.597656-1.28125-1.027343-2.132813-1.195312-2.5625-.035157-.121094-.09375-.238282-.171875-.339844l36.265625-14.507812c3.75-1.484376 8.03125-.132813 10.242187 3.242187l7.507813 11.265625 14.25 21.332031zm0 0" fill="#f5f5f5"/><path d="m273.074219 332.8125c-.082031.101562-.140625.21875-.171875.339844-.171875.429687-.597656 1.28125-1.195313 2.5625-6.3125 13.054687-33.535156 67.414062-63.0625 93.695312l-29.4375-36.863281 25.597657-38.402344 14.253906-21.332031 7.507812-11.265625c2.210938-3.375 6.488282-4.726563 10.238282-3.242187zm0 0" fill="#f5f5f5"/><path d="m324.273438 149.347656c0 1.363282 0 15.613282-.085938 17.066406h-289.960938c-.085937-1.453124-.085937-15.703124-.085937-17.066406.984375-74.363281 58.996094-135.457031 133.203125-140.289062 3.925781-.34375 7.851562-.511719 11.863281-.511719 78.929688-1.15625 143.867188 61.867187 145.066407 140.800781zm0 0" fill="#707070"/><path d="m300.636719 149.347656c0 1.363282 0 15.613282-.085938 17.066406h-266.324219c-.085937-1.453124-.085937-15.703124-.085937-17.066406.984375-74.363281 58.996094-135.457031 133.203125-140.289062 74.242188 4.792968 132.300781 65.898437 133.292969 140.289062zm0 0" fill="#9e9e9e"/><path d="m306.609375 162.144531h17.664063c9.398437.070313 17 7.671875 17.066406 17.066407-.027344 9.414062-7.652344 17.039062-17.066406 17.066406h-290.132813c-9.414063-.027344-17.039063-7.652344-17.066406-17.066406.066406-9.394532 7.667969-16.996094 17.066406-17.066407zm0 0" fill="#dfc49c"/><path d="m307.207031 173.152344c-.011719 4.050781-.242187 8.09375-.683593 12.117187-6.65625 58.96875-61.097657 104.875-127.316407 104.875-3.925781 0-7.851562-.167969-11.777343-.511719-60.757813-5.035156-109.3125-48.894531-115.539063-104.363281-1.214844-10.777343-.8125-21.679687 1.191406-32.339843.769531-3.753907 1.707031-7.507813 2.816407-11.179688 9.132812-20.90625 31.660156-63.058594 67.585937-70.996094 15.027344-2.960937 30.617187-.351562 43.859375 7.339844h.085938c4.070312 2.171875 8.003906 4.597656 11.777343 7.253906 9.5625-7.046875 20.488281-12.019531 32.085938-14.59375 49.832031-10.238281 80.296875 45.824219 91.21875 70.996094 1.109375 3.671875 2.050781 7.425781 2.816406 11.179688 1.234375 6.671874 1.863281 13.441406 1.878906 20.222656zm0 0" fill="#dfc49c"/><path d="m283.570312 173.152344c-.011718 4.050781-.242187 8.09375-.683593 12.117187-6.230469 55.382813-54.699219 99.328125-115.457031 104.363281-60.757813-5.035156-109.3125-48.894531-115.539063-104.363281-1.214844-10.777343-.8125-21.679687 1.191406-32.339843.769531-3.753907 1.707031-7.507813 2.816407-11.179688 9.132812-20.90625 31.660156-63.058594 67.585937-70.996094 11.59375 2.574219 22.523437 7.546875 32.085937 14.59375 3.773438-2.65625 7.703126-5.082031 11.773438-7.253906h.085938c4.070312 2.171875 8.003906 4.597656 11.777343 7.253906 9.5625-7.046875 20.488281-12.019531 32.085938-14.59375 36.007812 7.9375 58.453125 50.089844 67.582031 70.996094 1.109375 3.671875 2.046875 7.425781 2.816406 11.179688 1.234375 6.671874 1.859375 13.441406 1.878906 20.222656zm0 0" fill="#ffe0b2"/><path d="m162.140625 162.144531c0 9.054688-3.59375 17.738281-9.996094 24.140625-6.402343 6.402344-15.085937 9.996094-24.136719 9.992188-6.824218.039062-13.496093-2.015625-19.117187-5.886719-11.910156-8.015625-17.519531-22.632813-14.035156-36.558594 3.484375-13.929687 15.320312-24.179687 29.601562-25.644531 14.28125-1.460938 27.949219 6.179688 34.183594 19.109375 2.347656 4.597656 3.546875 9.691406 3.5 14.847656zm0 0" fill="#02a9f4"/><path d="m264.539062 162.144531c.003907 9.054688-3.59375 17.738281-9.992187 24.140625-6.402344 6.402344-15.085937 9.996094-24.140625 9.992188-18.808594-.101563-34.027344-15.324219-34.132812-34.132813-.015626-15.929687 11-29.746093 26.53125-33.28125 15.53125-3.535156 31.441406 4.152344 38.320312 18.519531 2.269531 4.589844 3.441406 9.644532 3.414062 14.761719zm0 0" fill="#02a9f4"/><path d="m162.140625 162.144531c0 9.054688-3.59375 17.738281-9.996094 24.140625-6.402343 6.402344-15.085937 9.996094-24.136719 9.992188-6.824218.039062-13.496093-2.015625-19.117187-5.886719 3.671875-17.066406 15.191406-39.167969 49.75-43.09375 2.347656 4.597656 3.546875 9.691406 3.5 14.847656zm0 0" fill="#0377bc"/><path d="m264.539062 162.144531c.003907 9.054688-3.59375 17.738281-9.992187 24.140625-6.402344 6.402344-15.085937 9.996094-24.140625 9.992188-6.582031.011718-13.023438-1.917969-18.515625-5.542969 4.285156-24.167969 24.71875-42.160156 49.234375-43.351563 2.269531 4.589844 3.441406 9.644532 3.414062 14.761719zm0 0" fill="#0377bc"/><path d="m288.433594 428.386719h-13.652344c-15.078125-.015625-27.292969-12.234375-27.308594-27.308594v-20.480469c0-3.769531 3.058594-6.824218 6.828125-6.824218h54.613281c3.769532 0 6.824219 3.054687 6.824219 6.824218v20.480469c-.011719 15.074219-12.230469 27.292969-27.304687 27.308594zm0 0" fill="#ffeb3a"/><path d="m496.644531 324.277344h-54.613281c-3.640625-.09375-6.6875 2.757812-6.824219 6.402344v19.199218c.371094 12.699219 9.789063 23.304688 22.355469 25.171875 1.636719.273438 3.292969.417969 4.949219.429688h13.65625c14.585937.410156 26.777343-11.015625 27.304687-25.601563v-19.199218c-.136718-3.644532-3.183594-6.496094-6.828125-6.402344zm0 0" fill="#fdd834"/><path d="m473.007812 324.277344h-30.976562c-3.640625-.09375-6.6875 2.757812-6.824219 6.402344v19.199218c.371094 12.699219 9.789063 23.304688 22.355469 25.171875 12.535156-1.902343 21.910156-12.5 22.273438-25.171875v-19.199218c-.140626-3.644532-3.183594-6.496094-6.828126-6.402344zm0 0" fill="#ffeb3a"/><path d="m409.605469 307.210938c0 18.851562-15.28125 34.136718-34.132813 34.136718-18.851562 0-34.132812-15.285156-34.132812-34.136718 0-18.851563 15.28125-34.132813 34.132812-34.132813 18.851563 0 34.132813 15.28125 34.132813 34.132813zm0 0" fill="#ffdc00"/><path d="m358.40625 469.347656h34.132812c18.851563 0 34.132813 15.28125 34.132813 34.132813h-102.398437c0-18.851563 15.28125-34.132813 34.132812-34.132813zm0 0" fill="#ffdc00"/><path d="m179.207031 298.679688c-70.175781 0-128.558593-48.359376-135.800781-112.476563-.476562-4.339844-.722656-8.699219-.734375-13.066406.019531-7.277344.691406-14.542969 2.019531-21.699219.808594-4.105469 1.828125-8.171875 3.046875-12.175781 1.472657-4.382813 6.164063-6.796875 10.585938-5.449219 4.421875 1.351562 6.960937 5.976562 5.734375 10.433594-1.027344 3.367187-1.902344 6.882812-2.609375 10.417968-1.121094 6.09375-1.695313 12.277344-1.710938 18.472657.011719 3.742187.222657 7.480469.632813 11.199219 6.261718 55.433593 57.351562 97.277343 118.835937 97.277343s112.574219-41.84375 118.832031-97.324219c.414063-3.703124.625-7.425781.632813-11.152343-.019531-6.25-.597656-12.484375-1.730469-18.632813-.683594-3.375-1.558594-6.890625-2.585937-10.257812-.984375-2.945313-.296875-6.191406 1.800781-8.476563 2.097656-2.289062 5.269531-3.257812 8.289062-2.53125 3.015626.726563 5.402344 3.03125 6.226563 6.023438 1.167969 3.792969 2.183594 7.84375 3.027344 12.019531 2.171875 11.492188 2.613281 23.246094 1.308593 34.875-7.242187 64.164062-65.625 112.523438-135.800781 112.523438zm0 0"/><path d="m51.890625 204.8125h-17.75c-14.132813-.015625-25.585937-11.46875-25.601563-25.601562.066407-14.109376 11.488282-25.53125 25.601563-25.597657h17.664063c4.710937 0 8.53125 3.820313 8.53125 8.53125 0 4.714844-3.820313 8.535157-8.53125 8.535157h-17.578126c-2.253906-.039063-4.421874.847656-6.003906 2.449218-1.671875 1.578125-2.621094 3.78125-2.617187 6.082032.003906 4.714843 3.824219 8.53125 8.535156 8.535156h17.75c4.710937 0 8.53125 3.820312 8.53125 8.53125 0 4.714844-3.820313 8.535156-8.53125 8.535156zm0 0"/><path d="m324.273438 204.8125h-17.75c-4.710938 0-8.53125-3.820312-8.53125-8.535156 0-4.710938 3.820312-8.53125 8.53125-8.53125h17.75c4.710937-.003906 8.53125-3.820313 8.53125-8.535156.023437-2.222657-.863282-4.359376-2.449219-5.914063-1.578125-1.675781-3.78125-2.621094-6.082031-2.617187h-17.664063c-4.714844 0-8.535156-3.820313-8.535156-8.535157 0-4.710937 3.820312-8.53125 8.535156-8.53125h17.578125c14.144531.019531 25.621094 11.453125 25.6875 25.597657-.015625 14.132812-11.46875 25.585937-25.601562 25.601562zm0 0"/><path d="m324.199219 170.679688c-.171875 0-.335938-.007813-.5-.015626-4.699219-.273437-8.289063-4.300781-8.023438-9 .074219-1.601562.0625-11.019531.0625-12.316406-1.277343-74.183594-62.34375-133.34375-136.53125-132.269531-74.1875-1.074219-135.253906 58.085937-136.535156 132.269531 0 1.304688-.007813 10.730469.066406 12.324219.140625 4.621094-3.425781 8.515625-8.042969 8.777344-4.621093.261719-8.605468-3.203125-8.988281-7.8125-.09375-1.507813-.101562-11.875-.101562-13.289063 1.292969-83.605468 69.992187-150.398437 153.601562-149.3359372 83.605469-1.0624998 152.308594 65.7304692 153.597657 149.3359372 0 1.414063-.007813 11.78125-.097657 13.289063-.261719 4.511719-3.992187 8.035156-8.507812 8.042969zm0 0"/><path d="m55.898438 150.328125c-2.257813.011719-4.429688-.878906-6.03125-2.472656-1.601563-1.59375-2.5-3.757813-2.5-6.019531 0-1.195313.238281-2.378907.707031-3.480469 10.242187-23.542969 32.933593-64.585938 69.867187-75 21.140625-6 43.398438-.917969 66.15625 15 3.789063 2.726562 4.683594 7.992187 2.007813 11.816406s-7.929688 4.789063-11.789063 2.164063c-18.34375-12.832032-35.730468-17.058594-51.742187-12.554688-31.136719 8.78125-51.371094 48.273438-58.742188 65.132812-1.285156 3.257813-4.429687 5.40625-7.933593 5.414063zm0 0"/><path d="m302.511719 150.328125c-3.65625.011719-6.914063-2.316406-8.089844-5.78125-7.5-17.066406-27.675781-56.050781-58.582031-64.769531-16-4.507813-33.402344-.28125-51.742188 12.558594-2.496094 1.796874-5.769531 2.113281-8.5625.824218-2.792968-1.289062-4.679687-3.980468-4.929687-7.046875-.253907-3.066406 1.164062-6.03125 3.707031-7.761719 22.757812-15.90625 44.992188-20.980468 66.160156-15 36.933594 10.417969 59.625 51.457032 69.867188 75 1.144531 2.644532.886718 5.683594-.6875 8.097657-1.578125 2.410156-4.257813 3.867187-7.140625 3.878906zm0 0"/><path d="m153.605469 362.679688c-4.710938 0-8.53125-3.820313-8.53125-8.535157v-66.300781c0-4.714844 3.820312-8.535156 8.53125-8.535156 4.714843 0 8.535156 3.820312 8.535156 8.535156v66.300781c0 4.714844-3.820313 8.535157-8.535156 8.535157zm0 0"/><path d="m204.804688 362.679688c-4.710938 0-8.53125-3.820313-8.53125-8.535157v-66.300781c0-4.714844 3.820312-8.535156 8.53125-8.535156 4.714843 0 8.535156 3.820312 8.535156 8.535156v66.300781c0 4.714844-3.820313 8.535157-8.535156 8.535157zm0 0"/><path d="m153.605469 341.347656h-14.25c-4.710938 0-8.53125-3.824218-8.53125-8.535156s3.820312-8.535156 8.53125-8.535156h14.25c4.714843 0 8.535156 3.824218 8.535156 8.535156s-3.820313 8.535156-8.535156 8.535156zm0 0"/><path d="m219.058594 341.347656h-14.253906c-4.710938 0-8.53125-3.824218-8.53125-8.535156s3.820312-8.535156 8.53125-8.535156h14.253906c4.710937 0 8.53125 3.824218 8.53125 8.535156s-3.820313 8.535156-8.53125 8.535156zm0 0"/><path d="m332.804688 512.011719h-307.199219c-14.132813-.015625-25.5820315-11.46875-25.5976565-25.597657v-51.203124c-.0976563-51.074219 34.7695315-95.582032 84.3828125-107.714844 4.503906-1.390625 9.28125 1.132812 10.671875 5.636718 1.390625 4.503907-1.132812 9.28125-5.636719 10.671876-.226562.074218-.460937.140624-.691406.199218-42.105469 10.171875-71.742187 47.890625-71.660156 91.207032v51.203124c0 4.710938 3.820312 8.527344 8.53125 8.53125h307.199219c4.714843 0 8.535156 3.820313 8.535156 8.535157 0 4.710937-3.820313 8.53125-8.535156 8.53125zm0 0"/><path d="m273.679688 344.757812c-.714844.003907-1.429688-.085937-2.121094-.265624l-1.964844-.515626c-.207031-.050781-.410156-.109374-.609375-.171874-3.597656-1.09375-6.058594-4.414063-6.066406-8.175782.050781-2.714844 1.371093-5.25 3.570312-6.84375s5.019531-2.058594 7.613281-1.261718l1.691407.441406c4.15625 1.074218 6.867187 5.070312 6.328125 9.328125-.535156 4.257812-4.148438 7.453125-8.441406 7.464843zm0 0"/><path d="m349.875 478.988281c-4.714844 0-8.535156-3.820312-8.535156-8.53125v-35.246093c-.011719-34.855469-19.324219-66.839844-50.167969-83.082032-4.164063-2.207031-5.75-7.375-3.539063-11.542968 2.207032-4.164063 7.375-5.75 11.539063-3.539063 36.429687 19.199219 59.230469 56.988281 59.234375 98.164063v35.246093c0 4.710938-3.820312 8.53125-8.53125 8.53125zm0 0"/><path d="m128.007812 204.8125c-23.566406 0-42.667968-19.101562-42.667968-42.667969 0-23.5625 19.101562-42.664062 42.667968-42.664062 23.5625 0 42.664063 19.101562 42.664063 42.664062-.027344 23.554688-19.113281 42.640625-42.664063 42.667969zm0-68.265625c-14.140624 0-25.601562 11.460937-25.601562 25.597656 0 14.140625 11.460938 25.601563 25.601562 25.601563 14.136719 0 25.597657-11.460938 25.597657-25.601563-.015625-14.128906-11.46875-25.582031-25.597657-25.597656zm0 0"/><path d="m230.40625 204.8125c-23.5625 0-42.667969-19.101562-42.667969-42.667969 0-23.5625 19.105469-42.664062 42.667969-42.664062s42.667969 19.101562 42.667969 42.664062c-.027344 23.554688-19.113281 42.640625-42.667969 42.667969zm0-68.265625c-14.136719 0-25.601562 11.460937-25.601562 25.597656 0 14.140625 11.464843 25.601563 25.601562 25.601563 14.140625 0 25.601562-11.460938 25.601562-25.601563-.015624-14.128906-11.46875-25.582031-25.601562-25.597656zm0 0"/><path d="m51.214844 179.210938c-3.960938.007812-7.402344-2.714844-8.3125-6.566407-.914063-3.855469.945312-7.828125 4.488281-9.597656 14.726563-6.15625 30.519531-9.363281 46.484375-9.433594 4.710938-.003906 8.535156 3.816407 8.535156 8.527344.003906 4.714844-3.816406 8.535156-8.527344 8.539063-13.316406.082031-26.5 2.671874-38.859374 7.632812-1.183594.589844-2.488282.898438-3.808594.898438zm0 0"/><path d="m307.199219 179.210938c-1.324219 0-2.628907-.308594-3.808594-.898438-12.359375-4.960938-25.542969-7.550781-38.859375-7.632812-4.710938-.003907-8.53125-3.824219-8.527344-8.539063 0-4.710937 3.824219-8.53125 8.535156-8.527344 15.964844.070313 31.757813 3.277344 46.484376 9.433594 3.542968 1.769531 5.402343 5.742187 4.488281 9.597656-.910157 3.851563-4.355469 6.574219-8.3125 6.566407zm0 0"/><path d="m196.273438 170.679688c-2.265626.003906-4.433594-.898438-6.035157-2.5-2.980469-3.082032-6.828125-5.1875-11.03125-6.035157-4.214843.851563-8.070312 2.964844-11.058593 6.058594-3.351563 3.242187-8.6875 3.191406-11.976563-.113281-3.289063-3.304688-3.320313-8.636719-.066406-11.976563 6.167969-6.273437 14.34375-10.179687 23.101562-11.035156 8.753907.855469 16.933594 4.761719 23.097657 11.035156 2.441406 2.441407 3.171874 6.109375 1.851562 9.296875s-4.433594 5.269532-7.882812 5.269532zm0 0"/><path d="m149.757812 437.941406c-3.277343-.003906-6.261718-1.882812-7.679687-4.835937-1.421875-2.953125-1.023437-6.460938 1.023437-9.019531l25.546876-31.992188-43.898438-65.816406-29.617188 11.816406c-.980468 3.242188-3.785156 5.597656-7.148437 6-3.363281.40625-6.644531-1.214844-8.367187-4.132812l-1.460938-2.476563c-.144531-.242187-.28125-.496094-.398438-.757813-1.101562-2.136718-1.253906-4.644531-.410156-6.898437.839844-2.253906 2.59375-4.050781 4.828125-4.941406l36.265625-14.507813c7.53125-3.023437 16.144532-.292968 20.558594 6.515625l47.308594 70.917969c2.058594 3.089844 1.882812 7.15625-.433594 10.058594l-29.441406 36.863281c-1.621094 2.03125-4.078125 3.214844-6.675782 3.207031zm0 0"/><path d="m208.65625 437.941406c-2.597656.007813-5.054688-1.175781-6.675781-3.207031l-29.4375-36.863281c-2.320313-2.902344-2.496094-6.96875-.433594-10.058594l47.359375-70.996094c4.402344-6.734375 12.9375-9.441406 20.414062-6.46875l36.359376 14.542969c2.234374.894531 3.988281 2.6875 4.828124 4.941406.839844 2.257813.691407 4.761719-.410156 6.898438-.121094.261719-.253906.515625-.402344.761719l-1.457031 2.472656c-1.722656 2.921875-5.011719 4.546875-8.375 4.140625-3.367187-.40625-6.175781-2.769531-7.148437-6.019531l-29.636719-11.859376-43.875 65.867188 25.550781 31.992188c2.046875 2.558593 2.441406 6.066406 1.023438 9.019531-1.417969 2.953125-4.402344 4.832031-7.679688 4.835937zm0 0"/><path d="m264.367188 358.667969c-2.992188-.003907-5.769532-1.574219-7.308594-4.144531-1.539063-2.566407-1.621094-5.753907-.214844-8.398438 3.34375-6.273438 5.765625-11.207031 7.191406-14.140625l1-2.117187c.496094-1.132813 1.175782-2.179688 2.007813-3.09375 2.996093-3 7.738281-3.351563 11.140625-.820313 3.398437 2.53125 4.425781 7.175781 2.410156 10.90625-.191406.441406-.382812.851563-.609375 1.324219l-.546875 1.15625c-1.527344 3.144531-4.050781 8.277344-7.527344 14.800781-1.480468 2.789063-4.382812 4.53125-7.542968 4.527344zm0 0"/><path d="m179.207031 452.277344c-40.984375 0-83.710937-78.914063-100.175781-112.839844-.839844-1.832031-1.308594-2.773438-1.339844-2.832031-2.09375-4.222657-.371094-9.34375 3.851563-11.4375 4.222656-2.09375 9.34375-.371094 11.4375 3.851562 0 0 .558593 1.109375 1.484375 3.144531 24.859375 51.207032 60.761718 103.046876 84.742187 103.046876 9.105469-1.160157 17.519531-5.46875 23.78125-12.179688 14.523438-14.109375 27.046875-30.132812 37.230469-47.628906 1.613281-2.589844 4.484375-4.125 7.53125-4.027344 3.050781.101562 5.816406 1.820312 7.253906 4.511719 1.4375 2.6875 1.332032 5.941406-.277344 8.535156-11.046874 18.886719-24.640624 36.167969-40.390624 51.355469-9.273438 9.648437-21.785157 15.523437-35.128907 16.5zm0 0"/><path d="m290.140625 435.210938h-17.066406c-18.84375-.015626-34.117188-15.289063-34.132813-34.132813v-25.597656c0-4.714844 3.820313-8.535157 8.53125-8.535157h68.265625c4.714844 0 8.535157 3.820313 8.535157 8.535157v25.597656c-.019532 18.84375-15.289063 34.117187-34.132813 34.132813zm-34.132813-51.199219v17.066406c.011719 9.421875 7.644532 17.054687 17.066407 17.066406h17.066406c9.417969-.011719 17.054687-7.644531 17.066406-17.066406v-17.066406zm0 0"/><path d="m315.75 384.011719c-2.859375.007812-5.527344-1.421875-7.109375-3.800781l-27.035156-40.546876-27.03125 40.546876c-1.679688 2.570312-4.605469 4.039062-7.667969 3.851562s-5.785156-2.007812-7.136719-4.757812c-1.351562-2.753907-1.121093-6.023438.605469-8.558594l34.132812-51.199219c1.671876-2.242187 4.300782-3.5625 7.097657-3.5625s5.429687 1.320313 7.101562 3.5625l34.132813 51.199219c1.746094 2.617187 1.90625 5.980468.425781 8.753906-1.484375 2.777344-4.371094 4.507812-7.515625 4.511719zm0 0"/><path d="m477.875 384.011719h-17.070312c-18.84375-.015625-34.113282-15.289063-34.132813-34.132813v-25.601562c0-4.710938 3.820313-8.53125 8.535156-8.53125h68.265625c4.714844 0 8.535156 3.820312 8.535156 8.53125v25.601562c-.019531 18.84375-15.289062 34.117188-34.132812 34.132813zm-34.136719-51.199219v17.066406c.015625 9.421875 7.648438 17.054688 17.066407 17.066406h17.070312c9.417969-.011718 17.050781-7.644531 17.066406-17.066406v-17.066406zm0 0"/><path d="m503.480469 332.8125c-2.855469.003906-5.523438-1.421875-7.105469-3.800781l-27.035156-40.550781-27.035156 40.550781c-1.675782 2.570312-4.601563 4.039062-7.664063 3.851562-3.0625-.191406-5.789063-2.007812-7.136719-4.761719-1.351562-2.753906-1.121094-6.019531.601563-8.554687l34.132812-51.199219c1.671875-2.242187 4.304688-3.5625 7.101563-3.5625s5.429687 1.320313 7.101562 3.5625l34.132813 51.199219c1.742187 2.617187 1.90625 5.980469.425781 8.753906-1.484375 2.773438-4.371094 4.507813-7.519531 4.511719zm0 0"/><path d="m396.714844 301.410156c-4.273438-.003906-7.882813-3.171875-8.449219-7.40625-.5625-4.234375 2.09375-8.238281 6.214844-9.359375l72.621093-19.796875c4.546876-1.238281 9.238282 1.445313 10.476563 5.992188 1.234375 4.546875-1.445313 9.238281-5.996094 10.476562l-72.617187 19.796875c-.734375.199219-1.488282.300781-2.25.296875zm0 0"/><path d="m281.597656 332.8125c-4.273437 0-7.890625-3.164062-8.457031-7.402344-.566406-4.238281 2.089844-8.238281 6.214844-9.363281l68.351562-18.6875c4.550781-1.242187 9.242188 1.4375 10.484375 5.984375 1.242188 4.546875-1.4375 9.242188-5.984375 10.484375l-68.351562 18.6875c-.734375.195313-1.496094.296875-2.257813.296875zm0 0"/><path d="m375.472656 341.347656c-18.851562 0-34.132812-15.285156-34.132812-34.136718 0-18.851563 15.28125-34.132813 34.132812-34.132813 18.851563 0 34.132813 15.28125 34.132813 34.132813-.015625 18.84375-15.289063 34.117187-34.132813 34.136718zm0-51.203125c-9.425781 0-17.066406 7.640625-17.066406 17.066407 0 9.425781 7.640625 17.066406 17.066406 17.066406 9.425782 0 17.066406-7.640625 17.066406-17.066406-.011718-9.417969-7.644531-17.050782-17.066406-17.066407zm0 0"/><path d="m426.671875 512.011719h-102.398437c-4.714844 0-8.535157-3.820313-8.535157-8.53125.027344-23.554688 19.117188-42.640625 42.667969-42.667969h34.132812c23.554688.027344 42.640626 19.113281 42.667969 42.667969 0 4.710937-3.820312 8.53125-8.535156 8.53125zm-92.40625-17.066407h82.414063c-3.628907-10.21875-13.292969-17.050781-24.140626-17.066406h-34.132812c-10.84375.015625-20.511719 6.847656-24.140625 17.066406zm0 0"/><path d="m375.472656 477.878906c-4.710937 0-8.53125-3.820312-8.53125-8.53125v-136.535156c0-4.710938 3.820313-8.535156 8.53125-8.535156 4.714844 0 8.535156 3.824218 8.535156 8.535156v136.535156c0 4.710938-3.820312 8.53125-8.535156 8.53125zm0 0"/><path d="m375.472656 290.144531c-4.710937 0-8.53125-3.820312-8.53125-8.53125v-17.066406c0-4.714844 3.820313-8.535156 8.53125-8.535156 4.714844 0 8.535156 3.820312 8.535156 8.535156v17.066406c0 4.710938-3.820312 8.53125-8.535156 8.53125zm0 0"/></svg>