<svg height="512pt" viewBox="0 0 512 512.01259" width="512pt" xmlns="http://www.w3.org/2000/svg"><path d="m317.53125 360.375h-276.480469c-25.429687-19.796875-30.546875-57.003906-15.359375-87.382812 17.066406-34.132813 8.535156-76.796876 8.535156-76.796876v-16.984374h290.132813v16.984374s-8.535156 42.664063 8.53125 76.796876c15.191406 30.378906 10.070313 67.585937-15.359375 87.382812zm0 0" fill="#545c60"/><path d="m293.894531 360.375h-252.84375c-25.429687-19.796875-30.546875-57.003906-15.359375-87.382812 17.066406-34.132813 8.535156-76.796876 8.535156-76.796876v-16.984374h266.496094v16.984374s-8.535156 42.664063 8.53125 76.796876c15.191406 30.378906 10.070313 67.585937-15.359375 87.382812zm0 0" fill="#7f8e94"/><path d="m324.273438 162.0625.085937 17.148438h-290.132813l.082032-17.148438c-.082032-1.453125-.082032-11.4375-.082032-12.800781.992188-74.390625 59.046876-135.496094 133.289063-140.289063 3.839844-.339844 7.851563-.511718 11.777344-.511718 78.929687-1.15625 143.863281 61.871093 145.066406 140.800781 0 1.363281 0 11.347656-.085937 12.800781zm0 0" fill="#707070"/><path d="m300.636719 162.0625.085937 17.148438h-266.496094l.082032-17.148438c-.082032-1.453125-.082032-11.4375-.082032-12.800781.992188-74.390625 59.046876-135.496094 133.289063-140.289063 74.210937 4.832032 132.222656 65.925782 133.207031 140.289063 0 1.363281 0 11.347656-.085937 12.800781zm0 0" fill="#9e9e9e"/><path d="m306.609375 162.144531h17.664063c9.398437.070313 17 7.671875 17.066406 17.066407-.027344 9.414062-7.652344 17.039062-17.066406 17.066406h-290.132813c-9.414063-.027344-17.039063-7.652344-17.066406-17.066406.066406-9.394532 7.667969-16.996094 17.066406-17.066407zm0 0" fill="#dfc49c"/><path d="m349.875 435.210938v68.269531h-324.269531c-9.414063-.027344-17.039063-7.652344-17.066407-17.066407v-51.203124c.035157-47.207032 32.308594-88.285157 78.167969-99.496094.066407-.066406.160157-.097656.253907-.085938l52.394531-2.816406h79.703125l76.117187 11.777344c33.628907 17.722656 54.683594 52.609375 54.699219 90.621094zm0 0" fill="#283593"/><path d="m326.234375 435.210938v68.269531h-300.628906c-9.414063-.027344-17.039063-7.652344-17.066407-17.066407v-51.203124c.035157-47.207032 32.308594-88.285157 78.167969-99.496094.066407-.066406.160157-.097656.253907-.085938l52.394531-2.816406h56.0625l76.121093 11.777344c33.628907 17.722656 54.683594 52.609375 54.695313 90.621094zm0 0" fill="#3f51b5"/><path d="m208.644531 429.410156c-7.785156 8.136719-18.230469 13.222656-29.4375 14.335938-11.210937-1.113282-21.652343-6.199219-29.441406-14.335938l29.441406-36.863281zm0 0" fill="#7f8e94"/><path d="m219.058594 332.8125-14.253906 21.332031-25.597657 38.402344-25.601562-38.402344-14.25-21.332031zm0 0" fill="#bdc3c7"/><path d="m204.804688 287.84375v66.300781l-25.597657 38.402344-25.601562-38.402344v-66.300781zm0 0" fill="#ffe0b2"/><path d="m179.207031 392.546875-29.441406 36.863281c-29.523437-26.28125-56.746094-80.640625-63.058594-93.695312-.597656-1.28125-1.027343-2.132813-1.195312-2.5625-.035157-.121094-.09375-.238282-.171875-.339844l36.265625-14.507812c3.75-1.484376 8.03125-.132813 10.242187 3.242187l7.507813 11.265625 14.25 21.332031zm0 0" fill="#f5f5f5"/><path d="m273.074219 332.8125c-.082031.101562-.140625.21875-.171875.339844-.171875.429687-.597656 1.28125-1.195313 2.5625-6.3125 13.054687-33.535156 67.414062-63.0625 93.695312l-29.4375-36.863281 25.597657-38.402344 14.253906-21.332031 7.507812-11.265625c2.210938-3.375 6.488282-4.726563 10.238282-3.242187zm0 0" fill="#f5f5f5"/><path d="m288.007812 426.679688h-12.800781c-14.132812-.015626-25.585937-11.46875-25.601562-25.601563v-19.199219c0-3.535156 2.867187-6.398437 6.402343-6.398437h51.199219c3.535157 0 6.398438 2.863281 6.398438 6.398437v19.199219c-.011719 14.132813-11.464844 25.585937-25.597657 25.601563zm0 0" fill="#ffeb3a"/><path d="m494.941406 324.277344h-51.203125c-3.523437.027344-6.371093 2.878906-6.398437 6.402344v19.199218c.046875 12.042969 8.457031 22.4375 20.222656 25.003906 1.761719.417969 3.566406.617188 5.378906.597657h12.796875c14.121094-.042969 25.558594-11.480469 25.601563-25.601563v-19.199218c-.027344-3.523438-2.875-6.375-6.398438-6.402344zm0 0" fill="#fdd834"/><path d="m471.300781 324.277344h-27.5625c-3.523437.027344-6.371093 2.878906-6.398437 6.402344v19.199218c.046875 12.042969 8.457031 22.4375 20.222656 25.003906 11.738281-2.597656 20.105469-12.984374 20.140625-25.003906v-19.199218c-.027344-3.523438-2.875-6.375-6.402344-6.402344zm0 0" fill="#ffeb3a"/><path d="m409.605469 307.210938c0 18.851562-15.28125 34.136718-34.132813 34.136718-18.851562 0-34.132812-15.285156-34.132812-34.136718 0-18.851563 15.28125-34.132813 34.132812-34.132813 18.851563 0 34.132813 15.28125 34.132813 34.132813zm0 0" fill="#ffdc00"/><path d="m358.40625 469.347656h34.132812c18.851563 0 34.132813 15.28125 34.132813 34.132813h-102.398437c0-18.851563 15.28125-34.132813 34.132812-34.132813zm0 0" fill="#ffdc00"/><path d="m307.207031 173.152344c-.011719 4.050781-.242187 8.09375-.683593 12.117187-6.65625 58.96875-61.097657 104.875-127.316407 104.875-3.925781 0-7.851562-.167969-11.777343-.511719-60.757813-5.035156-109.3125-48.894531-115.539063-104.363281-.445313-4.023437-.671875-8.066406-.683594-12.117187.015625-6.78125.644531-13.550782 1.875-20.222656.597657-2.988282 1.28125-5.886719 2.136719-8.789063l4.519531-24.660156c43.179688-10.667969 65.109375-29.441407 75.777344-43.179688 4.121094-4.921875 7.355469-10.523437 9.558594-16.554687 0 0 27.136719 47.53125 105.640625 51.710937 2.730468.171875 5.546875.257813 8.535156.257813 7.460938.15625 14.925781-.101563 22.355469-.769532 17.066406 8.535157 22.957031 38.230469 23.722656 41.984376 1.234375 6.671874 1.863281 13.441406 1.878906 20.222656zm0 0" fill="#dfc49c"/><path d="m283.570312 173.152344c-.011718 4.050781-.242187 8.09375-.683593 12.117187-6.230469 55.382813-54.699219 99.328125-115.457031 104.363281-60.757813-5.035156-109.3125-48.894531-115.539063-104.363281-.445313-4.023437-.671875-8.066406-.683594-12.117187.015625-6.78125.644531-13.550782 1.875-20.222656.597657-2.988282 1.28125-5.886719 2.136719-8.789063l4.519531-24.660156c43.179688-10.667969 65.109375-29.441407 75.777344-43.179688 17.578125 16.296875 53.25 38.484375 115.199219 35.15625 2.390625-.085937 4.78125-.253906 7.253906-.511719.445312.226563.875.480469 1.28125.769532 16.128906 9.300781 21.671875 37.546875 22.441406 41.214844 1.234375 6.671874 1.859375 13.441406 1.878906 20.222656zm0 0" fill="#ffe0b2"/><path d="m162.140625 162.144531c0 9.054688-3.59375 17.738281-9.996094 24.140625-6.402343 6.402344-15.085937 9.996094-24.136719 9.992188-6.824218.039062-13.496093-2.015625-19.117187-5.886719-11.910156-8.015625-17.519531-22.632813-14.035156-36.558594 3.484375-13.929687 15.320312-24.179687 29.601562-25.640625 14.28125-1.464844 27.949219 6.175782 34.183594 19.105469 2.347656 4.597656 3.546875 9.691406 3.5 14.847656zm0 0" fill="#02a9f4"/><path d="m264.539062 162.144531c.003907 9.054688-3.59375 17.738281-9.992187 24.140625-6.402344 6.402344-15.085937 9.996094-24.140625 9.992188-18.808594-.101563-34.027344-15.324219-34.132812-34.132813-.015626-15.929687 11-29.746093 26.53125-33.28125 15.53125-3.535156 31.441406 4.152344 38.320312 18.519531 2.269531 4.589844 3.441406 9.644532 3.414062 14.761719zm0 0" fill="#02a9f4"/><path d="m162.140625 162.144531c0 9.054688-3.59375 17.738281-9.996094 24.140625-6.402343 6.402344-15.085937 9.996094-24.136719 9.992188-6.824218.039062-13.496093-2.015625-19.117187-5.886719 3.671875-17.066406 15.191406-39.167969 49.75-43.09375 2.347656 4.597656 3.546875 9.691406 3.5 14.847656zm0 0" fill="#0377bc"/><path d="m264.539062 162.144531c.003907 9.054688-3.59375 17.738281-9.992187 24.140625-6.402344 6.402344-15.085937 9.996094-24.140625 9.992188-6.582031.011718-13.023438-1.917969-18.515625-5.542969 4.285156-24.167969 24.71875-42.160156 49.234375-43.351563 2.269531 4.589844 3.441406 9.644532 3.414062 14.761719zm0 0" fill="#0377bc"/><path d="m51.890625 204.8125h-17.75c-14.132813-.015625-25.585937-11.46875-25.601563-25.601562.066407-14.109376 11.488282-25.53125 25.601563-25.597657h17.664063c4.710937 0 8.53125 3.820313 8.53125 8.53125 0 4.714844-3.820313 8.535157-8.53125 8.535157h-17.578126c-2.253906-.039063-4.421874.847656-6.003906 2.449218-1.675781 1.582032-2.621094 3.78125-2.617187 6.082032.003906 4.710937 3.824219 8.53125 8.535156 8.535156h17.75c4.710937 0 8.53125 3.820312 8.53125 8.53125 0 4.714844-3.820313 8.535156-8.53125 8.535156zm0 0"/><path d="m324.273438 204.8125h-17.75c-4.710938 0-8.53125-3.820312-8.53125-8.535156 0-4.710938 3.820312-8.53125 8.53125-8.53125h17.75c4.710937-.003906 8.527343-3.824219 8.53125-8.535156.023437-2.226563-.867188-4.363282-2.457032-5.921876-1.578125-1.671874-3.777344-2.617187-6.074218-2.609374h-17.664063c-4.714844 0-8.535156-3.820313-8.535156-8.535157 0-4.710937 3.820312-8.53125 8.535156-8.53125h17.578125c14.144531.023438 25.617188 11.457031 25.6875 25.597657-.015625 14.132812-11.46875 25.585937-25.601562 25.601562zm0 0"/><path d="m324.199219 170.679688c-.171875 0-.332031-.007813-.5-.015626-4.703125-.273437-8.296875-4.300781-8.03125-9 .082031-1.601562.070312-11.019531.070312-12.316406-1.277343-74.183594-62.34375-133.34375-136.53125-132.269531-74.1875-1.074219-135.253906 58.085937-136.535156 132.269531 0 1.304688-.007813 10.730469.070313 12.324219.175781 3.042969-1.289063 5.949219-3.839844 7.621094-2.550782 1.671875-5.796875 1.855469-8.519532.480469-2.722656-1.371094-4.507812-4.089844-4.679687-7.136719-.082031-1.507813-.097656-11.875-.097656-13.289063 1.289062-83.605468 69.992187-150.402344 153.601562-149.3359372 83.609375-1.0664068 152.3125 65.7304692 153.597657 149.3359372 0 1.414063-.011719 11.78125-.09375 13.289063-.261719 4.511719-3.996094 8.035156-8.511719 8.042969zm0 0"/><path d="m153.605469 362.679688c-4.710938 0-8.53125-3.820313-8.53125-8.535157v-66.300781c0-4.714844 3.820312-8.535156 8.53125-8.535156 4.714843 0 8.535156 3.820312 8.535156 8.535156v66.300781c0 4.714844-3.820313 8.535157-8.535156 8.535157zm0 0"/><path d="m204.804688 362.679688c-4.710938 0-8.53125-3.820313-8.53125-8.535157v-66.300781c0-4.714844 3.820312-8.535156 8.53125-8.535156 4.714843 0 8.535156 3.820312 8.535156 8.535156v66.300781c0 4.714844-3.820313 8.535157-8.535156 8.535157zm0 0"/><path d="m153.605469 341.347656h-14.25c-4.710938 0-8.53125-3.820312-8.53125-8.535156 0-4.710938 3.820312-8.535156 8.53125-8.535156h14.25c4.714843 0 8.535156 3.824218 8.535156 8.535156 0 4.714844-3.820313 8.535156-8.535156 8.535156zm0 0"/><path d="m219.058594 341.347656h-14.253906c-4.710938 0-8.53125-3.820312-8.53125-8.535156 0-4.710938 3.820312-8.535156 8.53125-8.535156h14.253906c4.710937 0 8.53125 3.824218 8.53125 8.535156 0 4.714844-3.820313 8.535156-8.53125 8.535156zm0 0"/><path d="m332.804688 512.011719h-307.199219c-14.132813-.015625-25.5820315-11.46875-25.5976565-25.597657v-51.203124c-.09375-51.066407 34.7656255-95.570313 84.3710935-107.714844 2.589844-.777344 5.394532-.292969 7.578125 1.304687 2.183594 1.597657 3.492188 4.125 3.539063 6.828125-.003906 3.75-2.453125 7.0625-6.042969 8.15625-.238281.085938-.480469.160156-.726563.21875-42.101562 10.175782-71.734374 47.894532-71.652343 91.207032v51.203124c.003906 4.710938 3.820312 8.527344 8.53125 8.53125h307.199219c4.714843 0 8.535156 3.820313 8.535156 8.535157 0 4.710937-3.820313 8.53125-8.535156 8.53125zm0 0"/><path d="m273.671875 344.757812c-.722656.003907-1.4375-.085937-2.132813-.265624l-1.953124-.515626c-.210938-.058593-.425782-.117187-.632813-.191406-3.585937-1.097656-6.035156-4.410156-6.035156-8.160156.046875-2.71875 1.375-5.253906 3.574219-6.847656 2.203124-1.59375 5.027343-2.058594 7.625-1.257813l1.679687.441407c4.164063 1.070312 6.882813 5.070312 6.34375 9.335937s-4.171875 7.464844-8.46875 7.460937zm0 0"/><path d="m349.875 478.988281c-4.714844 0-8.535156-3.820312-8.535156-8.53125v-35.246093c-.007813-34.855469-19.320313-66.839844-50.164063-83.082032-4.164062-2.207031-5.75-7.375-3.542969-11.539062 2.207032-4.164063 7.375-5.75 11.539063-3.542969 36.429687 19.195313 59.234375 56.988281 59.234375 98.164063v35.246093c0 4.710938-3.820312 8.53125-8.53125 8.53125zm0 0"/><path d="m128.007812 204.8125c-23.566406 0-42.667968-19.101562-42.667968-42.667969 0-23.5625 19.101562-42.664062 42.667968-42.664062 23.5625 0 42.664063 19.101562 42.664063 42.664062-.027344 23.554688-19.113281 42.640625-42.664063 42.667969zm0-68.265625c-14.140624 0-25.601562 11.460937-25.601562 25.597656 0 14.140625 11.460938 25.601563 25.601562 25.601563 14.136719 0 25.597657-11.460938 25.597657-25.601563-.015625-14.128906-11.46875-25.582031-25.597657-25.597656zm0 0"/><path d="m230.40625 204.8125c-23.5625 0-42.667969-19.101562-42.667969-42.667969 0-23.5625 19.105469-42.664062 42.667969-42.664062s42.667969 19.101562 42.667969 42.664062c-.027344 23.554688-19.113281 42.640625-42.667969 42.667969zm0-68.265625c-14.136719 0-25.601562 11.460937-25.601562 25.597656 0 14.140625 11.464843 25.601563 25.601562 25.601563 14.140625 0 25.601562-11.460938 25.601562-25.601563-.015624-14.128906-11.46875-25.582031-25.601562-25.597656zm0 0"/><path d="m51.214844 179.210938c-3.960938.007812-7.402344-2.714844-8.3125-6.566407-.914063-3.855469.945312-7.828125 4.488281-9.597656 14.726563-6.15625 30.519531-9.363281 46.484375-9.433594 4.710938-.003906 8.535156 3.816407 8.535156 8.527344.003906 4.714844-3.816406 8.535156-8.527344 8.539063-13.316406.082031-26.5 2.671874-38.859374 7.632812-1.183594.589844-2.488282.898438-3.808594.898438zm0 0"/><path d="m307.199219 179.210938c-1.324219 0-2.625-.308594-3.808594-.898438-12.359375-4.960938-25.542969-7.550781-38.859375-7.632812-4.710938-.003907-8.53125-3.824219-8.527344-8.539063 0-4.710937 3.824219-8.53125 8.535156-8.527344 15.964844.070313 31.757813 3.277344 46.484376 9.433594 3.542968 1.769531 5.402343 5.742187 4.488281 9.597656-.910157 3.851563-4.355469 6.574219-8.3125 6.566407zm0 0"/><path d="m196.273438 170.679688c-2.265626.003906-4.433594-.898438-6.035157-2.5-2.980469-3.082032-6.828125-5.1875-11.03125-6.035157-4.214843.851563-8.070312 2.964844-11.058593 6.058594-3.351563 3.242187-8.6875 3.191406-11.976563-.113281-3.289063-3.304688-3.320313-8.636719-.066406-11.976563 6.167969-6.273437 14.34375-10.179687 23.101562-11.035156 8.753907.855469 16.929688 4.761719 23.097657 11.035156 2.441406 2.441407 3.171874 6.109375 1.851562 9.296875s-4.433594 5.269532-7.882812 5.269532zm0 0"/><path d="m149.761719 437.941406c-3.277344 0-6.265625-1.878906-7.6875-4.835937-1.417969-2.953125-1.019531-6.460938 1.023437-9.019531l25.550782-31.992188-43.898438-65.816406-29.617188 11.816406c-.980468 3.246094-3.792968 5.605469-7.160156 6.007812-3.371094.398438-6.65625-1.230468-8.371094-4.160156l-1.449218-2.472656c-.128906-.21875-.246094-.441406-.355469-.667969-1.128906-2.140625-1.300781-4.660156-.464844-6.929687.835938-2.273438 2.59375-4.085938 4.839844-4.984375l36.265625-14.507813c7.53125-3.03125 16.148438-.300781 20.566406 6.507813l47.308594 70.925781c2.058594 3.089844 1.882812 7.15625-.433594 10.058594l-29.441406 36.863281c-1.621094 2.03125-4.078125 3.214844-6.675781 3.207031zm0 0"/><path d="m208.652344 437.941406c-2.597656.003906-5.054688-1.175781-6.671875-3.207031l-29.4375-36.863281c-2.320313-2.902344-2.496094-6.96875-.433594-10.058594l47.359375-70.996094c4.402344-6.738281 12.9375-9.441406 20.414062-6.46875l36.363282 14.542969c2.246094.902344 4.003906 2.710937 4.839844 4.984375.835937 2.273438.664062 4.792969-.464844 6.933594-.109375.222656-.226563.449218-.351563.664062l-1.453125 2.476563c-1.714844 2.925781-5.003906 4.554687-8.371094 4.152343-3.371093-.402343-6.179687-2.761718-7.160156-6.011718l-29.644531-11.859375-43.871094 65.867187 25.550781 31.988282c2.042969 2.5625 2.441407 6.070312 1.023438 9.023437-1.421875 2.953125-4.410156 4.835937-7.6875 4.835937zm0 0"/><path d="m264.359375 358.667969c-2.996094 0-5.773437-1.574219-7.316406-4.144531-1.539063-2.570313-1.617188-5.761719-.203125-8.40625 3.34375-6.265626 5.765625-11.199219 7.1875-14.132813l.984375-2.074219c.5-1.148437 1.183593-2.207031 2.027343-3.132812 2.992188-3.003906 7.738282-3.351563 11.140626-.820313 3.398437 2.527344 4.425781 7.171875 2.410156 10.902344-.191406.433594-.394532.867187-.644532 1.390625l-.519531 1.09375c-1.519531 3.140625-4.042969 8.277344-7.527343 14.808594-1.484376 2.78125-4.382813 4.519531-7.539063 4.515625zm0 0"/><path d="m179.207031 452.277344c-41.003906 0-83.710937-78.914063-100.183593-112.839844-.828126-1.816406-1.285157-2.742188-1.320313-2.816406-2.015625-4.199219-.289063-9.246094 3.878906-11.328125 4.171875-2.082031 9.242188-.433594 11.386719 3.703125 0 0 .5625 1.125 1.5 3.175781 24.84375 51.199219 60.738281 103.039063 84.738281 103.039063 9.105469-1.160157 17.519531-5.46875 23.78125-12.179688 14.523438-14.109375 27.050781-30.132812 37.238281-47.628906 1.613282-2.585938 4.480469-4.121094 7.527344-4.019532 3.046875.101563 5.808594 1.820313 7.246094 4.507813 1.4375 2.691406 1.328125 5.941406-.28125 8.53125-11.042969 18.890625-24.636719 36.171875-40.390625 51.355469-9.273437 9.644531-21.78125 15.523437-35.121094 16.5zm0 0"/><path d="m290.140625 435.210938h-17.066406c-18.84375-.019532-34.113281-15.289063-34.132813-34.132813v-25.597656c0-4.714844 3.820313-8.535157 8.53125-8.535157h68.265625c4.714844 0 8.535157 3.820313 8.535157 8.535157v25.597656c-.019532 18.84375-15.289063 34.113281-34.132813 34.132813zm-34.132813-51.199219v17.066406c.007813 9.421875 7.644532 17.058594 17.066407 17.066406h17.066406c9.421875-.007812 17.054687-7.644531 17.066406-17.066406v-17.066406zm0 0"/><path d="m315.75 384.011719c-2.859375.003906-5.527344-1.421875-7.109375-3.800781l-27.035156-40.546876-27.03125 40.546876c-1.679688 2.570312-4.605469 4.039062-7.667969 3.851562s-5.785156-2.007812-7.136719-4.757812c-1.351562-2.753907-1.121093-6.023438.605469-8.558594l34.132812-51.199219c1.671876-2.242187 4.300782-3.5625 7.097657-3.5625s5.429687 1.320313 7.101562 3.5625l34.132813 51.199219c1.746094 2.617187 1.90625 5.980468.425781 8.753906-1.484375 2.777344-4.371094 4.507812-7.515625 4.511719zm0 0"/><path d="m477.875 384.011719h-17.070312c-18.839844-.019531-34.113282-15.289063-34.132813-34.132813v-25.601562c0-4.710938 3.820313-8.53125 8.535156-8.53125h68.265625c4.714844 0 8.535156 3.820312 8.535156 8.53125v25.601562c-.019531 18.84375-15.292968 34.113282-34.132812 34.132813zm-34.136719-51.199219v17.066406c.011719 9.421875 7.648438 17.054688 17.066407 17.066406h17.070312c9.417969-.011718 17.054688-7.644531 17.066406-17.066406v-17.066406zm0 0"/><path d="m503.480469 332.8125c-2.855469.003906-5.523438-1.421875-7.105469-3.800781l-27.035156-40.550781-27.035156 40.550781c-1.675782 2.570312-4.601563 4.039062-7.664063 3.851562-3.0625-.191406-5.789063-2.007812-7.136719-4.761719-1.351562-2.753906-1.121094-6.019531.601563-8.554687l34.132812-51.199219c1.671875-2.242187 4.304688-3.5625 7.101563-3.5625s5.429687 1.320313 7.101562 3.5625l34.132813 51.199219c1.742187 2.617187 1.90625 5.980469.425781 8.753906-1.484375 2.773438-4.371094 4.507813-7.519531 4.511719zm0 0"/><path d="m396.722656 301.410156c-4.277344 0-7.890625-3.167968-8.457031-7.402344-.566406-4.238281 2.089844-8.238281 6.214844-9.363281l72.617187-19.796875c4.550782-1.242187 9.242188 1.441406 10.480469 5.988282 1.242187 4.546874-1.4375 9.238281-5.988281 10.480468l-72.617188 19.796875c-.734375.199219-1.492187.300781-2.25.296875zm0 0"/><path d="m281.605469 332.8125c-4.273438 0-7.890625-3.164062-8.457031-7.398438-.570313-4.238281 2.085937-8.242187 6.210937-9.367187l68.351563-18.6875c4.550781-1.242187 9.242187 1.4375 10.484374 5.984375 1.246094 4.546875-1.433593 9.242188-5.984374 10.484375l-68.351563 18.6875c-.734375.195313-1.492187.296875-2.253906.296875zm0 0"/><path d="m375.472656 341.347656c-18.851562 0-34.132812-15.285156-34.132812-34.136718 0-18.851563 15.28125-34.132813 34.132812-34.132813 18.851563 0 34.132813 15.28125 34.132813 34.132813-.019531 18.84375-15.289063 34.117187-34.132813 34.136718zm0-51.203125c-9.425781 0-17.066406 7.640625-17.066406 17.066407 0 9.425781 7.640625 17.066406 17.066406 17.066406 9.425782 0 17.066406-7.640625 17.066406-17.066406-.011718-9.417969-7.644531-17.054688-17.066406-17.066407zm0 0"/><path d="m426.671875 512.011719h-102.398437c-4.714844 0-8.535157-3.820313-8.535157-8.53125.027344-23.554688 19.117188-42.640625 42.667969-42.667969h34.132812c23.554688.027344 42.640626 19.113281 42.667969 42.667969 0 4.710937-3.820312 8.53125-8.535156 8.53125zm-92.402344-17.066407h82.40625c-3.625-10.21875-13.289062-17.054687-24.136719-17.066406h-34.132812c-10.84375.011719-20.511719 6.847656-24.136719 17.066406zm0 0"/><path d="m375.472656 477.878906c-4.710937 0-8.53125-3.820312-8.53125-8.53125v-136.535156c0-4.710938 3.820313-8.535156 8.53125-8.535156 4.714844 0 8.535156 3.824218 8.535156 8.535156v136.535156c0 4.710938-3.820312 8.53125-8.535156 8.53125zm0 0"/><path d="m375.472656 290.144531c-4.710937 0-8.53125-3.820312-8.53125-8.53125v-17.066406c0-4.714844 3.820313-8.535156 8.53125-8.535156 4.714844 0 8.535156 3.820312 8.535156 8.535156v17.066406c0 4.710938-3.820312 8.53125-8.535156 8.53125zm0 0"/><path d="m179.207031 298.679688c-70.183593 0-128.5625-48.359376-135.796875-112.476563-1.304687-11.585937-.875-23.304687 1.28125-34.765625.878906-4.359375 1.894532-8.414062 3.046875-12.175781.886719-2.914063 3.265625-5.132813 6.238281-5.820313 2.96875-.6875 6.082032.261719 8.160157 2.488282 2.082031 2.230468 2.8125 5.398437 1.925781 8.316406-1.03125 3.367187-1.902344 6.882812-2.609375 10.417968-1.832031 9.78125-2.199219 19.78125-1.082031 29.667969 6.257812 55.4375 57.347656 97.28125 118.835937 97.28125s112.578125-41.84375 118.835938-97.324219c1.121093-9.929687.746093-19.96875-1.109375-29.78125-2.847656-14.136718-9.386719-31.050781-19.128906-35.925781-2.726563-1.363281-4.519532-4.078125-4.699219-7.125-.183594-3.042969 1.269531-5.953125 3.816406-7.632812 2.542969-1.679688 5.789063-1.875 8.515625-.507813 18.660156 9.332032 25.96875 36.605469 28.246094 47.898438 2.191406 11.515625 2.640625 23.300781 1.328125 34.949218-7.242188 64.15625-65.621094 112.515626-135.804688 112.515626zm0 0"/><path d="m40.976562 368.992188c-1.898437.003906-3.742187-.628907-5.238281-1.796876-27.828125-21.667968-35.289062-62.847656-17.753906-97.933593 15.507813-31.007813 7.875-70.914063 7.796875-71.316407-.921875-4.621093 2.074219-9.117187 6.699219-10.039062 4.621093-.921875 9.117187 2.074219 10.039062 6.699219.371094 1.855469 8.898438 45.957031-9.265625 82.289062-13.917968 27.835938-8.464844 60.144531 12.96875 76.835938 2.875 2.238281 4.011719 6.058593 2.828125 9.503906-1.183593 3.449219-4.429687 5.761719-8.074219 5.761719zm0 0"/><path d="m317.464844 368.992188c-3.644532.003906-6.890625-2.3125-8.074219-5.757813-1.183594-3.449219-.046875-7.265625 2.828125-9.507813 21.433594-16.691406 26.886719-49 12.972656-76.832031-18.167968-36.332031-9.640625-80.433593-9.269531-82.292969.597656-2.988281 2.746094-5.433593 5.632813-6.410156 2.886718-.980468 6.078124-.34375 8.367187 1.667969 2.292969 2.015625 3.335937 5.09375 2.738281 8.085937-.078125.398438-7.710937 40.308594 7.796875 71.316407 17.542969 35.070312 10.078125 76.265625-17.75 97.933593-1.496093 1.167969-3.34375 1.804688-5.242187 1.796876zm0 0"/><path d="m55.238281 152.675781c-.515625 0-1.035156-.046875-1.542969-.144531-2.226562-.40625-4.199218-1.683594-5.484374-3.546875-1.285157-1.863281-1.777344-4.160156-1.371094-6.386719l4.523437-24.660156c.917969-4.566406 5.328125-7.554688 9.90625-6.710938 4.582031.839844 7.644531 5.199219 6.875 9.796876l-4.519531 24.660156c-.746094 4.046875-4.269531 6.984375-8.386719 6.992187zm0 0"/><path d="m59.742188 128.011719c-4.308594-.007813-7.933594-3.230469-8.453126-7.507813-.515624-4.277344 2.238282-8.273437 6.421876-9.308594 67.804687-16.71875 79.066406-53.433593 79.171874-53.800781.941407-3.300781 3.773438-5.714843 7.179688-6.125 3.410156-.410156 6.734375 1.261719 8.433594 4.242188 1.289062 2.210937 33.132812 54.777343 128.417968 46.933593 3.089844-.351562 6.125 1.007813 7.925782 3.542969 1.796875 2.539063 2.074218 5.851563.71875 8.652344-1.351563 2.796875-4.121094 4.640625-7.226563 4.804687-78.929687 6.652344-119.480469-25.566406-135.800781-43.757812-9.917969 15.226562-33.15625 39.359375-84.734375 52.074219-.671875.171875-1.359375.253906-2.054687.25zm0 0"/></svg>