<svg height="512pt" viewBox="0 0 512.00033 512" width="512pt" xmlns="http://www.w3.org/2000/svg"><path d="m341.332031 409.601562-23.722656-1.878906-276.648437-22.1875c-25.429688-20.136718-30.550782-58.109375-15.359376-89.085937 17.066407-34.816407 8.53125-78.335938 8.53125-78.335938h290.132813s-8.53125 43.519531 8.535156 78.335938c2.730469 5.546875 4.820313 11.386719 6.230469 17.40625zm0 0" fill="#783e22"/><path d="m317.609375 407.722656-276.648437-22.1875c-25.429688-20.136718-30.550782-58.109375-15.359376-89.085937 17.066407-34.816407 8.53125-78.335938 8.53125-78.335938h266.496094s-8.53125 43.519531 8.535156 78.335938c2.726563 5.546875 4.816407 11.386719 6.226563 17.40625zm0 0" fill="#a0522d"/><path d="m317.78125 133.972656c-.851562-2.984375-1.792969-5.886718-2.816406-8.789062h-271.53125c-1.023438 2.902344-1.960938 5.804687-2.816406 8.789062-4.304688 15.128906-6.488282 30.78125-6.484376 46.507813 0 1.535156 0 12.628906.085938 14.164062h289.964844c.082031-1.535156.082031-12.628906.082031-14.164062.007813-15.726563-2.175781-31.378907-6.484375-46.507813zm-138.582031 23.894532c-29.011719 0-52.050781-1.023438-70.398438-2.644532 5.4375-3.535156 10.628907-7.441406 15.53125-11.691406 14.589844.9375 31.574219 1.449219 51.371094 1.535156 6.933594 4.691406 14.171875 8.910156 21.671875 12.628906-5.800781.085938-11.859375.171876-18.175781.171876zm0 0" fill="#91562d"/><path d="m332.800781 503.46875h-307.199219c-9.414062-.03125-17.039062-7.65625-17.066406-17.070312v-25.597657c.019532-47.316406 32.429688-88.46875 78.417969-99.585937h184.492187c16.464844 3.976562 31.683594 11.980468 44.289063 23.296875zm0 0" fill="#3f51b5"/><path d="m137.957031 361.011719 37.683594 59.253906h16.359375l29.628906-59.253906zm0 0" fill="#bdc3c7"/><path d="m179.199219 418.132812-26.367188 32.960938c-1.757812 2.195312-4.484375 3.382812-7.289062 3.179688-2.804688-.207032-5.328125-1.78125-6.742188-4.210938l-48.480469-83.117188c-1.253906-2.140624-1.507812-4.726562-.699218-7.074218.804687-2.34375 2.59375-4.226563 4.898437-5.148438l27.082031-10.828125c3.75-1.488281 8.027344-.132812 10.238282 3.242188l7.511718 11.261719 14.25 21.335937zm0 0" fill="#f5f5f5"/><path d="m204.800781 313.429688v66.304687l-25.601562 38.398437-25.597657-38.398437v-66.304687zm0 0" fill="#ffe0b2"/><path d="m268.082031 366.949219-48.480469 83.113281c-1.417968 2.429688-3.941406 4.003906-6.746093 4.210938-2.804688.207031-5.53125-.984376-7.289063-3.179688l-26.367187-32.960938 25.601562-38.398437 14.25-21.335937 7.507813-11.261719c2.210937-3.375 6.492187-4.730469 10.242187-3.242188l27.078125 10.832031c2.304688.921876 4.09375 2.800782 4.902344 5.148438.804688 2.347656.550781 4.929688-.699219 7.074219zm0 0" fill="#f5f5f5"/><path d="m332.800781 315.734375h153.597657c9.425781 0 17.070312 7.640625 17.070312 17.066406v153.597657c0 9.425781-7.644531 17.070312-17.070312 17.070312h-153.597657c-9.425781 0-17.066406-7.644531-17.066406-17.070312v-153.597657c0-9.425781 7.640625-17.066406 17.066406-17.066406zm0 0" fill="#624421"/><path d="m332.800781 315.734375h129.960938c9.425781 0 17.066406 7.640625 17.066406 17.066406v153.597657c0 9.425781-7.640625 17.070312-17.066406 17.070312h-129.960938c-9.425781 0-17.066406-7.644531-17.066406-17.070312v-153.597657c0-9.425781 7.640625-17.066406 17.066406-17.066406zm0 0" fill="#825a2c"/><path d="m435.199219 384-25.597657-17.066406-25.601562 17.066406v-68.265625h51.199219zm0 0" fill="#ff9801"/><path d="m306.601562 187.734375h17.664063c9.398437.066406 17 7.667969 17.066406 17.066406-.027343 9.414063-7.652343 17.039063-17.066406 17.066407h-290.132813c-9.414062-.027344-17.039062-7.652344-17.066406-17.066407.070313-9.398437 7.667969-17 17.066406-17.066406zm0 0" fill="#dfc49c"/><path d="m307.199219 198.742188c-.011719 4.046874-.238281 8.09375-.679688 12.117187-.429687 3.667969-1.027343 7.339844-1.792969 10.921875-12.007812 47.769531-51.296874 83.808594-99.925781 91.648438-8.445312 1.550781-17.015625 2.320312-25.601562 2.304687-4.007813 0-7.933594-.171875-11.773438-.511719-4.640625-.335937-9.253906-.933594-13.824219-1.792968-48.773437-7.785157-88.140624-44.027344-99.925781-91.988282-.769531-3.5-1.367187-7-1.792969-10.582031-.441406-4.023437-.671874-8.070313-.683593-12.117187 0-1.367188 0-2.730469.085937-4.097657.085938-2.386719.257813-4.691406.511719-6.910156.257813-2.988281.769531-6.058594 1.28125-9.046875 19.722656-4.746094 38.542969-12.671875 55.722656-23.464844 4.984375-3.230468 9.746094-6.792968 14.25-10.667968l1.28125-1.023438c14.589844.9375 31.574219 1.449219 51.371094 1.535156 6.933594 4.691406 14.171875 8.910156 21.671875 12.628906 24.808594 12.699219 51.972656 20.136719 79.789062 21.847657 1.535157.082031 3.15625.167969 4.777344.253906 7.855469.25 15.714844.082031 23.550782-.511719.429687 2.816406.855468 5.632813 1.109374 8.449219.257813 2.21875.429688 4.523437.511719 6.910156.085938 1.367188.085938 2.730469.085938 4.097657zm0 0" fill="#dfc49c"/><path d="m283.5625 198.742188c-.011719 4.046874-.238281 8.09375-.683594 12.117187-.425781 3.667969-1.023437 7.339844-1.789062 10.921875-12.007813 47.769531-51.296875 83.808594-99.925782 91.648438-4.542968.859374-9.128906 1.457031-13.738281 1.792968-4.640625-.335937-9.253906-.933594-13.824219-1.792968-48.773437-7.785157-88.140624-44.027344-99.925781-91.988282-.769531-3.5-1.367187-7-1.792969-10.582031-.441406-4.023437-.671874-8.070313-.683593-12.117187 0-1.367188 0-2.730469.085937-4.097657.085938-2.386719.257813-4.691406.511719-6.910156.257813-2.988281.769531-6.058594 1.28125-9.046875 19.722656-4.746094 38.542969-12.671875 55.722656-23.464844 4.984375-3.230468 9.746094-6.792968 14.25-10.667968 8.960938.339843 18.601563.425781 29.011719.511718 6.933594 4.691406 14.175781 8.910156 21.675781 12.628906 31.898438 16.40625 67.617188 23.949219 103.425781 21.847657 1.535157 0 3.070313-.171875 4.691407-.257813 0 .171875.085937.339844.085937.511719.425782 2.644531.769532 5.292969 1.023438 7.9375.257812 2.21875.425781 4.523437.511718 6.910156.085938 1.367188.085938 2.730469.085938 4.097657zm0 0" fill="#ffe0b2"/><path d="m179.199219 145.066406c-3.839844 0-7.507813 0-11.09375-.085937h-1.449219c-156.414062-1.621094-123.988281-34.046875-123.988281-34.046875l10.664062-18.433594 114.605469-48.980469 11.859375-5.121093 128.683594 55.808593 7.253906 16.726563s34.132813 34.132812-136.535156 34.132812zm0 0" fill="#283593"/><path d="m168.105469 144.980469h-1.449219c-156.414062-1.621094-123.988281-34.046875-123.988281-34.046875l10.664062-18.433594 114.605469-48.980469 116.820312 50.6875 7.339844 16.726563s32.425782 32.425781-123.992187 34.046875zm0 0" fill="#3f51b5"/><path d="m322.988281 59.988281-7.253906 50.945313c-7.023437-4.367188-14.386719-8.164063-22.015625-11.347656-36.203125-15.386719-75.1875-23.144532-114.519531-22.785157-4.007813 0-7.933594.085938-11.773438.253907-78.253906 2.902343-124.757812 33.878906-124.757812 33.878906l-1.621094-11.347656-5.632813-39.597657c-.871093-6.035156 1.53125-12.082031 6.3125-15.871093 14.507813-11.605469 51.457032-33.28125 125.699219-35.414063 3.839844-.085937 7.765625-.167969 11.773438-.167969 82.175781 0 122.199219 23.378906 137.472656 35.582032 4.78125 3.789062 7.1875 9.835937 6.316406 15.871093zm0 0" fill="#283593"/><path d="m299.351562 59.988281-5.632812 39.597657c-36.203125-15.386719-75.1875-23.144532-114.519531-22.785157-4.007813 0-7.933594.085938-11.773438.253907-3.839843-.167969-7.851562-.253907-11.863281-.253907-39.332031-.359375-78.316406 7.398438-114.515625 22.785157l-5.632813-39.597657c-.871093-6.035156 1.53125-12.082031 6.3125-15.871093 14.507813-11.605469 51.457032-33.28125 125.699219-35.414063 74.238281 2.132813 111.101563 23.808594 125.523438 35.414063 4.804687 3.777343 7.242187 9.820312 6.402343 15.871093zm0 0" fill="#3f51b5"/><path d="m51.882812 230.398438h-17.75c-14.132812-.015626-25.582031-11.464844-25.597656-25.597657.0625-14.113281 11.488282-25.535156 25.597656-25.601562h17.664063c4.714844 0 8.535156 3.820312 8.535156 8.535156 0 4.710937-3.820312 8.53125-8.535156 8.53125h-17.578125c-2.25-.035156-4.421875.847656-6.003906 2.449219-1.671875 1.582031-2.617188 3.785156-2.613282 6.085937.003907 4.710938 3.820313 8.527344 8.53125 8.53125h17.75c4.714844 0 8.535157 3.820313 8.535157 8.535157 0 4.710937-3.820313 8.53125-8.535157 8.53125zm0 0"/><path d="m324.265625 230.398438h-17.746094c-4.714843 0-8.535156-3.820313-8.535156-8.53125 0-4.714844 3.820313-8.535157 8.535156-8.535157h17.746094c4.710937-.003906 8.53125-3.820312 8.535156-8.53125.019531-2.226562-.867187-4.367187-2.457031-5.925781-1.582031-1.667969-3.777344-2.613281-6.078125-2.609375h-17.664063c-4.710937 0-8.53125-3.820313-8.53125-8.53125 0-4.714844 3.820313-8.535156 8.53125-8.535156h17.582032c14.140625.023437 25.613281 11.457031 25.683594 25.601562-.015626 14.132813-11.46875 25.582031-25.601563 25.597657zm0 0"/><path d="m34.203125 196.234375c-4.507813.007813-8.242187-3.507813-8.507813-8.007813-.082031-1.507812-.09375-11.875-.09375-13.292968-.007812-18.066406 3.339844-35.976563 9.875-52.820313 1.753907-4.3125 6.636719-6.421875 10.976563-4.746093 4.34375 1.679687 6.539063 6.523437 4.9375 10.894531-5.769531 14.882812-8.726563 30.707031-8.722656 46.671875 0 1.308594-.007813 10.734375.070312 12.324218.230469 4.699219-3.375 8.703126-8.070312 8.96875-.15625.007813-.308594.007813-.464844.007813zm0 0"/><path d="m324.191406 196.265625c-.171875 0-.328125-.007813-.5-.015625-4.699218-.269531-8.292968-4.296875-8.027344-9 .078126-1.597656.070313-11.015625.070313-12.316406.003906-15.964844-2.953125-31.792969-8.726563-46.675782-1.601562-4.371093.597657-9.21875 4.9375-10.894531 4.339844-1.679687 9.226563.433594 10.980469 4.742188 6.535157 16.847656 9.882813 34.757812 9.875 52.828125 0 1.417968-.011719 11.785156-.097656 13.292968-.261719 4.507813-3.992187 8.035157-8.511719 8.039063zm0 0"/><path d="m153.601562 388.265625c-4.714843 0-8.535156-3.820313-8.535156-8.53125v-66.304687c0-4.714844 3.820313-8.535157 8.535156-8.535157 4.710938 0 8.53125 3.820313 8.53125 8.535157v66.304687c0 4.710937-3.820312 8.53125-8.53125 8.53125zm0 0"/><path d="m204.800781 388.265625c-4.714843 0-8.535156-3.820313-8.535156-8.53125v-66.304687c0-4.714844 3.820313-8.535157 8.535156-8.535157 4.710938 0 8.53125 3.820313 8.53125 8.535157v66.304687c0 4.710937-3.820312 8.53125-8.53125 8.53125zm0 0"/><path d="m332.800781 512h-307.199219c-14.132812-.015625-25.585937-11.46875-25.601562-25.601562v-25.597657c-.125-51.3125 35.046875-95.972656 84.953125-107.882812 4.585937-1.105469 9.195313 1.714843 10.300781 6.300781 1.105469 4.582031-1.714844 9.191406-6.300781 10.296875-42.230469 10.074219-71.992187 47.867187-71.886719 91.285156v25.597657c.003906 4.710937 3.824219 8.53125 8.535156 8.535156h307.199219c4.710938 0 8.53125 3.820312 8.53125 8.535156 0 4.710938-3.820312 8.53125-8.53125 8.53125zm0 0"/><path d="m315.734375 393.046875c-2.101563 0-4.128906-.773437-5.691406-2.175781-11.550781-10.367188-25.496094-17.707032-40.582031-21.351563-4.582032-1.097656-7.410157-5.703125-6.308594-10.289062 1.097656-4.582031 5.703125-7.410157 10.285156-6.308594 17.839844 4.3125 34.328125 12.984375 47.996094 25.230469 2.636718 2.363281 3.542968 6.105468 2.277344 9.410156-1.265626 3.304688-4.4375 5.488281-7.976563 5.484375zm0 0"/><path d="m42.667969 119.46875c-4.25.003906-7.851563-3.121094-8.449219-7.328125l-7.28125-50.980469c-1.246094-9.039062 2.363281-18.0625 9.5-23.742187 17.519531-13.976563 59.371094-37.417969 142.761719-37.417969 83.394531 0 125.242187 23.441406 142.769531 37.417969 7.132812 5.679687 10.742188 14.707031 9.496094 23.742187l-7.28125 50.980469c-.417969 2.898437-2.289063 5.382813-4.960938 6.578125-2.667968 1.199219-5.769531.941406-8.207031-.675781-.5-.328125-50.378906-32.710938-131.816406-32.710938-81.804688 0-131.308594 32.375-131.796875 32.703125-1.402344.933594-3.050782 1.433594-4.734375 1.433594zm136.53125-51.203125c44.96875-.621094 89.449219 9.335937 129.859375 29.066406l5.511718-38.589843c.429688-3.046876-.808593-6.09375-3.242187-7.976563-12.707031-10.132813-51.015625-33.699219-132.128906-33.699219s-119.417969 23.566406-132.125 33.699219c-2.433594 1.882813-3.671875 4.929687-3.242188 7.976563l5.511719 38.589843c40.410156-19.730469 84.890625-29.6875 129.855469-29.066406zm0 0"/><path d="m179.199219 153.601562c-120.464844 0-141.3125-16.695312-146.515625-29.25-2.65625-6.695312-1.105469-14.324218 3.949218-19.449218 3.347657-3.234375 8.671876-3.191406 11.964844.101562 3.289063 3.292969 3.335938 8.613282.101563 11.960938-.132813.230468-.230469.476562-.285157.734375.023438.183593 5.816407 18.835937 130.785157 18.835937 124.972656 0 130.761719-18.652344 130.789062-18.835937-3.371093-3.433594-3.4375-8.917969-.144531-12.433594 1.519531-1.648437 3.640625-2.613281 5.882812-2.683594 2.242188-.066406 4.417969.765625 6.039063 2.320313 5.058594 5.125 6.605469 12.753906 3.953125 19.449218-5.207031 12.554688-26.050781 29.25-146.519531 29.25zm0 0"/><path d="m187.734375 51.199219h-17.066406c-4.714844 0-8.535157-3.820313-8.535157-8.53125 0-4.714844 3.820313-8.535157 8.535157-8.535157h17.066406c4.710937 0 8.53125 3.820313 8.53125 8.535157 0 4.710937-3.820313 8.53125-8.53125 8.53125zm0 0"/><path d="m145.066406 469.332031c-.207031 0-.414062-.007812-.625-.023437-2.804687-.199219-5.332031-1.777344-6.746094-4.207032l-59.757812-102.441406c-1.234375-2.144531-1.480469-4.71875-.667969-7.058594.8125-2.335937 2.597657-4.207031 4.894531-5.125l36.265626-14.507812c7.527343-3.027344 16.148437-.300781 20.566406 6.507812l47.304687 70.925782c2.0625 3.09375 1.886719 7.164062-.433593 10.070312l-34.136719 42.664063c-1.621094 2.023437-4.070313 3.199219-6.664063 3.195312zm-47.386718-106.671875 48.492187 83.097656 22.464844-28.082031-43.894531-65.808593zm0 0"/><path d="m213.332031 469.332031c-2.589843.003907-5.042969-1.175781-6.660156-3.199219l-34.132813-42.664062c-2.324218-2.90625-2.5-6.976562-.4375-10.070312l47.359376-71c4.398437-6.738282 12.9375-9.441407 20.417968-6.464844l36.359375 14.542968c2.296875.917969 4.085938 2.789063 4.894531 5.125.8125 2.339844.566407 4.914063-.667968 7.058594l-1.621094 2.8125-58.136719 99.625c-1.414062 2.433594-3.941406 4.007813-6.746093 4.210938-.210938.015625-.417969.023437-.628907.023437zm-23.570312-51.65625 22.46875 28.082031 48.496093-83.097656-27.097656-10.84375zm0 0"/><path d="m179.199219 512c-4.710938 0-8.53125-3.820312-8.53125-8.53125v-85.335938c0-4.710937 3.820312-8.53125 8.53125-8.53125 4.714843 0 8.535156 3.820313 8.535156 8.53125v85.335938c0 4.710938-3.820313 8.53125-8.535156 8.53125zm0 0"/><path d="m281.601562 469.332031h-17.066406c-4.714844 0-8.535156-3.820312-8.535156-8.53125 0-4.714843 3.820312-8.535156 8.535156-8.535156h17.066406c4.710938 0 8.53125 3.820313 8.53125 8.535156 0 4.710938-3.820312 8.53125-8.53125 8.53125zm0 0"/><path d="m486.398438 512h-153.597657c-14.132812-.015625-25.585937-11.46875-25.601562-25.601562v-153.597657c.015625-14.132812 11.46875-25.585937 25.601562-25.601562h153.597657c14.132812.015625 25.585937 11.46875 25.601562 25.601562v153.597657c-.015625 14.132812-11.46875 25.585937-25.601562 25.601562zm-153.597657-187.734375c-4.710937.003906-8.53125 3.824219-8.535156 8.535156v153.597657c.003906 4.710937 3.824219 8.53125 8.535156 8.535156h153.597657c4.714843-.003906 8.53125-3.824219 8.535156-8.535156v-153.597657c-.003906-4.710937-3.820313-8.53125-8.535156-8.535156zm0 0"/><path d="m435.199219 392.535156c-1.683594-.003906-3.332031-.5-4.730469-1.433594l-20.867188-13.910156-20.867187 13.910156c-2.621094 1.746094-5.984375 1.90625-8.761719.421876-2.773437-1.484376-4.503906-4.375-4.503906-7.523438v-68.265625c0-4.714844 3.820312-8.535156 8.53125-8.535156h51.199219c4.714843 0 8.535156 3.820312 8.535156 8.535156v68.265625c0 4.714844-3.820313 8.535156-8.535156 8.535156zm-25.597657-34.136718c1.683594 0 3.332032.5 4.730469 1.433593l12.335938 8.226563v-43.792969h-34.132813v43.792969l12.332032-8.226563c1.402343-.933593 3.046874-1.433593 4.734374-1.433593zm0 0"/><path d="m469.332031 435.199219h-25.597656c-4.714844 0-8.535156-3.820313-8.535156-8.53125 0-4.714844 3.820312-8.535157 8.535156-8.535157h25.597656c4.714844 0 8.535157 3.820313 8.535157 8.535157 0 4.710937-3.820313 8.53125-8.535157 8.53125zm0 0"/><path d="m469.332031 469.332031h-51.199219c-4.710937 0-8.53125-3.820312-8.53125-8.53125 0-4.714843 3.820313-8.535156 8.53125-8.535156h51.199219c4.714844 0 8.535157 3.820313 8.535157 8.535156 0 4.710938-3.820313 8.53125-8.535157 8.53125zm0 0"/><path d="m40.972656 394.582031c-1.898437.003907-3.742187-.628906-5.238281-1.800781-27.828125-21.667969-35.292969-62.847656-17.753906-97.929688 15.507812-31.011718 7.875-70.917968 7.792969-71.316406-.921876-4.625 2.078124-9.117187 6.699218-10.042968 4.621094-.921876 9.117188 2.078124 10.039063 6.699218.371093 1.859375 8.902343 45.960938-9.265625 82.292969-13.917969 27.832031-8.460938 60.140625 12.972656 76.832031 2.875 2.238282 4.011719 6.058594 2.824219 9.507813-1.183594 3.445312-4.425781 5.761719-8.070313 5.757812zm0 0"/><path d="m339.019531 324.265625c-3.953125-.003906-7.386719-2.722656-8.292969-6.570313-1.285156-5.277343-3.15625-10.398437-5.585937-15.257812-18.140625-36.28125-9.609375-80.382812-9.242187-82.242188.597656-2.988281 2.746093-5.433593 5.632812-6.410156 2.886719-.980468 6.078125-.34375 8.371094 1.667969 2.289062 2.011719 3.332031 5.09375 2.734375 8.085937-.078125.398438-7.710938 40.308594 7.796875 71.316407 3.003906 6.027343 5.316406 12.375 6.898437 18.925781.523438 2.199219.144531 4.519531-1.042969 6.445312-1.191406 1.925782-3.097656 3.300782-5.300781 3.820313-.644531.144531-1.304687.21875-1.96875.21875zm0 0"/><path d="m55.21875 178.261719c-2.992188-.003907-5.761719-1.570313-7.300781-4.132813-1.542969-2.558594-1.632813-5.738281-.238281-8.382812l17.132812-32.484375c1.40625-2.730469 4.167969-4.496094 7.234375-4.621094 3.066406-.128906 5.96875 1.402344 7.59375 4.007813 1.625 2.601562 1.726563 5.878906.265625 8.582031l-17.132812 32.476562c-1.476563 2.804688-4.386719 4.558594-7.554688 4.554688zm0 0"/><path d="m179.199219 324.265625c-9.105469.015625-18.195313-.804687-27.152344-2.441406-52.230469-8.277344-94.34375-47.183594-106.71875-98.597657-.816406-3.726562-1.460937-7.5-1.917969-11.359374-.484375-4.359376-.734375-8.742188-.742187-13.125-.019531-4.015626.195312-8.027344.652343-12.015626.242188-2.808593.746094-5.96875 1.277344-9.042968.023438-.28125.0625-.5625.113282-.84375.617187-3.082032 1.402343-6.089844 2.203124-9.097656.984376-4.207032 4.964844-7.011719 9.257813-6.527344 4.296875.484375 7.550781 4.105468 7.574219 8.429687 0 .761719-.097656 1.523438-.285156 2.265625-.683594 2.574219-1.367188 5.140625-1.914063 7.765625-.015625.164063-.035156.324219-.058594.457031-.472656 2.75-.953125 5.582032-1.195312 8.332032-.390625 3.410156-.578125 6.84375-.558594 10.277344.011719 3.742187.222656 7.484374.632813 11.207031.382812 3.210937.933593 6.429687 1.644531 9.667969 10.933593 44.683593 47.691406 78.390624 93.152343 85.425781 15.898438 2.867187 32.183594 2.867187 48.082032 0 45.320312-7.078125 82.003906-40.589844 93.140625-85.085938.703125-3.28125 1.257812-6.679687 1.65625-10.082031.40625-3.699219.613281-7.414062.625-11.132812.019531-3.339844-.160157-6.679688-.539063-10-.253906-2.765626-.640625-5.324219-1.027344-7.875-.046874-.207032-.085937-.425782-.125-.632813h-.015624c-.472657-2.292969-1.023438-4.582031-1.660157-6.867187-4.832031-10.90625-11.28125-21.019532-19.128906-30-1.957031-2.363282-2.496094-5.59375-1.410156-8.460938 1.085937-2.871094 3.625-4.9375 6.65625-5.414062 3.03125-.476563 6.082031.710937 7.996093 3.109374 9.277344 10.757813 16.800782 22.910157 22.28125 36.015626.792969 2.867187 1.4375 5.527343 1.984376 8.183593l.058593.308594c.078125.292969.144531.59375.191407.894531.453124 2.984375.898437 5.964844 1.171874 8.949219.445313 3.914063.65625 7.847656.632813 11.789063-.007813 4.351562-.253906 8.699218-.734375 13.023437-.460938 4.011719-1.109375 7.960937-1.929688 11.800781-12.582031 51.222656-54.617187 89.929688-106.703124 98.257813-8.964844 1.636719-18.054688 2.453125-27.167969 2.441406zm0 0"/><path d="m53.078125 187.222656c-4.296875-.011718-7.917969-3.210937-8.449219-7.476562-.535156-4.261719 2.1875-8.257813 6.347656-9.324219 24.886719-5.59375 48.09375-17.003906 67.722657-33.296875 2.277343-2.085938 5.507812-2.777344 8.441406-1.804688 2.933594.96875 5.109375 3.449219 5.695313 6.484376.585937 3.03125-.511719 6.144531-2.871094 8.136718-21.652344 18.078125-47.277344 30.761719-74.78125 37.015625-.6875.179688-1.394532.265625-2.105469.265625zm0 0"/><path d="m289.445312 188.433594c-42.226562-.039063-83.484374-12.667969-118.496093-36.273438-3.914063-2.625-4.964844-7.925781-2.339844-11.84375 2.621094-3.917968 7.925781-4.964844 11.839844-2.339844 36.5625 24.691407 80.414062 36.253907 124.398437 32.796876 3.0625-.269532 6.03125 1.125 7.777344 3.65625s1.992188 5.808593.652344 8.574218c-1.34375 2.765625-4.070313 4.59375-7.140625 4.789063-5.691407.433593-11.253907.644531-16.691407.640625zm0 0"/></svg>