<svg height="504pt" viewBox="0 0 504 504.0285" width="504pt" xmlns="http://www.w3.org/2000/svg"><path d="m100.734375 328.363281h151.082031v166.863281h-151.082031zm0 0" fill="#f44335"/><path d="m318.964844 146.898438c0 1.34375 0 15.359374-.082032 16.785156h-285.210937c-.082031-1.425782-.082031-15.441406-.082031-16.785156.964844-73.144532 58.027344-133.238282 131.019531-137.988282 3.859375-.335937 7.722656-.503906 11.667969-.503906 77.636718-1.136719 141.507812 60.855469 142.6875 138.492188zm0 0" fill="#6d4122"/><path d="m295.714844 146.898438c0 1.34375 0 15.359374-.082032 16.785156h-261.960937c-.082031-1.425782-.082031-15.441406-.082031-16.785156.964844-73.144532 58.027344-133.238282 131.019531-137.988282 73.023437 4.714844 130.128906 64.816406 131.105469 137.988282zm0 0" fill="#91562d"/><path d="m302.261719 159.488281h17.375c9.242187.066407 16.71875 7.542969 16.785156 16.785157-.027344 9.261718-7.527344 16.761718-16.785156 16.789062h-286.046875c-9.261719-.027344-16.761719-7.527344-16.789063-16.789062.066407-9.242188 7.542969-16.71875 16.789063-16.785157zm0 0" fill="#f09372"/><path d="m201.457031 283.125v54.472656l-2.265625 2.9375-22.914062 29.542969-22.914063-29.542969-2.265625-2.9375v-54.472656zm0 0" fill="#ffe0b2"/><path d="m67.160156 336.503906v158.722656h-41.964844c-9.261718-.027343-16.761718-7.527343-16.789062-16.789062v-50.359375c-.03125-39.394531 22.933594-75.183594 58.753906-91.574219zm0 0" fill="#f44335"/><path d="m321.566406 364.457031-19.808594 130.769531h-16.367187v-158.722656c14.019531 6.460938 26.386719 16.015625 36.175781 27.953125zm0 0" fill="#f44335"/><path d="m100.734375 328.363281v166.863281h-33.574219v-158.722656c8.890625-4.09375 18.335938-6.835937 28.035156-8.140625zm0 0" fill="#3f51b5"/><path d="m285.390625 336.503906v158.722656h-33.574219v-166.863281h5.539063c9.699219 1.304688 19.148437 4.046875 28.035156 8.140625zm0 0" fill="#3f51b5"/><path d="m387.960938 279.210938s41.585937 14.984374 41.050781 59.398437c0 0 41.855469 7.640625 60.820312-45.003906 18.964844-52.640625-18.148437-73.445313-18.148437-73.445313-27.910156 34.550782-69.5 19.570313-69.5 19.570313zm0 0" fill="#7f8e94"/><path d="m397.769531 202.453125c8.722657 3.140625 13.246094 12.761719 10.101563 21.484375l-93.875 260.589844c-3.140625 8.722656-12.761719 13.246094-21.484375 10.101562-8.722657-3.140625-13.246094-12.757812-10.101563-21.480468l93.875-260.589844c3.144532-8.722656 12.761719-13.246094 21.484375-10.105469zm0 0" fill="#825a2c"/><path d="m346.90625 219.816406 23.691406 8.535156-14.226562 39.480469-23.6875-8.53125c-4.363282-1.574219-6.625-6.382812-5.050782-10.742187l8.53125-23.691406c1.570313-4.359376 6.382813-6.621094 10.742188-5.050782zm0 0" fill="#7f8e94"/><path d="m301.589844 159.65625v.082031c-2.011719 19.808594-12.167969 66.898438-62.363282 66.898438-4.070312.019531-8.140624-.261719-12.167968-.839844-22.246094-3.359375-19.558594-15.949219-50.78125-15.949219-3.875-.042968-7.746094.210938-11.582032.757813h-.085937c-22.746094 3.1875-19.808594 16.03125-51.285156 16.03125-3.707031.03125-7.414063-.25-11.078125-.839844-40.625-6.378906-49.4375-47.84375-51.285156-66.058594v-.082031c-.027344-.398438.03125-.800781.167968-1.175781l3.863282-18.96875v-.085938c8.980468-20.5625 31.140624-62.027343 66.476562-69.832031 14.777344-2.910156 30.113281-.34375 43.140625 7.21875h.085937c4 2.140625 7.871094 4.523438 11.582032 7.132812 9.402344-6.929687 20.152344-11.820312 31.558594-14.351562 49.019531-10.070312 78.980468 45.074219 89.726562 69.832031v.085938l3.859375 18.71875c.097656.46875.15625.945312.167969 1.425781zm0 0" fill="#dfc49c"/><path d="m278.339844 159.65625v.082031c-1.84375 18.214844-10.660156 59.679688-51.28125 66.058594-22.246094-3.359375-19.558594-15.949219-50.78125-15.949219-3.875-.042968-7.746094.210938-11.582032.757813h-.085937c-3.835937-.546875-7.707031-.800781-11.582031-.757813-31.222656 0-28.539063 12.589844-50.78125 15.949219-40.625-6.378906-49.4375-47.84375-51.285156-66.058594v-.082031c-.027344-.398438.03125-.800781.167968-1.175781l3.863282-18.96875v-.085938c8.980468-20.5625 31.140624-62.027343 66.476562-69.832031 11.402344 2.53125 22.152344 7.421875 31.558594 14.351562 3.710937-2.609374 7.578125-4.992187 11.582031-7.132812h.085937c4 2.140625 7.871094 4.523438 11.582032 7.132812 9.402344-6.929687 20.152344-11.820312 31.558594-14.351562 35.421874 7.804688 57.496093 49.269531 66.476562 69.832031v.085938l3.859375 18.71875c.097656.46875.15625.945312.167969 1.425781zm0 0" fill="#ffe0b2"/><path d="m302.179688 170.316406c-.011719 3.980469-.238282 7.960938-.671876 11.917969-6.546874 58-60.097656 103.15625-125.230468 103.15625-3.863282 0-7.722656-.167969-11.582032-.503906-42.414062-2.816407-80.542968-26.835938-101.394531-63.875-6.527343-12.023438-10.6875-25.1875-12.253906-38.777344-.4375-3.957031-.660156-7.9375-.671875-11.917969-.019531-3.535156.179688-7.066406.585938-10.578125 1.847656 18.214844 10.660156 59.679688 51.285156 66.058594 3.664062.589844 7.371094.871094 11.078125.839844 31.476562 0 28.539062-12.84375 51.285156-16.03125h.085937c3.835938-.546875 7.707032-.800781 11.582032-.757813 31.222656 0 28.535156 12.589844 50.78125 15.949219 4.027344.578125 8.097656.859375 12.167968.839844 9.238282.175781 18.390626-1.746094 26.777344-5.625 27.359375-13.09375 33.992188-45.660157 35.585938-61.273438.410156 3.511719.605468 7.042969.589844 10.578125zm0 0" fill="#624421"/><path d="m266.003906 221.011719c-20.816406 37.035156-58.921875 61.058593-101.308594 63.875-42.414062-2.816407-80.542968-26.835938-101.394531-63.875 8.382813 3.886719 17.539063 5.808593 26.773438 5.625 4.074219.019531 8.140625-.257813 12.171875-.839844 3.664062.589844 7.371094.871094 11.078125.839844 31.476562 0 28.539062-12.84375 51.285156-16.03125h.085937c22.746094 3.1875 19.808594 16.03125 51.28125 16.03125 3.710938.03125 7.417969-.25 11.082032-.839844 4.027344.578125 8.097656.859375 12.167968.839844 9.238282.175781 18.390626-1.746094 26.777344-5.625zm0 0" fill="#825a2c"/><path d="m254.066406 333.15625-41.328125 61.011719c-1.433593 2.117187-3.753906 3.464843-6.300781 3.664062-2.550781.195313-5.050781-.78125-6.792969-2.652343l-23.367187-25.101563 22.914062-29.542969 2.265625-2.9375 10.492188-13.515625 6.714843-8.644531c2.230469-2.65625 5.871094-3.660156 9.148438-2.519531l22.039062 7.59375c2.46875.851562 4.402344 2.804687 5.226563 5.28125.828125 2.480469.453125 5.199219-1.011719 7.363281zm0 0" fill="#f44335"/><path d="m176.277344 370.078125-23.371094 25.105469c-1.742188 1.871094-4.242188 2.847656-6.792969 2.648437-2.546875-.195312-4.867187-1.542969-6.300781-3.660156l-41.328125-61.015625c-1.464844-2.164062-1.839844-4.882812-1.011719-7.363281.824219-2.476563 2.757813-4.429688 5.226563-5.28125l22.042969-7.59375c3.273437-1.140625 6.917968-.136719 9.148437 2.519531l6.714844 8.644531 10.492187 13.515625 2.265625 2.9375zm0 0" fill="#f44335"/><path d="m489.855469 293.613281c-18.96875 52.628907-60.851563 44.992188-60.851563 44.992188 0-2.4375-.085937-4.785157-.253906-7.050781 47.339844-33.15625 41.882812-72.269532 29.378906-98.792969 5.101563-3.503907 9.65625-7.746094 13.511719-12.589844 0 0 37.183594 20.816406 18.214844 73.441406zm0 0" fill="#545c60"/><path d="m176.277344 293.78125c-69.023438 0-126.453125-47.5625-133.574219-110.628906-.46875-4.269532-.710937-8.558594-.722656-12.851563.019531-7.160156.683593-14.304687 1.984375-21.347656.796875-4.039063 1.800781-8.035156 3-11.972656 1.445312-4.3125 6.0625-6.6875 10.410156-5.359375s6.847656 5.875 5.640625 10.257812c-1.007813 3.3125-1.871094 6.773438-2.566406 10.246094-1.101563 5.996094-1.664063 12.078125-1.679688 18.175781.007813 3.679688.21875 7.355469.621094 11.015625 6.15625 54.523438 56.410156 95.679688 116.886719 95.679688 60.476562 0 110.730468-41.15625 116.882812-95.730469.40625-3.640625.613282-7.300781.625-10.964844-.019531-6.148437-.589844-12.285156-1.707031-18.328125-.667969-3.320312-1.53125-6.78125-2.539063-10.09375-.972656-2.894531-.292968-6.085937 1.769532-8.335937s5.183594-3.203125 8.152344-2.492188c2.96875.714844 5.3125 2.984375 6.125 5.929688 1.148437 3.730469 2.148437 7.710937 2.976562 11.820312 2.140625 11.304688 2.574219 22.867188 1.289062 34.300781-7.125 63.117188-64.550781 110.679688-133.574218 110.679688zm0 0"/><path d="m51.046875 201.453125h-17.457031c-13.902344-.011719-25.167969-11.277344-25.183594-25.179687.066406-13.878907 11.300781-25.113282 25.183594-25.179688h17.371094c4.636718 0 8.394531 3.757812 8.394531 8.394531s-3.757813 8.394531-8.394531 8.394531h-17.289063c-2.214844-.039062-4.347656.832032-5.902344 2.40625-1.648437 1.554688-2.578125 3.722657-2.574219 5.984376.003907 4.636718 3.757813 8.390624 8.394532 8.394531h17.457031c4.636719 0 8.394531 3.757812 8.394531 8.394531 0 4.632812-3.757812 8.390625-8.394531 8.390625zm0 0"/><path d="m319.636719 201.453125h-17.457031c-4.636719 0-8.394532-3.757813-8.394532-8.390625 0-4.636719 3.757813-8.394531 8.394532-8.394531h17.457031c4.632812-.003907 8.390625-3.757813 8.394531-8.394531.019531-2.183594-.851562-4.285157-2.410156-5.820313-1.554688-1.644531-3.71875-2.578125-5.984375-2.570313h-17.375c-4.636719 0-8.394531-3.757812-8.394531-8.394531s3.757812-8.394531 8.394531-8.394531h17.289062c13.914063.019531 25.199219 11.269531 25.265625 25.179688-.015625 13.902343-11.28125 25.167968-25.179687 25.179687zm0 0"/><path d="m318.890625 167.882812c-.167969 0-.328125-.011718-.492187-.019531-4.621094-.265625-8.152344-4.226562-7.890626-8.851562.070313-1.574219.0625-10.835938.0625-12.113281-1.257812-72.96875-61.324218-131.15625-134.292968-130.097657-72.972656-1.058593-133.035156 57.128907-134.296875 130.097657 0 1.285156-.007813 10.554687.066406 12.121093.140625 4.546875-3.371094 8.378907-7.914063 8.636719-4.542968.257812-8.464843-3.152344-8.839843-7.683594-.089844-1.484375-.097657-11.683594-.097657-13.074218 1.269532-82.234376 68.84375-147.933594 151.082032-146.8867192 82.234375-1.0468748 149.8125 64.6523432 151.082031 146.8867192 0 1.390624-.007813 11.589843-.097656 13.074218-.257813 4.433594-3.925781 7.902344-8.371094 7.910156zm0 0"/><path d="m54.992188 147.863281c-2.222657.011719-4.359376-.863281-5.933594-2.429687-1.574219-1.570313-2.460938-3.699219-2.460938-5.921875 0-1.175781.234375-2.34375.695313-3.425781 10.074219-23.15625 32.394531-63.523438 68.722656-73.769532 20.804687-5.902344 42.6875-.910156 65.074219 14.753906 3.722656 2.683594 4.601562 7.859376 1.972656 11.621094-2.632812 3.761719-7.796875 4.710938-11.59375 2.132813-18.042969-12.632813-35.140625-16.789063-50.894531-12.351563-30.625 8.636719-50.527344 47.484375-57.78125 64.066406-1.261719 3.203126-4.355469 5.316407-7.800781 5.324219zm0 0"/><path d="m297.5625 147.863281c-3.601562.011719-6.804688-2.277343-7.960938-5.6875-7.375-16.785156-27.21875-55.132812-57.621093-63.707031-15.738281-4.441406-32.851563-.277344-50.894531 12.351562-2.457032 1.769532-5.671876 2.082032-8.421876.8125-2.746093-1.265624-4.601562-3.914062-4.847656-6.929687-.25-3.019531 1.144532-5.933594 3.648438-7.636719 22.375-15.65625 44.253906-20.636718 65.074218-14.753906 36.324219 10.246094 58.644532 50.613281 68.71875 73.773438 1.128907 2.597656.875 5.589843-.675781 7.960937s-4.1875 3.804687-7.019531 3.816406zm0 0"/><path d="m151.097656 345.988281c-2.226562.003907-4.363281-.878906-5.9375-2.457031-1.574218-1.574219-2.457031-3.707031-2.457031-5.933594v-54.46875c0-4.636718 3.757813-8.394531 8.394531-8.394531 4.632813 0 8.390625 3.757813 8.390625 8.394531v54.46875c.003907 2.226563-.882812 4.359375-2.457031 5.933594-1.574219 1.578125-3.707031 2.460938-5.933594 2.457031zm0 0"/><path d="m201.457031 345.988281c-2.226562.003907-4.363281-.878906-5.9375-2.457031-1.574219-1.574219-2.457031-3.707031-2.457031-5.933594v-54.46875c0-4.636718 3.757812-8.394531 8.394531-8.394531s8.394531 3.757813 8.394531 8.394531v54.46875c0 2.226563-.882812 4.359375-2.457031 5.933594-1.574219 1.578125-3.710937 2.460938-5.9375 2.457031zm0 0"/><path d="m143.207031 335.75h-.085937c-4.625-.023438-8.363282-3.785156-8.351563-8.414062.011719-4.628907 3.765625-8.371094 8.394531-8.371094 4.628907 0 8.382813 3.742187 8.394532 8.371094.011718 4.628906-3.726563 8.390624-8.351563 8.414062zm0 0"/><path d="m301.757812 503.617188h-276.5625c-13.902343-.011719-25.164062-11.277344-25.179687-25.179688v-50.359375c.121094-54.386719 40.1875-100.417969 94.039063-108.03125 2.972656-.410156 5.9375.800781 7.773437 3.171875 1.839844 2.371094 2.273437 5.542969 1.140625 8.320312-1.132812 2.777344-3.664062 4.738282-6.632812 5.144532-45.550782 6.449218-79.441407 45.390625-79.535157 91.394531v50.359375c.003907 4.636719 3.757813 8.390625 8.394531 8.394531h276.5625c4.636719 0 8.394532 3.757813 8.394532 8.394531 0 4.632813-3.757813 8.390626-8.394532 8.390626zm0 0"/><path d="m321.570312 372.847656c-2.515624.007813-4.898437-1.117187-6.492187-3.0625-8.984375-10.945312-20.332031-19.710937-33.1875-25.648437-8.136719-3.746094-16.785156-6.257813-25.664063-7.453125-2.972656-.402344-5.503906-2.363282-6.636718-5.136719-1.136719-2.777344-.707032-5.949219 1.128906-8.320313 1.835938-2.375 4.796875-3.585937 7.769531-3.179687 10.523438 1.417969 20.773438 4.398437 30.417969 8.832031 15.160156 7.003906 28.539062 17.34375 39.140625 30.25 2.058594 2.503906 2.488281 5.972656 1.105469 8.910156-1.386719 2.933594-4.335938 4.804688-7.582032 4.808594zm0 0"/><path d="m206.800781 411.292969c-2.332031 0-4.558593-.972657-6.148437-2.683594l-30.523438-32.816406c-2.800781-3.011719-3.003906-7.605469-.484375-10.851563l42.355469-54.632812c4.410156-5.472656 11.777344-7.597656 18.425781-5.3125l32.515625 11.191406c2.460938.847656 4.386719 2.785156 5.21875 5.253906.835938 2.464844.476563 5.175782-.964844 7.34375l-1.453124 2.171875-52 76.65625c-1.433594 2.113281-3.753907 3.460938-6.300782 3.65625-.214844.015625-.425781.023438-.640625.023438zm-19.523437-41.707031 18.492187 19.878906 41.347657-60.96875-22.066407-7.597656zm0 0"/><path d="m145.753906 411.292969c-.214844 0-.429687-.011719-.640625-.027344-2.550781-.195313-4.871093-1.539063-6.304687-3.65625l-53.449219-78.824219c-1.445313-2.167968-1.800781-4.878906-.96875-7.347656.832031-2.464844 2.761719-4.40625 5.222656-5.253906l32.425781-11.152344c6.703126-2.339844 14.152344-.191406 18.582032 5.359375l42.285156 54.550781c2.523438 3.246094 2.316406 7.839844-.480469 10.851563l-30.527343 32.816406c-1.589844 1.707031-3.8125 2.679687-6.144532 2.683594zm-40.386718-82.894531 41.417968 61.066406 18.496094-19.878906-37.984375-48.984376zm0 0"/><path d="m176.277344 503.617188c-4.636719 0-8.394532-3.757813-8.394532-8.390626v-125.148437c0-4.632813 3.757813-8.390625 8.394532-8.390625 4.636718 0 8.394531 3.757812 8.394531 8.390625v125.148437c0 4.632813-3.757813 8.390626-8.394531 8.390626zm0 0"/><path d="m100.734375 503.617188h-33.574219c-4.632812 0-8.390625-3.757813-8.390625-8.390626v-158.722656c0-4.632812 3.757813-8.390625 8.390625-8.390625 4.636719 0 8.394532 3.757813 8.394532 8.390625v150.328125h16.789062v-150.328125c0-4.632812 3.757812-8.390625 8.390625-8.390625 4.636719 0 8.394531 3.757813 8.394531 8.390625v158.722656c0 4.632813-3.757812 8.390626-8.394531 8.390626zm0 0"/><path d="m285.390625 503.617188h-33.574219c-4.632812 0-8.390625-3.757813-8.390625-8.390626v-158.722656c0-4.632812 3.757813-8.390625 8.390625-8.390625 4.636719 0 8.394532 3.757813 8.394532 8.390625v150.328125h17.253906c1.347656-3.867187 5.292968-6.199219 9.332031-5.511719 4.039063.683594 6.992187 4.183594 6.988281 8.28125v5.625c0 4.632813-3.757812 8.390626-8.394531 8.390626zm0 0"/><path d="m285.390625 473.152344c-2.226563 0-4.363281-.882813-5.9375-2.457032-1.574219-1.574218-2.457031-3.710937-2.457031-5.9375v-128.253906c0-4.632812 3.757812-8.390625 8.394531-8.390625s8.394531 3.757813 8.394531 8.390625v128.253906c0 2.226563-.882812 4.363282-2.457031 5.9375-1.574219 1.574219-3.710937 2.457032-5.9375 2.457032zm0 0"/><path d="m117.523438 444.863281h-67.148438c-4.636719 0-8.394531-3.757812-8.394531-8.390625 0-4.636718 3.757812-8.394531 8.394531-8.394531h67.148438c4.632812 0 8.390624 3.757813 8.390624 8.394531 0 4.632813-3.757812 8.390625-8.390624 8.390625zm0 0"/><path d="m285.390625 444.863281h-50.359375c-4.636719 0-8.394531-3.757812-8.394531-8.390625 0-4.636718 3.757812-8.394531 8.394531-8.394531h50.359375c4.636719 0 8.394531 3.757813 8.394531 8.394531 0 4.632813-3.757812 8.390625-8.394531 8.390625zm0 0"/><path d="m434.046875 347.300781c-2.1875.027344-4.375-.117187-6.542969-.4375-4.023437-.730469-6.929687-4.261719-6.878906-8.351562-.160156-22.8125-14.257812-43.207031-35.542969-51.417969-4.328125-1.597656-6.566406-6.382812-5.015625-10.730469l14.230469-39.480469c.746094-2.101562 2.300781-3.8125 4.316406-4.761718 2.015625-.949219 4.328125-1.050782 6.417969-.289063 21.625 7.238281 45.472656.515625 60.128906-16.949219 2.574219-3.179687 7.066406-4.039062 10.632813-2.039062.433593.238281 43.058593 24.960938 21.933593 83.613281-16.464843 45.703125-49.613281 50.84375-63.679687 50.84375zm-35.566406-72.535156c21.34375 11.023437 35.808593 31.941406 38.582031 55.804687 10.925781-.632812 32.808594-6.320312 44.875-39.804687 12.023438-33.394531-1.210938-51.785156-9.195312-59.269531-17.351563 16.605468-41.824219 23.488281-65.289063 18.359375zm0 0"/><path d="m298.226562 504.027344c-8.203124-.007813-15.886718-4.003906-20.605468-10.714844-4.71875-6.707031-5.882813-15.292969-3.117188-23.015625l93.886719-260.585937c4.78125-12.992188 19.148437-19.6875 32.167969-14.992188 13.019531 4.691406 19.8125 19.011719 15.210937 32.0625l-93.878906 260.59375c-3.597656 9.976562-13.058594 16.632812-23.664063 16.652344zm93.835938-294.179688c-3.53125.011719-6.683594 2.226563-7.890625 5.550782l-93.871094 260.589843c-1.558593 4.363281.703125 9.164063 5.058594 10.742188h.007813c4.363281 1.570312 9.167968-.695313 10.738281-5.058594l93.875-260.578125c.925781-2.574219.539062-5.4375-1.039063-7.675781-1.574218-2.238281-4.140625-3.570313-6.878906-3.570313zm0 0"/><path d="m356.375 276.226562c-.96875 0-1.933594-.171874-2.84375-.503906l-23.6875-8.53125c-4.195312-1.503906-7.617188-4.613281-9.511719-8.644531s-2.109375-8.648437-.597656-12.835937l8.535156-23.691407c3.144531-8.722656 12.765625-13.242187 21.484375-10.097656l23.683594 8.535156c2.09375.75 3.804688 2.304688 4.753906 4.320313.945313 2.015625 1.054688 4.320312.296875 6.414062l-14.222656 39.484375c-.75 2.097657-2.304687 3.804688-4.320313 4.753907-1.117187.523437-2.335937.792968-3.570312.796874zm-12.3125-48.515624-11.375 31.589843 2.84375-7.890625 15.792969 5.691406 8.535156-23.699218zm0 0"/><path d="m113.324219 235.027344c-57.800781 0-68.644531-55.425782-70.628907-73.691406-.59375-3.042969.53125-6.164063 2.933594-8.125 2.398438-1.960938 5.683594-2.445313 8.546875-1.253907 2.859375 1.191407 4.835938 3.859375 5.136719 6.941407 2.25 22.160156 12.257812 59.34375 54.011719 59.34375 9.5625.792968 19.105469-1.71875 27.035156-7.121094 10.574219-7.105469 23.207031-10.503906 35.917969-9.667969 4.636718 0 8.394531 3.757813 8.394531 8.394531 0 4.636719-3.757813 8.394532-8.394531 8.394532-9.5625-.792969-19.105469 1.71875-27.035156 7.121093-10.574219 7.101563-23.203126 10.5-35.917969 9.664063zm0 0"/><path d="m239.226562 235.027344c-12.710937.835937-25.339843-2.5625-35.917968-9.664063-7.925782-5.402343-17.472656-7.914062-27.03125-7.121093-4.636719 0-8.394532-3.757813-8.394532-8.394532 0-4.636718 3.757813-8.394531 8.394532-8.394531 12.710937-.835937 25.339844 2.5625 35.917968 9.667969 7.925782 5.402344 17.472657 7.914062 27.03125 7.121094 41.753907 0 51.761719-37.183594 54.007813-59.34375.050781-.496094.148437-.992188.289063-1.472657.914062-3.761719 4.28125-6.410156 8.152343-6.414062 2.226563-.003907 4.359375.882812 5.933594 2.457031s2.460937 3.707031 2.457031 5.933594c0 .605468-.066406 1.207031-.195312 1.796875-1.945313 18.140625-12.703125 73.828125-70.644532 73.828125zm0 0"/></svg>