<svg height="504pt" viewBox="0 0 504 504.0285" width="504pt" xmlns="http://www.w3.org/2000/svg"><path d="m312.25 354.550781h-271.945312c-25.015626-19.890625-30.050782-57.242187-15.109376-87.792969 16.785157-34.246093 8.394532-77.136718 8.394532-77.136718h285.375s-8.394532 42.890625 8.394531 77.136718c14.941406 30.550782 9.902344 67.902344-15.109375 87.792969zm0 0" fill="#783e22"/><path d="m289 354.550781h-248.695312c-25.015626-19.890625-30.050782-57.242187-15.109376-87.792969 16.785157-34.246093 8.394532-77.136718 8.394532-77.136718h262.125s-8.394532 42.890625 8.394531 77.136718c14.941406 30.550782 9.902344 67.902344-15.109375 87.792969zm0 0" fill="#a0522d"/><path d="m100.734375 328.363281h151.082031v166.863281h-151.082031zm0 0" fill="#f44335"/><path d="m318.964844 146.898438c0 1.34375 0 15.359374-.082032 16.785156h-285.210937c-.082031-1.425782-.082031-15.441406-.082031-16.785156.964844-73.144532 58.027344-133.238282 131.019531-137.988282 3.859375-.335937 7.722656-.503906 11.667969-.503906 77.636718-1.136719 141.507812 60.855469 142.6875 138.492188zm0 0" fill="#6d4122"/><path d="m295.714844 146.898438c0 1.34375 0 15.359374-.082032 16.785156h-261.960937c-.082031-1.425782-.082031-15.441406-.082031-16.785156.964844-73.144532 58.027344-133.238282 131.019531-137.988282 73.023437 4.714844 130.128906 64.816406 131.105469 137.988282zm0 0" fill="#91562d"/><path d="m302.261719 159.488281h17.375c9.242187.066407 16.71875 7.542969 16.785156 16.785157-.027344 9.261718-7.527344 16.761718-16.785156 16.789062h-286.046875c-9.261719-.027344-16.761719-7.527344-16.789063-16.789062.066407-9.242188 7.542969-16.71875 16.789063-16.785157zm0 0" fill="#dfc49c"/><path d="m201.457031 283.125v54.472656l-2.265625 2.9375-22.914062 29.542969-22.914063-29.542969-2.265625-2.9375v-54.472656zm0 0" fill="#ffe0b2"/><path d="m67.160156 336.503906v158.722656h-41.964844c-9.261718-.027343-16.761718-7.527343-16.789062-16.789062v-50.359375c-.03125-39.394531 22.933594-75.183594 58.753906-91.574219zm0 0" fill="#f44335"/><path d="m321.566406 364.457031-19.808594 130.769531h-16.367187v-158.722656c14.019531 6.460938 26.386719 16.015625 36.175781 27.953125zm0 0" fill="#f44335"/><path d="m100.734375 328.363281v166.863281h-33.574219v-158.722656c8.890625-4.09375 18.335938-6.835937 28.035156-8.140625zm0 0" fill="#3f51b5"/><path d="m285.390625 336.503906v158.722656h-33.574219v-166.863281h5.539063c9.699219 1.304688 19.148437 4.046875 28.035156 8.140625zm0 0" fill="#3f51b5"/><path d="m387.960938 279.210938s41.585937 14.984374 41.050781 59.398437c0 0 41.855469 7.640625 60.820312-45.003906 18.964844-52.640625-18.148437-73.445313-18.148437-73.445313-27.910156 34.550782-69.5 19.570313-69.5 19.570313zm0 0" fill="#7f8e94"/><path d="m397.769531 202.453125c8.722657 3.140625 13.246094 12.761719 10.101563 21.484375l-93.875 260.589844c-3.140625 8.722656-12.761719 13.246094-21.484375 10.101562-8.722657-3.140625-13.246094-12.757812-10.101563-21.480468l93.875-260.589844c3.144532-8.722656 12.761719-13.246094 21.484375-10.105469zm0 0" fill="#825a2c"/><path d="m346.90625 219.816406 23.691406 8.535156-14.226562 39.480469-23.6875-8.53125c-4.363282-1.574219-6.625-6.382812-5.050782-10.742187l8.53125-23.691406c1.570313-4.359376 6.382813-6.621094 10.742188-5.050782zm0 0" fill="#7f8e94"/><path d="m254.066406 333.15625-41.328125 61.011719c-1.433593 2.117187-3.753906 3.464843-6.300781 3.664062-2.550781.195313-5.050781-.78125-6.792969-2.652343l-23.367187-25.101563 22.914062-29.542969 2.265625-2.9375 10.492188-13.515625 6.714843-8.644531c2.230469-2.65625 5.871094-3.660156 9.148438-2.519531l22.039062 7.59375c2.46875.851562 4.402344 2.804687 5.226563 5.28125.828125 2.480469.453125 5.199219-1.011719 7.363281zm0 0" fill="#f44335"/><path d="m176.277344 370.078125-23.371094 25.105469c-1.742188 1.871094-4.242188 2.847656-6.792969 2.648437-2.546875-.195312-4.867187-1.542969-6.300781-3.660156l-41.328125-61.015625c-1.464844-2.164062-1.839844-4.882812-1.011719-7.363281.824219-2.476563 2.757813-4.429688 5.226563-5.28125l22.042969-7.59375c3.273437-1.140625 6.917968-.136719 9.148437 2.519531l6.714844 8.644531 10.492187 13.515625 2.265625 2.9375zm0 0" fill="#f44335"/><path d="m489.855469 293.613281c-18.96875 52.628907-60.851563 44.992188-60.851563 44.992188 0-2.4375-.085937-4.785157-.253906-7.050781 47.339844-33.15625 41.882812-72.269532 29.378906-98.792969 5.101563-3.503907 9.65625-7.746094 13.511719-12.589844 0 0 37.183594 20.816406 18.214844 73.441406zm0 0" fill="#545c60"/><path d="m302.179688 170.316406c-.011719 3.980469-.238282 7.960938-.671876 11.917969-.421874 3.609375-1.007812 7.21875-1.765624 10.742187-11.804688 46.988282-50.453126 82.433594-98.285157 90.148438-8.304687 1.523438-16.734375 2.28125-25.179687 2.265625-3.945313 0-7.808594-.167969-11.582032-.503906-4.5625-.328125-9.105468-.917969-13.597656-1.761719-47.976562-7.660156-86.695312-43.304688-98.289062-90.484375-.753906-3.441406-1.34375-6.882813-1.761719-10.40625-.4375-3.957031-.660156-7.9375-.671875-11.917969-.019531-3.617187.179688-7.234375.585938-10.828125.253906-3.023437.757812-6.042969 1.261718-9.066406.585938-2.9375 1.339844-5.789063 2.097656-8.644531l4.449219-24.257813c42.46875-10.492187 64.039063-28.957031 74.53125-42.46875 4.054688-4.84375 7.234375-10.351562 9.402344-16.285156 0 0 26.691406 46.753906 103.910156 50.863281 2.519531.167969 5.035157.253906 7.722657.253906 7.5625.152344 15.125-.097656 22.660156-.753906 8.777344 10.242188 16.042968 21.6875 21.574218 33.992188.671876 2.433594 1.257813 4.867187 1.761719 7.300781.503907 3.023437 1.007813 6.042969 1.257813 9.066406.410156 3.59375.605468 7.210938.589844 10.828125zm0 0" fill="#dfc49c"/><path d="m278.929688 170.316406c-.011719 3.980469-.238282 7.960938-.671876 11.917969-.421874 3.609375-1.007812 7.21875-1.761718 10.742187-11.808594 46.988282-50.457032 82.433594-98.289063 90.148438-4.46875.84375-8.980469 1.433594-13.511719 1.761719-4.5625-.328125-9.105468-.917969-13.597656-1.761719-47.976562-7.660156-86.695312-43.304688-98.289062-90.484375-.753906-3.441406-1.34375-6.882813-1.761719-10.40625-.4375-3.957031-.660156-7.9375-.671875-11.917969-.019531-3.617187.179688-7.234375.585938-10.828125.253906-3.023437.757812-6.042969 1.261718-9.066406.585938-2.9375 1.339844-5.789063 2.097656-8.644531l4.449219-24.257813c42.46875-10.492187 64.039063-28.957031 74.53125-42.46875 17.292969 16.03125 52.375 37.851563 113.3125 34.578125 2.351563-.082031 4.699219-.25 7.132813-.5.21875.230469.417968.484375.589844.753906 8.578124 9.996094 15.644531 21.195313 20.984374 33.238282.671876 2.433594 1.257813 4.867187 1.761719 7.300781.503907 3.023437 1.007813 6.042969 1.257813 9.066406.410156 3.59375.605468 7.210938.589844 10.828125zm0 0" fill="#ffe0b2"/><path d="m51.046875 201.453125h-17.457031c-13.902344-.011719-25.167969-11.277344-25.183594-25.179687.066406-13.878907 11.300781-25.113282 25.183594-25.179688h17.371094c4.636718 0 8.394531 3.757812 8.394531 8.394531s-3.757813 8.394531-8.394531 8.394531h-17.289063c-2.214844-.039062-4.347656.832032-5.902344 2.40625-1.648437 1.554688-2.578125 3.722657-2.574219 5.984376.003907 4.636718 3.757813 8.390624 8.394532 8.394531h17.457031c4.636719 0 8.394531 3.757812 8.394531 8.394531 0 4.632812-3.757812 8.390625-8.394531 8.390625zm0 0"/><path d="m319.636719 201.453125h-17.457031c-4.636719 0-8.394532-3.757813-8.394532-8.390625 0-4.636719 3.757813-8.394531 8.394532-8.394531h17.457031c4.632812-.003907 8.390625-3.757813 8.394531-8.394531.019531-2.183594-.851562-4.285157-2.410156-5.820313-1.554688-1.644531-3.71875-2.578125-5.984375-2.570313h-17.375c-4.636719 0-8.394531-3.757812-8.394531-8.394531s3.757812-8.394531 8.394531-8.394531h17.289062c13.914063.019531 25.199219 11.269531 25.265625 25.179688-.015625 13.902343-11.28125 25.167968-25.179687 25.179687zm0 0"/><path d="m318.890625 167.882812c-.167969 0-.328125-.011718-.492187-.019531-4.621094-.265625-8.152344-4.226562-7.890626-8.851562.070313-1.574219.0625-10.835938.0625-12.113281-1.257812-72.96875-61.324218-131.15625-134.292968-130.097657-72.972656-1.058593-133.035156 57.128907-134.296875 130.097657 0 1.285156-.007813 10.554687.066406 12.121093.140625 4.546875-3.371094 8.378907-7.914063 8.636719-4.542968.257812-8.464843-3.152344-8.839843-7.683594-.089844-1.484375-.097657-11.683594-.097657-13.074218 1.269532-82.234376 68.84375-147.933594 151.082032-146.8867192 82.234375-1.0468748 149.8125 64.6523432 151.082031 146.8867192 0 1.390624-.007813 11.589843-.097656 13.074218-.257813 4.433594-3.925781 7.902344-8.371094 7.910156zm0 0"/><path d="m151.097656 345.988281c-2.226562.003907-4.363281-.878906-5.9375-2.457031-1.574218-1.574219-2.457031-3.707031-2.457031-5.933594v-54.46875c0-4.636718 3.757813-8.394531 8.394531-8.394531 4.632813 0 8.390625 3.757813 8.390625 8.394531v54.46875c.003907 2.226563-.882812 4.359375-2.457031 5.933594-1.574219 1.578125-3.707031 2.460938-5.933594 2.457031zm0 0"/><path d="m201.457031 345.988281c-2.226562.003907-4.363281-.878906-5.9375-2.457031-1.574219-1.574219-2.457031-3.707031-2.457031-5.933594v-54.46875c0-4.636718 3.757812-8.394531 8.394531-8.394531s8.394531 3.757813 8.394531 8.394531v54.46875c0 2.226563-.882812 4.359375-2.457031 5.933594-1.574219 1.578125-3.710937 2.460938-5.9375 2.457031zm0 0"/><path d="m143.207031 335.75h-.085937c-4.625-.023438-8.363282-3.785156-8.351563-8.414062.011719-4.628907 3.765625-8.371094 8.394531-8.371094 4.628907 0 8.382813 3.742187 8.394532 8.371094.011718 4.628906-3.726563 8.390624-8.351563 8.414062zm0 0"/><path d="m301.757812 503.617188h-276.5625c-13.902343-.011719-25.164062-11.277344-25.179687-25.179688v-50.359375c.121094-54.386719 40.1875-100.417969 94.039063-108.03125 2.972656-.410156 5.9375.800781 7.773437 3.171875 1.839844 2.371094 2.273437 5.542969 1.140625 8.320312-1.132812 2.777344-3.664062 4.738282-6.632812 5.144532-45.550782 6.449218-79.441407 45.390625-79.535157 91.394531v50.359375c.003907 4.636719 3.757813 8.390625 8.394531 8.394531h276.5625c4.636719 0 8.394532 3.757813 8.394532 8.394531 0 4.632813-3.757813 8.390626-8.394532 8.390626zm0 0"/><path d="m321.570312 372.847656c-2.515624.007813-4.898437-1.117187-6.492187-3.0625-8.984375-10.945312-20.332031-19.710937-33.1875-25.648437-8.136719-3.746094-16.785156-6.257813-25.664063-7.453125-2.972656-.402344-5.503906-2.363282-6.636718-5.136719-1.136719-2.777344-.707032-5.949219 1.128906-8.320313 1.835938-2.375 4.796875-3.585937 7.769531-3.179687 10.523438 1.417969 20.773438 4.398437 30.417969 8.832031 15.160156 7.003906 28.539062 17.34375 39.140625 30.25 2.058594 2.503906 2.488281 5.972656 1.105469 8.910156-1.386719 2.933594-4.335938 4.804688-7.582032 4.808594zm0 0"/><path d="m206.800781 411.292969c-2.332031 0-4.558593-.972657-6.148437-2.683594l-30.523438-32.816406c-2.800781-3.011719-3.003906-7.605469-.484375-10.851563l42.355469-54.632812c4.410156-5.472656 11.777344-7.597656 18.425781-5.3125l32.515625 11.191406c2.460938.847656 4.386719 2.785156 5.21875 5.253906.835938 2.464844.476563 5.175782-.964844 7.34375l-1.453124 2.171875-52 76.65625c-1.433594 2.113281-3.753907 3.460938-6.300782 3.65625-.214844.015625-.425781.023438-.640625.023438zm-19.523437-41.707031 18.492187 19.878906 41.347657-60.96875-22.066407-7.597656zm0 0"/><path d="m145.753906 411.292969c-.214844 0-.429687-.011719-.640625-.027344-2.550781-.195313-4.871093-1.539063-6.304687-3.65625l-53.449219-78.824219c-1.445313-2.167968-1.800781-4.878906-.96875-7.347656.832031-2.464844 2.761719-4.40625 5.222656-5.253906l32.425781-11.152344c6.703126-2.339844 14.152344-.191406 18.582032 5.359375l42.285156 54.550781c2.523438 3.246094 2.316406 7.839844-.480469 10.851563l-30.527343 32.816406c-1.589844 1.707031-3.8125 2.679687-6.144532 2.683594zm-40.386718-82.894531 41.417968 61.066406 18.496094-19.878906-37.984375-48.984376zm0 0"/><path d="m176.277344 503.617188c-4.636719 0-8.394532-3.757813-8.394532-8.390626v-125.148437c0-4.632813 3.757813-8.390625 8.394532-8.390625 4.636718 0 8.394531 3.757812 8.394531 8.390625v125.148437c0 4.632813-3.757813 8.390626-8.394531 8.390626zm0 0"/><path d="m100.734375 503.617188h-33.574219c-4.632812 0-8.390625-3.757813-8.390625-8.390626v-158.722656c0-4.632812 3.757813-8.390625 8.390625-8.390625 4.636719 0 8.394532 3.757813 8.394532 8.390625v150.328125h16.789062v-150.328125c0-4.632812 3.757812-8.390625 8.390625-8.390625 4.636719 0 8.394531 3.757813 8.394531 8.390625v158.722656c0 4.632813-3.757812 8.390626-8.394531 8.390626zm0 0"/><path d="m285.390625 503.617188h-33.574219c-4.632812 0-8.390625-3.757813-8.390625-8.390626v-158.722656c0-4.632812 3.757813-8.390625 8.390625-8.390625 4.636719 0 8.394532 3.757813 8.394532 8.390625v150.328125h17.253906c1.347656-3.867187 5.292968-6.199219 9.332031-5.511719 4.039063.683594 6.992187 4.183594 6.988281 8.28125v5.625c0 4.632813-3.757812 8.390626-8.394531 8.390626zm0 0"/><path d="m285.390625 473.152344c-2.226563 0-4.363281-.882813-5.9375-2.457032-1.574219-1.574218-2.457031-3.710937-2.457031-5.9375v-128.253906c0-4.632812 3.757812-8.390625 8.394531-8.390625s8.394531 3.757813 8.394531 8.390625v128.253906c0 2.226563-.882812 4.363282-2.457031 5.9375-1.574219 1.574219-3.710937 2.457032-5.9375 2.457032zm0 0"/><path d="m117.523438 444.863281h-67.148438c-4.636719 0-8.394531-3.757812-8.394531-8.390625 0-4.636718 3.757812-8.394531 8.394531-8.394531h67.148438c4.632812 0 8.390624 3.757813 8.390624 8.394531 0 4.632813-3.757812 8.390625-8.390624 8.390625zm0 0"/><path d="m285.390625 444.863281h-50.359375c-4.636719 0-8.394531-3.757812-8.394531-8.390625 0-4.636718 3.757812-8.394531 8.394531-8.394531h50.359375c4.636719 0 8.394531 3.757813 8.394531 8.394531 0 4.632813-3.757812 8.390625-8.394531 8.390625zm0 0"/><path d="m434.046875 347.300781c-2.1875.027344-4.375-.117187-6.542969-.4375-4.023437-.730469-6.929687-4.261719-6.878906-8.351562-.160156-22.8125-14.257812-43.207031-35.542969-51.417969-4.328125-1.597656-6.566406-6.382812-5.015625-10.730469l14.230469-39.480469c.746094-2.101562 2.300781-3.8125 4.316406-4.761718 2.015625-.949219 4.328125-1.050782 6.417969-.289063 21.625 7.238281 45.472656.515625 60.128906-16.949219 2.574219-3.179687 7.066406-4.039062 10.632813-2.039062.433593.238281 43.058593 24.960938 21.933593 83.613281-16.464843 45.703125-49.613281 50.84375-63.679687 50.84375zm-35.566406-72.535156c21.34375 11.023437 35.808593 31.941406 38.582031 55.804687 10.925781-.632812 32.808594-6.320312 44.875-39.804687 12.023438-33.394531-1.210938-51.785156-9.195312-59.269531-17.351563 16.605468-41.824219 23.488281-65.289063 18.359375zm0 0"/><path d="m298.226562 504.027344c-8.203124-.007813-15.886718-4.003906-20.605468-10.714844-4.71875-6.707031-5.882813-15.292969-3.117188-23.015625l93.886719-260.585937c4.78125-12.992188 19.148437-19.6875 32.167969-14.992188 13.019531 4.691406 19.8125 19.011719 15.210937 32.0625l-93.878906 260.59375c-3.597656 9.976562-13.058594 16.632812-23.664063 16.652344zm93.835938-294.179688c-3.53125.011719-6.683594 2.226563-7.890625 5.550782l-93.871094 260.589843c-1.558593 4.363281.703125 9.164063 5.058594 10.742188h.007813c4.363281 1.570312 9.167968-.695313 10.738281-5.058594l93.875-260.578125c.925781-2.574219.539062-5.4375-1.039063-7.675781-1.574218-2.238281-4.140625-3.570313-6.878906-3.570313zm0 0"/><path d="m356.375 276.226562c-.96875 0-1.933594-.171874-2.84375-.503906l-23.6875-8.53125c-4.195312-1.503906-7.617188-4.613281-9.511719-8.644531s-2.109375-8.648437-.597656-12.835937l8.535156-23.691407c3.148438-8.71875 12.765625-13.238281 21.484375-10.097656l23.683594 8.535156c2.09375.75 3.804688 2.304688 4.753906 4.320313.945313 2.015625 1.054688 4.320312.296875 6.414062l-14.222656 39.484375c-.75 2.097657-2.304687 3.804688-4.320313 4.753907-1.117187.523437-2.335937.792968-3.570312.796874zm-12.3125-48.515624-11.375 31.589843 2.84375-7.890625 15.792969 5.691406 8.535156-23.699218zm0 0"/><path d="m40.308594 362.945312c-1.863282.003907-3.679688-.621093-5.148438-1.769531-27.375-21.3125-34.710937-61.820312-17.457031-96.328125 15.253906-30.5 7.746094-69.753906 7.671875-70.148437-.808594-4.5 2.132812-8.816407 6.617188-9.710938 4.484374-.898437 8.859374 1.960938 9.839843 6.425781.371094 1.828126 8.757813 45.207032-9.113281 80.941407-13.695312 27.378906-8.328125 59.164062 12.757812 75.574219 2.832032 2.203124 3.949219 5.960937 2.78125 9.351562-1.167968 3.390625-4.359374 5.667969-7.945312 5.664062zm0 0"/><path d="m312.269531 362.945312c-3.585937.003907-6.78125-2.273437-7.945312-5.664062-1.167969-3.390625-.050781-7.148438 2.78125-9.351562 21.082031-16.410157 26.449219-48.199219 12.757812-75.574219-17.871093-35.738281-9.484375-79.113281-9.117187-80.941407.984375-4.46875 5.359375-7.324218 9.84375-6.429687 4.480468.894531 7.425781 5.214844 6.617187 9.714844-.074219.394531-7.582031 39.648437 7.671875 70.148437 17.246094 34.507813 9.90625 75.015625-17.46875 96.328125-1.464844 1.148438-3.277344 1.773438-5.140625 1.769531zm0 0"/><path d="m54.34375 150.171875c-.511719 0-1.023438-.046875-1.527344-.140625-4.558594-.835938-7.574218-5.210938-6.738281-9.769531l4.449219-24.257813c.902344-4.492187 5.242187-7.429687 9.746094-6.601562 4.507812.828125 7.515624 5.117187 6.761718 9.636718l-4.445312 24.257813c-.730469 3.980469-4.199219 6.871094-8.246094 6.875zm0 0"/><path d="m176.292969 293.78125c-8.957031.015625-17.898438-.789062-26.714844-2.398438-51.375-8.136718-92.792969-46.410156-104.957031-96.984374-.820313-3.691407-1.453125-7.417969-1.894532-11.171876-.476562-4.289062-.71875-8.597656-.726562-12.910156-.019531-3.949218.191406-7.898437.636719-11.820312.246093-2.96875.769531-6.210938 1.320312-9.46875.65625-3.285156 1.433594-6.246094 2.210938-9.195313.964843-4.144531 4.878906-6.914062 9.109375-6.4375 4.230468.472657 7.433594 4.042969 7.449218 8.296875v.085938c.003907.722656-.089843 1.441406-.277343 2.140625-.730469 2.769531-1.433594 5.425781-1.984375 8.164062-.417969 2.53125-.894532 5.316407-1.128906 8.113281-.382813 3.359376-.566407 6.738282-.550782 10.121094.007813 3.679688.21875 7.355469.621094 11.015625.378906 3.15625.917969 6.324219 1.617188 9.5 10.742187 43.960938 46.898437 77.125 91.621093 84.042969 15.640625 2.824219 31.664063 2.824219 47.304688 0 44.574219-6.96875 80.652343-39.925781 91.613281-83.691406.691406-3.230469 1.230469-6.589844 1.625-9.933594.398438-3.632812.601562-7.28125.613281-10.933594.019531-3.289062-.160156-6.570312-.53125-9.835937-.265625-3.082031-.738281-5.871094-1.207031-8.664063-.410156-1.960937-.949219-4.214844-1.574219-6.460937-5.15625-11.164063-11.855469-21.546875-19.90625-30.84375-2.019531-2.289063-2.636719-5.488281-1.617187-8.363281 1.023437-2.875 3.523437-4.96875 6.535156-5.46875 3.007812-.5 6.050781.671874 7.949219 3.0625 9.539062 11.050781 17.34375 23.488281 23.148437 36.882812.792969 2.878906 1.433594 5.492188 1.964844 8.109375.609375 3.546875 1.132812 6.792969 1.402344 10.046875.4375 3.828125.644531 7.679688.625 11.535156-.015625 4.277344-.257813 8.550782-.722656 12.800782-.46875 3.96875-1.089844 7.835937-1.902344 11.617187-12.378906 50.378906-53.722656 88.453125-104.949219 96.648437-8.816406 1.609376-17.761719 2.410157-26.722656 2.398438zm0 0"/><path d="m58.777344 125.914062c-4.238282-.007812-7.808594-3.175781-8.316406-7.386718-.507813-4.207032 2.199218-8.136719 6.316406-9.15625 65.851562-16.234375 77.433594-51.507813 77.902344-53 .984374-3.203125 3.773437-5.523438 7.105468-5.910156 3.324219-.390626 6.5625 1.238281 8.226563 4.140624 1.269531 2.171876 32.546875 53.910157 126.308593 46.164063 2.226563-.230469 4.453126.453125 6.164063 1.902344 1.710937 1.445312 2.753906 3.527343 2.894531 5.761719.1875 2.21875-.515625 4.417968-1.953125 6.117187s-3.492187 2.757813-5.710937 2.941406c-77.640625 6.523438-117.507813-25.148437-133.574219-43.042969-9.753906 14.96875-32.613281 38.714844-83.347656 51.222657-.65625.167969-1.335938.25-2.015625.246093zm0 0"/></svg>