<svg height="512pt" viewBox="0 0 512 512.01255" width="512pt" xmlns="http://www.w3.org/2000/svg"><path d="m349.871094 435.210938v51.203124c-.027344 9.414063-7.652344 17.039063-17.066406 17.066407h-307.199219c-9.414063-.027344-17.039063-7.652344-17.066407-17.066407v-51.203124c0-2.898438.085938-5.714844.34375-8.53125 3.316407-40.152344 29.917969-74.605469 67.921876-87.980469 8.308593-2.980469 16.972656-4.84375 25.773437-5.546875h153.257813c8.796874.703125 17.464843 2.566406 25.769531 5.546875 38.003906 13.375 64.605469 47.828125 67.925781 87.980469.257812 2.816406.339844 5.632812.339844 8.53125zm0 0" fill="#6a1b9a"/><path d="m326.234375 435.210938v51.203124c-.027344 9.414063-7.652344 17.039063-17.066406 17.066407h-283.5625c-9.414063-.027344-17.039063-7.652344-17.066407-17.066407v-51.203124c0-2.898438.085938-5.714844.34375-8.53125 3.316407-40.152344 29.917969-74.605469 67.921876-87.980469 8.308593-2.980469 16.972656-4.84375 25.773437-5.546875h129.621094c8.796875.703125 17.460937 2.566406 25.769531 5.546875 38.003906 13.375 64.605469 47.828125 67.925781 87.980469.253907 2.816406.339844 5.632812.339844 8.53125zm0 0" fill="#9d27b0"/><path d="m128.007812 332.8125 51.199219 51.199219 51.199219-51.199219zm0 0" fill="#fdd7ad"/><path d="m324.273438 154.890625c0 1.367187 0 11.777344-.085938 13.230469h-289.960938c-.085937-1.453125-.085937-11.863282-.085937-13.230469-.308594-75.863281 57.621094-139.285156 133.203125-145.832031 3.925781-.34375 7.851562-.511719 11.863281-.511719 80.46875.355469 145.417969 65.875 145.066407 146.34375zm0 0" fill="#6d4122"/><path d="m300.636719 154.890625c0 1.367187 0 11.777344-.085938 13.230469h-266.324219c-.085937-1.453125-.085937-11.863282-.085937-13.230469-.308594-75.863281 57.621094-139.285156 133.203125-145.832031 75.617188 6.507812 133.589844 69.941406 133.292969 145.832031zm0 0" fill="#91562d"/><path d="m306.609375 162.144531h17.664063c9.398437.070313 17 7.671875 17.066406 17.066407-.027344 9.414062-7.652344 17.039062-17.066406 17.066406h-290.132813c-9.414063-.027344-17.039063-7.652344-17.066406-17.066406.066406-9.394532 7.667969-16.996094 17.066406-17.066407zm0 0" fill="#dfc49c"/><path d="m204.804688 287.84375v60.328125l-25.597657 35.839844-25.601562-35.839844v-60.328125zm0 0" fill="#ffe0b2"/><path d="m76.804688 338.699219v31.890625c.023437 2.890625-1.445313 5.585937-3.878907 7.144531-15.335937 9.070313-26.128906 24.191406-29.71875 41.644531-.597656 4.175782-4.164062 7.285156-8.382812 7.300782h-25.941407c3.316407-40.152344 29.917969-74.605469 67.921876-87.980469zm0 0" fill="#673ab7"/><path d="m503.472656 298.679688v136.53125c-.027344 9.414062-7.652344 17.039062-17.066406 17.066406h-187.734375c-9.414063-.027344-17.039063-7.652344-17.066406-17.066406v-136.53125c.027343-9.414063 7.652343-17.039063 17.066406-17.066407h187.734375c9.398438.066407 17 7.667969 17.066406 17.066407zm0 0" fill="#02a9f4"/><path d="m415.296875 443.746094h-45.515625l-11.375 59.734375h68.265625zm0 0" fill="#7f8e94"/><path d="m307.207031 173.152344c-.011719 4.050781-.242187 8.09375-.683593 12.117187-6.65625 58.96875-61.097657 104.875-127.316407 104.875-3.925781 0-7.851562-.167969-11.777343-.511719-60.757813-5.035156-109.3125-48.894531-115.539063-104.363281-.445313-4.023437-.671875-8.066406-.683594-12.117187.015625-6.78125.644531-13.550782 1.875-20.222656.769531-3.753907 1.707031-7.421876 2.816407-11.09375v-.085938c9.132812-20.90625 31.660156-63.058594 67.585937-70.996094 15.027344-2.960937 30.617187-.351562 43.859375 7.339844h.085938c4.070312 2.171875 8.003906 4.597656 11.777343 7.253906 9.5625-7.046875 20.488281-12.019531 32.085938-14.59375 49.832031-10.238281 80.296875 45.824219 91.21875 70.996094v.085938c1.109375 3.671874 2.050781 7.339843 2.816406 11.09375 1.234375 6.671874 1.863281 13.441406 1.878906 20.222656zm0 0" fill="#dfc49c"/><path d="m283.570312 173.152344c-.015624 4.050781-.242187 8.09375-.683593 12.117187-6.230469 55.382813-54.699219 99.328125-115.457031 104.363281-60.757813-5.035156-109.3125-48.894531-115.539063-104.363281-.445313-4.023437-.671875-8.066406-.683594-12.117187.015625-6.78125.644531-13.550782 1.875-20.222656.769531-3.753907 1.707031-7.421876 2.816407-11.09375v-.085938c9.132812-20.90625 31.660156-63.058594 67.585937-70.996094 11.59375 2.574219 22.523437 7.546875 32.085937 14.59375 3.773438-2.65625 7.703126-5.082031 11.773438-7.253906h.085938c4.070312 2.171875 8.003906 4.597656 11.777343 7.253906 9.5625-7.046875 20.488281-12.019531 32.085938-14.59375 36.007812 7.9375 58.453125 50.089844 67.582031 70.996094v.085938c1.109375 3.671874 2.046875 7.339843 2.816406 11.09375 1.234375 6.671874 1.859375 13.441406 1.878906 20.222656zm0 0" fill="#ffe0b2"/><path d="m307.035156 179.128906c-.085937 2.046875-.253906 4.09375-.511718 6.140625-6.65625 58.96875-61.097657 104.875-127.316407 104.875s-120.660156-45.90625-127.316406-104.875c-.171875-1.960937-.34375-4.007812-.515625-6.058593h.34375c-.011719.09375.019531.191406.085938.257812 2.046874 20.136719 25.171874 68.011719 76.203124 68.011719 7.082032.171875 14.160157-.515625 21.074219-2.050781 6.828125-1.621094 13.3125-4.351563 20.3125-5.375 10.644531-1.234376 21.429688-.214844 31.65625 2.988281 20.347657 7.199219 42.71875 6.035156 62.207031-3.242188 13.167969-6.902343 24.179688-17.296875 31.832032-30.039062 3.273437-5.292969 6.015625-10.894531 8.191406-16.726563.851562-2.472656 1.621094-4.949218 2.21875-7.421875.339844-1.195312.339844-5.375 1.109375-6.144531.066406-.101562.097656-.222656.085937-.339844zm0 0" fill="#825a2c"/><path d="m93.871094 145.078125h59.734375c4.714843 0 8.535156 3.820313 8.535156 8.535156v8.53125c0 18.851563-15.28125 34.132813-34.132813 34.132813h-8.535156c-18.851562 0-34.132812-15.28125-34.132812-34.132813v-8.53125c0-4.714843 3.820312-8.535156 8.53125-8.535156zm0 0" fill="#02a9f4"/><path d="m204.804688 145.078125h59.734374c4.714844 0 8.535157 3.820313 8.535157 8.535156v8.53125c0 18.851563-15.285157 34.132813-34.132813 34.132813h-8.535156c-18.851562 0-34.132812-15.28125-34.132812-34.132813v-8.53125c0-4.714843 3.820312-8.535156 8.53125-8.535156zm0 0" fill="#02a9f4"/><path d="m162.140625 159.414062v2.730469c0 9.054688-3.59375 17.738281-9.996094 24.140625-6.402343 6.402344-15.085937 9.996094-24.136719 9.992188h-8.535156c-5.160156.050781-10.253906-1.152344-14.847656-3.496094 10.878906-21.527344 33.429688-34.609375 57.515625-33.367188zm0 0" fill="#0377bc"/><path d="m273.074219 159.925781v2.21875c0 9.054688-3.59375 17.738281-9.996094 24.140625s-15.085937 9.996094-24.136719 9.992188h-8.535156c-7.550781.03125-14.890625-2.496094-20.820312-7.167969 9.640624-15.785156 28.328124-32.425781 63.488281-29.183594zm0 0" fill="#0377bc"/><path d="m179.207031 384.011719-18.007812 23.980469c-1.710938 2.273437-4.445313 3.542968-7.285157 3.386718-2.84375-.152344-5.421874-1.710937-6.878906-4.15625l-38.742187-64.511718c-1.367188-2.335938-1.558594-5.175782-.519531-7.675782 1.039062-2.496094 3.191406-4.363281 5.8125-5.039062l17.320312-4.265625c3.394531-.863281 6.972656.417969 9.046875 3.242187l13.652344 19.113282v.085937zm0 0" fill="#673ab7"/><path d="m250.117188 342.710938-38.742188 64.511718c-1.457031 2.445313-4.035156 4.003906-6.875 4.15625-2.84375.15625-5.574219-1.113281-7.289062-3.386718l-18.003907-23.980469 25.597657-35.839844v-.085937l13.65625-19.113282c2.070312-2.824218 5.648437-4.105468 9.042968-3.242187l17.324219 4.265625c2.621094.675781 4.769531 2.542968 5.8125 5.039062 1.039063 2.5.84375 5.339844-.523437 7.675782zm0 0" fill="#673ab7"/><path d="m503.472656 298.679688v129.449218l-42.667968 7.082032-128 8.535156s35.671874-128.425782 165.804687-156.929688c3.140625 3.148438 4.890625 7.417969 4.863281 11.863282zm0 0" fill="#0377bc"/><path d="m503.472656 418.144531v17.066407c-.027344 9.414062-7.652344 17.039062-17.066406 17.066406h-187.734375c-9.414063-.027344-17.039063-7.652344-17.066406-17.066406v-17.066407zm0 0" fill="#cfd8dc"/><path d="m479.835938 418.144531v17.066407c-.027344 9.414062-7.652344 17.039062-17.066407 17.066406h-164.097656c-9.414063-.027344-17.039063-7.652344-17.066406-17.066406v-17.066407zm0 0" fill="#f5f5f5"/><path d="m179.207031 298.679688c-70.175781 0-128.558593-48.359376-135.800781-112.476563-.476562-4.339844-.722656-8.699219-.734375-13.066406.019531-7.277344.691406-14.542969 2.015625-21.699219.8125-4.105469 1.832031-8.171875 3.050781-12.175781 1.472657-4.382813 6.164063-6.796875 10.585938-5.449219 4.421875 1.351562 6.960937 5.976562 5.730469 10.433594-1.023438 3.367187-1.898438 6.882812-2.605469 10.417968-1.121094 6.09375-1.695313 12.277344-1.710938 18.472657.011719 3.742187.222657 7.480469.632813 11.199219 6.261718 55.433593 57.351562 97.277343 118.835937 97.277343s112.574219-41.84375 118.832031-97.324219c.414063-3.703124.625-7.425781.632813-11.152343-.019531-6.25-.597656-12.484375-1.730469-18.632813-.683594-3.375-1.558594-6.890625-2.585937-10.257812-.984375-2.945313-.296875-6.191406 1.800781-8.476563 2.097656-2.289062 5.269531-3.257812 8.289062-2.53125 3.015626.726563 5.402344 3.03125 6.226563 6.023438 1.167969 3.792969 2.183594 7.84375 3.027344 12.019531 2.171875 11.492188 2.613281 23.246094 1.308593 34.875-7.242187 64.164062-65.625 112.523438-135.800781 112.523438zm0 0"/><path d="m51.890625 204.8125h-17.75c-14.132813-.015625-25.585937-11.46875-25.601563-25.601562.066407-14.109376 11.488282-25.53125 25.601563-25.597657h17.664063c4.710937 0 8.53125 3.820313 8.53125 8.53125 0 4.714844-3.820313 8.535157-8.53125 8.535157h-17.578126c-2.253906-.039063-4.421874.847656-6.003906 2.449218-1.671875 1.578125-2.621094 3.78125-2.617187 6.082032.003906 4.714843 3.824219 8.53125 8.535156 8.535156h17.75c4.710937 0 8.53125 3.820312 8.53125 8.53125 0 4.714844-3.820313 8.535156-8.53125 8.535156zm0 0"/><path d="m324.273438 204.8125h-17.75c-4.710938 0-8.53125-3.820312-8.53125-8.535156 0-4.710938 3.820312-8.53125 8.53125-8.53125h17.75c4.710937-.003906 8.53125-3.820313 8.53125-8.535156.023437-2.222657-.863282-4.359376-2.449219-5.914063-1.578125-1.675781-3.78125-2.621094-6.082031-2.617187h-17.664063c-4.714844 0-8.535156-3.820313-8.535156-8.535157 0-4.710937 3.820312-8.53125 8.535156-8.53125h17.578125c14.144531.019531 25.621094 11.453125 25.683594 25.597657-.011719 14.132812-11.464844 25.585937-25.597656 25.601562zm0 0"/><path d="m324.199219 170.679688c-.171875 0-.335938-.007813-.5-.015626-4.699219-.273437-8.292969-4.300781-8.023438-9 .074219-1.601562.0625-11.019531.0625-12.316406-1.277343-74.183594-62.347656-133.34375-136.53125-132.269531-74.1875-1.074219-135.253906 58.085937-136.535156 132.269531 0 1.304688-.007813 10.730469.066406 12.324219.140625 4.621094-3.425781 8.515625-8.042969 8.777344-4.621093.261719-8.605468-3.203125-8.988281-7.8125-.09375-1.507813-.101562-11.875-.101562-13.289063 1.292969-83.605468 69.992187-150.398437 153.601562-149.3359372 83.605469-1.0624998 152.308594 65.7304692 153.597657 149.3359372 0 1.414063-.007813 11.78125-.097657 13.289063-.261719 4.511719-3.992187 8.035156-8.507812 8.042969zm0 0"/><path d="m55.898438 150.328125c-2.257813.011719-4.429688-.878906-6.03125-2.472656-1.601563-1.59375-2.5-3.757813-2.5-6.019531 0-1.195313.238281-2.378907.707031-3.480469 10.242187-23.542969 32.933593-64.585938 69.867187-75 21.132813-6 43.398438-.925781 66.15625 15 3.789063 2.726562 4.679688 7.992187 2.007813 11.816406-2.675781 3.824219-7.929688 4.789063-11.789063 2.164063-18.34375-12.839844-35.726562-17.066407-51.742187-12.554688-31.132813 8.78125-51.371094 48.273438-58.742188 65.132812-1.285156 3.257813-4.429687 5.40625-7.933593 5.414063zm0 0"/><path d="m302.511719 150.328125c-3.65625.011719-6.914063-2.316406-8.089844-5.78125-7.5-17.066406-27.675781-56.050781-58.585937-64.769531-16-4.515625-33.398438-.28125-51.738282 12.558594-2.5 1.796874-5.769531 2.113281-8.5625.824218-2.792968-1.289062-4.679687-3.980468-4.929687-7.046875-.253907-3.066406 1.164062-6.03125 3.707031-7.761719 22.75-15.914062 44.984375-20.980468 66.160156-15 36.933594 10.417969 59.625 51.457032 69.867188 75 1.144531 2.644532.886718 5.683594-.6875 8.097657-1.578125 2.410156-4.257813 3.867187-7.140625 3.878906zm0 0"/><path d="m153.605469 356.707031c-4.710938 0-8.53125-3.820312-8.53125-8.535156v-60.324219c0-4.714844 3.820312-8.535156 8.53125-8.535156 4.714843 0 8.535156 3.820312 8.535156 8.535156v60.324219c0 4.714844-3.820313 8.535156-8.535156 8.535156zm0 0"/><path d="m204.804688 356.707031c-4.710938 0-8.53125-3.820312-8.53125-8.535156v-60.324219c0-4.714844 3.820312-8.535156 8.53125-8.535156 4.714843 0 8.535156 3.820312 8.535156 8.535156v60.324219c0 4.714844-3.820313 8.535156-8.535156 8.535156zm0 0"/><path d="m315.738281 512.011719h-290.132812c-14.132813-.015625-25.5820315-11.46875-25.5976565-25.597657v-51.203124c0-3.164063.0898437-6.238282.3749995-9.316407 3.597657-43.484375 32.425782-80.789062 73.597657-95.238281 9.007812-3.234375 18.402343-5.253906 27.941406-6.011719 4.671875-.308593 8.722656 3.199219 9.078125 7.867188s-3.113281 8.75-7.777344 9.152343c-8.042968.644532-15.964844 2.355469-23.558594 5.082032-34.855468 12.222656-59.253906 43.8125-62.273437 80.625-.242187 2.648437-.316406 5.207031-.316406 7.839844v51.203124c0 4.710938 3.820312 8.527344 8.53125 8.53125h290.132812c4.714844 0 8.535157 3.820313 8.535157 8.535157 0 4.710937-3.820313 8.53125-8.535157 8.53125zm0 0"/><path d="m281.605469 347.234375c-.996094 0-1.988281-.171875-2.925781-.511719-7.558594-2.753906-15.464844-4.457031-23.488282-5.058594-4.5625-.339843-8.046875-4.21875-7.898437-8.792968.152343-4.570313 3.882812-8.210938 8.457031-8.25h.09375c9.800781.671875 19.457031 2.714844 28.691406 6.066406 3.882813 1.421875 6.1875 5.425781 5.46875 9.5-.722656 4.074219-4.261718 7.042969-8.398437 7.046875zm0 0"/><path d="m230.472656 256.171875c-10.765625-.140625-21.460937-1.796875-31.765625-4.917969-9.046875-2.917968-18.617187-3.851562-28.058593-2.742187-3.828126.679687-7.597657 1.640625-11.285157 2.875-2.75.835937-5.492187 1.667969-8.28125 2.34375-7.574219 1.664062-15.320312 2.429687-23.074219 2.28125-53.894531 0-81.46875-48.324219-84.601562-74.898438-.148438-.625-.222656-1.261719-.222656-1.902343.003906-4.1875 3.042968-7.753907 7.175781-8.421876 4.132813-.667968 8.140625 1.765626 9.457031 5.738282.25.671875.414063 1.371094.484375 2.085937 1.5625 15.457031 21.285157 60.332031 67.707031 60.332031 6.402344.136719 12.800782-.46875 19.066407-1.800781 2.457031-.59375 4.882812-1.339843 7.316406-2.082031 4.484375-1.488281 9.074219-2.632812 13.734375-3.433594 11.859375-1.496094 23.902344-.394531 35.296875 3.226563 18.285156 6.558593 38.425781 5.609375 56.007813-2.648438 11.757812-6.203125 21.582031-15.519531 28.40625-26.925781 2.984374-4.78125 5.464843-9.859375 7.398437-15.152344.789063-2.132812 1.457031-4.3125 1.992187-6.523437l.042969-.75c.078125-2.386719.59375-4.738281 1.523438-6.933594 1.308593-3.214844 4.429687-5.320313 7.902343-5.328125 2.261719 0 4.433594.898438 6.035157 2.496094 1.601562 1.601562 2.5 3.773437 2.496093 6.039062-.015624 1.277344-.289062 2.539063-.808593 3.707032-.074219.511718-.117188 1.101562-.167969 1.621093-.082031 1.042969-.226562 2.078125-.433594 3.101563-.691406 2.835937-1.539062 5.632812-2.542968 8.375-2.332032 6.40625-5.324219 12.550781-8.929688 18.335937-8.46875 14.074219-20.644531 25.542969-35.191406 33.160157-11.347656 5.816406-23.929688 8.816406-36.679688 8.742187zm83.382813-72.234375c-.339844.570312-.75 1.09375-1.214844 1.566406.46875-.46875.875-.996094 1.214844-1.566406zm0 0"/><path d="m153.605469 426.679688c-.140625 0-.292969 0-.441407-.007813-2.835937-.152344-5.410156-1.699219-6.875-4.132813l-51.199218-85.335937c-1.390625-2.316406-1.601563-5.15625-.566406-7.65625 1.035156-2.496094 3.191406-4.355469 5.816406-5.007813l34.132812-8.535156c3.398438-.867187 6.984375.453125 9.007813 3.316406l42.667969 59.734376c2.167968 3.023437 2.121093 7.105468-.117188 10.078124l-25.597656 34.132813c-1.613282 2.148437-4.140625 3.414063-6.828125 3.414063zm-37.957031-88.382813 38.75 64.574219 14.234374-18.984375-35.660156-49.917969zm0 0"/><path d="m204.804688 426.679688c-2.683594 0-5.214844-1.265626-6.824219-3.414063l-25.601563-34.132813c-2.234375-2.972656-2.28125-7.050781-.117187-10.074218l42.667969-59.734375c2.039062-2.851563 5.609374-4.164063 9.007812-3.316407l34.132812 8.535157c2.625.652343 4.78125 2.511719 5.816407 5.007812 1.035156 2.496094.828125 5.339844-.566407 7.65625l-51.199218 85.332031c-1.460938 2.4375-4.039063 3.984376-6.875 4.136719-.148438.003907-.296875.003907-.441406.003907zm-15.023438-42.792969 14.234375 18.984375 38.75-64.574219-17.324219-4.328125zm0 0"/><path d="m179.207031 512.011719c-4.714843 0-8.535156-3.820313-8.535156-8.53125v-119.46875c0-4.710938 3.820313-8.53125 8.535156-8.53125 4.710938 0 8.53125 3.820312 8.53125 8.53125v119.46875c0 4.710937-3.820312 8.53125-8.53125 8.53125zm0 0"/><path d="m119.472656 469.347656h-51.199218c-4.714844 0-8.535157-3.824218-8.535157-8.535156s3.820313-8.535156 8.535157-8.535156h51.199218c4.714844 0 8.535156 3.824218 8.535156 8.535156s-3.820312 8.535156-8.535156 8.535156zm0 0"/><path d="m42.671875 435.210938h-33.789063c-2.386718 0-4.660156-.996094-6.277343-2.746094-1.613281-1.753906-2.425781-4.101563-2.230469-6.476563 3.574219-43.519531 32.410156-80.863281 73.605469-95.332031 2.609375-.917969 5.5-.511719 7.757812 1.085938 2.257813 1.597656 3.597657 4.191406 3.601563 6.957031v36.78125c0 3.230469-1.824219 6.1875-4.714844 7.632812-.277344.132813-29.417969 15.265625-29.417969 43.566407 0 4.710937-3.820312 8.53125-8.535156 8.53125zm-24.074219-17.066407h16.160156c3.886719-19.90625 16.078126-37.210937 33.515626-47.574219v-18.964843c-26.027344 13.21875-44.398438 37.828125-49.675782 66.539062zm0 0"/><path d="m486.40625 460.8125h-187.734375c-14.132813-.015625-25.582031-11.46875-25.597656-25.601562v-136.53125c.015625-14.132813 11.464843-25.585938 25.597656-25.601563h187.734375c14.132812.015625 25.585938 11.46875 25.601562 25.601563v136.53125c-.015624 14.132812-11.46875 25.585937-25.601562 25.601562zm-187.734375-170.667969c-4.710937.003907-8.53125 3.824219-8.53125 8.535157v136.53125c0 4.714843 3.820313 8.53125 8.53125 8.535156h187.734375c4.710938-.003906 8.53125-3.820313 8.535156-8.535156v-136.53125c-.003906-4.710938-3.824218-8.53125-8.535156-8.535157zm0 0"/><path d="m435.207031 512.011719h-85.335937c-4.710938 0-8.53125-3.820313-8.53125-8.53125 0-4.714844 3.820312-8.535157 8.53125-8.535157h85.335937c4.710938 0 8.53125 3.820313 8.53125 8.535157 0 4.710937-3.820312 8.53125-8.53125 8.53125zm0 0"/><path d="m418.140625 512.011719h-51.199219c-2.507812 0-4.890625-1.101563-6.511718-3.015625-1.621094-1.914063-2.316407-4.445313-1.90625-6.917969l8.53125-51.199219c.683593-4.117187 4.246093-7.132812 8.417968-7.132812h34.132813c4.171875 0 7.734375 3.015625 8.417969 7.132812l8.53125 51.199219c.414062 2.472656-.285157 5.003906-1.90625 6.917969-1.621094 1.914062-4 3.015625-6.507813 3.015625zm-41.125-17.066407h31.046875l-5.679688-34.132812h-19.683593zm0 0"/><path d="m503.472656 426.679688h-221.867187c-4.710938 0-8.53125-3.820313-8.53125-8.535157 0-4.710937 3.820312-8.53125 8.53125-8.53125h221.867187c4.714844 0 8.535156 3.820313 8.535156 8.53125 0 4.714844-3.820312 8.535157-8.535156 8.535157zm0 0"/><path d="m315.738281 341.347656c-3.449219-.003906-6.558593-2.082031-7.878906-5.269531-1.324219-3.1875-.59375-6.859375 1.847656-9.296875l17.066407-17.070312c3.347656-3.230469 8.671874-3.1875 11.960937.105468 3.292969 3.292969 3.339844 8.613282.105469 11.960938l-17.066406 17.066406c-1.597657 1.605469-3.769532 2.503906-6.035157 2.503906zm0 0"/><path d="m315.738281 384.011719c-3.449219 0-6.558593-2.078125-7.878906-5.265625-1.324219-3.191406-.59375-6.859375 1.847656-9.300782l59.734375-59.734374c3.347656-3.230469 8.667969-3.1875 11.960938.105468 3.292968 3.292969 3.335937 8.613282.105468 11.960938l-59.734374 59.734375c-1.597657 1.605469-3.769532 2.503906-6.035157 2.5zm0 0"/><path d="m128.007812 204.8125h-8.535156c-23.550781-.027344-42.636718-19.113281-42.667968-42.667969v-8.53125c.015624-9.421875 7.648437-17.054687 17.066406-17.066406h59.734375c9.421875.011719 17.054687 7.644531 17.066406 17.066406v8.53125c-.027344 23.554688-19.113281 42.640625-42.664063 42.667969zm-34.136718-51.199219v8.53125c.015625 14.132813 11.46875 25.585938 25.601562 25.601563h8.535156c14.128907-.015625 25.582032-11.46875 25.597657-25.601563v-8.53125zm0 0"/><path d="m238.941406 204.8125h-8.535156c-23.550781-.027344-42.640625-19.113281-42.667969-42.667969v-8.53125c.015625-9.421875 7.648438-17.054687 17.066407-17.066406h59.734374c9.421876.011719 17.054688 7.644531 17.066407 17.066406v8.53125c-.027344 23.554688-19.113281 42.640625-42.664063 42.667969zm-34.136718-51.199219v8.53125c.015624 14.132813 11.46875 25.585938 25.601562 25.601563h8.535156c14.128906-.015625 25.582032-11.46875 25.597656-25.601563v-8.53125zm0 0"/><path d="m198.171875 156.929688c-2.113281.003906-4.148437-.78125-5.714844-2.199219-7.378906-7.054688-19-7.054688-26.375 0-2.253906 2.097656-5.464843 2.820312-8.402343 1.886719-2.933594-.933594-5.140626-3.375-5.765626-6.390626-.628906-3.015624.414063-6.136718 2.734376-8.164062 13.859374-12.945312 35.378906-12.945312 49.238281 0 2.621093 2.367188 3.515625 6.101562 2.246093 9.398438-1.265624 3.292968-4.433593 5.46875-7.960937 5.46875zm0 0"/><path d="m51.972656 169.484375c-4.121094.003906-7.660156-2.9375-8.402344-6.996094-.742187-4.058593 1.519532-8.066406 5.378907-9.519531l36.265625-13.738281c2.855468-1.082031 6.066406-.558594 8.425781 1.371093 2.363281 1.929688 3.515625 4.972657 3.027344 7.980469-.492188 3.011719-2.550781 5.53125-5.402344 6.613281l-36.265625 13.738282c-.96875.363281-1.992188.550781-3.027344.550781zm0 0"/><path d="m306.4375 169.484375c-1.03125 0-2.058594-.1875-3.023438-.550781l-36.265624-13.738282c-4.410157-1.671874-6.628907-6.597656-4.960938-11.007812 1.671875-4.410156 6.597656-6.628906 11.007812-4.957031l36.265626 13.738281c3.859374 1.457031 6.121093 5.464844 5.378906 9.519531-.742188 4.054688-4.277344 7-8.402344 6.996094zm0 0"/></svg>