<svg height="512pt" viewBox="0 0 512 512.01255" width="512pt" xmlns="http://www.w3.org/2000/svg"><path d="m336.476562 281.613281-37.804687 85.332031-23.378906-.597656-234.328125-5.886718c-25.429688-19.796876-30.546875-57.003907-15.359375-87.382813 17.066406-34.132813 8.535156-85.332031 8.535156-85.332031h290.132813s-8.535157 51.199218 8.53125 85.332031c1.382812 2.773437 2.609374 5.625 3.671874 8.535156zm0 0" fill="#783e22"/><path d="m312.839844 281.613281-37.546875 84.734375-234.328125-5.886718c-25.429688-19.796876-30.546875-57.003907-15.359375-87.382813 17.066406-34.132813 8.535156-85.332031 8.535156-85.332031h266.496094s-8.535157 51.199218 8.53125 85.332031c1.382812 2.773437 2.609375 5.625 3.671875 8.535156zm0 0" fill="#a0522d"/><path d="m324.273438 154.890625c0 1.367187 0 11.777344-.085938 13.230469h-289.960938c-.085937-1.453125-.085937-11.863282-.085937-13.230469-.308594-75.863281 57.621094-139.285156 133.203125-145.832031 3.925781-.34375 7.851562-.511719 11.863281-.511719 80.46875.355469 145.417969 65.875 145.066407 146.34375zm0 0" fill="#6d4122"/><path d="m300.636719 154.890625c0 1.367187 0 11.777344-.085938 13.230469h-266.324219c-.085937-1.453125-.085937-11.863282-.085937-13.230469-.308594-75.863281 57.621094-139.285156 133.203125-145.832031 75.617188 6.507812 133.589844 69.941406 133.292969 145.832031zm0 0" fill="#91562d"/><path d="m306.609375 162.144531h17.664063c9.398437.070313 17 7.671875 17.066406 17.066407-.027344 9.414062-7.652344 17.039062-17.066406 17.066406h-290.132813c-9.414063-.027344-17.039063-7.652344-17.066406-17.066406.066406-9.394532 7.667969-16.996094 17.066406-17.066407zm0 0" fill="#ffe0b2"/><path d="m204.804688 287.84375v60.328125l-25.597657 35.839844-25.601562-35.839844v-60.328125zm0 0" fill="#ffe0b2"/><path d="m307.207031 173.152344c-.011719 4.050781-.242187 8.09375-.683593 12.117187-.425782 3.671875-1.023438 7.339844-1.792969 10.925781-12.003907 47.769532-51.296875 83.804688-99.925781 91.648438-8.441407 1.550781-17.011719 2.320312-25.597657 2.300781-4.011719 0-7.9375-.167969-11.777343-.511719-4.636719-.332031-9.253907-.929687-13.824219-1.789062-48.773438-7.789062-88.136719-44.027344-99.925781-91.992188-.765626-3.496093-1.363282-6.996093-1.789063-10.582031-.445313-4.023437-.671875-8.066406-.683594-12.117187-.019531-3.675782.179688-7.351563.597657-11.007813.253906-3.070312.765624-6.144531 1.277343-9.214843.597657-2.988282 1.367188-5.886719 2.136719-8.789063v-.085937l4.519531-24.574219c43.179688-10.667969 65.109375-29.441407 75.777344-43.179688 4.121094-4.921875 7.355469-10.523437 9.558594-16.554687 0 0 27.132812 47.53125 105.640625 51.710937 2.5625.171875 5.121094.257813 7.851562.257813 7.6875.15625 15.378906-.101563 23.039063-.769532 8.925781 10.414063 16.308593 22.050782 21.929687 34.5625.683594 2.472657 1.28125 4.949219 1.792969 7.421876.511719 3.070312 1.023437 6.144531 1.28125 9.214843.417969 3.65625.617187 7.332031.597656 11.007813zm0 0" fill="#dfc49c"/><path d="m283.570312 173.152344c-.015624 4.050781-.242187 8.09375-.683593 12.117187-.425781 3.671875-1.023438 7.339844-1.792969 10.925781-12.003906 47.769532-51.296875 83.808594-99.925781 91.648438-4.539063.859375-9.128907 1.457031-13.738281 1.789062-4.636719-.332031-9.253907-.929687-13.824219-1.789062-48.773438-7.789062-88.136719-44.027344-99.925781-91.992188-.765626-3.496093-1.363282-6.996093-1.789063-10.582031-.445313-4.023437-.671875-8.066406-.683594-12.117187-.019531-3.675782.179688-7.351563.597657-11.007813.253906-3.070312.765624-6.144531 1.277343-9.214843.597657-2.988282 1.367188-5.886719 2.136719-8.789063v-.085937l4.519531-24.574219c43.179688-10.667969 65.109375-29.441407 75.777344-43.179688 17.578125 16.296875 53.246094 38.484375 115.199219 35.15625 2.390625-.085937 4.78125-.253906 7.253906-.511719.222656.238282.421875.496094.597656.769532 8.71875 10.164062 15.90625 21.546875 21.332032 33.792968.683593 2.472657 1.28125 4.949219 1.792968 7.421876.511719 3.070312 1.023438 6.144531 1.28125 9.214843.414063 3.65625.613282 7.332031.597656 11.007813zm0 0" fill="#ffe0b2"/><path d="m349.871094 435.210938v51.203124c-.027344 9.414063-7.652344 17.039063-17.066406 17.066407h-307.199219c-9.414063-.027344-17.039063-7.652344-17.066407-17.066407v-51.203124c0-2.898438.085938-5.714844.34375-8.53125 3.316407-40.152344 29.917969-74.605469 67.921876-87.980469 8.308593-2.980469 16.972656-4.84375 25.773437-5.546875h153.257813c8.796874.703125 17.464843 2.566406 25.769531 5.546875 38.003906 13.375 64.605469 47.828125 67.925781 87.980469.257812 2.816406.339844 5.632812.339844 8.53125zm0 0" fill="#6a1b9a"/><path d="m326.234375 435.210938v51.203124c-.027344 9.414063-7.652344 17.039063-17.066406 17.066407h-283.5625c-9.414063-.027344-17.039063-7.652344-17.066407-17.066407v-51.203124c0-2.898438.085938-5.714844.34375-8.53125 3.316407-40.152344 29.917969-74.605469 67.921876-87.980469 8.308593-2.980469 16.972656-4.84375 25.773437-5.546875h129.621094c8.796875.703125 17.460937 2.566406 25.769531 5.546875 38.003906 13.375 64.605469 47.828125 67.925781 87.980469.253907 2.816406.339844 5.632812.339844 8.53125zm0 0" fill="#9d27b0"/><path d="m128.007812 332.8125 51.199219 51.199219 51.199219-51.199219zm0 0" fill="#fdd7ad"/><path d="m76.804688 338.699219v31.890625c.023437 2.890625-1.445313 5.585937-3.878907 7.144531-15.335937 9.070313-26.128906 24.191406-29.71875 41.644531-.597656 4.175782-4.164062 7.285156-8.382812 7.300782h-25.941407c3.316407-40.152344 29.917969-74.605469 67.921876-87.980469zm0 0" fill="#673ab7"/><path d="m503.472656 298.679688v136.53125c-.027344 9.414062-7.652344 17.039062-17.066406 17.066406h-187.734375c-9.414063-.027344-17.039063-7.652344-17.066406-17.066406v-136.53125c.027343-9.414063 7.652343-17.039063 17.066406-17.066407h187.734375c9.398438.066407 17 7.667969 17.066406 17.066407zm0 0" fill="#02a9f4"/><path d="m415.296875 443.746094h-45.515625l-11.375 59.734375h68.265625zm0 0" fill="#7f8e94"/><path d="m93.871094 145.078125h59.734375c4.714843 0 8.535156 3.820313 8.535156 8.535156v8.53125c0 18.851563-15.28125 34.132813-34.132813 34.132813h-8.535156c-18.851562 0-34.132812-15.28125-34.132812-34.132813v-8.53125c0-4.714843 3.820312-8.535156 8.53125-8.535156zm0 0" fill="#02a9f4"/><path d="m204.804688 145.078125h59.734374c4.714844 0 8.535157 3.820313 8.535157 8.535156v8.53125c0 18.851563-15.285157 34.132813-34.132813 34.132813h-8.535156c-18.851562 0-34.132812-15.28125-34.132812-34.132813v-8.53125c0-4.714843 3.820312-8.535156 8.53125-8.535156zm0 0" fill="#02a9f4"/><path d="m162.140625 159.414062v2.730469c0 9.054688-3.59375 17.738281-9.996094 24.140625-6.402343 6.402344-15.085937 9.996094-24.136719 9.992188h-8.535156c-5.160156.050781-10.253906-1.152344-14.847656-3.496094 10.878906-21.527344 33.429688-34.609375 57.515625-33.367188zm0 0" fill="#0377bc"/><path d="m273.074219 159.925781v2.21875c0 9.054688-3.59375 17.738281-9.996094 24.140625s-15.085937 9.996094-24.136719 9.992188h-8.535156c-7.550781.03125-14.890625-2.496094-20.820312-7.167969 9.640624-15.785156 28.328124-32.425781 63.488281-29.183594zm0 0" fill="#0377bc"/><path d="m179.207031 384.011719-18.007812 23.980469c-1.710938 2.273437-4.445313 3.542968-7.285157 3.386718-2.84375-.152344-5.421874-1.710937-6.878906-4.15625l-38.742187-64.511718c-1.367188-2.335938-1.558594-5.175782-.519531-7.675782 1.039062-2.496094 3.191406-4.363281 5.8125-5.039062l17.320312-4.265625c3.394531-.863281 6.972656.417969 9.046875 3.242187l13.652344 19.113282v.085937zm0 0" fill="#673ab7"/><path d="m250.117188 342.710938-38.742188 64.511718c-1.457031 2.445313-4.035156 4.003906-6.875 4.15625-2.84375.15625-5.574219-1.113281-7.289062-3.386718l-18.003907-23.980469 25.597657-35.839844v-.085937l13.65625-19.113282c2.070312-2.824218 5.648437-4.105468 9.042968-3.242187l17.324219 4.265625c2.621094.675781 4.769531 2.542968 5.8125 5.039062 1.039063 2.5.84375 5.339844-.523437 7.675782zm0 0" fill="#673ab7"/><path d="m503.472656 298.679688v129.449218l-42.667968 7.082032-128 8.535156s35.671874-128.425782 165.804687-156.929688c3.140625 3.148438 4.890625 7.417969 4.863281 11.863282zm0 0" fill="#0377bc"/><path d="m503.472656 418.144531v17.066407c-.027344 9.414062-7.652344 17.039062-17.066406 17.066406h-187.734375c-9.414063-.027344-17.039063-7.652344-17.066406-17.066406v-17.066407zm0 0" fill="#cfd8dc"/><path d="m479.835938 418.144531v17.066407c-.027344 9.414062-7.652344 17.042968-17.066407 17.066406h-164.097656c-9.414063-.027344-17.039063-7.652344-17.066406-17.066406v-17.066407zm0 0" fill="#f5f5f5"/><path d="m51.890625 204.8125h-17.75c-14.132813-.015625-25.585937-11.46875-25.601563-25.601562.066407-14.109376 11.488282-25.53125 25.601563-25.597657h17.664063c4.710937 0 8.53125 3.820313 8.53125 8.53125 0 4.714844-3.820313 8.535157-8.53125 8.535157h-17.578126c-2.253906-.039063-4.421874.847656-6.003906 2.449218-1.671875 1.578125-2.621094 3.78125-2.617187 6.082032.003906 4.714843 3.824219 8.53125 8.535156 8.535156h17.75c4.710937 0 8.53125 3.820312 8.53125 8.53125 0 4.714844-3.820313 8.535156-8.53125 8.535156zm0 0"/><path d="m324.273438 204.8125h-17.75c-4.710938 0-8.53125-3.820312-8.53125-8.535156 0-4.710938 3.820312-8.53125 8.53125-8.53125h17.75c4.710937-.003906 8.53125-3.820313 8.53125-8.535156.023437-2.222657-.863282-4.359376-2.449219-5.914063-1.578125-1.675781-3.78125-2.621094-6.082031-2.617187h-17.664063c-4.714844 0-8.535156-3.820313-8.535156-8.535157 0-4.710937 3.820312-8.53125 8.535156-8.53125h17.578125c14.144531.019531 25.621094 11.453125 25.683594 25.597657-.011719 14.132812-11.464844 25.585937-25.597656 25.601562zm0 0"/><path d="m324.199219 170.679688c-.171875 0-.335938-.007813-.5-.015626-4.699219-.273437-8.292969-4.300781-8.023438-9 .074219-1.601562.0625-11.019531.0625-12.316406-1.277343-74.183594-62.347656-133.34375-136.53125-132.269531-74.1875-1.074219-135.253906 58.085937-136.535156 132.269531 0 1.304688-.007813 10.730469.066406 12.324219.140625 4.621094-3.425781 8.515625-8.042969 8.777344-4.621093.261719-8.605468-3.203125-8.988281-7.8125-.09375-1.507813-.101562-11.875-.101562-13.289063 1.292969-83.605468 69.992187-150.398437 153.601562-149.3359372 83.605469-1.0624998 152.308594 65.7304692 153.597657 149.3359372 0 1.414063-.007813 11.78125-.097657 13.289063-.261719 4.511719-3.992187 8.035156-8.507812 8.042969zm0 0"/><path d="m153.605469 356.707031c-4.710938 0-8.53125-3.820312-8.53125-8.535156v-60.324219c0-4.714844 3.820312-8.535156 8.53125-8.535156 4.714843 0 8.535156 3.820312 8.535156 8.535156v60.324219c0 4.714844-3.820313 8.535156-8.535156 8.535156zm0 0"/><path d="m204.804688 356.707031c-4.710938 0-8.53125-3.820312-8.53125-8.535156v-60.324219c0-4.714844 3.820312-8.535156 8.53125-8.535156 4.714843 0 8.535156 3.820312 8.535156 8.535156v60.324219c0 4.714844-3.820313 8.535156-8.535156 8.535156zm0 0"/><path d="m315.738281 512.011719h-290.132812c-14.132813-.015625-25.5820315-11.46875-25.5976565-25.597657v-51.203124c0-3.164063.0898437-6.238282.3749995-9.316407 3.597657-43.484375 32.425782-80.789062 73.597657-95.238281 9.007812-3.234375 18.402343-5.253906 27.941406-6.011719 4.671875-.308593 8.722656 3.199219 9.078125 7.867188s-3.113281 8.75-7.777344 9.152343c-8.042968.644532-15.964844 2.355469-23.558594 5.082032-34.855468 12.222656-59.253906 43.8125-62.273437 80.625-.242187 2.648437-.316406 5.207031-.316406 7.839844v51.203124c0 4.710938 3.820312 8.527344 8.53125 8.53125h290.132812c4.714844 0 8.535157 3.820313 8.535157 8.535157 0 4.710937-3.820313 8.53125-8.535157 8.53125zm0 0"/><path d="m281.605469 347.234375c-.996094 0-1.988281-.171875-2.925781-.511719-7.558594-2.753906-15.464844-4.457031-23.488282-5.058594-4.5625-.339843-8.046875-4.21875-7.898437-8.792968.152343-4.570313 3.882812-8.210938 8.457031-8.25h.09375c9.800781.671875 19.457031 2.714844 28.691406 6.066406 3.882813 1.421875 6.1875 5.425781 5.46875 9.5-.722656 4.074219-4.261718 7.042969-8.398437 7.046875zm0 0"/><path d="m153.605469 426.679688c-.140625 0-.292969 0-.441407-.007813-2.835937-.152344-5.410156-1.699219-6.875-4.132813l-51.199218-85.335937c-1.390625-2.316406-1.601563-5.15625-.566406-7.65625 1.035156-2.496094 3.191406-4.355469 5.816406-5.007813l34.132812-8.535156c3.398438-.867187 6.984375.453125 9.007813 3.316406l42.667969 59.734376c2.167968 3.023437 2.121093 7.105468-.117188 10.078124l-25.597656 34.132813c-1.613282 2.148437-4.140625 3.414063-6.828125 3.414063zm-37.957031-88.382813 38.75 64.574219 14.234374-18.984375-35.660156-49.917969zm0 0"/><path d="m204.804688 426.679688c-2.683594 0-5.214844-1.265626-6.824219-3.414063l-25.601563-34.132813c-2.234375-2.972656-2.28125-7.050781-.117187-10.074218l42.667969-59.734375c2.039062-2.851563 5.609374-4.164063 9.007812-3.316407l34.132812 8.535157c2.625.652343 4.78125 2.511719 5.816407 5.007812 1.035156 2.496094.828125 5.339844-.566407 7.65625l-51.199218 85.332031c-1.460938 2.4375-4.039063 3.984376-6.875 4.136719-.148438.003907-.296875.003907-.441406.003907zm-15.023438-42.792969 14.234375 18.984375 38.75-64.574219-17.324219-4.328125zm0 0"/><path d="m179.207031 512.011719c-4.714843 0-8.535156-3.820313-8.535156-8.53125v-119.46875c0-4.710938 3.820313-8.53125 8.535156-8.53125 4.710938 0 8.53125 3.820312 8.53125 8.53125v119.46875c0 4.710937-3.820312 8.53125-8.53125 8.53125zm0 0"/><path d="m119.472656 469.347656h-51.199218c-4.714844 0-8.535157-3.824218-8.535157-8.535156s3.820313-8.535156 8.535157-8.535156h51.199218c4.714844 0 8.535156 3.824218 8.535156 8.535156s-3.820312 8.535156-8.535156 8.535156zm0 0"/><path d="m42.671875 435.210938h-33.789063c-2.386718 0-4.660156-.996094-6.277343-2.746094-1.613281-1.753906-2.425781-4.101563-2.230469-6.476563 3.574219-43.519531 32.410156-80.863281 73.605469-95.332031 2.609375-.917969 5.5-.511719 7.757812 1.085938 2.257813 1.597656 3.597657 4.191406 3.601563 6.957031v36.78125c0 3.230469-1.824219 6.1875-4.714844 7.632812-.277344.132813-29.417969 15.265625-29.417969 43.566407 0 4.710937-3.820312 8.53125-8.535156 8.53125zm-24.074219-17.066407h16.160156c3.886719-19.90625 16.078126-37.210937 33.515626-47.574219v-18.964843c-26.027344 13.21875-44.398438 37.828125-49.675782 66.539062zm0 0"/><path d="m486.40625 460.8125h-187.734375c-14.132813-.015625-25.582031-11.46875-25.597656-25.601562v-136.53125c.015625-14.132813 11.464843-25.585938 25.597656-25.601563h187.734375c14.132812.015625 25.585938 11.46875 25.601562 25.601563v136.53125c-.015624 14.132812-11.46875 25.585937-25.601562 25.601562zm-187.734375-170.667969c-4.710937.003907-8.53125 3.824219-8.53125 8.535157v136.53125c0 4.714843 3.820313 8.53125 8.53125 8.535156h187.734375c4.710938-.003906 8.53125-3.820313 8.535156-8.535156v-136.53125c-.003906-4.710938-3.824218-8.53125-8.535156-8.535157zm0 0"/><path d="m435.207031 512.011719h-85.335937c-4.710938 0-8.53125-3.820313-8.53125-8.53125 0-4.714844 3.820312-8.535157 8.53125-8.535157h85.335937c4.710938 0 8.53125 3.820313 8.53125 8.535157 0 4.710937-3.820312 8.53125-8.53125 8.53125zm0 0"/><path d="m418.140625 512.011719h-51.199219c-2.507812 0-4.890625-1.101563-6.511718-3.015625-1.621094-1.914063-2.316407-4.445313-1.90625-6.917969l8.53125-51.199219c.683593-4.117187 4.246093-7.132812 8.417968-7.132812h34.132813c4.171875 0 7.734375 3.015625 8.417969 7.132812l8.53125 51.199219c.414062 2.472656-.285157 5.003906-1.90625 6.917969-1.621094 1.914062-4 3.015625-6.507813 3.015625zm-41.125-17.066407h31.046875l-5.679688-34.132812h-19.683593zm0 0"/><path d="m503.472656 426.679688h-221.867187c-4.710938 0-8.53125-3.820313-8.53125-8.535157 0-4.710937 3.820312-8.53125 8.53125-8.53125h221.867187c4.714844 0 8.535156 3.820313 8.535156 8.53125 0 4.714844-3.820312 8.535157-8.535156 8.535157zm0 0"/><path d="m315.738281 341.347656c-3.449219-.003906-6.558593-2.082031-7.878906-5.269531-1.324219-3.1875-.59375-6.859375 1.847656-9.296875l17.066407-17.070312c3.347656-3.230469 8.671874-3.1875 11.960937.105468 3.292969 3.292969 3.339844 8.613282.105469 11.960938l-17.066406 17.066406c-1.597657 1.605469-3.769532 2.503906-6.035157 2.503906zm0 0"/><path d="m315.738281 384.011719c-3.449219 0-6.558593-2.078125-7.878906-5.265625-1.324219-3.191406-.59375-6.859375 1.847656-9.300782l59.734375-59.734374c3.347656-3.230469 8.667969-3.1875 11.960938.105468 3.292968 3.292969 3.335937 8.613282.105468 11.960938l-59.734374 59.734375c-1.597657 1.605469-3.769532 2.503906-6.035157 2.5zm0 0"/><path d="m40.972656 368.992188c-1.894531.003906-3.738281-.628907-5.234375-1.796876-27.832031-21.667968-35.289062-62.847656-17.75-97.933593 15.507813-31.007813 7.875-70.914063 7.800781-71.316407-.820312-4.574218 2.171876-8.964843 6.730469-9.875 4.554688-.910156 9.003907 1.996094 10.003907 6.535157.375 1.855469 8.898437 45.957031-9.265626 82.289062-13.925781 27.835938-8.46875 60.152344 12.96875 76.835938 2.878907 2.238281 4.011719 6.058593 2.828126 9.507812-1.1875 3.445313-4.429688 5.761719-8.078126 5.757813zm0 0"/><path d="m336.476562 290.144531c-3.617187.003907-6.84375-2.277343-8.042968-5.691406-.960938-2.609375-2.0625-5.160156-3.300782-7.648437-18.125-36.242188-9.597656-80.34375-9.222656-82.199219.988282-4.550781 5.441406-7.46875 10.007813-6.558594 4.566406.914063 7.558593 5.316406 6.722656 9.898437-.074219.402344-7.707031 40.308594 7.800781 71.316407 1.535156 3.089843 2.898438 6.265625 4.074219 9.507812.921875 2.613281.515625 5.507813-1.082031 7.765625-1.597656 2.261719-4.191406 3.605469-6.957032 3.609375zm0 0"/><path d="m55.238281 152.675781c-.519531 0-1.039062-.046875-1.546875-.144531-4.636718-.851562-7.703125-5.296875-6.851562-9.933594l4.523437-24.660156c.917969-4.566406 5.328125-7.554688 9.90625-6.710938 4.582031.839844 7.640625 5.199219 6.875 9.796876l-4.519531 24.660156c-.742188 4.046875-4.269531 6.988281-8.386719 6.992187zm0 0"/><path d="m179.222656 298.679688c-9.109375.011718-18.199218-.804688-27.160156-2.441407-52.230469-8.273437-94.339844-47.183593-106.707031-98.601562-.832031-3.75-1.476563-7.542969-1.925781-11.359375-.480469-4.355469-.730469-8.738282-.738282-13.125-.019531-4.011719.195313-8.027344.648438-12.015625.25-3.015625.78125-6.3125 1.34375-9.625.664062-3.339844 1.457031-6.347657 2.246094-9.347657.980468-4.214843 4.960937-7.03125 9.261718-6.546874 4.296875.484374 7.554688 4.109374 7.574219 8.4375v.085937c0 .734375-.09375 1.464844-.285156 2.175781-.742188 2.8125-1.457031 5.515625-2.015625 8.296875-.425782 2.578125-.910156 5.410157-1.148438 8.253907-.390625 3.414062-.574218 6.847656-.558594 10.285156.007813 3.742187.21875 7.480468.632813 11.203125.382813 3.207031.929687 6.425781 1.640625 9.65625 10.921875 44.695312 47.683594 78.410156 93.148438 85.441406 15.902343 2.875 32.191406 2.875 48.09375 0 45.316406-7.082031 81.996093-40.589844 93.140624-85.082031.699219-3.285156 1.25-6.699219 1.652344-10.101563.402344-3.691406.609375-7.402343.625-11.117187.015625-3.339844-.164062-6.679688-.542968-9.996094-.265626-3.136719-.75-5.96875-1.226563-8.8125-.414063-1.988281-.964844-4.28125-1.597656-6.566406-5.242188-11.347656-12.058594-21.90625-20.242188-31.355469-2.050781-2.328125-2.679687-5.582031-1.640625-8.503906 1.039063-2.921875 3.582032-5.050781 6.640625-5.558594 3.058594-.507813 6.15625.683594 8.082031 3.113281 9.699219 11.234375 17.636719 23.878906 23.535157 37.496094.808593 2.925781 1.457031 5.585938 2 8.246094.617187 3.605468 1.148437 6.90625 1.421875 10.214844.445312 3.890624.65625 7.808593.636718 11.722656-.015624 4.351562-.261718 8.695312-.734374 13.019531-.476563 4.03125-1.109376 7.964844-1.933594 11.808594-12.585938 51.21875-54.617188 89.925781-106.699219 98.257812-8.964844 1.636719-18.058594 2.453125-27.167969 2.441407zm0 0"/><path d="m59.75 128.011719c-4.3125-.007813-7.9375-3.230469-8.457031-7.507813-.515625-4.277344 2.238281-8.273437 6.421875-9.308594 66.949218-16.507812 78.726562-52.367187 79.199218-53.882812 1.003907-3.257812 3.839844-5.617188 7.226563-6.007812 3.378906-.398438 6.667969 1.257812 8.363281 4.207031 1.289063 2.210937 33.066406 54.808593 128.414063 46.933593 2.265625-.230468 4.523437.472657 6.257812 1.941407 1.738281 1.46875 2.804688 3.582031 2.949219 5.851562.191406 2.253907-.523438 4.492188-1.984375 6.21875-1.460937 1.726563-3.550781 2.800781-5.804687 2.988281-78.925782 6.632813-119.464844-25.566406-135.800782-43.757812-9.917968 15.21875-33.15625 39.359375-84.734375 52.074219-.671875.167969-1.359375.253906-2.050781.25zm0 0"/><path d="m128.007812 204.8125h-8.535156c-23.550781-.027344-42.636718-19.113281-42.667968-42.667969v-8.53125c.015624-9.421875 7.648437-17.054687 17.066406-17.066406h59.734375c9.421875.011719 17.054687 7.644531 17.066406 17.066406v8.53125c-.027344 23.554688-19.113281 42.640625-42.664063 42.667969zm-34.136718-51.199219v8.53125c.015625 14.132813 11.46875 25.585938 25.601562 25.601563h8.535156c14.128907-.015625 25.582032-11.46875 25.597657-25.601563v-8.53125zm0 0"/><path d="m238.941406 204.8125h-8.535156c-23.550781-.027344-42.640625-19.113281-42.667969-42.667969v-8.53125c.015625-9.421875 7.648438-17.054687 17.066407-17.066406h59.734374c9.421876.011719 17.054688 7.644531 17.066407 17.066406v8.53125c-.027344 23.554688-19.113281 42.640625-42.664063 42.667969zm-34.136718-51.199219v8.53125c.015624 14.132813 11.46875 25.585938 25.601562 25.601563h8.535156c14.128906-.015625 25.582032-11.46875 25.597656-25.601563v-8.53125zm0 0"/><path d="m198.171875 156.929688c-2.113281.003906-4.148437-.78125-5.714844-2.199219-7.378906-7.054688-19-7.054688-26.375 0-2.253906 2.097656-5.464843 2.820312-8.402343 1.886719-2.933594-.933594-5.140626-3.375-5.765626-6.390626-.628906-3.015624.414063-6.136718 2.734376-8.164062 13.859374-12.945312 35.378906-12.945312 49.238281 0 2.621093 2.367188 3.515625 6.101562 2.246093 9.398438-1.265624 3.292968-4.433593 5.46875-7.960937 5.46875zm0 0"/><path d="m51.972656 169.484375c-4.121094.003906-7.660156-2.9375-8.402344-6.996094-.742187-4.058593 1.519532-8.066406 5.378907-9.519531l36.265625-13.738281c2.855468-1.082031 6.066406-.558594 8.425781 1.371093 2.363281 1.929688 3.515625 4.972657 3.027344 7.980469-.492188 3.011719-2.550781 5.53125-5.402344 6.613281l-36.265625 13.738282c-.96875.363281-1.992188.550781-3.027344.550781zm0 0"/><path d="m306.4375 169.484375c-1.03125 0-2.058594-.1875-3.023438-.550781l-36.265624-13.738282c-4.410157-1.671874-6.628907-6.597656-4.960938-11.007812 1.671875-4.410156 6.597656-6.628906 11.007812-4.957031l36.265626 13.738281c3.859374 1.457031 6.121093 5.464844 5.378906 9.519531-.742188 4.054688-4.277344 7-8.402344 6.996094zm0 0"/></svg>