<svg height="512pt" viewBox="0 0 512 512.01255" width="512pt" xmlns="http://www.w3.org/2000/svg"><path d="m349.871094 435.210938v51.203124c-.027344 9.414063-7.652344 17.039063-17.066406 17.066407h-307.199219c-9.414063-.027344-17.039063-7.652344-17.066407-17.066407v-51.203124c-.011718-10.871094 1.714844-21.671876 5.121094-32 18.515625.171874 41.214844-1.789063 54.613282-10.664063 15.957031-10.667969 18.6875-37.804687 18.429687-56.832031 5.214844-1.289063 10.523437-2.144532 15.875-2.5625h153.257813c5.351562.417968 10.660156 1.273437 15.871093 2.5625-.253906 19.027344 2.476563 46.164062 18.433594 56.832031 13.394531 8.875 36.09375 10.835937 54.613281 10.664063 3.402344 10.328124 5.132813 21.128906 5.117188 32zm0 0" fill="#ff9801"/><path d="m349.871094 435.210938v51.203124c-.027344 9.414063-7.652344 17.039063-17.066406 17.066407h-23.636719c9.414062-.027344 17.039062-7.652344 17.066406-17.066407v-51.203124c.015625-10.871094-1.714844-21.671876-5.117187-32l.167968-1.109376c7.792969.871094 15.628906 1.242188 23.46875 1.109376 3.402344 10.328124 5.132813 21.128906 5.117188 32zm0 0" fill="#f57c00"/><path d="m8.539062 435.210938h170.667969v34.136718h-170.667969zm0 0" fill="#9e9e9e"/><path d="m179.207031 435.210938h170.664063v34.136718h-170.664063zm0 0" fill="#9e9e9e"/><path d="m204.804688 287.84375v60.328125l-25.597657 35.839844-25.601562-35.839844v-60.328125zm0 0" fill="#ffe0b2"/><path d="m86.703125 335.714844c.257813 19.027344-2.472656 46.164062-18.429687 56.832031-13.398438 8.875-36.097657 10.835937-54.613282 10.664063.1875-.722657.417969-1.433594.683594-2.132813 11.53125-32.609375 38.75-57.195313 72.359375-65.363281zm0 0" fill="#9e9e9e"/><path d="m344.753906 403.210938c-18.519531.171874-41.21875-1.789063-54.613281-10.664063-15.957031-10.667969-18.6875-37.804687-18.433594-56.832031 11.734375 2.855468 22.882813 7.734375 32.9375 14.421875l39.253907 50.601562c.089843.09375.152343.210938.171874.339844.265626.699219.492188 1.410156.683594 2.132813zm0 0" fill="#9e9e9e"/><path d="m324.273438 149.347656c0 1.363282 0 15.613282-.085938 17.066406h-289.960938c-.085937-1.453124-.085937-15.703124-.085937-17.066406.984375-74.363281 58.996094-135.457031 133.203125-140.289062 3.925781-.34375 7.851562-.511719 11.863281-.511719 78.929688-1.15625 143.867188 61.867187 145.066407 140.800781zm0 0" fill="#6d4122"/><path d="m300.636719 149.347656c0 1.363282 0 15.613282-.085938 17.066406h-266.324219c-.085937-1.453124-.085937-15.703124-.085937-17.066406.984375-74.363281 58.996094-135.457031 133.203125-140.289062 74.242188 4.792968 132.300781 65.898437 133.292969 140.289062zm0 0" fill="#91562d"/><path d="m306.609375 162.144531h17.664063c9.398437.070313 17 7.671875 17.066406 17.066407-.027344 9.414062-7.652344 17.039062-17.066406 17.066406h-290.132813c-9.414063-.027344-17.039063-7.652344-17.066406-17.066406.066406-9.394532 7.667969-16.996094 17.066406-17.066407zm0 0" fill="#dfc49c"/><path d="m307.207031 173.152344c-.011719 4.050781-.242187 8.09375-.683593 12.117187-6.65625 58.96875-61.097657 104.875-127.316407 104.875-3.925781 0-7.851562-.167969-11.777343-.511719-60.757813-5.035156-109.3125-48.894531-115.539063-104.363281-1.214844-10.777343-.8125-21.679687 1.191406-32.339843.769531-3.753907 1.707031-7.507813 2.816407-11.179688 9.132812-20.90625 31.660156-63.058594 67.585937-70.996094 15.027344-2.960937 30.617187-.351562 43.859375 7.339844h.085938c4.070312 2.171875 8.003906 4.597656 11.777343 7.253906 9.5625-7.046875 20.488281-12.019531 32.085938-14.59375 49.832031-10.238281 80.296875 45.824219 91.21875 70.996094 1.109375 3.671875 2.050781 7.425781 2.816406 11.179688 1.234375 6.671874 1.859375 13.441406 1.878906 20.222656zm0 0" fill="#dfc49c"/><path d="m283.570312 173.152344c-.011718 4.050781-.242187 8.09375-.683593 12.117187-6.230469 55.382813-54.699219 99.328125-115.457031 104.363281-60.757813-5.035156-109.3125-48.894531-115.539063-104.363281-1.214844-10.777343-.8125-21.679687 1.191406-32.339843.769531-3.753907 1.707031-7.507813 2.816407-11.179688 9.132812-20.90625 31.660156-63.058594 67.585937-70.996094 11.59375 2.574219 22.523437 7.546875 32.085937 14.59375 3.773438-2.65625 7.703126-5.082031 11.773438-7.253906h.085938c4.070312 2.171875 8.003906 4.597656 11.777343 7.253906 9.5625-7.046875 20.488281-12.019531 32.085938-14.59375 36.007812 7.9375 58.453125 50.089844 67.582031 70.996094 1.109375 3.671875 2.046875 7.425781 2.816406 11.179688 1.234375 6.671874 1.859375 13.441406 1.878906 20.222656zm0 0" fill="#ffe0b2"/><path d="m418.140625 416.695312v69.71875c0 9.425782-7.640625 17.066407-17.066406 17.066407s-17.066407-7.640625-17.066407-17.066407v-69.71875zm0 0" fill="#607d8b"/><path d="m179.207031 384.011719-25.601562 25.601562-50.941407-76.460937h-.085937l-.171875-.339844 34.132812-8.535156 6.058594 8.535156 11.007813 15.359375zm0 0" fill="#ffdc00"/><path d="m256.007812 332.8125-.171874.339844h-.085938l-50.945312 76.460937-25.597657-25.601562 25.597657-35.839844 11.007812-15.359375 6.058594-8.535156zm0 0" fill="#ffdc00"/><path d="m503.472656 315.746094c.007813 27.160156-10.777344 53.210937-29.984375 72.414062-19.203125 19.207032-45.253906 29.992188-72.414062 29.984375-3.9375-.007812-7.867188-.238281-11.777344-.679687-51.640625-5.996094-90.59375-49.730469-90.59375-101.71875 0-51.988282 38.953125-95.722656 90.59375-101.71875 3.910156-.445313 7.839844-.671875 11.777344-.679688 27.160156-.007812 53.210937 10.777344 72.414062 29.980469 19.207031 19.207031 29.992188 45.257813 29.984375 72.417969zm0 0" fill="#c81e1e"/><path d="m479.835938 315.746094c-.007813 51.964844-38.925782 95.6875-90.539063 101.71875-51.640625-5.996094-90.59375-49.730469-90.59375-101.71875 0-51.988282 38.953125-95.722656 90.59375-101.71875 51.613281 6.03125 90.53125 49.753906 90.539063 101.71875zm0 0" fill="#f44335"/><path d="m477.871094 315.746094c0 42.414062-34.382813 76.800781-76.796875 76.800781-42.417969 0-76.800781-34.386719-76.800781-76.800781 0-42.414063 34.382812-76.800782 76.800781-76.800782 42.414062 0 76.796875 34.386719 76.796875 76.800782zm0 0" fill="#ffdc00"/><path d="m349.871094 298.679688h102.402344c9.425781 0 17.066406 7.640624 17.066406 17.066406 0 9.425781-7.640625 17.066406-17.066406 17.066406h-102.402344c-9.421875 0-17.066406-7.640625-17.066406-17.066406 0-9.425782 7.644531-17.066406 17.066406-17.066406zm0 0" fill="#607d8b"/><path d="m179.207031 298.679688c-70.175781 0-128.558593-48.359376-135.800781-112.476563-.476562-4.339844-.722656-8.699219-.734375-13.066406.019531-7.277344.691406-14.542969 2.015625-21.699219.8125-4.105469 1.832031-8.171875 3.050781-12.175781 1.472657-4.382813 6.164063-6.796875 10.585938-5.449219 4.421875 1.351562 6.960937 5.976562 5.734375 10.433594-1.027344 3.367187-1.902344 6.882812-2.609375 10.417968-1.121094 6.09375-1.695313 12.277344-1.710938 18.472657.011719 3.742187.222657 7.480469.632813 11.199219 6.261718 55.433593 57.351562 97.277343 118.835937 97.277343s112.574219-41.84375 118.832031-97.324219c.414063-3.703124.625-7.425781.632813-11.152343-.019531-6.25-.597656-12.484375-1.730469-18.632813-.683594-3.375-1.558594-6.890625-2.585937-10.257812-.984375-2.945313-.296875-6.191406 1.800781-8.476563 2.097656-2.289062 5.269531-3.257812 8.289062-2.53125 3.015626.726563 5.402344 3.03125 6.226563 6.023438 1.167969 3.792969 2.183594 7.84375 3.027344 12.019531 2.171875 11.492188 2.613281 23.246094 1.308593 34.875-7.242187 64.164062-65.625 112.523438-135.800781 112.523438zm0 0"/><path d="m51.890625 204.8125h-17.75c-14.132813-.015625-25.585937-11.46875-25.601563-25.601562.066407-14.109376 11.488282-25.53125 25.601563-25.597657h17.664063c4.710937 0 8.53125 3.820313 8.53125 8.53125 0 4.714844-3.820313 8.535157-8.53125 8.535157h-17.578126c-2.253906-.039063-4.421874.847656-6.003906 2.449218-1.671875 1.578125-2.621094 3.78125-2.617187 6.082032.003906 4.714843 3.824219 8.53125 8.535156 8.535156h17.75c4.710937 0 8.53125 3.820312 8.53125 8.53125 0 4.714844-3.820313 8.535156-8.53125 8.535156zm0 0"/><path d="m324.273438 204.8125h-17.75c-4.710938 0-8.53125-3.820312-8.53125-8.535156 0-4.710938 3.820312-8.53125 8.53125-8.53125h17.75c4.710937-.003906 8.53125-3.820313 8.53125-8.535156.023437-2.222657-.863282-4.359376-2.449219-5.914063-1.578125-1.675781-3.78125-2.621094-6.082031-2.617187h-17.664063c-4.714844 0-8.535156-3.820313-8.535156-8.535157 0-4.710937 3.820312-8.53125 8.535156-8.53125h17.578125c14.144531.019531 25.621094 11.453125 25.683594 25.597657-.011719 14.132812-11.464844 25.585937-25.597656 25.601562zm0 0"/><path d="m324.199219 170.679688c-.171875 0-.335938-.007813-.5-.015626-4.699219-.273437-8.292969-4.300781-8.023438-9 .074219-1.601562.0625-11.019531.0625-12.316406-1.277343-74.183594-62.347656-133.34375-136.53125-132.269531-74.1875-1.074219-135.253906 58.085937-136.535156 132.269531 0 1.304688-.007813 10.730469.066406 12.324219.140625 4.621094-3.425781 8.515625-8.042969 8.777344-4.621093.261719-8.605468-3.203125-8.988281-7.8125-.09375-1.507813-.101562-11.875-.101562-13.289063 1.292969-83.605468 69.992187-150.398437 153.601562-149.3359372 83.605469-1.0624998 152.308594 65.7304692 153.597657 149.3359372 0 1.414063-.007813 11.78125-.097657 13.289063-.261719 4.511719-3.992187 8.035156-8.507812 8.042969zm0 0"/><path d="m55.898438 150.328125c-2.257813.011719-4.429688-.878906-6.03125-2.472656-1.601563-1.59375-2.5-3.757813-2.5-6.019531 0-1.195313.238281-2.378907.707031-3.480469 10.242187-23.542969 32.933593-64.585938 69.867187-75 21.140625-6 43.398438-.925781 66.15625 15 3.789063 2.726562 4.679688 7.992187 2.007813 11.816406-2.675781 3.824219-7.929688 4.789063-11.789063 2.164063-18.34375-12.839844-35.726562-17.066407-51.742187-12.554688-31.132813 8.78125-51.371094 48.273438-58.742188 65.132812-1.285156 3.257813-4.429687 5.40625-7.933593 5.414063zm0 0"/><path d="m302.511719 150.328125c-3.65625.011719-6.914063-2.316406-8.089844-5.78125-7.5-17.066406-27.675781-56.050781-58.585937-64.769531-16-4.515625-33.398438-.28125-51.738282 12.558594-2.5 1.796874-5.769531 2.113281-8.5625.824218-2.792968-1.289062-4.679687-3.980468-4.929687-7.046875-.253907-3.066406 1.164062-6.03125 3.707031-7.761719 22.757812-15.914062 44.992188-20.980468 66.160156-15 36.933594 10.417969 59.625 51.457032 69.867188 75 1.144531 2.644532.886718 5.683594-.6875 8.097657-1.578125 2.410156-4.257813 3.867187-7.140625 3.878906zm0 0"/><path d="m153.605469 356.707031c-4.710938 0-8.53125-3.820312-8.53125-8.535156v-60.324219c0-4.714844 3.820312-8.535156 8.53125-8.535156 4.714843 0 8.535156 3.820312 8.535156 8.535156v60.324219c0 4.714844-3.820313 8.535156-8.535156 8.535156zm0 0"/><path d="m204.804688 356.707031c-4.710938 0-8.53125-3.820312-8.53125-8.535156v-60.324219c0-4.714844 3.820312-8.535156 8.53125-8.535156 4.714843 0 8.535156 3.820312 8.535156 8.535156v60.324219c0 4.714844-3.820313 8.535156-8.535156 8.535156zm0 0"/><path d="m304.640625 358.667969c-1.679687.003906-3.320313-.492188-4.71875-1.425781-9.226563-6.140626-19.453125-10.621094-30.222656-13.242188-4.773438-1.179688-9.632813-1.960938-14.535157-2.339844-4.546874-.363281-8.007812-4.238281-7.851562-8.800781.15625-4.558594 3.875-8.191406 8.4375-8.238281h.09375c6.046875.421875 12.042969 1.363281 17.929688 2.808594 12.6875 3.085937 24.734374 8.367187 35.601562 15.601562 3.136719 2.082031 4.539062 5.972656 3.445312 9.578125-1.089843 3.605469-4.414062 6.066406-8.179687 6.0625zm0 0"/><path d="m332.804688 512.011719h-307.199219c-14.132813-.015625-25.5820315-11.46875-25.5976565-25.597657v-51.203124c-.015625-12.585938 2.1093755-25.085938 6.2812495-36.964844 4.785157-13.660156 12.234376-26.234375 21.917969-36.992188 18.921875-21.238281 45.3125-34.351562 73.664063-36.609375l.792968 8.507813v8.535156c-36.625 3.238281-67.992187 27.550781-80.265624 62.207031-3.535157 10.0625-5.335938 20.652344-5.324219 31.316407v51.203124c0 4.710938 3.820312 8.527344 8.53125 8.53125h307.199219c4.714843-.003906 8.53125-3.820312 8.535156-8.53125v-51.203124c.011718-9.960938-1.566406-19.859376-4.683594-29.324219-.183594-.648438-.316406-1.074219-.433594-1.40625-1.832031-3.75-.6875-8.277344 2.710938-10.699219 3.398437-2.421875 8.050781-2.03125 10.996094.921875.957031.980469 1.683593 2.160156 2.132812 3.449219l.027344-.007813c.339844.941407.691406 2.007813.933594 2.953125 3.597656 11.011719 5.414062 22.527344 5.382812 34.113282v51.203124c-.015625 14.128907-11.46875 25.582032-25.601562 25.597657zm0 0"/><path d="m153.605469 418.144531c-.28125 0-.558594-.015625-.839844-.039062-2.542969-.253907-4.839844-1.628907-6.257813-3.757813l-50.375-75.613281c-.492187-.554687-.902343-1.171875-1.226562-1.835937-1.160156-2.359376-1.214844-5.109376-.148438-7.515626 1.035157-2.371093 3.085938-4.152343 5.582032-4.839843l34.132812-8.535157c3.410156-.863281 6.996094.460938 9.023438 3.332032l42.652344 59.71875c2.421874 3.390625 2.039062 8.039062-.910157 10.992187l-25.597656 25.597657c-1.601563 1.601562-3.773437 2.496093-6.035156 2.496093zm-37.355469-80 38.679688 58.070313 13.132812-13.125-35.105469-49.121094zm0 0"/><path d="m204.804688 418.144531c-2.261719 0-4.429688-.898437-6.03125-2.5l-25.601563-25.597656c-2.945313-2.949219-3.332031-7.597656-.90625-10.992187l42.648437-59.71875c2.035157-2.863282 5.617188-4.1875 9.027344-3.332032l34.132813 8.535156c2.496093.625 4.574219 2.339844 5.664062 4.671876 1.085938 2.332031 1.0625 5.03125-.066406 7.34375l-.164063.339843c-.332031.6875-.757812 1.328125-1.261718 1.902344l-50.339844 75.550781c-1.417969 2.125-3.714844 3.5-6.257812 3.753906-.285157.027344-.558594.042969-.84375.042969zm-14.457032-35.058593 13.132813 13.125 38.683593-58.066407-16.707031-4.175781zm0 0"/><path d="m179.207031 512.011719c-4.714843 0-8.535156-3.820313-8.535156-8.53125v-119.46875c0-4.710938 3.820313-8.53125 8.535156-8.53125 4.710938 0 8.53125 3.820312 8.53125 8.53125v119.46875c0 4.710937-3.820312 8.53125-8.53125 8.53125zm0 0"/><path d="m179.207031 409.613281c-4.714843 0-8.535156-3.820312-8.535156-8.535156v-17.066406c0-4.710938 3.820313-8.53125 8.535156-8.53125 4.710938 0 8.53125 3.820312 8.53125 8.53125v17.066406c0 4.714844-3.820312 8.535156-8.53125 8.535156zm0 0"/><path d="m179.207031 477.878906h-170.667969c-4.710937 0-8.5312495-3.820312-8.5312495-8.53125v-34.136718c0-4.710938 3.8203125-8.53125 8.5312495-8.53125h170.667969c4.710938 0 8.53125 3.820312 8.53125 8.53125v34.136718c0 4.710938-3.820312 8.53125-8.53125 8.53125zm-162.132812-17.066406h153.597656v-17.066406h-153.597656zm0 0"/><path d="m179.207031 409.613281c-4.714843 0-8.535156-3.820312-8.535156-8.535156v-17.066406c0-4.710938 3.820313-8.53125 8.535156-8.53125 4.710938 0 8.53125 3.820312 8.53125 8.53125v17.066406c0 4.714844-3.820312 8.535156-8.53125 8.535156zm0 0"/><path d="m349.871094 477.878906h-170.664063c-4.714843 0-8.535156-3.820312-8.535156-8.53125v-34.136718c0-4.710938 3.820313-8.53125 8.535156-8.53125h170.664063c4.714844 0 8.535156 3.820312 8.535156 8.53125v34.136718c0 4.710938-3.820312 8.53125-8.535156 8.53125zm-162.132813-17.066406h153.601563v-17.066406h-153.601563zm0 0"/><path d="m15.839844 411.753906c-.75 0-1.5 0-2.257813-.007812-4.714843-.019532-8.515625-3.859375-8.496093-8.570313.019531-4.714843 3.859374-8.515625 8.570312-8.496093.707031-.023438 1.390625.007812 2.082031.007812 21.851563 0 38.785157-3.265625 47.824219-9.257812 9.617188-6.425782 14.953125-24.507813 14.609375-49.601563-.03125-2.261719.839844-4.445313 2.417969-6.066406 1.578125-1.625 3.738281-2.550781 6-2.582031h.113281c4.667969 0 8.472656 3.75 8.535156 8.417968.300781 22.238282-3.308593 51.398438-22.226562 64.039063-12.148438 8.050781-31.371094 12.117187-57.171875 12.117187zm0 0"/><path d="m342.574219 411.753906c-25.808594 0-45.027344-4.066406-57.144531-12.089844-18.949219-12.667968-22.554688-41.828124-22.257813-64.066406.0625-4.667968 3.867187-8.417968 8.535156-8.417968h.117188c2.261719.03125 4.421875.957031 6 2.582031 1.578125 1.621093 2.445312 3.804687 2.414062 6.066406-.339843 25.089844 4.992188 43.179687 14.644531 49.625 9.28125 6.152344 27.023438 9.558594 49.796876 9.226563h.074218c4.710938-.019532 8.550782 3.78125 8.570313 8.496093.019531 4.710938-3.785157 8.550781-8.496094 8.570313-.757813.007812-1.503906.007812-2.253906.007812zm0 0"/><path d="m401.074219 426.679688c-61.269531 0-110.933594-49.667969-110.933594-110.933594s49.664063-110.933594 110.933594-110.933594c61.265625 0 110.933593 49.667969 110.933593 110.933594-.070312 61.238281-49.699218 110.863281-110.933593 110.933594zm0-204.800782c-51.84375 0-93.867188 42.027344-93.867188 93.867188s42.023438 93.867187 93.867188 93.867187c51.839843 0 93.867187-42.027343 93.867187-93.867187-.058594-51.816406-42.050781-93.808594-93.867187-93.867188zm0 0"/><path d="m452.273438 332.8125h-102.402344c-14.136719 0-25.597656-11.460938-25.597656-25.601562 0-14.136719 11.460937-25.597657 25.597656-25.597657h102.402344c14.136718 0 25.597656 11.460938 25.597656 25.597657 0 14.140624-11.460938 25.601562-25.597656 25.601562zm-102.402344-34.132812c-4.710938 0-8.53125 3.820312-8.53125 8.53125 0 4.714843 3.820312 8.535156 8.53125 8.535156h102.402344c4.710937 0 8.53125-3.820313 8.53125-8.535156 0-4.710938-3.820313-8.53125-8.53125-8.53125zm0 0"/><path d="m435.207031 264.546875h-68.265625c-4.714844 0-8.535156-3.820313-8.535156-8.535156 0-4.710938 3.820312-8.53125 8.535156-8.53125h68.265625c4.710938 0 8.53125 3.820312 8.53125 8.53125 0 4.714843-3.820312 8.535156-8.53125 8.535156zm0 0"/><path d="m401.074219 512.011719c-14.132813-.015625-25.585938-11.46875-25.601563-25.597657v-69.71875c0-4.714843 3.820313-8.535156 8.535156-8.535156 4.710938 0 8.53125 3.820313 8.53125 8.535156v69.71875c0 4.710938 3.820313 8.53125 8.535157 8.53125 4.710937 0 8.53125-3.820312 8.53125-8.53125v-69.71875c0-4.714843 3.820312-8.535156 8.535156-8.535156 4.710937 0 8.53125 3.820313 8.53125 8.535156v69.71875c-.015625 14.128907-11.46875 25.582032-25.597656 25.597657zm0 0"/></svg>