<svg height="512pt" viewBox="0 0 512 512.01259" width="512pt" xmlns="http://www.w3.org/2000/svg"><path d="m324.527344 241.675781-8.789063 133.804688-23.550781-1.367188-251.222656-14.335937c-25.429688-20.734375-30.546875-59.734375-15.359375-91.5625 17.066406-35.753906 8.535156-80.46875 8.535156-80.46875h290.132813c-2.90625 17.867187-2.820313 36.09375.253906 53.929687zm0 0" fill="#783e22"/><path d="m300.890625 241.675781-8.703125 132.4375-251.222656-14.335937c-25.429688-20.734375-30.546875-59.734375-15.359375-91.5625 17.066406-35.753906 8.535156-80.46875 8.535156-80.46875h266.496094c-2.90625 17.867187-2.820313 36.09375.253906 53.929687zm0 0" fill="#a0522d"/><path d="m349.871094 435.210938v51.203124c-.027344 9.414063-7.652344 17.039063-17.066406 17.066407h-307.199219c-9.414063-.027344-17.039063-7.652344-17.066407-17.066407v-51.203124c-.011718-10.871094 1.714844-21.671876 5.121094-32 18.515625.171874 41.214844-1.789063 54.613282-10.664063 15.957031-10.667969 18.6875-37.804687 18.429687-56.832031 5.214844-1.289063 10.523437-2.144532 15.875-2.5625h153.257813c5.351562.417968 10.660156 1.273437 15.871093 2.5625-.253906 19.027344 2.476563 46.164062 18.433594 56.832031 13.394531 8.875 36.09375 10.835937 54.613281 10.664063 3.402344 10.328124 5.132813 21.128906 5.117188 32zm0 0" fill="#ff9801"/><path d="m349.871094 435.210938v51.203124c-.027344 9.414063-7.652344 17.039063-17.066406 17.066407h-23.636719c9.414062-.027344 17.039062-7.652344 17.066406-17.066407v-51.203124c.015625-10.871094-1.714844-21.671876-5.117187-32l.167968-1.109376c7.792969.871094 15.628906 1.242188 23.46875 1.109376 3.402344 10.328124 5.132813 21.128906 5.117188 32zm0 0" fill="#f57c00"/><path d="m8.539062 435.210938h170.667969v34.136718h-170.667969zm0 0" fill="#9e9e9e"/><path d="m179.207031 435.210938h170.664063v34.136718h-170.664063zm0 0" fill="#9e9e9e"/><path d="m204.804688 287.84375v60.328125l-25.597657 35.839844-25.601562-35.839844v-60.328125zm0 0" fill="#ffe0b2"/><path d="m86.703125 335.714844c.257813 19.027344-2.472656 46.164062-18.429687 56.832031-13.398438 8.875-36.097657 10.835937-54.613282 10.664063.1875-.722657.417969-1.433594.683594-2.132813 11.53125-32.609375 38.75-57.195313 72.359375-65.363281zm0 0" fill="#9e9e9e"/><path d="m344.753906 403.210938c-18.519531.171874-41.21875-1.789063-54.613281-10.664063-15.957031-10.667969-18.6875-37.804687-18.433594-56.832031 11.734375 2.855468 22.882813 7.734375 32.9375 14.421875l39.253907 50.601562c.089843.09375.152343.210938.171874.339844.265626.699219.492188 1.410156.683594 2.132813zm0 0" fill="#9e9e9e"/><path d="m324.273438 149.347656c0 1.363282 0 15.613282-.085938 17.066406h-289.960938c-.085937-1.453124-.085937-15.703124-.085937-17.066406.984375-74.363281 58.996094-135.457031 133.203125-140.289062 3.925781-.34375 7.851562-.511719 11.863281-.511719 78.929688-1.15625 143.867188 61.867187 145.066407 140.800781zm0 0" fill="#6d4122"/><path d="m300.636719 149.347656c0 1.363282 0 15.613282-.085938 17.066406h-266.324219c-.085937-1.453124-.085937-15.703124-.085937-17.066406.984375-74.363281 58.996094-135.457031 133.203125-140.289062 74.242188 4.792968 132.300781 65.898437 133.292969 140.289062zm0 0" fill="#91562d"/><path d="m306.609375 162.144531h17.664063c9.398437.070313 17 7.671875 17.066406 17.066407-.027344 9.414062-7.652344 17.039062-17.066406 17.066406h-290.132813c-9.414063-.027344-17.039063-7.652344-17.066406-17.066406.066406-9.394532 7.667969-16.996094 17.066406-17.066407zm0 0" fill="#dfc49c"/><path d="m418.140625 416.695312v69.71875c0 9.425782-7.640625 17.066407-17.066406 17.066407s-17.066407-7.640625-17.066407-17.066407v-69.71875zm0 0" fill="#3f51b5"/><path d="m179.207031 384.011719-25.601562 25.601562-50.941407-76.460937h-.085937l-.171875-.339844 34.132812-8.535156 6.058594 8.535156 11.007813 15.359375zm0 0" fill="#ffdc00"/><path d="m256.007812 332.8125-.171874.339844h-.085938l-50.945312 76.460937-25.597657-25.601562 25.597657-35.839844 11.007812-15.359375 6.058594-8.535156zm0 0" fill="#ffdc00"/><path d="m503.472656 315.746094c.007813 27.160156-10.777344 53.210937-29.984375 72.414062-19.203125 19.207032-45.253906 29.992188-72.414062 29.984375-3.9375-.007812-7.867188-.234375-11.777344-.679687-51.640625-5.996094-90.59375-49.730469-90.59375-101.71875 0-51.988282 38.953125-95.722656 90.59375-101.71875 3.910156-.445313 7.839844-.671875 11.777344-.679688 27.160156-.007812 53.210937 10.777344 72.414062 29.980469 19.207031 19.207031 29.992188 45.257813 29.984375 72.417969zm0 0" fill="#c81e1e"/><path d="m479.835938 315.746094c-.007813 51.964844-38.925782 95.6875-90.539063 101.71875-51.640625-5.996094-90.59375-49.730469-90.59375-101.71875 0-51.988282 38.953125-95.722656 90.59375-101.71875 51.613281 6.03125 90.53125 49.753906 90.539063 101.71875zm0 0" fill="#f44335"/><path d="m477.871094 315.746094c0 42.414062-34.382813 76.800781-76.796875 76.800781-42.417969 0-76.800781-34.386719-76.800781-76.800781 0-42.414063 34.382812-76.800782 76.800781-76.800782 42.414062 0 76.796875 34.386719 76.796875 76.800782zm0 0" fill="#ffdc00"/><path d="m349.871094 298.679688h102.402344c9.425781 0 17.066406 7.640624 17.066406 17.066406 0 9.425781-7.640625 17.066406-17.066406 17.066406h-102.402344c-9.421875 0-17.066406-7.640625-17.066406-17.066406 0-9.425782 7.644531-17.066406 17.066406-17.066406zm0 0" fill="#3f51b5"/><path d="m307.207031 173.152344c-.011719 4.050781-.242187 8.09375-.683593 12.117187-6.65625 58.96875-61.097657 104.875-127.316407 104.875s-120.660156-45.90625-127.316406-104.875c-.445313-4.023437-.671875-8.066406-.683594-12.117187.015625-6.78125.644531-13.550782 1.875-20.222656.597657-2.988282 1.28125-5.886719 2.136719-8.789063l4.519531-24.660156c73.386719-18.09375 85.335938-59.734375 85.335938-59.734375s34.132812 59.734375 136.53125 51.199218c17.066406 8.535157 22.957031 38.230469 23.722656 41.984376 1.234375 6.671874 1.863281 13.441406 1.878906 20.222656zm0 0" fill="#ffe0b2"/><path d="m51.890625 204.8125h-17.75c-14.132813-.015625-25.585937-11.46875-25.601563-25.601562.066407-14.109376 11.488282-25.53125 25.601563-25.597657h17.664063c4.710937 0 8.53125 3.820313 8.53125 8.53125 0 4.714844-3.820313 8.535157-8.53125 8.535157h-17.578126c-2.253906-.039063-4.421874.847656-6.003906 2.449218-1.675781 1.582032-2.621094 3.78125-2.617187 6.082032.003906 4.710937 3.824219 8.53125 8.535156 8.535156h17.75c4.710937 0 8.53125 3.820312 8.53125 8.53125 0 4.714844-3.820313 8.535156-8.53125 8.535156zm0 0"/><path d="m324.273438 204.8125h-17.75c-4.710938 0-8.53125-3.820312-8.53125-8.535156 0-4.710938 3.820312-8.53125 8.53125-8.53125h17.75c4.710937-.003906 8.527343-3.824219 8.53125-8.535156.023437-2.226563-.867188-4.363282-2.457032-5.921876-1.578125-1.671874-3.777344-2.617187-6.074218-2.609374h-17.664063c-4.714844 0-8.535156-3.820313-8.535156-8.535157 0-4.710937 3.820312-8.53125 8.535156-8.53125h17.578125c14.144531.023438 25.617188 11.457031 25.683594 25.597657-.011719 14.132812-11.464844 25.585937-25.597656 25.601562zm0 0"/><path d="m324.199219 170.679688c-.171875 0-.332031-.007813-.5-.015626-4.703125-.273437-8.296875-4.300781-8.03125-9 .082031-1.601562.070312-11.019531.070312-12.316406-1.277343-74.183594-62.347656-133.34375-136.53125-132.269531-74.1875-1.074219-135.253906 58.085937-136.535156 132.269531 0 1.304688-.007813 10.730469.070313 12.324219.175781 3.042969-1.289063 5.949219-3.839844 7.621094-2.550782 1.671875-5.796875 1.855469-8.519532.480469-2.722656-1.371094-4.507812-4.089844-4.679687-7.136719-.085937-1.507813-.097656-11.875-.097656-13.289063 1.289062-83.605468 69.992187-150.402344 153.601562-149.3359372 83.609375-1.0664068 152.3125 65.7304692 153.597657 149.3359372 0 1.414063-.011719 11.78125-.09375 13.289063-.261719 4.511719-3.996094 8.035156-8.511719 8.042969zm0 0"/><path d="m153.605469 356.707031c-4.710938 0-8.53125-3.820312-8.53125-8.535156v-60.324219c0-4.714844 3.820312-8.535156 8.53125-8.535156 4.714843 0 8.535156 3.820312 8.535156 8.535156v60.324219c0 4.714844-3.820313 8.535156-8.535156 8.535156zm0 0"/><path d="m204.804688 356.707031c-4.710938 0-8.53125-3.820312-8.53125-8.535156v-60.324219c0-4.714844 3.820312-8.535156 8.53125-8.535156 4.714843 0 8.535156 3.820312 8.535156 8.535156v60.324219c0 4.714844-3.820313 8.535156-8.535156 8.535156zm0 0"/><path d="m304.640625 358.667969c-1.679687.003906-3.316406-.492188-4.714844-1.425781-9.226562-6.140626-19.460937-10.625-30.230469-13.242188-4.773437-1.179688-9.632812-1.960938-14.53125-2.339844-4.546874-.363281-8.007812-4.238281-7.851562-8.800781.15625-4.558594 3.875-8.191406 8.4375-8.238281h.085938c6.046874.421875 12.046874 1.363281 17.933593 2.808594 12.683594 3.085937 24.730469 8.367187 35.597657 15.601562 3.136718 2.082031 4.539062 5.972656 3.449218 9.578125-1.089844 3.601563-4.414062 6.066406-8.175781 6.0625zm0 0"/><path d="m332.804688 512.011719h-307.199219c-14.132813-.015625-25.5820315-11.46875-25.5976565-25.597657v-51.203124c-.0507813-57.773438 44.2890625-105.894532 101.8749995-110.566407l.777344 8.507813v8.535156c-36.621094 3.238281-67.984375 27.546875-80.257812 62.199219-3.539063 10.066406-5.339844 20.65625-5.328125 31.324219v51.203124c.003906 4.710938 3.820312 8.527344 8.53125 8.53125h307.199219c4.710937-.003906 8.53125-3.820312 8.535156-8.53125v-51.203124c.011718-9.957032-1.570313-19.855469-4.6875-29.316407-.191406-.691406-.320313-1.109375-.425782-1.421875-1.8125-3.714844-.703124-8.191406 2.632813-10.628906 3.332031-2.441406 7.933594-2.140625 10.925781.710938 1.003906.988281 1.773438 2.191406 2.253906 3.515624l.015626-.007812c.382812 1.007812.710937 2.039062.980468 3.082031 3.59375 10.996094 5.40625 22.5 5.371094 34.066407v51.203124c-.015625 14.128907-11.46875 25.582032-25.601562 25.597657zm0 0"/><path d="m153.605469 418.144531c-.277344 0-.5625-.015625-.839844-.039062-2.542969-.25-4.839844-1.628907-6.257813-3.757813l-50.390624-75.625c-.460938-.53125-.855469-1.117187-1.171876-1.75-1.1875-2.359375-1.261718-5.125-.207031-7.546875 1.03125-2.390625 3.089844-4.1875 5.597657-4.882812l34.132812-8.535157c3.410156-.863281 7 .460938 9.027344 3.332032l42.65625 59.71875c2.421875 3.394531 2.035156 8.042968-.914063 10.992187l-25.597656 25.597657c-1.601563 1.601562-3.773437 2.496093-6.035156 2.496093zm-37.355469-80 38.6875 58.070313 13.121094-13.125-35.101563-49.121094zm0 0"/><path d="m204.804688 418.144531c-2.261719 0-4.429688-.898437-6.03125-2.5l-25.601563-25.597656c-2.949219-2.949219-3.335937-7.597656-.910156-10.992187l42.652343-59.71875c2.03125-2.871094 5.621094-4.195313 9.03125-3.332032l34.132813 8.535156c2.511719.625 4.601563 2.359376 5.683594 4.710938s1.035156 5.066406-.121094 7.378906l-.171875.34375c-.324219.648438-.730469 1.253906-1.210938 1.796875l-50.347656 75.578125c-1.417968 2.125-3.714844 3.503906-6.257812 3.753906-.285156.027344-.566406.042969-.847656.042969zm-14.453126-35.058593 13.125 13.125 38.6875-58.066407-16.707031-4.175781zm0 0"/><path d="m179.207031 512.011719c-4.714843 0-8.535156-3.820313-8.535156-8.53125v-119.46875c0-4.710938 3.820313-8.53125 8.535156-8.53125 4.710938 0 8.53125 3.820312 8.53125 8.53125v119.46875c0 4.710937-3.820312 8.53125-8.53125 8.53125zm0 0"/><path d="m179.207031 409.613281c-4.714843 0-8.535156-3.820312-8.535156-8.535156v-17.066406c0-4.710938 3.820313-8.53125 8.535156-8.53125 4.710938 0 8.53125 3.820312 8.53125 8.53125v17.066406c0 4.714844-3.820312 8.535156-8.53125 8.535156zm0 0"/><path d="m179.207031 477.878906h-170.667969c-4.710937 0-8.5312495-3.820312-8.5312495-8.53125v-34.136718c0-4.710938 3.8203125-8.53125 8.5312495-8.53125h170.667969c4.710938 0 8.53125 3.820312 8.53125 8.53125v34.136718c0 4.710938-3.820312 8.53125-8.53125 8.53125zm-162.132812-17.066406h153.597656v-17.066406h-153.597656zm0 0"/><path d="m179.207031 409.613281c-4.714843 0-8.535156-3.820312-8.535156-8.535156v-17.066406c0-4.710938 3.820313-8.53125 8.535156-8.53125 4.710938 0 8.53125 3.820312 8.53125 8.53125v17.066406c0 4.714844-3.820312 8.535156-8.53125 8.535156zm0 0"/><path d="m349.871094 477.878906h-170.664063c-4.714843 0-8.535156-3.820312-8.535156-8.53125v-34.136718c0-4.710938 3.820313-8.53125 8.535156-8.53125h170.664063c4.714844 0 8.535156 3.820312 8.535156 8.53125v34.136718c0 4.710938-3.820312 8.53125-8.535156 8.53125zm-162.132813-17.066406h153.601563v-17.066406h-153.601563zm0 0"/><path d="m15.84375 411.753906c-.75 0-1.5 0-2.257812-.007812-3.050782-.027344-5.851563-1.679688-7.351563-4.332032-1.503906-2.652343-1.472656-5.90625.074219-8.53125 1.546875-2.628906 4.378906-4.230468 7.425781-4.203124 22.957031.339843 40.511719-3.074219 49.828125-9.25 9.609375-6.425782 14.949219-24.507813 14.609375-49.601563-.0625-4.710937 3.707031-8.582031 8.421875-8.648437h.117188c4.667968 0 8.46875 3.75 8.53125 8.417968.296874 22.242188-3.316407 51.410156-22.222657 64.042969-12.152343 8.046875-31.371093 12.113281-57.175781 12.113281zm0 0"/><path d="m342.570312 411.753906c-25.804687 0-45.023437-4.066406-57.144531-12.089844-18.9375-12.660156-22.546875-41.828124-22.253906-64.066406.0625-4.667968 3.867187-8.417968 8.535156-8.417968h.113281c4.714844.0625 8.484376 3.9375 8.421876 8.648437-.335938 25.089844 5 43.179687 14.644531 49.625 9.28125 6.152344 26.992187 9.492187 49.792969 9.226563 4.683593.027343 8.5 3.773437 8.609374 8.457031.019532 2.265625-.859374 4.441406-2.445312 6.058593-1.585938 1.613282-3.75 2.53125-6.011719 2.550782-.761719.007812-1.511719.007812-2.261719.007812zm0 0"/><path d="m401.074219 426.679688c-61.269531 0-110.933594-49.667969-110.933594-110.933594s49.664063-110.933594 110.933594-110.933594c61.265625 0 110.933593 49.667969 110.933593 110.933594-.070312 61.238281-49.695312 110.863281-110.933593 110.933594zm0-204.800782c-51.84375 0-93.867188 42.027344-93.867188 93.867188s42.023438 93.867187 93.867188 93.867187c51.839843 0 93.867187-42.027343 93.867187-93.867187-.058594-51.816406-42.050781-93.808594-93.867187-93.867188zm0 0"/><path d="m452.273438 332.8125h-102.402344c-14.136719 0-25.597656-11.460938-25.597656-25.601562 0-14.136719 11.460937-25.597657 25.597656-25.597657h102.402344c14.136718 0 25.597656 11.460938 25.597656 25.597657 0 14.140624-11.460938 25.601562-25.597656 25.601562zm-102.402344-34.132812c-4.710938 0-8.53125 3.820312-8.53125 8.53125 0 4.714843 3.820312 8.535156 8.53125 8.535156h102.402344c4.710937 0 8.53125-3.820313 8.53125-8.535156 0-4.710938-3.820313-8.53125-8.53125-8.53125zm0 0"/><path d="m435.207031 264.546875h-68.265625c-4.714844 0-8.535156-3.820313-8.535156-8.535156 0-4.710938 3.820312-8.53125 8.535156-8.53125h68.265625c4.710938 0 8.53125 3.820312 8.53125 8.53125 0 4.714843-3.820312 8.535156-8.53125 8.535156zm0 0"/><path d="m401.074219 512.011719c-14.132813-.015625-25.585938-11.46875-25.601563-25.597657v-69.71875c0-4.710937 3.820313-8.535156 8.535156-8.535156 4.710938 0 8.53125 3.824219 8.53125 8.535156v69.71875c0 4.710938 3.820313 8.53125 8.535157 8.53125 4.710937 0 8.53125-3.820312 8.53125-8.53125v-69.71875c0-4.710937 3.820312-8.535156 8.535156-8.535156 4.710937 0 8.53125 3.824219 8.53125 8.535156v69.71875c-.015625 14.128907-11.46875 25.582032-25.597656 25.597657zm0 0"/><path d="m179.207031 298.679688c-70.183593 0-128.5625-48.359376-135.796875-112.476563-1.304687-11.585937-.875-23.304687 1.28125-34.765625.878906-4.359375 1.894532-8.414062 3.046875-12.175781.886719-2.914063 3.265625-5.132813 6.238281-5.820313 2.96875-.6875 6.082032.261719 8.160157 2.488282 2.082031 2.230468 2.8125 5.398437 1.925781 8.316406-1.03125 3.367187-1.902344 6.882812-2.609375 10.417968-1.835937 9.78125-2.199219 19.78125-1.082031 29.667969 6.253906 55.4375 57.347656 97.28125 118.835937 97.28125s112.578125-41.84375 118.835938-97.324219c1.121093-9.929687.746093-19.96875-1.109375-29.78125-2.847656-14.136718-9.386719-31.050781-19.128906-35.925781-2.726563-1.363281-4.519532-4.078125-4.703126-7.125-.179687-3.042969 1.273438-5.953125 3.820313-7.632812 2.542969-1.679688 5.789063-1.875 8.515625-.507813 18.660156 9.332032 25.96875 36.605469 28.246094 47.898438 2.191406 11.515625 2.640625 23.300781 1.328125 34.949218-7.242188 64.15625-65.621094 112.515626-135.804688 112.515626zm0 0"/><path d="m40.976562 368.992188c-1.898437.003906-3.742187-.628907-5.238281-1.796876-27.828125-21.667968-35.289062-62.847656-17.753906-97.933593 15.507813-31.007813 7.875-70.914063 7.796875-71.316407-.921875-4.621093 2.074219-9.117187 6.699219-10.039062 4.621093-.921875 9.117187 2.074219 10.039062 6.699219.371094 1.855469 8.898438 45.957031-9.265625 82.289062-13.917968 27.835938-8.464844 60.144531 12.96875 76.835938 2.875 2.238281 4.011719 6.058593 2.828125 9.503906-1.183593 3.449219-4.429687 5.761719-8.074219 5.761719zm0 0"/><path d="m324.519531 256.269531c-4.082031-.011719-7.585937-2.90625-8.363281-6.914062-3.300781-18.097657-3.382812-36.636719-.246094-54.765625.960938-4.582032 5.4375-7.535156 10.027344-6.613282 4.589844.917969 7.582031 5.363282 6.707031 9.964844-2.664062 15.949219-2.578125 32.242188.261719 48.164063.433594 2.222656-.035156 4.523437-1.304688 6.398437-1.265624 1.875-3.222656 3.171875-5.445312 3.601563-.539062.109375-1.085938.164062-1.636719.164062zm0 0"/><path d="m55.238281 152.675781c-.515625 0-1.035156-.046875-1.542969-.144531-2.226562-.40625-4.199218-1.683594-5.484374-3.546875-1.285157-1.863281-1.78125-4.160156-1.371094-6.386719l4.523437-24.660156c.917969-4.566406 5.328125-7.554688 9.90625-6.710938 4.582031.839844 7.640625 5.199219 6.875 9.796876l-4.519531 24.660156c-.746094 4.046875-4.269531 6.984375-8.386719 6.992187zm0 0"/><path d="m59.742188 128.011719c-4.308594-.007813-7.933594-3.230469-8.453126-7.507813-.515624-4.277344 2.238282-8.273437 6.421876-9.308594 67.804687-16.71875 79.066406-53.433593 79.171874-53.800781.941407-3.300781 3.773438-5.714843 7.179688-6.125 3.410156-.410156 6.734375 1.261719 8.433594 4.242188 1.289062 2.210937 33.128906 54.785156 128.417968 46.933593 3.089844-.351562 6.125 1.007813 7.925782 3.542969 1.796875 2.539063 2.074218 5.851563.71875 8.652344-1.351563 2.796875-4.121094 4.640625-7.226563 4.804687-78.925781 6.625-119.476562-25.574218-135.796875-43.757812-9.917968 15.226562-33.160156 39.359375-84.738281 52.074219-.667969.171875-1.359375.253906-2.054687.25zm0 0"/></svg>