<svg height="512pt" viewBox="0 0 512 512.0883" width="512pt" xmlns="http://www.w3.org/2000/svg"><path d="m349.910156 443.746094v17.066406l-17.578125 42.667969h-306.6875c-10.167969-.875-17.757812-9.730469-17.066406-19.910157v-39.824218zm0 0" fill="#ffe0b2"/><path d="m349.910156 435.210938v17.066406h-341.332031v-17.066406c-.011719-46.699219 31.582031-87.488282 76.800781-99.15625l34.132813-3.242188h119.464843l34.132813 3.242188c27.601563 7.3125 50.984375 25.636718 64.683594 50.6875 1.621093 3.074218 3.074219 6.230468 4.4375 9.472656 2.238281 5.414062 4.007812 11.011718 5.289062 16.726562 1.578125 7.320313 2.378907 14.785156 2.390625 22.269532zm0 0" fill="#c81e1e"/><path d="m326.273438 435.210938v17.066406h-317.695313v-17.066406c-.011719-46.699219 31.582031-87.488282 76.800781-99.15625l34.132813-3.242188h95.828125l34.132812 3.242188c27.601563 7.3125 50.984375 25.636718 64.683594 50.6875 1.621094 3.074218 3.070312 6.230468 4.4375 9.472656 2.234375 5.414062 4.003906 11.011718 5.289062 16.726562 1.578126 7.320313 2.378907 14.785156 2.390626 22.269532zm0 0" fill="#f44335"/><path d="m119.511719 332.8125v17.066406c0 18.851563 15.28125 34.132813 34.132812 34.132813h51.199219c18.851562 0 34.132812-15.28125 34.132812-34.132813v-17.066406zm0 0" fill="#ffe0b2"/><path d="m153.644531 287.84375h51.199219v70.570312h-51.199219zm0 0" fill="#ffe0b2"/><g fill="#3f51b5"><path d="m76.84375 418.144531h204.800781c4.710938 0 8.53125 3.820313 8.53125 8.535157v76.800781h-221.863281v-76.800781c0-4.714844 3.820312-8.535157 8.53125-8.535157zm0 0"/><path d="m119.511719 332.8125v85.332031h-34.132813v-82.089843c8.359375-2.167969 16.960938-3.257813 25.597656-3.242188zm0 0"/><path d="m273.109375 336.054688v82.089843h-34.132813v-85.332031h8.535157c8.636719-.015625 17.238281 1.074219 25.597656 3.242188zm0 0"/></g><path d="m145.109375 503.480469s-25.597656-17.066407-8.53125-34.132813c17.066406-17.070312 22.582031 13.386719 42.667969 0 25.597656-17.070312 42.664062-8.535156 42.664062 34.132813zm0 0" fill="#9d27b0"/><path d="m500.609375 338.617188c-2.464844 7.417968-6.347656 14.285156-11.433594 20.222656-6.9375 8.335937-17.792969 12.34375-28.484375 10.503906-10.6875-1.835938-19.582031-9.238281-23.335937-19.414062-3.753907-10.175782-1.792969-21.578126 5.140625-29.917969 5.546875-5.492188 12.941406-8.714844 20.738281-9.042969.253906 0 .425781-.085938.683594-.085938 11.027343-2.101562 20.089843-9.941406 23.746093-20.558593.621094-1.550781 2.09375-2.601563 3.765626-2.679688 1.671874-.078125 3.234374.824219 4 2.3125 8.257812 14.84375 10.125 32.40625 5.179687 48.660157zm0 0" fill="#ffeb3a"/><path d="m423.230469 422.359375c-32.125 38.664063-84.523438 87.558594-93.117188 80.417969-8.59375-7.136719 29.875-67.605469 62-106.273438 32.125-38.664062 45.746094-40.882812 54.339844-33.746094 8.589844 7.140626 8.902344 20.933594-23.222656 59.601563zm0 0" fill="#825a2c"/><path d="m324.3125 157.195312c0 1.453126 0 11.949219-.085938 13.484376h-289.964843c-.085938-1.535157-.085938-12.03125-.085938-13.484376-.828125-76.484374 57.0625-140.863281 133.207031-148.136718 3.925782-.34375 7.851563-.511719 11.863282-.511719 81.101562 1 146.042968 67.546875 145.066406 148.648437zm0 0" fill="#6d4122"/><path d="m300.671875 157.195312c0 1.453126 0 11.949219-.082031 13.484376h-266.328125c-.085938-1.535157-.085938-12.03125-.085938-13.484376-.828125-76.484374 57.0625-140.863281 133.207031-148.136718 76.175782 7.234375 134.113282 71.621094 133.289063 148.136718zm0 0" fill="#91562d"/><path d="m306.648438 162.144531h17.664062c9.394531.070313 16.996094 7.671875 17.066406 17.066407-.027344 9.414062-7.652344 17.039062-17.066406 17.066406h-290.136719c-9.414062-.027344-17.039062-7.652344-17.066406-17.066406.070313-9.394532 7.671875-16.996094 17.066406-17.066407zm0 0" fill="#dfc49c"/><path d="m307.246094 173.152344c-.015625 4.050781-.242188 8.09375-.683594 12.117187-6.65625 58.96875-61.101562 104.875-127.316406 104.875-3.84375 0-7.597656-.167969-11.351563-.511719h-.085937c-12.847656-.992187-25.488282-3.808593-37.546875-8.363281-29.5625-10.789062-53.890625-32.460937-68.007813-60.585937-5.433594-11.128906-8.925781-23.105469-10.328125-35.414063-.441406-4.023437-.667969-8.066406-.679687-12.117187.015625-6.78125.644531-13.550782 1.875-20.222656.769531-3.753907 1.707031-7.507813 2.816406-11.179688 9.128906-20.90625 31.574219-63.058594 67.582031-70.996094 15.027344-2.960937 30.617188-.351562 43.863281 7.339844h.085938c4.070312 2.175781 8 4.597656 11.777344 7.253906 9.558594-7.046875 20.488281-12.019531 32.082031-14.59375 49.835937-10.238281 80.300781 45.824219 91.222656 70.996094 1.109375 3.671875 2.046875 7.425781 2.816407 11.179688 1.230468 6.671874 1.859374 13.441406 1.878906 20.222656zm0 0" fill="#dfc49c"/><path d="m283.605469 173.152344c-.011719 4.050781-.238281 8.09375-.679688 12.117187-6.230469 55.296875-54.445312 99.074219-115.03125 104.363281h-.085937c-12.847656-.992187-25.488282-3.808593-37.546875-8.363281-29.5625-10.789062-53.890625-32.460937-68.007813-60.585937-5.433594-11.128906-8.925781-23.105469-10.328125-35.414063-.441406-4.023437-.667969-8.066406-.679687-12.117187.015625-6.78125.644531-13.550782 1.875-20.222656.769531-3.753907 1.707031-7.507813 2.816406-11.179688 9.128906-20.90625 31.574219-63.058594 67.582031-70.996094 11.597657 2.574219 22.527344 7.546875 32.085938 14.59375 3.773437-2.65625 7.707031-5.078125 11.777343-7.253906h.085938c4.070312 2.175781 8 4.597656 11.777344 7.253906 9.558594-7.046875 20.488281-12.019531 32.082031-14.59375 36.011719 7.9375 58.453125 50.089844 67.585937 70.996094 1.109376 3.671875 2.046876 7.425781 2.816407 11.179688 1.230469 6.671874 1.859375 13.441406 1.875 20.222656zm0 0" fill="#ffe0b2"/><path d="m130.261719 281.269531c-29.5625-10.789062-53.890625-32.460937-68.007813-60.585937 3.324219-14.679688 16.613282-24.925782 31.65625-24.40625 42.667969 0 17.066406 34.136718 42.667969 42.667968 19.96875 6.65625 19.199219 28.84375-6.316406 42.324219zm0 0" fill="#9d27b0"/><path d="m500.609375 338.617188c-8 .613281-15.976563-1.425782-22.699219-5.804688-7.949218-4.605469-13.164062-12.78125-13.992187-21.929688 11.027343-2.101562 20.089843-9.941406 23.746093-20.558593.621094-1.550781 2.09375-2.601563 3.765626-2.679688 1.671874-.078125 3.234374.824219 4 2.3125 8.257812 14.84375 10.125 32.40625 5.179687 48.660157zm0 0" fill="#9d27b0"/><path d="m179.246094 298.679688c-70.183594 0-128.5625-48.359376-135.796875-112.476563-1.308594-11.585937-.875-23.304687 1.277343-34.765625.882813-4.359375 1.898438-8.414062 3.046876-12.175781.890624-2.914063 3.269531-5.132813 6.238281-5.820313 2.972656-.6875 6.082031.261719 8.164062 2.488282 2.078125 2.230468 2.8125 5.398437 1.921875 8.316406-1.027344 3.367187-1.898437 6.882812-2.605468 10.417968-1.835938 9.78125-2.199219 19.78125-1.082032 29.667969 6.253906 55.4375 57.347656 97.28125 118.835938 97.28125 61.484375 0 112.578125-41.84375 118.835937-97.324219 1.121094-9.929687.746094-19.96875-1.109375-29.78125-.683594-3.375-1.550781-6.894531-2.578125-10.261718-1.375-4.507813 1.164063-9.277344 5.671875-10.652344 4.507813-1.375 9.277344 1.164062 10.652344 5.671875 1.148438 3.765625 2.164062 7.816406 3.015625 12.015625 1.339844 7.210938 2.023437 14.523438 2.042969 21.855469-.007813 4.351562-.253906 8.699219-.734375 13.027343-7.238281 64.15625-65.617188 112.515626-135.796875 112.515626zm0 0"/><path d="m51.925781 204.8125h-17.75c-14.128906-.015625-25.582031-11.46875-25.597656-25.601562.066406-14.109376 11.488281-25.53125 25.597656-25.597657h17.664063c4.714844 0 8.535156 3.820313 8.535156 8.53125 0 4.714844-3.820312 8.535157-8.535156 8.535157h-17.578125c-2.25-.039063-4.417969.847656-6.003907 2.449218-1.671874 1.582032-2.617187 3.78125-2.613281 6.082032.003907 4.710937 3.820313 8.53125 8.53125 8.535156h17.75c4.714844 0 8.535157 3.820312 8.535157 8.53125 0 4.714844-3.820313 8.535156-8.535157 8.535156zm0 0"/><path d="m324.3125 204.8125h-17.75c-4.714844 0-8.535156-3.820312-8.535156-8.535156 0-4.710938 3.820312-8.53125 8.535156-8.53125h17.75c4.710938-.003906 8.527344-3.824219 8.53125-8.535156.019531-2.226563-.867188-4.363282-2.457031-5.921876-1.578125-1.671874-3.777344-2.617187-6.074219-2.609374h-17.664062c-4.714844 0-8.535157-3.820313-8.535157-8.535157 0-4.710937 3.820313-8.53125 8.535157-8.53125h17.578124c14.140626.023438 25.613282 11.457031 25.683594 25.597657-.015625 14.132812-11.46875 25.585937-25.597656 25.601562zm0 0"/><path d="m324.234375 170.679688c-.167969 0-.328125-.007813-.5-.015626-4.699219-.273437-8.292969-4.300781-8.027344-9 .078125-1.601562.070313-11.019531.070313-12.316406-1.28125-74.183594-62.347656-133.34375-136.53125-132.269531-74.1875-1.074219-135.253906 58.085937-136.535156 132.269531 0 1.304688-.007813 10.730469.070312 12.324219.171875 3.042969-1.292969 5.949219-3.839844 7.621094-2.550781 1.671875-5.800781 1.855469-8.523437.480469-2.722657-1.371094-4.503907-4.089844-4.679688-7.136719-.082031-1.507813-.09375-11.875-.09375-13.289063 1.289063-83.605468 69.992188-150.402344 153.601563-149.3359372 83.605468-1.0664068 152.308594 65.7304692 153.597656 149.3359372 0 1.414063-.011719 11.78125-.09375 13.289063-.265625 4.511719-3.996094 8.035156-8.515625 8.042969zm0 0"/><path d="m55.9375 150.328125c-2.257812.011719-4.429688-.878906-6.03125-2.472656s-2.5-3.757813-2.503906-6.019531c0-1.195313.242187-2.378907.710937-3.480469 10.238281-23.542969 32.933594-64.585938 69.867188-75 21.132812-5.972657 43.402343-.917969 66.15625 15 3.789062 2.726562 4.679687 7.992187 2.003906 11.816406s-7.925781 4.789063-11.785156 2.164063c-18.355469-12.847657-35.765625-17.066407-51.742188-12.554688-31.128906 8.78125-51.378906 48.273438-58.742187 65.132812-1.285156 3.261719-4.429688 5.40625-7.933594 5.414063zm0 0"/><path d="m302.550781 150.328125c-3.660156.011719-6.917969-2.316406-8.09375-5.78125-7.5-17.066406-27.675781-56.050781-58.582031-64.769531-15.964844-4.507813-33.386719-.292969-51.742188 12.558594-2.496093 1.796874-5.765624 2.113281-8.558593.824218-2.796875-1.289062-4.679688-3.980468-4.933594-7.046875-.25-3.066406 1.164063-6.03125 3.710937-7.761719 22.761719-15.914062 45.027344-20.972656 66.15625-15 36.933594 10.417969 59.628907 51.457032 69.867188 75 1.148438 2.644532.890625 5.683594-.6875 8.097657-1.574219 2.410156-4.257812 3.867187-7.136719 3.878906zm0 0"/><path d="m153.644531 366.945312c-4.714843 0-8.535156-3.820312-8.535156-8.53125v-70.566406c0-4.714844 3.820313-8.535156 8.535156-8.535156 4.710938 0 8.53125 3.820312 8.53125 8.535156v70.566406c0 4.710938-3.820312 8.53125-8.53125 8.53125zm0 0"/><path d="m204.84375 366.945312c-4.710938 0-8.53125-3.820312-8.53125-8.53125v-70.566406c0-4.714844 3.820312-8.535156 8.53125-8.535156 4.714844 0 8.535156 3.820312 8.535156 8.535156v70.566406c0 4.710938-3.820312 8.53125-8.535156 8.53125zm0 0"/><path d="m345.984375 505.785156c-4.746094-.003906-8.601563-3.84375-8.617187-8.59375-.015626-4.746094 3.8125-8.613281 8.5625-8.644531s8.628906 3.785156 8.675781 8.53125c-.03125 2.324219-.957031 4.546875-2.585938 6.203125-1.597656 1.601562-3.769531 2.503906-6.035156 2.503906zm0 0"/><path d="m332.332031 512.011719h-306.6875c-14.132812-.015625-25.5859372-11.46875-25.6015622-25.597657v-51.203124c.0703122-61.238282 49.6953122-110.863282 110.9335932-110.933594h42.667969c4.710938 0 8.53125 3.824218 8.53125 8.535156 0 4.714844-3.820312 8.535156-8.53125 8.535156h-42.667969c-51.816406.058594-93.808593 42.046875-93.867187 93.863282v51.203124c.003906 4.710938 3.824219 8.527344 8.535156 8.53125h306.6875c4.714844 0 8.535157 3.820313 8.535157 8.535157 0 4.710937-3.820313 8.53125-8.535157 8.53125zm0 0"/><path d="m349.910156 463.457031c-4.710937 0-8.53125-3.820312-8.53125-8.53125v-19.714843c-.058594-51.816407-42.050781-93.804688-93.867187-93.863282h-42.667969c-4.710938 0-8.53125-3.820312-8.53125-8.535156 0-4.710938 3.820312-8.535156 8.53125-8.535156h42.667969c61.238281.070312 110.863281 49.695312 110.933593 110.933594v19.714843c0 4.710938-3.820312 8.53125-8.535156 8.53125zm0 0"/><path d="m290.175781 512.011719h-221.863281c-4.714844 0-8.535156-3.820313-8.535156-8.53125v-76.800781c.011718-9.421876 7.644531-17.054688 17.066406-17.066407h204.800781c9.421875.011719 17.054688 7.644531 17.066407 17.066407v76.800781c0 4.710937-3.820313 8.53125-8.535157 8.53125zm-213.332031-17.066407h204.800781v-68.265624h-204.800781zm0 0"/><path d="m119.511719 426.679688h-34.132813c-4.714844 0-8.535156-3.820313-8.535156-8.535157v-82.089843c0-4.710938 3.820312-8.53125 8.535156-8.53125 4.710938 0 8.53125 3.820312 8.53125 8.53125v73.558593h17.066406v-68.265625c-4.710937 0-8.53125-3.820312-8.53125-8.535156 0-4.710938 3.820313-8.535156 8.53125-8.535156h8.535157c4.710937 0 8.53125 3.824218 8.53125 8.535156v85.332031c0 4.714844-3.820313 8.535157-8.53125 8.535157zm0 0"/><path d="m273.109375 426.679688h-34.132813c-4.710937 0-8.53125-3.820313-8.53125-8.535157v-85.332031c0-4.710938 3.820313-8.535156 8.53125-8.535156h8.535157c4.710937 0 8.53125 3.824218 8.53125 8.535156 0 4.714844-3.820313 8.535156-8.53125 8.535156v68.265625h17.066406v-73.558593c0-4.710938 3.820313-8.53125 8.53125-8.53125 4.714844 0 8.535156 3.820312 8.535156 8.53125v82.089843c0 4.714844-3.820312 8.535157-8.535156 8.535157zm0 0"/><path d="m110.976562 452.277344c0 4.714844-3.820312 8.535156-8.53125 8.535156-4.714843 0-8.535156-3.820312-8.535156-8.535156 0-4.710938 3.820313-8.53125 8.535156-8.53125 4.710938 0 8.53125 3.820312 8.53125 8.53125zm0 0"/><path d="m264.578125 452.277344c0 4.714844-3.820313 8.535156-8.535156 8.535156-4.710938 0-8.53125-3.820312-8.53125-8.535156 0-4.710938 3.820312-8.53125 8.53125-8.53125 4.714843 0 8.535156 3.820312 8.535156 8.53125zm0 0"/><path d="m221.910156 512.011719c-4.710937 0-8.53125-3.820313-8.53125-8.53125 0-25.476563-6.238281-31.558594-8.921875-33-4.070312-2.160157-11.53125 0-20.480469 5.964843-9.503906 6.871094-22.453124 6.425782-31.460937-1.082031-5.949219-3.757812-6.058594-3.824219-9.90625.015625-2.203125 1.699219-3.445313 4.359375-3.335937 7.140625.558593 5.84375 8.019531 12.132813 10.59375 13.875 3.878906 2.636719 4.902343 7.90625 2.296874 11.804688-2.609374 3.894531-7.871093 4.957031-11.789062 2.378906-9.300781-6.019531-15.808594-15.503906-18.082031-26.347656-.65625-7.878907 2.394531-15.609375 8.25-20.917969 3.78125-4.480469 9.203125-7.257812 15.050781-7.703125s11.628906 1.476563 16.046875 5.335937c5.535156 3.507813 7.605469 4.816407 12.871094 1.300782 14.980469-9.992188 27.78125-12.289063 37.996093-6.808594 12.070313 6.457031 17.9375 22.175781 17.9375 48.042969 0 4.710937-3.820312 8.53125-8.535156 8.53125zm0 0"/><path d="m324.320312 426.679688c-3.757812 0-7.078124-2.457032-8.171874-6.050782-1.089844-3.597656.296874-7.484375 3.421874-9.574218l20.820313-13.910157c2.53125-1.785156 5.835937-2.058593 8.625-.710937s4.632813 4.101562 4.808594 7.195312c.179687 3.09375-1.332031 6.039063-3.949219 7.699219l-20.824219 13.910156c-1.398437.9375-3.046875 1.441407-4.730469 1.441407zm0 0"/><path d="m315.785156 401.078125c-3.675781.003906-6.941406-2.347656-8.105468-5.835937-1.160157-3.488282.042968-7.328126 2.988281-9.53125l17.578125-13.140626c2.433594-1.898437 5.710937-2.335937 8.558594-1.136718 2.847656 1.199218 4.824218 3.84375 5.167968 6.917968.34375 3.070313-1 6.085938-3.511718 7.886719l-17.578126 13.140625c-1.46875 1.105469-3.257812 1.703125-5.097656 1.699219zm0 0"/><path d="m204.84375 392.546875h-51.199219c-23.554687-.027344-42.640625-19.113281-42.667969-42.667969v-17.066406c0-4.710938 3.820313-8.535156 8.535157-8.535156 4.710937 0 8.53125 3.824218 8.53125 8.535156v17.066406c.015625 14.132813 11.46875 25.585938 25.601562 25.601563h51.199219c14.132812-.015625 25.585938-11.46875 25.601562-25.601563v-17.066406c0-4.710938 3.820313-8.535156 8.53125-8.535156 4.714844 0 8.535157 3.824218 8.535157 8.535156v17.066406c-.027344 23.554688-19.113281 42.640625-42.667969 42.667969zm0 0"/><path d="m238.976562 230.414062c-3.449218-.003906-6.5625-2.082031-7.882812-5.269531s-.589844-6.859375 1.851562-9.296875l8.53125-8.535156c3.347657-3.234375 8.671876-3.1875 11.964844.105469 3.289063 3.289062 3.335938 8.613281.101563 11.960937l-8.53125 8.535156c-1.597657 1.601563-3.769531 2.5-6.035157 2.5zm0 0"/><path d="m213.378906 213.347656c-3.453125-.003906-6.5625-2.082031-7.882812-5.269531-1.320313-3.1875-.589844-6.859375 1.847656-9.296875l8.535156-8.535156c3.347656-3.234375 8.667969-3.1875 11.960938.105468 3.292968 3.289063 3.339844 8.613282.105468 11.960938l-8.535156 8.53125c-1.597656 1.605469-3.769531 2.503906-6.03125 2.503906zm0 0"/><path d="m130.269531 289.804688c-3.921875 0-7.339843-2.667969-8.285156-6.476563-.945313-3.804687.824219-7.765625 4.289063-9.597656 12.226562-6.46875 16.128906-14.109375 15.746093-18.6875-.386719-4.726563-5.265625-7.042969-8.140625-8-11.449218-4.109375-19.273437-14.738281-19.792968-26.890625-1.976563-10.53125-2.875-15.339844-20.175782-15.339844-11.34375-.5625-21.375 7.304688-23.523437 18.457031-.921875 2.90625-3.328125 5.101563-6.304688 5.753907-2.976562.652343-6.078125-.332032-8.132812-2.582032-2.054688-2.253906-2.753907-5.429687-1.832031-8.335937 4.453124-18.234375 21.03125-30.882813 39.792968-30.359375 31.464844 0 34.761719 17.601562 36.949219 29.25 1.671875 8.910156 2.691406 11.941406 8.421875 13.859375 10.640625 2.8125 18.476562 11.851562 19.75 22.78125 1.089844 13.25-8.171875 26.402343-24.777344 35.175781-1.226562.652344-2.597656.992188-3.984375.992188zm0 0"/><path d="m465.804688 378.277344c-15.070313.003906-28.78125-8.710938-35.179688-22.355469s-4.328125-29.757813 5.3125-41.34375c6.953125-7.28125 16.429688-11.625 26.484375-12.144531 10.480469-2.023438 18.074219-11.160156 18.144531-21.832032-.34375-3.742187 1.800782-7.269531 5.28125-8.6875 3.484375-1.414062 7.480469-.382812 9.847656 2.535157 21.429688 26.097656 21.449219 63.691406.046876 89.808593v.007813c-7.394532 8.898437-18.371094 14.035156-29.9375 14.011719zm25.617187-76.449219c-6.042969 9.679687-16.105469 16.140625-27.421875 17.609375-5.585938.207031-10.917969 2.398438-15.039062 6.175781-7.582032 9.300781-6.230469 22.976563 3.03125 30.609375 9.257812 7.636719 22.941406 6.355469 30.625-2.859375 12.398437-14.15625 15.800781-34.066406 8.804687-51.535156zm0 0"/><path d="m332.117188 512.085938c-2.738282.03125-5.394532-.949219-7.457032-2.75-21.863281-18.164063 60.0625-117.28125 60.894532-118.28125 10.585937-14.261719 23.652343-26.503907 38.570312-36.140626 8.507812-5.828124 19.851562-5.304687 27.78125 1.289063 7.933594 6.589844 10.527344 17.644531 6.355469 27.078125-6.746094 16.425781-16.386719 31.507812-28.464844 44.53125v.007812c-17.375 20.722657-36.179687 40.203126-56.277344 58.300782-21.929687 19.492187-33.824219 25.964844-41.402343 25.964844zm105.824218-143.980469c-2.070312.15625-4.074218.804687-5.84375 1.890625-12.871094 8.679687-24.171875 19.488281-33.421875 31.957031-23.179687 27.359375-43.015625 57.382813-59.089843 89.433594 28.558593-21.679688 54.4375-46.683594 77.085937-74.480469v.007812c10.566406-11.378906 19.121094-24.472656 25.296875-38.71875 2-6.40625.214844-7.890624-.964844-8.867187-.816406-.796875-1.921875-1.238281-3.0625-1.222656zm0 0"/><path d="m68.3125 460.8125h-59.734375c-4.714844 0-8.5351562-3.820312-8.5351562-8.535156 0-4.710938 3.8203122-8.53125 8.5351562-8.53125h59.734375c4.710938 0 8.53125 3.820312 8.53125 8.53125 0 4.714844-3.820312 8.535156-8.53125 8.535156zm0 0"/><path d="m349.910156 460.8125h-59.734375c-4.710937 0-8.53125-3.820312-8.53125-8.535156 0-4.710938 3.820313-8.53125 8.53125-8.53125h59.734375c4.714844 0 8.535156 3.820312 8.535156 8.53125 0 4.714844-3.820312 8.535156-8.535156 8.535156zm0 0"/></svg>