<svg height="512pt" viewBox="0 0 512 512.01263" width="512pt" xmlns="http://www.w3.org/2000/svg"><path d="m349.789062 392.546875-32.429687-32.085937c-3.308594-3.15625-6.84375-6.0625-10.578125-8.703126-12.53125-9.035156-26.992188-15.027343-42.242188-17.496093-.304687-.097657-.617187-.152344-.9375-.167969h-168.789062c-.320312.015625-.636719.070312-.941406.167969-15.246094 2.46875-29.710938 8.460937-42.238282 17.496093-27.074218 19.160157-43.148437 50.285157-43.09375 83.453126v51.203124c.027344 9.414063 7.652344 17.039063 17.066407 17.066407h307.199219c9.414062-.027344 17.039062-7.652344 17.066406-17.066407v-51.203124c0-.765626 0-41.898438-.082032-42.664063zm0 0" fill="#bdc3c7"/><path d="m59.738281 503.480469c4.523438-50.703125 1.792969-101.792969-8.105469-151.722657 12.527344-9.035156 26.992188-15.027343 42.238282-17.496093.257812 12.203125 3.160156 98.050781 42.667968 169.21875zm0 0" fill="#3f51b5"/><path d="m51.632812 351.757812c9.898438 49.929688 12.628907 101.019532 8.105469 151.722657h-34.132812c-9.414063-.027344-17.039063-7.652344-17.066407-17.066407v-51.203124c-.054687-33.167969 16.019532-64.292969 43.09375-83.453126zm0 0" fill="#9e9e9e"/><path d="m298.671875 503.480469h-76.800781c39.511718-71.167969 42.414062-157.015625 42.667968-169.21875 15.25 2.46875 29.710938 8.460937 42.242188 17.496093-9.902344 49.929688-12.632812 101.019532-8.109375 151.722657zm0 0" fill="#3f51b5"/><path d="m264.539062 334.261719c-.253906 12.203125-3.15625 98.050781-42.667968 169.21875h-85.332032c-39.507812-71.167969-42.410156-157.015625-42.667968-169.21875.304687-.097657.621094-.152344.941406-.167969h168.789062c.320313.015625.632813.070312.9375.167969zm0 0" fill="#9e9e9e"/><path d="m349.871094 435.210938v51.203124c-.027344 9.414063-7.652344 17.039063-17.066406 17.066407h-34.132813c-4.246094-46.996094-2.207031-94.34375 6.058594-140.800781.855469-5.121094 1.621093-8.875 2.050781-10.921876 3.734375 2.640626 7.269531 5.546876 10.578125 8.703126l5.976563 5.886718 2.8125 2.816406 23.640624 23.382813c.082032.765625.082032 41.898437.082032 42.664063zm0 0" fill="#707070"/><path d="m326.234375 435.210938v51.203124c-.027344 9.414063-7.652344 17.039063-17.066406 17.066407h-10.496094c-4.246094-46.996094-2.207031-94.34375 6.058594-140.800781l18.605469 3.667968 2.8125.597656v2.21875c.085937 11.777344.085937 65.367188.085937 66.046876zm0 0" fill="#9e9e9e"/><path d="m179.207031 375.480469-36.4375 14.589843c-3.667969 1.46875-7.867187.234376-10.15625-2.984374l-31.058593-43.519532c-1.695313-2.355468-2.074219-5.410156-1-8.105468 1.070312-2.695313 3.441406-4.660157 6.289062-5.207032l24.746094-4.949218c3.058594-.652344 6.222656.46875 8.191406 2.898437l13.824219 16.554687zm0 0" fill="#f5f5f5"/><path d="m256.859375 343.566406-31.0625 43.519532c-2.289063 3.21875-6.484375 4.453124-10.152344 2.984374l-36.4375-14.589843 25.597657-30.722657 13.824218-16.554687c1.96875-2.429687 5.132813-3.550781 8.195313-2.898437l24.746093 4.949218c2.847657.546875 5.21875 2.511719 6.289063 5.207032 1.070313 2.695312.695313 5.75-1 8.105468zm0 0" fill="#f5f5f5"/><path d="m204.804688 287.84375v56.914062l-25.597657 30.722657-25.601562-30.722657v-56.914062zm0 0" fill="#ffe0b2"/><path d="m435.804688 332.8125-9.558594-21.417969c-1.839844-4.132812-5.25-7.367187-9.476563-8.984375-4.226562-1.617187-8.921875-1.484375-13.050781.363282l-77.910156 34.902343c-4.121094 1.855469-7.335938 5.269531-8.933594 9.496094-1.601562 4.226563-1.457031 8.914063.402344 13.03125l55.722656 124.671875c2.359375 5.359375 7.335938 9.109375 13.140625 9.898438h.085937zm0 0" fill="#ff9801"/><path d="m401.074219 332.8125h85.332031c9.425781 0 17.066406 7.640625 17.066406 17.066406v136.535156c0 9.425782-7.640625 17.066407-17.066406 17.066407h-85.332031c-9.425781 0-17.066407-7.640625-17.066407-17.066407v-136.535156c0-9.425781 7.640626-17.066406 17.066407-17.066406zm0 0" fill="#fec108"/><path d="m401.074219 332.8125h61.695312c9.425781 0 17.066407 7.640625 17.066407 17.066406v136.535156c0 9.425782-7.640626 17.066407-17.066407 17.066407h-61.695312c-9.425781 0-17.066407-7.640625-17.066407-17.066407v-136.535156c0-9.425781 7.640626-17.066406 17.066407-17.066406zm0 0" fill="#ffdc00"/><path d="m324.273438 149.347656c0 1.363282 0 19.882813-.085938 21.332032h-289.960938c-.085937-1.449219-.085937-19.96875-.085937-21.332032.984375-74.363281 58.996094-135.457031 133.203125-140.289062 3.925781-.34375 7.851562-.511719 11.863281-.511719 78.929688-1.15625 143.867188 61.867187 145.066407 140.800781zm0 0" fill="#6d4122"/><path d="m300.636719 149.347656c0 1.363282 0 19.882813-.085938 21.332032h-266.324219c-.085937-1.449219-.085937-19.96875-.085937-21.332032.984375-74.363281 58.996094-135.457031 133.203125-140.289062 74.242188 4.792968 132.300781 65.898437 133.292969 140.289062zm0 0" fill="#91562d"/><path d="m306.609375 162.144531h17.664063c9.398437.070313 17 7.671875 17.066406 17.066407-.027344 9.414062-7.652344 17.039062-17.066406 17.066406h-290.132813c-9.414063-.027344-17.039063-7.652344-17.066406-17.066406.066406-9.394532 7.667969-16.996094 17.066406-17.066407zm0 0" fill="#dfc49c"/><path d="m307.207031 173.152344c-.011719 4.050781-.242187 8.09375-.683593 12.117187-6.65625 58.96875-61.097657 104.875-127.316407 104.875-3.925781 0-7.851562-.167969-11.777343-.511719-60.757813-5.035156-109.3125-48.894531-115.539063-104.363281-.445313-4.023437-.671875-8.066406-.683594-12.117187.015625-6.78125.644531-13.550782 1.875-20.222656.769531-3.753907 1.707031-7.507813 2.816407-11.179688 9.132812-20.90625 31.660156-63.058594 67.585937-70.996094 15.027344-2.960937 30.617187-.351562 43.859375 7.339844h.085938c4.070312 2.175781 8.003906 4.597656 11.777343 7.253906 9.5625-7.046875 20.488281-12.019531 32.085938-14.59375 49.832031-10.238281 80.296875 45.824219 91.21875 70.996094 1.109375 3.671875 2.050781 7.425781 2.816406 11.179688 1.234375 6.671874 1.863281 13.441406 1.878906 20.222656zm0 0" fill="#dfc49c"/><path d="m283.570312 173.152344c-.011718 4.050781-.242187 8.09375-.683593 12.117187-6.230469 55.382813-54.699219 99.328125-115.457031 104.363281-60.757813-5.035156-109.3125-48.894531-115.539063-104.363281-.445313-4.023437-.671875-8.066406-.683594-12.117187.015625-6.78125.644531-13.550782 1.875-20.222656.769531-3.753907 1.707031-7.507813 2.816407-11.179688 9.132812-20.90625 31.660156-63.058594 67.585937-70.996094 11.59375 2.574219 22.523437 7.546875 32.085937 14.59375 3.773438-2.65625 7.703126-5.078125 11.773438-7.253906h.085938c4.070312 2.175781 8.003906 4.597656 11.777343 7.253906 9.5625-7.046875 20.488281-12.019531 32.085938-14.59375 36.007812 7.9375 58.453125 50.089844 67.582031 70.996094 1.109375 3.671875 2.046875 7.425781 2.816406 11.179688 1.234375 6.671874 1.859375 13.441406 1.878906 20.222656zm0 0" fill="#ffe0b2"/><path d="m179.207031 298.679688c-70.183593 0-128.5625-48.359376-135.796875-112.476563-1.304687-11.585937-.875-23.304687 1.28125-34.765625.878906-4.359375 1.894532-8.414062 3.046875-12.175781.886719-2.914063 3.265625-5.132813 6.238281-5.820313 2.96875-.6875 6.082032.261719 8.160157 2.488282 2.082031 2.230468 2.8125 5.398437 1.925781 8.316406-1.03125 3.367187-1.902344 6.882812-2.609375 10.417968-1.835937 9.78125-2.199219 19.78125-1.082031 29.667969 6.253906 55.4375 57.347656 97.28125 118.835937 97.28125s112.578125-41.84375 118.835938-97.324219c1.121093-9.929687.746093-19.96875-1.109375-29.78125-.679688-3.375-1.546875-6.894531-2.578125-10.261718-1.375-4.507813 1.164062-9.277344 5.671875-10.652344 4.507812-1.375 9.277344 1.164062 10.652344 5.671875 1.152343 3.765625 2.167968 7.816406 3.019531 12.015625 1.335937 7.210938 2.019531 14.523438 2.039062 21.855469-.007812 4.351562-.25 8.699219-.730469 13.027343-7.238281 64.15625-65.617187 112.515626-135.800781 112.515626zm0 0"/><path d="m51.890625 204.8125h-17.75c-14.132813-.015625-25.585937-11.46875-25.601563-25.601562.066407-14.109376 11.488282-25.53125 25.601563-25.597657h17.664063c4.710937 0 8.53125 3.820313 8.53125 8.53125 0 4.714844-3.820313 8.535157-8.53125 8.535157h-17.578126c-2.253906-.039063-4.421874.847656-6.003906 2.449218-1.675781 1.582032-2.621094 3.78125-2.617187 6.082032.003906 4.710937 3.824219 8.53125 8.535156 8.535156h17.75c4.710937 0 8.53125 3.820312 8.53125 8.53125 0 4.714844-3.820313 8.535156-8.53125 8.535156zm0 0"/><path d="m324.273438 204.8125h-17.75c-4.710938 0-8.53125-3.820312-8.53125-8.535156 0-4.710938 3.820312-8.53125 8.53125-8.53125h17.75c4.710937-.003906 8.527343-3.824219 8.53125-8.535156.023437-2.226563-.867188-4.363282-2.457032-5.921876-1.578125-1.671874-3.777344-2.617187-6.074218-2.609374h-17.664063c-4.714844 0-8.535156-3.820313-8.535156-8.535157 0-4.710937 3.820312-8.53125 8.535156-8.53125h17.578125c14.144531.023438 25.617188 11.457031 25.683594 25.597657-.011719 14.132812-11.464844 25.585937-25.597656 25.601562zm0 0"/><path d="m324.199219 170.679688c-.171875 0-.332031-.007813-.5-.015626-4.703125-.273437-8.296875-4.300781-8.03125-9 .082031-1.601562.070312-11.019531.070312-12.316406-1.277343-74.183594-62.347656-133.34375-136.53125-132.269531-74.1875-1.074219-135.253906 58.085937-136.535156 132.269531 0 1.304688-.007813 10.730469.070313 12.324219.175781 3.042969-1.289063 5.949219-3.839844 7.621094-2.550782 1.671875-5.796875 1.855469-8.519532.480469-2.722656-1.371094-4.507812-4.089844-4.679687-7.136719-.085937-1.507813-.097656-11.875-.097656-13.289063 1.289062-83.605468 69.992187-150.402344 153.601562-149.3359372 83.609375-1.0664068 152.3125 65.7304692 153.597657 149.3359372 0 1.414063-.011719 11.78125-.09375 13.289063-.261719 4.511719-3.996094 8.035156-8.511719 8.042969zm0 0"/><path d="m55.898438 150.328125c-2.257813.011719-4.425782-.878906-6.027344-2.472656-1.601563-1.59375-2.503906-3.757813-2.503906-6.019531 0-1.195313.238281-2.378907.707031-3.480469 10.242187-23.542969 32.933593-64.585938 69.867187-75 21.136719-5.972657 43.398438-.917969 66.15625 15 3.789063 2.726562 4.679688 7.992187 2.007813 11.816406-2.675781 3.824219-7.929688 4.789063-11.789063 2.164063-18.355468-12.847657-35.753906-17.066407-51.742187-12.554688-31.128907 8.78125-51.378907 48.273438-58.742188 65.132812-1.28125 3.261719-4.425781 5.40625-7.933593 5.414063zm0 0"/><path d="m302.511719 150.328125c-3.660157.011719-6.917969-2.316406-8.09375-5.78125-7.496094-17.066406-27.675781-56.050781-58.582031-64.769531-15.976563-4.507813-33.386719-.292969-51.738282 12.558594-2.5 1.796874-5.769531 2.113281-8.5625.824218-2.792968-1.289062-4.679687-3.980468-4.929687-7.046875-.253907-3.066406 1.164062-6.03125 3.707031-7.761719 22.757812-15.914062 45.035156-20.972656 66.160156-15 36.933594 10.417969 59.628906 51.457032 69.867188 75 1.144531 2.644532.886718 5.683594-.6875 8.097657-1.578125 2.410156-4.257813 3.867187-7.140625 3.878906zm0 0"/><path d="m153.605469 353.292969c-4.710938 0-8.53125-3.820313-8.53125-8.535157v-56.914062c0-4.714844 3.820312-8.535156 8.53125-8.535156 4.714843 0 8.535156 3.820312 8.535156 8.535156v56.914062c0 4.714844-3.820313 8.535157-8.535156 8.535157zm0 0"/><path d="m204.804688 353.292969c-4.710938 0-8.53125-3.820313-8.53125-8.535157v-56.914062c0-4.714844 3.820312-8.535156 8.53125-8.535156 4.714843 0 8.535156 3.820312 8.535156 8.535156v56.914062c0 4.714844-3.820313 8.535157-8.535156 8.535157zm0 0"/><path d="m332.804688 512.011719h-307.199219c-14.132813-.015625-25.5820315-11.46875-25.5976565-25.597657v-51.203124c.015625-35.914063 17.4101565-69.605469 46.6874995-90.414063 13.574219-9.8125 29.261719-16.304687 45.796876-18.960937.757812-.199219 1.539062-.292969 2.320312-.277344 4.511719.015625 8.234375 3.542968 8.492188 8.050781.253906 4.507813-3.042969 8.433594-7.527344 8.957031-.199219.050782-.402344.09375-.523438.117188-13.949218 2.234375-27.179687 7.707031-38.625 15.984375-24.796875 17.609375-39.535156 46.132812-39.554687 76.542969v51.203124c.003906 4.710938 3.820312 8.527344 8.53125 8.53125h307.199219c4.710937-.003906 8.53125-3.820312 8.535156-8.53125v-51.203124c.015625-.429688.003906-.859376-.035156-1.289063-.507813-4.6875 2.875-8.898437 7.558593-9.410156 4.6875-.511719 8.898438 2.875 9.410157 7.558593.101562 1.042969.144531 2.09375.132812 3.140626v51.203124c-.015625 14.128907-11.46875 25.582032-25.601562 25.597657zm0 0"/><path d="m317.359375 368.992188c-2.183594.003906-4.289063-.832032-5.871094-2.339844-3.011719-2.871094-6.230469-5.523438-9.628906-7.925782-11.464844-8.304687-24.71875-13.800781-38.699219-16.042968-.144531-.023438-.351562-.074219-.550781-.113282-4.488281-.523437-7.792969-4.460937-7.53125-8.972656.261719-4.515625 4-8.039062 8.523437-8.039062.96875.042968 1.929688.175781 2.875.390625 16.367188 2.675781 31.878907 9.144531 45.300782 18.886719 4.042968 2.859374 7.871094 6.011718 11.457031 9.429687 2.535156 2.40625 3.351563 6.109375 2.054687 9.355469-1.292968 3.246094-4.433593 5.375-7.929687 5.371094zm0 0"/><path d="m136.539062 401.078125c-2.757812.003906-5.347656-1.328125-6.949218-3.574219l-42.667969-59.734375c-1.679687-2.355469-2.054687-5.402343-.988281-8.09375 1.0625-2.695312 3.421875-4.664062 6.261718-5.230469l42.664063-8.53125c3.070313-.621093 6.230469.492188 8.230469 2.898438l42.667968 51.199219c1.746094 2.101562 2.382813 4.910156 1.714844 7.558593-.667968 2.648438-2.566406 4.816407-5.101562 5.835938l-42.664063 17.066406c-1.007812.398438-2.082031.605469-3.167969.605469zm-28.054687-62.484375 31.105469 43.542969 25.542968-10.21875-31.898437-38.273438zm0 0"/><path d="m221.871094 401.078125c-1.082032 0-2.15625-.207031-3.164063-.605469l-42.667969-17.070312c-2.535156-1.015625-4.429687-3.183594-5.097656-5.832032-.671875-2.648437-.03125-5.457031 1.714844-7.558593l42.667969-51.199219c2-2.40625 5.160156-3.519531 8.226562-2.902344l42.667969 8.535156c2.839844.566407 5.195312 2.535157 6.261719 5.226563 1.066406 2.695313.691406 5.742187-.992188 8.097656l-42.664062 59.734375c-1.605469 2.246094-4.191407 3.578125-6.953125 3.574219zm-28.585938-29.15625 25.539063 10.214844 31.097656-43.542969-24.746094-4.949219zm0 0"/><path d="m179.207031 512.011719c-4.714843 0-8.535156-3.820313-8.535156-8.53125v-128c0-4.714844 3.820313-8.535157 8.535156-8.535157 4.710938 0 8.53125 3.820313 8.53125 8.535157v128c0 4.710937-3.820312 8.53125-8.53125 8.53125zm0 0"/><path d="m136.546875 512.011719c-3.101563.003906-5.964844-1.675781-7.46875-4.390625-39.683594-71.484375-43.398437-156.804688-43.738281-173.1875-.089844-4.707032 3.644531-8.601563 8.355468-8.703125 4.683594-.019531 8.535157 3.679687 8.710938 8.363281.324219 15.667969 3.863281 97.277344 41.597656 165.25 2.285156 4.117188.796875 9.3125-3.320312 11.597656-1.265625.707032-2.6875 1.074219-4.136719 1.070313zm0 0"/><path d="m59.753906 512.011719c-.320312 0-.640625-.015625-.957031-.050781-4.683594-.519532-8.054687-4.738282-7.535156-9.421876 4.414062-49.820312 1.726562-100.011718-7.992188-149.074218-.609375-2.988282.421875-6.074219 2.703125-8.097656 2.285156-2.019532 5.472656-2.671876 8.363282-1.707032 2.894531.964844 5.050781 3.402344 5.660156 6.390625 10.046875 50.804688 12.816406 102.78125 8.222656 154.367188-.476562 4.316406-4.121094 7.585937-8.464844 7.59375zm0 0"/><path d="m221.863281 512.011719c-1.445312.003906-2.871093-.367188-4.132812-1.074219-4.117188-2.285156-5.605469-7.480469-3.320313-11.601562 37.734375-67.964844 41.269532-149.582032 41.597656-165.25.1875-4.671876 4.03125-8.363282 8.710938-8.359376 4.710938.101563 8.449219 3.996094 8.355469 8.707032-.34375 16.382812-4.054688 101.699218-43.738281 173.183594-1.507813 2.714843-4.367188 4.398437-7.472657 4.394531zm0 0"/><path d="m298.660156 512.011719c-4.34375-.007813-7.988281-3.277344-8.464844-7.59375-4.597656-51.585938-1.828124-103.5625 8.222657-154.367188.941406-4.621093 5.449219-7.597656 10.066406-6.65625 4.621094.941407 7.601563 5.449219 6.65625 10.070313-9.714844 49.0625-12.40625 99.253906-7.988281 149.074218.25 2.25-.40625 4.507813-1.816406 6.273438-1.414063 1.769531-3.472657 2.902344-5.722657 3.152344-.316406.03125-.636719.046875-.953125.046875zm0 0"/><path d="m486.40625 512.011719h-85.332031c-14.132813-.015625-25.585938-11.46875-25.601563-25.597657v-136.535156c.015625-14.132812 11.46875-25.585937 25.601563-25.601562h85.332031c14.132812.015625 25.585938 11.46875 25.601562 25.601562v136.535156c-.015624 14.128907-11.46875 25.582032-25.601562 25.597657zm-85.332031-170.664063c-4.710938.003906-8.53125 3.820313-8.535157 8.53125v136.535156c.003907 4.710938 3.824219 8.527344 8.535157 8.53125h85.332031c4.710938-.003906 8.527344-3.820312 8.535156-8.53125v-136.535156c-.007812-4.710937-3.824218-8.527344-8.535156-8.53125zm0 0"/><path d="m469.34375 452.277344c-3.414062.007812-6.503906-2.03125-7.84375-5.171875l-17.761719-41.425781-17.757812 41.425781c-1.144531 2.882812-3.765625 4.917969-6.84375 5.3125s-6.125-.910157-7.960938-3.410157c-1.839843-2.5-2.175781-5.800781-.878906-8.621093l25.601563-59.734375c1.34375-3.136719 4.425781-5.171875 7.839843-5.171875 3.414063 0 6.5 2.035156 7.84375 5.171875l25.597657 59.734375c1.855468 4.332031-.148438 9.34375-4.476563 11.199219-1.0625.460937-2.203125.695312-3.359375.691406zm0 0"/><path d="m460.804688 435.210938h-34.132813c-4.710937 0-8.53125-3.820313-8.53125-8.53125 0-4.714844 3.820313-8.535157 8.53125-8.535157h34.132813c4.714843 0 8.535156 3.820313 8.535156 8.535157 0 4.710937-3.820313 8.53125-8.535156 8.53125zm0 0"/><path d="m386.226562 503.3125c-.417968 0-.835937-.027344-1.246093-.085938-8.730469-1.175781-16.21875-6.808593-19.773438-14.867187l-55.722656-124.671875c-2.804687-6.125-3.035156-13.121094-.636719-19.414062 2.371094-6.410157 7.226563-11.589844 13.46875-14.375l77.914063-34.910157c6.199219-2.773437 13.246093-2.96875 19.589843-.542969 6.339844 2.425782 11.457032 7.273438 14.222657 13.476563l9.550781 21.417969c1.316406 2.796875 1.019531 6.085937-.777344 8.601562s-4.816406 3.859375-7.886718 3.515625c-3.074219-.339843-5.71875-2.316406-6.917969-5.167969l-9.558594-21.417968c-.914063-2.066406-2.617187-3.683594-4.730469-4.484375-2.117187-.800781-4.464844-.738281-6.53125.183593l-77.898437 34.902344c-2.070313.933594-3.683594 2.660156-4.46875 4.792969-.789063 2.066406-.714844 4.363281.203125 6.375l55.757812 124.757813c1.152344 2.632812 3.578125 4.488281 6.421875 4.914062 4.457031.558594 7.71875 4.476562 7.457031 8.964844-.257812 4.484375-3.953124 7.996094-8.445312 8.035156zm0 0"/></svg>