<svg height="512pt" viewBox="0 0 512 512.01263" width="512pt" xmlns="http://www.w3.org/2000/svg"><path d="m337.414062 332.472656-4.609374 51.539063-23.464844-1.875-268.375-21.675781c-25.429688-19.796876-30.546875-57.003907-15.359375-87.382813 17.066406-34.132813 8.535156-85.332031 8.535156-85.332031h290.132813s-8.535157 51.199218 8.53125 85.332031c9.429687 18.382813 11.089843 39.777344 4.609374 59.394531zm0 0" fill="#783e22"/><path d="m313.777344 332.472656-4.4375 49.664063-268.375-21.675781c-25.429688-19.796876-30.546875-57.003907-15.359375-87.382813 17.066406-34.132813 8.535156-85.332031 8.535156-85.332031h266.496094s-8.535157 51.199218 8.53125 85.332031c9.429687 18.382813 11.089843 39.777344 4.609375 59.394531zm0 0" fill="#a0522d"/><path d="m349.789062 392.546875-32.429687-32.085937c-3.308594-3.15625-6.84375-6.0625-10.578125-8.703126-12.53125-9.035156-26.992188-15.027343-42.242188-17.496093-.304687-.097657-.617187-.152344-.9375-.167969h-168.789062c-.320312.015625-.636719.070312-.941406.167969-15.246094 2.46875-29.710938 8.460937-42.238282 17.496093-27.074218 19.160157-43.148437 50.285157-43.09375 83.453126v51.203124c.027344 9.414063 7.652344 17.039063 17.066407 17.066407h307.199219c9.414062-.027344 17.039062-7.652344 17.066406-17.066407v-51.203124c0-.765626 0-41.898438-.082032-42.664063zm0 0" fill="#bdc3c7"/><path d="m59.738281 503.480469c4.523438-50.703125 1.792969-101.792969-8.105469-151.722657 12.527344-9.035156 26.992188-15.027343 42.238282-17.496093.257812 12.203125 3.160156 98.050781 42.667968 169.21875zm0 0" fill="#3f51b5"/><path d="m51.632812 351.757812c9.898438 49.929688 12.628907 101.019532 8.105469 151.722657h-34.132812c-9.414063-.027344-17.039063-7.652344-17.066407-17.066407v-51.203124c-.054687-33.167969 16.019532-64.292969 43.09375-83.453126zm0 0" fill="#9e9e9e"/><path d="m298.671875 503.480469h-76.800781c39.511718-71.167969 42.414062-157.015625 42.667968-169.21875 15.25 2.46875 29.710938 8.460937 42.242188 17.496093-9.902344 49.929688-12.632812 101.019532-8.109375 151.722657zm0 0" fill="#3f51b5"/><path d="m264.539062 334.261719c-.253906 12.203125-3.15625 98.050781-42.667968 169.21875h-85.332032c-39.507812-71.167969-42.410156-157.015625-42.667968-169.21875.304687-.097657.621094-.152344.941406-.167969h168.789062c.320313.015625.632813.070312.9375.167969zm0 0" fill="#9e9e9e"/><path d="m349.871094 435.210938v51.203124c-.027344 9.414063-7.652344 17.039063-17.066406 17.066407h-34.132813c-4.40625-49.195313-1.964844-98.761719 7.253906-147.285157.34375-1.878906.597657-3.414062.855469-4.4375 3.734375 2.640626 7.269531 5.546876 10.578125 8.703126l32.429687 32.085937c.082032.765625.082032 41.898437.082032 42.664063zm0 0" fill="#707070"/><path d="m326.234375 426.679688v57.597656c.53125 9.996094-7.078125 18.558594-17.066406 19.203125h-10.496094c-4.40625-49.195313-1.964844-98.761719 7.253906-147.285157l20.222657 22.527344c.085937.851563.085937 47.101563.085937 47.957032zm0 0" fill="#9e9e9e"/><path d="m179.207031 375.480469-36.4375 14.589843c-3.667969 1.46875-7.867187.234376-10.15625-2.984374l-31.058593-43.519532c-1.695313-2.355468-2.074219-5.410156-1-8.105468 1.070312-2.695313 3.441406-4.660157 6.289062-5.207032l24.746094-4.949218c3.058594-.652344 6.222656.46875 8.191406 2.898437l13.824219 16.554687zm0 0" fill="#f5f5f5"/><path d="m256.859375 343.566406-31.0625 43.519532c-2.289063 3.21875-6.484375 4.453124-10.152344 2.984374l-36.4375-14.589843 25.597657-30.722657 13.824218-16.554687c1.96875-2.429687 5.132813-3.550781 8.195313-2.898437l24.746093 4.949218c2.847657.546875 5.21875 2.511719 6.289063 5.207032 1.070313 2.695312.695313 5.75-1 8.105468zm0 0" fill="#f5f5f5"/><path d="m204.804688 287.84375v56.914062l-25.597657 30.722657-25.601562-30.722657v-56.914062zm0 0" fill="#ffe0b2"/><path d="m435.804688 332.8125-9.558594-21.417969c-1.839844-4.132812-5.25-7.367187-9.476563-8.984375-4.226562-1.617187-8.921875-1.484375-13.050781.363282l-77.910156 34.902343c-4.121094 1.855469-7.335938 5.269531-8.933594 9.496094-1.601562 4.226563-1.457031 8.914063.402344 13.03125l55.722656 124.671875c2.359375 5.359375 7.335938 9.109375 13.140625 9.898438h.085937zm0 0" fill="#ff9801"/><path d="m401.074219 332.8125h85.332031c9.425781 0 17.066406 7.640625 17.066406 17.066406v136.535156c0 9.425782-7.640625 17.066407-17.066406 17.066407h-85.332031c-9.425781 0-17.066407-7.640625-17.066407-17.066407v-136.535156c0-9.425781 7.640626-17.066406 17.066407-17.066406zm0 0" fill="#fec108"/><path d="m401.074219 332.8125h61.695312c9.425781 0 17.066407 7.640625 17.066407 17.066406v136.535156c0 9.425782-7.640626 17.066407-17.066407 17.066407h-61.695312c-9.425781 0-17.066407-7.640625-17.066407-17.066407v-136.535156c0-9.425781 7.640626-17.066406 17.066407-17.066406zm0 0" fill="#ffdc00"/><path d="m324.273438 149.347656c0 1.363282 0 19.882813-.085938 21.332032h-289.960938c-.085937-1.449219-.085937-19.96875-.085937-21.332032.984375-74.363281 58.996094-135.457031 133.203125-140.289062 3.925781-.34375 7.851562-.511719 11.863281-.511719 78.929688-1.15625 143.867188 61.867187 145.066407 140.800781zm0 0" fill="#6d4122"/><path d="m300.636719 149.347656c0 1.363282 0 19.882813-.085938 21.332032h-266.324219c-.085937-1.449219-.085937-19.96875-.085937-21.332032.984375-74.363281 58.996094-135.457031 133.203125-140.289062 74.242188 4.792968 132.300781 65.898437 133.292969 140.289062zm0 0" fill="#91562d"/><path d="m306.609375 162.144531h17.664063c9.398437.070313 17 7.671875 17.066406 17.066407-.027344 9.414062-7.652344 17.039062-17.066406 17.066406h-290.132813c-9.414063-.027344-17.039063-7.652344-17.066406-17.066406.066406-9.394532 7.667969-16.996094 17.066406-17.066407zm0 0" fill="#dfc49c"/><path d="m307.207031 173.152344c-.011719 4.050781-.242187 8.09375-.683593 12.117187-.425782 3.671875-1.023438 7.339844-1.792969 10.925781-12.003907 47.769532-51.296875 83.804688-99.925781 91.648438-8.441407 1.550781-17.011719 2.320312-25.597657 2.300781-4.011719 0-7.9375-.167969-11.777343-.511719-4.636719-.332031-9.253907-.929687-13.824219-1.789062-48.773438-7.789062-88.136719-44.027344-99.925781-91.992188-.765626-3.496093-1.363282-6.996093-1.789063-10.582031-.445313-4.023437-.671875-8.066406-.683594-12.117187-.019531-3.675782.179688-7.351563.597657-11.007813.253906-3.070312.765624-6.144531 1.277343-9.214843.597657-2.988282 1.367188-5.886719 2.136719-8.789063l4.519531-24.660156c43.179688-10.667969 65.109375-29.441407 75.777344-43.179688 4.121094-4.921875 7.355469-10.523437 9.558594-16.554687 0 0 27.132812 47.53125 105.640625 51.710937 2.5625.171875 5.121094.257813 7.851562.257813 7.6875.15625 15.378906-.101563 23.039063-.769532 8.925781 10.414063 16.308593 22.050782 21.929687 34.5625.683594 2.472657 1.28125 4.949219 1.792969 7.421876.511719 3.070312 1.023437 6.144531 1.28125 9.214843.414063 3.65625.617187 7.332031.597656 11.007813zm0 0" fill="#dfc49c"/><path d="m283.570312 173.152344c-.011718 4.050781-.242187 8.09375-.683593 12.117187-.425781 3.671875-1.023438 7.339844-1.792969 10.925781-12.003906 47.769532-51.296875 83.804688-99.925781 91.648438-4.539063.859375-9.128907 1.457031-13.738281 1.789062-4.636719-.332031-9.253907-.929687-13.824219-1.789062-48.773438-7.789062-88.136719-44.027344-99.925781-91.992188-.765626-3.496093-1.363282-6.996093-1.789063-10.582031-.445313-4.023437-.671875-8.066406-.683594-12.117187-.019531-3.675782.179688-7.351563.597657-11.007813.253906-3.070312.765624-6.144531 1.277343-9.214843.597657-2.988282 1.367188-5.886719 2.136719-8.789063l4.519531-24.660156c43.179688-10.667969 65.109375-29.441407 75.777344-43.179688 17.578125 16.296875 53.246094 38.484375 115.199219 35.15625 2.390625-.085937 4.78125-.253906 7.253906-.511719.222656.238282.421875.496094.597656.769532 8.71875 10.164062 15.90625 21.546875 21.332032 33.792968.683593 2.472657 1.28125 4.949219 1.792968 7.421876.511719 3.070312 1.023438 6.144531 1.28125 9.214843.414063 3.65625.613282 7.332031.597656 11.007813zm0 0" fill="#ffe0b2"/><path d="m51.890625 204.8125h-17.75c-14.132813-.015625-25.585937-11.46875-25.601563-25.601562.066407-14.109376 11.488282-25.53125 25.601563-25.597657h17.664063c4.710937 0 8.53125 3.820313 8.53125 8.53125 0 4.714844-3.820313 8.535157-8.53125 8.535157h-17.578126c-2.253906-.039063-4.421874.847656-6.003906 2.449218-1.675781 1.582032-2.621094 3.78125-2.617187 6.082032.003906 4.710937 3.824219 8.53125 8.535156 8.535156h17.75c4.710937 0 8.53125 3.820312 8.53125 8.53125 0 4.714844-3.820313 8.535156-8.53125 8.535156zm0 0"/><path d="m324.273438 204.8125h-17.75c-4.710938 0-8.53125-3.820312-8.53125-8.535156 0-4.710938 3.820312-8.53125 8.53125-8.53125h17.75c4.710937-.003906 8.527343-3.824219 8.53125-8.535156.023437-2.226563-.867188-4.363282-2.457032-5.921876-1.578125-1.671874-3.777344-2.617187-6.074218-2.609374h-17.664063c-4.714844 0-8.535156-3.820313-8.535156-8.535157 0-4.710937 3.820312-8.53125 8.535156-8.53125h17.578125c14.144531.023438 25.617188 11.457031 25.683594 25.597657-.011719 14.132812-11.464844 25.585937-25.597656 25.601562zm0 0"/><path d="m324.199219 170.679688c-.171875 0-.332031-.007813-.5-.015626-4.703125-.273437-8.296875-4.300781-8.03125-9 .082031-1.601562.070312-11.019531.070312-12.316406-1.277343-74.183594-62.347656-133.34375-136.53125-132.269531-74.1875-1.074219-135.253906 58.085937-136.535156 132.269531 0 1.304688-.007813 10.730469.070313 12.324219.175781 3.042969-1.289063 5.949219-3.839844 7.621094-2.550782 1.671875-5.796875 1.855469-8.519532.480469-2.722656-1.371094-4.507812-4.089844-4.679687-7.136719-.085937-1.507813-.097656-11.875-.097656-13.289063 1.289062-83.605468 69.992187-150.402344 153.601562-149.3359372 83.609375-1.0664068 152.3125 65.7304692 153.597657 149.3359372 0 1.414063-.011719 11.78125-.09375 13.289063-.261719 4.511719-3.996094 8.035156-8.511719 8.042969zm0 0"/><path d="m153.605469 353.292969c-4.710938 0-8.53125-3.820313-8.53125-8.535157v-56.914062c0-4.714844 3.820312-8.535156 8.53125-8.535156 4.714843 0 8.535156 3.820312 8.535156 8.535156v56.914062c0 4.714844-3.820313 8.535157-8.535156 8.535157zm0 0"/><path d="m204.804688 353.292969c-4.710938 0-8.53125-3.820313-8.53125-8.535157v-56.914062c0-4.714844 3.820312-8.535156 8.53125-8.535156 4.714843 0 8.535156 3.820312 8.535156 8.535156v56.914062c0 4.714844-3.820313 8.535157-8.535156 8.535157zm0 0"/><path d="m332.804688 512.011719h-307.199219c-14.132813-.015625-25.5820315-11.46875-25.5976565-25.597657v-51.203124c.015625-35.914063 17.4101565-69.605469 46.6874995-90.414063 13.574219-9.8125 29.261719-16.304687 45.796876-18.960937.757812-.199219 1.539062-.292969 2.320312-.277344 4.511719.015625 8.234375 3.542968 8.492188 8.050781.253906 4.507813-3.042969 8.433594-7.527344 8.957031-.199219.050782-.402344.09375-.523438.117188-13.949218 2.234375-27.179687 7.707031-38.625 15.984375-24.796875 17.609375-39.535156 46.132812-39.554687 76.542969v51.203124c.003906 4.710938 3.820312 8.527344 8.53125 8.53125h307.199219c4.710937-.003906 8.53125-3.820312 8.535156-8.53125v-51.203124c.015625-.429688.003906-.859376-.035156-1.289063-.507813-4.6875 2.875-8.898437 7.558593-9.410156 4.6875-.511719 8.898438 2.875 9.410157 7.558593.101562 1.042969.144531 2.09375.132812 3.140626v51.203124c-.015625 14.128907-11.46875 25.582032-25.601562 25.597657zm0 0"/><path d="m317.359375 368.992188c-2.183594.003906-4.289063-.832032-5.871094-2.339844-3.011719-2.871094-6.230469-5.523438-9.628906-7.925782-11.464844-8.304687-24.71875-13.800781-38.699219-16.042968-.144531-.023438-.351562-.074219-.550781-.113282-4.488281-.523437-7.792969-4.460937-7.53125-8.972656.261719-4.515625 4-8.039062 8.523437-8.039062.96875.042968 1.929688.175781 2.875.390625 16.367188 2.675781 31.878907 9.144531 45.300782 18.886719 4.042968 2.859374 7.871094 6.011718 11.457031 9.429687 2.535156 2.40625 3.351563 6.109375 2.054687 9.355469-1.292968 3.246094-4.433593 5.375-7.929687 5.371094zm0 0"/><path d="m136.539062 401.078125c-2.757812.003906-5.347656-1.328125-6.949218-3.574219l-42.667969-59.734375c-1.679687-2.355469-2.054687-5.402343-.988281-8.09375 1.0625-2.695312 3.421875-4.664062 6.261718-5.230469l42.664063-8.53125c3.070313-.621093 6.230469.492188 8.230469 2.898438l42.667968 51.199219c1.746094 2.101562 2.382813 4.910156 1.714844 7.558593-.667968 2.648438-2.566406 4.816407-5.101562 5.835938l-42.664063 17.066406c-1.007812.398438-2.082031.605469-3.167969.605469zm-28.054687-62.484375 31.105469 43.542969 25.542968-10.21875-31.898437-38.273438zm0 0"/><path d="m221.871094 401.078125c-1.082032 0-2.15625-.207031-3.164063-.605469l-42.667969-17.070312c-2.535156-1.015625-4.429687-3.183594-5.097656-5.832032-.671875-2.648437-.03125-5.457031 1.714844-7.558593l42.667969-51.199219c2-2.40625 5.160156-3.519531 8.226562-2.902344l42.667969 8.535156c2.839844.566407 5.195312 2.535157 6.261719 5.226563 1.066406 2.695313.691406 5.742187-.992188 8.097656l-42.664062 59.734375c-1.605469 2.246094-4.191407 3.578125-6.953125 3.574219zm-28.585938-29.15625 25.539063 10.214844 31.097656-43.542969-24.746094-4.949219zm0 0"/><path d="m179.207031 512.011719c-4.714843 0-8.535156-3.820313-8.535156-8.53125v-128c0-4.714844 3.820313-8.535157 8.535156-8.535157 4.710938 0 8.53125 3.820313 8.53125 8.535157v128c0 4.710937-3.820312 8.53125-8.53125 8.53125zm0 0"/><path d="m136.546875 512.011719c-3.101563.003906-5.964844-1.675781-7.46875-4.390625-39.683594-71.484375-43.398437-156.804688-43.738281-173.1875-.089844-4.707032 3.644531-8.601563 8.355468-8.703125 4.6875-.03125 8.546876 3.675781 8.710938 8.363281.324219 15.667969 3.863281 97.277344 41.597656 165.25 2.285156 4.117188.796875 9.3125-3.320312 11.597656-1.265625.707032-2.6875 1.074219-4.136719 1.070313zm0 0"/><path d="m59.753906 512.011719c-.320312 0-.640625-.015625-.957031-.050781-4.683594-.519532-8.054687-4.738282-7.535156-9.421876 4.414062-49.820312 1.726562-100.011718-7.992188-149.074218-.609375-2.988282.421875-6.074219 2.703125-8.097656 2.285156-2.019532 5.472656-2.671876 8.363282-1.707032 2.894531.964844 5.050781 3.402344 5.660156 6.390625 10.046875 50.804688 12.816406 102.78125 8.222656 154.367188-.476562 4.316406-4.121094 7.585937-8.464844 7.59375zm0 0"/><path d="m221.863281 512.011719c-1.445312.003906-2.871093-.367188-4.132812-1.074219-4.117188-2.285156-5.605469-7.480469-3.320313-11.601562 37.734375-67.964844 41.269532-149.582032 41.597656-165.25.199219-4.667969 4.039063-8.351563 8.710938-8.359376 4.710938.101563 8.449219 3.996094 8.355469 8.707032-.34375 16.382812-4.054688 101.699218-43.738281 173.183594-1.507813 2.714843-4.367188 4.398437-7.472657 4.394531zm0 0"/><path d="m298.660156 512.011719c-4.34375-.007813-7.988281-3.277344-8.464844-7.59375-4.597656-51.585938-1.828124-103.5625 8.222657-154.367188.941406-4.621093 5.449219-7.597656 10.066406-6.65625 4.621094.941407 7.601563 5.449219 6.65625 10.070313-9.714844 49.0625-12.40625 99.253906-7.988281 149.074218.25 2.25-.40625 4.507813-1.816406 6.273438-1.414063 1.769531-3.472657 2.902344-5.722657 3.152344-.316406.03125-.636719.046875-.953125.046875zm0 0"/><path d="m486.40625 512.011719h-85.332031c-14.132813-.015625-25.585938-11.46875-25.601563-25.597657v-136.535156c.015625-14.132812 11.46875-25.585937 25.601563-25.601562h85.332031c14.132812.015625 25.585938 11.46875 25.601562 25.601562v136.535156c-.015624 14.128907-11.46875 25.582032-25.601562 25.597657zm-85.332031-170.664063c-4.710938.003906-8.53125 3.820313-8.535157 8.53125v136.535156c.003907 4.710938 3.824219 8.527344 8.535157 8.53125h85.332031c4.710938-.003906 8.53125-3.820312 8.535156-8.53125v-136.535156c-.003906-4.710937-3.824218-8.53125-8.535156-8.53125zm0 0"/><path d="m469.339844 452.277344c-3.414063.003906-6.5-2.03125-7.839844-5.171875l-17.761719-41.425781-17.757812 41.425781c-1.144531 2.882812-3.765625 4.917969-6.84375 5.3125s-6.125-.910157-7.960938-3.410157c-1.839843-2.5-2.175781-5.800781-.878906-8.621093l25.601563-59.734375c1.34375-3.136719 4.425781-5.171875 7.839843-5.171875 3.414063 0 6.5 2.035156 7.84375 5.171875l25.597657 59.734375c.894531 2.078125.921874 4.429687.082031 6.53125-.84375 2.097656-2.484375 3.777343-4.5625 4.667969-1.0625.460937-2.203125.695312-3.359375.691406zm0 0"/><path d="m460.804688 435.210938h-34.132813c-4.710937 0-8.53125-3.820313-8.53125-8.53125 0-4.714844 3.820313-8.535157 8.53125-8.535157h34.132813c4.714843 0 8.535156 3.820313 8.535156 8.535157 0 4.710937-3.820313 8.53125-8.535156 8.53125zm0 0"/><path d="m386.226562 503.3125c-.417968 0-.835937-.027344-1.246093-.085938-8.730469-1.175781-16.21875-6.808593-19.773438-14.867187l-55.722656-124.671875c-2.804687-6.125-3.035156-13.121094-.636719-19.414062 2.371094-6.410157 7.226563-11.589844 13.46875-14.375l77.90625-34.910157c12.910156-5.730469 28.023438.050781 33.8125 12.933594l9.558594 21.417969c1.800781 4.28125-.148438 9.214844-4.390625 11.105468-4.238281 1.890626-9.214844.046876-11.191406-4.15625l-9.558594-21.417968c-1.941406-4.277344-6.964844-6.195313-11.265625-4.300782l-77.890625 34.902344c-2.070313.933594-3.683594 2.660156-4.472656 4.792969-.789063 2.066406-.714844 4.363281.207031 6.375l55.757812 124.757813c1.152344 2.632812 3.578126 4.488281 6.421876 4.914062 4.457031.558594 7.71875 4.476562 7.457031 8.964844-.261719 4.484375-3.953125 7.996094-8.445313 8.035156zm0 0"/><path d="m40.976562 368.992188c-1.898437.003906-3.742187-.628907-5.238281-1.796876-27.828125-21.667968-35.289062-62.847656-17.753906-97.933593 15.507813-31.007813 7.875-70.914063 7.796875-71.316407-.921875-4.621093 2.074219-9.117187 6.699219-10.039062 4.621093-.921875 9.117187 2.074219 10.039062 6.699219.371094 1.855469 8.898438 45.957031-9.265625 82.289062-13.917968 27.835938-8.464844 60.144531 12.96875 76.835938 2.875 2.238281 4.011719 6.058593 2.828125 9.503906-1.183593 3.449219-4.429687 5.761719-8.074219 5.761719zm0 0"/><path d="m337.414062 341.003906c-.960937.003906-1.914062-.160156-2.820312-.484375-2.136719-.746093-3.886719-2.308593-4.867188-4.347656-.980468-2.039063-1.113281-4.382813-.367187-6.515625 5.746094-17.4375 4.238281-36.449219-4.1875-52.761719-18.164063-36.332031-9.636719-80.433593-9.265625-82.289062.597656-2.992188 2.742188-5.4375 5.632812-6.414063 2.886719-.976562 6.078126-.339844 8.367188 1.671875 2.292969 2.011719 3.335938 5.09375 2.738281 8.082031-.078125.402344-7.714843 40.308594 7.792969 71.316407 10.480469 20.441406 12.292969 44.234375 5.03125 66.027343-1.195312 3.421876-4.425781 5.714844-8.054688 5.714844zm0 0"/><path d="m55.238281 152.675781c-.515625 0-1.035156-.046875-1.542969-.144531-2.226562-.40625-4.199218-1.683594-5.484374-3.546875-1.285157-1.863281-1.78125-4.160156-1.371094-6.386719l4.523437-24.660156c.917969-4.566406 5.328125-7.554688 9.90625-6.710938 4.582031.839844 7.640625 5.199219 6.875 9.796876l-4.519531 24.660156c-.746094 4.046875-4.269531 6.984375-8.386719 6.992187zm0 0"/><path d="m179.21875 298.679688c-9.105469.011718-18.195312-.804688-27.15625-2.441407-52.230469-8.277343-94.339844-47.1875-106.714844-98.601562-.816406-3.722657-1.460937-7.5-1.921875-11.359375-.480469-4.355469-.726562-8.738282-.738281-13.125-.023438-4.015625.199219-8.03125.660156-12.023438.238282-2.976562.773438-6.257812 1.324219-9.550781.671875-3.398437 1.460937-6.414063 2.257813-9.425781.984374-4.210938 4.964843-7.023438 9.265624-6.535156 4.296876.484374 7.550782 4.109374 7.570313 8.4375v.085937c0 .734375-.097656 1.46875-.285156 2.183594-.730469 2.742187-1.449219 5.464843-2.015625 8.28125-.425782 2.601562-.910156 5.417969-1.140625 8.242187-.398438 3.421875-.589844 6.863282-.570313 10.308594.011719 3.746094.222656 7.492188.636719 11.21875.378906 3.199219.933594 6.421875 1.640625 9.65625 10.933594 44.683594 47.691406 78.390625 93.148438 85.425781 15.902343 2.875 32.1875 2.875 48.085937 0 45.320313-7.074219 82.003906-40.585937 93.140625-85.082031.707031-3.285156 1.257812-6.691406 1.652344-10.085938.40625-3.695312.617187-7.414062.628906-11.132812.019531-3.339844-.160156-6.679688-.539062-10-.265626-3.140625-.746094-5.972656-1.222657-8.824219-.414062-1.960937-.972656-4.265625-1.601562-6.570312-5.25-11.34375-12.066407-21.894531-20.25-31.34375-2.925781-3.621094-2.410157-8.917969 1.160156-11.90625s8.878906-2.5625 11.925781.957031c9.699219 11.238281 17.636719 23.878906 23.539063 37.5.8125 2.925781 1.449219 5.574219 2 8.226562.609375 3.632813 1.148437 6.933594 1.429687 10.230469.4375 3.894531.648438 7.808594.625 11.726563-.011718 4.351562-.253906 8.699218-.734375 13.023437-.472656 4.085938-1.121093 8.035157-1.933593 11.808594-12.585938 51.222656-54.617188 89.925781-106.699219 98.253906-8.964844 1.636719-18.058594 2.453125-27.167969 2.441407zm0 0"/><path d="m59.742188 128.011719c-4.308594-.007813-7.933594-3.230469-8.453126-7.507813-.515624-4.277344 2.238282-8.273437 6.421876-9.308594 67.804687-16.71875 79.066406-53.433593 79.171874-53.800781.941407-3.300781 3.773438-5.714843 7.179688-6.125 3.410156-.410156 6.734375 1.261719 8.433594 4.242188 1.289062 2.210937 33.171875 54.785156 128.417968 46.933593 3.089844-.351562 6.125 1.007813 7.925782 3.542969 1.796875 2.539063 2.074218 5.851563.71875 8.652344-1.351563 2.796875-4.121094 4.640625-7.226563 4.804687-78.929687 6.625-119.46875-25.574218-135.796875-43.757812-9.917968 15.226562-33.160156 39.359375-84.738281 52.074219-.667969.171875-1.359375.253906-2.054687.25zm0 0"/></svg>