<svg height="512pt" viewBox="0 0 512 512.00007" width="512pt" xmlns="http://www.w3.org/2000/svg"><path d="m317.441406 377.515625h-276.480468c-25.429688-20.394531-30.550782-58.625-15.359376-89.941406 17.066407-35.074219 8.53125-79.019531 8.53125-79.019531h290.132813s-8.53125 43.945312 8.535156 79.019531c15.1875 31.316406 10.070313 69.546875-15.359375 89.941406zm0 0" fill="#783e22"/><path d="m293.804688 377.515625h-252.84375c-25.429688-20.394531-30.550782-58.625-15.359376-89.941406 17.066407-35.074219 8.53125-79.019531 8.53125-79.019531h266.496094s-8.53125 43.945312 8.535156 79.019531c15.1875 31.316406 10.066407 69.546875-15.359374 89.941406zm0 0" fill="#a0522d"/><path d="m344.832031 420.351562-.425781 10.324219-1.707031 40.023438-27.734375 27.734375c-3.183594 3.207031-7.511719 5.019531-12.03125 5.03125h-277.332032c-9.414062-.027344-17.039062-7.652344-17.066406-17.066406v-34.132813c-.011718-46.699219 31.578125-87.488281 76.796875-99.15625.855469-.257813 1.707031-.425781 2.5625-.597656h182.613281c.851563.171875 1.707032.339843 2.558594.597656 33.796875 8.757813 60.832032 34.085937 71.765625 67.242187zm0 0" fill="#283593"/><path d="m321.195312 420.351562-3.5 83.113282h-292.09375c-9.414062-.027344-17.039062-7.652344-17.066406-17.066406v-34.132813c-.011718-46.699219 31.578125-87.488281 76.796875-99.15625.855469-.257813 1.707031-.425781 2.5625-.597656h158.976563c.851562.171875 1.703125.339843 2.558594.597656 33.796874 8.757813 60.832031 34.085937 71.765624 67.242187zm0 0" fill="#3f51b5"/><path d="m137.644531 352.390625 41.554688 56.699219 40.773437-56.699219zm0 0" fill="#bdc3c7"/><path d="m204.800781 304.894531v65.027344l-25.601562 39.167969-25.597657-39.167969v-65.027344zm0 0" fill="#ffe0b2"/><path d="m204.800781 420.523438v22.269531c.039063 6.417969-3.300781 12.382812-8.789062 15.703125-2.503907 1.492187-5.363281 2.289062-8.277344 2.304687h-17.066406c-2.917969-.015625-5.773438-.8125-8.277344-2.304687-5.492187-3.320313-8.832031-9.285156-8.789063-15.703125v-22.269531l25.597657-11.433594zm0 0" fill="#f0c419"/><path d="m213.332031 503.464844-17.066406-44.628906h-34.132813l-17.066406 44.628906zm0 0" fill="#f29c1f"/><path d="m495.96875 377.789062-12.066406 12.066407c-17.65625 17.667969-45.496094 19.992187-65.832032 5.492187l-103.121093 103.121094c-6.664063 6.664062-17.472657 6.664062-24.136719 0s-6.664062-17.472656 0-24.136719l103.121094-103.121093c-14.5-20.335938-12.175782-48.175782 5.492187-65.832032l12.066407-12.066406c4.800781-4.800781 11.3125-7.496094 18.101562-7.496094s13.300781 2.695313 18.101562 7.496094l6.035157 6.035156-24.136719 24.136719v24.132813l12.070312 12.070312h24.136719l24.132813-24.136719 6.035156 6.035157c4.800781 4.800781 7.5 11.3125 7.5 18.101562s-2.699219 13.300781-7.5 18.101562zm0 0" fill="#9e9e9e"/><path d="m324.230469 176.894531c.085937 1.109375 0 6.230469 0 6.570313h-289.964844c-.085937-.339844-.085937-5.542969 0-6.738282l2.082031-26.601562 151.386719-49.9375 134.636719 43.617188zm0 0" fill="#7f5b53"/><path d="m306.601562 179.199219h17.664063c9.398437.070312 17 7.671875 17.066406 17.066406-.027343 9.414063-7.652343 17.039063-17.066406 17.066406h-290.132813c-9.414062-.027343-17.039062-7.652343-17.066406-17.066406.066406-9.394531 7.667969-16.996094 17.066406-17.066406zm0 0" fill="#dfc49c"/><path d="m307.199219 190.207031c-.011719 4.050781-.238281 8.09375-.683594 12.117188-.425781 3.671875-1.023437 7.339843-1.789063 10.921875-11.691406 53.589844-63.402343 93.953125-125.527343 93.953125-3.925781 0-7.765625-.167969-11.605469-.511719-60.839844-4.949219-109.480469-48.894531-115.710938-104.363281-.441406-4.023438-.671874-8.066407-.683593-12.117188-.003907-3.304687.167969-6.609375.511719-9.898437-.011719-.371094.015624-.742188.085937-1.109375.257813-3.070313.769531-6.144531 1.28125-9.214844.597656-2.988281 1.277344-5.886719 2.132813-8.789063l33.363281-31.914062 5.292969-5.035156h153.597656l.941406.597656 54.78125 36.265625c.769531 2.902344 1.539062 5.886719 2.136719 8.875.511719 3.070313 1.023437 6.144531 1.277343 9.214844 0 .34375.085938.683593.085938 1.023437.347656 3.316406.515625 6.652344.511719 9.984375zm0 0" fill="#dfc49c"/><path d="m283.5625 190.207031c-.011719 4.050781-.238281 8.09375-.683594 12.117188-.425781 3.671875-1.023437 7.339843-1.789062 10.921875-10.925782 50.09375-56.832032 88.664062-113.496094 93.441406-60.839844-4.949219-109.480469-48.894531-115.710938-104.363281-.441406-4.023438-.671874-8.066407-.683593-12.117188-.003907-3.304687.167969-6.609375.511719-9.898437-.011719-.371094.015624-.742188.085937-1.109375.257813-3.070313.769531-6.144531 1.28125-9.214844.597656-2.988281 1.277344-5.886719 2.132813-8.789063l33.363281-31.914062 5.292969-5.035156h129.960937l.941406.597656 54.78125 36.265625c.769531 2.902344 1.539063 5.886719 2.132813 8.875.515625 3.070313 1.027344 6.144531 1.28125 9.214844 0 .34375.085937.683593.085937 1.023437.34375 3.316406.515625 6.652344.511719 9.984375zm0 0" fill="#ffe0b2"/><path d="m319.742188 131.070312h-281.085938c8.65625-31.820312 28.191406-59.597656 55.210938-78.503906l32.425781-17.324218c11.535156-4.378907 23.578125-7.273438 35.839843-8.617188h34.132813c12.265625 1.34375 24.308594 4.238281 35.839844 8.617188l32.429687 17.324218c27.015625 18.90625 46.550782 46.683594 55.207032 78.503906zm0 0" fill="#f57c00"/><path d="m296.105469 131.070312h-257.449219c8.65625-31.820312 28.191406-59.597656 55.210938-78.503906l32.425781-17.324218c11.535156-4.378907 23.578125-7.273438 35.839843-8.617188h10.496094c12.265625 1.34375 24.308594 4.238281 35.839844 8.617188l32.425781 17.324218c27.019531 18.90625 46.554688 46.683594 55.210938 78.503906zm0 0" fill="#ff9801"/><g fill="#ffdc00"><path d="m110.933594 25.601562c9.425781 0 17.066406 7.640626 17.066406 17.066407v17.066406c0 9.425781-7.640625 17.066406-17.066406 17.066406-9.425782 0-17.066406-7.640625-17.066406-17.066406v-17.066406c0-9.425781 7.640624-17.066407 17.066406-17.066407zm0 0"/><path d="m179.199219 8.535156c9.425781 0 17.066406 7.640625 17.066406 17.066406v17.066407c0 9.425781-7.640625 17.066406-17.066406 17.066406s-17.066407-7.640625-17.066407-17.066406v-17.066407c0-9.425781 7.640626-17.066406 17.066407-17.066406zm0 0"/><path d="m247.464844 25.601562c9.425781 0 17.070312 7.640626 17.070312 17.066407v17.066406c0 9.425781-7.644531 17.066406-17.070312 17.066406-9.421875 0-17.066406-7.640625-17.066406-17.066406v-17.066406c0-9.425781 7.644531-17.066407 17.066406-17.066407zm0 0"/></g><path d="m179.199219 409.089844-35.257813 21.578125c-1.953125 1.195312-4.304687 1.554687-6.523437 1-2.222657-.554688-4.128907-1.980469-5.289063-3.953125l-41.789062-71.046875c-1.257813-2.136719-1.523438-4.710938-.730469-7.0625.796875-2.347657 2.570313-4.230469 4.867187-5.167969l27.058594-11.015625c3.761719-1.53125 8.082032-.179687 10.304688 3.21875l21.761718 33.28125zm0 0" fill="#f5f5f5"/><path d="m268.0625 356.667969-41.792969 71.046875c-1.160156 1.972656-3.066406 3.398437-5.285156 3.953125-2.222656.554687-4.570313.195312-6.523437-1l-35.261719-21.578125 25.601562-39.167969 21.757813-33.28125c2.222656-3.398437 6.542968-4.75 10.304687-3.21875l27.0625 11.015625c2.292969.9375 4.070313 2.820312 4.863281 5.167969.796876 2.351562.53125 4.925781-.726562 7.0625zm0 0" fill="#f5f5f5"/><path d="m343.464844 175.445312c-3.011719 2.445313-6.78125 3.773438-10.664063 3.753907-3.027343.003906-6-.789063-8.621093-2.304688-1.808594-1.050781-3.402344-2.441406-4.691407-4.09375-4.828125-4.679687-10.320312-8.617187-16.300781-11.691406-19.113281-10.582031-57.085938-24.574219-123.988281-24.574219-66.902344 0-104.875 13.992188-123.988281 24.660156-6.085938 3.050782-11.648438 7.054688-16.46875 11.859376-1.300782 1.460937-2.828126 2.699218-4.523438 3.671874-6.191406 3.554688-13.9375 2.910157-19.457031-1.621093-7.125-5.890625-8.226563-16.402344-2.472657-23.640625 7.429688-8.367188 16.375-15.257813 26.367188-20.308594v-.085938c24.234375-13.480468 67.753906-28.671874 140.542969-28.671874 72.789062 0 116.308593 15.191406 140.542969 28.671874v.085938c9.992187 5.050781 18.9375 11.941406 26.371093 20.308594 5.878907 7.355468 4.695313 18.085937-2.648437 23.980468zm0 0" fill="#ffdc00"/><path d="m343.464844 175.445312c-3.011719 2.445313-6.78125 3.773438-10.664063 3.753907-3.027343.003906-6-.789063-8.621093-2.304688-1.808594-1.050781-3.402344-2.441406-4.691407-4.09375-4.828125-4.679687-10.320312-8.617187-16.300781-11.691406-19.113281-10.582031-57.085938-24.574219-123.988281-24.574219-66.902344 0-104.875 13.992188-123.988281 24.660156-6.085938 3.050782-11.648438 7.054688-16.46875 11.859376-1.300782 1.460937-2.828126 2.699218-4.523438 3.671874-6.191406 3.554688-13.9375 2.910157-19.457031-1.621093-7.125-5.890625-8.226563-16.402344-2.472657-23.640625 7.429688-8.367188 16.375-15.257813 26.367188-20.308594v-.085938c24.234375-13.480468 67.753906-28.671874 140.542969-28.671874 72.789062 0 116.308593 15.191406 140.542969 28.671874v.085938c9.992187 5.050781 18.9375 11.941406 26.371093 20.308594 5.878907 7.355468 4.695313 18.085937-2.648437 23.980468zm0 0" fill="#ffdc00"/><path d="m343.464844 175.445312c-3.011719 2.445313-6.78125 3.773438-10.664063 3.753907-3.027343.003906-6-.789063-8.621093-2.304688-1.195313-.660156-2.261719-1.527343-3.15625-2.558593 6.304687-6.109376 6.929687-16.011719 1.453124-22.871094-7.433593-8.367188-16.378906-15.257813-26.371093-20.308594v-.085938c-22.699219-12.628906-62.378907-26.792968-127.230469-28.5 3.414062-.171874 6.828125-.171874 10.324219-.171874 72.789062 0 116.308593 15.191406 140.542969 28.671874v.085938c9.992187 5.050781 18.9375 11.941406 26.371093 20.308594 5.878907 7.355468 4.695313 18.085937-2.648437 23.980468zm0 0" fill="#fec108"/><path d="m495.957031 377.769531-12.03125 12.117188c-17.671875 17.679687-45.535156 19.988281-65.878906 5.460937l-103.082031 103.085938c-4.863282 4.894531-12.203125 6.367187-18.578125 3.730468-6.378907-2.636718-10.53125-8.863281-10.519531-15.765624-.011719-1.46875.1875-2.9375.597656-4.351563 4.296875-.074219 8.398437-1.816406 11.433594-4.863281l103.082031-103.082032c20.375 14.457032 48.207031 12.113282 65.878906-5.546874l12.03125-12.03125c4.65625-4.652344 7.34375-10.914063 7.507813-17.492188l3.5-3.5 6.058593 6.058594c9.984375 9.996094 9.984375 26.1875 0 36.179687zm0 0" fill="#707070"/><path d="m179.199219 315.734375c-70.175781 0-128.558594-48.34375-135.800781-112.449219-.472657-4.34375-.714844-8.707031-.730469-13.078125-.023438-4.019531.195312-8.035156.65625-12.03125.234375-2.867187.75-6.058593 1.28125-9.257812.757812-3.839844 1.5-6.976563 2.414062-10.117188.855469-2.925781 3.207031-5.175781 6.167969-5.898437 2.960938-.726563 6.082031.1875 8.191406 2.386718 2.109375 2.203126 2.878906 5.363282 2.027344 8.289063-.785156 2.675781-1.410156 5.34375-1.964844 8.085937-.449218 2.765626-.914062 5.492188-1.132812 8.222657-.402344 3.425781-.59375 6.871093-.574219 10.320312.011719 3.75.222656 7.492188.632813 11.21875 6.257812 55.40625 57.347656 97.242188 118.832031 97.242188 56.875 0 106.15625-36.695313 117.191406-87.234375.699219-3.292969 1.261719-6.691406 1.652344-10.09375.402343-3.695313.613281-7.414063.625-11.132813.023437-3.335937-.160157-6.667969-.542969-9.984375-.25-3.066406-.71875-5.789062-1.167969-8.523437-.566406-2.851563-1.289062-5.675781-2.015625-8.410157-1.207031-4.554687 1.511719-9.226562 6.066406-10.433593 4.558594-1.203125 9.226563 1.511719 10.433594 6.070312.808594 3.066407 1.617188 6.226563 2.25 9.375.632813 3.816407 1.148438 7.007813 1.417969 10.207031.441406 3.882813.648437 7.789063.625 11.699219-.015625 4.351563-.257813 8.695313-.734375 13.019531-.464844 4.015626-1.109375 7.964844-1.933594 11.804688-12.734375 58.367188-69.023437 100.703125-133.867187 100.703125zm0 0"/><path d="m51.882812 221.867188h-17.75c-14.132812-.015626-25.582031-11.46875-25.597656-25.601563.0625-14.109375 11.488282-25.53125 25.597656-25.597656h17.664063c4.714844 0 8.535156 3.820312 8.535156 8.53125 0 4.714843-3.820312 8.535156-8.535156 8.535156h-17.578125c-2.25-.039063-4.417969.847656-6 2.449219-1.675781 1.578125-2.621094 3.78125-2.617188 6.082031 0 4.710937 3.820313 8.53125 8.53125 8.535156h17.75c4.710938 0 8.535157 3.820313 8.535157 8.53125 0 4.714844-3.824219 8.535157-8.535157 8.535157zm0 0"/><path d="m324.265625 221.867188h-17.75c-4.710937 0-8.53125-3.820313-8.53125-8.535157 0-4.710937 3.820313-8.53125 8.53125-8.53125h17.75c4.710937-.003906 8.53125-3.824219 8.535156-8.535156.019531-2.222656-.863281-4.359375-2.449219-5.914063-1.582031-1.675781-3.78125-2.621093-6.085937-2.617187h-17.664063c-4.710937 0-8.53125-3.820313-8.53125-8.535156 0-4.710938 3.820313-8.53125 8.53125-8.53125h17.578126c14.144531.019531 25.621093 11.453125 25.6875 25.597656-.015626 14.132813-11.46875 25.585937-25.601563 25.601563zm0 0"/><path d="m38.65625 139.648438c-2.257812.011718-4.429688-.878907-6.03125-2.472657s-2.503906-3.757812-2.503906-6.019531c.003906-.769531.101562-1.535156.292968-2.28125 9.1875-33.738281 29.894532-63.199219 58.527344-83.273438 2.484375-1.839843 5.769532-2.1875 8.585938-.914062s4.726562 3.972656 4.988281 7.054688c.261719 3.078124-1.164063 6.0625-3.726563 7.792968-25.316406 17.726563-43.648437 43.738282-51.832031 73.539063-.917969 3.84375-4.347656 6.5625-8.300781 6.574219zm0 0"/><path d="m232.105469 43.777344c-1.03125 0-2.058594-.1875-3.023438-.550782-10.859375-4.121093-22.195312-6.851562-33.742187-8.117187-4.683594-.511719-8.070313-4.722656-7.558594-9.410156.511719-4.683594 4.722656-8.066407 9.410156-7.554688 12.980469 1.421875 25.730469 4.488281 37.941406 9.113281 3.859376 1.457032 6.121094 5.464844 5.378907 9.523438-.742188 4.054688-4.28125 7-8.40625 6.996094zm0 0"/><path d="m319.742188 139.648438c-4.082032.015624-7.601563-2.871094-8.382813-6.882813-8.230469-29.675781-26.523437-55.5625-51.746094-73.230469-2.5625-1.730468-3.988281-4.714844-3.726562-7.792968.261719-3.082032 2.167969-5.78125 4.984375-7.054688s6.101562-.925781 8.589844.914062c28.632812 20.074219 49.335937 49.535157 58.523437 83.273438.6875 2.566406.144531 5.304688-1.46875 7.414062-1.613281 2.113282-4.113281 3.351563-6.773437 3.359376zm0 0"/><path d="m126.292969 43.777344c-4.125.003906-7.664063-2.941406-8.40625-6.996094-.742188-4.058594 1.523437-8.066406 5.382812-9.523438 12.210938-4.625 24.957031-7.691406 37.9375-9.117187 4.6875-.507813 8.898438 2.875 9.410157 7.558594.511718 4.6875-2.875 8.898437-7.558594 9.410156-11.546875 1.265625-22.882813 3.992187-33.742188 8.117187-.964844.363282-1.988281.550782-3.023437.550782zm0 0"/><path d="m34.207031 187.734375c-3.929687-.003906-7.347656-2.691406-8.28125-6.507813-.351562-1.675781-.425781-3.394531-.226562-5.09375.402343-4.667968 4.433593-8.175781 9.109375-7.925781 4.703125.328125 8.25 4.40625 7.925781 9.109375-.027344.324219-.042969.609375-.050781.839844.304687 2.429688-.453125 4.871094-2.074219 6.703125s-3.953125 2.878906-6.402344 2.875zm0 0"/><path d="m324.179688 187.5625h-.179688c-4.609375-.019531-8.339844-3.753906-8.351562-8.363281 0-.125.015624-.609375.015624-.730469.027344-.308594.027344-.617188.007813-.925781-.28125-3.070313 1.117187-6.050781 3.652344-7.804688 2.535156-1.75 5.820312-1.996093 8.589843-.644531 2.769532 1.351562 4.59375 4.089844 4.777344 7.167969.074219.988281.082032 1.976562.023438 2.964843-.1875 4.601563-3.929688 8.257813-8.535156 8.335938zm0 0"/><path d="m153.601562 378.453125c-4.714843 0-8.535156-3.820313-8.535156-8.53125v-65.023437c0-4.710938 3.820313-8.53125 8.535156-8.53125 4.710938 0 8.53125 3.820312 8.53125 8.53125v65.023437c0 4.710937-3.820312 8.53125-8.53125 8.53125zm0 0"/><path d="m204.800781 378.453125c-4.714843 0-8.535156-3.820313-8.535156-8.53125v-65.023437c0-4.710938 3.820313-8.53125 8.535156-8.53125 4.710938 0 8.53125 3.820312 8.53125 8.53125v65.023437c0 4.710937-3.820312 8.53125-8.53125 8.53125zm0 0"/><path d="m302.933594 512h-277.332032c-14.132812-.015625-25.585937-11.46875-25.601562-25.601562v-34.132813c-.046875-50.605469 34.199219-94.816406 83.207031-107.425781.667969-.207032 1.703125-.429688 2.726563-.640625 4.636718-.953125 9.175781 1.996093 10.191406 6.617187.480469 2.199219.0625 4.496094-1.160156 6.386719-1.226563 1.886719-3.152344 3.207031-5.355469 3.664063-.769531.15625-1.28125.25-1.792969.40625-41.621094 10.578124-70.757812 48.050781-70.75 90.992187v34.132813c.003906 4.714843 3.820313 8.53125 8.535156 8.535156h277.332032c4.710937 0 8.53125 3.820312 8.53125 8.53125 0 4.714844-3.820313 8.535156-8.53125 8.535156zm0 0"/><path d="m344.832031 428.886719c-3.683593-.003907-6.953125-2.367188-8.105469-5.867188-10.121093-30.335937-34.859374-53.515625-65.785156-61.644531-.867187-.253906-1.382812-.347656-1.898437-.457031l3.183593-16.765625-1.71875 8.363281 1.964844-8.308594c1.023438.207031 2.058594.433594 3.082032.742188 36.398437 9.664062 65.484374 37.003906 77.382812 72.734375.855469 2.601562.414062 5.453125-1.191406 7.671875-1.605469 2.214843-4.175782 3.527343-6.914063 3.527343zm0 0"/><path d="m332.816406 187.734375c-7.777344.015625-15.140625-3.515625-20-9.59375-.03125 0-32.257812-33.074219-133.617187-33.074219-101.808594 0-133.832031 33.359375-134.144531 33.691406-9.175782 10.457032-24.996094 11.742188-35.742188 2.902344-10.78125-8.8125-12.4375-24.671875-3.703125-35.519531 4.289063-5.359375 45.550781-52.273437 173.589844-52.273437 128.042969 0 169.300781 46.914062 173.585937 52.265624 6.148438 7.679688 7.351563 18.207032 3.09375 27.078126-4.257812 8.871093-13.222656 14.515624-23.0625 14.523437zm-153.617187-59.734375c109.617187 0 145.117187 37.441406 146.566406 39.042969 1.65625 2.242187 4.265625 3.582031 7.050781 3.625 1.933594.003906 3.8125-.65625 5.316406-1.867188 3.671876-2.953125 4.261719-8.320312 1.324219-12-1.488281-1.875-38.125-45.867187-160.257812-45.867187-122.132813 0-158.765625 43.992187-160.265625 45.867187-2.863282 3.609375-2.28125 8.855469 1.308594 11.75 3.648437 2.9375 8.972656 2.457031 12.03125-1.09375 1.378906-1.597656 35.359374-39.457031 146.925781-39.457031zm0 0"/><path d="m110.933594 85.332031c-14.132813-.015625-25.585938-11.464843-25.601563-25.597656v-17.066406c0-14.140625 11.464844-25.601563 25.601563-25.601563 14.136718 0 25.601562 11.460938 25.601562 25.601563v17.066406c-.015625 14.132813-11.46875 25.582031-25.601562 25.597656zm0-51.199219c-4.710938.003907-8.53125 3.820313-8.535156 8.535157v17.066406c0 4.710937 3.820312 8.53125 8.535156 8.53125 4.710937 0 8.53125-3.820313 8.53125-8.53125v-17.066406c0-4.714844-3.820313-8.53125-8.53125-8.535157zm0 0"/><path d="m179.199219 68.265625c-14.132813-.015625-25.582031-11.46875-25.597657-25.597656v-17.066407c0-14.140624 11.460938-25.601562 25.597657-25.601562 14.140625 0 25.601562 11.460938 25.601562 25.601562v17.066407c-.015625 14.128906-11.46875 25.582031-25.601562 25.597656zm0-51.199219c-4.710938.003906-8.53125 3.820313-8.53125 8.535156v17.066407c0 4.710937 3.820312 8.53125 8.53125 8.53125 4.714843 0 8.535156-3.820313 8.535156-8.53125v-17.066407c-.003906-4.714843-3.824219-8.53125-8.535156-8.535156zm0 0"/><path d="m247.464844 85.332031c-14.128906-.015625-25.582032-11.464843-25.597656-25.597656v-17.066406c0-14.140625 11.460937-25.601563 25.597656-25.601563 14.140625 0 25.601562 11.460938 25.601562 25.601563v17.066406c-.015625 14.132813-11.46875 25.582031-25.601562 25.597656zm0-51.199219c-4.710938.003907-8.527344 3.820313-8.53125 8.535157v17.066406c0 4.710937 3.820312 8.53125 8.53125 8.53125 4.714844 0 8.535156-3.820313 8.535156-8.53125v-17.066406c-.003906-4.714844-3.820312-8.53125-8.535156-8.535157zm0 0"/><path d="m136.535156 443.734375c-.699218 0-1.394531-.085937-2.070312-.257813-2.222656-.550781-4.128906-1.976562-5.289063-3.949218l-51.199219-87c-1.253906-2.136719-1.519531-4.710938-.726562-7.058594.792969-2.34375 2.566406-4.230469 4.859375-5.167969l36.242187-14.773437c7.539063-3.058594 16.191407-.34375 20.632813 6.476562l47.359375 72.433594c1.261719 1.929688 1.6875 4.289062 1.179688 6.539062-.503907 2.253907-1.902344 4.203126-3.871094 5.40625l-42.667969 26.097657c-1.339844.820312-2.878906 1.253906-4.449219 1.253906zm-38.84375-91.359375 41.792969 71.015625 27.757813-16.980469-42.542969-65.066406zm0 0"/><path d="m221.867188 443.734375c-1.570313 0-3.109376-.433594-4.449219-1.25l-42.667969-26.101563c-1.96875-1.203124-3.363281-3.152343-3.871094-5.402343-.507812-2.253907-.082031-4.613281 1.179688-6.542969l47.359375-72.425781c4.445312-6.820313 13.097656-9.539063 20.640625-6.484375l36.234375 14.773437c2.292969.9375 4.066406 2.820313 4.859375 5.167969.792968 2.347656.53125 4.921875-.726563 7.058594l-51.199219 87c-1.160156 1.972656-3.066406 3.394531-5.289062 3.949218-.675781.171876-1.371094.257813-2.070312.257813zm-30.71875-37.324219 27.765624 16.980469 41.792969-71.019531-27.105469-11.046875zm0 0"/><path d="m187.734375 469.332031h-17.066406c-4.429688-.019531-8.777344-1.214843-12.59375-3.464843-8.09375-4.863282-13.035157-13.628907-13.007813-23.074219v-18.003907c0-4.710937 3.820313-8.53125 8.535156-8.53125 4.710938 0 8.53125 3.820313 8.53125 8.53125v18.003907c-.046874 3.40625 1.699219 6.582031 4.601563 8.363281 1.1875.71875 2.546875 1.101562 3.933594 1.109375h17.066406c1.398437-.011719 2.765625-.40625 3.957031-1.132813 2.886719-1.78125 4.621094-4.949218 4.574219-8.339843v-18.003907c0-4.710937 3.820313-8.53125 8.535156-8.53125 4.710938 0 8.53125 3.820313 8.53125 8.53125v18.003907c.03125 9.4375-4.898437 18.195312-12.980469 23.058593-3.824218 2.261719-8.179687 3.460938-12.617187 3.480469zm0 0"/><path d="m145.066406 512c-2.808594 0-5.4375-1.382812-7.027344-3.699219-1.589843-2.3125-1.941406-5.261719-.9375-7.882812l17.066407-44.628907c1.03125-2.925781 3.570312-5.058593 6.628906-5.570312 3.058594-.515625 6.152344.671875 8.085937 3.09375 1.933594 2.425781 2.398438 5.707031 1.21875 8.574219l-17.066406 44.628906c-1.261718 3.304687-4.433594 5.484375-7.96875 5.484375zm0 0"/><path d="m213.332031 512c-3.535156 0-6.703125-2.179688-7.964843-5.484375l-17.066407-44.628906c-1.542969-4.363281.671875-9.160157 4.992188-10.816407 4.324219-1.652343 9.175781.4375 10.941406 4.71875l17.066406 44.628907c1.003907 2.621093.652344 5.570312-.941406 7.882812-1.589844 2.316407-4.21875 3.699219-7.027344 3.699219zm0 0"/><path d="m102.398438 477.867188h-51.199219c-4.710938 0-8.53125-3.820313-8.53125-8.535157 0-4.710937 3.820312-8.53125 8.53125-8.53125h51.199219c4.714843 0 8.535156 3.820313 8.535156 8.53125 0 4.714844-3.820313 8.535157-8.535156 8.535157zm0 0"/><path d="m302.882812 512c-10.351562 0-19.6875-6.238281-23.648437-15.804688-3.960937-9.5625-1.769531-20.574218 5.546875-27.894531l98.320312-98.324219c-12.675781-23.210937-8.480468-52 10.289063-70.628906l12.066406-12.066406c13.335938-13.316406 34.941407-13.316406 48.277344 0l6.03125 6.035156c3.332031 3.332032 3.332031 8.734375 0 12.066406l-21.640625 21.632813v17.066406l7.074219 7.066407h17.066406l21.632813-21.632813c3.332031-3.332031 8.734374-3.332031 12.070312 0l6.03125 6.035156c13.308594 13.339844 13.308594 34.933594 0 48.273438l-12.066406 12.066406c-18.625 18.777344-47.421875 22.972656-70.632813 10.296875l-98.316406 98.3125c-4.792969 4.816406-11.308594 7.515625-18.101563 7.5zm126.710938-217.640625c-4.527344-.007813-8.871094 1.789063-12.070312 4.992187l-12.066407 12.066407c-14.792969 14.664062-16.738281 37.90625-4.582031 54.824219 2.425781 3.394531 2.042969 8.046874-.90625 11l-103.117188 103.125c-3.328124 3.335937-3.328124 8.730468 0 12.066406 3.371094 3.230468 8.691407 3.230468 12.066407 0l103.117187-103.117188c2.949219-2.949218 7.601563-3.332031 11-.90625 16.917969 12.15625 40.164063 10.214844 54.832032-4.582031l12.066406-12.066406c6.65625-6.667969 6.65625-17.472657 0-24.140625l-18.101563 18.09375c-1.597656 1.601562-3.769531 2.503906-6.03125 2.5h-24.132812c-2.265625 0-4.433594-.898438-6.035157-2.5l-12.074218-12.066406c-1.601563-1.597657-2.5-3.769532-2.5-6.03125v-24.132813c0-2.265625.898437-4.433594 2.5-6.035156l18.109375-18.101563c-3.203125-3.199218-7.546875-4.996094-12.074219-4.988281zm0 0"/><path d="m40.949219 386.046875c-1.894531.003906-3.738281-.628906-5.234375-1.796875-27.824219-21.667969-35.289063-62.859375-17.746094-97.933594 15.507812-31.007812 7.871094-70.917968 7.796875-71.316406-.835937-4.582031 2.15625-8.988281 6.726563-9.898438 4.566406-.910156 9.019531 2.003907 10.007812 6.558594.375 1.855469 8.898438 45.957032-9.265625 82.289063-13.917969 27.835937-8.46875 60.140625 12.96875 76.835937 2.878906 2.238282 4.011719 6.058594 2.828125 9.507813-1.1875 3.445312-4.433594 5.761719-8.078125 5.757812zm0 0"/><path d="m317.449219 386.046875c-3.644531.003906-6.890625-2.308594-8.074219-5.757813-1.1875-3.445312-.050781-7.265624 2.824219-9.507812 21.433593-16.691406 26.878906-49 12.972656-76.832031-18.167969-36.332031-9.644531-80.433594-9.269531-82.292969.988281-4.550781 5.445312-7.46875 10.011718-6.554688 4.566407.910157 7.558594 5.316407 6.722657 9.898438-.074219.398438-7.707031 40.304688 7.800781 71.316406 17.542969 35.070313 10.074219 76.265625-17.75 97.933594-1.496094 1.164062-3.339844 1.796875-5.238281 1.796875zm0 0"/></svg>