<svg height="512pt" viewBox="0 0 512.00123 512" width="512pt" xmlns="http://www.w3.org/2000/svg"><path d="m349.527344 489.644531c-1.566406 8.003907-8.566406 13.792969-16.726563 13.824219h-307.199219c-9.414062-.027344-17.039062-7.652344-17.066406-17.066406v-17.070313c-.019531-47.679687 32.894532-89.050781 79.359375-99.753906h182.613281c10.585938 2.402344 20.703126 6.527344 29.953126 12.203125zm0 0" fill="#ffdc00"/><path d="m401.066406 298.667969c-56.550781 0-102.398437 45.84375-102.398437 102.398437 0 56.554688 45.847656 102.402344 102.398437 102.402344 56.554688 0 102.402344-45.847656 102.402344-102.402344.007812-27.160156-10.78125-53.210937-29.984375-72.414062-19.207031-19.207032-45.257813-29.992188-72.417969-29.984375zm0 34.132812c24.617188.007813 47.316406 13.28125 59.394532 34.730469-1.878907 2.988281-13.058594 16.46875-59.394532 16.46875-46.417968 0-57.511718-13.480469-59.390625-16.46875 12.078125-21.449219 34.777344-34.722656 59.390625-34.730469zm0 136.53125c-24.613281-.003906-47.3125-13.28125-59.390625-34.730469 1.878907-2.984374 12.972657-16.46875 59.390625-16.46875 46.335938 0 57.515625 13.484376 59.394532 16.46875-12.078126 21.449219-34.777344 34.726563-59.394532 34.730469zm0 0" fill="#7f8c8d"/><path d="m401.066406 298.667969c-56.550781 0-102.398437 45.84375-102.398437 102.398437 0 56.554688 45.847656 102.402344 102.398437 102.402344 56.554688 0 102.402344-45.847656 102.402344-102.402344.007812-27.160156-10.78125-53.210937-29.984375-72.414062-19.207031-19.207032-45.257813-29.992188-72.417969-29.984375zm59.394532 135.933593c-16.851563 29.605469-53.050782 42.113282-84.582032 29.226563-31.53125-12.890625-48.605468-47.175781-39.890625-80.105469 8.714844-32.929687 40.511719-54.285156 74.292969-49.890625 33.777344 4.394531 59.054688 33.171875 59.054688 67.234375-.019532 11.757813-3.074219 23.308594-8.875 33.535156zm0 0" fill="#7f8e94"/><path d="m503.46875 401.066406c.007812 27.160156-10.78125 53.210938-29.984375 72.417969-19.207031 19.203125-45.257813 29.992187-72.417969 29.984375-3.933594-.011719-7.863281-.238281-11.773437-.683594 51.613281-6.023437 90.535156-49.753906 90.535156-101.71875s-38.921875-95.691406-90.535156-101.714844c3.910156-.445312 7.839843-.675781 11.773437-.683593 27.160156-.007813 53.210938 10.777343 72.417969 29.984375 19.203125 19.203125 29.992187 45.253906 29.984375 72.414062zm0 0" fill="#545c60"/><path d="m469.335938 401.066406c.007812 11.761719-3.050782 23.320313-8.875 33.535156-1.878907-2.984374-13.058594-16.46875-59.394532-16.46875-46.417968 0-57.511718 13.484376-59.390625 16.46875-11.832031-20.789062-11.832031-46.277343 0-67.070312 1.878907 2.988281 12.972657 16.46875 59.390625 16.46875 46.335938 0 57.515625-13.480469 59.394532-16.46875 5.824218 10.214844 8.882812 21.777344 8.875 33.535156zm0 0" fill="#9e9e9e"/><path d="m136.535156 366.933594 42.667969 59.222656 51.199219-59.222656zm0 0" fill="#bdc3c7"/><path d="m204.800781 321.964844v65.023437l-25.597656 39.167969-25.601563-39.167969v-65.023437zm0 0" fill="#ffe0b2"/><path d="m324.269531 189.78125c0 1.535156 0 13.3125-.085937 15.019531h-289.964844c-.085938-1.707031-.085938-13.484375-.085938-15.019531-.015624-5.726562.269532-11.453125.855469-17.152344.667969-8.332031 1.953125-16.601562 3.839844-24.746094v-.085937h280.746094v.085937c1.886719 8.144532 3.171875 16.414063 3.839843 24.746094.585938 5.699219.871094 11.425782.855469 17.152344zm0 0" fill="#91562d"/><path d="m306.605469 196.265625h17.664062c9.394531.070313 16.996094 7.671875 17.066407 17.066406-.027344 9.417969-7.652344 17.039063-17.066407 17.070313h-290.136719c-9.414062-.03125-17.039062-7.652344-17.066406-17.070313.070313-9.394531 7.671875-16.996093 17.066406-17.066406zm0 0" fill="#dfc49c"/><path d="m179.203125 426.15625-35.261719 21.578125c-1.953125 1.195313-4.304687 1.554687-6.523437 1-2.222657-.554687-4.125-1.980469-5.285157-3.953125l-41.792968-71.046875c-1.257813-2.136719-1.523438-4.710937-.726563-7.058594.792969-2.347656 2.566407-4.234375 4.863281-5.167969l27.125-11.042968c3.722657-1.515625 8-.179688 10.203126 3.183594l21.796874 33.339843zm0 0" fill="#f5f5f5"/><path d="m268.0625 373.734375-41.792969 71.046875c-1.160156 1.972656-3.0625 3.398438-5.285156 3.953125-2.21875.554687-4.570313.195313-6.523437-1l-35.257813-21.578125 25.597656-39.167969 21.761719-33.28125c2.222656-3.398437 6.539062-4.746093 10.300781-3.214843l27.0625 11.015624c2.296875.933594 4.070313 2.820313 4.867188 5.167969.792969 2.347657.527343 4.921875-.730469 7.058594zm0 0" fill="#f5f5f5"/><path d="m307.203125 207.273438c-.015625 4.050781-.242187 8.09375-.683594 12.121093-6.65625 58.964844-61.101562 104.871094-127.316406 104.871094-3.925781 0-7.851563-.167969-11.777344-.511719-60.757812-5.035156-109.3125-48.894531-115.542969-104.359375-.441406-4.027343-.667968-8.070312-.679687-12.121093.015625-6.78125.644531-13.550782 1.875-20.222657.511719-2.644531 1.195313-5.289062 1.964844-7.933593.253906-1.109376.511719-2.136719.851562-3.246094 1.792969-4.09375 4.097657-9.042969 6.996094-14.417969h232.707031c2.8125 5.375 5.117188 10.324219 6.910156 14.417969.339844 1.109375.597657 2.136718.851563 3.246094.769531 2.644531 1.453125 5.289062 1.964844 7.933593 1.230469 6.671875 1.859375 13.441407 1.878906 20.222657zm0 0" fill="#dfc49c"/><path d="m283.5625 207.273438c-.011719 4.050781-.238281 8.09375-.679688 12.121093-6.230468 55.378907-54.699218 99.324219-115.457031 104.359375-60.757812-5.035156-109.3125-48.894531-115.542969-104.359375-.441406-4.027343-.667968-8.070312-.679687-12.121093.015625-6.78125.644531-13.550782 1.875-20.222657.511719-2.644531 1.195313-5.289062 1.964844-7.933593.253906-1.109376.511719-2.136719.851562-3.246094 1.792969-4.09375 4.097657-9.042969 6.996094-14.417969h209.066406c2.816407 5.375 5.121094 10.324219 6.914063 14.417969.339844 1.109375.597656 2.136718.851562 3.246094.769532 2.644531 1.453125 5.289062 1.964844 7.933593 1.230469 6.671875 1.859375 13.441407 1.875 20.222657zm0 0" fill="#ffe0b2"/><path d="m319.574219 147.796875v.085937c-1.792969 4.4375-7.9375 9.386719-23.976563 13.570313-20.054687 5.203125-55.296875 9.214844-116.394531 9.214844-3.84375 0-7.511719 0-11.179687-.085938h-1.28125c-53.417969-.511719-85.164063-4.179687-103.851563-9.128906-16.042969-4.183594-22.269531-9.132813-24.0625-13.570313v-.085937c-1.191406-4.011719.195313-8.347656 3.5-10.921875l.339844-.339844 51.199219-59.734375h179.199218l42.667969 59.734375.339844.339844c3.304687 2.574219 4.691406 6.910156 3.5 10.921875zm0 0" fill="#283593"/><path d="m295.9375 147.796875v.085937c-1.792969 4.4375-7.9375 9.386719-23.980469 13.570313-18.6875 4.863281-50.429687 8.617187-103.933593 9.128906h-1.28125c-53.417969-.511719-85.164063-4.179687-103.851563-9.128906-16.042969-4.183594-22.269531-9.132813-24.0625-13.570313v-.085937c-1.191406-4.011719.195313-8.347656 3.5-10.921875l.339844-.339844 51.199219-59.734375h155.5625l42.667968 59.734375.339844.339844c3.304688 2.574219 4.691406 6.910156 3.5 10.921875zm0 0" fill="#3f51b5"/><path d="m349.867188 93.867188c0 24.234374-30.632813 40.875-33.875 42.496093-.09375.042969-.179688.101563-.257813.171875-2.984375-3.414062-6.5-6.324218-10.410156-8.621094-15.617188-10.152343-51.628907-25.511718-126.121094-25.511718-4.011719 0-8.023437.082031-11.777344.167968-101.035156 2.304688-124.757812 33.964844-124.757812 33.964844-.078125-.070312-.164063-.128906-.257813-.171875-4.578125-2.402343-8.917968-5.230469-12.96875-8.449219-9.644531-7.421874-20.90625-19.371093-20.90625-34.046874 0-25.003907 8.105469-82.433594 158.890625-85.164063 3.839844-.167969 7.765625-.167969 11.777344-.167969 162.132813 0 170.664063 59.730469 170.664063 85.332032zm0 0" fill="#fec108"/><path d="m326.230469 93.867188c0 14.675781-11.265625 26.625-20.90625 34.046874-15.617188-10.152343-51.628907-25.511718-126.121094-25.511718-4.011719 0-8.023437.082031-11.777344.167968-3.839843-.085937-7.765625-.167968-11.863281-.167968-74.496094 0-110.503906 15.445312-126.121094 25.511718-9.644531-7.421874-20.90625-19.371093-20.90625-34.046874 0-25.003907 8.105469-82.433594 158.890625-85.164063 150.699219 2.816406 158.804688 60.246094 158.804688 85.164063zm0 0" fill="#ffdc00"/><path d="m179.203125 332.800781c-70.175781 0-128.558594-48.359375-135.800781-112.476562-.476563-4.339844-.722656-8.699219-.734375-13.066407.015625-7.277343.691406-14.542968 2.015625-21.699218.8125-4.105469 1.828125-8.171875 3.050781-12.175782 1.46875-4.382812 6.164063-6.796874 10.582031-5.449218 4.421875 1.351562 6.964844 5.976562 5.734375 10.433594-1.023437 3.367187-1.898437 6.882812-2.609375 10.417968-1.121094 6.09375-1.691406 12.277344-1.707031 18.472656.011719 3.742188.222656 7.480469.632813 11.203126 6.257812 55.429687 57.351562 97.273437 118.835937 97.273437 61.480469 0 112.574219-41.84375 118.832031-97.324219.410156-3.703125.625-7.425781.632813-11.152344-.019531-6.25-.597657-12.484374-1.734375-18.632812-.679688-3.375-1.558594-6.890625-2.582032-10.257812-.988281-2.941407-.296874-6.191407 1.800782-8.476563 2.09375-2.289063 5.269531-3.257813 8.285156-2.53125 3.019531.726563 5.402344 3.03125 6.230469 6.023437 1.167969 3.792969 2.183593 7.84375 3.023437 12.019532 2.175782 11.492187 2.617188 23.25 1.308594 34.875-7.242188 64.164062-65.625 112.523437-135.796875 112.523437zm0 0"/><path d="m51.882812 238.933594h-17.75c-14.128906-.015625-25.582031-11.46875-25.597656-25.601563.066406-14.109375 11.488282-25.53125 25.597656-25.597656h17.664063c4.714844 0 8.535156 3.820313 8.535156 8.53125 0 4.714844-3.820312 8.535156-8.535156 8.535156h-17.578125c-2.25-.039062-4.417969.847657-6 2.449219-1.675781 1.582031-2.621094 3.78125-2.617188 6.082031.003907 4.714844 3.820313 8.53125 8.53125 8.535157h17.75c4.714844 0 8.535157 3.820312 8.535157 8.535156 0 4.710937-3.820313 8.53125-8.535157 8.53125zm0 0"/><path d="m324.269531 238.933594h-17.75c-4.714843 0-8.535156-3.820313-8.535156-8.53125 0-4.714844 3.820313-8.535156 8.535156-8.535156h17.75c4.710938-.003907 8.527344-3.820313 8.53125-8.535157.019531-2.222656-.863281-4.355469-2.449219-5.914062-1.582031-1.675781-3.78125-2.621094-6.082031-2.617188h-17.664062c-4.714844 0-8.535157-3.820312-8.535157-8.535156 0-4.710937 3.820313-8.53125 8.535157-8.53125h17.578125c14.144531.019531 25.617187 11.457031 25.683594 25.597656-.015626 14.132813-11.46875 25.585938-25.597657 25.601563zm0 0"/><path d="m34.210938 204.765625c-4.511719.015625-8.25-3.503906-8.511719-8.007813-.089844-1.507812-.097657-11.875-.097657-13.289062 0-12.691406 1.65625-25.324219 4.925782-37.585938.996094-4.199218 4.976562-6.992187 9.265625-6.503906 4.289062.484375 7.539062 4.101563 7.566406 8.417969 0 .773437-.097656 1.542969-.289063 2.292969-2.917968 10.886718-4.398437 22.105468-4.402343 33.378906 0 1.308594-.007813 10.730469.066406 12.324219.234375 4.699219-3.371094 8.703125-8.066406 8.964843-.148438.007813-.308594.007813-.457031.007813zm0 0"/><path d="m324.191406 204.800781c-.167968 0-.332031-.007812-.5-.015625-2.257812-.132812-4.371094-1.152344-5.875-2.84375-1.503906-1.6875-2.277344-3.90625-2.144531-6.164062.070313-1.578125.0625-11 .0625-12.308594-.003906-11.269531-1.480469-22.492188-4.398437-33.375-.824219-3.019531.066406-6.242188 2.320312-8.410156 2.257812-2.164063 5.515625-2.925782 8.496094-1.980469 2.980468.941406 5.207031 3.4375 5.808594 6.507813 3.214843 12.15625 4.839843 24.679687 4.839843 37.257812 0 1.414062-.007812 11.78125-.097656 13.289062-.261719 4.511719-3.992187 8.039063-8.511719 8.042969zm0 0"/><path d="m55.894531 184.449219c-2.257812.011719-4.429687-.878907-6.03125-2.472657-1.601562-1.59375-2.5-3.757812-2.503906-6.019531v-.082031c0-1.175781.246094-2.339844.71875-3.414062 2.332031-5.359376 4.726563-10.285157 7.308594-15.058594 1.414062-2.746094 4.199219-4.511719 7.285156-4.621094 3.082031-.109375 5.988281 1.457031 7.589844 4.09375 1.605469 2.640625 1.660156 5.9375.144531 8.625-2.308594 4.292969-4.46875 8.726562-6.585938 13.542969-1.285156 3.253906-4.425781 5.398437-7.925781 5.40625zm0 0"/><path d="m302.507812 184.449219c-3.65625.011719-6.914062-2.3125-8.089843-5.773438-1.683594-3.824219-3.816407-8.363281-6.386719-13.265625-1.476562-2.707031-1.375-6 .257812-8.613281 1.636719-2.613281 4.554688-4.144531 7.632813-4 3.082031.144531 5.84375 1.941406 7.226563 4.695313 2.542968 4.851562 4.960937 9.882812 7.175781 14.96875.472656 1.074218.71875 2.238281.71875 3.410156.003906 4.726562-3.8125 8.5625-8.535157 8.578125zm0 0"/><path d="m153.601562 395.519531c-4.714843 0-8.535156-3.820312-8.535156-8.53125v-65.019531c0-4.714844 3.820313-8.535156 8.535156-8.535156 4.710938 0 8.53125 3.820312 8.53125 8.535156v65.019531c0 4.710938-3.820312 8.53125-8.53125 8.53125zm0 0"/><path d="m204.800781 395.519531c-4.710937 0-8.53125-3.820312-8.53125-8.53125v-65.019531c0-4.714844 3.820313-8.535156 8.53125-8.535156 4.714844 0 8.535157 3.820312 8.535157 8.535156v65.019531c0 4.710938-3.820313 8.53125-8.535157 8.53125zm0 0"/><path d="m332.800781 512h-307.199219c-14.132812-.015625-25.585937-11.46875-25.601562-25.597656v-17.070313c-.242188-51.734375 35.519531-96.679687 85.984375-108.074219 2.988281-.722656 6.132813.214844 8.238281 2.457032 2.101563 2.242187 2.835938 5.441406 1.921875 8.378906-.914062 2.933594-3.339843 5.148438-6.34375 5.796875-42.695312 9.644531-72.941406 47.675781-72.734375 91.441406v17.070313c.003906 4.710937 3.824219 8.527344 8.535156 8.53125h307.199219c4.078125-.019532 7.574219-2.917969 8.351563-6.925782.554687-3.019531 2.6875-5.507812 5.589844-6.519531 2.898437-1.007812 6.117187-.378906 8.429687 1.644531 2.308594 2.027344 3.351563 5.136719 2.730469 8.144532-2.351563 12.011718-12.859375 20.691406-25.101563 20.722656zm0 0"/><path d="m300.453125 390.316406c-1.582031 0-3.132813-.441406-4.476563-1.265625-8.457031-5.195312-17.707031-8.964843-27.382812-11.160156-2.972656-.683594-5.351562-2.902344-6.246094-5.816406-.890625-2.917969-.160156-6.085938 1.917969-8.316407 2.078125-2.234374 5.1875-3.183593 8.160156-2.5 11.488281 2.617188 22.472657 7.09375 32.515625 13.257813 3.253906 2.003906 4.78125 5.925781 3.734375 9.601563-1.042969 3.671874-4.402343 6.207031-8.222656 6.199218zm0 0"/><path d="m315.734375 145.066406c-.199219 0-.398437-.007812-.609375-.023437-2.464844-.171875-4.734375-1.410157-6.21875-3.390625-.15625-.183594-26.070312-30.71875-129.703125-30.71875-103.765625 0-129.476563 30.417968-129.707031 30.71875-1.480469 1.980468-3.75 3.21875-6.21875 3.394531-1.820313.144531-3.640625-.3125-5.175782-1.300781-5.257812-2.769532-38.101562-21.210938-38.101562-49.878906 0-62.28125 60.292969-93.867188 179.203125-93.867188 118.90625 0 179.199219 31.585938 179.199219 93.867188 0 29.011718-33.644532 47.550781-38.144532 49.902343-1.355468.84375-2.925781 1.296875-4.523437 1.296875zm-136.53125-51.199218c88.214844 0 125.097656 21.609374 137.773437 32.058593 8.191407-5.199219 24.359376-17.316406 24.359376-32.058593 0-50.957032-54.550782-76.800782-162.132813-76.800782-107.585937 0-162.136719 25.84375-162.136719 76.800782 0 14.699218 16.085938 26.808593 24.367188 32.058593 12.683594-10.457031 49.558594-32.058593 137.769531-32.058593zm0 0"/><path d="m179.203125 179.199219c-54.742187 0-94.601563-3.199219-118.484375-9.5-16.984375-4.421875-26.460938-10.347657-29.800781-18.613281-.125-.308594-.234375-.621094-.324219-.941407-2.140625-7.214843.292969-15.007812 6.15625-19.722656 3.492188-3.058594 8.761719-2.847656 12 .472656 3.171875 3.253907 3.152344 8.449219-.050781 11.671875-.148438.152344-.640625.632813-.796875.769532-.460938.414062-.832032.914062-1.101563 1.472656.441407.726562 3.390625 4.507812 18.242188 8.382812 22.492187 5.933594 60.890625 8.941406 114.160156 8.941406 52.964844 0 91.398437-3.007812 114.25-8.941406 14.449219-3.765625 17.578125-7.492187 18.113281-8.332031l.078125-.207031c-.347656-.46875-.730469-.910156-1.144531-1.316406-.15625-.136719-.65625-.628907-.796875-.769532-3.234375-3.347656-3.1875-8.671875.101563-11.960937 3.292968-3.292969 8.613281-3.339844 11.964843-.105469l.339844.339844c5.621094 4.722656 7.859375 12.359375 5.675781 19.367187-.085937.296875-.183594.589844-.300781.875-3.351563 8.285157-12.800781 14.210938-29.742187 18.625-24.246094 6.300781-64.132813 9.492188-118.539063 9.492188zm0 0"/><path d="m187.734375 59.734375c0 4.710937-3.820313 8.53125-8.53125 8.53125-4.714844 0-8.535156-3.820313-8.535156-8.53125 0-4.714844 3.820312-8.535156 8.535156-8.535156 4.710937 0 8.53125 3.820312 8.53125 8.535156zm0 0"/><path d="m153.601562 59.734375c0 4.710937-3.820312 8.53125-8.535156 8.53125-4.710937 0-8.53125-3.820313-8.53125-8.53125 0-4.714844 3.820313-8.535156 8.53125-8.535156 4.714844 0 8.535156 3.820312 8.535156 8.535156zm0 0"/><path d="m170.667969 76.800781c0 4.710938-3.820313 8.53125-8.535157 8.53125-4.710937 0-8.53125-3.820312-8.53125-8.53125 0-4.714843 3.820313-8.535156 8.53125-8.535156 4.714844 0 8.535157 3.820313 8.535157 8.535156zm0 0"/><path d="m136.535156 76.800781c0 4.710938-3.820312 8.53125-8.535156 8.53125-4.710938 0-8.53125-3.820312-8.53125-8.53125 0-4.714843 3.820312-8.535156 8.53125-8.535156 4.714844 0 8.535156 3.820313 8.535156 8.535156zm0 0"/><path d="m119.46875 59.734375c0 4.710937-3.820312 8.53125-8.535156 8.53125-4.710938 0-8.53125-3.820313-8.53125-8.53125 0-4.714844 3.820312-8.535156 8.53125-8.535156 4.714844 0 8.535156 3.820312 8.535156 8.535156zm0 0"/><path d="m102.402344 76.800781c0 4.710938-3.820313 8.53125-8.535156 8.53125-4.710938 0-8.53125-3.820312-8.53125-8.53125 0-4.714843 3.820312-8.535156 8.53125-8.535156 4.714843 0 8.535156 3.820313 8.535156 8.535156zm0 0"/><path d="m273.066406 76.800781c0 4.710938-3.820312 8.53125-8.53125 8.53125-4.714844 0-8.535156-3.820312-8.535156-8.53125 0-4.714843 3.820312-8.535156 8.535156-8.535156 4.710938 0 8.53125 3.820313 8.53125 8.535156zm0 0"/><path d="m204.800781 76.800781c0 4.710938-3.820312 8.53125-8.53125 8.53125-4.714843 0-8.535156-3.820312-8.535156-8.53125 0-4.714843 3.820313-8.535156 8.535156-8.535156 4.710938 0 8.53125 3.820313 8.53125 8.535156zm0 0"/><path d="m221.867188 59.734375c0 4.710937-3.820313 8.53125-8.53125 8.53125-4.714844 0-8.535157-3.820313-8.535157-8.53125 0-4.714844 3.820313-8.535156 8.535157-8.535156 4.710937 0 8.53125 3.820312 8.53125 8.535156zm0 0"/><path d="m238.933594 76.800781c0 4.710938-3.820313 8.53125-8.53125 8.53125-4.714844 0-8.535156-3.820312-8.535156-8.53125 0-4.714843 3.820312-8.535156 8.535156-8.535156 4.710937 0 8.53125 3.820313 8.53125 8.535156zm0 0"/><path d="m256 59.734375c0 4.710937-3.820312 8.53125-8.53125 8.53125-4.714844 0-8.535156-3.820313-8.535156-8.53125 0-4.714844 3.820312-8.535156 8.535156-8.535156 4.710938 0 8.53125 3.820312 8.53125 8.535156zm0 0"/><path d="m136.535156 460.800781c-.699218 0-1.390625-.085937-2.066406-.257812-2.222656-.550781-4.128906-1.972657-5.292969-3.949219l-51.199219-87c-1.253906-2.132812-1.519531-4.710938-.726562-7.054688.792969-2.347656 2.566406-4.234374 4.859375-5.167968l36.242187-14.777344c7.542969-3.058594 16.191407-.34375 20.632813 6.476562l47.359375 72.433594c1.261719 1.929688 1.6875 4.289063 1.183594 6.542969-.507813 2.25-1.90625 4.199219-3.875 5.402344l-42.664063 26.101562c-1.339843.816407-2.882812 1.25-4.453125 1.25zm-38.84375-91.359375 41.792969 71.015625 27.757813-16.980469-42.539063-65.066406zm0 0"/><path d="m221.867188 460.800781c-1.570313 0-3.109376-.433593-4.449219-1.25l-42.667969-26.101562c-1.96875-1.203125-3.363281-3.152344-3.871094-5.402344-.507812-2.25-.082031-4.613281 1.179688-6.542969l47.359375-72.425781c4.453125-6.808594 13.097656-9.527344 20.644531-6.484375l36.230469 14.773438c2.292969.9375 4.070312 2.824218 4.863281 5.167968.792969 2.347656.527344 4.921875-.726562 7.058594l-51.203126 87c-1.160156 1.972656-3.066406 3.398438-5.289062 3.949219-.675781.171875-1.371094.257812-2.070312.257812zm-30.71875-37.324219 27.765624 16.980469 41.792969-71.015625-27.105469-11.050781zm0 0"/><path d="m179.203125 512c-4.714844 0-8.535156-3.820312-8.535156-8.53125v-77.300781c0-4.714844 3.820312-8.535157 8.535156-8.535157 4.710937 0 8.53125 3.820313 8.53125 8.535157v77.300781c0 4.710938-3.820313 8.53125-8.53125 8.53125zm0 0"/><path d="m93.867188 477.867188h-42.664063c-4.714844 0-8.535156-3.820313-8.535156-8.535157 0-4.710937 3.820312-8.53125 8.535156-8.53125h42.664063c4.714843 0 8.535156 3.820313 8.535156 8.53125 0 4.714844-3.820313 8.535157-8.535156 8.535157zm0 0"/><path d="m401.066406 512c-61.265625 0-110.933594-49.664062-110.933594-110.933594 0-61.265625 49.667969-110.933594 110.933594-110.933594 61.269532 0 110.933594 49.667969 110.933594 110.933594-.070312 61.238282-49.695312 110.863282-110.933594 110.933594zm0-204.800781c-51.839844 0-93.863281 42.027343-93.863281 93.867187 0 51.84375 42.023437 93.867188 93.863281 93.867188 51.84375 0 93.867188-42.023438 93.867188-93.867188-.058594-51.816406-42.050782-93.808594-93.867188-93.867187zm0 0"/><path d="m401.066406 477.867188c-31.0625 0-59.066406-18.710938-70.953125-47.410157s-5.316406-61.730469 16.648438-83.695312c21.964843-21.964844 55-28.535157 83.695312-16.648438 28.699219 11.886719 47.410157 39.890625 47.410157 70.953125-.046876 42.398438-34.402344 76.753906-76.800782 76.800782zm0-136.535157c-32.988281 0-59.730468 26.746094-59.730468 59.734375 0 32.992188 26.742187 59.734375 59.730468 59.734375 32.992188 0 59.734375-26.742187 59.734375-59.734375-.039062-32.972656-26.757812-59.691406-59.734375-59.734375zm0 0"/><path d="m401.066406 392.535156c-55.054687 0-65.933594-18.476562-67.546875-22.1875-1.808593-4.300781.171875-9.253906 4.445313-11.121094 4.269531-1.871093 9.253906.035157 11.1875 4.277344v-.007812c.089844.003906 8.789062 11.972656 51.914062 11.972656 43.84375 0 52.101563-12.367188 52.183594-12.492188.90625-2.039062 2.59375-3.625 4.683594-4.402343 2.089844-.773438 4.402344-.675781 6.417968.277343 4.3125 2.03125 6.210938 7.144532 4.265626 11.5-1.617188 3.707032-12.492188 22.183594-67.550782 22.183594zm0 0"/><path d="m341.375 444.050781c-1.234375-.003906-2.460938-.265625-3.589844-.769531-4.316406-2.03125-6.210937-7.144531-4.265625-11.5 1.613281-3.707031 12.492188-22.179688 67.546875-22.179688 55.058594 0 65.933594 18.472657 67.550782 22.1875 1.832031 4.21875-.011719 9.128907-4.167969 11.101563s-9.125.296875-11.238281-3.785156c-.636719-.898438-9.777344-12.4375-52.144532-12.4375-43.839844 0-52.097656 12.367187-52.179687 12.492187-1.292969 2.992188-4.25 4.921875-7.511719 4.890625zm0 0"/><path d="m401.066406 477.867188c-4.710937 0-8.53125-3.820313-8.53125-8.535157v-51.199219c0-4.710937 3.820313-8.53125 8.53125-8.53125 4.714844 0 8.535156 3.820313 8.535156 8.53125v51.199219c0 4.714844-3.820312 8.535157-8.535156 8.535157zm0 0"/></svg>