<svg height="512pt" viewBox="0 0 512.00153 512" width="512pt" xmlns="http://www.w3.org/2000/svg"><path d="m349.867188 435.199219v51.203125c-.027344 9.414062-7.652344 17.039062-17.066407 17.066406h-307.199219c-9.414062-.027344-17.039062-7.652344-17.066406-17.066406v-51.203125c-.011718-46.699219 31.582032-87.488281 76.800782-99.15625v47.957031h34.132812v-51.199219h119.464844v51.199219h34.132812v-47.957031c45.222656 11.667969 76.8125 52.457031 76.800782 99.15625zm0 0" fill="#283593"/><path d="m326.230469 435.199219v51.203125c-.027344 9.414062-7.652344 17.039062-17.066407 17.066406h-283.5625c-9.414062-.027344-17.039062-7.652344-17.066406-17.066406v-51.203125c-.011718-46.699219 31.582032-87.488281 76.800782-99.15625l-.171876-2.21875 10.667969-1.023438h119.464844l23.636719 2.21875 10.496094 1.023438c45.285156 11.570312 76.925781 52.417969 76.800781 99.15625zm0 0" fill="#3f51b5"/><path d="m119.46875 332.800781v51.199219h-34.132812v-47.957031c8.359374-2.167969 16.960937-3.257813 25.597656-3.242188zm0 0" fill="#607d8b"/><path d="m76.800781 384h51.199219c4.714844 0 8.535156 3.820312 8.535156 8.535156v25.597656h-59.734375c-4.710937 0-8.53125-3.820312-8.53125-8.53125v-17.066406c0-4.714844 3.820313-8.535156 8.53125-8.535156zm0 0" fill="#f5f5f5"/><path d="m273.066406 336.042969v47.957031h-34.132812v-51.199219h8.535156c8.636719-.015625 17.238281 1.074219 25.597656 3.242188zm0 0" fill="#607d8b"/><path d="m230.402344 384h51.199218c4.710938 0 8.535157 3.820312 8.535157 8.535156v17.066406c0 4.710938-3.824219 8.53125-8.535157 8.53125h-59.734374v-25.597656c0-4.714844 3.820312-8.535156 8.535156-8.535156zm0 0" fill="#f5f5f5"/><path d="m76.800781 418.132812h204.800781v85.335938h-204.800781zm0 0" fill="#607d8b"/><path d="m128 452.265625h102.402344c4.710937 0 8.53125 3.824219 8.53125 8.535156v42.667969h-119.464844v-42.667969c0-4.710937 3.820312-8.535156 8.53125-8.535156zm0 0" fill="#7f8e94"/><path d="m204.800781 281.601562v51.199219c-4.996093 9.746094-14.683593 16.203125-25.597656 17.066407-10.917969-.863282-20.605469-7.320313-25.601563-17.066407v-51.199219zm0 0" fill="#ffe0b2"/><path d="m329.984375 122.625v.085938l-26.453125 78.421874v.082032c-13.824219 51.117187-64.253906 88.917968-124.328125 88.917968-3.925781 0-7.851563-.167968-11.777344-.511718-54.785156-4.523438-99.667969-40.617188-112.554687-88.40625v-.082032l-26.453125-78.507812c12.886719-61.527344 69.460937-108.800781 139.007812-113.578125 3.839844-.34375 7.765625-.511719 11.777344-.511719 74.835937 0 137.214844 49.152344 150.78125 114.089844zm0 0" fill="#37474f"/><path d="m306.347656 122.625v.085938l-26.453125 78.421874v.082032c-12.886719 47.703125-57.683593 83.800781-112.46875 88.40625-54.785156-4.523438-99.667969-40.617188-112.554687-88.40625v-.082032l-26.453125-78.507812c12.886719-61.527344 69.460937-108.800781 139.007812-113.578125 69.460938 4.777344 126.035157 52.136719 138.921875 113.578125zm0 0" fill="#607d8b"/><path d="m310.785156 187.734375h4.949219c9.058594.011719 17.746094-3.582031 24.148437-9.984375 6.40625-6.402344 9.996094-15.09375 9.984376-24.148438.039062-13.316406-7.746094-25.410156-19.882813-30.890624v-.085938c-4.457031-2.097656-9.324219-3.175781-14.25-3.15625h-273.066406c-4.925781-.019531-9.792969 1.058594-14.25 3.15625-3.660157 1.703125-7.007813 4.011719-9.898438 6.828125-9.753906 9.765625-12.667969 24.449219-7.382812 37.203125 5.285156 12.753906 17.726562 21.070312 31.53125 21.078125h4.949219l131.585937-17.066406zm0 0" fill="#607d8b"/><path d="m315.734375 136.535156v25.769532c.011719 33.960937-25.011719 62.734374-58.644531 67.441406-33.632813 4.707031-65.589844-16.09375-74.902344-48.753906-.398438-1.316407-1.609375-2.21875-2.984375-2.21875-1.378906 0-2.589844.902343-2.988281 2.21875-8.359375 29.21875-35.058594 49.375-65.449219 49.410156-3.429687.003906-6.851563-.253906-10.242187-.769532-26.109376-9.214843-32.511719-13.738281-37.886719-19.199218-12.816407-12.734375-20.007813-30.0625-19.96875-48.128906v-25.769532c-.007813-6.792968 2.683593-13.308594 7.488281-18.113281 4.804688-4.800781 11.320312-7.496094 18.113281-7.488281h221.867188c6.789062-.007813 13.308593 2.6875 18.109375 7.488281 4.804687 4.804687 7.496094 11.320313 7.488281 18.113281zm0 0" fill="#02a9f4"/><path d="m503.46875 401.066406v93.867188c-.015625 4.707031-3.828125 8.519531-8.535156 8.535156h-102.398438c-4.707031-.015625-8.519531-3.828125-8.535156-8.535156v-221.867188c.027344-9.414062 7.652344-17.039062 17.066406-17.066406h34.136719c9.414063.027344 17.039063 7.652344 17.066406 17.066406v102.402344c.027344 9.414062 7.652344 17.039062 17.066407 17.066406h25.597656c3.878906-.007812 7.261718 2.636719 8.191406 6.398438.246094.683594.363281 1.40625.34375 2.132812zm0 0" fill="#283593"/><path d="m479.832031 401.066406v93.867188c-.015625 4.707031-3.828125 8.519531-8.535156 8.535156h-78.761719c-4.707031-.015625-8.519531-3.828125-8.535156-8.535156v-221.867188c.027344-9.414062 7.652344-17.039062 17.066406-17.066406h10.496094c9.417969.027344 17.042969 7.652344 17.070312 17.066406v102.402344c.027344 9.414062 7.652344 17.039062 17.066407 17.066406h25.597656c3.878906-.007812 7.261719 2.632813 8.191406 6.398438.246094.683594.363281 1.40625.34375 2.132812zm0 0" fill="#3f51b5"/><path d="m315.734375 136.535156v25.769532c.011719 33.960937-25.011719 62.734374-58.644531 67.441406-33.632813 4.707031-65.589844-16.09375-74.902344-48.753906-.398438-1.316407-1.609375-2.21875-2.984375-2.21875-1.378906 0-2.589844.902343-2.988281 2.21875-8.359375 29.21875-35.058594 49.375-65.449219 49.410156-3.429687.003906-6.851563-.253906-10.242187-.769532 11.777343-28.585937 39.253906-84.820312 84.566406-118.699218h105.046875c6.789062-.007813 13.308593 2.6875 18.109375 7.488281 4.804687 4.804687 7.496094 11.320313 7.488281 18.113281zm0 0" fill="#0377bc"/><path d="m401.066406 256v-162.132812c0-4.710938 3.824219-8.53125 8.535156-8.53125h17.066407c4.714843 0 8.535156 3.820312 8.535156 8.53125v162.132812zm0 0" fill="#607d8b"/><path d="m179.203125 298.667969c-62.890625 0-117.410156-39.160157-132.570313-95.226563-.195312-.722656-.296874-1.472656-.296874-2.226562-.039063-4.40625 3.285156-8.121094 7.671874-8.570313 4.386719-.445312 8.390626 2.527344 9.238282 6.855469 13.347656 48.367188 60.945312 82.101562 115.957031 82.101562 55.125 0 102.808594-33.882812 116.039063-82.417968 1.023437-4.179688 4.996093-6.945313 9.273437-6.453125 4.273437.496093 7.511719 4.097656 7.550781 8.402343 0 .777344-.101562 1.554688-.300781 2.308594-15.15625 56.066406-69.671875 95.226563-132.5625 95.226563zm0 0"/><path d="m329.984375 131.199219c-4.230469.015625-7.832031-3.085938-8.445313-7.273438-13.179687-61.949219-72.960937-106.859375-142.335937-106.859375-69.542969 0-129.441406 45.125-142.433594 107.300782-.546875 3.0625-2.710937 5.585937-5.65625 6.585937-2.941406 1-6.199219.320313-8.496093-1.773437-2.296876-2.09375-3.273438-5.273438-2.546876-8.296876 14.632813-70.050781 81.554688-120.882812 159.132813-120.882812 77.574219 0 144.5 50.832031 159.132813 120.882812.121093.574219.183593 1.15625.183593 1.742188.003907 4.722656-3.8125 8.558594-8.535156 8.574219zm0 0"/><path d="m153.601562 366.933594c-4.710937 0-8.535156-3.820313-8.535156-8.53125v-70.566406c0-4.714844 3.824219-8.535157 8.535156-8.535157 4.710938 0 8.535157 3.820313 8.535157 8.535157v70.566406c0 4.710937-3.824219 8.53125-8.535157 8.53125zm0 0"/><path d="m204.800781 366.933594c-4.710937 0-8.53125-3.820313-8.53125-8.53125v-70.566406c0-4.714844 3.820313-8.535157 8.53125-8.535157 4.714844 0 8.535157 3.820313 8.535157 8.535157v70.566406c0 4.710937-3.820313 8.53125-8.535157 8.53125zm0 0"/><path d="m332.800781 512h-307.199219c-14.132812-.015625-25.585937-11.46875-25.601562-25.597656v-51.203125c.0703125-61.234375 49.699219-110.859375 110.933594-110.933594h42.667968c4.710938 0 8.535157 3.824219 8.535157 8.535156 0 4.710938-3.824219 8.535157-8.535157 8.535157h-42.667968c-51.816406.058593-93.804688 42.046874-93.867188 93.863281v51.203125c.003906 4.710937 3.824219 8.527344 8.535156 8.53125h307.199219c4.710938-.003906 8.53125-3.820313 8.535157-8.53125v-51.203125c-.058594-51.816407-42.050782-93.804688-93.867188-93.863281h-42.667969c-4.710937 0-8.53125-3.824219-8.53125-8.535157 0-4.710937 3.820313-8.535156 8.53125-8.535156h42.667969c61.238281.074219 110.863281 49.699219 110.933594 110.933594v51.203125c-.015625 14.128906-11.46875 25.582031-25.601563 25.597656zm0 0"/><path d="m247.640625 238.933594c-28.925781-.097656-55.355469-16.386719-68.4375-42.183594-15.957031 31.714844-51.609375 48.3125-86.148437 40.113281-34.539063-8.203125-58.921876-39.058593-58.917969-74.558593v-25.769532c.015625-18.84375 15.289062-34.117187 34.132812-34.132812h221.867188c18.84375.015625 34.113281 15.289062 34.132812 34.132812v25.769532c-.046875 42.300781-34.328125 76.582031-76.628906 76.628906zm-68.4375-68.691406h.015625c5.195312-.027344 9.761719 3.433593 11.140625 8.441406 8.171875 28.554687 36.128906 46.726562 65.542969 42.605468 29.410156-4.125 51.292968-29.285156 51.300781-58.984374v-25.769532c-.015625-9.421875-7.648437-17.054687-17.066406-17.066406h-221.867188c-9.421875.011719-17.054687 7.644531-17.066406 17.066406v25.769532c-.003906 29.703124 21.882813 54.867187 51.296875 58.988281 29.417969 4.121093 57.375-14.058594 65.535156-42.621094 1.394532-5.007813 5.96875-8.460937 11.167969-8.429687zm5.257813 13.089843-.007813.023438zm0 0"/><path d="m47.617188 196.265625h-4.949219c-17.246094-.003906-32.792969-10.390625-39.40625-26.316406-6.609375-15.929688-2.988281-34.269531 9.179687-46.488281 3.613282-3.535157 7.796875-6.433594 12.375-8.566407 5.582032-2.632812 11.679688-3.984375 17.851563-3.960937h6.570312c4.714844 0 8.535157 3.820312 8.535157 8.535156 0 4.710938-3.820313 8.53125-8.535157 8.53125h-6.570312c-3.664063-.011719-7.289063.785156-10.609375 2.34375-2.808594 1.304688-5.375 3.074219-7.597656 5.230469-7.261719 7.351562-9.394532 18.339843-5.414063 27.875 3.976563 9.53125 13.292969 15.742187 23.621094 15.75h4.949219c4.714843 0 8.535156 3.820312 8.535156 8.535156 0 4.710937-3.820313 8.53125-8.535156 8.53125zm0 0"/><path d="m315.734375 196.265625h-4.949219c-4.710937 0-8.53125-3.820313-8.53125-8.53125 0-4.714844 3.820313-8.535156 8.53125-8.535156h4.949219c6.792969.015625 13.3125-2.679688 18.117187-7.480469 4.804688-4.804688 7.496094-11.324219 7.484376-18.117188.023437-9.953124-5.789063-18.996093-14.847657-23.109374-.347656-.15625-.683593-.335938-1.011719-.53125-3.078124-1.308594-6.394531-1.976563-9.742187-1.960938h-6.570313c-4.710937 0-8.53125-3.820312-8.53125-8.53125 0-4.714844 3.820313-8.535156 8.53125-8.535156h6.570313c6.1875-.019532 12.296875 1.335937 17.890625 3.976562.335938.160156.664062.339844.976562.539063 17.777344 8.753906 27.175782 28.605469 22.671876 47.90625-4.503907 19.296875-21.722657 32.9375-41.539063 32.910156zm0 0"/><path d="m119.46875 392.535156h-34.132812c-4.714844 0-8.535157-3.820312-8.535157-8.535156v-47.957031c0-4.710938 3.820313-8.53125 8.535157-8.53125 4.710937 0 8.53125 3.820312 8.53125 8.53125v39.425781h17.066406v-34.132812c-4.710938 0-8.53125-3.824219-8.53125-8.535157 0-4.710937 3.820312-8.535156 8.53125-8.535156h8.535156c4.710938 0 8.53125 3.824219 8.53125 8.535156v51.199219c0 4.714844-3.820312 8.535156-8.53125 8.535156zm0 0"/><path d="m136.535156 426.667969h-59.734375c-9.417969-.011719-17.054687-7.648438-17.066406-17.066407v-17.066406c.011719-9.421875 7.648437-17.054687 17.066406-17.066406h51.199219c9.421875.011719 17.054688 7.644531 17.066406 17.066406v25.597656c0 4.714844-3.820312 8.535157-8.53125 8.535157zm-59.734375-34.132813v17.066406h51.199219v-17.066406zm0 0"/><path d="m273.066406 392.535156h-34.132812c-4.710938 0-8.53125-3.820312-8.53125-8.535156v-51.199219c0-4.710937 3.820312-8.535156 8.53125-8.535156h8.535156c4.710938 0 8.53125 3.824219 8.53125 8.535156 0 4.710938-3.820312 8.535157-8.53125 8.535157v34.132812h17.066406v-39.425781c0-4.710938 3.820313-8.53125 8.53125-8.53125 4.714844 0 8.535156 3.820312 8.535156 8.53125v47.957031c0 4.714844-3.820312 8.535156-8.535156 8.535156zm0 0"/><path d="m281.601562 426.667969h-59.734374c-4.710938 0-8.53125-3.820313-8.53125-8.535157v-25.597656c.011718-9.421875 7.644531-17.054687 17.066406-17.066406h51.199218c9.421876.011719 17.054688 7.644531 17.066407 17.066406v17.066406c-.011719 9.417969-7.644531 17.054688-17.066407 17.066407zm-51.199218-17.066407h51.214844l-.015626-17.066406h-51.199218zm0 0"/><path d="m281.601562 512h-204.800781c-4.710937 0-8.53125-3.820312-8.53125-8.53125v-85.335938c0-4.710937 3.820313-8.53125 8.53125-8.53125h204.800781c4.710938 0 8.535157 3.820313 8.535157 8.53125v85.335938c0 4.710938-3.824219 8.53125-8.535157 8.53125zm-196.265624-17.066406h187.730468v-68.265625h-187.730468zm0 0"/><path d="m238.933594 512h-119.464844c-4.714844 0-8.535156-3.820312-8.535156-8.53125v-42.667969c.015625-9.421875 7.648437-17.054687 17.066406-17.066406h102.402344c9.417968.011719 17.054687 7.644531 17.066406 17.066406v42.667969c0 4.710938-3.820312 8.53125-8.535156 8.53125zm-110.933594-17.066406h102.402344v-34.132813h-102.402344zm0 0"/><path d="m179.203125 349.867188c-14.15625-.863282-26.796875-9.148438-33.234375-21.78125-2.035156-4.195313-.324219-9.246094 3.839844-11.34375 4.164062-2.097657 9.242187-.464844 11.402344 3.667968 3.5625 6.867188 10.304687 11.511719 17.992187 12.390625 7.683594-.886719 14.425781-5.53125 17.988281-12.398437 2.121094-4.210938 7.253906-5.902344 11.460938-3.78125 4.210937 2.121094 5.902344 7.25 3.78125 11.460937-6.4375 12.632813-19.078125 20.921875-33.230469 21.785157zm0 0"/><path d="m435.203125 264.535156h-34.136719c-4.710937 0-8.53125-3.820312-8.53125-8.535156v-162.132812c.011719-9.421876 7.644532-17.054688 17.066406-17.066407h17.066407c9.421875.011719 17.054687 7.644531 17.066406 17.066407v162.132812c0 4.714844-3.820313 8.535156-8.53125 8.535156zm-25.601563-17.066406h17.066407v-153.617188l-17.066407.015626zm0 0"/><path d="m494.933594 512h-102.398438c-9.421875-.011719-17.054687-7.644531-17.066406-17.066406v-221.867188c.015625-14.132812 11.46875-25.582031 25.597656-25.597656h34.136719c14.128906.015625 25.582031 11.464844 25.597656 25.597656v102.402344c.003907 4.710938 3.824219 8.527344 8.535157 8.53125h25.597656c9.421875.011719 17.054687 7.648438 17.066406 17.066406v93.867188c-.011719 9.421875-7.644531 17.054687-17.066406 17.066406zm-93.867188-247.464844c-4.710937 0-8.527344 3.820313-8.53125 8.53125v221.867188h102.398438v-93.839844l-25.597656-.027344c-14.132813-.015625-25.585938-11.46875-25.601563-25.597656v-102.402344c-.003906-4.710937-3.820313-8.53125-8.53125-8.53125zm0 0"/><path d="m494.933594 401.066406c-4.710938 0-8.53125-3.820312-8.53125-8.53125v-17.066406c-.011719-9.421875-7.648438-17.054688-17.066406-17.066406h-17.066407c-4.714843 0-8.535156-3.820313-8.535156-8.535156 0-4.710938 3.820313-8.53125 8.535156-8.53125h17.066407c18.84375.015624 34.113281 15.289062 34.132812 34.132812v17.066406c0 4.710938-3.820312 8.53125-8.535156 8.53125zm0 0"/><path d="m401.066406 230.402344h-8.53125c-4.714844 0-8.535156-3.820313-8.535156-8.535156 0-4.710938 3.820312-8.53125 8.535156-8.53125h8.53125c4.714844 0 8.535156 3.820312 8.535156 8.53125 0 4.714843-3.820312 8.535156-8.535156 8.535156zm0 0"/><path d="m443.734375 230.402344h-8.53125c-4.714844 0-8.535156-3.820313-8.535156-8.535156 0-4.710938 3.820312-8.53125 8.535156-8.53125h8.53125c4.714844 0 8.535156 3.820312 8.535156 8.53125 0 4.714843-3.820312 8.535156-8.535156 8.535156zm0 0"/><path d="m401.066406 196.265625h-8.53125c-4.714844 0-8.535156-3.820313-8.535156-8.53125 0-4.714844 3.820312-8.535156 8.535156-8.535156h8.53125c4.714844 0 8.535156 3.820312 8.535156 8.535156 0 4.710937-3.820312 8.53125-8.535156 8.53125zm0 0"/><path d="m443.734375 196.265625h-8.53125c-4.714844 0-8.535156-3.820313-8.535156-8.53125 0-4.714844 3.820312-8.535156 8.535156-8.535156h8.53125c4.714844 0 8.535156 3.820312 8.535156 8.535156 0 4.710937-3.820312 8.53125-8.535156 8.53125zm0 0"/><path d="m401.066406 162.132812h-8.53125c-4.714844 0-8.535156-3.820312-8.535156-8.53125 0-4.714843 3.820312-8.535156 8.535156-8.535156h8.53125c4.714844 0 8.535156 3.820313 8.535156 8.535156 0 4.710938-3.820312 8.53125-8.535156 8.53125zm0 0"/><path d="m443.734375 162.132812h-8.53125c-4.714844 0-8.535156-3.820312-8.535156-8.53125 0-4.714843 3.820312-8.535156 8.535156-8.535156h8.53125c4.714844 0 8.535156 3.820313 8.535156 8.535156 0 4.710938-3.820312 8.53125-8.535156 8.53125zm0 0"/><path d="m119.46875 153.601562h-42.667969c-4.710937 0-8.53125-3.820312-8.53125-8.535156 0-4.710937 3.820313-8.53125 8.53125-8.53125h42.667969c4.710938 0 8.53125 3.820313 8.53125 8.53125 0 4.714844-3.820312 8.535156-8.53125 8.535156zm0 0"/><path d="m162.136719 153.601562h-8.535157c-4.710937 0-8.535156-3.820312-8.535156-8.535156 0-4.710937 3.824219-8.53125 8.535156-8.53125h8.535157c4.710937 0 8.53125 3.820313 8.53125 8.53125 0 4.714844-3.820313 8.535156-8.53125 8.535156zm0 0"/><path d="m418.136719 512c-4.714844 0-8.535157-3.820312-8.535157-8.53125v-85.335938c0-4.710937 3.820313-8.53125 8.535157-8.53125 4.710937 0 8.53125 3.820313 8.53125 8.53125v85.335938c0 4.710938-3.820313 8.53125-8.53125 8.53125zm0 0"/><path d="m418.136719 392.535156c-4.714844 0-8.535157-3.820312-8.535157-8.535156v-8.53125c0-4.714844 3.820313-8.535156 8.535157-8.535156 4.710937 0 8.53125 3.820312 8.53125 8.535156v8.53125c0 4.714844-3.820313 8.535156-8.53125 8.535156zm0 0"/></svg>