<svg height="512pt" viewBox="0 0 512 512.00053" width="512pt" xmlns="http://www.w3.org/2000/svg"><path d="m349.867188 434.347656-9.472657 67.328125c-2.347656 1.199219-4.957031 1.816407-7.59375 1.789063h-307.199219c-9.414062-.027344-17.039062-7.652344-17.066406-17.066406v-51.199219c-.015625-46.699219 31.578125-87.488281 76.796875-99.15625v22.355469c-.003906 18.109374 7.1875 35.476562 19.992188 48.277343 12.800781 12.804688 30.167969 19.996094 48.277343 19.992188h51.199219c18.105469.003906 35.472657-7.1875 48.277344-19.992188 12.800781-12.800781 19.992187-30.167969 19.988281-48.277343v-22.441407c44.929688 11.617188 76.4375 51.984375 76.800782 98.390625zm0 0" fill="#9d27b0"/><path d="m349.867188 434.347656-9.472657 67.328125c-2.347656 1.199219-4.957031 1.816407-7.59375 1.789063h-23.636719c2.636719.027344 5.242188-.589844 7.59375-1.789063l9.472657-67.328125c-.253907-37.117187-20.601563-71.183594-53.164063-89.003906v-9.386719c44.929688 11.617188 76.4375 51.984375 76.800782 98.390625zm0 0" fill="#6a1b9a"/><path d="m273.066406 335.957031v22.441407c.003906 18.109374-7.1875 35.476562-19.988281 48.277343-12.804687 12.804688-30.171875 19.996094-48.277344 19.992188h-51.199219c-18.109374.003906-35.476562-7.1875-48.277343-19.992188-12.804688-12.800781-19.996094-30.167969-19.992188-48.277343v-22.355469c8.363281-2.167969 16.964844-3.257813 25.601563-3.242188h136.535156c8.628906.003907 17.226562 1.0625 25.597656 3.15625zm0 0" fill="#673ab7"/><path d="m119.46875 332.800781v25.597657c0 18.851562 15.28125 34.136718 34.132812 34.136718h51.199219c18.851563 0 34.132813-15.285156 34.132813-34.136718v-25.597657zm0 0" fill="#ffe0b2"/><path d="m153.601562 287.828125h51.199219v70.570313h-51.199219zm0 0" fill="#ffe0b2"/><path d="m478.464844 418.132812-30.125 30.207032-30.207032 30.125c-15.980468 16.035156-37.6875 25.050781-60.328124 25.050781-22.640626 0-44.351563-9.015625-60.332032-25.050781l-6.058594-6.058594c-3.195312-3.1875-4.992187-7.519531-4.992187-12.03125 0-4.515625 1.796875-8.84375 4.992187-12.035156l24.148438-24.148438c.085938-.085937.171875-.171875.257812-.171875 6.671876-6.480469 17.3125-6.402343 23.890626.171875l12.035156 12.03125c1.820312 1.832032 3.921875 3.359375 6.226562 4.523438 9.894532 5.238281 22.046875 3.402344 29.953125-4.523438l48.296875-48.296875c9.984375-9.996093 9.984375-26.1875 0-36.183593l-12.03125-12.03125c-6.65625-6.671876-6.65625-17.472657 0-24.148438l24.148438-24.148438c.085937-.085937.171875-.171874.257812-.171874 6.640625-6.480469 17.261719-6.402344 23.808594.171874l6.058594 6.058594c16.019531 15.988282 25.023437 37.695313 25.023437 60.328125 0 22.636719-9.003906 44.34375-25.023437 60.332031zm0 0" fill="#549414"/><path d="m454.828125 418.132812-60.332031 60.332032c-13.097656 13.121094-30.113282 21.628906-48.46875 24.234375-18.394532-2.566407-35.445313-11.078125-48.554688-24.234375l-6.058594-6.058594c-3.195312-3.1875-4.992187-7.519531-4.992187-12.03125 0-4.515625 1.796875-8.84375 4.992187-12.035156l24.148438-24.148438c.085938-.085937.171875-.171875.257812-.171875l.167969.171875 12.117188 12.03125c7.871093 7.925782 20.003906 9.761719 29.867187 4.523438 9.894532 5.238281 22.046875 3.402344 29.953125-4.523438l48.296875-48.296875c9.984375-9.996093 9.984375-26.1875 0-36.183593l-12.03125-12.03125c-6.65625-6.671876-6.65625-17.472657 0-24.148438l24.148438-24.148438c.085937-.085937.171875-.171874.257812-.171874l6.230469 6.230468c33.277344 33.335938 33.277344 87.324219 0 120.660156zm0 0" fill="#60a917"/><path d="m324.265625 136.535156v38.398438h-290.132813v-38.398438c.027344-70.683594 57.320313-127.976562 128-128h34.132813c70.683594.023438 127.976563 57.316406 128 128zm0 0" fill="#6d4122"/><path d="m300.628906 136.535156v38.398438h-266.496094v-38.398438c.027344-70.683594 57.320313-127.976562 128-128h10.496094c70.683594.023438 127.976563 57.316406 128 128zm0 0" fill="#91562d"/><path d="m307.199219 173.140625c-.011719 4.050781-.238281 8.09375-.679688 12.117187-6.65625 58.964844-61.101562 104.875-127.320312 104.875-3.925781 0-7.851563-.171874-11.773438-.511718-60.757812-5.035156-109.3125-48.894532-115.542969-104.363282-.441406-4.023437-.671874-8.066406-.683593-12.117187.019531-6.785156.644531-13.550781 1.878906-20.222656.765625-3.753907 1.707031-7.511719 2.816406-11.179688 9.128907-20.90625 31.65625-63.0625 67.582031-70.996093 15.027344-2.960938 30.617188-.351563 43.863282 7.335937h.085937c4.066407 2.175781 8 4.597656 11.773438 7.253906 9.5625-7.046875 20.492187-12.015625 32.085937-14.589843 49.835938-10.242188 80.300782 45.824218 91.222656 70.996093 1.109376 3.667969 2.046876 7.425781 2.816407 11.179688 1.230469 6.671875 1.859375 13.4375 1.875 20.222656zm0 0" fill="#dfc49c"/><path d="m283.5625 173.140625c-.011719 4.050781-.238281 8.09375-.683594 12.117187-6.226562 55.382813-54.699218 99.328126-115.453125 104.363282-60.757812-5.035156-109.3125-48.894532-115.542969-104.363282-.441406-4.023437-.671874-8.066406-.683593-12.117187.019531-6.785156.644531-13.550781 1.878906-20.222656.765625-3.753907 1.707031-7.511719 2.816406-11.179688 9.128907-20.90625 31.65625-63.0625 67.582031-70.996093 11.597657 2.574218 22.523438 7.542968 32.085938 14.589843 3.773438-2.65625 7.707031-5.078125 11.777344-7.253906h.085937c4.066407 2.175781 8 4.597656 11.773438 7.253906 9.5625-7.046875 20.492187-12.015625 32.085937-14.589843 36.011719 7.933593 58.453125 50.089843 67.585938 70.996093 1.109375 3.667969 2.046875 7.425781 2.816406 11.179688 1.230469 6.671875 1.859375 13.4375 1.875 20.222656zm0 0" fill="#ffe0b2"/><path d="m34.132812 145.066406h8.535157c4.710937 0 8.53125 3.820313 8.53125 8.535156v34.132813c0 4.710937-3.820313 8.53125-8.53125 8.53125h-8.535157c-9.425781 0-17.066406-7.640625-17.066406-17.066406v-17.066407c0-9.425781 7.640625-17.066406 17.066406-17.066406zm0 0" fill="#3f51b5"/><path d="m324.265625 196.265625h-8.53125c-4.714844 0-8.535156-3.820313-8.535156-8.53125v-34.132813c0-4.714843 3.820312-8.535156 8.535156-8.535156h8.53125c9.425781 0 17.066406 7.640625 17.066406 17.066406v17.066407c0 9.425781-7.640625 17.066406-17.066406 17.066406zm0 0" fill="#3f51b5"/><path d="m179.199219 298.667969c-70.183594 0-128.5625-48.359375-135.796875-112.476563-1.304688-11.589844-.871094-23.304687 1.28125-34.765625.878906-4.359375 1.894531-8.417969 3.046875-12.175781.890625-2.914062 3.269531-5.136719 6.238281-5.824219 2.972656-.6875 6.082031.265625 8.164062 2.492188 2.078126 2.230469 2.8125 5.398437 1.921876 8.316406-1.027344 3.367187-1.898438 6.882813-2.609376 10.414063-1.832031 9.78125-2.195312 19.78125-1.078124 29.671874 6.253906 55.4375 57.34375 97.28125 118.832031 97.28125s112.582031-41.84375 118.839843-97.328124c1.117188-9.925782.746094-19.964844-1.109374-29.78125-.683594-3.375-1.550782-6.890626-2.578126-10.257813-1.378906-4.507813 1.160157-9.277344 5.667969-10.652344 4.507813-1.375 9.277344 1.164063 10.65625 5.671875 1.148438 3.765625 2.164063 7.816406 3.015625 12.015625 1.339844 7.207031 2.023438 14.523438 2.042969 21.855469-.007813 4.351562-.253906 8.699219-.734375 13.027344-7.238281 64.15625-65.617188 112.515625-135.800781 112.515625zm0 0"/><path d="m55.894531 150.316406c-2.261719.011719-4.429687-.878906-6.03125-2.472656-1.601562-1.59375-2.5-3.761719-2.503906-6.019531 0-1.195313.242187-2.382813.710937-3.484375 10.238282-23.539063 32.933594-64.582032 69.863282-74.996094 21.140625-5.984375 43.402344-.925781 66.160156 15 3.785156 2.726562 4.679688 7.988281 2.003906 11.8125-2.675781 3.824219-7.925781 4.789062-11.785156 2.167969-18.355469-12.847657-35.769531-17.066407-51.742188-12.558594-31.132812 8.785156-51.378906 48.277344-58.742187 65.132813-1.285156 3.261718-4.429687 5.410156-7.933594 5.417968zm0 0"/><path d="m302.507812 150.316406c-3.660156.007813-6.917968-2.316406-8.097656-5.78125-7.496094-17.070312-27.675781-56.050781-58.578125-64.769531-15.972656-4.507813-33.382812-.292969-51.742187 12.558594-2.496094 1.796875-5.765625 2.113281-8.5625.824219-2.792969-1.289063-4.675782-3.980469-4.929688-7.046876-.253906-3.066406 1.164063-6.03125 3.710938-7.761718 22.757812-15.917969 45.03125-20.972656 66.15625-15 36.933594 10.417968 59.628906 51.457031 69.867187 75 1.148438 2.640625.886719 5.683594-.6875 8.09375-1.574219 2.414062-4.257812 3.871094-7.136719 3.882812zm0 0"/><path d="m153.601562 366.933594c-4.714843 0-8.535156-3.820313-8.535156-8.535156v-70.566407c0-4.710937 3.820313-8.53125 8.535156-8.53125 4.710938 0 8.53125 3.820313 8.53125 8.53125v70.566407c0 4.714843-3.820312 8.535156-8.53125 8.535156zm0 0"/><path d="m204.800781 366.933594c-4.714843 0-8.535156-3.820313-8.535156-8.535156v-70.566407c0-4.710937 3.820313-8.53125 8.535156-8.53125 4.710938 0 8.53125 3.820313 8.53125 8.53125v70.566407c0 4.714843-3.820312 8.535156-8.53125 8.535156zm0 0"/><path d="m332.800781 512h-307.199219c-14.132812-.015625-25.585937-11.46875-25.601562-25.601562v-51.199219c.0703125-61.238281 49.695312-110.863281 110.933594-110.933594h42.667968c4.710938 0 8.53125 3.820313 8.53125 8.535156 0 4.710938-3.820312 8.53125-8.53125 8.53125h-42.667968c-51.816406.058594-93.808594 42.050781-93.867188 93.867188v51.199219c.003906 4.710937 3.824219 8.53125 8.535156 8.535156h307.199219c1.273438.019531 2.535157-.269532 3.675781-.839844 4.1875-2.167969 9.335938-.527344 11.503907 3.660156 2.164062 4.1875.523437 9.339844-3.664063 11.503906-3.5625 1.828126-7.511718 2.769532-11.515625 2.742188zm0 0"/><path d="m349.867188 442.878906c-4.6875 0-8.496094-3.777344-8.535157-8.464844-.550781-51.484374-42.378906-92.964843-93.863281-93.082031h-42.667969c-4.714843 0-8.535156-3.820312-8.535156-8.53125 0-4.714843 3.820313-8.535156 8.535156-8.535156h42.667969c60.847656.144531 110.285156 49.171875 110.929688 110.019531.035156 4.710938-3.753907 8.558594-8.464844 8.59375zm0 0"/><path d="m51.199219 204.800781h-17.066407c-14.132812-.015625-25.582031-11.46875-25.597656-25.601562v-17.066407c.015625-14.132812 11.464844-25.582031 25.597656-25.597656h17.066407c4.714843 0 8.535156 3.820313 8.535156 8.53125v51.199219c0 4.714844-3.820313 8.535156-8.535156 8.535156zm-17.066407-51.199219c-4.710937.003907-8.527343 3.820313-8.53125 8.53125v17.066407c.003907 4.710937 3.820313 8.53125 8.53125 8.535156h8.535157v-34.132813zm0 0"/><path d="m324.265625 204.800781h-17.066406c-4.710938 0-8.53125-3.820312-8.53125-8.535156v-51.199219c0-4.710937 3.820312-8.53125 8.53125-8.53125h17.066406c14.132813.015625 25.585937 11.464844 25.601563 25.597656v17.066407c-.015626 14.132812-11.46875 25.585937-25.601563 25.601562zm-8.53125-17.066406h8.53125c4.710937-.003906 8.53125-3.824219 8.535156-8.535156v-17.066407c-.003906-4.710937-3.824219-8.527343-8.535156-8.53125h-8.53125zm0 0"/><path d="m324.265625 153.601562c-4.710937 0-8.53125-3.820312-8.53125-8.535156v-8.53125c-.074219-65.949218-53.519531-119.394531-119.46875-119.46875h-34.132813c-65.949218.074219-119.390624 53.519532-119.464843 119.46875v8.53125c0 4.714844-3.820313 8.535156-8.535157 8.535156-4.710937 0-8.53125-3.820312-8.53125-8.535156v-8.53125c.085938-75.371094 61.164063-136.4492185 136.53125-136.535156h34.132813c75.371094.0859375 136.449219 61.164062 136.535156 136.535156v8.53125c0 4.714844-3.820312 8.535156-8.535156 8.535156zm0 0"/><path d="m170.667969 256h-22.3125c-3.25.003906-6.472657-.613281-9.492188-1.816406l-24.996093-10c-10.738282-4.285156-20.484376-10.71875-28.652344-18.902344l-40.046875-40.046875c-3.234375-3.347656-3.1875-8.671875.101562-11.964844 3.292969-3.289062 8.617188-3.335937 11.964844-.101562l40.054687 40.046875c6.53125 6.546875 14.328126 11.691406 22.917969 15.117187l24.980469 9.992188c1.007812.402343 2.082031.609375 3.167969.609375h22.3125c4.710937 0 8.53125 3.820312 8.53125 8.53125 0 4.714844-3.820313 8.535156-8.53125 8.535156zm0 0"/><path d="m204.800781 401.066406h-51.199219c-23.554687-.027344-42.640624-19.113281-42.667968-42.667968v-25.597657c0-4.714843 3.820312-8.535156 8.535156-8.535156 4.710938 0 8.53125 3.820313 8.53125 8.535156v25.597657c.015625 14.132812 11.46875 25.585937 25.601562 25.601562h51.199219c14.132813-.015625 25.582031-11.46875 25.597657-25.601562v-25.597657c0-4.714843 3.824218-8.535156 8.535156-8.535156 4.710937 0 8.535156 3.820313 8.535156 8.535156v25.597657c-.03125 23.554687-19.117188 42.640624-42.667969 42.667968zm0 0"/><path d="m204.800781 435.199219h-51.199219c-42.398437-.046875-76.753906-34.402344-76.800781-76.800781v-22.355469c0-4.714844 3.820313-8.535157 8.53125-8.535157 4.714844 0 8.535157 3.820313 8.535157 8.535157v22.355469c.039062 32.976562 26.757812 59.695312 59.734374 59.734374h51.199219c32.972657-.039062 59.695313-26.757812 59.734375-59.734374v-22.355469c0-4.714844 3.820313-8.535157 8.53125-8.535157 4.714844 0 8.535156 3.820313 8.535156 8.535157v22.355469c-.046874 42.398437-34.40625 76.753906-76.800781 76.800781zm0 0"/><path d="m102.398438 477.867188h-42.664063c-4.714844 0-8.535156-3.820313-8.535156-8.535157 0-4.710937 3.820312-8.53125 8.535156-8.53125h42.664063c4.714843 0 8.535156 3.820313 8.535156 8.53125 0 4.714844-3.820313 8.535157-8.535156 8.535157zm0 0"/><path d="m357.792969 512c-24.910157.070312-48.808594-9.828125-66.371094-27.492188l-6.035156-6.03125c-9.984375-10.007812-9.984375-26.203124 0-36.210937l24.132812-24.132813c10.003907-9.988281 26.203125-9.988281 36.207031 0l12.066407 12.066407c6.753906 6.449219 17.382812 6.449219 24.136719 0l48.269531-48.265625c6.65625-6.671875 6.65625-17.46875 0-24.140625l-12.066407-12.070313c-9.992187-9.996094-9.992187-26.199218 0-36.199218l24.136719-24.140626c10.003907-9.984374 26.199219-9.984374 36.203125 0l6.035156 6.035157c36.597657 36.683593 36.597657 96.066406 0 132.75l-60.339843 60.339843c-17.566407 17.664063-41.46875 27.5625-66.375 27.492188zm-30.167969-84.300781c-2.265625-.003907-4.4375.898437-6.039062 2.5l-24.132813 24.132812c-3.328125 3.339844-3.328125 8.738281 0 12.074219l6.035156 6.035156c29.992188 29.988282 78.617188 29.988282 108.613281 0l60.339844-60.339844c29.941406-30.015624 29.941406-78.601562 0-108.617187l-6.039062-6.035156c-3.335938-3.316407-8.726563-3.316407-12.0625 0l-24.140625 24.140625c-3.328125 3.335937-3.328125 8.738281.003906 12.070312l12.0625 12.0625c13.3125 13.339844 13.3125 34.9375 0 48.277344l-24.132813 24.132812-24.136718 24.132813c-13.503906 12.902344-34.765625 12.902344-48.269532 0l-12.066406-12.066406c-1.597656-1.601563-3.769531-2.503907-6.035156-2.5zm0 0"/></svg>