<svg height="512pt" viewBox="0 0 512 512.00053" width="512pt" xmlns="http://www.w3.org/2000/svg"><path d="m317.441406 360.449219h-276.480468c-25.429688-19.796875-30.550782-57.003907-15.359376-87.382813 17.066407-34.132812 8.53125-85.332031 8.53125-85.332031l17.066407-17.066406h256l17.066406 17.066406s-8.53125 51.199219 8.535156 85.332031c15.1875 30.378906 10.070313 67.585938-15.359375 87.382813zm0 0" fill="#783e22"/><path d="m293.804688 360.449219h-252.84375c-25.429688-19.796875-30.550782-57.003907-15.359376-87.382813 17.066407-34.132812 8.53125-85.332031 8.53125-85.332031l17.066407-17.066406h232.363281l17.066406 17.066406s-8.53125 51.199219 8.535156 85.332031c15.1875 30.378906 10.066407 67.585938-15.359374 87.382813zm0 0" fill="#a0522d"/><path d="m273.066406 335.957031c-8.371094-2.09375-16.96875-3.152343-25.597656-3.15625h-136.535156c-8.636719-.015625-17.238282 1.074219-25.601563 3.242188-45.21875 11.667969-76.8125 52.457031-76.796875 99.15625v51.199219c.027344 9.414062 7.652344 17.039062 17.066406 17.066406h307.199219c2.636719.027344 5.246094-.589844 7.59375-1.789063l9.472657-67.328125c-.363282-46.40625-31.871094-86.773437-76.800782-98.390625zm0 0" fill="#955ba5"/><path d="m273.066406 335.957031v22.441407c.003906 18.109374-7.1875 35.476562-19.988281 48.277343-12.804687 12.804688-30.171875 19.996094-48.277344 19.992188h-51.199219c-18.109374.003906-35.476562-7.1875-48.277343-19.992188-12.804688-12.800781-19.996094-30.167969-19.992188-48.277343v-22.355469c8.363281-2.167969 16.964844-3.257813 25.601563-3.242188h136.535156c8.628906.003907 17.226562 1.0625 25.597656 3.15625zm0 0" fill="#673ab7"/><path d="m349.867188 434.347656-9.472657 67.328125c-2.347656 1.199219-4.957031 1.816407-7.59375 1.789063h-307.199219c-9.414062-.027344-17.039062-7.652344-17.066406-17.066406v-51.199219c-.015625-46.699219 31.578125-87.488281 76.796875-99.15625v22.355469c-.003906 18.109374 7.1875 35.476562 19.992188 48.277343 12.800781 12.804688 30.167969 19.996094 48.277343 19.992188h51.199219c18.105469.003906 35.472657-7.1875 48.277344-19.992188 12.800781-12.800781 19.992187-30.167969 19.988281-48.277343v-22.441407c44.929688 11.617188 76.4375 51.984375 76.800782 98.390625zm0 0" fill="#9d27b0"/><path d="m349.867188 434.347656-9.472657 67.328125c-2.347656 1.199219-4.957031 1.816407-7.59375 1.789063h-23.636719c2.636719.027344 5.242188-.589844 7.59375-1.789063l9.472657-67.328125c-.253907-37.117187-20.601563-71.183594-53.164063-89.003906v-9.386719c44.929688 11.617188 76.4375 51.984375 76.800782 98.390625zm0 0" fill="#6a1b9a"/><path d="m119.46875 332.800781v25.597657c0 18.851562 15.28125 34.136718 34.132812 34.136718h51.199219c18.851563 0 34.132813-15.285156 34.132813-34.136718v-25.597657zm0 0" fill="#ffe0b2"/><path d="m153.601562 287.828125h51.199219v70.570313h-51.199219zm0 0" fill="#ffe0b2"/><path d="m324.265625 136.535156v38.398438h-290.132813v-38.398438c.027344-70.683594 57.320313-127.976562 128-128h34.132813c70.683594.023438 127.976563 57.316406 128 128zm0 0" fill="#6d4122"/><path d="m300.628906 136.535156v38.398438h-266.496094v-38.398438c.027344-70.683594 57.320313-127.976562 128-128h10.496094c70.683594.023438 127.976563 57.316406 128 128zm0 0" fill="#91562d"/><path d="m307.199219 173.140625c-.011719 4.050781-.238281 8.09375-.679688 12.117187-.429687 3.671876-1.027343 7.339844-1.792969 10.921876-12.007812 47.773437-51.296874 83.808593-99.925781 91.648437-8.445312 1.550781-17.015625 2.324219-25.601562 2.304687-4.007813 0-7.933594-.171874-11.773438-.511718-4.640625-.332032-9.253906-.933594-13.824219-1.792969-48.773437-7.785156-88.140624-44.023437-99.925781-91.988281-.769531-3.5-1.367187-6.996094-1.792969-10.582032-.441406-4.023437-.671874-8.066406-.683593-12.117187-.015625-3.675781.183593-7.351563.597656-11.007813.257813-3.070312.769531-6.144531 1.28125-9.214843.597656-2.988281 1.363281-5.886719 2.132813-8.789063l4.523437-24.664062c43.179687-10.664063 65.109375-29.4375 75.773437-43.175782 4.125-4.921874 7.355469-10.523437 9.558594-16.554687 0 0 27.136719 47.53125 105.644532 51.710937 2.558593.171876 5.117187.257813 7.847656.257813 7.691406.15625 15.382812-.101563 23.042968-.769531 8.890626 10.433594 16.273438 22.070312 21.929688 34.558594.683594 2.476562 1.28125 4.949218 1.792969 7.425781.511719 3.070312 1.023437 6.144531 1.277343 9.214843.417969 3.65625.617188 7.332032.597657 11.007813zm0 0" fill="#dfc49c"/><path d="m283.5625 173.140625c-.011719 4.050781-.238281 8.09375-.683594 12.117187-.425781 3.671876-1.023437 7.339844-1.789062 10.921876-12.007813 47.773437-51.300782 83.808593-99.925782 91.648437-4.542968.859375-9.128906 1.460937-13.738281 1.792969-4.640625-.332032-9.253906-.933594-13.824219-1.792969-48.773437-7.785156-88.140624-44.023437-99.925781-91.988281-.769531-3.5-1.367187-6.996094-1.792969-10.582032-.441406-4.023437-.671874-8.066406-.683593-12.117187-.015625-3.675781.183593-7.351563.597656-11.007813.257813-3.070312.769531-6.144531 1.28125-9.214843.597656-2.988281 1.363281-5.886719 2.132813-8.789063l4.523437-24.664062c43.179687-10.664063 65.109375-29.4375 75.773437-43.175782 17.582032 16.296876 53.25 38.484376 115.203126 35.15625 2.386718-.085937 4.777343-.257812 7.253906-.511718.21875.238281.417968.496094.59375.769531 8.722656 10.164063 15.910156 21.546875 21.335937 33.789063.683594 2.476562 1.277344 4.949218 1.792969 7.425781.511719 3.070312 1.023438 6.144531 1.277344 9.214843.417968 3.65625.617187 7.332032.597656 11.007813zm0 0" fill="#ffe0b2"/><path d="m478.464844 418.132812-30.125 30.207032-30.207032 30.125c-15.980468 16.035156-37.6875 25.050781-60.328124 25.050781-22.640626 0-44.351563-9.015625-60.332032-25.050781l-6.058594-6.058594c-3.195312-3.1875-4.992187-7.519531-4.992187-12.03125 0-4.515625 1.796875-8.84375 4.992187-12.035156l24.148438-24.148438c.085938-.085937.171875-.171875.257812-.171875 6.671876-6.480469 17.3125-6.402343 23.890626.171875l12.035156 12.03125c1.820312 1.832032 3.921875 3.359375 6.226562 4.523438 9.894532 5.238281 22.046875 3.402344 29.953125-4.523438l48.296875-48.296875c9.984375-9.996093 9.984375-26.1875 0-36.183593l-12.03125-12.03125c-6.65625-6.671876-6.65625-17.472657 0-24.148438l24.148438-24.148438c.085937-.085937.171875-.171874.257812-.171874 6.640625-6.480469 17.261719-6.402344 23.808594.171874l6.058594 6.058594c16.019531 15.988282 25.023437 37.695313 25.023437 60.328125 0 22.636719-9.003906 44.34375-25.023437 60.332031zm0 0" fill="#549414"/><path d="m454.828125 418.132812-60.332031 60.332032c-13.097656 13.121094-30.113282 21.628906-48.46875 24.234375-18.394532-2.566407-35.445313-11.078125-48.554688-24.234375l-6.058594-6.058594c-3.195312-3.1875-4.992187-7.519531-4.992187-12.03125 0-4.515625 1.796875-8.84375 4.992187-12.035156l24.148438-24.148438c.085938-.085937.171875-.171875.257812-.171875l.167969.171875 12.117188 12.03125c7.871093 7.925782 20.003906 9.761719 29.867187 4.523438 9.894532 5.238281 22.046875 3.402344 29.953125-4.523438l48.296875-48.296875c9.984375-9.996093 9.984375-26.1875 0-36.183593l-12.03125-12.03125c-6.65625-6.671876-6.65625-17.472657 0-24.148438l24.148438-24.148438c.085937-.085937.171875-.171874.257812-.171874l6.230469 6.230468c33.277344 33.335938 33.277344 87.324219 0 120.660156zm0 0" fill="#60a917"/><path d="m34.132812 145.066406h8.535157c4.710937 0 8.53125 3.820313 8.53125 8.535156v34.132813c0 4.710937-3.820313 8.53125-8.53125 8.53125h-8.535157c-9.425781 0-17.066406-7.640625-17.066406-17.066406v-17.066407c0-9.425781 7.640625-17.066406 17.066406-17.066406zm0 0" fill="#3f51b5"/><path d="m324.265625 196.265625h-8.53125c-4.714844 0-8.535156-3.820313-8.535156-8.53125v-34.132813c0-4.714843 3.820312-8.535156 8.535156-8.535156h8.53125c9.425781 0 17.066406 7.640625 17.066406 17.066406v17.066407c0 9.425781-7.640625 17.066406-17.066406 17.066406zm0 0" fill="#3f51b5"/><path d="m153.601562 366.933594c-4.714843 0-8.535156-3.820313-8.535156-8.535156v-70.566407c0-4.710937 3.820313-8.53125 8.535156-8.53125 4.710938 0 8.53125 3.820313 8.53125 8.53125v70.566407c0 4.714843-3.820312 8.535156-8.53125 8.535156zm0 0"/><path d="m204.800781 366.933594c-4.714843 0-8.535156-3.820313-8.535156-8.535156v-70.566407c0-4.710937 3.820313-8.53125 8.535156-8.53125 4.710938 0 8.53125 3.820313 8.53125 8.53125v70.566407c0 4.714843-3.820312 8.535156-8.53125 8.535156zm0 0"/><path d="m332.800781 512h-307.199219c-14.132812-.015625-25.585937-11.46875-25.601562-25.601562v-51.199219c.0703125-61.238281 49.695312-110.863281 110.933594-110.933594h42.667968c4.710938 0 8.53125 3.820313 8.53125 8.535156 0 4.710938-3.820312 8.53125-8.53125 8.53125h-42.667968c-51.816406.058594-93.808594 42.050781-93.867188 93.867188v51.199219c.003906 4.710937 3.824219 8.53125 8.535156 8.535156h307.199219c1.273438.019531 2.535157-.269532 3.675781-.839844 4.1875-2.167969 9.335938-.527344 11.503907 3.660156 2.164062 4.1875.523437 9.339844-3.664063 11.503906-3.5625 1.828126-7.511718 2.769532-11.515625 2.742188zm0 0"/><path d="m349.867188 442.878906c-4.6875 0-8.496094-3.777344-8.535157-8.464844-.550781-51.484374-42.378906-92.964843-93.863281-93.082031h-42.667969c-4.714843 0-8.535156-3.820312-8.535156-8.53125 0-4.714843 3.820313-8.535156 8.535156-8.535156h42.667969c60.847656.144531 110.285156 49.171875 110.929688 110.019531.035156 4.710938-3.753907 8.558594-8.464844 8.59375zm0 0"/><path d="m51.199219 204.800781h-17.066407c-14.132812-.015625-25.582031-11.46875-25.597656-25.601562v-17.066407c.015625-14.132812 11.464844-25.582031 25.597656-25.597656h17.066407c4.714843 0 8.535156 3.820313 8.535156 8.53125v51.199219c0 4.714844-3.820313 8.535156-8.535156 8.535156zm-17.066407-51.199219c-4.710937.003907-8.527343 3.820313-8.53125 8.53125v17.066407c.003907 4.710937 3.820313 8.53125 8.53125 8.535156h8.535157v-34.132813zm0 0"/><path d="m324.265625 204.800781h-17.066406c-4.710938 0-8.53125-3.820312-8.53125-8.535156v-51.199219c0-4.710937 3.820312-8.53125 8.53125-8.53125h17.066406c14.132813.015625 25.585937 11.464844 25.601563 25.597656v17.066407c-.015626 14.132812-11.46875 25.585937-25.601563 25.601562zm-8.53125-17.066406h8.53125c4.710937-.003906 8.53125-3.824219 8.535156-8.535156v-17.066407c-.003906-4.710937-3.824219-8.527343-8.535156-8.53125h-8.53125zm0 0"/><path d="m324.265625 153.601562c-4.710937 0-8.53125-3.820312-8.53125-8.535156v-8.53125c-.074219-65.949218-53.519531-119.394531-119.46875-119.46875h-34.132813c-65.949218.074219-119.390624 53.519532-119.464843 119.46875v8.53125c0 4.714844-3.820313 8.535156-8.535157 8.535156-4.710937 0-8.53125-3.820312-8.53125-8.535156v-8.53125c.085938-75.371094 61.164063-136.4492185 136.53125-136.535156h34.132813c75.371094.0859375 136.449219 61.164062 136.535156 136.535156v8.53125c0 4.714844-3.820312 8.535156-8.535156 8.535156zm0 0"/><path d="m170.667969 256h-22.3125c-3.25.003906-6.472657-.613281-9.492188-1.816406l-24.996093-10c-10.738282-4.285156-20.484376-10.71875-28.652344-18.902344l-40.046875-40.046875c-3.234375-3.347656-3.1875-8.671875.101562-11.964844 3.292969-3.289062 8.617188-3.335937 11.964844-.101562l40.054687 40.046875c6.53125 6.546875 14.328126 11.691406 22.917969 15.117187l24.980469 9.992188c1.007812.402343 2.082031.609375 3.167969.609375h22.3125c4.710937 0 8.53125 3.820312 8.53125 8.53125 0 4.714844-3.820313 8.535156-8.53125 8.535156zm0 0"/><path d="m204.800781 401.066406h-51.199219c-23.554687-.027344-42.640624-19.113281-42.667968-42.667968v-25.597657c0-4.714843 3.820312-8.535156 8.535156-8.535156 4.710938 0 8.53125 3.820313 8.53125 8.535156v25.597657c.015625 14.132812 11.46875 25.585937 25.601562 25.601562h51.199219c14.132813-.015625 25.582031-11.46875 25.597657-25.601562v-25.597657c0-4.714843 3.824218-8.535156 8.535156-8.535156 4.710937 0 8.535156 3.820313 8.535156 8.535156v25.597657c-.03125 23.554687-19.117188 42.640624-42.667969 42.667968zm0 0"/><path d="m204.800781 435.199219h-51.199219c-42.398437-.046875-76.753906-34.402344-76.800781-76.800781v-22.355469c0-4.714844 3.820313-8.535157 8.53125-8.535157 4.714844 0 8.535157 3.820313 8.535157 8.535157v22.355469c.039062 32.976562 26.757812 59.695312 59.734374 59.734374h51.199219c32.972657-.039062 59.695313-26.757812 59.734375-59.734374v-22.355469c0-4.714844 3.820313-8.535157 8.53125-8.535157 4.714844 0 8.535156 3.820313 8.535156 8.535157v22.355469c-.046874 42.398437-34.40625 76.753906-76.800781 76.800781zm0 0"/><path d="m102.398438 477.867188h-42.664063c-4.714844 0-8.535156-3.820313-8.535156-8.535157 0-4.710937 3.820312-8.53125 8.535156-8.53125h42.664063c4.714843 0 8.535156 3.820313 8.535156 8.53125 0 4.714844-3.820313 8.535157-8.535156 8.535157zm0 0"/><path d="m357.792969 512c-24.910157.070312-48.808594-9.828125-66.371094-27.492188l-6.035156-6.03125c-9.984375-10.007812-9.984375-26.203124 0-36.210937l24.132812-24.132813c10.003907-9.988281 26.203125-9.988281 36.207031 0l12.066407 12.066407c6.753906 6.449219 17.382812 6.449219 24.136719 0l48.269531-48.265625c6.65625-6.671875 6.65625-17.46875 0-24.140625l-12.066407-12.070313c-9.992187-9.996094-9.992187-26.199218 0-36.199218l24.136719-24.140626c10.003907-9.984374 26.199219-9.984374 36.203125 0l6.035156 6.035157c36.597657 36.683593 36.597657 96.066406 0 132.75l-60.339843 60.339843c-17.566407 17.664063-41.46875 27.5625-66.375 27.492188zm-30.167969-84.300781c-2.265625-.003907-4.4375.898437-6.039062 2.5l-24.132813 24.132812c-3.328125 3.339844-3.328125 8.738281 0 12.074219l6.035156 6.035156c29.992188 29.988282 78.617188 29.988282 108.613281 0l60.339844-60.339844c29.941406-30.015624 29.941406-78.601562 0-108.617187l-6.039062-6.035156c-3.335938-3.316407-8.726563-3.316407-12.0625 0l-24.140625 24.140625c-3.328125 3.335937-3.328125 8.738281.003906 12.070312l12.0625 12.0625c13.3125 13.339844 13.3125 34.9375 0 48.277344l-24.132813 24.132812-24.136718 24.132813c-13.503906 12.902344-34.765625 12.902344-48.269532 0l-12.066406-12.066406c-1.597656-1.601563-3.769531-2.503907-6.035156-2.5zm0 0"/><path d="m40.953125 368.980469c-1.898437.003906-3.742187-.628907-5.238281-1.796875-27.824219-21.667969-35.289063-62.851563-17.746094-97.933594 15.507812-31.007812 7.871094-70.917969 7.792969-71.316406-.597657-2.992188.449219-6.070313 2.738281-8.082032 2.289062-2.011718 5.480469-2.652343 8.367188-1.671874 2.890624.976562 5.035156 3.421874 5.632812 6.410156.371094 1.859375 8.898438 45.960937-9.265625 82.292968-13.917969 27.835938-8.464844 60.152344 12.96875 76.835938 2.875 2.238281 4.011719 6.058594 2.828125 9.503906-1.183594 3.449219-4.429688 5.761719-8.074219 5.761719zm0 0"/><path d="m317.445312 368.980469c-3.644531.003906-6.886718-2.3125-8.074218-5.757813-1.183594-3.449218-.046875-7.269531 2.828125-9.507812 21.429687-16.683594 26.878906-49 12.972656-76.832032-18.167969-36.335937-9.640625-80.433593-9.269531-82.292968.925781-4.621094 5.417968-7.621094 10.039062-6.699219 4.625.921875 7.621094 5.417969 6.699219 10.039063-.078125.402343-7.710937 40.308593 7.796875 71.316406 17.535156 35.085937 10.074219 76.269531-17.75 97.9375-1.496094 1.167968-3.34375 1.800781-5.242188 1.796875zm0 0"/><path d="m179.199219 298.667969c-9.105469.011719-18.195313-.804688-27.152344-2.441407-52.230469-8.277343-94.34375-47.1875-106.71875-98.601562-.816406-3.726562-1.460937-7.5-1.917969-11.359375-.484375-4.359375-.734375-8.738281-.742187-13.125-.019531-4.015625.195312-8.027344.652343-12.015625.246094-2.992188.785157-6.273438 1.335938-9.558594.660156-3.355468 1.4375-6.332031 2.222656-9.308594l4.464844-24.332031c.601562-3.300781 3.089844-5.941406 6.347656-6.742187 67.804688-16.714844 79.066406-53.433594 79.171875-53.800782.945313-3.300781 3.773438-5.714843 7.183594-6.125 3.40625-.410156 6.730469 1.261719 8.433594 4.242188 1.285156 2.21875 33.152343 54.800781 128.414062 46.933594 2.773438-.277344 5.5.859375 7.253907 3.027344 9.699218 11.234374 17.636718 23.878906 23.539062 37.496093.808594 2.925781 1.449219 5.585938 2 8.246094.613281 3.648437 1.152344 6.929687 1.429688 10.214844.4375 3.890625.640624 7.804687.617187 11.722656-.011719 4.351563-.253906 8.699219-.734375 13.027344-.460938 4.007812-1.109375 7.957031-1.929688 11.796875-12.582031 51.226562-54.617187 89.933594-106.703124 98.261718-8.964844 1.636719-18.054688 2.453126-27.167969 2.441407zm-115.761719-152.269531c-.714844 2.710937-1.433594 5.410156-1.992188 8.191406-.425781 2.609375-.90625 5.425781-1.144531 8.261718-.394531 3.414063-.582031 6.851563-.566406 10.289063.011719 3.746094.222656 7.488281.632813 11.210937.382812 3.207032.933593 6.429688 1.644531 9.664063 10.933593 44.683594 47.691406 78.390625 93.152343 85.425781 15.898438 2.867188 32.183594 2.867188 48.082032 0 45.320312-7.078125 82.003906-40.585937 93.140625-85.082031.703125-3.285156 1.257812-6.683594 1.65625-10.085937.40625-3.695313.613281-7.414063.625-11.132813.019531-3.339844-.160157-6.679687-.539063-10-.265625-3.125-.746094-5.941406-1.214844-8.773437-.421874-2.027344-.976562-4.316407-1.609374-6.601563-4.503907-10.101563-10.402344-19.523437-17.527344-27.988281-75.910156 5.082031-115.257813-26.257813-131.265625-44.097656-9.566407 14.679687-31.527344 37.664062-79.363281 50.679687l-3.539063 19.292969-.027344.132812v.015625c-.042969.199219-.09375.398438-.144531.597657zm0 0"/></svg>