<svg height="512pt" viewBox="0 0 512 512" width="512pt" xmlns="http://www.w3.org/2000/svg"><path d="m341.246094 331.347656-46.335938 54.699219h-253.949218c-25.429688-20.308594-30.550782-58.539063-15.359376-89.769531 17.066407-34.988282 8.53125-78.847656 8.53125-78.847656h290.132813s-8.53125 43.859374 8.535156 78.847656c5.351563 10.929687 8.234375 22.902344 8.445313 35.070312zm0 0" fill="#783e22"/><path d="m317.609375 331.347656-46.421875 54.699219h-230.226562c-25.429688-20.308594-30.550782-58.539063-15.359376-89.769531 17.066407-34.988282 8.53125-78.847656 8.53125-78.847656h266.496094s-8.53125 43.859374 8.535156 78.847656c5.347657 10.929687 8.234376 22.902344 8.445313 35.070312zm0 0" fill="#a0522d"/><path d="m324.179688 196.265625c.085937-1.769531.085937-13.96875.085937-15.636719-.011719-10.503906-.808594-20.996094-2.386719-31.382812h-285.355468c-1.578126 10.386718-2.378907 20.878906-2.390626 31.382812 0 1.667969 0 13.867188.085938 15.636719zm0 0" fill="#91562d"/><path d="m268.96875 360.617188c47.210938 10.152343 80.917969 51.894531 80.898438 100.183593v25.597657c-.027344 9.414062-7.652344 17.039062-17.066407 17.066406h-307.199219c-9.414062-.027344-17.039062-7.652344-17.066406-17.066406v-25.597657c-.019531-48.289062 33.6875-90.03125 80.894532-100.183593zm0 0" fill="#f44335"/><path d="m503.464844 477.867188v8.53125c.019531 1.445312-.183594 2.882812-.59375 4.269531-1.929688 7.523437-8.703125 12.785156-16.472656 12.796875h-170.664063c-7.765625-.011719-14.542969-5.273438-16.46875-12.796875-.414063-1.386719-.617187-2.824219-.597656-4.269531v-8.53125c.027343-9.414063 7.652343-17.039063 17.066406-17.066407h170.664063c9.414062.027344 17.042968 7.652344 17.066406 17.066407zm0 0" fill="#f57c00"/><path d="m503.464844 366.933594v8.53125c-.011719 4.710937-3.824219 8.523437-8.53125 8.535156h-187.734375c-4.707031-.011719-8.519531-3.824219-8.53125-8.535156v-8.53125c-.003907-9.054688 3.589843-17.738282 9.992187-24.140625 6.402344-6.398438 15.085938-9.996094 24.140625-9.992188h136.53125c9.054688-.003906 17.738281 3.59375 24.140625 9.992188 6.402344 6.402343 9.996094 15.085937 9.992188 24.140625zm0 0" fill="#f57c00"/><path d="m479.828125 477.867188v8.53125c.019531 1.445312-.183594 2.882812-.597656 4.269531-1.925781 7.523437-8.703125 12.785156-16.46875 12.796875h-147.027344c-7.765625-.011719-14.542969-5.273438-16.46875-12.796875-.414063-1.386719-.617187-2.824219-.597656-4.269531v-8.53125c.027343-9.414063 7.652343-17.039063 17.066406-17.066407h147.027344c9.414062.027344 17.039062 7.652344 17.066406 17.066407zm0 0" fill="#ff9801"/><path d="m479.828125 366.933594v8.53125c-.011719 4.710937-3.824219 8.523437-8.53125 8.535156h-164.097656c-4.707031-.011719-8.519531-3.824219-8.53125-8.535156v-8.53125c-.003907-9.054688 3.589843-17.738282 9.992187-24.140625 6.402344-6.398438 15.085938-9.996094 24.140625-9.992188h112.894531c9.054688-.003906 17.738282 3.59375 24.140626 9.992188 6.402343 6.402343 9.996093 15.085937 9.992187 24.140625zm0 0" fill="#ff9801"/><path d="m486.398438 443.734375c-.066407 9.394531-7.667969 16.996094-17.066407 17.066406h-136.53125c-9.414062-.027343-17.039062-7.652343-17.066406-17.066406.066406-9.398437 7.667969-17 17.066406-17.066406h136.53125c9.414063.027343 17.039063 7.652343 17.066407 17.066406zm0 0" fill="#783e22"/><path d="m462.761719 443.734375c-.015625 4.519531-1.824219 8.847656-5.035157 12.03125-3.160156 3.242187-7.503906 5.058594-12.03125 5.035156h-112.894531c-9.414062-.027343-17.039062-7.652343-17.066406-17.066406.066406-9.398437 7.667969-17 17.066406-17.066406h112.894531c9.414063.027343 17.039063 7.652343 17.066407 17.066406zm0 0" fill="#a0522d"/><path d="m204.800781 313.429688v58.367187l-25.601562 30.039063-25.597657-30.039063v-58.367187zm0 0" fill="#ffe0b2"/><path d="m179.199219 401.835938-34.132813 33.363281-55.636718-74.582031-2.476563-3.328126-1.621094-2.21875 36.269531-11.347656c3.621094-1.167968 7.59375-.175781 10.238282 2.558594l7.507812 8.789062 2.816406 3.328126 11.4375 13.398437zm0 0" fill="#c81e1e"/><path d="m273.066406 355.070312-1.621094 2.21875-58.113281 77.910157-34.132812-33.363281 25.601562-30.039063 14.25-16.726563 7.507813-8.789062c2.648437-2.734375 6.617187-3.726562 10.242187-2.558594zm0 0" fill="#c81e1e"/><path d="m306.601562 187.734375h17.664063c9.398437.066406 17 7.667969 17.066406 17.066406-.027343 9.414063-7.652343 17.039063-17.066406 17.066407h-290.132813c-9.414062-.027344-17.039062-7.652344-17.066406-17.066407.066406-9.398437 7.667969-17 17.066406-17.066406zm0 0" fill="#dfc49c"/><path d="m307.199219 198.742188c-.011719 4.046874-.238281 8.09375-.683594 12.117187-6.652344 58.964844-61.097656 104.875-127.316406 104.875-3.925781 0-7.851563-.171875-11.773438-.511719-60.757812-5.035156-109.3125-48.898437-115.542969-104.363281-.441406-4.023437-.671874-8.070313-.683593-12.117187.015625-6.785157.644531-13.554688 1.878906-20.226563.765625-3.753906 1.707031-7.507813 2.816406-11.175781.9375-2.21875 2.046875-4.609375 3.328125-7.253906h239.957032c1.277343 2.644531 2.386718 5.035156 3.328124 7.253906 1.109376 3.667968 2.046876 7.421875 2.816407 11.175781 1.230469 6.671875 1.859375 13.441406 1.875 20.226563zm0 0" fill="#dfc49c"/><path d="m283.5625 198.742188c-.011719 4.046874-.238281 8.09375-.683594 12.117187-6.226562 55.378906-54.699218 99.328125-115.453125 104.363281-60.757812-5.035156-109.3125-48.898437-115.542969-104.363281-.441406-4.023437-.671874-8.070313-.683593-12.117187.015625-6.785157.644531-13.554688 1.878906-20.226563.765625-3.753906 1.707031-7.507813 2.816406-11.175781.9375-2.21875 2.046875-4.609375 3.328125-7.253906h216.320313c1.277343 2.644531 2.386719 5.035156 3.328125 7.253906 1.109375 3.667968 2.046875 7.421875 2.8125 11.175781 1.234375 6.671875 1.863281 13.441406 1.878906 20.226563zm0 0" fill="#ffe0b2"/><path d="m324.265625 128v17.066406h-290.132813v-17.066406c.011719-65.976562 53.492188-119.453125 119.46875-119.464844h51.199219c65.972657.011719 119.453125 53.488282 119.464844 119.464844zm0 0" fill="#c81e1e"/><path d="m300.628906 128v17.066406h-266.496094v-17.066406c.011719-65.976562 53.492188-119.453125 119.46875-119.464844h27.5625c65.972657.011719 119.453126 53.488282 119.464844 119.464844zm0 0" fill="#f44335"/><path d="m34.132812 145.066406s42.667969-42.667968 145.066407-42.667968c102.402343 0 145.066406 42.667968 145.066406 42.667968s0 25.601563-145.066406 25.601563c-145.066407 0-145.066407-25.601563-145.066407-25.601563zm0 0" fill="#f44335"/><path d="m179.199219 324.265625c-70.183594 0-128.5625-48.355469-135.796875-112.472656-1.304688-11.589844-.871094-23.308594 1.28125-34.769531.878906-4.355469 1.894531-8.414063 3.046875-12.171876.890625-2.917968 3.269531-5.136718 6.238281-5.824218s6.082031.261718 8.164062 2.492187c2.078126 2.226563 2.8125 5.398438 1.921876 8.3125-1.027344 3.367188-1.898438 6.886719-2.609376 10.417969-1.832031 9.78125-2.195312 19.78125-1.078124 29.671875 6.253906 55.4375 57.34375 97.277344 118.832031 97.277344s112.582031-41.839844 118.839843-97.324219c1.117188-9.925781.746094-19.964844-1.109374-29.78125-.683594-3.375-1.550782-6.890625-2.578126-10.257812-1.378906-4.507813 1.160157-9.277344 5.667969-10.65625 4.507813-1.375 9.277344 1.164062 10.65625 5.671874 1.148438 3.765626 2.164063 7.816407 3.015625 12.015626 1.339844 7.210937 2.023438 14.527343 2.042969 21.859374-.007813 4.351563-.253906 8.699219-.734375 13.023438-7.238281 64.160156-65.617188 112.515625-135.800781 112.515625zm0 0"/><path d="m51.882812 230.398438h-17.75c-14.132812-.015626-25.582031-11.464844-25.597656-25.597657.0625-14.113281 11.488282-25.535156 25.597656-25.601562h17.664063c4.714844 0 8.535156 3.820312 8.535156 8.535156 0 4.710937-3.820312 8.53125-8.535156 8.53125h-17.578125c-2.25-.035156-4.421875.847656-6.003906 2.449219-1.671875 1.582031-2.617188 3.785156-2.613282 6.085937.003907 4.710938 3.820313 8.527344 8.53125 8.53125h17.75c4.710938 0 8.53125 3.820313 8.53125 8.535157 0 4.710937-3.820312 8.53125-8.53125 8.53125zm0 0"/><path d="m324.265625 230.398438h-17.75c-4.710937 0-8.53125-3.820313-8.53125-8.53125 0-4.714844 3.820313-8.535157 8.53125-8.535157h17.75c4.710937-.003906 8.53125-3.820312 8.535156-8.53125.019531-2.226562-.867187-4.367187-2.460937-5.925781-1.578125-1.671875-3.773438-2.613281-6.074219-2.609375h-17.664063c-4.710937 0-8.53125-3.820313-8.53125-8.53125 0-4.714844 3.820313-8.535156 8.53125-8.535156h17.578126c14.144531.023437 25.617187 11.457031 25.6875 25.601562-.015626 14.132813-11.46875 25.582031-25.601563 25.597657zm0 0"/><path d="m34.203125 196.234375c-4.511719.007813-8.242187-3.507813-8.507813-8.007813-.082031-1.507812-.09375-11.875-.09375-13.292968.015626-9.132813.863282-18.242188 2.527344-27.222656.503906-3.039063 2.613282-5.574219 5.511719-6.625 2.898437-1.046876 6.140625-.453126 8.476563 1.558593 2.335937 2.011719 3.402343 5.128907 2.796874 8.152344-1.488281 7.957031-2.238281 16.039063-2.246093 24.136719 0 1.308594-.011719 10.734375.070312 12.324218.230469 4.699219-3.375 8.703126-8.070312 8.96875-.15625.007813-.308594.007813-.464844.007813zm0 0"/><path d="m324.191406 196.265625c-.171875 0-.328125-.007813-.496094-.015625-4.703124-.269531-8.296874-4.296875-8.03125-9 .078126-1.601562.070313-11.015625.070313-12.316406-.007813-8.097656-.761719-16.179688-2.246094-24.140625-.609375-3.023438.460938-6.140625 2.796875-8.152344 2.335938-2.011719 5.574219-2.605469 8.472656-1.554687 2.902344 1.046874 5.007813 3.582031 5.511719 6.621093 1.664063 8.980469 2.511719 18.09375 2.53125 27.226563 0 1.417968-.011719 11.785156-.097656 13.292968-.261719 4.507813-3.992187 8.035157-8.511719 8.039063zm0 0"/><path d="m38.230469 150.058594c-2.261719.011718-4.429688-.878906-6.03125-2.472656-1.601563-1.59375-2.503907-3.761719-2.503907-6.019532v-.085937c.023438-4.707031 3.855469-8.507813 8.5625-8.492188 4.707032.015625 8.511719 3.839844 8.503907 8.546875-.007813 4.707032-3.824219 8.519532-8.53125 8.519532zm0 0"/><path d="m320.171875 150.058594c-2.261719.011718-4.429687-.878906-6.03125-2.472656s-2.503906-3.761719-2.503906-6.019532v-.085937c.023437-4.707031 3.855469-8.507813 8.5625-8.492188s8.511719 3.839844 8.503906 8.546875c-.007813 4.707032-3.824219 8.519532-8.53125 8.519532zm0 0"/><path d="m55.894531 175.917969c-2.261719.007812-4.429687-.882813-6.03125-2.476563-1.601562-1.59375-2.503906-3.757812-2.503906-6.015625v-.085937c0-1.144532.230469-2.277344.675781-3.328125.992188-2.339844 2.152344-4.851563 3.503906-7.640625 1.28125-2.820313 3.988282-4.722656 7.074219-4.976563 3.085938-.25 6.066407 1.1875 7.785157 3.757813 1.722656 2.574218 1.917968 5.878906.507812 8.632812-1.164062 2.417969-2.183594 4.601563-3.054688 6.636719-1.261718 3.300781-4.421874 5.484375-7.957031 5.496094zm0 0"/><path d="m165.460938 111.1875c-4.730469.007812-8.578126-3.800781-8.617188-8.53125-.019531-2.253906.859375-4.421875 2.445312-6.027344 1.585938-1.601562 3.746094-2.503906 6-2.507812h.171876c4.714843 0 8.535156 3.820312 8.535156 8.535156 0 4.710938-3.820313 8.53125-8.535156 8.53125zm0 0"/><path d="m302.507812 175.917969c-3.6875.007812-6.960937-2.351563-8.117187-5.851563-.832031-1.933594-1.800781-4-2.894531-6.273437-1.410156-2.757813-1.21875-6.0625.503906-8.632813 1.722656-2.574218 4.703125-4.011718 7.789062-3.761718 3.082032.253906 5.789063 2.15625 7.070313 4.976562 1.351563 2.792969 2.515625 5.300781 3.503906 7.640625 1.117188 2.640625.839844 5.664063-.742187 8.054687-1.578125 2.390626-4.25 3.835938-7.113282 3.847657zm0 0"/><path d="m153.601562 380.332031c-4.714843 0-8.535156-3.820312-8.535156-8.535156v-58.367187c0-4.714844 3.820313-8.535157 8.535156-8.535157 4.710938 0 8.53125 3.820313 8.53125 8.535157v58.367187c0 4.714844-3.820312 8.535156-8.53125 8.535156zm0 0"/><path d="m204.800781 380.332031c-4.714843 0-8.535156-3.820312-8.535156-8.535156v-58.367187c0-4.714844 3.820313-8.535157 8.535156-8.535157 4.710938 0 8.53125 3.820313 8.53125 8.535157v58.367187c0 4.714844-3.820312 8.535156-8.53125 8.535156zm0 0"/><path d="m298.65625 380.671875c-1.53125.003906-3.035156-.414063-4.351562-1.199219-8.429688-4.941406-17.601563-8.492187-27.15625-10.527344-3.054688-.574218-5.550782-2.765624-6.523438-5.714843-.972656-2.953125-.261719-6.199219 1.851562-8.476563 2.113282-2.273437 5.296876-3.222656 8.3125-2.472656 11.347657 2.414062 22.230469 6.644531 32.234376 12.523438 3.300781 1.964843 4.882812 5.894531 3.863281 9.597656s-4.386719 6.269531-8.230469 6.269531zm0 0"/><path d="m332.800781 512h-307.199219c-14.132812-.015625-25.585937-11.46875-25.601562-25.601562v-25.597657c.179688-52.242187 36.609375-97.351562 87.640625-108.527343 3.011719-.714844 6.171875.253906 8.265625 2.535156 2.089844 2.28125 2.785156 5.515625 1.8125 8.453125-.976562 2.9375-3.460938 5.117187-6.5 5.695312-43.179688 9.464844-74 47.640625-74.152344 91.84375v25.597657c.003906 4.710937 3.824219 8.53125 8.535156 8.535156h307.199219c4.710938 0 8.53125 3.820312 8.53125 8.53125 0 4.714844-3.820312 8.535156-8.53125 8.535156zm0 0"/><path d="m324.265625 153.601562c-4.710937 0-8.53125-3.820312-8.53125-8.535156v-17.066406c-.070313-61.238281-49.695313-110.863281-110.933594-110.933594h-51.199219c-61.238281.070313-110.867187 49.695313-110.933593 110.933594v17.066406c0 4.714844-3.820313 8.535156-8.535157 8.535156-4.710937 0-8.53125-3.820312-8.53125-8.535156v-17.066406c.078126-70.660156 57.339844-127.921875 128-128h51.199219c70.660157.078125 127.921875 57.339844 128 128v17.066406c0 4.714844-3.820312 8.535156-8.535156 8.535156zm0 0"/><path d="m179.199219 179.199219c-133.644531 0-153.597657-21.382813-153.597657-34.132813 0-2.261718.898438-4.433594 2.5-6.03125 1.839844-1.84375 46.371094-45.167968 151.097657-45.167968 104.730469 0 149.257812 43.324218 151.101562 45.167968 1.601563 1.597656 2.5 3.769532 2.5 6.03125 0 12.75-19.957031 34.132813-153.601562 34.132813zm-132.726563-33.222657c9.75 5.515626 40.527344 16.15625 132.726563 16.15625 93.488281 0 125.0625-11.050781 133.71875-15.367187-13.96875-10.390625-56.121094-35.832031-133.71875-35.832031-76.257813 0-117.917969 24.207031-132.726563 35.042968zm0 0"/><path d="m196.265625 68.265625h-34.132813c-4.710937 0-8.53125-3.820313-8.53125-8.53125 0-4.714844 3.820313-8.535156 8.53125-8.535156h34.132813c4.714844 0 8.535156 3.820312 8.535156 8.535156 0 4.710937-3.820312 8.53125-8.535156 8.53125zm0 0"/><path d="m145.066406 443.734375c-.222656 0-.441406-.007813-.660156-.027344-2.457031-.191406-4.707031-1.433593-6.179688-3.40625l-59.78125-80.195312c-1.621093-2.21875-2.074218-5.085938-1.214843-7.699219.863281-2.613281 2.929687-4.652344 5.554687-5.476562l36.265625-11.347657c6.910157-2.214843 14.472657-.171875 19.332031 5.214844l47.3125 55.5c2.910157 3.414063 2.675782 8.5-.527343 11.636719l-34.136719 33.363281c-1.589844 1.5625-3.734375 2.4375-5.964844 2.4375zm-45.726562-84.101563 46.734375 62.648438 21.460937-20.980469-42.179687-49.472656c-.019531.058594-.25-.015625-.554688-.015625-.265625-.003906-.527343.027344-.785156.101562zm0 0"/><path d="m213.332031 443.734375c-2.230469 0-4.371093-.875-5.964843-2.433594l-34.132813-33.367187c-3.207031-3.136719-3.4375-8.21875-.53125-11.632813l47.359375-55.535156c4.820312-5.363281 12.347656-7.386719 19.207031-5.164063l36.34375 11.363282c2.628907.824218 4.699219 2.863281 5.558594 5.480468.859375 2.617188.402344 5.488282-1.226563 7.710938l-1.621093 2.207031-58.152344 77.933594c-1.472656 1.976563-3.722656 3.21875-6.175781 3.410156-.222656.015625-.441406.027344-.664063.027344zm-22.464843-42.433594 21.457031 20.980469 46.722656-62.613281-24.792969-7.757813c-.457031-.121094-.9375-.09375-1.378906.074219zm0 0"/><path d="m179.199219 469.332031c-4.710938 0-8.53125-3.820312-8.53125-8.53125v-58.964843c0-4.714844 3.820312-8.535157 8.53125-8.535157 4.714843 0 8.535156 3.820313 8.535156 8.535157v58.964843c0 4.710938-3.820313 8.53125-8.535156 8.53125zm0 0"/><path d="m110.933594 469.332031h-51.199219c-4.714844 0-8.535156-3.820312-8.535156-8.53125 0-4.714843 3.820312-8.535156 8.535156-8.535156h51.199219c4.710937 0 8.53125 3.820313 8.53125 8.535156 0 4.710938-3.820313 8.53125-8.53125 8.53125zm0 0"/><path d="m486.398438 512h-170.664063c-14.132813-.015625-25.585937-11.46875-25.601563-25.601562v-8.53125c.015626-14.132813 11.46875-25.585938 25.601563-25.601563h170.664063c14.132812.015625 25.585937 11.46875 25.601562 25.601563v8.53125c-.015625 14.132812-11.46875 25.585937-25.601562 25.601562zm-170.664063-42.667969c-4.710937.003907-8.53125 3.824219-8.535156 8.535157v8.53125c.003906 4.710937 3.824219 8.53125 8.535156 8.535156h170.664063c4.710937-.003906 8.53125-3.824219 8.535156-8.535156v-8.53125c-.003906-4.710938-3.824219-8.53125-8.535156-8.535157zm0 0"/><path d="m503.464844 392.535156h-204.796875c-4.714844 0-8.535157-3.824218-8.535157-8.535156v-17.066406c.027344-23.554688 19.113282-42.640625 42.667969-42.667969h136.53125c23.554688.027344 42.640625 19.113281 42.667969 42.667969v17.066406c0 2.261719-.898438 4.433594-2.5 6.035156-1.601562 1.597656-3.769531 2.5-6.035156 2.5zm-196.265625-17.070312h187.734375v-8.53125c-.015625-14.132813-11.46875-25.585938-25.601563-25.601563h-136.53125c-14.132812.015625-25.585937 11.46875-25.601562 25.601563zm0 0"/><path d="m469.332031 469.332031h-136.53125c-14.140625 0-25.601562-11.460937-25.601562-25.597656 0-14.140625 11.460937-25.601563 25.601562-25.601563h136.53125c14.140625 0 25.601563 11.460938 25.601563 25.601563 0 14.136719-11.460938 25.597656-25.601563 25.597656zm-136.53125-34.132812c-4.714843 0-8.535156 3.820312-8.535156 8.535156 0 4.710937 3.820313 8.53125 8.535156 8.53125h136.53125c4.714844 0 8.535157-3.820313 8.535157-8.53125 0-4.714844-3.820313-8.535156-8.535157-8.535156zm0 0"/><path d="m435.199219 424.398438c-7.925781-.007813-15.382813-3.757813-20.121094-10.117188l-7.484375-9.847656c-1.539062-2.054688-3.957031-3.261719-6.527344-3.261719-2.566406 0-4.984375 1.207031-6.527344 3.261719l-7.484374 9.847656c-4.726563 6.367188-12.191407 10.117188-20.121094 10.117188-7.929688 0-15.390625-3.75-20.121094-10.117188l-7.480469-9.847656c-1.542969-2.054688-3.960937-3.261719-6.53125-3.261719-2.566406 0-4.984375 1.207031-6.527343 3.261719-.382813.503906-.820313.964844-1.304688 1.375l-12.273438 10.324218c-3.609374 3.035157-8.992187 2.566407-12.023437-1.039062-3.035156-3.609375-2.570313-8.992188 1.039063-12.027344l11.613281-9.765625c4.871093-6.023437 12.253906-9.453125 20-9.292969 7.742187.160157 14.976562 3.890626 19.59375 10.109376l7.484375 9.851562c1.542968 2.050781 3.960937 3.261719 6.527344 3.261719 2.570312 0 4.988281-1.210938 6.53125-3.261719l7.484374-9.851562c4.726563-6.363282 12.1875-10.117188 20.117188-10.117188s15.394531 3.753906 20.121094 10.117188l7.484375 9.851562c1.542969 2.050781 3.960937 3.261719 6.527343 3.261719 2.570313 0 4.988282-1.210938 6.527344-3.261719l7.484375-9.851562c4.621094-6.21875 11.855469-9.949219 19.597657-10.109376 7.746093-.160156 15.128906 3.269532 20 9.292969l11.617187 9.769531c3.605469 3.03125 4.074219 8.414063 1.039063 12.023438-3.03125 3.609375-8.417969 4.074219-12.023438 1.042969l-12.277344-10.328125c-.484375-.40625-.921875-.867188-1.304687-1.375-1.539063-2.050782-3.957031-3.261719-6.527344-3.261719-2.566406 0-4.984375 1.210937-6.527344 3.261719l-7.484375 9.851562c-4.734375 6.355469-12.191406 10.105469-20.117187 10.113282zm0 0"/><path d="m40.972656 394.582031c-1.898437.003907-3.746094-.628906-5.238281-1.800781-27.828125-21.667969-35.292969-62.847656-17.753906-97.929688 15.507812-31.011718 7.875-70.917968 7.792969-71.316406-.921876-4.625 2.078124-9.117187 6.699218-10.042968 4.621094-.921876 9.117188 2.078124 10.039063 6.699218.371093 1.859375 8.902343 45.960938-9.265625 82.292969-13.917969 27.832031-8.460938 60.140625 12.96875 76.832031 2.878906 2.238282 4.011718 6.058594 2.828125 9.507813-1.183594 3.445312-4.425781 5.761719-8.070313 5.757812zm0 0"/><path d="m341.246094 341.332031c-4.660156 0-8.460938-3.746093-8.527344-8.40625-.191406-10.578125-2.765625-20.976562-7.539062-30.417969-18.175782-36.355468-9.648438-80.457031-9.277344-82.316406.597656-2.988281 2.742187-5.433594 5.632812-6.414062 2.886719-.976563 6.078125-.339844 8.367188 1.671875 2.292968 2.011719 3.335937 5.09375 2.738281 8.085937-.078125.398438-7.714844 40.304688 7.796875 71.316406 5.917969 11.742188 9.113281 24.671876 9.34375 37.824219.070312 4.710938-3.695312 8.585938-8.40625 8.65625zm0 0"/></svg>