<svg height="512pt" viewBox="0 0 512 512" width="512pt" xmlns="http://www.w3.org/2000/svg"><path d="m324.179688 196.265625c.085937-1.769531.085937-13.96875.085937-15.636719-.011719-10.503906-.808594-20.996094-2.386719-31.382812h-285.355468c-1.578126 10.386718-2.378907 20.878906-2.390626 31.382812 0 1.667969 0 13.867188.085938 15.636719zm0 0" fill="#91562d"/><path d="m268.96875 360.617188c47.210938 10.152343 80.917969 51.894531 80.898438 100.183593v25.597657c-.027344 9.414062-7.652344 17.039062-17.066407 17.066406h-307.199219c-9.414062-.027344-17.039062-7.652344-17.066406-17.066406v-25.597657c-.019531-48.289062 33.6875-90.03125 80.894532-100.183593zm0 0" fill="#60a917"/><path d="m204.800781 313.429688v58.367187l-25.601562 30.039063-25.597657-30.039063v-58.367187zm0 0" fill="#ffe0b2"/><path d="m179.199219 401.835938-34.132813 33.363281-55.636718-74.582031-2.476563-3.328126-1.621094-2.21875 36.269531-11.347656c3.621094-1.167968 7.59375-.175781 10.238282 2.558594l7.507812 8.789062 2.816406 3.328126 11.4375 13.398437zm0 0" fill="#009688"/><path d="m273.066406 355.070312-1.621094 2.21875-58.113281 77.910157-34.132812-33.363281 25.601562-30.039063 14.25-16.726563 7.507813-8.789062c2.648437-2.734375 6.617187-3.726562 10.242187-2.558594zm0 0" fill="#009688"/><path d="m306.601562 187.734375h17.664063c9.398437.066406 17 7.667969 17.066406 17.066406-.027343 9.414063-7.652343 17.039063-17.066406 17.066407h-290.132813c-9.414062-.027344-17.039062-7.652344-17.066406-17.066407.066406-9.398437 7.667969-17 17.066406-17.066406zm0 0" fill="#dfc49c"/><path d="m307.199219 198.742188c-.011719 4.046874-.238281 8.09375-.683594 12.117187-6.652344 58.964844-61.097656 104.875-127.316406 104.875-3.925781 0-7.851563-.171875-11.773438-.511719-60.757812-5.035156-109.3125-48.898437-115.542969-104.363281-.441406-4.023437-.671874-8.070313-.683593-12.117187.015625-6.785157.644531-13.554688 1.878906-20.226563.765625-3.753906 1.707031-7.507813 2.816406-11.175781.9375-2.21875 2.046875-4.609375 3.328125-7.253906h239.957032c1.277343 2.644531 2.386718 5.035156 3.328124 7.253906 1.109376 3.667968 2.046876 7.421875 2.816407 11.175781 1.230469 6.671875 1.859375 13.441406 1.875 20.226563zm0 0" fill="#dfc49c"/><path d="m283.5625 198.742188c-.011719 4.046874-.238281 8.09375-.683594 12.117187-6.226562 55.378906-54.699218 99.328125-115.453125 104.363281-60.757812-5.035156-109.3125-48.898437-115.542969-104.363281-.441406-4.023437-.671874-8.070313-.683593-12.117187.015625-6.785157.644531-13.554688 1.878906-20.226563.765625-3.753906 1.707031-7.507813 2.816406-11.175781.9375-2.21875 2.046875-4.609375 3.328125-7.253906h216.320313c1.277343 2.644531 2.386719 5.035156 3.328125 7.253906 1.109375 3.667968 2.046875 7.421875 2.8125 11.175781 1.234375 6.671875 1.863281 13.441406 1.878906 20.226563zm0 0" fill="#ffe0b2"/><path d="m324.265625 128v17.066406h-290.132813v-17.066406c.011719-65.976562 53.492188-119.453125 119.46875-119.464844h51.199219c65.972657.011719 119.453125 53.488282 119.464844 119.464844zm0 0" fill="#549414"/><path d="m300.628906 128v17.066406h-266.496094v-17.066406c.011719-65.976562 53.492188-119.453125 119.46875-119.464844h27.5625c65.972657.011719 119.453126 53.488282 119.464844 119.464844zm0 0" fill="#60a917"/><path d="m34.132812 145.066406s42.667969-42.667968 145.066407-42.667968c102.402343 0 145.066406 42.667968 145.066406 42.667968s0 25.601563-145.066406 25.601563c-145.066407 0-145.066407-25.601563-145.066407-25.601563zm0 0" fill="#60a917"/><path d="m298.667969 281.601562h187.730469c9.425781 0 17.066406 7.640626 17.066406 17.066407v187.730469c0 9.425781-7.640625 17.066406-17.066406 17.066406h-187.730469c-9.425781 0-17.066407-7.640625-17.066407-17.066406v-187.730469c0-9.425781 7.640626-17.066407 17.066407-17.066407zm0 0" fill="#283593"/><path d="m298.667969 281.601562h164.09375c9.425781 0 17.066406 7.640626 17.066406 17.066407v187.730469c0 9.425781-7.640625 17.066406-17.066406 17.066406h-164.09375c-9.425781 0-17.066407-7.640625-17.066407-17.066406v-187.730469c0-9.425781 7.640626-17.066407 17.066407-17.066407zm0 0" fill="#3f51b5"/><path d="m469.332031 392.535156c0 42.414063-34.382812 76.796875-76.796875 76.796875-42.417968 0-76.800781-34.382812-76.800781-76.796875 0-42.417968 34.382813-76.800781 76.800781-76.800781 42.414063 0 76.796875 34.382813 76.796875 76.800781zm0 0" fill="#f44335"/><path d="m443.734375 392.535156c0 28.273438-22.925781 51.199219-51.199219 51.199219-28.277344 0-51.203125-22.925781-51.203125-51.199219 0-28.277344 22.925781-51.203125 51.203125-51.203125 28.273438 0 51.199219 22.925781 51.199219 51.203125zm0 0" fill="#ffdc00"/><path d="m179.199219 324.265625c-70.183594 0-128.5625-48.355469-135.796875-112.472656-1.304688-11.589844-.871094-23.308594 1.28125-34.769531.878906-4.355469 1.894531-8.414063 3.046875-12.171876.890625-2.917968 3.269531-5.136718 6.238281-5.824218s6.082031.261718 8.164062 2.492187c2.078126 2.226563 2.8125 5.398438 1.921876 8.3125-1.027344 3.367188-1.898438 6.886719-2.609376 10.417969-1.832031 9.78125-2.195312 19.78125-1.078124 29.671875 6.253906 55.4375 57.34375 97.277344 118.832031 97.277344s112.582031-41.839844 118.839843-97.324219c1.117188-9.925781.746094-19.964844-1.109374-29.78125-.683594-3.375-1.550782-6.890625-2.578126-10.257812-1.378906-4.507813 1.160157-9.277344 5.667969-10.65625 4.507813-1.375 9.277344 1.164062 10.65625 5.671874 1.148438 3.765626 2.164063 7.816407 3.015625 12.015626 1.339844 7.210937 2.023438 14.527343 2.042969 21.859374-.007813 4.351563-.253906 8.699219-.734375 13.023438-7.238281 64.160156-65.617188 112.515625-135.800781 112.515625zm0 0"/><path d="m51.882812 230.398438h-17.75c-14.132812-.015626-25.582031-11.464844-25.597656-25.597657.0625-14.113281 11.488282-25.535156 25.597656-25.601562h17.664063c4.714844 0 8.535156 3.820312 8.535156 8.535156 0 4.710937-3.820312 8.53125-8.535156 8.53125h-17.578125c-2.25-.035156-4.421875.847656-6.003906 2.449219-1.671875 1.582031-2.617188 3.785156-2.613282 6.085937.003907 4.710938 3.820313 8.527344 8.53125 8.53125h17.75c4.710938 0 8.53125 3.820313 8.53125 8.535157 0 4.710937-3.820312 8.53125-8.53125 8.53125zm0 0"/><path d="m324.265625 230.398438h-17.75c-4.710937 0-8.53125-3.820313-8.53125-8.53125 0-4.714844 3.820313-8.535157 8.53125-8.535157h17.75c4.710937-.003906 8.53125-3.820312 8.535156-8.53125.019531-2.226562-.867187-4.367187-2.460937-5.925781-1.578125-1.671875-3.773438-2.613281-6.074219-2.609375h-17.664063c-4.710937 0-8.53125-3.820313-8.53125-8.53125 0-4.714844 3.820313-8.535156 8.53125-8.535156h17.578126c14.144531.023437 25.617187 11.457031 25.6875 25.601562-.015626 14.132813-11.46875 25.582031-25.601563 25.597657zm0 0"/><path d="m34.203125 196.234375c-4.511719.007813-8.242187-3.507813-8.507813-8.007813-.082031-1.507812-.09375-11.875-.09375-13.292968.015626-9.132813.863282-18.242188 2.527344-27.222656.503906-3.039063 2.613282-5.574219 5.511719-6.625 2.898437-1.046876 6.140625-.453126 8.476563 1.558593 2.335937 2.011719 3.402343 5.128907 2.796874 8.152344-1.488281 7.957031-2.238281 16.039063-2.246093 24.136719 0 1.308594-.011719 10.734375.070312 12.324218.230469 4.699219-3.375 8.703126-8.070312 8.96875-.15625.007813-.308594.007813-.464844.007813zm0 0"/><path d="m324.191406 196.265625c-.171875 0-.328125-.007813-.496094-.015625-4.703124-.269531-8.296874-4.296875-8.03125-9 .078126-1.601562.070313-11.015625.070313-12.316406-.007813-8.097656-.761719-16.179688-2.246094-24.140625-.609375-3.023438.460938-6.140625 2.796875-8.152344 2.335938-2.011719 5.574219-2.605469 8.472656-1.554687 2.902344 1.046874 5.007813 3.582031 5.511719 6.621093 1.664063 8.980469 2.511719 18.09375 2.53125 27.226563 0 1.417968-.011719 11.785156-.097656 13.292968-.261719 4.507813-3.992187 8.035157-8.511719 8.039063zm0 0"/><path d="m38.230469 150.058594c-2.261719.011718-4.429688-.878906-6.03125-2.472656-1.601563-1.59375-2.503907-3.761719-2.503907-6.019532v-.085937c.023438-4.707031 3.855469-8.507813 8.5625-8.492188 4.707032.015625 8.511719 3.839844 8.503907 8.546875-.007813 4.707032-3.824219 8.519532-8.53125 8.519532zm0 0"/><path d="m320.171875 150.058594c-2.261719.011718-4.429687-.878906-6.03125-2.472656s-2.503906-3.761719-2.503906-6.019532v-.085937c.023437-4.707031 3.855469-8.507813 8.5625-8.492188s8.511719 3.839844 8.503906 8.546875c-.007813 4.707032-3.824219 8.519532-8.53125 8.519532zm0 0"/><path d="m55.894531 175.917969c-2.261719.007812-4.429687-.882813-6.03125-2.476563-1.601562-1.59375-2.503906-3.757812-2.503906-6.015625v-.085937c0-1.144532.230469-2.277344.675781-3.328125.992188-2.339844 2.152344-4.851563 3.503906-7.640625 1.28125-2.820313 3.988282-4.722656 7.074219-4.976563 3.085938-.25 6.066407 1.1875 7.785157 3.757813 1.722656 2.574218 1.917968 5.878906.507812 8.632812-1.164062 2.417969-2.183594 4.601563-3.054688 6.636719-1.261718 3.300781-4.421874 5.484375-7.957031 5.496094zm0 0"/><path d="m165.460938 111.1875c-4.730469.007812-8.578126-3.800781-8.617188-8.53125-.019531-2.253906.859375-4.421875 2.445312-6.027344 1.585938-1.601562 3.746094-2.503906 6-2.507812h.171876c4.714843 0 8.535156 3.820312 8.535156 8.535156 0 4.710938-3.820313 8.53125-8.535156 8.53125zm0 0"/><path d="m302.507812 175.917969c-3.6875.007812-6.960937-2.351563-8.117187-5.851563-.832031-1.933594-1.800781-4-2.894531-6.273437-1.410156-2.757813-1.21875-6.0625.503906-8.632813 1.722656-2.574218 4.703125-4.011718 7.789062-3.761718 3.082032.253906 5.789063 2.15625 7.070313 4.976562 1.351563 2.792969 2.515625 5.300781 3.503906 7.640625 1.117188 2.640625.839844 5.664063-.742187 8.054687-1.578125 2.390626-4.25 3.835938-7.113282 3.847657zm0 0"/><path d="m153.601562 380.332031c-4.714843 0-8.535156-3.820312-8.535156-8.535156v-58.367187c0-4.714844 3.820313-8.535157 8.535156-8.535157 4.710938 0 8.53125 3.820313 8.53125 8.535157v58.367187c0 4.714844-3.820312 8.535156-8.53125 8.535156zm0 0"/><path d="m204.800781 380.332031c-4.714843 0-8.535156-3.820312-8.535156-8.535156v-58.367187c0-4.714844 3.820313-8.535157 8.535156-8.535157 4.710938 0 8.53125 3.820313 8.53125 8.535157v58.367187c0 4.714844-3.820312 8.535156-8.53125 8.535156zm0 0"/><path d="m332.800781 512h-307.199219c-14.132812-.015625-25.585937-11.46875-25.601562-25.601562v-25.597657c.179688-52.242187 36.609375-97.351562 87.640625-108.527343 3.011719-.714844 6.171875.253906 8.265625 2.535156 2.089844 2.28125 2.785156 5.515625 1.8125 8.453125-.976562 2.9375-3.460938 5.117187-6.5 5.695312-43.179688 9.464844-74 47.640625-74.152344 91.84375v25.597657c.003906 4.710937 3.824219 8.53125 8.535156 8.535156h307.199219c4.710938 0 8.53125 3.820312 8.53125 8.53125 0 4.714844-3.820312 8.535156-8.53125 8.535156zm0 0"/><path d="m324.265625 153.601562c-4.710937 0-8.53125-3.820312-8.53125-8.535156v-17.066406c-.070313-61.238281-49.695313-110.863281-110.933594-110.933594h-51.199219c-61.238281.070313-110.867187 49.695313-110.933593 110.933594v17.066406c0 4.714844-3.820313 8.535156-8.535157 8.535156-4.710937 0-8.53125-3.820312-8.53125-8.535156v-17.066406c.078126-70.660156 57.339844-127.921875 128-128h51.199219c70.660157.078125 127.921875 57.339844 128 128v17.066406c0 4.714844-3.820312 8.535156-8.535156 8.535156zm0 0"/><path d="m179.199219 179.199219c-133.644531 0-153.597657-21.382813-153.597657-34.132813 0-2.261718.898438-4.433594 2.5-6.03125 1.839844-1.84375 46.371094-45.167968 151.097657-45.167968 104.730469 0 149.257812 43.324218 151.101562 45.167968 1.601563 1.597656 2.5 3.769532 2.5 6.03125 0 12.75-19.957031 34.132813-153.601562 34.132813zm-132.726563-33.222657c9.75 5.515626 40.527344 16.15625 132.726563 16.15625 93.488281 0 125.0625-11.050781 133.71875-15.367187-13.96875-10.390625-56.121094-35.832031-133.71875-35.832031-76.257813 0-117.917969 24.207031-132.726563 35.042968zm0 0"/><path d="m196.265625 68.265625h-34.132813c-4.710937 0-8.53125-3.820313-8.53125-8.53125 0-4.714844 3.820313-8.535156 8.53125-8.535156h34.132813c4.714844 0 8.535156 3.820312 8.535156 8.535156 0 4.710937-3.820312 8.53125-8.535156 8.53125zm0 0"/><path d="m145.066406 443.734375c-.222656 0-.441406-.007813-.660156-.027344-2.457031-.191406-4.707031-1.433593-6.179688-3.40625l-59.78125-80.195312c-1.621093-2.21875-2.074218-5.085938-1.214843-7.699219.863281-2.613281 2.929687-4.652344 5.554687-5.476562l36.265625-11.347657c6.910157-2.210937 14.472657-.171875 19.332031 5.214844l47.3125 55.5c2.910157 3.414063 2.675782 8.5-.527343 11.636719l-34.136719 33.363281c-1.589844 1.5625-3.734375 2.4375-5.964844 2.4375zm-45.726562-84.101563 46.734375 62.648438 21.460937-20.980469-42.179687-49.472656c-.015625.058594-.257813-.015625-.554688-.015625-.265625-.003906-.527343.027344-.785156.101562zm0 0"/><path d="m213.332031 443.734375c-2.230469 0-4.371093-.875-5.964843-2.433594l-34.132813-33.367187c-3.207031-3.136719-3.4375-8.21875-.53125-11.632813l47.359375-55.535156c4.820312-5.363281 12.347656-7.386719 19.207031-5.164063l36.34375 11.363282c2.628907.824218 4.699219 2.863281 5.558594 5.480468.859375 2.617188.402344 5.488282-1.226563 7.710938l-1.621093 2.207031-58.152344 77.933594c-1.472656 1.976563-3.722656 3.21875-6.175781 3.410156-.222656.015625-.441406.027344-.664063.027344zm-22.464843-42.433594 21.457031 20.980469 46.722656-62.613281-24.792969-7.757813c-.457031-.121094-.9375-.09375-1.378906.074219zm0 0"/><path d="m179.199219 469.332031c-4.710938 0-8.53125-3.820312-8.53125-8.53125v-58.964843c0-4.714844 3.820312-8.535157 8.53125-8.535157 4.714843 0 8.535156 3.820313 8.535156 8.535157v58.964843c0 4.710938-3.820313 8.53125-8.535156 8.53125zm0 0"/><path d="m110.933594 469.332031h-51.199219c-4.714844 0-8.535156-3.820312-8.535156-8.53125 0-4.714843 3.820312-8.535156 8.535156-8.535156h51.199219c4.710937 0 8.53125 3.820313 8.53125 8.535156 0 4.710938-3.820313 8.53125-8.53125 8.53125zm0 0"/><path d="m486.398438 512h-187.730469c-14.132813-.015625-25.585938-11.46875-25.601563-25.601562v-187.730469c.015625-14.132813 11.46875-25.585938 25.601563-25.601563h187.730469c14.132812.015625 25.585937 11.46875 25.601562 25.601563v187.730469c-.015625 14.132812-11.46875 25.585937-25.601562 25.601562zm-187.730469-221.867188c-4.710938.003907-8.53125 3.824219-8.535157 8.535157v187.730469c.003907 4.710937 3.824219 8.53125 8.535157 8.535156h187.730469c4.714843-.003906 8.53125-3.820313 8.535156-8.535156v-187.730469c-.003906-4.714844-3.820313-8.53125-8.535156-8.535157zm0 0"/><path d="m392.535156 477.867188c-47.128906 0-85.335937-38.207032-85.335937-85.332032 0-47.128906 38.207031-85.335937 85.335937-85.335937 47.125 0 85.332032 38.207031 85.332032 85.335937-.054688 47.105469-38.226563 85.277344-85.332032 85.332032zm0-153.601563c-37.703125 0-68.269531 30.566406-68.269531 68.269531 0 37.699219 30.566406 68.265625 68.269531 68.265625 37.699219 0 68.265625-30.566406 68.265625-68.265625-.042969-37.6875-30.582031-68.226562-68.265625-68.269531zm0 0"/><path d="m392.535156 477.867188c-4.714844 0-8.535156-3.820313-8.535156-8.535157v-153.597656c0-4.714844 3.820312-8.535156 8.535156-8.535156 4.710938 0 8.53125 3.820312 8.53125 8.535156v153.597656c0 4.714844-3.820312 8.535157-8.53125 8.535157zm0 0"/><path d="m469.332031 401.066406h-153.597656c-4.714844 0-8.535156-3.820312-8.535156-8.53125 0-4.714844 3.820312-8.535156 8.535156-8.535156h153.597656c4.714844 0 8.535157 3.820312 8.535157 8.535156 0 4.710938-3.820313 8.53125-8.535157 8.53125zm0 0"/><path d="m338.230469 455.375c-3.453125 0-6.5625-2.078125-7.882813-5.269531-1.324218-3.1875-.59375-6.855469 1.847656-9.296875l108.613282-108.617188c3.34375-3.261718 8.6875-3.226562 11.992187.074219 3.300781 3.304687 3.335938 8.648437.074219 11.992187l-108.613281 108.617188c-1.597657 1.601562-3.769531 2.503906-6.03125 2.5zm0 0"/><path d="m446.84375 455.375c-2.265625.003906-4.4375-.898438-6.035156-2.5l-108.613282-108.617188c-3.261718-3.34375-3.226562-8.6875.078126-11.992187 3.300781-3.300781 8.644531-3.335937 11.988281-.074219l108.613281 108.617188c2.441406 2.441406 3.171875 6.109375 1.851562 9.296875-1.320312 3.191406-4.433593 5.269531-7.882812 5.269531zm0 0"/></svg>