<svg height="512pt" viewBox="0 0 512 512" width="512pt" xmlns="http://www.w3.org/2000/svg"><path d="m341.246094 331.347656-46.335938 54.699219h-253.949218c-25.429688-20.308594-30.550782-58.539063-15.359376-89.769531 17.066407-34.988282 8.53125-78.847656 8.53125-78.847656h290.132813s-8.53125 43.859374 8.535156 78.847656c5.351563 10.929687 8.234375 22.902344 8.445313 35.070312zm0 0" fill="#783e22"/><path d="m317.609375 331.347656-46.421875 54.699219h-230.226562c-25.429688-20.308594-30.550782-58.539063-15.359376-89.769531 17.066407-34.988282 8.53125-78.847656 8.53125-78.847656h266.496094s-8.53125 43.859374 8.535156 78.847656c5.347657 10.929687 8.234376 22.902344 8.445313 35.070312zm0 0" fill="#a0522d"/><path d="m324.179688 196.265625c.085937-1.769531.085937-13.96875.085937-15.636719-.011719-10.503906-.808594-20.996094-2.386719-31.382812h-285.355468c-1.578126 10.386718-2.378907 20.878906-2.390626 31.382812 0 1.667969 0 13.867188.085938 15.636719zm0 0" fill="#91562d"/><path d="m268.96875 360.617188c47.210938 10.152343 80.917969 51.894531 80.898438 100.183593v25.597657c-.027344 9.414062-7.652344 17.039062-17.066407 17.066406h-307.199219c-9.414062-.027344-17.039062-7.652344-17.066406-17.066406v-25.597657c-.019531-48.289062 33.6875-90.03125 80.894532-100.183593zm0 0" fill="#60a917"/><path d="m204.800781 313.429688v58.367187l-25.601562 30.039063-25.597657-30.039063v-58.367187zm0 0" fill="#ffe0b2"/><path d="m179.199219 401.835938-34.132813 33.363281-55.636718-74.582031-2.476563-3.328126-1.621094-2.21875 36.269531-11.347656c3.621094-1.167968 7.59375-.175781 10.238282 2.558594l7.507812 8.789062 2.816406 3.328126 11.4375 13.398437zm0 0" fill="#009688"/><path d="m273.066406 355.070312-1.621094 2.21875-58.113281 77.910157-34.132812-33.363281 25.601562-30.039063 14.25-16.726563 7.507813-8.789062c2.648437-2.734375 6.617187-3.726562 10.242187-2.558594zm0 0" fill="#009688"/><path d="m306.601562 187.734375h17.664063c9.398437.066406 17 7.667969 17.066406 17.066406-.027343 9.414063-7.652343 17.039063-17.066406 17.066407h-290.132813c-9.414062-.027344-17.039062-7.652344-17.066406-17.066407.066406-9.398437 7.667969-17 17.066406-17.066406zm0 0" fill="#dfc49c"/><path d="m307.199219 198.742188c-.011719 4.046874-.238281 8.09375-.683594 12.117187-6.652344 58.964844-61.097656 104.875-127.316406 104.875-3.925781 0-7.851563-.171875-11.773438-.511719-60.757812-5.035156-109.3125-48.898437-115.542969-104.363281-.441406-4.023437-.671874-8.070313-.683593-12.117187.015625-6.785157.644531-13.554688 1.878906-20.226563.765625-3.753906 1.707031-7.507813 2.816406-11.175781.9375-2.21875 2.046875-4.609375 3.328125-7.253906h239.957032c1.277343 2.644531 2.386718 5.035156 3.328124 7.253906 1.109376 3.667968 2.046876 7.421875 2.816407 11.175781 1.230469 6.671875 1.859375 13.441406 1.875 20.226563zm0 0" fill="#dfc49c"/><path d="m283.5625 198.742188c-.011719 4.046874-.238281 8.09375-.683594 12.117187-6.226562 55.378906-54.699218 99.328125-115.453125 104.363281-60.757812-5.035156-109.3125-48.898437-115.542969-104.363281-.441406-4.023437-.671874-8.070313-.683593-12.117187.015625-6.785157.644531-13.554688 1.878906-20.226563.765625-3.753906 1.707031-7.507813 2.816406-11.175781.9375-2.21875 2.046875-4.609375 3.328125-7.253906h216.320313c1.277343 2.644531 2.386719 5.035156 3.328125 7.253906 1.109375 3.667968 2.046875 7.421875 2.8125 11.175781 1.234375 6.671875 1.863281 13.441406 1.878906 20.226563zm0 0" fill="#ffe0b2"/><path d="m324.265625 128v17.066406h-290.132813v-17.066406c.011719-65.976562 53.492188-119.453125 119.46875-119.464844h51.199219c65.972657.011719 119.453125 53.488282 119.464844 119.464844zm0 0" fill="#549414"/><path d="m300.628906 128v17.066406h-266.496094v-17.066406c.011719-65.976562 53.492188-119.453125 119.46875-119.464844h27.5625c65.972657.011719 119.453126 53.488282 119.464844 119.464844zm0 0" fill="#60a917"/><path d="m34.132812 145.066406s42.667969-42.667968 145.066407-42.667968c102.402343 0 145.066406 42.667968 145.066406 42.667968s0 25.601563-145.066406 25.601563c-145.066407 0-145.066407-25.601563-145.066407-25.601563zm0 0" fill="#60a917"/><path d="m298.667969 281.601562h187.730469c9.425781 0 17.066406 7.640626 17.066406 17.066407v187.730469c0 9.425781-7.640625 17.066406-17.066406 17.066406h-187.730469c-9.425781 0-17.066407-7.640625-17.066407-17.066406v-187.730469c0-9.425781 7.640626-17.066407 17.066407-17.066407zm0 0" fill="#283593"/><path d="m298.667969 281.601562h164.09375c9.425781 0 17.066406 7.640626 17.066406 17.066407v187.730469c0 9.425781-7.640625 17.066406-17.066406 17.066406h-164.09375c-9.425781 0-17.066407-7.640625-17.066407-17.066406v-187.730469c0-9.425781 7.640626-17.066407 17.066407-17.066407zm0 0" fill="#3f51b5"/><path d="m469.332031 392.535156c0 42.414063-34.382812 76.796875-76.796875 76.796875-42.417968 0-76.800781-34.382812-76.800781-76.796875 0-42.417968 34.382813-76.800781 76.800781-76.800781 42.414063 0 76.796875 34.382813 76.796875 76.800781zm0 0" fill="#f44335"/><path d="m443.734375 392.535156c0 28.273438-22.925781 51.199219-51.199219 51.199219-28.277344 0-51.203125-22.925781-51.203125-51.199219 0-28.277344 22.925781-51.203125 51.203125-51.203125 28.273438 0 51.199219 22.925781 51.199219 51.203125zm0 0" fill="#ffdc00"/><path d="m179.199219 324.265625c-70.175781 0-128.558594-48.355469-135.800781-112.472656-.476563-4.339844-.71875-8.703125-.730469-13.066407.015625-7.28125.691406-14.542968 2.015625-21.703124.808594-4.105469 1.828125-8.167969 3.050781-12.171876 1.46875-4.382812 6.160156-6.800781 10.582031-5.449218 4.421875 1.347656 6.964844 5.972656 5.734375 10.429687-1.023437 3.367188-1.902343 6.886719-2.609375 10.417969-1.121094 6.09375-1.691406 12.277344-1.707031 18.476562.011719 3.742188.222656 7.480469.632813 11.199219 6.257812 55.433594 57.347656 97.273438 118.832031 97.273438s112.574219-41.839844 118.835937-97.324219c.410156-3.703125.621094-7.425781.632813-11.148438-.019531-6.25-.601563-12.488281-1.734375-18.636718-.683594-3.371094-1.558594-6.890625-2.582032-10.257813-.988281-2.941406-.300781-6.1875 1.796876-8.476562 2.097656-2.289063 5.273437-3.257813 8.289062-2.53125 3.019531.726562 5.402344 3.035156 6.230469 6.027343 1.164062 3.789063 2.183593 7.839844 3.023437 12.015626 2.175782 11.496093 2.613282 23.25 1.308594 34.875-7.242188 64.167968-65.625 112.523437-135.800781 112.523437zm0 0"/><path d="m51.882812 230.398438h-17.75c-14.132812-.015626-25.582031-11.464844-25.597656-25.597657.0625-14.113281 11.488282-25.535156 25.597656-25.601562h17.664063c4.714844 0 8.535156 3.820312 8.535156 8.535156 0 4.710937-3.820312 8.53125-8.535156 8.53125h-17.578125c-2.25-.035156-4.417969.847656-6 2.449219-1.675781 1.582031-2.625 3.78125-2.617188 6.085937 0 4.710938 3.820313 8.53125 8.53125 8.53125h17.75c4.710938 0 8.53125 3.820313 8.53125 8.535157 0 4.710937-3.820312 8.53125-8.53125 8.53125zm0 0"/><path d="m324.265625 230.398438h-17.75c-4.710937 0-8.53125-3.820313-8.53125-8.53125 0-4.714844 3.820313-8.535157 8.53125-8.535157h17.75c4.710937 0 8.53125-3.820312 8.535156-8.53125.019531-2.222656-.863281-4.359375-2.449219-5.917969-1.582031-1.675781-3.78125-2.621093-6.085937-2.617187h-17.664063c-4.710937 0-8.53125-3.820313-8.53125-8.53125 0-4.714844 3.820313-8.535156 8.53125-8.535156h17.578126c14.144531.019531 25.621093 11.457031 25.6875 25.601562-.015626 14.132813-11.46875 25.582031-25.601563 25.597657zm0 0"/><path d="m34.207031 196.234375c-4.511719.011719-8.246093-3.503906-8.507812-8.007813-.089844-1.507812-.097657-11.875-.097657-13.292968.015626-9.136719.863282-18.25 2.53125-27.234375.554688-2.996094 2.664063-5.472657 5.539063-6.492188s6.070313-.429687 8.390625 1.550781c2.320312 1.980469 3.40625 5.042969 2.855469 8.042969-1.492188 7.957031-2.246094 16.035157-2.25 24.132813 0 1.308594-.011719 10.734375.066406 12.324218.234375 4.699219-3.371094 8.703126-8.066406 8.96875-.152344.007813-.308594.007813-.460938.007813zm0 0"/><path d="m324.191406 196.265625c-.171875 0-.332031-.007813-.5-.015625-2.257812-.128906-4.371094-1.148438-5.875-2.839844-1.503906-1.6875-2.277344-3.902344-2.144531-6.160156.070313-1.601562.0625-11.015625.0625-12.316406-.003906-8.097656-.757813-16.175782-2.25-24.132813-.855469-4.636719 2.207031-9.085937 6.839844-9.941406 4.636719-.855469 9.085937 2.207031 9.941406 6.839844 1.671875 8.984375 2.519531 18.097656 2.535156 27.234375 0 1.417968-.007812 11.785156-.101562 13.292968-.257813 4.507813-3.988281 8.035157-8.507813 8.039063zm0 0"/><path d="m38.234375 150.058594c-2.261719.011718-4.429687-.878906-6.03125-2.472656s-2.503906-3.761719-2.503906-6.019532v-.085937c.023437-4.707031 3.855469-8.507813 8.5625-8.492188s8.511719 3.839844 8.503906 8.546875c-.007813 4.707032-3.824219 8.519532-8.53125 8.519532zm0 0"/><path d="m320.171875 150.058594c-2.261719.011718-4.429687-.878906-6.03125-2.472656s-2.503906-3.761719-2.503906-6.019532v-.085937c.023437-4.707031 3.855469-8.507813 8.5625-8.492188s8.511719 3.839844 8.503906 8.546875c-.007813 4.707032-3.824219 8.519532-8.53125 8.519532zm0 0"/><path d="m55.894531 175.917969c-2.261719.007812-4.429687-.878907-6.03125-2.472657-1.601562-1.59375-2.503906-3.761718-2.503906-6.019531v-.085937c0-1.144532.230469-2.273438.675781-3.328125.992188-2.351563 2.15625-4.859375 3.507813-7.648438 2.054687-4.246093 7.15625-6.019531 11.398437-3.96875 4.246094 2.054688 6.019532 7.15625 3.96875 11.398438-1.175781 2.417969-2.191406 4.59375-3.058594 6.628906-1.261718 3.300781-4.421874 5.484375-7.957031 5.496094zm0 0"/><path d="m165.460938 111.1875c-4.730469.011719-8.582032-3.800781-8.617188-8.53125-.019531-2.253906.859375-4.425781 2.445312-6.027344 1.585938-1.601562 3.746094-2.503906 6-2.507812h.171876c4.714843 0 8.535156 3.820312 8.535156 8.535156 0 4.710938-3.820313 8.53125-8.535156 8.53125zm0 0"/><path d="m302.507812 175.917969c-3.6875.011719-6.964843-2.351563-8.117187-5.851563-.832031-1.933594-1.800781-3.992187-2.902344-6.265625-2.050781-4.246093-.277343-9.347656 3.96875-11.402343 4.242188-2.050782 9.34375-.273438 11.398438 3.96875 1.351562 2.792968 2.515625 5.300781 3.507812 7.648437 1.113281 2.640625.835938 5.664063-.742187 8.054687-1.578125 2.390626-4.25 3.835938-7.117188 3.847657zm0 0"/><path d="m153.601562 380.332031c-4.714843 0-8.535156-3.820312-8.535156-8.535156v-58.367187c0-4.714844 3.820313-8.535157 8.535156-8.535157 4.710938 0 8.53125 3.820313 8.53125 8.535157v58.367187c0 4.714844-3.820312 8.535156-8.53125 8.535156zm0 0"/><path d="m204.800781 380.332031c-4.714843 0-8.535156-3.820312-8.535156-8.535156v-58.367187c0-4.714844 3.820313-8.535157 8.535156-8.535157 4.710938 0 8.53125 3.820313 8.53125 8.535157v58.367187c0 4.714844-3.820312 8.535156-8.53125 8.535156zm0 0"/><path d="m332.800781 512h-307.199219c-14.132812-.015625-25.585937-11.46875-25.601562-25.601562v-25.597657c.179688-52.242187 36.613281-97.355469 87.648438-108.527343 4.546874-.84375 8.941406 2.085937 9.90625 6.605468.96875 4.523438-1.84375 8.992188-6.335938 10.078125-43.179688 9.464844-74 47.640625-74.152344 91.84375v25.597657c.003906 4.714843 3.820313 8.53125 8.535156 8.535156h307.199219c4.710938 0 8.53125 3.820312 8.53125 8.53125 0 4.714844-3.820312 8.535156-8.53125 8.535156zm0 0"/><path d="m324.265625 153.601562c-4.710937 0-8.53125-3.820312-8.53125-8.535156v-17.066406c-.070313-61.238281-49.695313-110.863281-110.933594-110.933594h-51.199219c-61.238281.070313-110.863281 49.695313-110.933593 110.933594v17.066406c0 4.714844-3.820313 8.535156-8.535157 8.535156-4.710937 0-8.53125-3.820312-8.53125-8.535156v-17.066406c.074219-70.660156 57.339844-127.921875 128-128h51.199219c70.660157.078125 127.921875 57.339844 128 128v17.066406c0 4.714844-3.820312 8.535156-8.535156 8.535156zm0 0"/><path d="m179.199219 179.199219c-133.640625 0-153.597657-21.382813-153.597657-34.132813 0-2.261718.898438-4.433594 2.5-6.03125 1.839844-1.84375 46.367188-45.167968 151.097657-45.167968 104.734375 0 149.257812 43.324218 151.101562 45.167968 1.601563 1.597656 2.5 3.769532 2.5 6.03125 0 12.75-19.960937 34.132813-153.601562 34.132813zm-132.734375-33.222657c9.761718 5.515626 40.535156 16.15625 132.734375 16.15625 93.492187 0 125.066406-11.050781 133.726562-15.367187-13.976562-10.390625-56.132812-35.832031-133.726562-35.832031-76.257813 0-117.917969 24.207031-132.734375 35.042968zm0 0"/><path d="m196.265625 68.265625h-34.132813c-4.710937 0-8.53125-3.820313-8.53125-8.53125 0-4.714844 3.820313-8.535156 8.53125-8.535156h34.132813c4.714844 0 8.535156 3.820312 8.535156 8.535156 0 4.710937-3.820312 8.53125-8.535156 8.53125zm0 0"/><path d="m145.066406 443.734375c-.214844 0-.441406-.007813-.667968-.027344-2.453126-.191406-4.703126-1.433593-6.171876-3.40625l-59.777343-80.183593c-1.628907-2.21875-2.085938-5.089844-1.222657-7.707032.859376-2.617187 2.929688-4.65625 5.558594-5.476562l36.265625-11.351563c6.910157-2.222656 14.480469-.175781 19.332031 5.226563l47.308594 55.492187c2.914063 3.410157 2.683594 8.496094-.523437 11.632813l-34.136719 33.363281c-1.59375 1.5625-3.734375 2.4375-5.964844 2.4375zm-45.726562-84.101563 46.734375 62.648438 21.460937-20.980469-42.179687-49.472656c0 .042969-.21875-.015625-.542969-.015625-.265625-.003906-.535156.027344-.792969.101562zm0 0"/><path d="m213.332031 443.734375c-2.230469 0-4.371093-.875-5.964843-2.433594l-34.132813-33.367187c-3.210937-3.132813-3.441406-8.222656-.527344-11.632813l47.363281-55.535156c4.820313-5.355469 12.339844-7.382813 19.199219-5.164063l36.351563 11.367188c2.628906.824219 4.703125 2.867188 5.558594 5.484375.859374 2.621094.398437 5.492187-1.234376 7.714844l-1.625 2.207031-58.140624 77.925781c-1.472657 1.972657-3.722657 3.214844-6.175782 3.410157-.230468.015624-.453125.023437-.671875.023437zm-22.464843-42.433594 21.457031 20.980469 46.71875-62.613281-24.792969-7.757813c-.457031-.109375-.933594-.082031-1.375.074219zm0 0"/><path d="m179.199219 469.332031c-4.710938 0-8.53125-3.820312-8.53125-8.53125v-58.964843c0-4.714844 3.820312-8.535157 8.53125-8.535157 4.714843 0 8.535156 3.820313 8.535156 8.535157v58.964843c0 4.710938-3.820313 8.53125-8.535156 8.53125zm0 0"/><path d="m110.933594 469.332031h-51.199219c-4.714844 0-8.535156-3.820312-8.535156-8.53125 0-4.714843 3.820312-8.535156 8.535156-8.535156h51.199219c4.710937 0 8.53125 3.820313 8.53125 8.535156 0 4.710938-3.820313 8.53125-8.53125 8.53125zm0 0"/><path d="m486.398438 512h-187.730469c-14.132813-.015625-25.585938-11.46875-25.601563-25.601562v-187.730469c.015625-14.132813 11.46875-25.585938 25.601563-25.601563h187.730469c14.132812.015625 25.585937 11.46875 25.601562 25.601563v187.730469c-.015625 14.132812-11.46875 25.585937-25.601562 25.601562zm-187.730469-221.867188c-4.714844.003907-8.53125 3.820313-8.535157 8.535157v187.730469c.003907 4.714843 3.820313 8.53125 8.535157 8.535156h187.730469c4.714843-.003906 8.53125-3.820313 8.535156-8.535156v-187.730469c-.003906-4.714844-3.820313-8.53125-8.535156-8.535157zm0 0"/><path d="m392.535156 477.867188c-47.128906 0-85.335937-38.207032-85.335937-85.332032 0-47.128906 38.207031-85.335937 85.335937-85.335937 47.125 0 85.332032 38.207031 85.332032 85.335937-.054688 47.105469-38.226563 85.277344-85.332032 85.332032zm0-153.601563c-37.703125 0-68.269531 30.566406-68.269531 68.269531 0 37.699219 30.566406 68.265625 68.269531 68.265625 37.699219 0 68.265625-30.566406 68.265625-68.265625-.042969-37.6875-30.582031-68.226562-68.265625-68.269531zm0 0"/><path d="m392.535156 477.867188c-4.714844 0-8.535156-3.820313-8.535156-8.535157v-153.597656c0-4.714844 3.820312-8.535156 8.535156-8.535156 4.710938 0 8.53125 3.820312 8.53125 8.535156v153.597656c0 4.714844-3.820312 8.535157-8.53125 8.535157zm0 0"/><path d="m469.332031 401.066406h-153.597656c-4.714844 0-8.535156-3.820312-8.535156-8.53125 0-4.714844 3.820312-8.535156 8.535156-8.535156h153.597656c4.714844 0 8.535157 3.820312 8.535157 8.535156 0 4.710938-3.820313 8.53125-8.535157 8.53125zm0 0"/><path d="m338.226562 455.375c-3.453124 0-6.5625-2.078125-7.886718-5.269531-1.320313-3.1875-.589844-6.855469 1.851562-9.296875l108.617188-108.617188c3.34375-3.261718 8.6875-3.226562 11.992187.074219 3.300781 3.304687 3.335938 8.648437.074219 11.992187l-108.617188 108.617188c-1.597656 1.601562-3.769531 2.503906-6.03125 2.5zm0 0"/><path d="m446.84375 455.375c-2.265625.003906-4.4375-.898438-6.035156-2.5l-108.617188-108.617188c-3.261718-3.34375-3.226562-8.6875.074219-11.992187 3.304687-3.300781 8.648437-3.335937 11.992187-.074219l108.617188 108.617188c2.441406 2.441406 3.171875 6.109375 1.851562 9.296875-1.320312 3.191406-4.433593 5.269531-7.882812 5.269531zm0 0"/><path d="m40.96875 394.582031c-1.898438.003907-3.742188-.628906-5.234375-1.800781-27.835937-21.667969-35.292969-62.847656-17.75-97.929688 15.507813-31.011718 7.875-70.917968 7.800781-71.316406-.824218-4.578125 2.167969-8.96875 6.726563-9.878906 4.558593-.910156 9.003906 1.996094 10.003906 6.535156.375 1.859375 8.902344 45.960938-9.265625 82.292969-13.925781 27.832031-8.464844 60.148437 12.972656 76.832031 2.875 2.242188 4.011719 6.0625 2.824219 9.507813-1.183594 3.449219-4.429687 5.761719-8.074219 5.757812zm0 0"/><path d="m326.476562 290.132812c-3.835937-.003906-7.199218-2.566406-8.21875-6.265624-5.222656-20.824219-6.027343-42.511719-2.359374-63.667969 1.015624-4.519531 5.449218-7.402344 9.992187-6.5 4.542969.902343 7.535156 5.265625 6.742187 9.828125-3.101562 18.550781-2.394531 37.539062 2.074219 55.808594.707031 2.570312.175781 5.320312-1.441406 7.4375-1.613281 2.117187-4.125 3.363281-6.789063 3.359374zm0 0"/></svg>