<svg height="512pt" viewBox="-1 0 512 512.02108" width="512pt" xmlns="http://www.w3.org/2000/svg"><path d="m349.878906 435.210938v10.839843l-.425781 43.691407c-1.535156 7.976562-8.519531 13.738281-16.640625 13.738281h-307.199219c-9.414062-.027344-17.039062-7.652344-17.066406-17.066407v-51.203124c-.019531-47.679688 32.894531-89.054688 79.359375-99.753907h182.613281c46.464844 10.699219 79.378907 52.074219 79.359375 99.753907zm0 0" fill="#283593"/><path d="m326.242188 435.210938v10.839843l-.429688 43.691407c-1.535156 7.976562-8.515625 13.738281-16.636719 13.738281h-283.5625c-9.414062-.027344-17.039062-7.652344-17.066406-17.066407v-51.203124c-.019531-47.679688 32.894531-89.054688 79.359375-99.753907h158.976562c46.460938 10.699219 79.378907 52.074219 79.359376 99.753907zm0 0" fill="#3f51b5"/><path d="m204.8125 287.84375v65.023438l-25.601562 39.167968-25.597657-39.167968v-65.023438zm0 0" fill="#ffe0b2"/><path d="m179.210938 392.035156-.851563.511719-24.746094 15.1875-17.066406 10.410156-51.203125-87.039062 36.269531-14.761719c3.746094-1.53125 8.054688-.167969 10.238281 3.242188l21.761719 33.28125zm0 0" fill="#f5f5f5"/><path d="m273.078125 331.105469-51.199219 87.039062-17.066406-10.410156-24.746094-15.1875-.855468-.511719 25.601562-39.167968 21.757812-33.28125c2.183594-3.410157 6.492188-4.773438 10.242188-3.242188zm0 0" fill="#f5f5f5"/><path d="m213.34375 503.480469-17.066406-68.269531h-34.132813l-17.066406 68.269531zm0 0" fill="#f44335"/><path d="m498.101562 279.734375c-8.5 24.871094-34.507812 39.203125-60.074218 33.109375-1.707032-.332031-3.390625-.789062-5.035156-1.363281-19.597657-6.746094-33.199219-24.632813-34.464844-45.320313-1.265625-20.683594 10.058594-40.097656 28.6875-49.179687s40.894531-6.046875 56.410156 7.691406c15.519531 13.738281 21.234375 35.46875 14.476562 55.0625zm0 0" fill="#37474f"/><path d="m474.464844 279.734375c-5.679688 16.546875-19.425782 29.039063-36.4375 33.109375-1.707032-.332031-3.390625-.789062-5.035156-1.363281-21.492188-7.449219-35.5-28.179688-34.394532-50.898438 1.105469-22.722656 17.058594-41.996093 39.175782-47.320312 1.707031.335937 3.390624.789062 5.03125 1.363281 26.714843 9.25 40.882812 38.390625 31.660156 65.109375zm0 0" fill="#607d8b"/><path d="m486.667969 339.042969-19.457031 56.402343c-.722657 2.148438-2.277344 3.917969-4.3125 4.910157-2.035157.996093-4.386719 1.132812-6.523438.382812l-96.769531-33.367187c-.925781-.296875-1.792969-.757813-2.558594-1.363282-2.851563-2.28125-3.949219-6.117187-2.730469-9.558593l19.457032-56.40625c1.539062-4.445313 6.382812-6.808594 10.835937-5.289063l75.519531 26.027344 21.332032 7.339844c2.152343.742187 3.914062 2.316406 4.890624 4.371094.976563 2.050781 1.09375 4.410156.316407 6.550781zm0 0" fill="#0377bc"/><path d="m463.03125 330.335938-19.457031 56.492187c-.730469 2.140625-2.289063 3.894531-4.328125 4.875-2.039063.976563-4.382813 1.097656-6.507813.332031l-75.691406-26.027344c-2.851563-2.28125-3.949219-6.117187-2.730469-9.558593l19.457032-56.40625c1.539062-4.445313 6.382812-6.808594 10.835937-5.289063l75.519531 26.027344c2.90625 2.242188 4.070313 6.078125 2.902344 9.554688zm0 0" fill="#02a9f4"/><path d="m440.246094 395.191406-33.449219 96.769532c-1.464844 4.28125-4.574219 7.804687-8.640625 9.789062-4.066406 1.988281-8.757812 2.269531-13.035156.789062l-15.1875-5.289062-17.070313-5.886719c-4.285156-1.457031-7.816406-4.566406-9.804687-8.636719-1.984375-4.066406-2.265625-8.761718-.773438-13.039062l32.765625-94.804688.683594-1.964843zm0 0" fill="#283593"/><path d="m416.523438 389.21875-33.363282 96.765625c-2.027344 5.886719-7.097656 10.203125-13.226562 11.265625l-17.070313-5.886719c-4.285156-1.457031-7.816406-4.566406-9.804687-8.636719-1.984375-4.066406-2.265625-8.761718-.773438-13.039062l32.765625-94.804688zm0 0" fill="#3f51b5"/><path d="m324.277344 149.347656c0 1.363282 0 19.882813-.085938 21.332032h-289.960937c-.085938-1.449219-.085938-19.96875-.085938-21.332032.984375-74.363281 58.996094-135.457031 133.207031-140.289062 3.925782-.34375 7.847657-.511719 11.859376-.511719 78.933593-1.15625 143.867187 61.867187 145.066406 140.800781zm0 0" fill="#37474f"/><path d="m300.640625 149.347656c0 1.363282 0 19.882813-.085937 21.332032h-266.324219c-.085938-1.449219-.085938-19.96875-.085938-21.332032.984375-74.363281 58.996094-135.457031 133.207031-140.289062 74.242188 4.792968 132.296876 65.898437 133.289063 140.289062zm0 0" fill="#607d8b"/><path d="m306.613281 162.144531h17.664063c9.398437.070313 17 7.671875 17.066406 17.066407-.027344 9.414062-7.652344 17.039062-17.066406 17.066406h-290.132813c-9.414062-.027344-17.039062-7.652344-17.066406-17.066406.066406-9.394532 7.667969-16.996094 17.066406-17.066407zm0 0" fill="#dfc49c"/><path d="m204.8125 407.734375v18.945313c-.027344 9.414062-7.652344 17.039062-17.066406 17.066406h-17.066406c-9.425782 0-17.066407-7.640625-17.066407-17.066406v-18.945313l24.746094-15.1875h1.707031zm0 0" fill="#f44335"/><path d="m256.011719 452.277344h51.199219c4.714843 0 8.535156 3.824218 8.535156 8.535156v34.132812c0 4.714844-3.820313 8.535157-8.535156 8.535157h-51.199219c-4.710938 0-8.535157-3.820313-8.535157-8.535157v-34.132812c0-4.710938 3.824219-8.535156 8.535157-8.535156zm0 0" fill="#f5f5f5"/><path d="m307.210938 173.152344c-.011719 4.050781-.238282 8.09375-.683594 12.117187-6.652344 58.96875-61.097656 104.875-127.316406 104.875-3.925782 0-7.851563-.167969-11.773438-.511719-60.757812-5.035156-109.3125-48.894531-115.542969-104.363281-.441406-4.023437-.671875-8.066406-.683593-12.117187.015624-6.78125.644531-13.550782 1.878906-20.222656.765625-3.753907 1.707031-7.507813 2.816406-11.179688 9.128906-20.90625 31.65625-63.058594 67.582031-70.996094 15.027344-2.957031 30.617188-.351562 43.863281 7.339844h.085938c4.066406 2.175781 8 4.597656 11.773438 7.253906 9.5625-7.046875 20.492187-12.019531 32.085937-14.59375 49.835937-10.238281 80.300781 45.824219 91.222656 70.996094 1.109375 3.671875 2.046875 7.425781 2.816407 11.179688 1.230468 6.671874 1.859374 13.441406 1.875 20.222656zm0 0" fill="#dfc49c"/><path d="m283.574219 173.152344c-.011719 4.050781-.238281 8.09375-.683594 12.117187-6.226563 55.382813-54.699219 99.328125-115.453125 104.363281-60.757812-5.035156-109.3125-48.894531-115.542969-104.363281-.441406-4.023437-.671875-8.066406-.683593-12.117187.015624-6.78125.644531-13.550782 1.878906-20.222656.765625-3.753907 1.707031-7.507813 2.816406-11.179688 9.128906-20.90625 31.65625-63.058594 67.582031-70.996094 11.597657 2.574219 22.523438 7.546875 32.085938 14.59375 3.773437-2.65625 7.707031-5.078125 11.777343-7.253906h.085938c4.066406 2.175781 8 4.597656 11.773438 7.253906 9.5625-7.046875 20.492187-12.019531 32.085937-14.59375 36.011719 7.9375 58.453125 50.089844 67.585937 70.996094 1.109376 3.671875 2.046876 7.425781 2.8125 11.179688 1.234376 6.671874 1.863282 13.441406 1.878907 20.222656zm0 0" fill="#ffe0b2"/><path d="m179.210938 298.679688c-70.175782 0-128.558594-48.359376-135.800782-112.476563-.476562-4.339844-.71875-8.699219-.730468-13.066406.015624-7.277344.691406-14.542969 2.015624-21.699219.808594-4.105469 1.828126-8.171875 3.050782-12.175781 1.46875-4.382813 6.160156-6.796875 10.582031-5.449219 4.421875 1.351562 6.964844 5.976562 5.734375 10.433594-1.023438 3.367187-1.902344 6.882812-2.609375 10.417968-1.121094 6.09375-1.691406 12.277344-1.707031 18.472657.011718 3.742187.222656 7.480469.632812 11.199219 6.257813 55.433593 57.347656 97.277343 118.832032 97.277343 61.484374 0 112.574218-41.84375 118.835937-97.324219.410156-3.703124.621094-7.425781.632813-11.152343-.019532-6.25-.601563-12.484375-1.734376-18.632813-.683593-3.375-1.558593-6.890625-2.582031-10.257812-.988281-2.945313-.300781-6.191406 1.796875-8.476563 2.097656-2.289062 5.273438-3.257812 8.289063-2.53125 3.019531.726563 5.402343 3.03125 6.230469 6.023438 1.164062 3.792969 2.183593 7.84375 3.023437 12.019531 2.175781 11.492188 2.613281 23.246094 1.308594 34.875-7.242188 64.164062-65.625 112.523438-135.800781 112.523438zm0 0"/><path d="m51.894531 204.8125h-17.75c-14.132812-.015625-25.582031-11.46875-25.597656-25.601562.0625-14.109376 11.488281-25.53125 25.597656-25.597657h17.664063c4.714844 0 8.535156 3.820313 8.535156 8.53125 0 4.714844-3.820312 8.535157-8.535156 8.535157h-17.578125c-2.25-.039063-4.417969.847656-6 2.449218-1.675781 1.578125-2.621094 3.78125-2.617188 6.082032 0 4.714843 3.820313 8.53125 8.53125 8.535156h17.75c4.710938 0 8.535157 3.820312 8.535157 8.53125 0 4.714844-3.824219 8.535156-8.535157 8.535156zm0 0"/><path d="m324.277344 204.8125h-17.75c-4.710938 0-8.53125-3.820312-8.53125-8.535156 0-4.710938 3.820312-8.53125 8.53125-8.53125h17.75c4.710937-.003906 8.53125-3.820313 8.535156-8.535156.019531-2.222657-.863281-4.359376-2.449219-5.914063-1.582031-1.675781-3.78125-2.621094-6.085937-2.617187h-17.664063c-4.710937 0-8.53125-3.820313-8.53125-8.535157 0-4.710937 3.820313-8.53125 8.53125-8.53125h17.578125c14.144532.019531 25.621094 11.453125 25.6875 25.597657-.015625 14.132812-11.46875 25.585937-25.601562 25.601562zm0 0"/><path d="m324.203125 170.679688c-.171875 0-.332031-.007813-.5-.015626-4.699219-.273437-8.289063-4.300781-8.019531-9 .070312-1.601562.0625-11.019531.0625-12.316406-1.28125-74.183594-62.347656-133.34375-136.535156-132.269531-74.183594-1.074219-135.253907 58.085937-136.53125 132.269531 0 1.304688-.011719 10.730469.066406 12.324219.234375 4.695313-3.371094 8.703125-8.066406 8.964844-2.253907.140625-4.46875-.625-6.15625-2.125-1.683594-1.503907-2.695313-3.621094-2.8125-5.875-.089844-1.507813-.097657-11.875-.097657-13.289063 1.289063-83.605468 69.992188-150.398437 153.597657-149.3359372 83.609374-1.0624998 152.308593 65.7304692 153.601562 149.3359372 0 1.414063-.007812 11.78125-.101562 13.289063-.257813 4.511719-3.988282 8.035156-8.507813 8.042969zm0 0"/><path d="m55.90625 150.328125c-2.261719.011719-4.429688-.878906-6.03125-2.472656s-2.503906-3.757813-2.503906-6.019531c0-1.195313.242187-2.378907.707031-3.480469 10.242187-23.542969 32.933594-64.585938 69.867187-75 21.136719-6.007813 43.410157-.917969 66.160157 15 3.785156 2.726562 4.679687 7.992187 2.003906 11.816406s-7.925781 4.789063-11.789063 2.164063c-18.339843-12.839844-35.730468-17.066407-51.738281-12.554688-31.136719 8.78125-51.371093 48.273438-58.742187 65.132812-1.285156 3.257813-4.429688 5.40625-7.933594 5.414063zm0 0"/><path d="m302.519531 150.328125c-3.660156.011719-6.917969-2.316406-8.09375-5.78125-7.5-17.066406-27.675781-56.050781-58.582031-64.769531-16.007812-4.515625-33.398438-.28125-51.742188 12.558594-2.496093 1.796874-5.769531 2.113281-8.5625.824218-2.792968-1.289062-4.675781-3.980468-4.929687-7.046875-.253906-3.066406 1.164063-6.03125 3.710937-7.761719 22.757813-15.914062 44.980469-20.992187 66.15625-15 36.933594 10.417969 59.625 51.457032 69.867188 75 1.148438 2.644532.886719 5.683594-.6875 8.097657-1.574219 2.410156-4.257812 3.867187-7.136719 3.878906zm0 0"/><path d="m153.613281 361.398438c-4.714843 0-8.535156-3.820313-8.535156-8.53125v-65.019532c0-4.714844 3.820313-8.535156 8.535156-8.535156 4.710938 0 8.53125 3.820312 8.53125 8.535156v65.019532c0 4.710937-3.820312 8.53125-8.53125 8.53125zm0 0"/><path d="m204.8125 361.398438c-4.714844 0-8.535156-3.820313-8.535156-8.53125v-65.019532c0-4.714844 3.820312-8.535156 8.535156-8.535156 4.710938 0 8.53125 3.820312 8.53125 8.535156v65.019532c0 4.710937-3.820312 8.53125-8.53125 8.53125zm0 0"/><path d="m349.878906 454.582031c-2.265625.003907-4.433594-.894531-6.035156-2.496093-1.601562-1.601563-2.5-3.773438-2.5-6.035157v-10.839843c.210938-43.765626-30.039062-81.796876-72.730469-91.441407-3.007812-.648437-5.429687-2.863281-6.34375-5.796875-.914062-2.9375-.179687-6.136718 1.921875-8.378906 2.101563-2.242188 5.25-3.179688 8.238282-2.457031 50.464843 11.394531 86.226562 56.339843 85.980468 108.074219v10.839843c.003906 2.261719-.894531 4.433594-2.496094 6.035157-1.601562 1.601562-3.773437 2.5-6.035156 2.496093zm0 0"/><path d="m332.8125 512.011719h-307.199219c-14.132812-.015625-25.5859372-11.46875-25.6015622-25.597657v-51.203124c-.2421878-51.734376 35.5156252-96.679688 85.9843752-108.074219 2.988281-.722657 6.132812.214843 8.234375 2.457031 2.105469 2.242188 2.839843 5.441406 1.925781 8.378906-.917969 2.933594-3.339844 5.148438-6.34375 5.796875-42.695312 9.644531-72.945312 47.675781-72.734375 91.441407v51.203124c.003906 4.710938 3.820313 8.527344 8.535156 8.53125h307.199219c4.003906-.011718 7.449219-2.832031 8.25-6.757812.554688-3 2.664062-5.472656 5.539062-6.492188 2.871094-1.019531 6.070313-.429687 8.390626 1.550782 2.320312 1.976562 3.40625 5.042968 2.851562 8.042968-2.253906 12.039063-12.78125 20.753907-25.03125 20.722657zm0 0"/><path d="m136.546875 426.679688c-.699219 0-1.394531-.085938-2.070313-.257813-2.222656-.550781-4.128906-1.972656-5.289062-3.949219l-51.199219-87c-1.253906-2.136718-1.519531-4.710937-.726562-7.054687.792969-2.347657 2.566406-4.234375 4.859375-5.167969l36.242187-14.777344c7.539063-3.058594 16.191407-.34375 20.632813 6.476563l47.359375 72.433593c1.261719 1.929688 1.6875 4.289063 1.179687 6.542969-.503906 2.25-1.902344 4.199219-3.871094 5.402344l-42.667968 26.101563c-1.339844.816406-2.878906 1.25-4.449219 1.25zm-38.84375-91.359376 41.792969 71.015626 27.757812-16.980469-42.542968-65.066407zm0 0"/><path d="m221.878906 426.679688c-1.570312 0-3.109375-.433594-4.449218-1.25l-42.667969-26.101563c-1.96875-1.203125-3.363281-3.152344-3.871094-5.402344s-.082031-4.613281 1.179687-6.542969l47.359376-72.425781c4.449218-6.8125 13.09375-9.527343 20.640624-6.484375l36.234376 14.773438c2.292968.9375 4.066406 2.820312 4.859374 5.167968.792969 2.347657.53125 4.921876-.726562 7.058594l-51.199219 87c-1.160156 1.972656-3.066406 3.398438-5.289062 3.949219-.675781.171875-1.371094.257813-2.070313.257813zm-30.71875-37.324219 27.765625 16.980469 41.792969-71.015626-27.105469-11.050781zm0 0"/><path d="m180.066406 401.078125h-1.707031c-4.714844 0-8.535156-3.820313-8.535156-8.53125 0-4.714844 3.820312-8.535156 8.535156-8.535156h1.707031c4.710938 0 8.53125 3.820312 8.53125 8.535156 0 4.710937-3.820312 8.53125-8.53125 8.53125zm0 0"/><path d="m187.746094 452.277344h-17.066406c-14.136719-.003906-25.59375-11.460938-25.601563-25.597656v-18.945313c0-4.710937 3.820313-8.53125 8.535156-8.53125 4.710938 0 8.53125 3.820313 8.53125 8.53125v18.945313c0 4.710937 3.820313 8.53125 8.535157 8.53125h17.066406c4.710937 0 8.53125-3.820313 8.53125-8.53125v-18.945313c0-4.710937 3.820312-8.53125 8.535156-8.53125 4.710938 0 8.53125 3.820313 8.53125 8.53125v18.945313c-.015625 14.132812-11.464844 25.585937-25.597656 25.597656zm0 0"/><path d="m145.085938 512.011719c-.792969 0-1.585938-.109375-2.347657-.324219-4.53125-1.296875-7.15625-6.015625-5.867187-10.550781l17.066406-59.730469c.835938-2.933594 3.171875-5.199219 6.132812-5.941406 2.957032-.738282 6.085938.152344 8.207032 2.34375s2.914062 5.347656 2.074218 8.277344l-17.066406 59.734374c-1.046875 3.660157-4.390625 6.1875-8.199218 6.191407zm0 0"/><path d="m213.335938 512.011719c-3.808594-.003907-7.152344-2.53125-8.199219-6.191407l-17.066407-59.734374c-1.292968-4.53125 1.332032-9.253907 5.867188-10.546876 4.53125-1.292968 9.257812 1.332032 10.550781 5.867188l17.066407 59.730469c1.289062 4.535156-1.335938 9.253906-5.867188 10.550781-.765625.214844-1.554688.324219-2.351562.324219zm0 0"/><path d="m102.410156 477.878906h-42.664062c-4.714844 0-8.535156-3.820312-8.535156-8.53125 0-4.714844 3.820312-8.535156 8.535156-8.535156h42.664062c4.714844 0 8.535156 3.820312 8.535156 8.535156 0 4.710938-3.820312 8.53125-8.535156 8.53125zm0 0"/><path d="m449.796875 322.8125c-25.992187.035156-49.023437-16.738281-56.96875-41.484375-7.945313-24.75 1.019531-51.792969 22.171875-66.894531 21.15625-15.101563 49.644531-14.796875 70.46875.757812 20.824219 15.550782 29.207031 42.785156 20.730469 67.355469-8.320313 24.050781-30.953125 40.207031-56.402344 40.265625zm-.09375-102.449219c-21.738281.011719-39.992187 16.363281-42.390625 37.96875-2.398438 21.609375 11.828125 41.5625 33.035156 46.339844 21.207032 4.777344 42.617188-7.148437 49.71875-27.691406 4.484375-13.050781 2.394532-27.460938-5.617187-38.695313-8.007813-11.234375-20.949219-17.910156-34.746094-17.921875zm0 0"/><path d="m459.160156 409.761719c-1.898437.003906-3.785156-.316407-5.582031-.9375l-96.789063-33.421875c-8.898437-3.085938-13.621093-12.789063-10.566406-21.699219l19.5-56.464844c3.078125-8.902343 12.785156-13.628906 21.691406-10.566406l96.796876 33.425781c8.898437 3.082032 13.625 12.785156 10.566406 21.691406l-19.5 56.464844c-2.367188 6.882813-8.839844 11.503906-16.117188 11.511719zm-77.304687-106.957031-19.503907 56.464843 96.792969 33.417969h.007813l.007812.007812 19.484375-56.46875zm0 0"/><path d="m390.703125 512.019531c-2.851563-.003906-5.679687-.480469-8.375-1.414062l-32.265625-11.136719c-13.347656-4.636719-20.429688-19.195312-15.84375-32.558594l33.417969-96.792968c.738281-2.136719 2.296875-3.898438 4.328125-4.890626 2.035156-.988281 4.382812-1.132812 6.523437-.390624l64.523438 22.28125c4.453125 1.539062 6.820312 6.394531 5.285156 10.851562l-33.417969 96.792969c-3.566406 10.308593-13.265625 17.230469-24.175781 17.257812zm-9.714844-128.261719-30.636719 88.722657c-1.53125 4.457031.832032 9.316406 5.285157 10.859375l32.253906 11.132812c4.453125 1.515625 9.292969-.835937 10.851563-5.273437l30.632812-88.726563zm0 0"/><path d="m463.84375 246.921875c0 4.710937-3.820312 8.53125-8.535156 8.53125-4.710938 0-8.53125-3.820313-8.53125-8.53125 0-4.714844 3.820312-8.535156 8.53125-8.535156 4.714844 0 8.535156 3.820312 8.535156 8.535156zm0 0"/><path d="m442.140625 257.484375c0 4.710937-3.820313 8.53125-8.53125 8.53125-4.714844 0-8.535156-3.820313-8.535156-8.53125 0-4.714844 3.820312-8.535156 8.535156-8.535156 4.710937 0 8.53125 3.820312 8.53125 8.535156zm0 0"/><path d="m474.40625 268.621094c0 4.714844-3.820312 8.535156-8.535156 8.535156-4.710938 0-8.53125-3.820312-8.53125-8.535156 0-4.710938 3.820312-8.53125 8.53125-8.53125 4.714844 0 8.535156 3.820312 8.535156 8.53125zm0 0"/><path d="m429.953125 355.027344c-.945313 0-1.886719-.15625-2.78125-.464844l-16.128906-5.566406c-2.898438-.980469-5.050781-3.441406-5.640625-6.445313-.585938-3 .480468-6.089843 2.792968-8.09375 2.316407-2 5.527344-2.609375 8.414063-1.59375l16.125 5.566407c3.941406 1.359374 6.324219 5.367187 5.632813 9.476562-.6875 4.113281-4.246094 7.121094-8.414063 7.121094zm0 0"/><path d="m315.746094 512.011719h-68.269532c-4.710937 0-8.53125-3.820313-8.53125-8.53125v-51.203125c0-4.710938 3.820313-8.53125 8.53125-8.53125h68.269532c4.710937 0 8.53125 3.820312 8.53125 8.53125v51.203125c0 4.710937-3.820313 8.53125-8.53125 8.53125zm-59.734375-17.066407h51.199219v-34.132812h-51.199219zm0 0"/><path d="m281.613281 460.8125c-4.714843 0-8.535156-3.820312-8.535156-8.535156v-25.597656c0-4.714844 3.820313-8.535157 8.535156-8.535157 4.710938 0 8.53125 3.820313 8.53125 8.535157v25.597656c0 4.714844-3.820312 8.535156-8.53125 8.535156zm0 0"/></svg>