<svg height="512pt" viewBox="-1 0 512 512.02108" width="512pt" xmlns="http://www.w3.org/2000/svg"><path d="m317.453125 360.460938h-276.480469c-25.429687-20.820313-30.550781-59.988282-15.359375-91.90625 17.066407-35.921876 8.53125-80.808594 8.53125-80.808594h290.132813s-8.53125 44.886718 8.535156 80.808594c15.1875 31.917968 10.070312 71.085937-15.359375 91.90625zm0 0" fill="#37474f"/><path d="m293.8125 360.460938h-252.839844c-25.429687-20.820313-30.550781-59.988282-15.359375-91.90625 17.066407-35.921876 8.53125-80.808594 8.53125-80.808594h266.496094s-8.53125 44.886718 8.535156 80.808594c15.1875 31.917968 10.066407 71.085937-15.363281 91.90625zm0 0" fill="#607d8b"/><path d="m349.878906 435.210938v10.839843l-.425781 43.691407c-1.535156 7.976562-8.519531 13.738281-16.640625 13.738281h-307.199219c-9.414062-.027344-17.039062-7.652344-17.066406-17.066407v-51.203124c-.019531-47.679688 32.894531-89.054688 79.359375-99.753907h182.613281c46.464844 10.699219 79.378907 52.074219 79.359375 99.753907zm0 0" fill="#283593"/><path d="m326.242188 435.210938v10.839843l-.429688 43.691407c-1.535156 7.976562-8.515625 13.738281-16.636719 13.738281h-283.5625c-9.414062-.027344-17.039062-7.652344-17.066406-17.066407v-51.203124c-.019531-47.679688 32.894531-89.054688 79.359375-99.753907h158.976562c46.460938 10.699219 79.378907 52.074219 79.359376 99.753907zm0 0" fill="#3f51b5"/><path d="m204.8125 287.84375v65.023438l-25.601562 39.167968-25.597657-39.167968v-65.023438zm0 0" fill="#ffe0b2"/><path d="m179.210938 392.035156-.851563.511719-24.746094 15.1875-17.066406 10.410156-51.203125-87.039062 36.269531-14.761719c3.746094-1.53125 8.054688-.167969 10.238281 3.242188l21.761719 33.28125zm0 0" fill="#f5f5f5"/><path d="m273.078125 331.105469-51.199219 87.039062-17.066406-10.410156-24.746094-15.1875-.855468-.511719 25.601562-39.167968 21.757812-33.28125c2.183594-3.410157 6.492188-4.773438 10.242188-3.242188zm0 0" fill="#f5f5f5"/><path d="m213.34375 503.480469-17.066406-68.269531h-34.132813l-17.066406 68.269531zm0 0" fill="#f44335"/><path d="m498.101562 279.734375c-8.5 24.871094-34.507812 39.203125-60.074218 33.109375-1.707032-.332031-3.390625-.789062-5.035156-1.363281-19.597657-6.746094-33.199219-24.632813-34.464844-45.320313-1.265625-20.683594 10.058594-40.097656 28.6875-49.179687s40.894531-6.046875 56.410156 7.691406c15.519531 13.738281 21.234375 35.46875 14.476562 55.0625zm0 0" fill="#37474f"/><path d="m474.464844 279.734375c-5.679688 16.546875-19.425782 29.039063-36.4375 33.109375-1.707032-.332031-3.390625-.789062-5.035156-1.363281-21.492188-7.449219-35.5-28.179688-34.394532-50.898438 1.105469-22.722656 17.058594-41.996093 39.175782-47.320312 1.707031.335937 3.390624.789062 5.03125 1.363281 26.714843 9.25 40.882812 38.390625 31.660156 65.109375zm0 0" fill="#607d8b"/><path d="m486.667969 339.042969-19.457031 56.402343c-.722657 2.148438-2.277344 3.917969-4.3125 4.910157-2.035157.996093-4.386719 1.132812-6.523438.382812l-96.769531-33.367187c-.925781-.296875-1.792969-.757813-2.558594-1.363282-2.851563-2.28125-3.949219-6.117187-2.730469-9.558593l19.457032-56.40625c1.539062-4.445313 6.382812-6.808594 10.835937-5.289063l75.519531 26.027344 21.332032 7.339844c2.152343.742187 3.914062 2.316406 4.890624 4.371094.976563 2.050781 1.09375 4.410156.316407 6.550781zm0 0" fill="#0377bc"/><path d="m463.03125 330.335938-19.457031 56.492187c-.730469 2.140625-2.289063 3.894531-4.328125 4.875-2.039063.976563-4.382813 1.097656-6.507813.332031l-75.691406-26.027344c-2.851563-2.28125-3.949219-6.117187-2.730469-9.558593l19.457032-56.40625c1.539062-4.445313 6.382812-6.808594 10.835937-5.289063l75.519531 26.027344c2.90625 2.242188 4.070313 6.078125 2.902344 9.554688zm0 0" fill="#02a9f4"/><path d="m440.246094 395.191406-33.449219 96.769532c-1.464844 4.28125-4.574219 7.804687-8.640625 9.789062-4.066406 1.988281-8.757812 2.269531-13.035156.789062l-15.1875-5.289062-17.070313-5.886719c-4.285156-1.457031-7.816406-4.566406-9.804687-8.636719-1.984375-4.066406-2.265625-8.761718-.773438-13.039062l32.765625-94.804688.683594-1.964843zm0 0" fill="#283593"/><path d="m416.523438 389.21875-33.363282 96.765625c-2.027344 5.886719-7.097656 10.203125-13.226562 11.265625l-17.070313-5.886719c-4.285156-1.457031-7.816406-4.566406-9.804687-8.636719-1.984375-4.066406-2.265625-8.761718-.773438-13.039062l32.765625-94.804688zm0 0" fill="#3f51b5"/><path d="m324.277344 149.347656c0 1.363282 0 19.882813-.085938 21.332032h-289.960937c-.085938-1.449219-.085938-19.96875-.085938-21.332032.984375-74.363281 58.996094-135.457031 133.207031-140.289062 3.925782-.34375 7.847657-.511719 11.859376-.511719 78.933593-1.15625 143.867187 61.867187 145.066406 140.800781zm0 0" fill="#37474f"/><path d="m300.640625 149.347656c0 1.363282 0 19.882813-.085937 21.332032h-266.324219c-.085938-1.449219-.085938-19.96875-.085938-21.332032.984375-74.363281 58.996094-135.457031 133.207031-140.289062 74.242188 4.792968 132.296876 65.898437 133.289063 140.289062zm0 0" fill="#607d8b"/><path d="m306.613281 162.144531h17.664063c9.398437.070313 17 7.671875 17.066406 17.066407-.027344 9.414062-7.652344 17.039062-17.066406 17.066406h-290.132813c-9.414062-.027344-17.039062-7.652344-17.066406-17.066406.066406-9.394532 7.667969-16.996094 17.066406-17.066407zm0 0" fill="#dfc49c"/><path d="m204.8125 407.734375v18.945313c-.027344 9.414062-7.652344 17.039062-17.066406 17.066406h-17.066406c-9.425782 0-17.066407-7.640625-17.066407-17.066406v-18.945313l24.746094-15.1875h1.707031zm0 0" fill="#f44335"/><path d="m256.011719 452.277344h51.199219c4.714843 0 8.535156 3.824218 8.535156 8.535156v34.132812c0 4.714844-3.820313 8.535157-8.535156 8.535157h-51.199219c-4.710938 0-8.535157-3.820313-8.535157-8.535157v-34.132812c0-4.710938 3.824219-8.535156 8.535157-8.535156zm0 0" fill="#f5f5f5"/><path d="m307.210938 173.152344c-.011719 4.050781-.238282 8.09375-.683594 12.117187-.425782 3.671875-1.023438 7.339844-1.789063 10.925781-12.007812 47.769532-51.296875 83.804688-99.925781 91.648438-8.445312 1.550781-17.015625 2.320312-25.601562 2.300781-4.011719 0-7.933594-.167969-11.773438-.511719-4.640625-.332031-9.253906-.929687-13.824219-1.789062-48.773437-7.789062-88.140625-44.027344-99.925781-91.992188-.769531-3.496093-1.367188-6.996093-1.792969-10.582031-.441406-4.023437-.671875-8.066406-.683593-12.117187-.019532-3.675782.183593-7.351563.597656-11.007813.257812-3.070312.769531-6.144531 1.28125-9.214843.597656-2.988282 1.363281-5.886719 2.132812-8.789063l4.523438-24.660156c43.175781-10.667969 65.109375-29.441407 75.773437-43.179688 4.125-4.921875 7.355469-10.523437 9.558594-16.554687 0 0 27.136719 47.53125 105.644531 51.710937 2.558594.171875 5.117188.257813 7.847656.257813 7.691407.15625 15.378907-.101563 23.042969-.769532 8.921875 10.414063 16.308594 22.050782 21.929688 34.5625.683593 2.472657 1.28125 4.949219 1.792969 7.421876.511718 3.070312 1.023437 6.144531 1.277343 9.214843.417969 3.65625.617188 7.332031.597657 11.007813zm0 0" fill="#dfc49c"/><path d="m283.574219 173.152344c-.011719 4.050781-.238281 8.09375-.683594 12.117187-.425781 3.671875-1.023437 7.339844-1.789063 10.925781-12.007812 47.769532-51.300781 83.804688-99.925781 91.648438-4.542969.859375-9.128906 1.457031-13.738281 1.789062-4.640625-.332031-9.253906-.929687-13.824219-1.789062-48.773437-7.789062-88.140625-44.027344-99.925781-91.992188-.769531-3.496093-1.367188-6.996093-1.792969-10.582031-.441406-4.023437-.671875-8.066406-.683593-12.117187-.019532-3.675782.183593-7.351563.597656-11.007813.257812-3.070312.769531-6.144531 1.28125-9.214843.597656-2.988282 1.363281-5.886719 2.132812-8.789063l4.523438-24.660156c43.175781-10.667969 65.109375-29.441407 75.773437-43.179688 17.582031 16.296875 53.25 38.484375 115.203125 35.15625 2.386719-.085937 4.777344-.253906 7.25-.511719.222656.238282.421875.496094.597656.769532 8.722657 10.164062 15.910157 21.546875 21.335938 33.792968.679688 2.472657 1.277344 4.949219 1.789062 7.421876.515626 3.070312 1.027344 6.144531 1.28125 9.214843.417969 3.65625.617188 7.332031.597657 11.007813zm0 0" fill="#ffe0b2"/><path d="m51.894531 204.8125h-17.75c-14.132812-.015625-25.582031-11.46875-25.597656-25.601562.0625-14.109376 11.488281-25.53125 25.597656-25.597657h17.664063c4.714844 0 8.535156 3.820313 8.535156 8.53125 0 4.714844-3.820312 8.535157-8.535156 8.535157h-17.578125c-2.25-.039063-4.417969.847656-6 2.449218-1.675781 1.578125-2.621094 3.78125-2.617188 6.082032 0 4.714843 3.820313 8.53125 8.53125 8.535156h17.75c4.710938 0 8.535157 3.820312 8.535157 8.53125 0 4.714844-3.824219 8.535156-8.535157 8.535156zm0 0"/><path d="m324.277344 204.8125h-17.75c-4.710938 0-8.53125-3.820312-8.53125-8.535156 0-4.710938 3.820312-8.53125 8.53125-8.53125h17.75c4.710937-.003906 8.53125-3.820313 8.535156-8.535156.019531-2.222657-.863281-4.359376-2.449219-5.914063-1.582031-1.675781-3.78125-2.621094-6.085937-2.617187h-17.664063c-4.710937 0-8.53125-3.820313-8.53125-8.535157 0-4.710937 3.820313-8.53125 8.53125-8.53125h17.578125c14.144532.019531 25.621094 11.453125 25.6875 25.597657-.015625 14.132812-11.46875 25.585937-25.601562 25.601562zm0 0"/><path d="m324.203125 170.679688c-.171875 0-.332031-.007813-.5-.015626-4.699219-.273437-8.289063-4.300781-8.019531-9 .070312-1.601562.0625-11.019531.0625-12.316406-1.28125-74.183594-62.347656-133.34375-136.535156-132.269531-74.183594-1.074219-135.253907 58.085937-136.53125 132.269531 0 1.304688-.011719 10.730469.066406 12.324219.140625 4.621094-3.429688 8.515625-8.046875 8.777344-4.617188.261719-8.605469-3.203125-8.988281-7.8125-.089844-1.507813-.097657-11.875-.097657-13.289063 1.289063-83.605468 69.992188-150.398437 153.597657-149.3359372 83.609374-1.0624998 152.308593 65.7304692 153.601562 149.3359372 0 1.414063-.007812 11.78125-.101562 13.289063-.257813 4.511719-3.988282 8.035156-8.507813 8.042969zm0 0"/><path d="m153.613281 361.398438c-4.714843 0-8.535156-3.820313-8.535156-8.53125v-65.019532c0-4.714844 3.820313-8.535156 8.535156-8.535156 4.710938 0 8.53125 3.820312 8.53125 8.535156v65.019532c0 4.710937-3.820312 8.53125-8.53125 8.53125zm0 0"/><path d="m204.8125 361.398438c-4.714844 0-8.535156-3.820313-8.535156-8.53125v-65.019532c0-4.714844 3.820312-8.535156 8.535156-8.535156 4.710938 0 8.53125 3.820312 8.53125 8.535156v65.019532c0 4.710937-3.820312 8.53125-8.53125 8.53125zm0 0"/><path d="m349.878906 456.289062c-2.265625.003907-4.433594-.894531-6.035156-2.496093-1.601562-1.601563-2.5-3.773438-2.5-6.035157v-12.546874c.210938-43.765626-30.039062-81.796876-72.730469-91.441407-3.007812-.648437-5.429687-2.863281-6.34375-5.796875-.914062-2.9375-.179687-6.136718 1.921875-8.378906 2.101563-2.242188 5.25-3.179688 8.238282-2.457031 50.464843 11.394531 86.226562 56.339843 85.980468 108.074219v12.546874c.003906 2.261719-.894531 4.433594-2.496094 6.035157-1.601562 1.601562-3.773437 2.5-6.035156 2.496093zm0 0"/><path d="m332.8125 512.011719h-307.199219c-14.132812-.015625-25.5859372-11.46875-25.6015622-25.597657v-51.203124c-.2421878-51.734376 35.5156252-96.679688 85.9843752-108.074219 2.988281-.722657 6.132812.214843 8.234375 2.457031 2.105469 2.242188 2.839843 5.441406 1.925781 8.378906-.917969 2.933594-3.339844 5.148438-6.34375 5.796875-42.695312 9.644531-72.945312 47.675781-72.734375 91.441407v51.203124c.003906 4.710938 3.820313 8.527344 8.535156 8.53125h307.199219c4.058594.007813 7.554688-2.859374 8.347656-6.839843.945313-4.585938 5.402344-7.554688 9.992188-6.660157 4.59375.898438 7.609375 5.324219 6.757812 9.925782-2.367187 11.988281-12.878906 20.632812-25.097656 20.640625zm0 0"/><path d="m136.546875 426.679688c-.699219 0-1.394531-.085938-2.070313-.257813-2.222656-.550781-4.128906-1.972656-5.289062-3.949219l-51.199219-87c-1.253906-2.136718-1.519531-4.710937-.726562-7.054687.792969-2.347657 2.566406-4.234375 4.859375-5.167969l36.242187-14.777344c7.539063-3.058594 16.191407-.34375 20.632813 6.476563l47.359375 72.433593c1.261719 1.929688 1.6875 4.289063 1.179687 6.542969-.503906 2.25-1.902344 4.199219-3.871094 5.402344l-42.667968 26.101563c-1.339844.816406-2.878906 1.25-4.449219 1.25zm-38.84375-91.359376 41.792969 71.015626 27.757812-16.980469-42.542968-65.066407zm0 0"/><path d="m221.878906 426.679688c-1.570312 0-3.109375-.433594-4.449218-1.25l-42.667969-26.101563c-1.96875-1.203125-3.363281-3.152344-3.871094-5.402344s-.082031-4.613281 1.179687-6.542969l47.359376-72.425781c4.449218-6.8125 13.09375-9.53125 20.640624-6.484375l36.234376 14.773438c2.292968.9375 4.066406 2.820312 4.859374 5.167968.792969 2.347657.53125 4.921876-.726562 7.058594l-51.199219 87c-1.160156 1.972656-3.066406 3.398438-5.289062 3.949219-.675781.171875-1.371094.257813-2.070313.257813zm-30.71875-37.324219 27.765625 16.980469 41.792969-71.015626-27.105469-11.050781zm0 0"/><path d="m180.066406 401.078125h-1.707031c-4.714844 0-8.535156-3.820313-8.535156-8.53125 0-4.714844 3.820312-8.535156 8.535156-8.535156h1.707031c4.710938 0 8.53125 3.820312 8.53125 8.535156 0 4.710937-3.820312 8.53125-8.53125 8.53125zm0 0"/><path d="m187.746094 452.277344h-17.066406c-14.136719-.003906-25.59375-11.460938-25.601563-25.597656v-18.945313c0-4.710937 3.820313-8.53125 8.535156-8.53125 4.710938 0 8.53125 3.820313 8.53125 8.53125v18.945313c0 4.710937 3.820313 8.53125 8.535157 8.53125h17.066406c4.710937 0 8.53125-3.820313 8.53125-8.53125v-18.945313c0-4.710937 3.820312-8.53125 8.535156-8.53125 4.710938 0 8.53125 3.820313 8.53125 8.53125v18.945313c-.015625 14.132812-11.464844 25.585937-25.597656 25.597656zm0 0"/><path d="m145.085938 512.011719c-.792969 0-1.585938-.109375-2.347657-.324219-4.53125-1.296875-7.15625-6.015625-5.867187-10.550781l17.066406-59.730469c.835938-2.933594 3.171875-5.199219 6.132812-5.941406 2.957032-.738282 6.085938.152344 8.207032 2.34375s2.914062 5.347656 2.074218 8.277344l-17.066406 59.734374c-1.046875 3.660157-4.390625 6.1875-8.199218 6.191407zm0 0"/><path d="m213.335938 512.011719c-3.808594-.003907-7.152344-2.53125-8.199219-6.191407l-17.066407-59.734374c-1.292968-4.53125 1.332032-9.253907 5.867188-10.546876 4.53125-1.292968 9.257812 1.332032 10.550781 5.867188l17.066407 59.730469c1.289062 4.535156-1.335938 9.253906-5.867188 10.550781-.765625.214844-1.554688.324219-2.351562.324219zm0 0"/><path d="m102.410156 477.878906h-42.664062c-4.714844 0-8.535156-3.820312-8.535156-8.53125 0-4.714844 3.820312-8.535156 8.535156-8.535156h42.664062c4.714844 0 8.535156 3.820312 8.535156 8.535156 0 4.710938-3.820312 8.53125-8.535156 8.53125zm0 0"/><path d="m315.746094 512.011719h-68.269532c-4.710937 0-8.53125-3.820313-8.53125-8.53125v-51.203125c0-4.710938 3.820313-8.53125 8.53125-8.53125h68.269532c4.710937 0 8.53125 3.820312 8.53125 8.53125v51.203125c0 4.710937-3.820313 8.53125-8.53125 8.53125zm-59.734375-17.066407h51.199219v-34.132812h-51.199219zm0 0"/><path d="m281.613281 460.8125c-4.714843 0-8.535156-3.820312-8.535156-8.535156v-25.597656c0-4.714844 3.820313-8.535157 8.535156-8.535157 4.710938 0 8.53125 3.820313 8.53125 8.535157v25.597656c0 4.714844-3.820312 8.535156-8.53125 8.535156zm0 0"/><path d="m40.980469 368.992188c-1.898438.003906-3.742188-.628907-5.234375-1.796876-27.835938-21.667968-35.292969-62.847656-17.75-97.933593 15.507812-31.007813 7.875-70.914063 7.800781-71.316407-.824219-4.574218 2.167969-8.964843 6.726563-9.875 4.558593-.910156 9.007812 1.996094 10.003906 6.535157.375 1.855469 8.902344 45.957031-9.265625 82.289062-13.925781 27.835938-8.464844 60.152344 12.972656 76.835938 2.875 2.238281 4.011719 6.058593 2.824219 9.507812-1.183594 3.445313-4.429688 5.761719-8.074219 5.757813zm0 0"/><path d="m317.46875 368.992188c-3.644531.003906-6.890625-2.308594-8.074219-5.757813-1.1875-3.445313-.050781-7.265625 2.824219-9.507813 21.433594-16.683593 26.894531-49 12.972656-76.832031-18.167968-36.332031-9.644531-80.433593-9.265625-82.292969.996094-4.539062 5.445313-7.445312 10.003907-6.535156 4.558593.914063 7.550781 5.304688 6.726562 9.878906-.074219.398438-7.707031 40.308594 7.800781 71.316407 17.535157 35.082031 10.070313 76.265625-17.757812 97.933593-1.492188 1.167969-3.335938 1.800782-5.230469 1.796876zm0 0"/><path d="m55.246094 152.675781c-.519532 0-1.039063-.046875-1.550782-.144531-4.632812-.851562-7.699218-5.296875-6.851562-9.933594l4.523438-24.660156c.917968-4.566406 5.328124-7.554688 9.910156-6.710938 4.582031.839844 7.640625 5.199219 6.875 9.796876l-4.523438 24.660156c-.742187 4.046875-4.269531 6.988281-8.382812 6.992187zm0 0"/><path d="m179.230469 298.679688c-9.109375.011718-18.199219-.804688-27.160157-2.441407-52.230468-8.273437-94.34375-47.183593-106.707031-98.601562-.835937-3.75-1.476562-7.542969-1.925781-11.359375-.484375-4.355469-.730469-8.738282-.742188-13.125-.019531-4.011719.199219-8.027344.648438-12.015625.25-3.015625.785156-6.3125 1.34375-9.625.667969-3.339844 1.457031-6.347657 2.25-9.347657.976562-4.214843 4.957031-7.03125 9.257812-6.546874 4.300782.484374 7.554688 4.109374 7.574219 8.4375v.085937c.003907.734375-.09375 1.464844-.28125 2.175781-.742187 2.8125-1.460937 5.515625-2.019531 8.296875-.425781 2.578125-.90625 5.410157-1.148438 8.253907-.386718 3.414062-.574218 6.847656-.558593 10.285156.007812 3.742187.222656 7.480468.632812 11.203125.382813 3.207031.929688 6.425781 1.644531 9.65625 10.921876 44.695312 47.679688 78.410156 93.148438 85.441406 15.902344 2.867187 32.1875 2.867187 48.089844 0 45.316406-7.082031 82-40.589844 93.144531-85.082031.699219-3.285156 1.246094-6.699219 1.648437-10.101563.402344-3.691406.613282-7.402343.625-11.117187.019532-3.339844-.164062-6.679688-.542968-9.996094-.265625-3.136719-.75-5.96875-1.222656-8.8125-.417969-1.988281-.96875-4.28125-1.601563-6.566406-5.242187-11.347656-12.054687-21.90625-20.242187-31.355469-2.050782-2.328125-2.679688-5.582031-1.640626-8.503906 1.039063-2.921875 3.582032-5.050781 6.644532-5.558594 3.058594-.507813 6.152344.683594 8.082031 3.113281 9.699219 11.234375 17.632813 23.878906 23.53125 37.496094.808594 2.925781 1.457031 5.585938 2 8.246094.617187 3.605468 1.148437 6.90625 1.425781 10.214844.441406 3.890624.65625 7.808593.632813 11.722656-.011719 4.351562-.257813 8.695312-.734375 13.019531-.472656 4.03125-1.109375 7.964844-1.933594 11.808594-12.585938 51.21875-54.617188 89.925781-106.699219 98.257812-8.960937 1.636719-18.054687 2.453125-27.164062 2.441407zm0 0"/><path d="m59.753906 128.011719c-4.308594-.007813-7.9375-3.230469-8.453125-7.507813-.519531-4.277344 2.234375-8.273437 6.417969-9.308594 66.953125-16.507812 78.726562-52.367187 79.199219-53.882812 1.003906-3.257812 3.839843-5.617188 7.226562-6.007812 3.378907-.40625 6.671875 1.253906 8.363281 4.207031 1.292969 2.21875 33.109376 54.792969 128.417969 46.933593 2.257813-.214843 4.511719.488282 6.242188 1.957032 1.734375 1.464844 2.804687 3.570312 2.964843 5.835937.1875 2.253907-.523437 4.492188-1.988281 6.21875-1.460937 1.726563-3.546875 2.800781-5.804687 2.988281-78.933594 6.640626-119.464844-25.566406-135.796875-43.757812-9.917969 15.21875-33.160157 39.359375-84.738281 52.074219-.671876.167969-1.359376.253906-2.050782.25zm0 0"/><path d="m449.796875 322.8125c-25.992187.035156-49.023437-16.738281-56.96875-41.484375-7.945313-24.75 1.019531-51.792969 22.171875-66.894531 21.15625-15.101563 49.644531-14.796875 70.46875.757812 20.824219 15.550782 29.207031 42.785156 20.730469 67.355469-8.320313 24.050781-30.953125 40.207031-56.402344 40.265625zm-.09375-102.449219c-21.738281.011719-39.992187 16.363281-42.390625 37.96875-2.398438 21.609375 11.828125 41.5625 33.035156 46.339844 21.207032 4.777344 42.617188-7.148437 49.71875-27.691406 4.484375-13.050781 2.394532-27.460938-5.617187-38.695313-8.007813-11.234375-20.949219-17.910156-34.746094-17.921875zm0 0"/><path d="m459.160156 409.761719c-1.898437.003906-3.785156-.316407-5.582031-.9375l-96.789063-33.421875c-8.898437-3.085938-13.621093-12.789063-10.566406-21.699219l19.5-56.464844c3.074219-8.90625 12.785156-13.636719 21.691406-10.566406l96.796876 33.425781c8.898437 3.082032 13.625 12.785156 10.566406 21.691406l-19.5 56.464844c-2.367188 6.882813-8.839844 11.503906-16.117188 11.511719zm-77.304687-106.957031-19.503907 56.464843 96.792969 33.417969h.007813l.007812.007812 19.484375-56.46875zm0 0"/><path d="m390.703125 512.019531c-2.851563-.003906-5.679687-.480469-8.375-1.414062l-32.265625-11.136719c-13.347656-4.636719-20.429688-19.195312-15.84375-32.558594l33.417969-96.792968c.738281-2.136719 2.296875-3.898438 4.328125-4.890626 2.035156-.988281 4.382812-1.132812 6.523437-.390624l64.523438 22.28125c4.453125 1.539062 6.820312 6.394531 5.285156 10.851562l-33.417969 96.792969c-3.566406 10.308593-13.265625 17.230469-24.175781 17.257812zm-9.714844-128.261719-30.636719 88.722657c-1.53125 4.457031.832032 9.316406 5.285157 10.859375l32.253906 11.132812c4.453125 1.519532 9.296875-.835937 10.851563-5.273437l30.632812-88.726563zm0 0"/><path d="m463.84375 246.921875c0 4.710937-3.820312 8.53125-8.535156 8.53125-4.710938 0-8.53125-3.820313-8.53125-8.53125 0-4.714844 3.820312-8.535156 8.53125-8.535156 4.714844 0 8.535156 3.820312 8.535156 8.535156zm0 0"/><path d="m442.140625 257.484375c0 4.710937-3.820313 8.53125-8.53125 8.53125-4.714844 0-8.535156-3.820313-8.535156-8.53125 0-4.714844 3.820312-8.535156 8.535156-8.535156 4.710937 0 8.53125 3.820312 8.53125 8.535156zm0 0"/><path d="m474.40625 268.621094c0 4.714844-3.820312 8.535156-8.535156 8.535156-4.710938 0-8.53125-3.820312-8.53125-8.535156 0-4.710938 3.820312-8.53125 8.53125-8.53125 4.714844 0 8.535156 3.820312 8.535156 8.53125zm0 0"/><path d="m429.953125 355.027344c-.945313 0-1.886719-.15625-2.78125-.464844l-16.128906-5.566406c-2.898438-.980469-5.050781-3.441406-5.640625-6.445313-.585938-3 .480468-6.089843 2.792968-8.09375 2.316407-2 5.527344-2.609375 8.414063-1.59375l16.125 5.566407c3.941406 1.359374 6.324219 5.367187 5.632813 9.476562-.6875 4.113281-4.246094 7.121094-8.414063 7.121094zm0 0"/></svg>