<svg height="512pt" viewBox="0 0 512.01213 512" width="512pt" xmlns="http://www.w3.org/2000/svg"><path d="m418.164062 418.140625v68.265625c0 9.425781-7.640624 17.066406-17.066406 17.066406-9.425781 0-17.066406-7.640625-17.066406-17.066406v-68.265625" fill="#60a917"/><path d="m162.164062 287.835938h51.203126v70.570312h-51.203126zm0 0" fill="#f5f5f5"/><path d="m25.71875 177.671875c-11.785156-4.097656-18.882812-16.109375-16.792969-28.410156 2.09375-12.296875 12.765625-21.285157 25.238281-21.253907-14.136718 0-25.597656-11.464843-25.597656-25.601562 0-14.140625 11.460938-25.601562 25.597656-25.601562 0-9.050782 3.59375-17.734376 9.996094-24.136719 6.402344-6.402344 15.085938-9.996094 24.140625-9.996094 3.144531-.011719 6.273438.421875 9.300781 1.28125-.511718-1.804687-.769531-3.671875-.769531-5.546875-.011719-10.699219 7.910157-19.746094 18.515625-21.152344 10.605469-1.402344 20.609375 5.273438 23.382813 15.605469 4.753906-4.679687 11.164062-7.289063 17.835937-7.253906 7.761719-.003907 15.105469 3.511719 19.96875 9.558593.425782.597657.851563 1.195313 1.277344 1.707032-.425781-.511719-.851562-1.109375-1.277344-1.707032-1.875-2.835937-2.882812-6.15625-2.902344-9.558593 0-9.425781 7.640626-17.066407 17.066407-17.066407s17.066406 7.640626 17.066406 17.066407c0-9.425781 7.640625-17.066407 17.066406-17.066407s17.066407 7.640626 17.066407 17.066407c-.019532 3.402343-1.027344 6.722656-2.902344 9.558593-.425782.597657-.851563 1.195313-1.277344 1.707032.425781-.511719.851562-1.109375 1.277344-1.707032 4.863281-6.046874 12.210937-9.5625 19.96875-9.558593 6.671875-.035157 13.082031 2.574219 17.835937 7.253906 2.773438-10.332031 12.777344-17.007813 23.382813-15.605469 10.605468 1.40625 18.527344 10.453125 18.515625 21.152344.003906 1.875-.257813 3.742188-.769531 5.546875 3.027343-.867187 6.15625-1.296875 9.304687-1.28125 9.050781 0 17.734375 3.59375 24.136719 9.996094 6.402344 6.402343 9.996094 15.085937 9.996094 24.136719 14.136718 0 25.597656 11.460937 25.597656 25.601562 0 14.136719-11.460938 25.601562-25.597656 25.601562 12.472656-.03125 23.144531 8.957032 25.238281 21.253907 2.09375 12.300781-5.007813 24.3125-16.792969 28.410156zm0 0" fill="#ff5722"/><path d="m366.964844 153.605469c.019531 10.863281-6.875 20.535156-17.152344 24.066406h-23.636719c11.78125-4.101563 18.878907-16.109375 16.789063-28.40625-2.09375-12.300781-12.761719-21.285156-25.234375-21.257813 14.136719 0 25.597656-11.464843 25.597656-25.601562 0-14.140625-11.460937-25.601562-25.597656-25.601562.054687-13.597657-8.050781-25.90625-20.566407-31.230469v-.085938l.765626-1.535156c3.027343-.867187 6.15625-1.296875 9.304687-1.28125 9.050781 0 17.734375 3.59375 24.136719 9.996094 6.402344 6.402343 9.996094 15.085937 9.996094 24.136719 14.136718 0 25.597656 11.460937 25.597656 25.601562 0 14.136719-11.460938 25.601562-25.597656 25.601562 6.792968-.011718 13.308593 2.683594 18.109374 7.484376 4.804688 4.804687 7.5 11.320312 7.488282 18.113281zm0 0" fill="#d84315"/><path d="m315.167969 162.140625h17.664062c9.398438.066406 17 7.667969 17.066407 17.066406-.027344 9.414063-7.652344 17.039063-17.066407 17.066407h-290.132812c-9.414063-.027344-17.039063-7.652344-17.066407-17.066407.066407-9.398437 7.667969-17 17.066407-17.066406zm0 0" fill="#cfd8dc"/><path d="m358.433594 435.207031v51.199219c-.027344 9.414062-7.652344 17.039062-17.066406 17.066406h-307.203126c-9.414062-.027344-17.035156-7.652344-17.066406-17.066406v-51.199219c-.039062-50.175781 36.324219-92.972656 85.847656-101.035156h169.640626c15.285156 2.421875 29.800781 8.351563 42.410156 17.320313l7.425781 11.351562 34.046875 52.394531v.085938c1.308594 6.546875 1.964844 13.207031 1.964844 19.882812zm0 0" fill="#fec108"/><path d="m334.796875 435.207031v51.199219c-.027344 9.414062-7.652344 17.039062-17.066406 17.066406h-283.566407c-9.414062-.027344-17.035156-7.652344-17.066406-17.066406v-51.199219c-.039062-50.175781 36.324219-92.972656 85.847656-101.035156h146.003907c15.285156 2.421875 29.800781 8.351563 42.410156 17.320313l7.425781 11.351562 34.046875 52.394531v.085938c1.308594 6.546875 1.964844 13.207031 1.964844 19.882812zm0 0" fill="#ffdc00"/><path d="m170.699219 324.273438h34.132812c4.714844 0 8.535157 3.820312 8.535157 8.53125v34.132812c0 4.714844-3.820313 8.535156-8.535157 8.535156h-34.132812c-4.710938 0-8.535157-3.820312-8.535157-8.535156v-34.132812c0-4.710938 3.824219-8.53125 8.535157-8.53125zm0 0" fill="#3f51b5"/><path d="m162.164062 366.9375-37.976562 10.851562c-5.148438 1.472657-10.691406.441407-14.964844-2.785156-4.277344-3.222656-6.789062-8.269531-6.789062-13.625v-23.011718c0-5.355469 2.511718-10.402344 6.789062-13.625 4.273438-3.226563 9.816406-4.257813 14.964844-2.785157l37.976562 10.847657zm0 0" fill="#3f51b5"/><path d="m213.367188 366.9375 37.976562 10.851562c5.148438 1.472657 10.691406.441407 14.964844-2.785156 4.277344-3.222656 6.789062-8.269531 6.789062-13.625v-23.011718c0-5.355469-2.511718-10.402344-6.789062-13.625-4.273438-3.226563-9.816406-4.257813-14.964844-2.785157l-37.976562 10.847657zm0 0" fill="#3f51b5"/><g fill="#f44335"><path d="m204.832031 426.671875c0 9.425781-7.640625 17.066406-17.066406 17.066406s-17.066406-7.640625-17.066406-17.066406 7.640625-17.066406 17.066406-17.066406 17.066406 7.640625 17.066406 17.066406zm0 0"/><path d="m204.832031 486.40625c0 9.425781-7.640625 17.066406-17.066406 17.066406s-17.066406-7.640625-17.066406-17.066406 7.640625-17.066406 17.066406-17.066406 17.066406 7.640625 17.066406 17.066406zm0 0"/><path d="m102.433594 426.671875c0 23.566406-19.101563 42.667969-42.667969 42.667969-23.5625 0-42.667969-19.101563-42.667969-42.667969 0-23.5625 19.105469-42.664063 42.667969-42.664063 23.566406 0 42.667969 19.101563 42.667969 42.664063zm0 0"/><path d="m358.433594 435.207031v5.035157c-5.394532 2.300781-11.203125 3.492187-17.066406 3.496093-19.816407 0-37.023438-13.644531-41.542969-32.9375-4.515625-19.292969 4.84375-39.160156 22.597656-47.957031l34.046875 52.394531v.085938c1.308594 6.546875 1.964844 13.207031 1.964844 19.882812zm0 0"/></g><path d="m421.152344 246.875-3.328125 14.933594v.085937l-.085938.171875-6.570312 20.734375c-3.296875-.789062-6.675781-1.191406-10.070313-1.195312-4.042968 0-8.0625.574219-11.945312 1.707031l-4.777344-21.503906v-.085938l-3.328125-14.847656c-1.828125-8.21875 1.546875-16.722656 8.511719-21.453125s16.113281-4.730469 23.082031 0c6.964844 4.730469 10.339844 13.234375 8.511719 21.453125zm0 0" fill="#ef314c"/><path d="m389.152344 283.3125c-7.167969 2.121094-13.664063 6.058594-18.859375 11.433594l-14.847657-16.125-10.410156-11.351563c-5.6875-6.203125-7.015625-15.25-3.347656-22.828125 3.667969-7.574218 11.585938-12.148437 19.980469-11.535156 8.394531.609375 15.566406 6.28125 18.097656 14.308594l4.609375 14.507812v.085938zm0 0" fill="#e91e63"/><path d="m370.292969 294.746094c-5.203125 5.433594-8.882813 12.148437-10.664063 19.457031l-20.992187-6.65625-.34375-.085937-14.25-4.523438c-8.027344-2.527344-13.699219-9.699219-14.3125-18.09375-.609375-8.394531 3.960937-16.316406 11.539062-19.980469 7.574219-3.667969 16.621094-2.34375 22.828125 3.34375l11.347656 10.414063zm0 0" fill="#ef314c"/><path d="m360.140625 336.21875-21.421875 4.78125h-.082031l-14.933594 3.324219c-8.222656 1.828125-16.726563-1.542969-21.457031-8.511719-4.730469-6.964844-4.730469-16.113281 0-23.082031 4.730468-6.964844 13.234375-10.339844 21.457031-8.511719l14.589844 3.242188.34375.085937 20.992187 6.65625c-.792968 3.296875-1.191406 6.679687-1.195312 10.070313-.003906 4.042968.574218 8.066406 1.707031 11.945312zm0 0" fill="#e91e63"/><path d="m371.574219 355.078125-16.128907 14.847656-11.347656 10.410157c-6.207031 5.6875-15.253906 7.015624-22.828125 3.347656-7.578125-3.667969-12.148437-11.585938-11.539062-19.980469.613281-8.394531 6.285156-15.566406 14.3125-18.097656l14.59375-4.605469h.082031l21.421875-4.78125c2.117187 7.167969 6.058594 13.664062 11.433594 18.859375zm0 0" fill="#ef314c"/><path d="m401.097656 426.671875c-6.226562-.011719-12.113281-2.84375-16.007812-7.699219-3.898438-4.859375-5.382813-11.222656-4.042969-17.300781l3.328125-14.851563v-.082031l6.65625-20.992187c3.296875.789062 6.675781 1.191406 10.066406 1.191406 4.042969.003906 8.066406-.570312 11.949219-1.703125l4.777344 21.417969v.085937l3.328125 14.933594c1.339844 6.078125-.144532 12.441406-4.042969 17.300781-3.894531 4.855469-9.78125 7.6875-16.011719 7.699219zm0 0" fill="#ef314c"/><path d="m452.300781 412.933594c-5.394531 3.121094-11.914062 3.621094-17.71875 1.367187-5.808593-2.257812-10.277343-7.03125-12.148437-12.972656l-4.609375-14.589844v-.085937l-4.777344-21.417969c7.167969-2.121094 13.664063-6.0625 18.859375-11.4375l14.847656 16.128906 10.410156 11.351563c4.203126 4.589844 6.097657 10.839844 5.152344 16.992187-.945312 6.152344-4.628906 11.546875-10.015625 14.664063zm0 0" fill="#e91e63"/><path d="m489.761719 375.472656c-3.117188 5.386719-8.511719 9.074219-14.664063 10.019532-6.152344.945312-12.402344-.953126-16.996094-5.15625l-11.347656-10.410157-14.847656-16.128906c5.203125-5.433594 8.882812-12.144531 10.664062-19.453125l20.992188 6.65625.34375.082031 14.25 4.523438c5.941406 1.871093 10.710938 6.339843 12.96875 12.148437s1.753906 12.324219-1.363281 17.71875zm0 0" fill="#ef314c"/><path d="m503.5 324.273438c-.011719 6.226562-2.84375 12.113281-7.703125 16.011718-4.855469 3.894532-11.21875 5.382813-17.300781 4.039063l-14.589844-3.242188-.34375-.082031-20.992188-6.65625c.792969-3.300781 1.191407-6.679688 1.195313-10.070312 0-4.042969-.574219-8.066407-1.707031-11.949219l21.417968-4.777344h.171876l.171874-.085937 14.675782-3.242188c6.082031-1.339844 12.441406.148438 17.300781 4.042969 4.859375 3.898437 7.691406 9.785156 7.703125 16.011719zm0 0" fill="#e91e63"/><path d="m478.15625 302.9375-14.335938 4.523438-.171874.085937h-.171876l-21.417968 4.777344c-2.121094-7.164063-6.058594-13.664063-11.433594-18.855469l16.128906-14.847656 11.347656-10.414063c6.207032-5.6875 15.253907-7.011719 22.828126-3.34375 7.578124 3.664063 12.148437 11.585938 11.535156 19.980469-.609375 8.394531-6.28125 15.566406-14.308594 18.09375zm0 0" fill="#ef314c"/><path d="m457.164062 267.269531-10.410156 11.351563-16.128906 14.847656c-5.433594-5.207031-12.144531-8.886719-19.457031-10.667969l6.570312-20.734375.085938-.171875v-.085937l4.609375-14.59375c2.527344-8.027344 9.703125-13.699219 18.097656-14.308594 8.394531-.613281 16.3125 3.960938 19.980469 11.535156 3.664062 7.578125 2.339843 16.625-3.347657 22.828125zm0 0" fill="#e91e63"/><path d="m315.765625 173.148438c-.011719 4.046874-.238281 8.09375-.683594 12.117187-6.65625 58.964844-61.097656 104.875-127.316406 104.875-3.925781 0-7.851563-.171875-11.777344-.511719-60.753906-5.035156-109.308593-48.898437-115.539062-104.363281-1.210938-10.78125-.808594-21.679687 1.195312-32.34375.765625-3.753906 1.707031-7.507813 2.816407-11.175781 9.128906-20.90625 31.65625-63.0625 67.582031-71 15.027343-2.957032 30.617187-.347656 43.863281 7.339844h.082031c4.070313 2.175781 8.003907 4.597656 11.777344 7.253906 9.5625-7.046875 20.492187-12.015625 32.085937-14.59375 49.835938-10.238282 80.296876 45.824218 91.222657 71 1.109375 3.667968 2.046875 7.421875 2.8125 11.175781 1.234375 6.671875 1.863281 13.441406 1.878906 20.226563zm0 0" fill="#cfd8dc"/><path d="m292.128906 173.148438c-.011718 4.046874-.242187 8.09375-.683594 12.117187-6.230468 55.378906-54.699218 99.328125-115.457031 104.363281-60.753906-5.035156-109.308593-48.898437-115.539062-104.363281-1.210938-10.78125-.808594-21.679687 1.195312-32.34375.765625-3.753906 1.707031-7.507813 2.816407-11.175781 9.128906-20.90625 31.65625-63.0625 67.582031-71 11.59375 2.578125 22.523437 7.546875 32.085937 14.59375 3.773438-2.65625 7.707032-5.078125 11.777344-7.253906h.082031c4.070313 2.175781 8.003907 4.597656 11.777344 7.253906 9.5625-7.046875 20.492187-12.015625 32.085937-14.59375 36.011719 7.9375 58.453126 50.09375 67.582032 71 1.109375 3.667968 2.050781 7.421875 2.816406 11.175781 1.234375 6.671875 1.863281 13.441406 1.878906 20.226563zm0 0" fill="#f5f5f5"/><path d="m221.898438 196.273438c0 18.851562-15.28125 34.132812-34.132813 34.132812s-34.132813-15.28125-34.132813-34.132812c0-18.851563 15.28125-34.132813 34.132813-34.132813s34.132813 15.28125 34.132813 34.132813zm0 0" fill="#c81e1e"/><path d="m209.097656 183.472656c0 11.78125-9.550781 21.332032-21.332031 21.332032s-21.332031-9.550782-21.332031-21.332032 9.550781-21.332031 21.332031-21.332031 21.332031 9.550781 21.332031 21.332031zm0 0" fill="#f44335"/><path d="m187.765625 179.207031c0 4.710938-3.820313 8.53125-8.53125 8.53125-4.714844 0-8.535156-3.820312-8.535156-8.53125 0-4.714843 3.820312-8.535156 8.535156-8.535156 4.710937 0 8.53125 3.820313 8.53125 8.535156zm0 0" fill="#f5f5f5"/><path d="m391.03125 365.746094-6.65625 20.992187v.082031l-4.609375 14.507813c-2.53125 8.027344-9.703125 13.699219-18.097656 14.3125-8.394531.609375-16.3125-3.960937-19.980469-11.539063-3.667969-7.574218-2.339844-16.621093 3.347656-22.824218l10.410156-11.351563 16.128907-14.847656c5.433593 5.203125 12.144531 8.882813 19.457031 10.667969zm0 0" fill="#e91e63"/><path d="m443.765625 324.273438c-.003906 3.390624-.402344 6.769531-1.195313 10.070312-1.78125 7.308594-5.460937 14.019531-10.664062 19.453125-5.195312 5.375-11.691406 9.316406-18.859375 11.4375-3.882813 1.132813-7.90625 1.707031-11.949219 1.703125-3.390625 0-6.769531-.402344-10.066406-1.191406-7.3125-1.785156-14.023438-5.464844-19.457031-10.667969-5.375-5.195313-9.316407-11.691406-11.433594-18.859375-1.132813-3.878906-1.710937-7.902344-1.707031-11.945312.003906-3.390626.402344-6.773438 1.195312-10.070313 1.78125-7.308594 5.460938-14.023437 10.664063-19.457031 5.195312-5.375 11.691406-9.3125 18.859375-11.433594 3.882812-1.132812 7.902344-1.707031 11.945312-1.707031 3.394532.003906 6.773438.40625 10.070313 1.195312 7.3125 1.78125 14.023437 5.460938 19.457031 10.667969 5.375 5.191406 9.3125 11.691406 11.433594 18.855469 1.132812 3.882812 1.707031 7.90625 1.707031 11.949219zm0 0" fill="#ffdc00"/><path d="m187.765625 298.671875c-70.175781 0-128.558594-48.359375-135.800781-112.472656-.476563-4.339844-.71875-8.703125-.730469-13.066407.015625-7.28125.691406-14.542968 2.015625-21.703124.808594-4.105469 1.828125-8.167969 3.050781-12.171876.824219-2.992187 3.210938-5.300781 6.226563-6.027343 3.019531-.726563 6.191406.242187 8.289062 2.53125 2.097656 2.289062 2.785156 5.535156 1.800782 8.476562-1.023438 3.367188-1.902344 6.882813-2.609376 10.417969-1.121093 6.09375-1.691406 12.277344-1.707031 18.476562.007813 3.742188.222657 7.480469.632813 11.199219 6.257812 55.433594 57.347656 97.273438 118.832031 97.273438s112.574219-41.839844 118.832031-97.324219c.414063-3.703125.625-7.425781.636719-11.148438-.019531-6.253906-.601563-12.488281-1.734375-18.636718-.683594-3.375-1.558594-6.890625-2.585938-10.257813-.984374-2.941406-.296874-6.1875 1.800782-8.476562 2.097656-2.289063 5.269531-3.257813 8.289062-2.53125 3.015625.726562 5.402344 3.035156 6.226563 6.027343 1.167969 3.789063 2.183593 7.839844 3.027343 12.015626 2.171876 11.496093 2.613282 23.25 1.308594 34.875-7.242187 64.164062-65.625 112.523437-135.800781 112.523437zm0 0"/><path d="m60.449219 204.804688h-17.75c-14.132813-.015626-25.585938-11.464844-25.601563-25.597657.066406-14.113281 11.492188-25.535156 25.601563-25.601562h17.664062c4.710938 0 8.535157 3.820312 8.535157 8.535156 0 4.710937-3.824219 8.53125-8.535157 8.53125h-17.578125c-2.25-.035156-4.417968.847656-6 2.449219-1.675781 1.582031-2.625 3.78125-2.621094 6.085937.003907 4.710938 3.824219 8.53125 8.535157 8.53125h17.75c4.710937 0 8.53125 3.820313 8.53125 8.535157 0 4.710937-3.820313 8.53125-8.53125 8.53125zm0 0"/><path d="m332.832031 204.804688h-17.75c-4.710937 0-8.53125-3.820313-8.53125-8.53125 0-4.714844 3.820313-8.535157 8.53125-8.535157h17.75c4.710938 0 8.53125-3.820312 8.535157-8.53125.019531-2.222656-.863282-4.359375-2.449219-5.917969-1.582031-1.675781-3.785157-2.621093-6.085938-2.617187h-17.664062c-4.710938 0-8.53125-3.820313-8.53125-8.53125 0-4.714844 3.820312-8.535156 8.53125-8.535156h17.578125c14.144531.019531 25.621094 11.457031 25.6875 25.601562-.015625 14.132813-11.46875 25.582031-25.601563 25.597657zm0 0"/><path d="m64.460938 150.324219c-2.261719.007812-4.429688-.878907-6.03125-2.472657-1.601563-1.59375-2.503907-3.761718-2.503907-6.019531 0-1.199219.238281-2.382812.707031-3.484375 10.242188-23.542968 32.933594-64.582031 69.867188-75 21.132812-6.007812 43.402344-.917968 66.160156 15 3.785156 2.726563 4.679688 7.992188 2.003906 11.816406-2.675781 3.824219-7.925781 4.789063-11.789062 2.167969-18.339844-12.84375-35.722656-17.066406-51.742188-12.558593-31.132812 8.78125-51.367187 48.273437-58.738281 65.132812-1.285156 3.261719-4.429687 5.40625-7.933593 5.417969zm0 0"/><path d="m311.074219 150.324219c-3.660157.007812-6.917969-2.320313-8.09375-5.785157-7.5-17.066406-27.675781-56.050781-58.582031-64.769531-16.007813-4.515625-33.394532-.28125-51.742188 12.558594-2.496094 1.800781-5.769531 2.113281-8.5625.824219-2.792969-1.285156-4.675781-3.980469-4.929688-7.046875-.253906-3.066407 1.164063-6.03125 3.707032-7.757813 22.761718-15.917968 44.984375-20.992187 66.160156-15 36.933594 10.414063 59.625 51.453125 69.867188 75 1.144531 2.640625.886718 5.683594-.6875 8.09375-1.574219 2.410156-4.257813 3.867188-7.136719 3.878906zm0 0"/><path d="m162.164062 366.9375c-4.710937 0-8.53125-3.820312-8.53125-8.53125v-70.566406c0-4.714844 3.820313-8.535156 8.53125-8.535156 4.714844 0 8.535157 3.820312 8.535157 8.535156v70.566406c0 4.710938-3.820313 8.53125-8.535157 8.53125zm0 0"/><path d="m213.367188 366.9375c-4.714844 0-8.535157-3.820312-8.535157-8.53125v-70.566406c0-4.714844 3.820313-8.535156 8.535157-8.535156 4.710937 0 8.53125 3.820312 8.53125 8.535156v70.566406c0 4.710938-3.820313 8.53125-8.53125 8.53125zm0 0"/><path d="m341.367188 512.007812h-307.203126c-14.128906-.015624-25.582031-11.46875-25.597656-25.601562v-51.199219c-.257812-54.441406 39.246094-100.925781 93.011719-109.457031 4.652344-.753906 9.035156 2.410156 9.785156 7.066406.75 4.652344-2.414062 9.03125-7.066406 9.78125-45.484375 7.226563-78.890625 46.554688-78.664063 92.609375v51.199219c.003907 4.710938 3.820313 8.53125 8.53125 8.53125h307.203126c4.710937 0 8.53125-3.820312 8.53125-8.53125v-51.199219c0-6.113281-.601563-12.214843-1.796876-18.210937-.503906-2.507813.140626-5.113282 1.757813-7.097656 1.621094-1.984376 4.042969-3.140626 6.601563-3.152344 4.269531-.015625 7.890624 3.136718 8.460937 7.367187 1.359375 6.949219 2.046875 14.011719 2.042969 21.09375v51.199219c-.015625 14.132812-11.464844 25.585938-25.597656 25.601562zm0 0"/><path d="m314.992188 360.027344c-1.769532.003906-3.496094-.546875-4.933594-1.574219-11.546875-8.191406-24.824219-13.617187-38.800782-15.859375-3.082031-.394531-5.703124-2.4375-6.84375-5.328125-1.144531-2.890625-.625-6.171875 1.355469-8.566406 1.976563-2.398438 5.101563-3.527344 8.15625-2.953125 16.574219 2.648437 32.320313 9.078125 46.015625 18.789062 3.03125 2.152344 4.320313 6.015625 3.1875 9.554688-1.128906 3.539062-4.421875 5.941406-8.136718 5.9375zm0 0"/><path d="m204.832031 384.007812h-34.132812c-9.421875-.015624-17.054688-7.648437-17.066407-17.070312v-34.132812c.011719-9.417969 7.644532-17.050782 17.066407-17.066407h34.132812c9.421875.015625 17.054688 7.648438 17.066407 17.066407v34.132812c-.011719 9.421875-7.644532 17.054688-17.066407 17.070312zm-34.132812-51.203124v34.132812h34.152343l-.019531-34.132812zm0 0"/><path d="m119.425781 386.996094c-14.109375-.054688-25.519531-11.503906-25.527343-25.617188v-23.015625c0-8.03125 3.769531-15.601562 10.183593-20.4375 6.414063-4.839843 14.726563-6.386719 22.449219-4.179687l37.972656 10.851562c3.667969 1.046875 6.195313 4.398438 6.195313 8.207032v34.132812c0 3.8125-2.527344 7.164062-6.191407 8.210938l-37.972656 10.847656c-2.3125.660156-4.707031 1-7.109375 1zm.046875-57.171875c-4.699218.027343-8.5 3.839843-8.507812 8.539062v23.015625c.003906 2.679688 1.261718 5.203125 3.398437 6.8125 2.140625 1.613282 4.910157 2.128906 7.484375 1.390625l31.785156-9.074219v-21.269531l-31.785156-9.078125c-.769531-.222656-1.570312-.335937-2.375-.339844zm0 0"/><path d="m256.109375 386.996094c-2.40625-.003906-4.796875-.339844-7.109375-1l-37.972656-10.847656c-3.667969-1.046876-6.195313-4.398438-6.195313-8.210938v-34.132812c0-3.808594 2.527344-7.160157 6.191407-8.207032l37.972656-10.851562c7.726562-2.207032 16.039062-.660156 22.453125 4.179687 6.414062 4.835938 10.183593 12.40625 10.183593 20.4375v23.015625c-.003906 14.113282-11.414062 25.5625-25.523437 25.617188zm-34.210937-26.488282 31.785156 9.078126c2.574218.738281 5.347656.222656 7.484375-1.390626 2.140625-1.613281 3.398437-4.136718 3.398437-6.816406v-23.015625c0-2.675781-1.257812-5.199219-3.398437-6.8125-2.140625-1.609375-4.910157-2.125-7.484375-1.386719l-31.785156 9.074219zm0 0"/><path d="m187.765625 452.273438c-10.355469 0-19.6875-6.238282-23.652344-15.804688-3.960937-9.566406-1.769531-20.578125 5.550781-27.898438 7.320313-7.320312 18.332032-9.511718 27.898438-5.550781 9.566406 3.964844 15.804688 13.300781 15.804688 23.652344-.015626 14.132813-11.46875 25.585937-25.601563 25.601563zm0-34.132813c-4.710937 0-8.53125 3.820313-8.53125 8.53125 0 4.714844 3.820313 8.535156 8.53125 8.535156 4.714844 0 8.535156-3.820312 8.535156-8.535156-.003906-4.710937-3.824219-8.53125-8.535156-8.53125zm0 0"/><path d="m187.765625 512.007812c-10.355469 0-19.6875-6.238281-23.652344-15.804687-3.960937-9.566406-1.769531-20.578125 5.550781-27.898437 7.320313-7.320313 18.332032-9.511719 27.898438-5.550782 9.566406 3.964844 15.804688 13.296875 15.804688 23.652344-.015626 14.132812-11.46875 25.585938-25.601563 25.601562zm0-34.136718c-4.710937 0-8.53125 3.820312-8.53125 8.535156 0 4.710938 3.820313 8.53125 8.53125 8.53125 4.714844 0 8.535156-3.820312 8.535156-8.53125-.003906-4.710938-3.824219-8.53125-8.535156-8.535156zm0 0"/><path d="m59.765625 477.871094c-28.277344 0-51.199219-22.921875-51.199219-51.199219s22.921875-51.199219 51.199219-51.199219 51.199219 22.921875 51.199219 51.199219c-.03125 28.265625-22.933594 51.167969-51.199219 51.199219zm0-85.332032c-18.851563 0-34.132813 15.28125-34.132813 34.132813s15.28125 34.132813 34.132813 34.132813 34.132813-15.28125 34.132813-34.132813c-.015626-18.84375-15.289063-34.113281-34.132813-34.132813zm0 0"/><path d="m341.367188 452.273438c-20.5625 0-39.132813-12.300782-47.148438-31.238282-8.019531-18.933594-3.929688-40.828125 10.378906-55.597656 3.277344-3.386719 8.679688-3.476562 12.066406-.199219 3.390626 3.277344 3.480469 8.679688.203126 12.066407-9.546876 9.84375-12.28125 24.441406-6.9375 37.070312 5.34375 12.625 17.726562 20.832031 31.4375 20.832031 4.71875-.003906 9.386718-.960937 13.722656-2.816406 4.316406-1.757813 9.246094.273437 11.070312 4.5625 1.824219 4.285156-.128906 9.246094-4.386718 11.136719-6.449219 2.761718-13.390626 4.183594-20.40625 4.183594zm0 0"/><path d="m34.164062 136.539062c-17.332031.015626-31.925781-12.964843-33.933593-30.179687-2.003907-17.21875 9.210937-33.207031 26.085937-37.179687 3.613282-20.457032 21.507813-35.289063 42.285156-35.039063 1.71875-11.914063 10.421876-21.632813 22.078126-24.648437 11.652343-3.015626 23.976562 1.261718 31.261718 10.847656 14.277344-6.730469 31.308594-2.824219 41.226563 9.457031.632812.859375.933593 1.28125 1.238281 1.652344 2.996094 3.640625 2.476562 9.019531-1.164062 12.015625-3.640626 2.996094-9.019532 2.472656-12.019532-1.167969-.546875-.667969-1.109375-1.421875-1.65625-2.199219-6.582031-7.109375-17.648437-7.621094-24.859375-1.148437-2.167969 2.125-5.304687 2.941406-8.234375 2.136719-2.929687-.804688-5.210937-3.109376-5.988281-6.046876-1.683594-6.183593-7.683594-10.167968-14.035156-9.316406-6.351563.851563-11.089844 6.273438-11.082031 12.683594-.003907 1.085938.148437 2.167969.441406 3.21875.847656 2.980469.011718 6.1875-2.183594 8.375s-5.40625 3.011719-8.382812 2.15625c-2.257813-.644531-4.59375-.964844-6.941407-.949219-14.132812.015625-25.585937 11.46875-25.601562 25.597657 0 4.714843-3.820313 8.535156-8.535157 8.535156-9.421874 0-17.066406 7.640625-17.066406 17.066406s7.644532 17.066406 17.066406 17.066406c4.714844 0 8.535157 3.820313 8.535157 8.535156 0 4.710938-3.820313 8.53125-8.535157 8.53125zm0 0"/><path d="m25.71875 186.203125c-.941406 0-1.875-.15625-2.769531-.457031-15.722657-5.457032-25.207031-21.472656-22.429688-37.882813 2.777344-16.410156 17.003907-28.414062 33.644531-28.390625 4.714844 0 8.535157 3.820313 8.535157 8.535156 0 4.710938-3.820313 8.53125-8.535157 8.53125-9.417968.011719-17.050781 7.648438-17.066406 17.066407-.011718 7.214843 4.5625 13.644531 11.386719 15.992187 3.945313 1.351563 6.335937 5.359375 5.648437 9.472656-.683593 4.117188-4.242187 7.132813-8.414062 7.132813zm0 0"/><path d="m157.824219 45.402344c-2.554688.007812-4.976563-1.132813-6.601563-3.105469-.539062-.667969-1.109375-1.425781-1.65625-2.203125-2.886718-4.28125-4.441406-9.324219-4.46875-14.488281 0-14.136719 11.464844-25.5976565 25.601563-25.5976565s25.601562 11.4609375 25.601562 25.5976565c0 4.714843-3.820312 8.535156-8.535156 8.535156-4.710937 0-8.53125-3.820313-8.53125-8.535156 0-4.710938-3.820313-8.53125-8.535156-8.53125-4.710938 0-8.535157 3.820312-8.535157 8.53125.023438 1.738281.542969 3.433593 1.503907 4.882812.132812.171875.433593.59375.738281.960938 2.097656 2.546875 2.539062 6.078125 1.128906 9.0625-1.40625 2.984375-4.410156 4.890625-7.710937 4.890625zm0 0"/><path d="m349.8125 186.203125c-4.171875.003906-7.738281-3.011719-8.421875-7.132813-.6875-4.117187 1.707031-8.125 5.65625-9.476562 6.824219-2.347656 11.398437-8.773438 11.386719-15.988281-.011719-9.417969-7.648438-17.054688-17.066406-17.066407-4.714844 0-8.535157-3.820312-8.535157-8.53125 0-4.714843 3.820313-8.535156 8.535157-8.535156 16.644531-.027344 30.878906 11.976563 33.65625 28.390625 2.777343 16.414063-6.710938 32.433594-22.441407 37.882813-.890625.300781-1.828125.457031-2.769531.457031zm0 0"/><path d="m341.367188 136.539062c-4.714844 0-8.535157-3.820312-8.535157-8.53125 0-4.714843 3.820313-8.535156 8.535157-8.535156 9.425781 0 17.066406-7.640625 17.066406-17.066406s-7.640625-17.066406-17.066406-17.066406c-4.714844 0-8.535157-3.820313-8.535157-8.535156-.015625-14.128907-11.46875-25.582032-25.597656-25.597657-2.328125-.019531-4.640625.292969-6.878906.933594-2.980469.882813-6.210938.074219-8.425781-2.113281-2.210938-2.191406-3.058594-5.410156-2.207032-8.402344.296875-1.050781.445313-2.132812.441406-3.21875.007813-6.410156-4.730468-11.832031-11.082031-12.683594-6.351562-.851562-12.351562 3.132813-14.03125 9.316406-.777343 2.9375-3.058593 5.242188-5.992187 6.046876-2.929688.804687-6.066406-.011719-8.234375-2.136719-3.507813-3.230469-8.179688-4.886719-12.933594-4.585938-4.757813.296875-9.183594 2.527344-12.257813 6.167969-.414062.609375-.855468 1.199219-1.324218 1.765625-1.9375 2.355469-4.988282 3.5-7.996094 2.996094-3.007812-.5-5.519531-2.566407-6.589844-5.425781-1.070312-2.855469-.535156-6.0625 1.402344-8.417969.308594-.367188.609375-.792969.90625-1.21875 9.84375-12.601563 27.097656-16.707031 41.558594-9.890625 7.28125-9.585938 19.609375-13.863282 31.261718-10.847656 11.65625 3.015624 20.359376 12.734374 22.082032 24.648437h.300781c20.613281.023437 38.273437 14.761719 41.980469 35.039063 16.875 3.972656 28.09375 19.960937 26.085937 37.179687-2.007812 17.214844-16.601562 30.195313-33.933593 30.179687zm0 0"/><path d="m217.707031 45.402344c-3.300781 0-6.304687-1.90625-7.714843-4.890625-1.40625-2.988281-.964844-6.519531 1.132812-9.066407.308594-.367187.609375-.792968.90625-1.214843.867188-1.390625 1.328125-2.988281 1.335938-4.625 0-4.710938-3.820313-8.53125-8.535157-8.53125-4.710937 0-8.53125 3.820312-8.53125 8.53125 0 4.714843-3.820312 8.535156-8.535156 8.535156-4.710937 0-8.53125-3.820313-8.53125-8.535156.011719-10.960938 7-20.695313 17.382813-24.210938 10.378906-3.519531 21.847656-.039062 28.519531 8.65625 6.675781 8.691407 7.074219 20.667969.996093 29.789063-.71875 1.035156-1.28125 1.792968-1.824218 2.457031-1.625 1.972656-4.046875 3.113281-6.601563 3.105469zm0 0"/><path d="m187.765625 238.9375c-23.5625 0-42.667969-19.101562-42.667969-42.664062 0-23.566407 19.105469-42.667969 42.667969-42.667969 23.566406 0 42.667969 19.101562 42.667969 42.667969-.027344 23.550781-19.113282 42.636718-42.667969 42.664062zm0-68.265625c-10.355469 0-19.6875 6.238281-23.652344 15.804687-3.960937 9.566407-1.769531 20.578126 5.550781 27.898438 7.320313 7.320312 18.332032 9.511719 27.898438 5.550781 9.566406-3.964843 15.804688-13.296875 15.804688-23.652343-.015626-14.132813-11.46875-25.585938-25.601563-25.601563zm0 0"/><path d="m401.097656 375.472656c-20.707031 0-39.375-12.472656-47.300781-31.605468-7.925781-19.132813-3.542969-41.15625 11.097656-55.796876 14.644531-14.644531 36.667969-19.023437 55.796875-11.101562 19.132813 7.925781 31.609375 26.59375 31.609375 47.304688-.03125 28.261718-22.9375 51.167968-51.203125 51.199218zm0-85.332031c-18.851562 0-34.132812 15.28125-34.132812 34.132813 0 18.851562 15.28125 34.132812 34.132812 34.132812 18.851563 0 34.136719-15.28125 34.136719-34.132812-.019531-18.84375-15.292969-34.117188-34.136719-34.132813zm0 0"/><path d="m389.140625 291.847656c-3.996094-.007812-7.453125-2.785156-8.324219-6.683594l-4.773437-21.507812-.101563-.535156-3.21875-14.382813c-2.582031-11.628906 2.1875-23.65625 12.039063-30.347656 9.851562-6.695313 22.789062-6.703125 32.648437-.019531s14.644532 18.703125 12.074219 30.332031l-3.261719 14.660156c-.144531.8125-.402344 1.605469-.765625 2.347657-2.121093 4.226562-7.242187 5.960937-11.492187 3.902343-3.726563-1.824219-5.582032-6.078125-4.382813-10.050781l3.230469-14.550781c.789062-3.5625-.085938-7.292969-2.382812-10.132813-2.34375-2.707031-5.75-4.261718-9.332032-4.261718-3.582031 0-6.988281 1.554687-9.332031 4.261718-2.296875 2.847656-3.175781 6.582032-2.382813 10.15625l3.316407 14.816406c.039062.191407.082031.375.105469.566407l4.675781 21.042969c1.015625 4.601562-1.882813 9.15625-6.484375 10.183593-.609375.132813-1.230469.199219-1.855469.203125zm0 0"/><path d="m370.292969 303.28125c-2.386719.003906-4.664063-.996094-6.273438-2.757812l-25.265625-27.484376c-8.054687-8.78125-9.933594-21.589843-4.742187-32.316406 5.191406-10.726562 16.402343-17.195312 28.289062-16.328125 11.882813.867188 22.035157 8.902344 25.609375 20.269531l4.601563 14.476563c.957031 2.980469.207031 6.246094-1.953125 8.511719s-5.390625 3.167968-8.414063 2.351562c-3.023437-.816406-5.355469-3.21875-6.082031-6.265625l-4.425781-13.941406c-1.476563-4.695313-5.671875-8.015625-10.582031-8.371094-4.90625-.359375-9.539063 2.316407-11.679688 6.75-2.144531 4.433594-1.363281 9.722657 1.96875 13.347657l25.226562 27.449218c2.289063 2.492188 2.890626 6.101563 1.53125 9.203125-1.359374 3.097657-4.421874 5.101563-7.808593 5.105469zm0 0"/><path d="m359.628906 322.738281c-.878906 0-1.75-.136719-2.585937-.402343l-35.582031-11.261719c-11.351563-3.59375-19.363282-13.742188-20.226563-25.617188-.859375-11.875 5.605469-23.074219 16.316406-28.265625 10.714844-5.191406 23.511719-3.328125 32.296875 4.703125l11.367188 10.441407c3.472656 3.183593 3.703125 8.582031.519531 12.050781-3.1875 3.46875-8.582031 3.699219-12.050781.515625l-11.351563-10.417969c-3.625-3.320313-8.914062-4.09375-13.339843-1.953125-4.429688 2.144531-7.101563 6.769531-6.75 11.675781.351562 4.90625 3.660156 9.101563 8.351562 10.589844l35.613281 11.273437c4.011719 1.273438 6.496094 5.28125 5.851563 9.4375-.644532 4.160157-4.222656 7.226563-8.429688 7.230469zm0 0"/><path d="m319.222656 353.339844c-11.136718-.011719-21.289062-6.386719-26.136718-16.417969-4.851563-10.027344-3.542969-21.941406 3.367187-30.679687 6.910156-8.738282 18.203125-12.757813 29.078125-10.351563l14.609375 3.242187-1.503906 8.414063-2.027344 8.292969-14.761719-3.285156c-4.804687-1.0625-9.769531.914062-12.53125 4.984374-2.757812 4.070313-2.753906 9.417969.011719 13.484376 2.765625 4.066406 7.734375 6.035156 12.535156 4.964843l14.910157-3.328125c.191406-.039062.382812-.074218.574218-.097656l20.933594-4.667969c3.011719-.761719 6.195312.175781 8.316406 2.441407 2.125 2.265624 2.847656 5.507812 1.890625 8.460937s-3.441406 5.15625-6.492187 5.746094l-21.417969 4.777343c-.1875.046876-.378906.082032-.574219.105469l-14.449218 3.226563c-2.078126.453125-4.203126.683594-6.332032.6875zm0 0"/><path d="m330.257812 394.265625c-14.359374.019531-26.582031-10.445313-28.773437-24.636719s6.308594-27.855468 20.007813-32.164062l14.574218-4.601563c2.59375-.746093 5.386719-.253906 7.566406 1.339844 2.179688 1.589844 3.503907 4.097656 3.582032 6.796875.011718 3.972656-2.726563 7.425781-6.597656 8.324219l-14.007813 4.414062c-4.695313 1.484375-8.007813 5.679688-8.363281 10.589844-.351563 4.90625 2.324218 9.535156 6.757812 11.675781s9.722656 1.359375 13.34375-1.972656l27.453125-25.226562c3.46875-3.140626 8.824219-2.894532 11.996094.550781 3.171875 3.445312 2.972656 8.800781-.449219 12l-27.480468 25.265625c-5.351563 4.914062-12.347657 7.640625-19.609376 7.644531zm0 0"/><path d="m360.15625 424.238281c-11.519531-.015625-21.949219-6.828125-26.589844-17.375-4.640625-10.542969-2.617187-22.835937 5.152344-31.339843l10.445312-11.367188c3.183594-3.46875 8.578126-3.703125 12.046876-.515625 3.472656 3.183594 3.703124 8.578125.519531 12.050781l-10.417969 11.347656c-3.320312 3.628907-4.09375 8.914063-1.953125 13.34375 2.144531 4.425782 6.769531 7.101563 11.675781 6.746094 4.90625-.351562 9.101563-3.660156 10.585938-8.347656l4.449218-14.027344c.050782-.207031.109376-.398437.171876-.597656l6.65625-20.992188c.921874-2.902343 3.328124-5.097656 6.304687-5.75 2.976563-.652343 6.078125.332032 8.132813 2.582032 2.054687 2.253906 2.75 5.429687 1.828124 8.335937l-6.492187 20.476563c-.046875.199218-.105469.40625-.167969.597656l-4.609375 14.503906c-3.832031 12.097656-15.054687 20.316406-27.742187 20.328125zm0 0"/><path d="m401.097656 435.207031c-8.8125-.011719-17.144531-4.011719-22.660156-10.886719-5.515625-6.871093-7.621094-15.875-5.722656-24.480468l3.292968-14.699219c.867188-4.277344 4.824219-7.210937 9.167969-6.800781s7.679688 4.035156 7.726563 8.398437v.085938c.003906.628906-.066406 1.253906-.207032 1.867187l-3.328124 14.847656c-.78125 3.5625.097656 7.285157 2.390624 10.125 2.34375 2.707032 5.75 4.261719 9.332032 4.261719 3.582031 0 6.988281-1.554687 9.335937-4.261719 2.296875-2.847656 3.171875-6.585937 2.382813-10.15625l-3.328125-14.90625c-.042969-.191406-.078125-.382812-.101563-.578124l-4.667968-20.929688c-.878907-4.539062 2.007812-8.949219 6.519531-9.957031 4.507812-1.007813 9 1.757812 10.132812 6.238281l4.773438 21.417969c.046875.191406.085937.382812.109375.574219l3.226562 14.449218c1.902344 8.609375-.199218 17.613282-5.714844 24.488282-5.511718 6.878906-13.84375 10.886718-22.660156 10.902343zm0 0"/><path d="m442.042969 424.238281c-12.703125-.007812-23.929688-8.246093-27.75-20.355469l-4.601563-14.578124c-.265625-.828126-.402344-1.695313-.398437-2.566407-.023438-4.351562 3.222656-8.019531 7.539062-8.527343 4.320313-.511719 8.332031 2.308593 9.316407 6.542968l4.417968 14.007813c1.480469 4.695312 5.679688 8.007812 10.585938 8.359375 4.910156.355468 9.539062-2.324219 11.679687-6.753906 2.136719-4.433594 1.355469-9.722657-1.972656-13.347657l-25.226563-27.445312c-3.140624-3.472657-2.898437-8.828125.546876-12 3.445312-3.167969 8.804687-2.96875 12.003906.449219l25.265625 27.484374c7.773437 8.5 9.796875 20.789063 5.164062 31.335938-4.632812 10.546875-15.050781 17.367188-26.570312 17.394531zm0 0"/><path d="m471.941406 394.265625c-7.253906-.003906-14.242187-2.71875-19.589844-7.617187l-11.367187-10.441407c-3.472656-3.1875-3.703125-8.582031-.519531-12.050781 3.1875-3.46875 8.582031-3.703125 12.050781-.515625l11.351563 10.414063c3.625 3.324218 8.914062 4.097656 13.339843 1.953124 4.429688-2.140624 7.101563-6.765624 6.75-11.671874-.351562-4.90625-3.660156-9.101563-8.351562-10.589844l-35.617188-11.273438c-2.902343-.925781-5.097656-3.328125-5.75-6.304687-.652343-2.976563.332031-6.078125 2.582031-8.132813 2.253907-2.054687 5.429688-2.753906 8.335938-1.828125l35.585938 11.261719c13.683593 4.324219 22.164062 17.988281 19.964843 32.171875-2.195312 14.183594-14.414062 24.640625-28.765625 24.621094zm0 0"/><path d="m482.972656 353.347656c-2.121094-.003906-4.234375-.234375-6.304687-.691406l-14.609375-3.242188 1.503906-8.414062 2.027344-8.292969 14.761718 3.28125c4.800782 1.066407 9.769532-.910156 12.53125-4.980469 2.757813-4.074218 2.753907-9.417968-.011718-13.484374-2.765625-4.070313-7.734375-6.039063-12.535156-4.96875l-14.234376 3.144531c-.40625.121093-.820312.214843-1.242187.28125l-20.941406 4.667969c-4.535157.878906-8.949219-2.007813-9.957031-6.519532-1.007813-4.507812 1.757812-9 6.238281-10.132812l21.421875-4.773438.054687-.015625.300781-.074219 14.683594-3.246093c10.878906-2.402344 22.171875 1.617187 29.082032 10.355469 6.910156 8.734374 8.21875 20.652343 3.371093 30.683593-4.847656 10.027344-14.996093 16.40625-26.136719 16.421875zm0 0"/><path d="m463.648438 316.082031c-4.730469.007813-8.582032-3.804687-8.617188-8.535156-.03125-3.941406 2.660156-7.382813 6.492188-8.308594l14.066406-4.4375c4.6875-1.480469 8-5.675781 8.351562-10.585937.351563-4.90625-2.324218-9.53125-6.753906-11.667969-4.433594-2.140625-9.71875-1.355469-13.339844 1.972656l-27.449218 25.21875c-2.234376 2.09375-5.425782 2.828125-8.351563 1.921875s-5.140625-3.316406-5.800781-6.308594c-.664063-2.988281.332031-6.105468 2.601562-8.164062l27.484375-25.265625c8.78125-8.054687 21.589844-9.933594 32.316407-4.742187 10.726562 5.191406 17.199218 16.40625 16.328124 28.289062-.867187 11.886719-8.902343 22.035156-20.269531 25.613281l-14.074219 4.441407c-.957031.355468-1.964843.542968-2.984374.558593zm0 0"/><path d="m411.167969 291.335938c-2.722657 0-5.277344-1.300782-6.886719-3.496094-1.605469-2.195313-2.070312-5.027344-1.246094-7.621094l6.574219-20.738281.058594-.167969.023437-.078125 4.609375-14.589844c3.589844-11.351562 13.738281-19.367187 25.609375-20.230469 11.875-.863281 23.074219 5.601563 28.269532 16.3125 5.191406 10.710938 3.332031 23.507813-4.703126 32.296876l-10.441406 11.367187c-2.058594 2.242187-5.160156 3.21875-8.136718 2.558594-2.972657-.664063-5.367188-2.863281-6.28125-5.769531-.914063-2.90625-.207032-6.078126 1.851562-8.324219l10.417969-11.347657c3.320312-3.628906 4.09375-8.914062 1.953125-13.34375-2.144532-4.425781-6.769532-7.101562-11.675782-6.75-4.90625.355469-9.101562 3.664063-10.585937 8.351563l-4.476563 14.175781c-.097656.398438-.222656.789063-.375 1.167969l-6.425781 20.273437c-1.121093 3.546876-4.414062 5.953126-8.132812 5.953126zm0 0"/><path d="m401.097656 512.007812c-14.128906-.015624-25.582031-11.46875-25.597656-25.601562v-68.265625c0-4.714844 3.820312-8.535156 8.53125-8.535156 4.714844 0 8.535156 3.820312 8.535156 8.535156v68.265625c0 4.710938 3.820313 8.53125 8.53125 8.53125 4.714844 0 8.535156-3.820312 8.535156-8.53125v-68.265625c0-4.714844 3.820313-8.535156 8.53125-8.535156 4.714844 0 8.535157 3.820312 8.535157 8.535156v68.265625c-.015625 14.132812-11.46875 25.585938-25.601563 25.601562zm0 0"/></svg>