<svg height="512pt" viewBox="0 0 511 512" width="512pt" xmlns="http://www.w3.org/2000/svg"><path d="m85.832031 353.109375v150.355469h-59.730469c-9.414062-.027344-17.039062-7.652344-17.066406-17.066406v-34.132813c-.015625-46.699219 31.578125-87.488281 76.796875-99.15625zm0 0" fill="#02a9f4"/><path d="m345.246094 420.351562 5.121094 83.113282h-76.800782v-150.355469c33.792969 8.734375 60.808594 34.078125 71.679688 67.242187zm0 0" fill="#0377bc"/><path d="m324.765625 432.503906v70.960938h-51.199219v-140.96875c22.335938 13.707031 39.613282 34.308594 49.226563 58.691406 1.359375 3.613281 2.03125 7.453125 1.972656 11.316406zm0 0" fill="#02a9f4"/><path d="m273.566406 353.109375v150.355469h-187.734375v-150.355469c8.359375-2.167969 16.964844-3.257813 25.601563-3.242187h136.53125c8.636718-.015626 17.242187 1.074218 25.601562 3.242187zm0 0" fill="#f5f5f5"/><path d="m111.433594 349.867188h8.53125v68.265624c.03125 9.414063 7.65625 17.039063 17.070312 17.066407h85.332032c9.414062-.027344 17.039062-7.652344 17.066406-17.066407v-68.265624zm0 0" fill="#ffe0b2"/><path d="m154.101562 304.894531h51.199219v70.570313h-51.199219zm0 0" fill="#ffe0b2"/><path d="m346.613281 151.464844c-7.433593-8.367188-16.378906-15.257813-26.371093-20.308594v-.085938c-8.65625-31.820312-28.191407-59.597656-55.207032-78.503906l-32.429687-17.324218c-11.53125-4.378907-23.574219-7.273438-35.839844-8.617188h-34.132813c-12.261718 1.34375-24.304687 4.238281-35.839843 8.617188l-32.425781 17.324218c-27.019532 18.90625-46.554688 46.683594-55.210938 78.503906v.085938c-9.992188 5.050781-18.9375 11.941406-26.367188 20.308594-5.753906 7.238281-4.652343 17.75 2.472657 23.640625 5.519531 4.53125 13.265625 5.175781 19.457031 1.621093-.089844.820313-.089844 1.652344 0 2.472657h-.085938c-9.398437.070312-17 7.671875-17.066406 17.066406.027344 9.414063 7.652344 17.039063 17.066406 17.066406h19.578126c11.757812 53.574219 63.453124 93.867188 125.488281 93.867188 62.125 0 113.835937-40.363281 125.527343-93.953125l1.789063.085937h17.75c9.414063-.027343 17.039063-7.652343 17.066406-17.066406-.066406-9.394531-7.667969-16.996094-17.066406-17.066406h-.085937c.046874-.765625.046874-1.535157 0-2.304688 2.621093 1.515625 5.59375 2.308594 8.621093 2.304688 3.882813.019531 7.652344-1.308594 10.664063-3.753907 7.34375-5.894531 8.527344-16.625 2.648437-23.980468zm-277.921875 76.375c-.730468-.851563-1.429687-1.71875-2.097656-2.601563.667969.882813 1.367188 1.75 2.097656 2.601563zm-3.714844-4.835938c-.632812-.921875-1.246093-1.84375-1.820312-2.78125.574219.9375 1.1875 1.863282 1.820312 2.78125zm-3.121093-5.019531c-.542969-.96875-1.074219-1.933594-1.558594-2.910156.484375.976562 1.019531 1.941406 1.558594 2.910156zm8.8125 12.027344c.765625.804687 1.554687 1.601562 2.382812 2.371093-.828125-.773437-1.617187-1.5625-2.382812-2.371093zm4.769531 4.421875c.867188.714844 1.738281 1.421875 2.667969 2.089844-.929688-.667969-1.800781-1.375-2.664063-2.089844zm5.539062 3.964844c.957032.597656 1.910157 1.207031 2.933594 1.757812-1.023437-.550781-1.972656-1.15625-2.933594-1.757812zm6.386719 3.398437c1.039063.46875 2.050781.960937 3.152344 1.378906-1.097656-.417969-2.109375-.910156-3.144531-1.378906zm7.363281 2.71875c1.082032.324219 2.117188.6875 3.253907.960937-1.140625-.273437-2.171875-.636718-3.253907-.960937zm8.632813 1.925781c1.007813.15625 1.949219.382813 3 .5-1.050781-.117187-1.988281-.34375-3-.5zm0 0" fill="#f0c419"/><path d="m60.234375 201.984375 8.53125 11.347656h-34.132813c-9.414062-.027343-17.039062-7.652343-17.066406-17.066406.066406-9.394531 7.667969-16.996094 17.066406-17.066406h17.664063l7.9375 8.023437zm0 0" fill="#ffe0b2"/><path d="m341.832031 196.265625c-.027343 9.414063-7.652343 17.039063-17.066406 17.066406h-17.75l-1.789063-.085937c.765626-3.582032 1.363282-7.25 1.789063-10.921875.445313-4.023438.671875-8.066407.683594-12.117188 0-2.132812-.085938-4.179687-.253907-6.226562.253907-2.988281-8.277343-4.78125-8.277343-4.78125h25.597656c9.398437.070312 17 7.671875 17.066406 17.066406zm0 0" fill="#dfc49c"/><path d="m52.296875 187.222656c.085937.851563.257813 1.875.34375 2.898438-.171875-.9375-.257813-1.875-.34375-2.730469zm0 0" fill="#624421"/><path d="m52.296875 187.222656c.085937.851563.257813 1.875.34375 2.898438-.171875-.9375-.257813-1.875-.34375-2.730469zm0 0" fill="#dfc49c"/><path d="m307.445312 183.980469c0-1.230469-.082031-2.457031-.257812-3.671875 0-.425782-.085938-.765625-.085938-1.109375-.253906-3.070313-.765624-6.144531-1.277343-9.214844-.597657-2.988281-1.367188-5.972656-2.136719-8.875-19.113281-10.582031-57.085938-24.574219-123.988281-24.574219-3.925781 0-7.765625.082032-11.433594.167969h-1.109375c-59.222656 1.621094-93.527344 14.507813-111.445312 24.492187-.855469 2.902344-1.535157 5.800782-2.132813 8.789063-.511719 3.070313-1.023437 6.144531-1.28125 9.214844 0 .34375-.085937.683593-.085937 1.109375-.171876 1.214844-.257813 2.441406-.253907 3.671875-.171875 2.046875-.257812 4.09375-.257812 6.226562.011719 4.050781.242187 8.09375.683593 12.117188 1.605469 14.144531 5.984376 27.828125 12.886719 40.277343 21.394531 37.21875 59.988281 61.273438 102.824219 64.085938h.171875c3.753906.34375 7.59375.511719 11.433594.511719 62.125 0 113.835937-40.363281 125.527343-93.953125.765626-3.582032 1.363282-7.25 1.789063-10.921875.445313-4.023438.671875-8.066407.683594-12.117188 0-2.132812-.085938-4.179687-.253907-6.226562zm-246.273437 32.851562c1.652344 3.066407 3.535156 6.003907 5.632813 8.789063-2.136719-2.757813-4.019532-5.699219-5.632813-8.789063zm0 0" fill="#dfc49c"/><path d="m283.808594 183.980469c0-1.230469-.085938-2.457031-.257813-3.671875 0-.425782-.085937-.765625-.085937-1.109375-.253906-3.070313-.765625-6.144531-1.28125-9.214844-.59375-2.988281-1.363282-5.972656-2.132813-8.875-17.917969-9.898437-52.394531-22.871094-111.785156-24.40625h-1.109375c-59.222656 1.621094-93.527344 14.507813-111.445312 24.492187-.855469 2.902344-1.535157 5.800782-2.132813 8.789063-.511719 3.070313-1.023437 6.144531-1.28125 9.214844 0 .34375-.085937.683593-.085937 1.109375-.171876 1.214844-.257813 2.441406-.253907 3.671875-.171875 2.046875-.257812 4.09375-.257812 6.226562.011719 4.050781.242187 8.09375.683593 12.117188 1.605469 14.144531 5.984376 27.828125 12.886719 40.277343 21.394531 37.21875 59.988281 61.273438 102.824219 64.085938h.171875c56.574219-4.863281 102.398437-43.433594 113.324219-93.441406.765625-3.582032 1.363281-7.25 1.789062-10.921875.445313-4.023438.671875-8.066407.683594-12.117188 0-2.132812-.085938-4.179687-.253906-6.226562zm0 0" fill="#ffe0b2"/><path d="m52.640625 190.121094c-.171875-.9375-.257813-1.875-.34375-2.730469v-.167969c.085937.851563.257813 1.875.34375 2.898438zm0 0" fill="#ffe0b2"/><path d="m320.242188 131.070312h-281.085938c8.65625-31.820312 28.191406-59.597656 55.210938-78.503906l32.425781-17.324218c11.535156-4.378907 23.578125-7.273438 35.839843-8.617188h34.132813c12.265625 1.34375 24.308594 4.238281 35.839844 8.617188l32.429687 17.324218c27.015625 18.90625 46.550782 46.683594 55.207032 78.503906zm0 0" fill="#f57c00"/><path d="m296.605469 131.070312h-257.449219c8.65625-31.820312 28.191406-59.597656 55.210938-78.503906l32.425781-17.324218c11.535156-4.378907 23.578125-7.273438 35.839843-8.617188h10.496094c12.265625 1.34375 24.308594 4.238281 35.839844 8.617188l32.425781 17.324218c27.019531 18.90625 46.554688 46.683594 55.210938 78.503906zm0 0" fill="#ff9801"/><path d="m324.679688 179.199219h-17.578126c-.253906-3.070313-.765624-6.144531-1.277343-9.214844-.597657-2.988281-1.367188-5.972656-2.136719-8.875 5.980469 3.074219 11.472656 7.011719 16.300781 11.691406 1.289063 1.652344 2.882813 3.042969 4.691407 4.09375.046874.769531.046874 1.539063 0 2.304688zm0 0" fill="#7f5b53"/><path d="m55.710938 161.195312c-.855469 2.902344-1.535157 5.800782-2.132813 8.789063-.511719 3.070313-1.023437 6.144531-1.28125 9.214844h-17.578125c-.089844-.820313-.089844-1.652344 0-2.472657 1.695312-.972656 3.222656-2.210937 4.523438-3.671874 4.820312-4.804688 10.382812-8.808594 16.46875-11.859376zm0 0" fill="#7f5b53"/><g fill="#ffdc00"><path d="m343.964844 175.445312c-3.011719 2.445313-6.78125 3.773438-10.664063 3.753907-3.027343.003906-6-.789063-8.621093-2.304688-1.808594-1.050781-3.402344-2.441406-4.691407-4.09375-4.828125-4.679687-10.320312-8.617187-16.300781-11.691406-19.113281-10.582031-57.085938-24.574219-123.988281-24.574219-66.902344 0-104.875 13.992188-123.988281 24.660156-6.085938 3.050782-11.648438 7.054688-16.46875 11.859376-1.300782 1.460937-2.828126 2.699218-4.523438 3.671874-6.191406 3.554688-13.9375 2.910157-19.457031-1.621093-7.125-5.890625-8.226563-16.402344-2.472657-23.640625 7.429688-8.367188 16.375-15.257813 26.367188-20.308594v-.085938c24.234375-13.480468 67.753906-28.671874 140.542969-28.671874 72.789062 0 116.308593 15.191406 140.542969 28.671874v.085938c9.992187 5.050781 18.9375 11.941406 26.371093 20.308594 5.878907 7.355468 4.695313 18.085937-2.648437 23.980468zm0 0"/><path d="m111.433594 25.601562c9.425781 0 17.066406 7.640626 17.066406 17.066407v17.066406c0 9.425781-7.640625 17.066406-17.066406 17.066406-9.425782 0-17.066406-7.640625-17.066406-17.066406v-17.066406c0-9.425781 7.640624-17.066407 17.066406-17.066407zm0 0"/><path d="m179.699219 8.535156c9.425781 0 17.066406 7.640625 17.066406 17.066406v17.066407c0 9.425781-7.640625 17.066406-17.066406 17.066406s-17.066407-7.640625-17.066407-17.066406v-17.066407c0-9.425781 7.640626-17.066406 17.066407-17.066406zm0 0"/><path d="m247.964844 25.601562c9.425781 0 17.070312 7.640626 17.070312 17.066407v17.066406c0 9.425781-7.644531 17.066406-17.070312 17.066406-9.421875 0-17.066406-7.640625-17.066406-17.066406v-17.066406c0-9.425781 7.644531-17.066407 17.066406-17.066407zm0 0"/></g><path d="m343.964844 175.445312c-3.011719 2.445313-6.78125 3.773438-10.664063 3.753907-3.027343.003906-6-.789063-8.621093-2.304688-1.195313-.660156-2.261719-1.527343-3.15625-2.558593 6.304687-6.109376 6.929687-16.011719 1.453124-22.871094-7.433593-8.367188-16.378906-15.257813-26.371093-20.308594v-.085938c-22.699219-12.628906-62.378907-26.792968-127.230469-28.5 3.414062-.171874 6.828125-.171874 10.324219-.171874 72.789062 0 116.308593 15.191406 140.542969 28.671874v.085938c9.992187 5.050781 18.9375 11.941406 26.371093 20.308594 5.878907 7.355468 4.695313 18.085937-2.648437 23.980468zm0 0" fill="#fec108"/><path d="m496.371094 357.546875c-8.277344 17.664063-23.378906 29.011719-35.582032 43.777344-8.003906 9.898437-13.664062 21.480469-16.554687 33.875h-51.199219c-2.894531-12.394531-8.554687-23.976563-16.554687-33.875-12.203125-14.765625-27.308594-26.113281-35.585938-43.777344-23.894531-51.03125 11.691407-110.25 65.960938-117.761719 3.898437-.585937 7.835937-.871094 11.777343-.851562 60.757813 0 103.339844 64 77.738282 118.613281zm0 0" fill="#fec108"/><path d="m472.734375 357.546875c-8.277344 17.664063-23.464844 29.011719-35.582031 43.777344-8.035156 9.878906-13.699219 21.464843-16.554688 33.875h-27.5625c-2.894531-12.394531-8.554687-23.976563-16.554687-33.875-12.203125-14.765625-27.308594-26.113281-35.585938-43.777344-23.894531-51.03125 11.691407-110.25 65.960938-117.761719 54.273437 7.597656 89.773437 66.816406 65.878906 117.761719zm0 0" fill="#ffdc00"/><path d="m461.300781 452.265625c-.070312 9.398437-7.671875 17-17.066406 17.066406h-51.199219c-9.414062-.027343-17.039062-7.652343-17.070312-17.066406.070312-9.394531 7.671875-16.996094 17.070312-17.066406h51.199219c9.414063.027343 17.039063 7.652343 17.066406 17.066406zm0 0" fill="#707070"/><path d="m437.664062 452.265625c-.015624 4.519531-1.828124 8.847656-5.035156 12.03125-3.164062 3.242187-7.503906 5.0625-12.03125 5.035156h-27.5625c-9.414062-.027343-17.039062-7.652343-17.070312-17.066406.070312-9.394531 7.671875-16.996094 17.070312-17.066406h27.5625c9.414063.027343 17.039063 7.652343 17.066406 17.066406zm0 0" fill="#9e9e9e"/><path d="m393.035156 469.332031h51.199219v17.066407c0 9.425781-7.640625 17.066406-17.066406 17.066406h-17.066407c-9.425781 0-17.066406-7.640625-17.066406-17.066406zm0 0" fill="#7f8e94"/><path d="m179.699219 315.734375c-70.175781 0-128.558594-48.34375-135.800781-112.449219-.472657-4.34375-.714844-8.707031-.730469-13.078125-.023438-4.019531.195312-8.035156.65625-12.03125.234375-2.867187.75-6.058593 1.28125-9.257812.757812-3.839844 1.5-6.976563 2.414062-10.117188.855469-2.925781 3.207031-5.175781 6.167969-5.898437 2.960938-.726563 6.082031.1875 8.191406 2.386718 2.105469 2.203126 2.878906 5.363282 2.027344 8.289063-.785156 2.675781-1.410156 5.34375-1.964844 8.085937-.449218 2.765626-.914062 5.492188-1.132812 8.222657-.402344 3.425781-.59375 6.871093-.574219 10.320312.011719 3.75.222656 7.492188.632813 11.21875 6.257812 55.40625 57.347656 97.242188 118.832031 97.242188 56.875 0 106.15625-36.695313 117.191406-87.234375.699219-3.292969 1.257813-6.691406 1.652344-10.09375.402343-3.695313.609375-7.414063.625-11.132813.023437-3.335937-.160157-6.667969-.542969-9.984375-.25-3.066406-.71875-5.789062-1.167969-8.523437-.566406-2.851563-1.289062-5.675781-2.015625-8.410157-1.207031-4.554687 1.511719-9.226562 6.066406-10.433593 4.558594-1.203125 9.226563 1.511719 10.433594 6.070312.808594 3.066407 1.617188 6.226563 2.25 9.375.632813 3.816407 1.148438 7.007813 1.417969 10.207031.441406 3.882813.648437 7.789063.625 11.699219-.015625 4.351563-.257813 8.695313-.734375 13.019531-.464844 4.015626-1.109375 7.964844-1.933594 11.804688-12.734375 58.367188-69.023437 100.703125-133.867187 100.703125zm0 0"/><path d="m52.382812 221.867188h-17.75c-14.132812-.015626-25.582031-11.46875-25.597656-25.601563.0625-14.109375 11.488282-25.53125 25.597656-25.597656h17.664063c4.714844 0 8.535156 3.820312 8.535156 8.53125 0 4.714843-3.820312 8.535156-8.535156 8.535156h-17.578125c-2.25-.039063-4.417969.847656-6 2.449219-1.675781 1.578125-2.625 3.78125-2.617188 6.082031 0 4.710937 3.820313 8.53125 8.53125 8.535156h17.75c4.710938 0 8.53125 3.820313 8.53125 8.53125 0 4.714844-3.820312 8.535157-8.53125 8.535157zm0 0"/><path d="m324.765625 221.867188h-17.75c-4.710937 0-8.53125-3.820313-8.53125-8.535157 0-4.710937 3.820313-8.53125 8.53125-8.53125h17.75c4.710937-.003906 8.53125-3.824219 8.535156-8.535156.019531-2.222656-.863281-4.359375-2.449219-5.914063-1.582031-1.675781-3.78125-2.621093-6.085937-2.617187h-17.664063c-4.710937 0-8.53125-3.820313-8.53125-8.535156 0-4.710938 3.820313-8.53125 8.53125-8.53125h17.578126c14.144531.019531 25.621093 11.453125 25.6875 25.597656-.015626 14.132813-11.46875 25.585937-25.601563 25.601563zm0 0"/><path d="m39.15625 139.648438c-2.257812.011718-4.429688-.878907-6.03125-2.472657s-2.503906-3.757812-2.503906-6.019531c.003906-.769531.101562-1.535156.292968-2.28125 9.1875-33.738281 29.894532-63.199219 58.527344-83.273438 2.484375-1.839843 5.769532-2.1875 8.585938-.914062s4.726562 3.972656 4.988281 7.054688c.261719 3.078124-1.164063 6.0625-3.726563 7.792968-25.316406 17.726563-43.648437 43.738282-51.832031 73.539063-.917969 3.84375-4.347656 6.5625-8.300781 6.574219zm0 0"/><path d="m232.605469 43.777344c-1.03125 0-2.058594-.1875-3.023438-.550782-10.859375-4.121093-22.195312-6.851562-33.742187-8.117187-4.683594-.511719-8.070313-4.722656-7.558594-9.410156.511719-4.683594 4.722656-8.066407 9.410156-7.554688 12.980469 1.421875 25.726563 4.488281 37.941406 9.113281 3.859376 1.457032 6.121094 5.464844 5.378907 9.523438-.742188 4.054688-4.28125 7-8.40625 6.996094zm0 0"/><path d="m320.242188 139.648438c-4.082032.015624-7.601563-2.871094-8.382813-6.882813-8.230469-29.675781-26.523437-55.5625-51.75-73.230469-2.558594-1.730468-3.984375-4.714844-3.722656-7.792968.261719-3.082032 2.167969-5.78125 4.984375-7.054688s6.101562-.925781 8.589844.914062c28.632812 20.074219 49.335937 49.535157 58.523437 83.273438.6875 2.566406.144531 5.304688-1.46875 7.414062-1.613281 2.113282-4.113281 3.351563-6.773437 3.359376zm0 0"/><path d="m126.792969 43.777344c-4.125.003906-7.664063-2.941406-8.40625-6.996094-.742188-4.058594 1.523437-8.066406 5.382812-9.523438 12.210938-4.625 24.957031-7.691406 37.9375-9.117187 4.6875-.507813 8.898438 2.875 9.410157 7.558594.511718 4.6875-2.875 8.898437-7.558594 9.410156-11.546875 1.265625-22.882813 3.992187-33.742188 8.117187-.964844.363282-1.992187.550782-3.023437.550782zm0 0"/><path d="m34.707031 187.734375c-3.929687-.003906-7.347656-2.691406-8.28125-6.507813-.351562-1.675781-.425781-3.394531-.226562-5.09375.210937-3.042968 2.03125-5.742187 4.769531-7.078124 2.742188-1.339844 5.988281-1.113282 8.519531.589843 2.527344 1.703125 3.957031 4.628907 3.746094 7.671875-.027344.324219-.042969.609375-.050781.839844.304687 2.429688-.453125 4.871094-2.074219 6.703125s-3.953125 2.878906-6.402344 2.875zm0 0"/><path d="m324.679688 187.5625h-.179688c-4.609375-.019531-8.339844-3.753906-8.351562-8.363281 0-.125.015624-.609375.015624-.730469.027344-.308594.027344-.617188.007813-.925781-.28125-3.070313 1.117187-6.050781 3.652344-7.804688 2.535156-1.75 5.820312-1.996093 8.589843-.644531 2.769532 1.351562 4.59375 4.089844 4.777344 7.167969.074219.988281.082032 1.976562.023438 2.964843-.1875 4.601563-3.929688 8.257813-8.535156 8.335938zm0 0"/><path d="m154.101562 384c-4.714843 0-8.535156-3.820312-8.535156-8.535156v-70.566406c0-4.710938 3.820313-8.53125 8.535156-8.53125 4.710938 0 8.53125 3.820312 8.53125 8.53125v70.566406c0 4.714844-3.820312 8.535156-8.53125 8.535156zm0 0"/><path d="m205.300781 384c-4.714843 0-8.535156-3.820312-8.535156-8.535156v-70.566406c0-4.710938 3.820313-8.53125 8.535156-8.53125 4.710938 0 8.53125 3.820312 8.53125 8.53125v70.566406c0 4.714844-3.820312 8.535156-8.53125 8.535156zm0 0"/><path d="m333.300781 512h-307.199219c-14.132812-.015625-25.585937-11.46875-25.601562-25.601562v-34.132813c-.015625-29.425781 11.667969-57.648437 32.476562-78.457031 20.804688-20.808594 49.03125-32.488282 78.457032-32.476563h42.667968c4.710938 0 8.53125 3.820313 8.53125 8.535157 0 4.710937-3.820312 8.53125-8.53125 8.53125h-42.667968c-24.898438-.007813-48.78125 9.875-66.386719 27.484374-17.605469 17.605469-27.492187 41.484376-27.480469 66.382813v34.132813c.003906 4.714843 3.820313 8.53125 8.535156 8.535156h307.199219c4.710938-.003906 8.53125-3.820313 8.53125-8.535156v-34.132813c.011719-24.898437-9.875-48.777344-27.480469-66.382813-17.605468-17.605468-41.488281-27.492187-66.386718-27.484374h-42.664063c-4.714843 0-8.535156-3.820313-8.535156-8.53125 0-4.714844 3.820313-8.535157 8.535156-8.535157h42.664063c29.425781-.011719 57.648437 11.671875 78.457031 32.480469 20.808594 20.804688 32.492187 49.027344 32.476563 78.453125v34.132813c-.015626 14.132812-11.464844 25.585937-25.597657 25.601562zm0 0"/><path d="m333.316406 187.734375c-7.777344.015625-15.140625-3.515625-20-9.59375-.03125 0-32.257812-33.074219-133.617187-33.074219-101.808594 0-133.832031 33.359375-134.144531 33.691406-9.171876 10.464844-25 11.746094-35.742188 2.902344-10.78125-8.8125-12.4375-24.671875-3.703125-35.519531 4.289063-5.359375 45.546875-52.273437 173.589844-52.273437s169.300781 46.914062 173.585937 52.265624c6.148438 7.679688 7.351563 18.207032 3.09375 27.078126-4.257812 8.871093-13.222656 14.515624-23.0625 14.523437zm-153.617187-59.734375c109.617187 0 145.117187 37.441406 146.566406 39.042969 1.65625 2.242187 4.265625 3.582031 7.050781 3.625 1.933594.003906 3.8125-.65625 5.316406-1.867188 3.671876-2.953125 4.261719-8.320312 1.324219-12-1.488281-1.875-38.125-45.867187-160.257812-45.867187-122.132813 0-158.765625 43.992187-160.265625 45.867187-2.863282 3.609375-2.28125 8.855469 1.308594 11.75 3.648437 2.9375 8.972656 2.457031 12.03125-1.09375 1.375-1.597656 35.359374-39.457031 146.925781-39.457031zm0 0"/><path d="m111.433594 85.332031c-14.132813-.015625-25.585938-11.464843-25.601563-25.597656v-17.066406c0-14.140625 11.460938-25.601563 25.601563-25.601563 14.136718 0 25.601562 11.460938 25.601562 25.601563v17.066406c-.015625 14.132813-11.46875 25.582031-25.601562 25.597656zm0-51.199219c-4.710938.003907-8.53125 3.820313-8.535156 8.535157v17.066406c0 4.710937 3.820312 8.53125 8.535156 8.53125 4.710937 0 8.53125-3.820313 8.53125-8.53125v-17.066406c0-4.714844-3.820313-8.53125-8.53125-8.535157zm0 0"/><path d="m179.699219 68.265625c-14.132813-.015625-25.582031-11.46875-25.597657-25.597656v-17.066407c0-14.140624 11.460938-25.601562 25.597657-25.601562 14.140625 0 25.601562 11.460938 25.601562 25.601562v17.066407c-.015625 14.128906-11.46875 25.582031-25.601562 25.597656zm0-51.199219c-4.710938.003906-8.53125 3.820313-8.53125 8.535156v17.066407c0 4.710937 3.820312 8.53125 8.53125 8.53125 4.714843 0 8.535156-3.820313 8.535156-8.53125v-17.066407c-.003906-4.714843-3.824219-8.53125-8.535156-8.535156zm0 0"/><path d="m247.964844 85.332031c-14.128906-.015625-25.582032-11.464843-25.597656-25.597656v-17.066406c0-14.140625 11.460937-25.601563 25.597656-25.601563 14.140625 0 25.601562 11.460938 25.601562 25.601563v17.066406c-.015625 14.132813-11.46875 25.582031-25.601562 25.597656zm0-51.199219c-4.710938.003907-8.527344 3.820313-8.53125 8.535157v17.066406c0 4.710937 3.820312 8.53125 8.53125 8.53125 4.714844 0 8.535156-3.820313 8.535156-8.53125v-17.066406c-.003906-4.714844-3.820312-8.53125-8.535156-8.535157zm0 0"/><path d="m85.832031 512c-4.710937 0-8.53125-3.820312-8.53125-8.535156v-150.355469c0-4.710937 3.820313-8.535156 8.53125-8.535156 4.714844 0 8.535157 3.824219 8.535157 8.535156v150.355469c0 4.714844-3.820313 8.535156-8.535157 8.535156zm0 0"/><path d="m273.566406 512c-4.710937 0-8.53125-3.820312-8.53125-8.535156v-150.355469c0-4.710937 3.820313-8.535156 8.53125-8.535156 4.714844 0 8.535156 3.824219 8.535156 8.535156v150.355469c0 4.714844-3.820312 8.535156-8.535156 8.535156zm0 0"/><path d="m222.367188 443.734375h-85.332032c-14.132812-.015625-25.585937-11.46875-25.601562-25.601563v-59.734374c-4.714844 0-8.535156-3.820313-8.535156-8.53125 0-4.714844 3.820312-8.535157 8.535156-8.535157h8.53125c4.714844 0 8.535156 3.820313 8.535156 8.535157v68.265624c.003906 4.710938 3.820312 8.53125 8.535156 8.535157h85.332032c4.710937-.003907 8.53125-3.824219 8.53125-8.535157v-68.265624c0-4.714844 3.820312-8.535157 8.535156-8.535157 4.710937 0 8.53125 3.820313 8.53125 8.535157v68.265624c-.015625 14.132813-11.464844 25.585938-25.597656 25.601563zm0 0"/><path d="m444.242188 443.734375c-.707032 0-1.414063-.085937-2.101563-.257813-4.566406-1.15625-7.335937-5.796874-6.183594-10.367187 3.203125-13.621094 9.441407-26.34375 18.25-37.214844 4.167969-5.058593 8.621094-9.683593 12.925781-14.160156 8.664063-8.023437 15.9375-17.425781 21.535157-27.824219 10.480469-22.777344 8.523437-49.34375-5.179688-70.34375-13.914062-22.445312-38.445312-36.101562-64.851562-36.101562s-50.9375 13.65625-64.851563 36.101562c-13.703125 20.996094-15.660156 47.5625-5.179687 70.339844 5.59375 10.402344 12.867187 19.800781 21.53125 27.828125 4.308593 4.472656 8.757812 9.097656 12.925781 14.148437 8.804688 10.878907 15.042969 23.601563 18.25 37.226563.746094 2.957031-.140625 6.085937-2.328125 8.210937s-5.339844 2.921876-8.273437 2.089844c-2.933594-.832031-5.203126-3.164062-5.949219-6.121094-2.566407-11.179687-7.652344-21.628906-14.867188-30.546874-3.753906-4.542969-7.785156-8.734376-12.050781-13.175782-9.996094-9.335937-18.34375-20.292968-24.691406-32.410156-12.980469-28.0625-10.628906-60.828125 6.230468-86.75 17.042969-27.371094 47.003907-44.007812 79.25-44.007812 32.242188 0 62.203126 16.636718 79.25 44.007812 16.855469 25.921875 19.207032 58.6875 6.226563 86.75-6.347656 12.117188-14.695313 23.074219-24.691406 32.410156-4.265625 4.4375-8.296875 8.632813-12.050781 13.183594-7.214844 8.914062-12.296876 19.363281-14.855469 30.542969-.960938 3.78125-4.367188 6.433593-8.269531 6.441406zm0 0"/><path d="m444.234375 477.867188h-51.199219c-14.140625 0-25.601562-11.460938-25.601562-25.601563 0-14.136719 11.460937-25.597656 25.601562-25.597656h51.199219c14.136719 0 25.597656 11.460937 25.597656 25.597656 0 14.140625-11.460937 25.601563-25.597656 25.601563zm-51.199219-34.132813c-4.714844 0-8.535156 3.820313-8.535156 8.53125 0 4.714844 3.820312 8.535156 8.535156 8.535156h51.199219c4.710937 0 8.53125-3.820312 8.53125-8.535156 0-4.710937-3.820313-8.53125-8.53125-8.53125zm0 0"/><path d="m427.167969 512h-17.066407c-14.132812-.015625-25.585937-11.46875-25.601562-25.601562v-17.066407c0-4.710937 3.820312-8.53125 8.535156-8.53125h51.199219c4.710937 0 8.53125 3.820313 8.53125 8.53125v17.066407c-.015625 14.132812-11.46875 25.585937-25.597656 25.601562zm-25.601563-34.132812v8.53125c.003906 4.714843 3.820313 8.53125 8.535156 8.535156h17.066407c4.710937-.003906 8.527343-3.820313 8.53125-8.535156v-8.53125zm0 0"/><path d="m435.707031 392.535156c-.46875 0-.941406-.039062-1.40625-.117187-4.648437-.777344-7.789062-5.167969-7.015625-9.816407l5.289063-31.773437-9.207031 6.144531c-2.867188 1.917969-6.605469 1.917969-9.46875 0l-9.207032-6.144531 5.289063 31.773437c.6875 4.605469-2.445313 8.914063-7.039063 9.679688-4.59375.761719-8.953125-2.296875-9.792968-6.878906l-8.535157-51.199219c-.554687-3.355469.933594-6.71875 3.789063-8.566406 2.855468-1.84375 6.53125-1.820313 9.363281.066406l20.867187 13.90625 20.867188-13.910156c2.828125-1.886719 6.507812-1.910157 9.363281-.066407 2.855469 1.847657 4.34375 5.210938 3.785157 8.566407l-8.53125 51.199219c-.683594 4.113281-4.238282 7.128906-8.410157 7.136718zm0 0"/></svg>