<svg height="512pt" viewBox="0 0 512 512" width="512pt" xmlns="http://www.w3.org/2000/svg"><path d="m337.238281 349.867188c-3.800781 10.929687-10.675781 20.53125-19.796875 27.648437h-276.480468c-25.429688-19.796875-30.550782-57.003906-15.359376-87.382813 17.066407-34.132812 8.53125-81.066406 8.53125-81.066406h290.132813s-8.53125 46.933594 8.535156 81.066406c1.4375 2.945313 2.71875 5.964844 3.839844 9.046876zm0 0" fill="#783e22"/><path d="m313.601562 349.867188c-3.800781 10.929687-10.675781 20.53125-19.800781 27.648437h-252.839843c-25.429688-19.796875-30.550782-57.003906-15.359376-87.382813 17.066407-34.132812 8.53125-81.066406 8.53125-81.066406h266.496094s-8.53125 46.933594 8.535156 81.066406c1.4375 2.945313 2.71875 5.964844 3.839844 9.046876zm0 0" fill="#a0522d"/><path d="m85.332031 353.109375v150.355469h-59.730469c-9.414062-.027344-17.039062-7.652344-17.066406-17.066406v-34.132813c-.015625-46.699219 31.578125-87.488281 76.796875-99.15625zm0 0" fill="#60a917"/><path d="m349.867188 452.265625v34.132813c-.027344 9.414062-7.652344 17.039062-17.066407 17.066406h-59.734375v-150.355469c45.21875 11.667969 76.8125 52.457031 76.800782 99.15625zm0 0" fill="#549414"/><path d="m326.230469 452.265625v34.132813c-.027344 9.414062-7.652344 17.039062-17.066407 17.066406h-36.097656v-141.054688c32.789063 18.007813 53.167969 52.449219 53.164063 89.855469zm0 0" fill="#60a917"/><path d="m273.066406 353.109375v150.355469h-187.734375v-150.355469c8.359375-2.167969 16.964844-3.257813 25.601563-3.242187h136.53125c8.636718-.015626 17.242187 1.074218 25.601562 3.242187zm0 0" fill="#f5f5f5"/><g fill="#ffe0b2"><path d="m110.933594 349.867188h8.53125v68.265624c.03125 9.414063 7.65625 17.039063 17.070312 17.066407h85.332032c9.414062-.027344 17.039062-7.652344 17.066406-17.066407v-68.265624zm0 0"/><path d="m153.601562 304.894531h51.199219v70.570313h-51.199219zm0 0"/><path d="m59.734375 201.984375 8.53125 11.347656h-34.132813c-9.414062-.027343-17.039062-7.652343-17.066406-17.066406.066406-9.394531 7.667969-16.996094 17.066406-17.066406h17.664063l7.9375 8.023437zm0 0"/></g><path d="m341.332031 196.265625c-.027343 9.414063-7.652343 17.039063-17.066406 17.066406h-17.75l-1.789063-.085937c.765626-3.582032 1.363282-7.25 1.789063-10.921875.445313-4.023438.671875-8.066407.683594-12.117188 0-2.132812-.085938-4.179687-.253907-6.226562.253907-2.988281-8.277343-4.78125-8.277343-4.78125h25.597656c9.398437.070312 17 7.671875 17.066406 17.066406zm0 0" fill="#dfc49c"/><path d="m307.199219 190.207031c-.011719 4.050781-.238281 8.09375-.683594 12.117188-.425781 3.671875-1.023437 7.339843-1.789063 10.921875-11.691406 53.589844-63.402343 93.953125-125.527343 93.953125-3.925781 0-7.765625-.167969-11.605469-.511719-60.839844-4.949219-109.480469-48.894531-115.710938-104.363281-.441406-4.023438-.671874-8.066407-.683593-12.117188 0-2.132812.085937-4.179687.257812-6.226562-.003906-1.230469.082031-2.457031.253907-3.671875 0-.425782.085937-.765625.085937-1.109375.257813-3.070313.769531-6.144531 1.28125-9.214844.597656-2.988281 1.277344-5.886719 2.132813-8.789063 17.917968-9.984374 52.394531-22.957031 111.785156-24.492187h.769531c3.667969-.085937 7.507813-.167969 11.433594-.167969 66.902343 0 104.875 13.992188 123.988281 24.574219.769531 2.902344 1.539062 5.886719 2.136719 8.875.511719 3.070313 1.023437 6.144531 1.277343 9.214844 0 .34375.085938.683593.085938 1.109375.171875 1.214844.257812 2.441406.257812 3.671875.167969 2.046875.253907 4.09375.253907 6.226562zm0 0" fill="#dfc49c"/><path d="m283.5625 190.207031c-.011719 4.050781-.238281 8.09375-.683594 12.117188-.425781 3.671875-1.023437 7.339843-1.789062 10.921875-10.925782 50.09375-56.832032 88.664062-113.496094 93.441406-60.839844-4.949219-109.480469-48.894531-115.710938-104.363281-.441406-4.023438-.671874-8.066407-.683593-12.117188 0-2.132812.085937-4.179687.257812-6.226562-.003906-1.230469.082031-2.457031.253907-3.671875 0-.425782.085937-.765625.085937-1.109375.257813-3.070313.769531-6.144531 1.28125-9.214844.597656-2.988281 1.277344-5.886719 2.132813-8.789063 17.917968-9.984374 52.394531-22.957031 111.785156-24.492187h.769531c59.390625 1.535156 93.867187 14.507813 111.785156 24.40625.769531 2.902344 1.539063 5.886719 2.132813 8.875.515625 3.070313 1.027344 6.144531 1.28125 9.214844 0 .34375.085937.683593.085937 1.109375.171875 1.214844.257813 2.441406.257813 3.671875.167968 2.046875.253906 4.09375.253906 6.226562zm0 0" fill="#ffe0b2"/><path d="m319.742188 131.070312h-281.085938c8.65625-31.816406 28.191406-59.597656 55.210938-78.503906l32.425781-17.324218c11.535156-4.378907 23.578125-7.273438 35.839843-8.617188h34.132813c12.265625 1.34375 24.308594 4.238281 35.839844 8.617188l32.429687 17.324218c27.015625 18.90625 46.550782 46.6875 55.207032 78.503906zm0 0" fill="#f57c00"/><path d="m296.105469 131.070312h-257.449219c8.65625-31.816406 28.191406-59.597656 55.210938-78.503906l32.425781-17.324218c11.535156-4.378907 23.578125-7.273438 35.839843-8.617188h10.496094c12.265625 1.34375 24.308594 4.238281 35.839844 8.617188l32.425781 17.324218c27.019531 18.90625 46.554688 46.6875 55.210938 78.503906zm0 0" fill="#ff9801"/><path d="m324.179688 179.199219h-17.578126c-.253906-3.070313-.765624-6.144531-1.277343-9.214844-.597657-2.988281-1.367188-5.972656-2.136719-8.875 5.980469 3.074219 11.472656 7.011719 16.300781 11.691406 1.289063 1.652344 2.882813 3.042969 4.691407 4.09375.046874.769531.046874 1.539063 0 2.304688zm0 0" fill="#7f5b53"/><path d="m55.210938 161.195312c-.855469 2.902344-1.535157 5.800782-2.132813 8.789063-.511719 3.070313-1.023437 6.144531-1.28125 9.214844h-17.578125c-.089844-.820313-.089844-1.652344 0-2.472657 1.695312-.972656 3.222656-2.210937 4.523438-3.671874 4.820312-4.804688 10.382812-8.808594 16.46875-11.859376zm0 0" fill="#7f5b53"/><path d="m343.464844 175.445312c-3.011719 2.445313-6.78125 3.773438-10.664063 3.753907-3.027343.003906-6-.789063-8.621093-2.304688-1.808594-1.050781-3.402344-2.441406-4.691407-4.09375-4.828125-4.679687-10.320312-8.617187-16.300781-11.691406-19.113281-10.582031-57.085938-24.574219-123.988281-24.574219-66.902344 0-104.875 13.992188-123.988281 24.660156-6.085938 3.050782-11.648438 7.054688-16.46875 11.859376-1.300782 1.460937-2.828126 2.699218-4.523438 3.671874-6.191406 3.554688-13.9375 2.910157-19.457031-1.621093-7.125-5.890625-8.226563-16.402344-2.472657-23.640625 7.429688-8.367188 16.375-15.257813 26.367188-20.308594v-.085938c24.234375-13.480468 67.753906-28.671874 140.542969-28.671874 72.789062 0 116.308593 15.191406 140.542969 28.671874v.085938c9.992187 5.050781 18.9375 11.941406 26.371093 20.308594 5.878907 7.355468 4.695313 18.085937-2.648437 23.980468zm0 0" fill="#ffdc00"/><path d="m343.464844 175.445312c-3.011719 2.445313-6.78125 3.773438-10.664063 3.753907-3.027343.003906-6-.789063-8.621093-2.304688-1.808594-1.050781-3.402344-2.441406-4.691407-4.09375-4.828125-4.679687-10.320312-8.617187-16.300781-11.691406-19.113281-10.582031-57.085938-24.574219-123.988281-24.574219-66.902344 0-104.875 13.992188-123.988281 24.660156-6.085938 3.050782-11.648438 7.054688-16.46875 11.859376-1.300782 1.460937-2.828126 2.699218-4.523438 3.671874-6.191406 3.554688-13.9375 2.910157-19.457031-1.621093-7.125-5.890625-8.226563-16.402344-2.472657-23.640625 7.429688-8.367188 16.375-15.257813 26.367188-20.308594v-.085938c24.234375-13.480468 67.753906-28.671874 140.542969-28.671874 72.789062 0 116.308593 15.191406 140.542969 28.671874v.085938c9.992187 5.050781 18.9375 11.941406 26.371093 20.308594 5.878907 7.355468 4.695313 18.085937-2.648437 23.980468zm0 0" fill="#ffdc00"/><path d="m343.464844 175.445312c-3.011719 2.445313-6.78125 3.773438-10.664063 3.753907-3.027343.003906-6-.789063-8.621093-2.304688-1.195313-.660156-2.261719-1.527343-3.15625-2.558593 6.304687-6.109376 6.933593-16.011719 1.453124-22.871094-7.433593-8.367188-16.378906-15.257813-26.371093-20.308594v-.085938c-22.699219-12.628906-62.378907-26.792968-127.230469-28.5 3.414062-.171874 6.828125-.171874 10.324219-.171874 72.789062 0 116.308593 15.191406 140.542969 28.671874v.085938c9.992187 5.050781 18.9375 11.941406 26.371093 20.308594 5.878907 7.355468 4.695313 18.085937-2.648437 23.980468zm0 0" fill="#fec108"/><path d="m110.933594 25.601562c9.425781 0 17.066406 7.640626 17.066406 17.066407v17.066406c0 9.425781-7.640625 17.066406-17.066406 17.066406-9.425782 0-17.066406-7.640625-17.066406-17.066406v-17.066406c0-9.425781 7.640624-17.066407 17.066406-17.066407zm0 0" fill="#ffdc00"/><path d="m179.199219 8.535156c9.425781 0 17.066406 7.640625 17.066406 17.066406v17.066407c0 9.425781-7.640625 17.066406-17.066406 17.066406s-17.066407-7.640625-17.066407-17.066406v-17.066407c0-9.425781 7.640626-17.066406 17.066407-17.066406zm0 0" fill="#ffdc00"/><path d="m247.464844 25.601562c9.425781 0 17.070312 7.640626 17.070312 17.066407v17.066406c0 9.425781-7.644531 17.066406-17.070312 17.066406-9.421875 0-17.066406-7.640625-17.066406-17.066406v-17.066406c0-9.425781 7.644531-17.066407 17.066406-17.066407zm0 0" fill="#ffdc00"/><path d="m495.871094 357.546875c-8.277344 17.664063-23.378906 29.011719-35.582032 43.777344-8.003906 9.898437-13.664062 21.480469-16.554687 33.875h-51.199219c-2.894531-12.394531-8.554687-23.976563-16.554687-33.875-12.203125-14.765625-27.308594-26.113281-35.585938-43.777344-23.894531-51.03125 11.691407-110.25 65.960938-117.761719 3.898437-.585937 7.835937-.871094 11.777343-.851562 60.757813 0 103.339844 64 77.738282 118.613281zm0 0" fill="#fec108"/><path d="m472.234375 357.546875c-8.277344 17.664063-23.464844 29.011719-35.582031 43.777344-8.035156 9.878906-13.699219 21.464843-16.554688 33.875h-27.5625c-2.894531-12.394531-8.554687-23.976563-16.554687-33.875-12.203125-14.765625-27.308594-26.113281-35.585938-43.777344-23.894531-51.03125 11.691407-110.25 65.960938-117.761719 54.273437 7.597656 89.773437 66.816406 65.878906 117.761719zm0 0" fill="#ffdc00"/><path d="m460.800781 452.265625c-.070312 9.398437-7.671875 17-17.066406 17.066406h-51.199219c-9.414062-.027343-17.039062-7.652343-17.070312-17.066406.070312-9.394531 7.671875-16.996094 17.070312-17.066406h51.199219c9.414063.027343 17.039063 7.652343 17.066406 17.066406zm0 0" fill="#707070"/><path d="m437.164062 452.265625c-.015624 4.519531-1.828124 8.847656-5.035156 12.03125-3.164062 3.242187-7.503906 5.0625-12.03125 5.035156h-27.5625c-9.414062-.027343-17.039062-7.652343-17.070312-17.066406.070312-9.394531 7.671875-16.996094 17.070312-17.066406h27.5625c9.414063.027343 17.039063 7.652343 17.066406 17.066406zm0 0" fill="#9e9e9e"/><path d="m392.535156 469.332031h51.199219v17.066407c0 9.425781-7.640625 17.066406-17.066406 17.066406h-17.066407c-9.425781 0-17.066406-7.640625-17.066406-17.066406zm0 0" fill="#7f8e94"/><path d="m179.199219 315.734375c-70.183594 0-128.5625-48.34375-135.796875-112.449219-.480469-4.34375-.726563-8.707031-.734375-13.078125-.023438-4.015625.195312-8.027343.652343-12.015625.246094-2.992187.785157-6.273437 1.332032-9.558594.707031-3.546874 1.449218-6.691406 2.371094-9.847656.863281-2.925781 3.21875-5.171875 6.179687-5.886718 2.964844-.71875 6.085937.199218 8.1875 2.40625 2.105469 2.210937 2.871094 5.371093 2.007813 8.296874-.78125 2.65625-1.40625 5.316407-1.953126 8.058594-.425781 2.609375-.90625 5.425782-1.144531 8.257813-.394531 3.414062-.582031 6.851562-.566406 10.289062.011719 3.746094.222656 7.488281.632813 11.210938 6.253906 55.414062 57.34375 97.25 118.832031 97.25 56.875 0 106.15625-36.695313 117.1875-87.234375.703125-3.292969 1.257812-6.691406 1.65625-10.09375.40625-3.695313.613281-7.414063.625-11.132813.019531-3.339843-.160157-6.679687-.539063-10-.265625-3.125-.746094-5.941406-1.214844-8.773437-.523437-2.582032-1.246093-5.402344-1.972656-8.132813-.84375-2.96875-.019531-6.15625 2.152344-8.34375 2.171875-2.191406 5.355469-3.035156 8.328125-2.214843 2.972656.820312 5.269531 3.179687 6.011719 6.175781.816406 3.066406 1.621094 6.226562 2.253906 9.390625.609375 3.609375 1.144531 6.890625 1.421875 10.175781.4375 3.890625.648437 7.804687.625 11.722656-.011719 4.351563-.253906 8.699219-.734375 13.027344-.460938 4.007813-1.109375 7.957031-1.929688 11.796875-12.738281 58.367188-69.03125 100.703125-133.871093 100.703125zm0 0"/><path d="m51.882812 221.867188h-17.75c-14.132812-.015626-25.582031-11.46875-25.597656-25.601563.0625-14.109375 11.488282-25.53125 25.597656-25.597656h17.664063c4.714844 0 8.535156 3.820312 8.535156 8.53125 0 4.714843-3.820312 8.535156-8.535156 8.535156h-17.578125c-2.25-.039063-4.421875.847656-6.003906 2.449219-1.671875 1.582031-2.617188 3.78125-2.613282 6.082031.003907 4.710937 3.820313 8.53125 8.53125 8.535156h17.75c4.710938 0 8.53125 3.820313 8.53125 8.53125 0 4.714844-3.820312 8.535157-8.53125 8.535157zm0 0"/><path d="m324.265625 221.867188h-17.75c-4.710937 0-8.53125-3.820313-8.53125-8.535157 0-4.710937 3.820313-8.53125 8.53125-8.53125h17.75c4.710937-.003906 8.53125-3.824219 8.535156-8.535156.019531-2.226563-.867187-4.363281-2.460937-5.921875-1.578125-1.671875-3.773438-2.617188-6.074219-2.609375h-17.664063c-4.710937 0-8.53125-3.820313-8.53125-8.535156 0-4.710938 3.820313-8.53125 8.53125-8.53125h17.578126c14.144531.023437 25.617187 11.457031 25.6875 25.597656-.015626 14.132813-11.46875 25.585937-25.601563 25.601563zm0 0"/><path d="m38.65625 139.648438c-2.257812.011718-4.429688-.878907-6.03125-2.472657s-2.5-3.757812-2.503906-6.019531c0-.769531.097656-1.535156.289062-2.28125 9.1875-33.742188 29.898438-63.203125 58.535156-83.273438 2.484376-1.839843 5.769532-2.1875 8.585938-.914062s4.726562 3.972656 4.988281 7.054688c.261719 3.078124-1.164062 6.0625-3.726562 7.792968-25.316407 17.726563-43.652344 43.738282-51.84375 73.539063-.914063 3.84375-4.34375 6.5625-8.292969 6.574219zm0 0"/><path d="m232.105469 43.777344c-1.03125 0-2.054688-.1875-3.019531-.550782-10.859376-4.121093-22.199219-6.847656-33.746094-8.117187-4.683594-.511719-8.070313-4.722656-7.558594-9.410156.511719-4.683594 4.722656-8.066407 9.410156-7.554688 12.980469 1.421875 25.726563 4.484375 37.9375 9.113281 3.855469 1.457032 6.121094 5.464844 5.378906 9.519532-.742187 4.058594-4.277343 7.003906-8.402343 7zm0 0"/><path d="m319.742188 139.648438c-4.082032.015624-7.597657-2.875-8.382813-6.882813-8.230469-29.675781-26.527344-55.566406-51.753906-73.230469-2.558594-1.730468-3.984375-4.714844-3.722657-7.792968.261719-3.082032 2.167969-5.78125 4.984376-7.054688 2.816406-1.273438 6.101562-.925781 8.589843.914062 28.636719 20.070313 49.34375 49.53125 58.53125 83.273438.683594 2.566406.136719 5.304688-1.476562 7.410156-1.613281 2.109375-4.113281 3.351563-6.769531 3.363282zm0 0"/><path d="m126.292969 43.777344c-4.125.003906-7.660157-2.941406-8.402344-7-.742187-4.054688 1.523437-8.0625 5.382813-9.519532 12.207031-4.628906 24.957031-7.691406 37.933593-9.117187 4.6875-.507813 8.898438 2.875 9.410157 7.558594.511718 4.6875-2.875 8.898437-7.558594 9.410156-11.546875 1.265625-22.886719 3.996094-33.746094 8.117187-.964844.363282-1.988281.550782-3.019531.550782zm0 0"/><path d="m34.207031 187.734375c-3.929687-.003906-7.347656-2.691406-8.28125-6.507813-.351562-1.675781-.425781-3.394531-.222656-5.09375.375-4.679687 4.425781-8.203124 9.113281-7.925781 4.699219.332031 8.246094 4.410157 7.914063 9.109375-.019531.324219-.035157.609375-.039063.839844.296875 2.429688-.460937 4.871094-2.082031 6.703125-1.625 1.832031-3.953125 2.878906-6.402344 2.875zm0 0"/><path d="m324.179688 187.5625h-.179688c-4.609375-.023438-8.335938-3.753906-8.351562-8.363281 0-.125.015624-.609375.019531-.730469.023437-.308594.023437-.617188.003906-.925781-.28125-3.070313 1.117187-6.050781 3.652344-7.804688 2.535156-1.75 5.820312-1.996093 8.589843-.644531 2.769532 1.351562 4.59375 4.089844 4.777344 7.167969.070313.988281.078125 1.976562.027344 2.964843-.191406 4.601563-3.933594 8.253907-8.539062 8.335938zm0 0"/><path d="m153.601562 384c-4.714843 0-8.535156-3.820312-8.535156-8.535156v-70.566406c0-4.710938 3.820313-8.53125 8.535156-8.53125 4.710938 0 8.53125 3.820312 8.53125 8.53125v70.566406c0 4.714844-3.820312 8.535156-8.53125 8.535156zm0 0"/><path d="m204.800781 384c-4.714843 0-8.535156-3.820312-8.535156-8.535156v-70.566406c0-4.710938 3.820313-8.53125 8.535156-8.53125 4.710938 0 8.53125 3.820312 8.53125 8.53125v70.566406c0 4.714844-3.820312 8.535156-8.53125 8.535156zm0 0"/><path d="m332.800781 512h-307.199219c-14.132812-.015625-25.585937-11.46875-25.601562-25.601562v-34.132813c-.0117188-29.425781 11.671875-57.648437 32.476562-78.457031 20.808594-20.804688 49.03125-32.488282 78.457032-32.476563h42.667968c4.710938 0 8.53125 3.820313 8.53125 8.535157 0 4.710937-3.820312 8.53125-8.53125 8.53125h-42.667968c-24.898438-.007813-48.78125 9.875-66.386719 27.484374-17.605469 17.605469-27.492187 41.484376-27.480469 66.382813v34.132813c.003906 4.710937 3.824219 8.53125 8.535156 8.535156h307.199219c4.710938-.003906 8.527344-3.824219 8.53125-8.535156v-34.132813c.011719-24.898437-9.875-48.777344-27.480469-66.382813-17.605468-17.609374-41.488281-27.492187-66.386718-27.484374h-42.664063c-4.714843 0-8.535156-3.820313-8.535156-8.53125 0-4.714844 3.820313-8.535157 8.535156-8.535157h42.664063c29.425781-.011719 57.648437 11.671875 78.457031 32.480469 20.808594 20.804688 32.492187 49.027344 32.476563 78.453125v34.132813c-.015626 14.132812-11.464844 25.585937-25.597657 25.601562zm0 0"/><path d="m332.8125 187.734375c-7.78125.019531-15.144531-3.515625-19.996094-9.601563-.03125.007813-32.265625-33.066406-133.617187-33.066406-101.8125 0-133.835938 33.359375-134.148438 33.691406-9.171875 10.460938-24.996093 11.742188-35.734375 2.902344-10.785156-8.808594-12.441406-24.671875-3.707031-35.519531 4.289063-5.359375 45.546875-52.273437 173.589844-52.273437s169.300781 46.914062 173.589843 52.265624c6.144532 7.683594 7.34375 18.210938 3.085938 27.078126-4.257812 8.871093-13.222656 14.515624-23.0625 14.523437zm-153.613281-59.734375c110.445312 0 145.214843 37.515625 146.644531 39.117188 1.640625 2.207031 4.21875 3.519531 6.96875 3.550781 1.933594.003906 3.804688-.652344 5.308594-1.867188 3.679687-2.945312 4.28125-8.316406 1.339844-12-1.5-1.875-38.125-45.867187-160.261719-45.867187s-158.761719 43.992187-160.261719 45.867187c-2.867188 3.609375-2.285156 8.859375 1.308594 11.75 3.640625 2.957031 8.972656 2.472657 12.019531-1.09375 1.378906-1.597656 35.359375-39.457031 146.933594-39.457031zm0 0"/><path d="m110.933594 85.332031c-14.132813-.015625-25.585938-11.464843-25.601563-25.597656v-17.066406c0-14.140625 11.460938-25.601563 25.601563-25.601563 14.136718 0 25.601562 11.460938 25.601562 25.601563v17.066406c-.015625 14.132813-11.46875 25.582031-25.601562 25.597656zm0-51.199219c-4.710938.003907-8.53125 3.824219-8.535156 8.535157v17.066406c0 4.710937 3.820312 8.53125 8.535156 8.53125 4.710937 0 8.53125-3.820313 8.53125-8.53125v-17.066406c-.003906-4.710938-3.820313-8.53125-8.53125-8.535157zm0 0"/><path d="m179.199219 68.265625c-14.132813-.015625-25.582031-11.46875-25.597657-25.597656v-17.066407c0-14.140624 11.460938-25.601562 25.597657-25.601562 14.140625 0 25.601562 11.460938 25.601562 25.601562v17.066407c-.015625 14.128906-11.46875 25.582031-25.601562 25.597656zm0-51.199219c-4.710938.003906-8.527344 3.824219-8.53125 8.535156v17.066407c0 4.710937 3.820312 8.53125 8.53125 8.53125 4.714843 0 8.535156-3.820313 8.535156-8.53125v-17.066407c-.003906-4.710937-3.824219-8.53125-8.535156-8.535156zm0 0"/><path d="m247.464844 85.332031c-14.128906-.015625-25.582032-11.464843-25.597656-25.597656v-17.066406c0-14.140625 11.460937-25.601563 25.597656-25.601563 14.140625 0 25.601562 11.460938 25.601562 25.601563v17.066406c-.015625 14.132813-11.46875 25.582031-25.601562 25.597656zm0-51.199219c-4.710938.003907-8.527344 3.824219-8.53125 8.535157v17.066406c0 4.710937 3.820312 8.53125 8.53125 8.53125 4.714844 0 8.535156-3.820313 8.535156-8.53125v-17.066406c-.003906-4.710938-3.820312-8.53125-8.535156-8.535157zm0 0"/><path d="m85.332031 512c-4.710937 0-8.53125-3.820312-8.53125-8.535156v-150.355469c0-4.710937 3.820313-8.535156 8.53125-8.535156 4.714844 0 8.535157 3.824219 8.535157 8.535156v150.355469c0 4.714844-3.820313 8.535156-8.535157 8.535156zm0 0"/><path d="m273.066406 512c-4.710937 0-8.53125-3.820312-8.53125-8.535156v-150.355469c0-4.710937 3.820313-8.535156 8.53125-8.535156 4.714844 0 8.535156 3.824219 8.535156 8.535156v150.355469c0 4.714844-3.820312 8.535156-8.535156 8.535156zm0 0"/><path d="m221.867188 443.734375h-85.332032c-14.132812-.015625-25.585937-11.46875-25.601562-25.601563v-59.734374c-4.714844 0-8.535156-3.820313-8.535156-8.53125 0-4.714844 3.820312-8.535157 8.535156-8.535157h8.53125c4.714844 0 8.535156 3.820313 8.535156 8.535157v68.265624c.003906 4.710938 3.824219 8.53125 8.535156 8.535157h85.332032c4.710937-.003907 8.527343-3.824219 8.53125-8.535157v-68.265624c0-4.714844 3.820312-8.535157 8.535156-8.535157 4.710937 0 8.53125 3.820313 8.53125 8.535157v68.265624c-.015625 14.132813-11.464844 25.585938-25.597656 25.601563zm0 0"/><path d="m443.742188 443.734375c-.710938 0-1.417969-.085937-2.105469-.257813-4.566407-1.15625-7.332031-5.796874-6.175781-10.367187 3.203124-13.621094 9.4375-26.339844 18.242187-37.214844 4.171875-5.058593 8.621094-9.683593 12.925781-14.148437 8.664063-8.03125 15.9375-17.433594 21.535156-27.835938 10.484376-22.777344 8.527344-49.34375-5.175781-70.34375-13.914062-22.445312-38.445312-36.101562-64.851562-36.101562s-50.9375 13.65625-64.851563 36.101562c-13.703125 20.996094-15.660156 47.5625-5.175781 70.339844 5.59375 10.402344 12.871094 19.808594 21.53125 27.835938 4.304687 4.464843 8.753906 9.089843 12.921875 14.140624 8.804688 10.878907 15.042969 23.601563 18.246094 37.226563.832031 2.984375-.015625 6.1875-2.222656 8.367187-2.203126 2.175782-5.414063 2.988282-8.390626 2.121094-2.976562-.871094-5.246093-3.285156-5.929687-6.308594-2.566406-11.183593-7.652344-21.632812-14.875-30.546874-3.746094-4.542969-7.777344-8.734376-12.046875-13.167969-9.988281-9.34375-18.335938-20.300781-24.6875-32.417969-12.980469-28.058594-10.628906-60.820312 6.222656-86.742188 17.042969-27.375 47.007813-44.015624 79.257813-44.015624s62.214843 16.640624 79.257812 44.015624c16.851563 25.921876 19.203125 58.683594 6.222657 86.742188-6.351563 12.117188-14.699219 23.074219-24.6875 32.417969-4.269532 4.433593-8.300782 8.625-12.050782 13.175781-7.21875 8.914062-12.304687 19.359375-14.871094 30.539062-.957031 3.789063-4.359374 6.441407-8.265624 6.445313zm0 0"/><path d="m443.734375 477.867188h-51.199219c-14.140625 0-25.601562-11.460938-25.601562-25.601563 0-14.136719 11.460937-25.597656 25.601562-25.597656h51.199219c14.136719 0 25.597656 11.460937 25.597656 25.597656 0 14.140625-11.460937 25.601563-25.597656 25.601563zm-51.199219-34.132813c-4.714844 0-8.535156 3.820313-8.535156 8.53125 0 4.714844 3.820312 8.535156 8.535156 8.535156h51.199219c4.710937 0 8.53125-3.820312 8.53125-8.535156 0-4.710937-3.820313-8.53125-8.53125-8.53125zm0 0"/><path d="m426.667969 512h-17.066407c-14.132812-.015625-25.585937-11.46875-25.601562-25.601562v-17.066407c0-4.710937 3.820312-8.53125 8.535156-8.53125h51.199219c4.710937 0 8.53125 3.820313 8.53125 8.53125v17.066407c-.015625 14.132812-11.46875 25.585937-25.597656 25.601562zm-25.601563-34.132812v8.53125c.003906 4.710937 3.824219 8.53125 8.535156 8.535156h17.066407c4.710937-.003906 8.527343-3.824219 8.53125-8.535156v-8.53125zm0 0"/><path d="m435.207031 392.535156c-.472656 0-.945312-.039062-1.410156-.117187-4.644531-.777344-7.785156-5.167969-7.011719-9.816407l5.292969-31.773437-9.214844 6.144531c-2.863281 1.917969-6.601562 1.917969-9.464843 0l-9.21875-6.144531 5.296874 31.773437c.558594 3.035157-.566406 6.128907-2.933593 8.101563-2.371094 1.972656-5.621094 2.515625-8.5 1.414063-2.878907-1.097657-4.945313-3.664063-5.398438-6.714844l-8.535156-51.199219c-.558594-3.355469.929687-6.71875 3.785156-8.566406 2.855469-1.84375 6.535157-1.820313 9.367188.066406l20.871093 13.90625 20.867188-13.910156c2.828125-1.886719 6.507812-1.910157 9.363281-.066407 2.855469 1.847657 4.34375 5.210938 3.785157 8.566407l-8.53125 51.199219c-.683594 4.113281-4.238282 7.128906-8.410157 7.136718zm0 0"/><path d="m40.953125 386.046875c-1.898437.003906-3.742187-.628906-5.238281-1.796875-27.824219-21.667969-35.289063-62.851562-17.746094-97.933594 15.507812-31.007812 7.871094-70.917968 7.792969-71.316406-.597657-2.988281.445312-6.070312 2.738281-8.082031 2.289062-2.011719 5.480469-2.648438 8.367188-1.671875 2.890624.976562 5.035156 3.421875 5.632812 6.414062.371094 1.855469 8.898438 45.957032-9.265625 82.289063-13.917969 27.835937-8.464844 60.152343 12.96875 76.835937 2.875 2.238282 4.011719 6.058594 2.828125 9.503906-1.183594 3.449219-4.429688 5.761719-8.074219 5.761719zm0 0"/><path d="m336.640625 307.710938c-3.59375.003906-6.800781-2.246094-8.023437-5.625-1.019532-2.796876-2.1875-5.539063-3.496094-8.214844-18.125-36.25-9.597656-80.351563-9.226563-82.210938.597657-2.988281 2.742188-5.433594 5.632813-6.410156 2.886718-.980469 6.078125-.34375 8.367187 1.671875 2.292969 2.011719 3.335938 5.089844 2.738281 8.082031-.078124.398438-7.714843 40.308594 7.796876 71.316406 1.582031 3.238282 2.996093 6.5625 4.226562 9.949219 1.605469 4.429688-.679688 9.320313-5.105469 10.929688-.933593.335937-1.917969.511719-2.910156.511719zm0 0"/><path d="m317.445312 386.046875c-3.648437.003906-6.898437-2.316406-8.078124-5.773437-1.179688-3.453126-.035157-7.273438 2.855468-9.507813 7.816406-6.136719 13.710938-14.390625 16.980469-23.777344 1.585937-4.4375 6.472656-6.75 10.910156-5.160156 4.441407 1.585937 6.75 6.472656 5.164063 10.910156-4.367188 12.457031-12.214844 23.398438-22.613282 31.527344-1.492187 1.15625-3.328124 1.785156-5.21875 1.78125zm0 0"/></svg>