<svg height="512pt" viewBox="0 0 512 512.01259" width="512pt" xmlns="http://www.w3.org/2000/svg"><path d="m317.445312 360.460938h-276.480468c-25.429688-19.796876-30.546875-57.003907-15.359375-87.382813 17.066406-34.132813 8.535156-85.332031 8.535156-85.332031h290.132813s-8.535157 51.199218 8.53125 85.332031c15.191406 30.378906 10.070312 67.585937-15.359376 87.382813zm0 0" fill="#783e22"/><path d="m293.808594 360.460938h-252.84375c-25.429688-19.796876-30.546875-57.003907-15.359375-87.382813 17.066406-34.132813 8.535156-85.332031 8.535156-85.332031h266.496094s-8.535157 51.199218 8.53125 85.332031c15.191406 30.378906 10.070312 67.585937-15.359375 87.382813zm0 0" fill="#a0522d"/><path d="m349.871094 482.0625v4.351562c-.027344 9.414063-7.652344 17.039063-17.066406 17.066407h-307.199219c-9.414063-.027344-17.039063-7.652344-17.066407-17.066407v-51.203124c.035157-29.144532 12.441407-56.90625 34.132813-76.371094 2.132813-1.878906 4.269531-3.667969 6.570313-5.375 8.375-6.308594 17.671874-11.289063 27.5625-14.765625 2.789062-1.058594 5.636718-1.941407 8.535156-2.644531 8.359375-2.167969 16.964844-3.257813 25.601562-3.242188h136.53125c8.636719-.015625 17.242188 1.074219 25.601563 3.242188 2.894531.703124 5.746093 1.585937 8.53125 2.644531 9.890625 3.476562 19.1875 8.457031 27.5625 14.765625 2.304687 1.707031 4.4375 3.496094 6.570312 5.375 3.015625 2.730468 5.867188 5.636718 8.535157 8.703125.328124.269531.613281.585937.851562.9375zm0 0" fill="#60a917"/><path d="m273.074219 336.054688v22.359374c-.0625 34.382813-25.628907 63.382813-59.734375 67.753907-2.832032.34375-5.679688.515625-8.535156.511719h-51.199219c-2.851563.003906-5.699219-.167969-8.53125-.511719-34.105469-4.371094-59.675781-33.371094-59.734375-67.753907v-22.359374c8.359375-2.167969 16.964844-3.257813 25.601562-3.242188h136.53125c8.636719-.015625 17.242188 1.074219 25.601563 3.242188zm0 0" fill="#ffdc00"/><path d="m119.472656 332.8125v25.601562c0 18.851563 15.28125 34.132813 34.132813 34.132813h51.199219c18.851562 0 34.136718-15.28125 34.136718-34.132813v-25.601562zm0 0" fill="#ffe0b2"/><path d="m153.605469 287.84375h51.199219v70.570312h-51.199219zm0 0" fill="#ffe0b2"/><path d="m503.386719 404.40625-34.046875-20.394531 17.066406-28.414063c-10.917969-15.503906-26.265625-27.34375-44.03125-33.964844l-32.769531 28.246094-32.765625-28.246094c-17.769532 6.621094-33.117188 18.460938-44.035156 33.964844l17.066406 28.414063-34.046875 20.394531c0 1.707031-.085938 3.5-.085938 5.207031-.058593 18.183594 5.222657 35.988281 15.191407 51.199219h44.542968l7.765625 38.910156c17.222657 5.007813 35.511719 5.007813 52.734375 0l7.765625-38.910156h44.546875c9.96875-15.210938 15.25-33.015625 15.1875-51.199219 0-1.707031-.085937-3.5-.085937-5.207031zm-110.847657 30.804688-8.53125-34.132813 25.597657-17.066406 25.601562 17.066406-8.535156 34.132813zm0 0" fill="#f5f5f5"/><g fill="#607d8b"><path d="m443.738281 398.238281-11.375 45.507813h-45.515625l-11.375-45.507813 34.132813-22.757812zm0 0"/><path d="m488.285156 460.8125c-12.195312 18.832031-30.765625 32.648438-52.3125 38.910156l7.765625-38.910156zm0 0"/><path d="m503.386719 404.40625-34.046875-20.394531 17.066406-28.414063c10.117188 14.359375 16.003906 31.269532 16.980469 48.808594zm0 0"/><path d="m383.238281 499.722656c-21.546875-6.261718-40.113281-20.078125-52.308593-38.910156h44.542968zm0 0"/><path d="m349.871094 384.011719-34.046875 20.394531c.980469-17.539062 6.863281-34.449219 16.980469-48.808594zm0 0"/><path d="m442.375 321.632812-32.769531 28.246094-32.765625-28.246094c21.136718-7.847656 44.394531-7.847656 65.535156 0zm0 0"/></g><path d="m324.273438 149.347656c0 1.363282 0 15.613282-.085938 17.066406h-289.960938c-.085937-1.453124-.085937-15.703124-.085937-17.066406.980469-74.363281 58.992187-135.460937 133.203125-140.289062 3.925781-.34375 7.851562-.511719 11.863281-.511719 78.929688-1.15625 143.867188 61.867187 145.066407 140.800781zm0 0" fill="#6d4122"/><path d="m300.636719 149.347656c0 1.363282 0 15.613282-.085938 17.066406h-266.324219c-.085937-1.453124-.085937-15.703124-.085937-17.066406.980469-74.363281 58.992187-135.460937 133.203125-140.289062 74.242188 4.792968 132.300781 65.898437 133.292969 140.289062zm0 0" fill="#91562d"/><path d="m306.609375 162.144531h17.664063c9.398437.070313 17 7.671875 17.066406 17.066407-.027344 9.414062-7.652344 17.039062-17.066406 17.066406h-290.132813c-9.414063-.027344-17.039063-7.652344-17.066406-17.066406.066406-9.394532 7.667969-16.996094 17.066406-17.066407zm0 0" fill="#dfc49c"/><path d="m307.207031 173.152344c-.011719 4.050781-.242187 8.09375-.683593 12.117187-.425782 3.671875-1.023438 7.339844-1.792969 10.925781-12.003907 47.769532-51.296875 83.804688-99.925781 91.648438-8.441407 1.550781-17.011719 2.320312-25.597657 2.300781-4.011719 0-7.9375-.167969-11.777343-.511719-4.636719-.332031-9.253907-.929687-13.824219-1.789062-48.773438-7.789062-88.136719-44.027344-99.925781-91.992188-.765626-3.496093-1.363282-6.996093-1.789063-10.582031-.445313-4.023437-.671875-8.066406-.683594-12.117187-.019531-3.675782.179688-7.351563.597657-11.007813.253906-3.070312.765624-6.144531 1.277343-9.214843.597657-2.988282 1.367188-5.886719 2.136719-8.789063l4.519531-24.660156c43.179688-10.667969 65.109375-29.441407 75.777344-43.179688 4.121094-4.921875 7.355469-10.523437 9.558594-16.554687 0 0 27.132812 47.53125 105.640625 51.710937 2.5625.171875 5.121094.257813 7.851562.257813 7.6875.15625 15.378906-.101563 23.039063-.769532 8.894531 10.4375 16.277343 22.070313 21.929687 34.5625.683594 2.472657 1.28125 4.949219 1.792969 7.421876.511719 3.070312 1.023437 6.144531 1.28125 9.214843.414063 3.65625.617187 7.332031.597656 11.007813zm0 0" fill="#dfc49c"/><path d="m283.570312 173.152344c-.015624 4.050781-.242187 8.09375-.683593 12.117187-.425781 3.671875-1.023438 7.339844-1.792969 10.925781-12.003906 47.769532-51.296875 83.804688-99.925781 91.648438-4.539063.859375-9.128907 1.457031-13.738281 1.789062-4.636719-.332031-9.253907-.929687-13.824219-1.789062-48.773438-7.789062-88.136719-44.027344-99.925781-91.992188-.765626-3.496093-1.363282-6.996093-1.789063-10.582031-.445313-4.023437-.671875-8.066406-.683594-12.117187-.019531-3.675782.179688-7.351563.597657-11.007813.253906-3.070312.765624-6.144531 1.277343-9.214843.597657-2.988282 1.367188-5.886719 2.136719-8.789063l4.519531-24.660156c43.179688-10.667969 65.109375-29.441407 75.777344-43.179688 17.578125 16.296875 53.246094 38.484375 115.199219 35.15625 2.390625-.085937 4.78125-.253906 7.253906-.511719.222656.238282.421875.496094.597656.769532 8.71875 10.164062 15.90625 21.546875 21.332032 33.792968.683593 2.472657 1.28125 4.949219 1.792968 7.421876.511719 3.070312 1.023438 6.144531 1.28125 9.214843.414063 3.65625.613282 7.332031.597656 11.007813zm0 0" fill="#ffe0b2"/><path d="m486.40625 355.597656-13.824219 23.039063c-7.109375-20.402344-21.03125-37.730469-39.421875-49.066407l9.214844-7.9375c17.765625 6.621094 33.113281 18.460938 44.03125 33.964844zm0 0" fill="#cfd8dc"/><path d="m503.472656 409.613281c.0625 18.183594-5.21875 35.988281-15.1875 51.199219h-25.601562c9.96875-15.210938 15.25-33.015625 15.1875-51.199219-.003906-7.445312-.894532-14.863281-2.644532-22.101562l28.160157 16.894531c0 1.707031.085937 3.5.085937 5.207031zm0 0" fill="#cfd8dc"/><path d="m51.890625 204.8125h-17.75c-14.132813-.015625-25.585937-11.46875-25.601563-25.601562.066407-14.109376 11.488282-25.53125 25.601563-25.597657h17.664063c4.710937 0 8.53125 3.820313 8.53125 8.53125 0 4.714844-3.820313 8.535157-8.53125 8.535157h-17.578126c-2.253906-.039063-4.421874.847656-6.003906 2.449218-1.675781 1.582032-2.621094 3.78125-2.617187 6.082032.003906 4.710937 3.824219 8.53125 8.535156 8.535156h17.75c4.710937 0 8.53125 3.820312 8.53125 8.53125 0 4.714844-3.820313 8.535156-8.53125 8.535156zm0 0"/><path d="m324.273438 204.8125h-17.75c-4.710938 0-8.53125-3.820312-8.53125-8.535156 0-4.710938 3.820312-8.53125 8.53125-8.53125h17.75c4.710937-.003906 8.527343-3.824219 8.53125-8.535156.023437-2.226563-.867188-4.363282-2.457032-5.921876-1.578125-1.671874-3.777344-2.617187-6.074218-2.609374h-17.664063c-4.714844 0-8.535156-3.820313-8.535156-8.535157 0-4.710937 3.820312-8.53125 8.535156-8.53125h17.578125c14.144531.023438 25.617188 11.457031 25.683594 25.597657-.011719 14.132812-11.464844 25.585937-25.597656 25.601562zm0 0"/><path d="m324.199219 170.679688c-.171875 0-.332031-.007813-.5-.015626-4.703125-.273437-8.296875-4.300781-8.03125-9 .082031-1.601562.070312-11.019531.070312-12.316406-1.277343-74.183594-62.347656-133.34375-136.53125-132.269531-74.1875-1.074219-135.253906 58.085937-136.535156 132.269531 0 1.304688-.007813 10.730469.070313 12.324219.175781 3.042969-1.289063 5.949219-3.839844 7.621094-2.550782 1.671875-5.796875 1.855469-8.519532.480469-2.722656-1.371094-4.507812-4.089844-4.679687-7.136719-.085937-1.507813-.097656-11.875-.097656-13.289063 1.289062-83.605468 69.992187-150.402344 153.601562-149.3359372 83.609375-1.0664068 152.3125 65.7304692 153.597657 149.3359372 0 1.414063-.011719 11.78125-.09375 13.289063-.261719 4.511719-3.996094 8.035156-8.511719 8.042969zm0 0"/><path d="m153.605469 366.945312c-4.710938 0-8.53125-3.820312-8.53125-8.53125v-70.566406c0-4.714844 3.820312-8.535156 8.53125-8.535156 4.714843 0 8.535156 3.820312 8.535156 8.535156v70.566406c0 4.710938-3.820313 8.53125-8.535156 8.53125zm0 0"/><path d="m204.804688 366.945312c-4.710938 0-8.53125-3.820312-8.53125-8.53125v-70.566406c0-4.714844 3.820312-8.535156 8.53125-8.535156 4.714843 0 8.535156 3.820312 8.535156 8.535156v70.566406c0 4.710938-3.820313 8.53125-8.535156 8.53125zm0 0"/><path d="m325.132812 377.015625c-2.503906.003906-4.882812-1.09375-6.5-3-10.613281-12.46875-24.367187-21.875-39.835937-27.25-2.503906-.964844-5.070313-1.765625-7.679687-2.402344-7.71875-2.007812-15.667969-3.023437-23.644532-3.015625h-42.667968c-4.710938 0-8.53125-3.820312-8.53125-8.535156 0-4.710938 3.820312-8.535156 8.53125-8.535156h42.667968c9.363282-.007813 18.6875 1.171875 27.75 3.519531 3.1875.773437 6.324219 1.75 9.386719 2.914063 13.597656 4.746093 26.117187 12.144531 36.828125 21.769531 3.621094 3.261719 7.027344 6.757812 10.1875 10.464843 2.160156 2.53125 2.648438 6.089844 1.253906 9.109376-1.394531 3.019531-4.417968 4.957031-7.742187 4.957031zm0 0"/><path d="m332.804688 512.011719h-307.199219c-14.132813-.015625-25.5820315-11.46875-25.5976565-25.597657v-51.203124c.0078125-31.578126 13.4531255-61.660157 36.9765625-82.730469 10.765625-9.664063 23.347656-17.085938 37.011719-21.835938 3.066406-1.160156 6.203125-2.128906 9.386718-2.898437 9.003907-2.316406 18.261719-3.480469 27.558594-3.46875h42.664063c4.714843 0 8.535156 3.824218 8.535156 8.535156 0 4.714844-3.820313 8.535156-8.535156 8.535156h-42.664063c-7.914062-.011718-15.792968.984375-23.453125 2.964844-2.605469.628906-5.171875 1.421875-7.679687 2.382812-11.605469 4.011719-22.296875 10.300782-31.4375 18.5-19.910156 17.828126-31.292969 43.289063-31.296875 70.015626v51.203124c.003906 4.710938 3.820312 8.527344 8.53125 8.53125h307.199219c4.710937-.003906 8.53125-3.820312 8.535156-8.53125v-4.351562c0-4.714844 3.820312-8.535156 8.53125-8.535156 4.714844 0 8.535156 3.820312 8.535156 8.535156v4.351562c-.015625 14.128907-11.46875 25.582032-25.601562 25.597657zm0 0"/><path d="m204.804688 401.078125h-51.199219c-23.550781-.027344-42.636719-19.113281-42.664063-42.664063v-25.601562c0-4.710938 3.820313-8.535156 8.53125-8.535156 4.714844 0 8.535156 3.824218 8.535156 8.535156v25.601562c.015626 14.128907 11.464844 25.582032 25.597657 25.597657h51.199219c14.132812-.015625 25.585937-11.46875 25.601562-25.597657v-25.601562c0-4.710938 3.820312-8.535156 8.535156-8.535156 4.710938 0 8.53125 3.824218 8.53125 8.535156v25.601562c-.027344 23.550782-19.113281 42.636719-42.667968 42.664063zm0 0"/><path d="m204.804688 435.210938h-51.199219c-3.195313.007812-6.386719-.183594-9.5625-.566407-38.386719-4.902343-67.167969-37.535156-67.238281-76.230469v-22.359374c0-4.710938 3.820312-8.53125 8.535156-8.53125 4.710937 0 8.53125 3.820312 8.53125 8.53125v22.359374c.054687 30.089844 22.429687 55.464844 52.277344 59.289063 2.472656.300781 4.964843.449219 7.457031.441406h51.199219c2.511718.007813 5.015624-.144531 7.503906-.449219 29.828125-3.84375 52.175781-29.210937 52.230468-59.28125v-22.359374c0-3.046876 1.628907-5.863282 4.265626-7.390626 2.640624-1.523437 5.894531-1.523437 8.535156 0 2.640625 1.527344 4.265625 4.34375 4.265625 7.390626v22.359374c-.066407 38.679688-28.824219 71.304688-67.191407 76.222657-3.1875.390625-6.394531.582031-9.609374.574219zm0 0"/><path d="m42.671875 512.011719c-4.710937 0-8.53125-3.820313-8.53125-8.53125v-144.640625c0-4.714844 3.820313-8.535156 8.53125-8.535156 4.714844 0 8.535156 3.820312 8.535156 8.535156v144.640625c0 4.710937-3.820312 8.53125-8.535156 8.53125zm0 0"/><path d="m76.804688 512.011719c-4.710938 0-8.53125-3.820313-8.53125-8.53125v-85.335938c0-4.710937 3.820312-8.53125 8.53125-8.53125 4.714843 0 8.535156 3.820313 8.535156 8.53125v85.335938c0 4.710937-3.820313 8.53125-8.535156 8.53125zm0 0"/><path d="m110.941406 512.011719c-4.714844 0-8.535156-3.820313-8.535156-8.53125v-91.820313c0-4.710937 3.820312-8.53125 8.535156-8.53125 4.710938 0 8.53125 3.820313 8.53125 8.53125v91.820313c0 4.710937-3.820312 8.53125-8.53125 8.53125zm0 0"/><path d="m145.074219 512.011719c-4.714844 0-8.535157-3.820313-8.535157-8.53125v-77.3125c0-4.714844 3.820313-8.535157 8.535157-8.535157 4.710937 0 8.53125 3.820313 8.53125 8.535157v77.3125c0 4.710937-3.820313 8.53125-8.53125 8.53125zm0 0"/><path d="m179.207031 512.011719c-4.714843 0-8.535156-3.820313-8.535156-8.53125v-76.800781c0-4.714844 3.820313-8.535157 8.535156-8.535157 4.710938 0 8.53125 3.820313 8.53125 8.535157v76.800781c0 4.710937-3.820312 8.53125-8.53125 8.53125zm0 0"/><path d="m213.339844 512.011719c-4.714844 0-8.535156-3.820313-8.535156-8.53125v-77.3125c0-4.714844 3.820312-8.535157 8.535156-8.535157 4.710937 0 8.53125 3.820313 8.53125 8.535157v77.3125c0 4.710937-3.820313 8.53125-8.53125 8.53125zm0 0"/><path d="m247.472656 512.011719c-4.710937 0-8.53125-3.820313-8.53125-8.53125v-91.820313c0-4.710937 3.820313-8.53125 8.53125-8.53125 4.714844 0 8.535156 3.820313 8.535156 8.53125v91.820313c0 4.710937-3.820312 8.53125-8.535156 8.53125zm0 0"/><path d="m281.605469 512.011719c-4.710938 0-8.53125-3.820313-8.53125-8.53125v-85.335938c0-4.710937 3.820312-8.53125 8.53125-8.53125 4.714843 0 8.535156 3.820313 8.535156 8.53125v85.335938c0 4.710937-3.820313 8.53125-8.535156 8.53125zm0 0"/><path d="m315.738281 512.011719c-4.710937 0-8.53125-3.820313-8.53125-8.53125v-144.640625c0-4.714844 3.820313-8.535156 8.53125-8.535156 4.714844 0 8.535157 3.820312 8.535157 8.535156v144.640625c0 4.710937-3.820313 8.53125-8.535157 8.53125zm0 0"/><path d="m409.605469 512.011719c-56.554688 0-102.398438-45.84375-102.398438-102.398438 0-56.554687 45.84375-102.402343 102.398438-102.402343 56.554687 0 102.402343 45.847656 102.402343 102.402343-.066406 56.527344-45.875 102.335938-102.402343 102.398438zm0-187.734375c-47.128907 0-85.332031 38.207031-85.332031 85.335937 0 47.128907 38.203124 85.332031 85.332031 85.332031 47.128906 0 85.335937-38.203124 85.335937-85.332031-.054687-47.105469-38.230468-85.28125-85.335937-85.335937zm0 0"/><path d="m426.671875 443.746094h-34.132813c-3.914062 0-7.328124-2.667969-8.277343-6.464844l-8.53125-34.136719c-.875-3.496093.542969-7.164062 3.542969-9.164062l25.601562-17.066407c2.863281-1.917968 6.601562-1.917968 9.464844 0l25.601562 17.066407c3 2 4.417969 5.667969 3.546875 9.164062l-8.535156 34.136719c-.949219 3.796875-4.363281 6.464844-8.28125 6.464844zm-27.46875-17.066406h20.808594l5.460937-21.832032-15.867187-10.578125-15.863281 10.578125zm0 0"/><path d="m435.980469 508.257812c-.5625 0-1.125-.054687-1.679688-.171874-2.21875-.441407-4.167969-1.746094-5.425781-3.628907-1.253906-1.878906-1.710938-4.183593-1.269531-6.402343l7.765625-38.910157c.796875-3.992187 4.300781-6.863281 8.367187-6.867187h44.546875c4.710938 0 8.53125 3.824218 8.53125 8.535156 0 4.714844-3.820312 8.535156-8.53125 8.535156h-37.546875l-6.402343 32.039063c-.792969 3.988281-4.289063 6.863281-8.355469 6.871093zm0 0"/><path d="m503.382812 412.941406c-1.542968 0-3.054687-.417968-4.375-1.210937l-34.050781-20.394531c-1.941406-1.160157-3.34375-3.050782-3.894531-5.25-.550781-2.195313-.203125-4.523438.964844-6.464844l17.066406-28.414063c1.566406-2.617187 4.410156-4.199219 7.460938-4.148437 3.050781.050781 5.839843 1.726562 7.320312 4.394531s1.421875 5.921875-.148438 8.535156l-12.671874 21.089844 26.722656 16c3.296875 1.972656 4.871094 5.902344 3.84375 9.605469-1.023438 3.699218-4.394532 6.261718-8.238282 6.253906zm0 0"/><path d="m383.230469 508.257812c-4.066407-.003906-7.566407-2.878906-8.363281-6.867187l-6.390626-32.042969h-37.546874c-4.714844 0-8.535157-3.820312-8.535157-8.535156 0-4.710938 3.820313-8.535156 8.535157-8.535156h44.542968c4.066406.003906 7.570313 2.878906 8.363282 6.867187l7.765624 38.914063c.917969 4.617187-2.074218 9.105468-6.691406 10.027344-.550781.117187-1.113281.171874-1.679687.171874zm0 0"/><path d="m315.832031 412.941406c-3.84375.003906-7.214843-2.554687-8.238281-6.257812-1.027344-3.699219.550781-7.632813 3.847656-9.601563l26.71875-16-12.671875-21.089843c-1.570312-2.613282-1.628906-5.871094-.148437-8.535157 1.480468-2.667969 4.269531-4.34375 7.320312-4.394531 3.050782-.050781 5.894532 1.527344 7.460938 4.144531l17.066406 28.417969c1.167969 1.941406 1.515625 4.265625.964844 6.464844-.550782 2.199218-1.953125 4.085937-3.894532 5.25l-34.050781 20.394531c-1.320312.789063-2.835937 1.207031-4.375 1.207031zm0 0"/><path d="m409.605469 358.414062c-2.042969 0-4.019531-.734374-5.570313-2.066406l-32.765625-28.246094c-3.574219-3.078124-3.972656-8.46875-.898437-12.039062 3.078125-3.570312 8.46875-3.972656 12.039062-.894531l27.195313 23.449219 27.195312-23.445313c3.574219-3.074219 8.960938-2.675781 12.039063.898437 3.078125 3.570313 2.675781 8.960938-.894532 12.035157l-32.769531 28.246093c-1.550781 1.332032-3.527343 2.0625-5.570312 2.0625zm0 0"/><path d="m409.605469 392.546875c-4.710938 0-8.53125-3.820313-8.53125-8.535156v-34.132813c0-4.710937 3.820312-8.53125 8.53125-8.53125 4.714843 0 8.535156 3.820313 8.535156 8.53125v34.132813c0 4.714843-3.820313 8.535156-8.535156 8.535156zm0 0"/><path d="m435.214844 409.613281c-3.960938.003907-7.402344-2.714843-8.316406-6.570312-.910157-3.851563.949218-7.828125 4.492187-9.597657l34.132813-17.066406c2.726562-1.363281 5.972656-1.167968 8.519531.511719 2.542969 1.679687 4 4.589844 3.816406 7.632813-.183594 3.042968-1.976563 5.757812-4.703125 7.121093l-34.132812 17.066407c-1.183594.589843-2.488282.898437-3.808594.902343zm0 0"/><path d="m443.75 469.347656c-2.859375.003906-5.527344-1.425781-7.109375-3.800781l-17.066406-25.601563c-1.726563-2.535156-1.957031-5.800781-.605469-8.554687s4.074219-4.570313 7.136719-4.761719c3.0625-.1875 5.988281 1.28125 7.667969 3.851563l17.066406 25.597656c1.746094 2.617187 1.90625 5.984375.425781 8.757813-1.484375 2.773437-4.371094 4.507812-7.515625 4.511718zm0 0"/><path d="m375.464844 469.347656c-3.144532-.003906-6.035156-1.738281-7.515625-4.511718-1.484375-2.773438-1.320313-6.140626.425781-8.757813l17.066406-25.597656c2.632813-3.875 7.894532-4.898438 11.789063-2.304688 3.894531 2.597657 4.96875 7.851563 2.410156 11.769531l-17.066406 25.601563c-1.585938 2.375-4.253907 3.804687-7.109375 3.800781zm0 0"/><path d="m383.996094 409.613281c-1.320313-.003906-2.625-.3125-3.808594-.902343l-34.132812-17.066407c-2.726563-1.363281-4.519532-4.078125-4.699219-7.121093-.183594-3.042969 1.269531-5.953126 3.816406-7.632813 2.542969-1.679687 5.789063-1.875 8.519531-.511719l34.132813 17.066406c3.542969 1.769532 5.398437 5.746094 4.488281 9.597657-.910156 3.855469-4.355469 6.574219-8.316406 6.570312zm0 0"/><path d="m40.960938 368.992188c-1.898438.003906-3.742188-.628907-5.238282-1.796876-27.824218-21.667968-35.289062-62.847656-17.75-97.933593 15.507813-31.007813 7.875-70.914063 7.796875-71.316407-.597656-2.988281.445313-6.070312 2.738281-8.082031 2.289063-2.011719 5.480469-2.648437 8.367188-1.671875 2.886719.976563 5.035156 3.421875 5.632812 6.414063.367188 1.855469 8.898438 45.957031-9.269531 82.289062-13.914062 27.835938-8.460937 60.152344 12.972657 76.835938 2.875 2.238281 4.011718 6.058593 2.828124 9.503906-1.1875 3.449219-4.429687 5.761719-8.074218 5.761719zm0 0"/><path d="m317.453125 368.992188c-3.644531.003906-6.890625-2.3125-8.074219-5.757813-1.183594-3.449219-.050781-7.265625 2.828125-9.507813 21.429688-16.683593 26.878907-49 12.96875-76.832031-18.164062-36.332031-9.636719-80.433593-9.265625-82.292969.921875-4.621093 5.417969-7.621093 10.039063-6.699218 4.621093.925781 7.621093 5.417968 6.699219 10.042968-.082032.398438-7.714844 40.308594 7.792968 71.316407 17.539063 35.082031 10.078125 76.265625-17.746094 97.933593-1.496093 1.167969-3.34375 1.804688-5.242187 1.796876zm0 0"/><path d="m179.207031 298.679688c-9.105469.011718-18.195312-.804688-27.15625-2.441407-52.230469-8.277343-94.339843-47.1875-106.714843-98.601562-.816407-3.722657-1.464844-7.5-1.921876-11.359375-.484374-4.355469-.730468-8.738282-.742187-13.125-.019531-4.011719.199219-8.027344.65625-12.015625.246094-2.992188.78125-6.273438 1.332031-9.558594.664063-3.355469 1.4375-6.332031 2.226563-9.304687l4.460937-24.335938c.605469-3.300781 3.089844-5.941406 6.351563-6.742188 67.800781-16.714843 79.066406-53.433593 79.167969-53.796874.945312-3.300782 3.777343-5.714844 7.183593-6.128907 3.410157-.410156 6.734375 1.261719 8.433594 4.242188 1.289063 2.21875 33.164063 54.75 128.417969 46.933593 2.773437-.277343 5.5.859376 7.253906 3.027344 9.699219 11.234375 17.632812 23.878906 23.535156 37.5.808594 2.925782 1.453125 5.582032 2 8.242188.617188 3.648437 1.15625 6.929687 1.429688 10.214844.4375 3.894531.644531 7.808593.617187 11.722656-.007812 4.351562-.253906 8.703125-.730469 13.027344-.464843 4.011718-1.109374 7.957031-1.929687 11.800781-12.585937 51.222656-54.621094 89.929687-106.707031 98.257812-8.960938 1.636719-18.054688 2.453125-27.164063 2.441407zm-115.761719-152.265626c-.71875 2.707032-1.433593 5.40625-1.992187 8.191407-.425781 2.605469-.910156 5.425781-1.148437 8.257812-.390626 3.414063-.582032 6.851563-.566407 10.289063.011719 3.746094.222657 7.488281.632813 11.210937.386718 3.207031.933594 6.429688 1.648437 9.664063 10.933594 44.683594 47.6875 78.394531 93.148438 85.425781 15.902343 2.867187 32.183593 2.867187 48.085937 0 45.316406-7.074219 82-40.585937 93.140625-85.082031.703125-3.285156 1.257813-6.683594 1.652344-10.082032.40625-3.699218.617187-7.414062.625-11.136718.019531-3.339844-.160156-6.679688-.535156-9.996094-.269531-3.125-.746094-5.945312-1.21875-8.777344-.421875-2.023437-.972657-4.316406-1.605469-6.601562-4.503906-10.101563-10.402344-19.523438-17.527344-27.988282-75.894531 5.101563-115.253906-26.257812-131.265625-44.097656-9.566406 14.683594-31.53125 37.664063-79.367187 50.683594l-3.539063 19.289062-.023437.132813v.019531c-.046875.195313-.09375.394532-.144532.597656zm0 0"/></svg>