<svg height="512pt" viewBox="0 0 512.0019 512" width="512pt" xmlns="http://www.w3.org/2000/svg"><path d="m366.933594 443.734375v42.667969c-.027344 9.414062-7.652344 17.039062-17.066406 17.066406h-307.199219c-9.414063-.027344-17.039063-7.652344-17.066407-17.066406v-42.667969c0-48.769531 34.371094-90.78125 82.175782-100.4375h176.980468c47.804688 9.65625 82.179688 51.667969 82.175782 100.4375zm0 0" fill="#624421"/><path d="m343.296875 443.734375v42.667969c-.027344 9.414062-7.652344 17.039062-17.066406 17.066406h-283.5625c-9.414063-.027344-17.039063-7.652344-17.066407-17.066406v-42.667969c0-48.769531 34.371094-90.78125 82.175782-100.4375h153.34375c47.804687 9.65625 82.179687 51.667969 82.175781 100.4375zm0 0" fill="#825a2c"/><path d="m221.867188 296.363281v56.40625l-25.597657 30.035157-25.601562-30.035157v-56.40625zm0 0" fill="#ffe0b2"/><path d="m323.671875 170.667969h17.664063c9.398437.066406 17 7.667969 17.066406 17.066406-.027344 9.414063-7.652344 17.039063-17.066406 17.066406h-290.132813c-9.414063-.027343-17.039063-7.652343-17.066406-17.066406.066406-9.398437 7.667969-17 17.066406-17.066406zm0 0" fill="#dfc49c"/><path d="m342.785156 132.269531-298.070312 9.042969.34375-.765625 46.335937-105.984375c6.671875-15.769531 22.128907-26.019531 39.253907-26.027344h131.242187c17.121094.007813 32.578125 10.257813 39.253906 26.027344zm0 0" fill="#d84315"/><path d="m319.148438 132.269531-274.089844 8.277344 46.335937-105.984375c6.671875-15.769531 22.128907-26.019531 39.253907-26.027344h107.519531c17.152343-.019531 32.648437 10.234375 39.339843 26.027344zm0 0" fill="#ff5722"/><path d="m196.269531 34.132812 10.546875 22.46875 23.585938 3.609376-17.066406 17.496093 4.027343 24.695313-21.09375-11.667969-21.09375 11.667969 4.027344-24.695313-17.066406-17.496093 23.585937-3.609376zm0 0" fill="#ffdc00"/><path d="m448 433.921875 6.316406 36.691406-9.300781 9.472657h-.085937l-15.53125-8.105469-19.796876-10.324219-11.777343 6.140625-23.550781 12.289063-8.019532-8.105469-1.367187-1.367188 6.316406-36.691406-3.757813-3.585937-24.660156-23.976563 7-12.03125v-.085937l12.882813-1.792969 23.210937-3.328125 11.863282-23.980469 7.847656-15.785156h8.023437l19.625 39.59375.085938.171875 36.097656 5.121094v.085937l6.996094 12.03125zm0 0" fill="#fdd834"/><path d="m424.363281 433.921875 6.316407 36.691406-1.28125 1.367188-19.796876-10.324219-11.777343 6.140625-11.859375-6.140625-19.710938 10.324219-1.367187-1.367188 6.316406-36.691406-3.757813-3.585937-24.660156-23.976563 7-12.03125v-.085937l12.882813-1.792969 23.210937-3.328125 11.863282-23.980469 11.859374 23.808594.085938.171875 36.097656 5.121094v.085937l6.996094 12.03125zm0 0" fill="#ffeb3a"/><g fill="#ffdc00"><path d="m426.667969 332.800781c0 9.425781-7.640625 17.066407-17.066407 17.066407-9.425781 0-17.066406-7.640626-17.066406-17.066407s7.640625-17.066406 17.066406-17.066406c9.425782 0 17.066407 7.640625 17.066407 17.066406zm0 0"/><path d="m503.46875 392.535156c0 9.425782-7.640625 17.066406-17.066406 17.066406-9.425782 0-17.066406-7.640624-17.066406-17.066406 0-9.425781 7.640624-17.066406 17.066406-17.066406 9.425781 0 17.066406 7.640625 17.066406 17.066406zm0 0"/><path d="m477.867188 486.402344c0 9.425781-7.640626 17.066406-17.066407 17.066406s-17.066406-7.640625-17.066406-17.066406c0-9.425782 7.640625-17.066406 17.066406-17.066406s17.066407 7.640624 17.066407 17.066406zm0 0"/><path d="m375.46875 486.402344c0 9.425781-7.640625 17.066406-17.066406 17.066406-9.425782 0-17.066406-7.640625-17.066406-17.066406 0-9.425782 7.640624-17.066406 17.066406-17.066406 9.425781 0 17.066406 7.640624 17.066406 17.066406zm0 0"/><path d="m349.867188 392.535156c0 9.425782-7.640626 17.066406-17.066407 17.066406s-17.066406-7.640624-17.066406-17.066406c0-9.425781 7.640625-17.066406 17.066406-17.066406s17.066407 7.640625 17.066407 17.066406zm0 0"/></g><path d="m196.269531 382.804688-34.132812 33.367187-55.640625-74.582031-2.472656-3.328125-1.621094-2.21875 36.265625-11.347657c3.621093-1.167968 7.59375-.175781 10.242187 2.558594l7.507813 8.789063 2.816406 3.328125 11.433594 13.398437zm0 0" fill="#ffeb3a"/><path d="m290.136719 336.128906-1.621094 2.132813-58.113281 77.910156-34.132813-33.367187 25.597657-30.035157 14.253906-16.640625 7.507812-8.875c2.640625-2.746094 6.636719-3.714844 10.238282-2.472656zm0 0" fill="#ffeb3a"/><path d="m324.269531 181.675781c-.011719 4.046875-.242187 8.09375-.683593 12.117188-.425782 3.667969-1.023438 7.339843-1.792969 10.921875-11.691407 53.589844-63.402344 93.953125-125.523438 93.953125-3.925781 0-7.765625-.171875-11.605469-.511719-60.84375-4.949219-109.484374-48.898438-115.710937-104.363281-.445313-4.023438-.671875-8.070313-.683594-12.117188 0-2.304687.085938-4.523437.253907-6.742187.085937-1.449219.171874-2.902344.34375-4.265625.253906-2.902344.679687-9.984375 1.195312-12.800781h252.414062c.511719 2.816406.9375 9.898437 1.195313 12.800781.171875 1.363281.253906 2.816406.339844 4.265625.171875 2.21875.257812 4.4375.257812 6.742187zm0 0" fill="#dfc49c"/><path d="m300.632812 181.675781c-.015624 4.046875-.242187 8.09375-.683593 12.117188-.425781 3.667969-1.023438 7.339843-1.792969 10.921875-10.921875 50.089844-56.832031 88.664062-113.492188 93.441406-60.84375-4.949219-109.484374-48.898438-115.710937-104.363281-.445313-4.023438-.671875-8.070313-.683594-12.117188 0-2.304687.085938-4.523437.253907-6.742187.085937-1.449219.171874-2.902344.34375-4.265625.253906-2.902344.679687-9.984375 1.195312-12.800781h228.777344c.511718 2.816406.9375 9.898437 1.195312 12.800781.167969 1.363281.253906 2.816406.339844 4.265625.171875 2.21875.257812 4.4375.257812 6.742187zm0 0" fill="#ffe0b2"/><path d="m330.363281 162.132812h-268.1875c-3.847656.007813-7.597656-1.183593-10.730469-3.410156l-35.753906-25.601562c-3.765625-2.601563-6.285156-6.648438-6.964844-11.171875-.675781-4.527344.550782-9.132813 3.386719-12.722657 6.132813-7.566406 17.09375-9.0625 25.03125-3.414062l30.988281 22.1875h256.273438l30.984375-22.1875c7.9375-5.652344 18.902344-4.15625 25.035156 3.414062 2.839844 3.589844 4.0625 8.195313 3.386719 12.722657-.675781 4.523437-3.195312 8.570312-6.960938 11.171875l-35.753906 25.601562c-3.136718 2.226563-6.886718 3.421875-10.734375 3.410156zm0 0" fill="#ff9801"/><path d="m196.269531 307.199219c-70.183593 0-128.5625-48.339844-135.796875-112.449219-.480468-4.339844-.726562-8.707031-.738281-13.074219-.019531-4.015625.199219-8.027343.65625-12.015625.253906-2.910156.714844-5.984375 1.273437-9.046875.882813-4.59375 5.300782-7.621093 9.90625-6.785156 4.601563.835937 7.675782 5.222656 6.886719 9.835937-.46875 2.566407-.859375 5.125-1.09375 7.765626-.390625 3.402343-.578125 6.820312-.5625 10.246093.011719 3.746094.222657 7.484375.632813 11.207031 6.253906 55.417969 57.347656 97.25 118.835937 97.25 56.875 0 106.152344-36.691406 117.1875-87.230468.703125-3.292969 1.257813-6.691406 1.652344-10.09375.40625-3.695313.617187-7.414063.625-11.132813.019531-3.339843-.160156-6.679687-.535156-10-.257813-2.890625-.652344-5.449219-1.117188-8.019531-.789062-4.613281 2.28125-9 6.886719-9.835938 4.601562-.835937 9.019531 2.191407 9.902344 6.785157.558594 3.066406 1.019531 6.144531 1.300781 9.300781.441406 3.90625.652344 7.835938.628906 11.769531-.007812 4.351563-.253906 8.699219-.730469 13.023438-.464843 4.011719-1.109374 7.960937-1.929687 11.800781-12.738281 58.367188-69.035156 100.699219-133.871094 100.699219zm0 0"/><path d="m68.953125 213.335938h-17.75c-14.132813-.015626-25.585937-11.46875-25.601563-25.601563.066407-14.109375 11.488282-25.535156 25.601563-25.601563h17.664063c4.710937 0 8.53125 3.820313 8.53125 8.535157 0 4.710937-3.820313 8.53125-8.53125 8.53125h-17.578126c-2.253906-.035157-4.421874.851562-6.007812 2.453125-1.671875 1.578125-2.617188 3.78125-2.613281 6.082031.003906 4.710937 3.824219 8.527344 8.535156 8.535156h17.75c4.710937 0 8.53125 3.820313 8.53125 8.53125 0 4.714844-3.820313 8.535157-8.53125 8.535157zm0 0"/><path d="m341.335938 213.335938h-17.75c-4.710938 0-8.535157-3.820313-8.535157-8.535157 0-4.710937 3.824219-8.53125 8.535157-8.53125h17.75c4.710937-.007812 8.527343-3.824219 8.53125-8.535156.019531-2.226563-.867188-4.367187-2.457032-5.925781-1.578125-1.667969-3.777344-2.613282-6.074218-2.609375h-17.664063c-4.714844 0-8.535156-3.820313-8.535156-8.53125 0-4.714844 3.820312-8.535157 8.535156-8.535157h17.578125c14.144531.023438 25.617188 11.457032 25.683594 25.601563-.015625 14.132813-11.464844 25.585937-25.597656 25.601563zm0 0"/><path d="m170.667969 361.300781c-4.710938 0-8.53125-3.820312-8.53125-8.53125v-56.402343c0-4.710938 3.820312-8.53125 8.53125-8.53125 4.714843 0 8.535156 3.820312 8.535156 8.53125v56.402343c0 4.710938-3.820313 8.53125-8.535156 8.53125zm0 0"/><path d="m221.867188 361.300781c-4.710938 0-8.53125-3.820312-8.53125-8.53125v-56.402343c0-4.710938 3.820312-8.53125 8.53125-8.53125 4.714843 0 8.535156 3.820312 8.535156 8.53125v56.402343c0 4.710938-3.820313 8.53125-8.535156 8.53125zm0 0"/><path d="m349.867188 512h-307.199219c-14.132813-.015625-25.582031-11.46875-25.597657-25.597656v-42.667969c.078126-52.808594 37.285157-98.273437 89.03125-108.800781 3.007813-.644532 6.128907.378906 8.171876 2.679687 2.042968 2.300781 2.6875 5.523438 1.6875 8.433594-.996094 2.910156-3.484376 5.058594-6.507813 5.621094-43.78125 8.910156-75.257813 47.386719-75.316406 92.066406v42.667969c.003906 4.710937 3.820312 8.527344 8.53125 8.53125h307.199219c.570312.019531 1.140624-.046875 1.6875-.199219 4.464843-1.332031 9.171874 1.15625 10.578124 5.597656 1.410157 4.4375-1.003906 9.1875-5.417968 10.667969-2.21875.683594-4.527344 1.023438-6.847656 1zm0 0"/><path d="m347.195312 391.917969c-2.738281.003906-5.308593-1.316407-6.902343-3.542969l-.039063-.050781c-.285156-.398438-.570312-.804688-.855468-1.148438-13.777344-18.339843-33.816407-30.976562-56.304688-35.507812-3.050781-.53125-5.574219-2.675781-6.59375-5.601563-1.019531-2.925781-.371094-6.171875 1.691406-8.484375 2.058594-2.3125 5.210938-3.324219 8.234375-2.648437 26.453125 5.289062 50.046875 20.09375 66.316407 41.609375.285156.324219.835937 1.082031 1.375 1.832031 1.878906 2.601562 2.140624 6.035156.679687 8.890625s-4.394531 4.652344-7.601563 4.652344zm0 0"/><path d="m330.363281 170.667969h-268.191406c-5.625-.007813-11.105469-1.757813-15.695313-5.007813l-35.753906-25.601562c-5.691406-4.007813-9.476562-10.183594-10.46875-17.074219-.976562-6.78125.882813-13.664063 5.148438-19.023437 8.984375-11.117188 25.058594-13.339844 36.722656-5.078126l28.742188 20.585938h250.800781l28.757812-20.59375c11.660157-8.242188 27.722657-6.023438 36.707031 5.074219 4.265626 5.367187 6.128907 12.253906 5.152344 19.035156-.992187 6.890625-4.777344 13.066406-10.46875 17.074219l-35.753906 25.601562c-4.589844 3.25-10.074219 5-15.699219 5.007813zm-303.921875-59.714844c-2.949218-.039063-5.757812 1.269531-7.625 3.554687-1.371094 1.703126-1.972656 3.898438-1.667968 6.058594.34375 2.273438 1.613281 4.304688 3.503906 5.609375l35.757812 25.601563c1.6875 1.1875 3.699219 1.828125 5.761719 1.824218h268.191406c2.066407.003907 4.078125-.636718 5.761719-1.824218l35.761719-25.601563c1.890625-1.304687 3.160156-3.335937 3.503906-5.609375.300781-2.167968-.304687-4.367187-1.675781-6.074218-3.328125-3.953126-9.121094-4.707032-13.351563-1.742188l-30.992187 22.191406c-1.449219 1.035156-3.183594 1.59375-4.964844 1.59375h-256.273438c-1.78125 0-3.519531-.558594-4.96875-1.59375l-30.988281-22.183594c-1.671875-1.191406-3.679687-1.824218-5.734375-1.804687zm0 0"/><path d="m336.902344 127.660156c-3.429688.003906-6.527344-2.046875-7.863282-5.207031l-35.746093-84.542969c-5.328125-12.644531-17.722657-20.859375-31.441407-20.84375h-131.164062c-13.722656-.015625-26.113281 8.199219-31.441406 20.84375l-35.75 84.542969c-1.1875 2.808594-3.785156 4.769531-6.808594 5.144531-3.027344.371094-6.023438-.894531-7.859375-3.328125-1.835937-2.433593-2.234375-5.664062-1.046875-8.472656l35.746094-84.539063c7.992187-18.964843 26.578125-31.2851558 47.160156-31.257812h131.164062c20.578126-.0273438 39.167969 12.292969 47.160157 31.257812l35.746093 84.542969c1.113282 2.632813.835938 5.652344-.742187 8.039063-1.578125 2.382812-4.25 3.820312-7.109375 3.824218zm0 0"/><path d="m217.363281 110.933594c-1.441406.003906-2.863281-.363282-4.128906-1.066406l-16.964844-9.375-16.96875 9.375c-2.859375 1.582031-6.371093 1.390624-9.042969-.492188-2.667968-1.882812-4.03125-5.125-3.507812-8.347656l3.335938-20.453125-14.058594-14.40625c-2.230469-2.289063-2.996094-5.636719-1.980469-8.667969s3.640625-5.242188 6.800781-5.722656l19.082032-2.917969 8.613281-18.347656c1.40625-2.996094 4.417969-4.90625 7.726562-4.90625 3.308594 0 6.320313 1.910156 7.722657 4.90625l8.613281 18.347656 19.085937 2.917969c3.160156.480468 5.785156 2.691406 6.800782 5.722656 1.015624 3.03125.25 6.378906-1.980469 8.667969l-14.058594 14.40625 3.332031 20.453125c.402344 2.46875-.296875 4.992187-1.917968 6.898437-1.621094 1.910157-4 3.007813-6.503907 3.007813zm-21.09375-28.722656c1.445313 0 2.863281.367187 4.128907 1.066406l5.714843 3.15625-1.199219-7.359375c-.4375-2.671875.421876-5.394531 2.3125-7.332031l5.46875-5.601563-7.167968-1.097656c-2.816406-.429688-5.230469-2.230469-6.4375-4.808594l-2.820313-6.007813-2.820312 6.007813c-1.210938 2.578125-3.625 4.382813-6.4375 4.808594l-7.167969 1.101562 5.464844 5.597657c1.890625 1.9375 2.75 4.660156 2.3125 7.332031l-1.199219 7.359375 5.714844-3.15625c1.265625-.699219 2.6875-1.066406 4.132812-1.066406zm0 0"/><path d="m162.136719 424.71875c-.222657 0-.445313-.007812-.664063-.027344-2.453125-.191406-4.707031-1.433594-6.175781-3.40625l-59.78125-80.191406c-1.625-2.222656-2.074219-5.089844-1.214844-7.703125s2.925781-4.648437 5.550781-5.472656l36.265626-11.351563c6.90625-2.210937 14.464843-.175781 19.328124 5.207032l47.320313 55.507812c2.90625 3.414062 2.675781 8.496094-.53125 11.632812l-34.132813 33.367188c-1.59375 1.5625-3.734374 2.4375-5.964843 2.4375zm-45.730469-84.101562 46.738281 62.648437 21.457031-20.980469-42.179687-49.476562c-.183594.003906-.371094 0-.558594-.015625-.261719-.003907-.523437.027343-.777343.097656zm0 0"/><path d="m230.402344 424.71875c-2.230469 0-4.371094-.875-5.96875-2.433594l-34.132813-33.367187c-3.203125-3.136719-3.4375-8.21875-.527343-11.632813l47.359374-55.53125c4.820313-5.367187 12.34375-7.390625 19.203126-5.167968l36.351562 11.375c2.628906.824218 4.699219 2.871093 5.558594 5.488281.855468 2.621093.394531 5.492187-1.238282 7.714843l-1.621093 2.199219-58.144531 77.925781c-1.46875 1.972657-3.722657 3.214844-6.175782 3.40625-.222656.015626-.441406.023438-.664062.023438zm-22.46875-42.433594 21.460937 20.980469 46.714844-62.613281-24.789063-7.757813c-.457031-.113281-.9375-.085937-1.378906.074219zm0 0"/><path d="m196.269531 512c-4.714843 0-8.535156-3.820312-8.535156-8.53125v-120.652344c0-4.710937 3.820313-8.53125 8.535156-8.53125 4.710938 0 8.53125 3.820313 8.53125 8.53125v120.652344c0 4.710938-3.820312 8.53125-8.53125 8.53125zm0 0"/><path d="m145.070312 460.800781h-59.734374c-4.714844 0-8.535157-3.820312-8.535157-8.53125 0-4.714843 3.820313-8.535156 8.535157-8.535156h59.734374c4.710938 0 8.53125 3.820313 8.53125 8.535156 0 4.710938-3.820312 8.53125-8.53125 8.53125zm0 0"/><path d="m454.3125 479.148438c-4.152344-.003907-7.695312-2.992188-8.402344-7.082032l-6.3125-36.703125c-.480468-2.777343.441406-5.609375 2.464844-7.574219l28.417969-27.5625c3.382812-3.28125 8.785156-3.199218 12.066406.183594 3.28125 3.382813 3.199219 8.785156-.183594 12.066406l-25.1875 24.429688 5.546875 32.257812c.386719 2.230469-.132812 4.523438-1.4375 6.371094-1.308594 1.847656-3.292968 3.101563-5.523437 3.484375-.480469.085938-.964844.128907-1.449219.128907zm0 0"/><path d="m349.785156 402.816406c-2.261718.011719-4.429687-.878906-6.03125-2.472656-1.601562-1.59375-2.503906-3.757812-2.503906-6.015625-.003906-4.269531 3.113281-7.898437 7.332031-8.535156l31.648438-4.492188 17.710937-35.734375c2.09375-4.222656 7.214844-5.945312 11.4375-3.851562s5.949219 7.214844 3.855469 11.4375l-19.710937 39.757812c-1.253907 2.515625-3.664063 4.257813-6.449219 4.65625l-35.273438 5.011719c-.660156.160156-1.335937.238281-2.015625.238281zm0 0"/><path d="m364.894531 479.148438c-.488281 0-.972656-.042969-1.453125-.125-2.230468-.386719-4.214844-1.640626-5.523437-3.488282-1.304688-1.847656-1.820313-4.140625-1.4375-6.371094l5.546875-32.253906-25.183594-24.425781c-3.382812-3.28125-3.464844-8.683594-.183594-12.066406 3.28125-3.382813 8.683594-3.464844 12.066406-.183594l28.417969 27.5625c2.019531 1.960937 2.945313 4.796875 2.464844 7.574219l-6.3125 36.699218c-.710937 4.089844-4.253906 7.074219-8.402344 7.078126zm0 0"/><path d="m469.421875 402.816406c-.699219.003906-1.390625-.082031-2.066406-.25l-35.230469-5c-2.785156-.398437-5.195312-2.140625-6.445312-4.65625l-19.714844-39.757812c-1.351563-2.734375-1.148438-5.980469.539062-8.519532 1.691406-2.539062 4.605469-3.984374 7.648438-3.789062 3.042968.191406 5.75 1.992188 7.105468 4.722656l17.714844 35.734375 31.640625 4.492188c4.4375.640625 7.628907 4.597656 7.3125 9.070312-.3125 4.472657-4.027343 7.941407-8.511719 7.953125zm0 0"/><path d="m374.28125 488.621094c-3.933594.003906-7.359375-2.679688-8.296875-6.5-.9375-3.820313.855469-7.785156 4.34375-9.601563l35.328125-18.433593c2.472656-1.28125 5.417969-1.28125 7.890625 0l35.0625 18.292968c3.605469 1.699219 5.554687 5.664063 4.691406 9.554688-.859375 3.890625-4.300781 6.667968-8.285156 6.6875h-.085937c-1.375-.003906-2.726563-.332032-3.945313-.96875l-31.382813-16.375-31.382812 16.375c-1.214844.636718-2.566406.96875-3.9375.96875zm0 0"/><path d="m409.601562 358.402344c-14.136718 0-25.601562-11.460938-25.601562-25.601563 0-14.136719 11.464844-25.601562 25.601562-25.601562 14.140626 0 25.601563 11.464843 25.601563 25.601562-.015625 14.132813-11.46875 25.585938-25.601563 25.601563zm0-34.132813c-4.710937 0-8.53125 3.820313-8.53125 8.53125 0 4.714844 3.820313 8.535157 8.53125 8.535157 4.714844 0 8.535157-3.820313 8.535157-8.535157-.003907-4.710937-3.824219-8.527343-8.535157-8.53125zm0 0"/><path d="m486.402344 418.132812c-14.140625 0-25.601563-11.460937-25.601563-25.597656 0-14.140625 11.460938-25.601562 25.601563-25.601562 14.136718 0 25.597656 11.460937 25.597656 25.601562-.011719 14.132813-11.464844 25.582032-25.597656 25.597656zm0-34.132812c-4.714844 0-8.535156 3.820312-8.535156 8.535156 0 4.710938 3.820312 8.53125 8.535156 8.53125 4.710937 0 8.53125-3.820312 8.53125-8.53125-.003906-4.710937-3.820313-8.53125-8.53125-8.535156zm0 0"/><path d="m460.800781 512c-14.136719 0-25.597656-11.460938-25.597656-25.597656 0-14.140625 11.460937-25.601563 25.597656-25.601563 14.140625 0 25.601563 11.460938 25.601563 25.601563-.015625 14.128906-11.46875 25.582031-25.601563 25.597656zm0-34.132812c-4.710937 0-8.53125 3.820312-8.53125 8.535156 0 4.710937 3.820313 8.53125 8.53125 8.53125 4.714844 0 8.535157-3.820313 8.535157-8.53125-.003907-4.710938-3.824219-8.53125-8.535157-8.535156zm0 0"/><path d="m358.402344 512c-14.140625 0-25.601563-11.460938-25.601563-25.597656 0-14.140625 11.460938-25.601563 25.601563-25.601563 14.136718 0 25.597656 11.460938 25.597656 25.601563-.011719 14.128906-11.464844 25.582031-25.597656 25.597656zm0-34.132812c-4.714844 0-8.535156 3.820312-8.535156 8.535156 0 4.710937 3.820312 8.53125 8.535156 8.53125 4.710937 0 8.53125-3.820313 8.53125-8.53125-.003906-4.710938-3.820313-8.53125-8.53125-8.535156zm0 0"/><path d="m332.800781 418.132812c-14.136719 0-25.597656-11.460937-25.597656-25.597656 0-14.140625 11.460937-25.601562 25.597656-25.601562 14.140625 0 25.601563 11.460937 25.601563 25.601562-.015625 14.132813-11.46875 25.582032-25.601563 25.597656zm0-34.132812c-4.710937 0-8.53125 3.820312-8.53125 8.535156 0 4.710938 3.820313 8.53125 8.53125 8.53125 4.714844 0 8.535157-3.820312 8.535157-8.53125-.003907-4.710937-3.824219-8.53125-8.535157-8.535156zm0 0"/></svg>