<svg height="512pt" viewBox="0 0 512 512.00854" width="512pt" xmlns="http://www.w3.org/2000/svg"><path d="m315.140625 162.132812h9.128906c9.398438.070313 17 7.667969 17.066407 17.066407-.027344 9.414062-7.652344 17.039062-17.066407 17.066406h-290.132812c-9.414063-.027344-17.039063-7.652344-17.066407-17.066406.070313-9.398438 7.667969-16.996094 17.066407-17.066407zm0 0" fill="#3f51b5"/><path d="m348.421875 493.226562c-2.726563 6.199219-8.84375 10.214844-15.617187 10.238282h-307.199219c-9.414063-.027344-17.039063-7.652344-17.066407-17.066406v-51.199219c-.03125-2.851563.109376-5.699219.425782-8.53125 89.597656-.257813 93.269531-86.359375 93.4375-93.441407 2.835937-.3125 5.683594-.457031 8.535156-.425781h136.535156c2.847656-.03125 5.699219.113281 8.53125.425781.171875 5.972657 2.730469 67.15625 56.0625 87.125 0 0 8.277344-.597656 15.960938-1.195312zm0 0" fill="#3f51b5"/><path d="m204.804688 287.828125v44.972656c-4.996094 9.742188-14.683594 16.203125-25.601563 17.066407-10.914063-.863282-20.601563-7.324219-25.597656-17.066407v-44.972656zm0 0" fill="#ffe0b2"/><path d="m306.09375 188.160156v.085938c-.339844 2.730468-.765625 5.289062-1.363281 7.933594-11.691407 53.589843-63.402344 93.953124-125.527344 93.953124-4.007813 0-7.933594-.171874-11.773437-.425781-56.917969-4.777343-103-43.433593-113.75-93.867187-.511719-2.472656-1.023438-5.035156-1.367188-7.59375v-.085938zm0 0" fill="#283593"/><path d="m282.457031 188.160156v.085938c-.339843 2.730468-.765625 5.289062-1.363281 7.933594-10.925781 50.175781-56.917969 88.664062-113.664062 93.527343-56.917969-4.777343-103-43.433593-113.75-93.867187-.511719-2.472656-1.023438-5.035156-1.367188-7.59375v-.085938zm0 0" fill="#3f51b5"/><path d="m306.691406 119.980469v.082031h-23.636718l-231.339844-.082031c5.378906-66.050781 54.273437-106.414063 115.714844-110.933594 3.839843-.34375 7.765624-.511719 11.773437-.511719 66.902344 0 121.773437 41.214844 127.488281 111.445313zm0 0" fill="#283593"/><path d="m283.054688 119.980469v.082031l-231.339844-.082031c5.378906-66.050781 54.273437-106.414063 115.714844-110.933594 61.4375 4.519531 110.25 44.882813 115.625 110.933594zm0 0" fill="#3f51b5"/><path d="m349.785156 439.765625c-2.257812.011719-4.429687-.878906-6.03125-2.472656-1.601562-1.59375-2.5-3.757813-2.5-6.019531v-.085938c.019532-4.707031 3.851563-8.503906 8.558594-8.488281s8.515625 3.839843 8.507812 8.546875c-.007812 4.707031-3.828124 8.519531-8.535156 8.519531zm0 0"/><path d="m315.738281 153.601562c0 51.882813-61.097656 93.863282-136.535156 93.863282-4.007813 0-7.933594-.082032-11.859375-.339844-69.890625-4.09375-124.671875-44.371094-124.671875-93.523438 0-49.152343 54.78125-89.429687 124.671875-93.527343 3.925781-.253907 7.851562-.339844 11.859375-.339844 75.4375 0 136.535156 41.984375 136.535156 93.867187zm0 0" fill="#707070"/><path d="m292.101562 153.601562c0 49.152344-54.871093 89.429688-124.757812 93.523438-69.890625-4.09375-124.671875-44.371094-124.671875-93.523438 0-49.152343 54.78125-89.429687 124.671875-93.527343 69.886719 4.097656 124.757812 44.375 124.757812 93.527343zm0 0" fill="#9e9e9e"/><g fill="#02a9f4"><path d="m281.605469 153.601562c0 28.242188-42.070313 59.730469-102.402344 59.730469-8.945313.011719-17.878906-.703125-26.707031-2.132812-45.65625-7.59375-75.691406-33.707031-75.691406-57.597657 0-28.246093 42.070312-59.734374 102.398437-59.734374 38.828125 0 70.144531 13.054687 87.46875 29.867187 8.808594 7.527344 14.195313 18.300781 14.933594 29.867187zm0 0"/><path d="m102.402344 333.226562c-.167969 7.082032-3.839844 93.183594-93.4375 93.441407 4.078125-49.820313 43.621094-89.363281 93.4375-93.441407zm0 0"/><path d="m328.027344 419.15625c-7.683594.597656-15.960938 1.195312-15.960938 1.195312-53.332031-19.96875-55.890625-81.152343-56.0625-87.125 19.730469 1.53125 38.574219 8.832032 54.1875 20.992188zm0 0"/></g><path d="m402.351562 278.039062c-22.621093-7.558593-40.070312-25.773437-46.652343-48.699218l.011719.015625c-19.648438 50.257812-79.304688 47.222656-79.304688 47.222656 48.527344 53.738281 35.222656 147.050781 35.222656 147.050781l59.105469 5.789063zm0 0" fill="#9d27b0"/><path d="m357.945312 408.867188-28.378906-1.414063c-4.523437-.25-8.960937 1.308594-12.332031 4.335937-3.371094 3.027344-5.398437 7.269532-5.632813 11.792969l-1.753906 34.125c-.917968 18.824219 13.578125 34.835938 32.398438 35.796875 2.082031.105469 4.171875.003906 6.234375-.300781zm0 0" fill="#673ab7"/><path d="m503.472656 324.609375c-65.027344 31.914063-87.296875 123.476563-87.296875 123.476563l-21.589843-7.425782-43.007813-14.675781s36.777344-82.347656 8.449219-146.773437c-.539063-1.460938-1.167969-2.882813-1.878906-4.265626 5.609374 1.769532 11.386718 2.96875 17.238281 3.582032 17.34375 2.476562 35.027343-.507813 50.601562-8.53125 8.375-4.652344 15.671875-11.023438 21.417969-18.6875-.425781 54.015625 56.066406 73.300781 56.066406 73.300781zm0 0" fill="#6a1b9a"/><path d="m479.832031 324.609375c-53.84375 26.453125-78.417969 93.695313-85.246093 116.050781l-43.007813-14.675781s36.777344-82.347656 8.449219-146.773437c5.128906.183593 10.265625-.042969 15.359375-.683594 17.34375 2.476562 35.027343-.507813 50.601562-8.53125 10.582031 39.847656 53.84375 54.613281 53.84375 54.613281zm0 0" fill="#9d27b0"/><path d="m416.175781 448.085938-11.09375 32.253906c-2.921875 8.574218-9.132812 15.632812-17.265625 19.621094-8.132812 3.984374-17.519531 4.574218-26.085937 1.628906-.230469-.070313-.457031-.15625-.679688-.257813-17.429687-6.386719-26.5625-25.527343-20.566406-43.09375l11.09375-32.253906c1.058594-3.1875 3.050781-5.980469 5.71875-8.023437 4.554687-3.460938 10.527344-4.453126 15.957031-2.644532l32.253906 11.09375c8.921876 3.050782 13.695313 12.746094 10.667969 21.675782zm0 0" fill="#4527a0"/><path d="m392.453125 448.085938-11.007813 32.253906c-3.347656 9.675781-10.820312 17.367187-20.394531 20.992187-17.429687-6.386719-26.5625-25.527343-20.566406-43.09375l11.09375-32.253906c1.058594-3.1875 3.050781-5.980469 5.71875-8.023437l24.574219 8.449218c8.90625 3.066406 13.644531 12.769532 10.582031 21.675782zm0 0" fill="#673ab7"/><path d="m179.203125 298.667969c-65.046875 0-121.347656-42.496094-133.867187-101.042969-.566407-2.730469-1.117188-5.492188-1.480469-8.257812-.050781-.371094-.074219-.746094-.074219-1.121094-.023438-4.578125 3.570312-8.355469 8.140625-8.570313 4.570313-.210937 8.496094 3.21875 8.898437 7.777344.308594 2.257813.769532 4.5 1.21875 6.675781 10.832032 50.652344 60.117188 87.472656 117.164063 87.472656 56.875 0 106.15625-36.695312 117.191406-87.234374.542969-2.410157.917969-4.667969 1.21875-7.074219.492188-4.496094 4.402344-7.824219 8.917969-7.59375 4.511719.230469 8.0625 3.941406 8.097656 8.460937v.085938c-.003906.351562-.023437.707031-.066406 1.058594-.375 3.015624-.855469 5.839843-1.507812 8.765624-12.71875 58.261719-69.007813 100.597657-133.851563 100.597657zm0 0"/><path d="m51.886719 204.800781h-17.75c-14.132813-.015625-25.582031-11.46875-25.597657-25.601562.0625-14.109375 11.488282-25.535157 25.597657-25.597657h9.132812c4.710938 0 8.53125 3.820313 8.53125 8.53125 0 4.714844-3.820312 8.535157-8.53125 8.535157h-9.046875c-2.25-.039063-4.417968.847656-6 2.449219-1.675781 1.578124-2.621094 3.78125-2.617187 6.082031 0 4.710937 3.820312 8.53125 8.53125 8.535156h17.75c4.714843 0 8.535156 3.820313 8.535156 8.53125 0 4.714844-3.820313 8.535156-8.535156 8.535156zm0 0"/><path d="m324.269531 204.800781h-17.746093c-4.714844 0-8.535157-3.820312-8.535157-8.535156 0-4.710937 3.820313-8.53125 8.535157-8.53125h17.746093c4.714844-.003906 8.53125-3.824219 8.535157-8.535156.019531-2.222657-.863282-4.359375-2.449219-5.917969-1.582031-1.671875-3.78125-2.621094-6.085938-2.613281h-9.128906c-4.714844 0-8.535156-3.820313-8.535156-8.535157 0-4.710937 3.820312-8.53125 8.535156-8.53125h9.046875c14.140625.015626 25.617188 11.453126 25.683594 25.597657-.015625 14.132812-11.46875 25.585937-25.601563 25.601562zm0 0"/><path d="m51.71875 128.511719c-.230469 0-.464844-.007813-.699219-.023438-4.695312-.386719-8.195312-4.503906-7.816406-9.203125 5.816406-71.351562 60.476563-119.285156 136-119.285156 75.527344 0 130.183594 47.933594 136 119.28125l-8.511719.78125-8.53125-.089844c-5.023437-61.273437-52.839844-102.90625-118.957031-102.90625-66.113281 0-113.933594 41.632813-118.984375 103.601563-.355469 4.429687-4.054688 7.839843-8.5 7.84375zm0 0"/><path d="m153.605469 366.933594c-4.714844 0-8.535157-3.820313-8.535157-8.535156v-70.566407c0-4.710937 3.820313-8.53125 8.535157-8.53125 4.710937 0 8.53125 3.820313 8.53125 8.53125v70.566407c0 4.714843-3.820313 8.535156-8.53125 8.535156zm0 0"/><path d="m204.804688 366.933594c-4.714844 0-8.535157-3.820313-8.535157-8.535156v-70.566407c0-4.710937 3.820313-8.53125 8.535157-8.53125 4.710937 0 8.53125 3.820313 8.53125 8.53125v70.566407c0 4.714843-3.820313 8.535156-8.53125 8.535156zm0 0"/><path d="m332.804688 512h-307.199219c-14.132813-.015625-25.5859378-11.46875-25.60156275-25.601562v-51.199219c.07031255-61.238281 49.69531275-110.863281 110.93359375-110.933594h42.667969c4.710937 0 8.53125 3.820313 8.53125 8.535156 0 4.710938-3.820313 8.53125-8.53125 8.53125h-42.667969c-51.816406.058594-93.808594 42.050781-93.867188 93.867188v51.199219c.003907 4.714843 3.824219 8.53125 8.535157 8.535156h307.199219c3.398437-.023438 6.460937-2.050782 7.816406-5.167969 1.203125-2.835937 3.84375-4.800781 6.90625-5.144531 3.058594-.339844 6.066406.992187 7.871094 3.492187 1.800781 2.5 2.113281 5.773438.820312 8.570313-4.089844 9.285156-13.269531 15.289062-23.414062 15.316406zm0 0"/><path d="m310.179688 362.753906c-1.902344 0-3.746094-.636718-5.242188-1.808594-14.292969-11.136718-31.550781-17.816406-49.617188-19.210937-2.605468-.296875-5.226562-.429687-7.847656-.402344h-42.667968c-4.714844 0-8.535157-3.820312-8.535157-8.53125 0-4.714843 3.820313-8.535156 8.535157-8.535156h42.667968c3.191406-.027344 6.382813.132813 9.554688.484375 21.277344 1.695312 41.589844 9.601562 58.410156 22.742188 2.871094 2.242187 4 6.058593 2.8125 9.503906-1.1875 3.445312-4.429688 5.757812-8.070312 5.753906zm0 0"/><path d="m349.785156 439.765625c-2.257812.011719-4.429687-.878906-6.03125-2.472656-1.601562-1.59375-2.5-3.757813-2.5-6.019531v-.085938c.019532-4.707031 3.851563-8.503906 8.558594-8.488281s8.515625 3.839843 8.507812 8.546875c-.007812 4.707031-3.828124 8.519531-8.535156 8.519531zm0 0"/><path d="m179.203125 256c-79.992187 0-145.066406-45.933594-145.066406-102.398438 0-56.46875 65.074219-102.402343 145.066406-102.402343s145.066406 45.933593 145.066406 102.402343c0 56.464844-65.074219 102.398438-145.066406 102.398438zm0-187.734375c-70.582031 0-128 38.285156-128 85.335937 0 47.046876 57.417969 85.332032 128 85.332032 70.585937 0 128-38.285156 128-85.332032 0-47.050781-57.414063-85.335937-128-85.335937zm0 0"/><path d="m179.203125 221.867188c-66.359375 0-110.933594-35.300782-110.933594-68.265626 0-32.96875 44.574219-68.269531 110.933594-68.269531s110.933594 35.300781 110.933594 68.269531c0 32.964844-44.574219 68.265626-110.933594 68.265626zm0-119.46875c-58.15625 0-93.867187 29.816406-93.867187 51.203124 0 21.382813 35.710937 51.199219 93.867187 51.199219 58.160156 0 93.867187-29.816406 93.867187-51.199219 0-21.386718-35.707031-51.203124-93.867187-51.203124zm0 0"/><path d="m119.472656 153.601562c-3.453125-.003906-6.5625-2.082031-7.882812-5.269531-1.320313-3.1875-.589844-6.859375 1.847656-9.296875l8.535156-8.535156c3.347656-3.234375 8.667969-3.1875 11.960938.105469 3.292968 3.289062 3.335937 8.613281.105468 11.960937l-8.535156 8.535156c-1.597656 1.601563-3.769531 2.5-6.03125 2.5zm0 0"/><path d="m136.539062 179.199219c-3.453124 0-6.5625-2.078125-7.882812-5.265625-1.320312-3.191406-.589844-6.859375 1.847656-9.300782l34.132813-34.132812c3.347656-3.234375 8.671875-3.1875 11.964843.105469 3.289063 3.289062 3.335938 8.613281.101563 11.960937l-34.132813 34.132813c-1.597656 1.605469-3.769531 2.503906-6.03125 2.5zm0 0"/><path d="m179.203125 349.867188c-14.152344-.863282-26.792969-9.148438-33.230469-21.785157-2.035156-4.195312-.324218-9.246093 3.839844-11.339843 4.164062-2.097657 9.238281-.464844 11.398438 3.667968 3.5625 6.863282 10.308593 11.511719 17.992187 12.390625 7.6875-.886719 14.429687-5.535156 17.992187-12.402343 2.121094-4.207032 7.253907-5.898438 11.460938-3.777344 4.210938 2.121094 5.902344 7.25 3.78125 11.460937-6.4375 12.632813-19.078125 20.921875-33.234375 21.785157zm0 0"/><path d="m8.539062 435.199219c-4.714843 0-8.53515575-3.820313-8.53515575-8.53125 0-4.714844 3.82031275-8.535157 8.53515575-8.535157 84.03125 0 85.316407-81.867187 85.332032-85.351562.015625-4.699219 3.832031-8.503906 8.53125-8.507812h.019531c4.703125.003906 8.515625 3.820312 8.515625 8.527343 0 1.023438-1.175781 102.398438-102.398438 102.398438zm0 0"/><path d="m312.152344 428.96875c-1.320313 0-2.625-.308594-3.808594-.898438-57.203125-21.960937-60.664062-87.210937-60.871094-94.605468l8.53125-.664063 8.535156.425781c.167969 6.015626 3.070313 61.367188 50.523438 79.132813 1.164062.441406 2.222656 1.125 3.101562 2.007813 2.457032 2.4375 3.199219 6.113281 1.882813 9.3125-1.316406 3.203124-4.433594 5.289062-7.894531 5.289062zm0 0"/><path d="m76.804688 512c-4.714844 0-8.535157-3.820312-8.535157-8.535156v-42.664063c0-4.714843 3.820313-8.535156 8.535157-8.535156 4.710937 0 8.53125 3.820313 8.53125 8.535156v42.664063c0 4.714844-3.820313 8.535156-8.53125 8.535156zm0 0"/><path d="m281.605469 512c-4.714844 0-8.535157-3.820312-8.535157-8.535156v-42.664063c0-4.714843 3.820313-8.535156 8.535157-8.535156 4.710937 0 8.53125 3.820313 8.53125 8.535156v42.664063c0 4.714844-3.820313 8.535156-8.53125 8.535156zm0 0"/><path d="m372.835938 512.007812c-13.78125.007813-26.71875-6.640624-34.738282-17.847656-8.019531-11.210937-10.132812-25.601562-5.675781-38.640625l11.050781-32.304687c4.597656-13.355469 19.132813-20.480469 32.511719-15.933594l32.296875 11.050781c6.425781 2.195313 11.710938 6.855469 14.699219 12.949219 2.988281 6.097656 3.433593 13.128906 1.234375 19.550781l-11.050782 32.300781c-5.914062 17.238282-22.105468 28.832032-40.328124 28.875zm-5.128907-89.03125c-3.652343-.003906-6.898437 2.3125-8.085937 5.765626l-11.046875 32.289062c-2.203125 6.425781-1.757813 13.460938 1.230469 19.558594 2.988281 6.097656 8.277343 10.757812 14.699218 12.957031h.011719c13.371094 4.574219 27.921875-2.554687 32.5-15.925781l11.046875-32.300782c.734375-2.140624.589844-4.484374-.402344-6.515624-.996094-2.035157-2.757812-3.589844-4.894531-4.324219l-32.300781-11.046875c-.886719-.304688-1.820313-.460938-2.757813-.457032zm0 0"/><path d="m351.546875 434.507812c-2.890625 0-5.585937-1.464843-7.15625-3.886718-1.574219-2.425782-1.8125-5.480469-.636719-8.121094.367188-.824219 36.425782-83.242188 6.726563-143.832031-1.515625-3.101563-1.015625-6.808594 1.269531-9.398438 2.28125-2.585937 5.898438-3.546875 9.164062-2.433593 2.058594.703124 51.164063 16.726562 79.679688-20.671876 1.832031-2.472656 4.855469-3.769531 7.910156-3.390624 3.050782.378906 5.664063 2.375 6.835938 5.21875s.722656 6.101562-1.175782 8.519531c-24.46875 32.09375-61 32.875-82.074218 30.058593 21.503906 64.875-11.234375 139.5-12.75 142.890626-1.378906 3.070312-4.429688 5.046874-7.792969 5.046874zm0 0"/><path d="m416.144531 456.609375c-2.613281-.007813-5.085937-1.210937-6.703125-3.265625-1.617187-2.058594-2.207031-4.742188-1.597656-7.285156.886719-3.609375 20.738281-82.640625 77.46875-120.746094-18.425781-10.675781-46.785156-33.683594-46.464844-74.042969.035156-4.6875 3.84375-8.464843 8.53125-8.464843h.066406c2.265626.015624 4.425782.933593 6.015626 2.542968 1.585937 1.613282 2.46875 3.792969 2.453124 6.054688-.367187 47.019531 48.265626 64.453125 50.339844 65.167968 3.253906 1.128907 5.507813 4.101563 5.71875 7.535157.214844 3.4375-1.660156 6.664062-4.746094 8.183593-60.59375 29.707032-82.585937 116.933594-82.800781 117.808594-.933593 3.816406-4.351562 6.5-8.28125 6.511719zm0 0"/><path d="m389.371094 429.417969c-2.753906 0-5.339844-1.332031-6.941406-3.570313-1.601563-2.242187-2.023438-5.117187-1.132813-7.722656l35.90625-104.960938c1.542969-4.433593 6.375-6.792968 10.820313-5.273437 4.445312 1.515625 6.828124 6.339844 5.332031 10.789063l-35.910157 104.960937c-1.179687 3.453125-4.425781 5.777344-8.074218 5.777344zm0 0"/><path d="m343.878906 502.074219c-.675781 0-1.351562-.015625-2.03125-.050781-23.539062-1.179688-41.675781-21.199219-40.527344-44.738282l1.757813-34.144531c.351563-6.789063 3.398437-13.164063 8.460937-17.703125 5.0625-4.542969 11.726563-6.878906 18.515626-6.496094l28.316406 1.398438c2.261718.113281 4.386718 1.121094 5.90625 2.796875 1.515625 1.679687 2.308594 3.894531 2.195312 6.15625-.085937 2.269531-1.085937 4.410156-2.769531 5.933593-1.683594 1.527344-3.914063 2.304688-6.183594 2.164063l-28.375-1.40625c-2.265625-.144531-4.496093.625-6.191406 2.140625-1.691406 1.511719-2.710937 3.640625-2.824219 5.910156l-1.757812 34.117188c-.679688 14.105468 10.183594 26.105468 24.292968 26.824218 1.507813.082032 3.019532.015626 4.515626-.210937 4.640624-.679687 8.957031 2.511719 9.671874 7.144531.714844 4.632813-2.441406 8.976563-7.070312 9.722656-1.953125.296876-3.925781.445313-5.902344.441407zm0 0"/><path d="m311.640625 432.160156c-.402344-.003906-.804687-.035156-1.207031-.085937-4.664063-.667969-7.910156-4.984375-7.253906-9.652344.125-.890625 12.109374-90.046875-33.109376-140.132813-2.316406-2.558593-2.859374-6.265624-1.375-9.386718 1.445313-3.148438 4.683594-5.082032 8.140626-4.855469 2.136718.039063 53.792968 2 70.925781-41.808594 1.71875-4.390625 6.667969-6.558593 11.058593-4.84375 4.390626 1.71875 6.558594 6.667969 4.84375 11.058594-14.710937 37.59375-49.582031 48.417969-70.652343 51.484375 38.519531 56.457031 27.59375 137.207031 27.066406 140.886719-.597656 4.199219-4.191406 7.324219-8.4375 7.335937zm0 0"/><path d="m402.347656 286.574219c-1.03125 0-2.054687-.183594-3.019531-.550781-25.164063-8.519532-44.546875-28.847657-51.855469-54.390626-1.21875-4.523437 1.4375-9.1875 5.953125-10.445312 4.511719-1.257812 9.199219 1.359375 10.496094 5.863281 5.722656 20.378907 21.285156 36.53125 41.441406 43.007813 3.855469 1.457031 6.117188 5.460937 5.378907 9.515625-.742188 4.054687-4.273438 7-8.394532 7zm0 0"/></svg>