<svg height="512pt" viewBox="0 0 512 512.01255" width="512pt" xmlns="http://www.w3.org/2000/svg"><path d="m304.132812 349.878906c-16.789062-11.15625-36.503906-17.09375-56.660156-17.066406h-136.53125c-27.164062-.007812-53.210937 10.777344-72.417968 29.984375-19.207032 19.203125-29.992188 45.253906-29.984376 72.414063v51.203124c.027344 9.414063 7.652344 17.039063 17.066407 17.066407h307.199219zm0 0" fill="#9d27b0"/><path d="m119.472656 332.8125v17.066406c0 23.566406 19.101563 42.667969 42.667969 42.667969h34.132813c23.5625 0 42.667968-19.101563 42.667968-42.667969v-17.066406zm0 0" fill="#ffe0b2"/><path d="m153.605469 287.84375h51.199219v70.570312h-51.199219zm0 0" fill="#ffe0b2"/><path d="m503.472656 366.945312v119.46875c-.027344 9.414063-7.652344 17.039063-17.066406 17.066407h-187.734375c-9.414063-.027344-17.039063-7.652344-17.066406-17.066407v-119.46875c.027343-9.414062 7.652343-17.039062 17.066406-17.066406h29.269531c3.023438.039063 5.832032-1.5625 7.339844-4.179687l18.175781-30.210938c3.074219-5.125 8.613281-8.265625 14.59375-8.277343h48.980469c5.976562.011718 11.515625 3.152343 14.589844 8.277343l18.175781 30.210938c1.507813 2.617187 4.316406 4.21875 7.339844 4.179687h29.269531c9.414062.027344 17.039062 7.652344 17.066406 17.066406zm0 0" fill="#283593"/><path d="m479.835938 366.945312v119.46875c-.027344 9.414063-7.652344 17.039063-17.066407 17.066407h-164.097656c-9.414063-.027344-17.039063-7.652344-17.066406-17.066407v-119.46875c.027343-9.414062 7.652343-17.039062 17.066406-17.066406h29.269531c3.023438.039063 5.832032-1.5625 7.339844-4.179687l18.175781-30.210938c3.074219-5.125 8.613281-8.265625 14.59375-8.277343h25.34375c5.976563.011718 11.515625 3.152343 14.589844 8.277343l18.175781 30.210938c1.507813 2.617187 4.316406 4.21875 7.339844 4.179687h29.269531c9.414063.027344 17.039063 7.652344 17.066407 17.066406zm0 0" fill="#3f51b5"/><path d="m460.804688 435.210938c0 37.703124-30.5625 68.269531-68.265626 68.269531-37.703124 0-68.265624-30.566407-68.265624-68.269531 0-37.699219 30.5625-68.265626 68.265624-68.265626 37.703126 0 68.265626 30.566407 68.265626 68.265626zm0 0" fill="#9e9e9e"/><path d="m443.738281 435.210938c0 28.277343-22.921875 51.203124-51.199219 51.203124-28.277343 0-51.199218-22.925781-51.199218-51.203124 0-28.273438 22.921875-51.199219 51.199218-51.199219 28.277344 0 51.199219 22.925781 51.199219 51.199219zm0 0" fill="#3f51b5"/><path d="m426.671875 435.210938c0 18.851562-15.28125 34.136718-34.132813 34.136718-18.851562 0-34.132812-15.285156-34.132812-34.136718 0-18.851563 15.28125-34.132813 34.132812-34.132813 18.851563 0 34.132813 15.28125 34.132813 34.132813zm0 0" fill="#3f51b5"/><path d="m409.605469 430.945312c0 11.78125-9.550781 21.332032-21.332031 21.332032s-21.332032-9.550782-21.332032-21.332032 9.550782-21.332031 21.332032-21.332031 21.332031 9.550781 21.332031 21.332031zm0 0" fill="#02a9f4"/><path d="m324.273438 149.347656c0 1.363282 0 15.613282-.085938 17.066406h-289.960938c-.085937-1.453124-.085937-15.703124-.085937-17.066406.980469-74.363281 58.992187-135.460937 133.203125-140.289062 3.925781-.34375 7.851562-.511719 11.863281-.511719 78.929688-1.15625 143.867188 61.867187 145.066407 140.800781zm0 0" fill="#6d4122"/><path d="m300.636719 149.347656c0 1.363282 0 15.613282-.085938 17.066406h-266.324219c-.085937-1.453124-.085937-15.703124-.085937-17.066406.980469-74.363281 58.992187-135.460937 133.203125-140.289062 74.242188 4.792968 132.300781 65.898437 133.292969 140.289062zm0 0" fill="#91562d"/><path d="m306.609375 162.144531h17.664063c9.398437.070313 17 7.671875 17.066406 17.066407-.027344 9.414062-7.652344 17.039062-17.066406 17.066406h-290.132813c-9.414063-.027344-17.039063-7.652344-17.066406-17.066406.066406-9.394532 7.667969-16.996094 17.066406-17.066407zm0 0" fill="#dfc49c"/><path d="m307.207031 173.152344c-.011719 4.050781-.242187 8.09375-.683593 12.117187-6.65625 58.96875-61.097657 104.875-127.316407 104.875-3.925781 0-7.851562-.167969-11.777343-.511719-60.757813-5.035156-109.3125-48.894531-115.539063-104.363281-.445313-4.023437-.671875-8.066406-.683594-12.117187.015625-6.78125.644531-13.550782 1.875-20.222656.769531-3.753907 1.707031-7.507813 2.816407-11.179688 9.132812-20.90625 31.660156-63.058594 67.585937-70.996094 15.027344-2.957031 30.617187-.351562 43.859375 7.339844h.085938c4.070312 2.175781 8.003906 4.597656 11.777343 7.253906 9.5625-7.046875 20.488281-12.019531 32.085938-14.59375 49.832031-10.238281 80.296875 45.824219 91.21875 70.996094 1.109375 3.671875 2.050781 7.425781 2.816406 11.179688 1.234375 6.671874 1.863281 13.441406 1.878906 20.222656zm0 0" fill="#dfc49c"/><path d="m283.570312 173.152344c-.015624 4.050781-.242187 8.09375-.683593 12.117187-6.230469 55.382813-54.699219 99.328125-115.457031 104.363281-60.757813-5.035156-109.3125-48.894531-115.539063-104.363281-.445313-4.023437-.671875-8.066406-.683594-12.117187.015625-6.78125.644531-13.550782 1.875-20.222656.769531-3.753907 1.707031-7.507813 2.816407-11.179688 9.132812-20.90625 31.660156-63.058594 67.585937-70.996094 11.59375 2.574219 22.523437 7.546875 32.085937 14.59375 3.773438-2.65625 7.703126-5.078125 11.773438-7.253906h.085938c4.070312 2.175781 8.003906 4.597656 11.777343 7.253906 9.5625-7.046875 20.488281-12.019531 32.085938-14.59375 36.007812 7.9375 58.453125 50.089844 67.582031 70.996094 1.109375 3.671875 2.046875 7.425781 2.816406 11.179688 1.234375 6.671874 1.859375 13.441406 1.878906 20.222656zm0 0" fill="#ffe0b2"/><path d="m93.871094 145.078125h59.734375c4.714843 0 8.535156 3.820313 8.535156 8.535156v8.53125c0 18.851563-15.28125 34.132813-34.132813 34.132813h-8.535156c-18.851562 0-34.132812-15.28125-34.132812-34.132813v-8.53125c0-4.714843 3.820312-8.535156 8.53125-8.535156zm0 0" fill="#02a9f4"/><path d="m204.804688 145.078125h59.734374c4.714844 0 8.535157 3.820313 8.535157 8.535156v8.53125c0 18.851563-15.285157 34.132813-34.132813 34.132813h-8.535156c-18.851562 0-34.132812-15.28125-34.132812-34.132813v-8.53125c0-4.714843 3.820312-8.535156 8.53125-8.535156zm0 0" fill="#02a9f4"/><path d="m162.140625 159.414062v2.730469c0 9.054688-3.59375 17.738281-9.996094 24.140625-6.402343 6.402344-15.085937 9.996094-24.136719 9.992188h-8.535156c-5.160156.050781-10.253906-1.152344-14.847656-3.496094 10.878906-21.527344 33.429688-34.609375 57.515625-33.367188zm0 0" fill="#0377bc"/><path d="m273.074219 159.925781v2.21875c0 9.054688-3.59375 17.738281-9.996094 24.140625s-15.085937 9.996094-24.136719 9.992188h-8.535156c-7.550781.03125-14.890625-2.496094-20.820312-7.167969 9.640624-15.785156 28.328124-32.425781 63.488281-29.183594zm0 0" fill="#0377bc"/><path d="m179.207031 298.679688c-70.175781 0-128.558593-48.359376-135.800781-112.476563-.476562-4.339844-.722656-8.699219-.734375-13.066406.019531-7.277344.691406-14.542969 2.015625-21.699219.8125-4.105469 1.832031-8.171875 3.050781-12.175781 1.472657-4.382813 6.164063-6.796875 10.585938-5.449219 4.421875 1.351562 6.960937 5.976562 5.730469 10.433594-1.023438 3.367187-1.898438 6.882812-2.605469 10.417968-1.121094 6.09375-1.695313 12.277344-1.710938 18.472657.011719 3.742187.222657 7.480469.632813 11.199219 6.261718 55.433593 57.351562 97.277343 118.835937 97.277343s112.574219-41.84375 118.832031-97.324219c.414063-3.703124.625-7.425781.632813-11.152343-.019531-6.25-.597656-12.484375-1.730469-18.632813-.683594-3.375-1.558594-6.890625-2.585937-10.257812-.984375-2.945313-.296875-6.191406 1.800781-8.476563 2.097656-2.289062 5.269531-3.257812 8.289062-2.53125 3.015626.726563 5.402344 3.03125 6.226563 6.023438 1.167969 3.792969 2.183594 7.84375 3.027344 12.019531 2.171875 11.492188 2.613281 23.246094 1.308593 34.875-7.242187 64.164062-65.625 112.523438-135.800781 112.523438zm0 0"/><path d="m51.890625 204.8125h-17.75c-14.132813-.015625-25.585937-11.46875-25.601563-25.601562.066407-14.109376 11.488282-25.53125 25.601563-25.597657h17.664063c4.710937 0 8.53125 3.820313 8.53125 8.53125 0 4.714844-3.820313 8.535157-8.53125 8.535157h-17.578126c-2.253906-.039063-4.421874.847656-6.003906 2.449218-1.671875 1.578125-2.621094 3.78125-2.617187 6.082032.003906 4.714843 3.824219 8.53125 8.535156 8.535156h17.75c4.710937 0 8.53125 3.820312 8.53125 8.53125 0 4.714844-3.820313 8.535156-8.53125 8.535156zm0 0"/><path d="m324.273438 204.8125h-17.75c-4.710938 0-8.53125-3.820312-8.53125-8.535156 0-4.710938 3.820312-8.53125 8.53125-8.53125h17.75c4.710937-.003906 8.53125-3.820313 8.53125-8.535156.023437-2.222657-.863282-4.359376-2.449219-5.914063-1.578125-1.675781-3.78125-2.621094-6.082031-2.617187h-17.664063c-4.714844 0-8.535156-3.820313-8.535156-8.535157 0-4.710937 3.820312-8.53125 8.535156-8.53125h17.578125c14.144531.019531 25.621094 11.453125 25.683594 25.597657-.011719 14.132812-11.464844 25.585937-25.597656 25.601562zm0 0"/><path d="m324.199219 170.679688c-.171875 0-.335938-.007813-.5-.015626-4.699219-.273437-8.292969-4.300781-8.023438-9 .074219-1.601562.0625-11.019531.0625-12.316406-1.277343-74.183594-62.347656-133.34375-136.53125-132.269531-74.1875-1.074219-135.253906 58.085937-136.535156 132.269531 0 1.304688-.007813 10.730469.066406 12.324219.234375 4.695313-3.367187 8.703125-8.066406 8.964844-2.253906.140625-4.46875-.625-6.152344-2.125-1.683593-1.503907-2.699219-3.621094-2.8125-5.875-.09375-1.507813-.101562-11.875-.101562-13.289063 1.292969-83.605468 69.992187-150.398437 153.601562-149.3359372 83.605469-1.0624998 152.308594 65.7304692 153.597657 149.3359372 0 1.414063-.007813 11.78125-.097657 13.289063-.261719 4.511719-3.992187 8.035156-8.507812 8.042969zm0 0"/><path d="m55.898438 150.328125c-2.257813.011719-4.429688-.878906-6.03125-2.472656-1.601563-1.59375-2.5-3.757813-2.5-6.019531 0-1.195313.238281-2.378907.707031-3.480469 10.242187-23.542969 32.933593-64.585938 69.867187-75 21.132813-6 43.40625-.917969 66.15625 15 3.789063 2.726562 4.679688 7.992187 2.007813 11.816406-2.675781 3.824219-7.929688 4.789063-11.789063 2.164063-18.34375-12.832032-35.734375-17.058594-51.742187-12.554688-31.132813 8.78125-51.371094 48.273438-58.742188 65.132812-1.285156 3.257813-4.429687 5.40625-7.933593 5.414063zm0 0"/><path d="m302.511719 150.328125c-3.65625.011719-6.914063-2.316406-8.089844-5.78125-7.5-17.066406-27.675781-56.050781-58.585937-64.769531-16.007813-4.507813-33.398438-.28125-51.738282 12.558594-2.5 1.796874-5.769531 2.113281-8.5625.824218-2.792968-1.289062-4.679687-3.980468-4.929687-7.046875-.253907-3.066406 1.164062-6.03125 3.707031-7.761719 22.757812-15.914062 44.984375-20.992187 66.160156-15 36.933594 10.417969 59.625 51.457032 69.867188 75 1.144531 2.644532.886718 5.683594-.6875 8.097657-1.578125 2.410156-4.257813 3.867187-7.140625 3.878906zm0 0"/><path d="m153.605469 366.945312c-4.710938 0-8.53125-3.820312-8.53125-8.53125v-70.566406c0-4.714844 3.820312-8.535156 8.53125-8.535156 4.714843 0 8.535156 3.820312 8.535156 8.535156v70.566406c0 4.710938-3.820313 8.53125-8.535156 8.53125zm0 0"/><path d="m204.804688 366.945312c-4.710938 0-8.53125-3.820312-8.53125-8.53125v-70.566406c0-4.714844 3.820312-8.535156 8.53125-8.535156 4.714843 0 8.535156 3.820312 8.535156 8.535156v70.566406c0 4.710938-3.820313 8.53125-8.535156 8.53125zm0 0"/><path d="m332.804688 512.011719h-307.199219c-14.132813-.015625-25.5820315-11.46875-25.5976565-25.597657v-51.203124c.0703125-61.234376 49.6953125-110.859376 110.9335935-110.933594h42.664063c4.714843 0 8.535156 3.824218 8.535156 8.535156s-3.820313 8.535156-8.535156 8.535156h-42.664063c-51.820312.058594-93.808594 42.046875-93.867187 93.863282v51.203124c0 4.710938 3.820312 8.527344 8.53125 8.53125h307.199219c4.714843 0 8.535156 3.820313 8.535156 8.535157 0 4.710937-3.820313 8.53125-8.535156 8.53125zm0 0"/><path d="m304.125 358.414062c-1.679688 0-3.316406-.496093-4.710938-1.425781-15.390624-10.222656-33.464843-15.664062-51.941406-15.640625h-42.667968c-4.710938 0-8.53125-3.824218-8.53125-8.535156s3.820312-8.535156 8.53125-8.535156h42.667968c21.835938-.023438 43.191406 6.410156 61.375 18.492187 3.136719 2.082031 4.535156 5.972657 3.449219 9.578125-1.089844 3.601563-4.410156 6.066406-8.171875 6.066406zm0 0"/><path d="m196.273438 401.078125h-34.132813c-28.265625-.03125-51.171875-22.933594-51.199219-51.199219v-17.066406c0-4.710938 3.820313-8.535156 8.53125-8.535156 4.714844 0 8.535156 3.824218 8.535156 8.535156v17.066406c.015626 18.84375 15.289063 34.117188 34.132813 34.132813h34.132813c18.84375-.015625 34.113281-15.289063 34.132812-34.132813v-17.066406c0-4.710938 3.820312-8.535156 8.535156-8.535156 4.710938 0 8.53125 3.824218 8.53125 8.535156v17.066406c-.03125 28.265625-22.9375 51.167969-51.199218 51.199219zm0 0"/><path d="m110.941406 477.878906h-51.203125c-4.710937 0-8.53125-3.820312-8.53125-8.53125 0-4.714844 3.820313-8.535156 8.53125-8.535156h51.203125c4.710938 0 8.53125 3.820312 8.53125 8.535156 0 4.710938-3.820312 8.53125-8.53125 8.53125zm0 0"/><path d="m128.007812 204.8125h-8.535156c-23.550781-.027344-42.636718-19.113281-42.667968-42.667969v-8.53125c.015624-9.421875 7.648437-17.054687 17.066406-17.066406h59.734375c9.421875.011719 17.054687 7.644531 17.066406 17.066406v8.53125c-.027344 23.554688-19.113281 42.640625-42.664063 42.667969zm-34.136718-51.199219v8.53125c.015625 14.132813 11.46875 25.585938 25.601562 25.601563h8.535156c14.128907-.015625 25.582032-11.46875 25.597657-25.601563v-8.53125zm0 0"/><path d="m238.941406 204.8125h-8.535156c-23.550781-.027344-42.640625-19.113281-42.667969-42.667969v-8.53125c.015625-9.421875 7.648438-17.054687 17.066407-17.066406h59.734374c9.421876.011719 17.054688 7.644531 17.066407 17.066406v8.53125c-.027344 23.554688-19.113281 42.640625-42.664063 42.667969zm-34.136718-51.199219v8.53125c.015624 14.132813 11.46875 25.585938 25.601562 25.601563h8.535156c14.128906-.015625 25.582032-11.46875 25.597656-25.601563v-8.53125zm0 0"/><path d="m196.273438 152.664062c-2.265626 0-4.433594-.898437-6.035157-2.5-2.800781-3.179687-6.832031-4.992187-11.066406-4.984374-4.238281.011718-8.261719 1.84375-11.046875 5.03125-3.359375 3.253906-8.707031 3.199218-11.996094-.121094-3.292968-3.316406-3.300781-8.664063-.023437-11.996094 6-6.359375 14.355469-9.964844 23.101562-9.964844 8.742188 0 17.101563 3.605469 23.097657 9.964844 2.441406 2.441406 3.171874 6.113281 1.851562 9.300781s-4.433594 5.269531-7.882812 5.269531zm0 0"/><path d="m51.207031 169.730469c-4.125 0-7.660156-2.945313-8.398437-7-.742188-4.058594 1.523437-8.0625 5.382812-9.519531l42.664063-16.113282c4.410156-1.667968 9.335937.554688 11 4.964844 1.667969 4.410156-.558594 9.332031-4.964844 11l-42.667969 16.117188c-.964844.363281-1.984375.550781-3.015625.550781zm0 0"/><path d="m307.207031 169.730469c-1.03125 0-2.054687-.1875-3.015625-.550781l-42.667968-16.117188c-4.410157-1.667969-6.632813-6.589844-4.964844-11 1.664062-4.410156 6.589844-6.632812 10.996094-4.964844l42.667968 16.113282c3.859375 1.457031 6.121094 5.460937 5.382813 9.519531-.742188 4.054687-4.277344 7-8.398438 7zm0 0"/><path d="m486.40625 512.011719h-187.734375c-14.132813-.015625-25.582031-11.46875-25.597656-25.597657v-119.46875c.015625-14.132812 11.464843-25.582031 25.597656-25.597656h29.300781l18.140625-30.242187c4.652344-7.691407 12.972657-12.398438 21.960938-12.425781h48.933593c8.980469.027343 17.300782 4.734374 21.953126 12.417968l18.144531 30.25h29.300781c14.132812.015625 25.585938 11.464844 25.601562 25.597656v119.46875c-.015624 14.128907-11.46875 25.582032-25.601562 25.597657zm-187.734375-153.597657c-4.710937 0-8.53125 3.820313-8.53125 8.53125v119.46875c0 4.710938 3.820313 8.527344 8.53125 8.53125h187.734375c4.710938-.003906 8.53125-3.820312 8.535156-8.53125v-119.46875c-.003906-4.710937-3.824218-8.53125-8.535156-8.53125h-29.300781c-5.988281-.019531-11.535157-3.160156-14.632813-8.285156l-18.140625-30.242187c-1.554687-2.5625-4.328125-4.132813-7.324219-4.140625h-48.933593c-3 .007812-5.777344 1.582031-7.328125 4.148437l-18.140625 30.234375c-3.097657 5.125-8.644531 8.265625-14.632813 8.285156zm0 0"/><path d="m409.605469 349.878906h-34.132813c-4.710937 0-8.53125-3.820312-8.53125-8.53125 0-4.714844 3.820313-8.535156 8.53125-8.535156h34.132813c4.714843 0 8.535156 3.820312 8.535156 8.535156 0 4.710938-3.820313 8.53125-8.535156 8.53125zm0 0"/><path d="m392.539062 512.011719c-42.414062 0-76.800781-34.382813-76.800781-76.800781 0-42.414063 34.386719-76.796876 76.800781-76.796876 42.414063 0 76.800782 34.382813 76.800782 76.796876-.046875 42.398437-34.402344 76.753906-76.800782 76.800781zm0-136.53125c-32.988281 0-59.734374 26.742187-59.734374 59.730469 0 32.992187 26.746093 59.734374 59.734374 59.734374 32.992188 0 59.734376-26.742187 59.734376-59.734374-.039063-32.972657-26.761719-59.691407-59.734376-59.730469zm0 0"/><path d="m392.539062 469.347656c-18.851562 0-34.132812-15.285156-34.132812-34.136718 0-18.851563 15.28125-34.132813 34.132812-34.132813 18.851563 0 34.132813 15.28125 34.132813 34.132813-.015625 18.84375-15.289063 34.117187-34.132813 34.136718zm0-51.203125c-9.425781 0-17.066406 7.640625-17.066406 17.066407 0 9.425781 7.640625 17.066406 17.066406 17.066406 9.425782 0 17.066407-7.640625 17.066407-17.066406-.011719-9.417969-7.644531-17.050782-17.066407-17.066407zm0 0"/><path d="m298.671875 392.546875h-17.066406c-4.710938 0-8.53125-3.820313-8.53125-8.535156 0-4.710938 3.820312-8.53125 8.53125-8.53125h17.066406c4.714844 0 8.535156 3.820312 8.535156 8.53125 0 4.714843-3.820312 8.535156-8.535156 8.535156zm0 0"/><path d="m503.472656 392.546875h-17.066406c-4.710938 0-8.535156-3.820313-8.535156-8.535156 0-4.710938 3.824218-8.53125 8.535156-8.53125h17.066406c4.714844 0 8.535156 3.820312 8.535156 8.53125 0 4.714843-3.820312 8.535156-8.535156 8.535156zm0 0"/></svg>