<svg height="512pt" viewBox="0 0 512 512.01255" width="512pt" xmlns="http://www.w3.org/2000/svg"><path d="m328.027344 349.367188h-.085938l-286.976562 11.09375c-.339844-.257813-.679688-.597657-1.023438-.855469-24.574218-21.074219-29.355468-59.5625-14.335937-91.050781 17.066406-35.921876 8.535156-80.808594 8.535156-80.808594h290.132813s-8.535157 44.886718 8.53125 80.808594c13.015624 25.847656 11.191406 56.679687-4.777344 80.8125zm0 0" fill="#783e22"/><path d="m304.390625 349.367188h-.085937l-264.363282 10.238281c-24.574218-21.074219-29.355468-59.5625-14.335937-91.050781 17.066406-35.921876 8.535156-80.808594 8.535156-80.808594h266.496094s-8.535157 44.886718 8.53125 80.808594c13.011719 25.847656 11.191406 56.679687-4.777344 80.8125zm0 0" fill="#a0522d"/><path d="m304.132812 349.878906c-16.789062-11.15625-36.503906-17.09375-56.660156-17.066406h-136.53125c-27.164062-.007812-53.210937 10.777344-72.417968 29.984375-19.207032 19.203125-29.992188 45.253906-29.984376 72.414063v51.203124c.027344 9.414063 7.652344 17.039063 17.066407 17.066407h307.199219zm0 0" fill="#9d27b0"/><path d="m119.472656 332.8125v17.066406c0 23.566406 19.101563 42.667969 42.667969 42.667969h34.132813c23.5625 0 42.667968-19.101563 42.667968-42.667969v-17.066406zm0 0" fill="#ffe0b2"/><path d="m153.605469 287.84375h51.199219v70.570312h-51.199219zm0 0" fill="#ffe0b2"/><path d="m324.273438 149.347656c0 1.363282 0 15.613282-.085938 17.066406h-289.960938c-.085937-1.453124-.085937-15.703124-.085937-17.066406.980469-74.363281 58.992187-135.460937 133.203125-140.289062 3.925781-.34375 7.851562-.511719 11.863281-.511719 78.929688-1.15625 143.867188 61.867187 145.066407 140.800781zm0 0" fill="#6d4122"/><path d="m300.636719 149.347656c0 1.363282 0 15.613282-.085938 17.066406h-266.324219c-.085937-1.453124-.085937-15.703124-.085937-17.066406.980469-74.363281 58.992187-135.460937 133.203125-140.289062 74.242188 4.792968 132.300781 65.898437 133.292969 140.289062zm0 0" fill="#91562d"/><path d="m306.609375 162.144531h17.664063c9.398437.070313 17 7.671875 17.066406 17.066407-.027344 9.414062-7.652344 17.039062-17.066406 17.066406h-290.132813c-9.414063-.027344-17.039063-7.652344-17.066406-17.066406.066406-9.394532 7.667969-16.996094 17.066406-17.066407zm0 0" fill="#dfc49c"/><path d="m307.207031 173.152344c-.011719 4.050781-.242187 8.09375-.683593 12.117187-.425782 3.671875-1.023438 7.339844-1.792969 10.925781-12.003907 47.769532-51.296875 83.804688-99.925781 91.648438-8.441407 1.550781-17.011719 2.320312-25.597657 2.300781-4.011719 0-7.9375-.167969-11.777343-.511719-4.636719-.332031-9.253907-.929687-13.824219-1.789062-48.773438-7.789062-88.136719-44.027344-99.925781-91.992188-.765626-3.496093-1.363282-6.996093-1.789063-10.582031-.445313-4.023437-.671875-8.066406-.683594-12.117187-.019531-3.675782.179688-7.351563.597657-11.007813.253906-3.070312.765624-6.144531 1.277343-9.214843.597657-2.988282 1.367188-5.886719 2.136719-8.789063l4.519531-24.660156c43.179688-10.667969 65.109375-29.441407 75.777344-43.179688 4.121094-4.921875 7.355469-10.523437 9.558594-16.554687 0 0 27.132812 47.53125 105.640625 51.710937 2.5625.171875 5.121094.257813 7.851562.257813 7.6875.15625 15.378906-.101563 23.039063-.769532 8.894531 10.4375 16.277343 22.070313 21.929687 34.5625.683594 2.472657 1.28125 4.949219 1.792969 7.421876.511719 3.070312 1.023437 6.144531 1.28125 9.214843.414063 3.65625.617187 7.332031.597656 11.007813zm0 0" fill="#dfc49c"/><path d="m283.570312 173.152344c-.015624 4.050781-.242187 8.09375-.683593 12.117187-.425781 3.671875-1.023438 7.339844-1.792969 10.925781-12.003906 47.769532-51.296875 83.804688-99.925781 91.648438-4.539063.859375-9.128907 1.457031-13.738281 1.789062-4.636719-.332031-9.253907-.929687-13.824219-1.789062-48.773438-7.789062-88.136719-44.027344-99.925781-91.992188-.765626-3.496093-1.363282-6.996093-1.789063-10.582031-.445313-4.023437-.671875-8.066406-.683594-12.117187-.019531-3.675782.179688-7.351563.597657-11.007813.253906-3.070312.765624-6.144531 1.277343-9.214843.597657-2.988282 1.367188-5.886719 2.136719-8.789063l4.519531-24.660156c43.179688-10.667969 65.109375-29.441407 75.777344-43.179688 17.578125 16.296875 53.246094 38.484375 115.199219 35.15625 2.390625-.085937 4.78125-.253906 7.253906-.511719.222656.238282.421875.496094.597656.769532 8.71875 10.164062 15.90625 21.546875 21.332032 33.792968.683593 2.472657 1.28125 4.949219 1.792968 7.421876.511719 3.070312 1.023438 6.144531 1.28125 9.214843.414063 3.65625.613282 7.332031.597656 11.007813zm0 0" fill="#ffe0b2"/><path d="m110.941406 477.878906h-51.203125c-4.710937 0-8.53125-3.820312-8.53125-8.53125 0-4.714844 3.820313-8.535156 8.53125-8.535156h51.203125c4.710938 0 8.53125 3.820312 8.53125 8.535156 0 4.710938-3.820312 8.53125-8.53125 8.53125zm0 0" fill="#3d324c"/><path d="m503.472656 366.945312v119.46875c-.027344 9.414063-7.652344 17.039063-17.066406 17.066407h-187.734375c-9.414063-.027344-17.039063-7.652344-17.066406-17.066407v-119.46875c.027343-9.414062 7.652343-17.039062 17.066406-17.066406h29.269531c3.023438.039063 5.832032-1.5625 7.339844-4.179687l18.175781-30.210938c3.074219-5.125 8.613281-8.265625 14.59375-8.277343h48.980469c5.976562.011718 11.515625 3.152343 14.589844 8.277343l18.175781 30.210938c1.507813 2.617187 4.316406 4.21875 7.339844 4.179687h29.269531c9.414062.027344 17.039062 7.652344 17.066406 17.066406zm0 0" fill="#283593"/><path d="m479.835938 366.945312v119.46875c-.027344 9.414063-7.652344 17.039063-17.066407 17.066407h-164.097656c-9.414063-.027344-17.039063-7.652344-17.066406-17.066407v-119.46875c.027343-9.414062 7.652343-17.039062 17.066406-17.066406h29.269531c3.023438.039063 5.832032-1.5625 7.339844-4.179687l18.175781-30.210938c3.074219-5.125 8.613281-8.265625 14.59375-8.277343h25.34375c5.976563.011718 11.515625 3.152343 14.589844 8.277343l18.175781 30.210938c1.507813 2.617187 4.316406 4.21875 7.339844 4.179687h29.269531c9.414063.027344 17.039063 7.652344 17.066407 17.066406zm0 0" fill="#3f51b5"/><path d="m409.605469 349.878906h-34.132813c-4.710937 0-8.53125-3.820312-8.53125-8.53125 0-4.714844 3.820313-8.535156 8.53125-8.535156h34.132813c4.714843 0 8.535156 3.820312 8.535156 8.535156 0 4.710938-3.820313 8.53125-8.535156 8.53125zm0 0" fill="#2c3e50"/><path d="m460.804688 435.210938c0 37.703124-30.5625 68.269531-68.265626 68.269531-37.703124 0-68.265624-30.566407-68.265624-68.269531 0-37.699219 30.5625-68.265626 68.265624-68.265626 37.703126 0 68.265626 30.566407 68.265626 68.265626zm0 0" fill="#9e9e9e"/><path d="m443.738281 435.210938c0 28.277343-22.921875 51.203124-51.199219 51.203124-28.277343 0-51.199218-22.925781-51.199218-51.203124 0-28.273438 22.921875-51.199219 51.199218-51.199219 28.277344 0 51.199219 22.925781 51.199219 51.199219zm0 0" fill="#3f51b5"/><path d="m426.671875 435.210938c0 18.851562-15.28125 34.136718-34.132813 34.136718-18.851562 0-34.132812-15.285156-34.132812-34.136718 0-18.851563 15.28125-34.132813 34.132812-34.132813 18.851563 0 34.132813 15.28125 34.132813 34.132813zm0 0" fill="#2fa8cc"/><path d="m409.605469 430.945312c0 11.78125-9.550781 21.332032-21.332031 21.332032s-21.332032-9.550782-21.332032-21.332032 9.550782-21.332031 21.332032-21.332031 21.332031 9.550781 21.332031 21.332031zm0 0" fill="#02a9f4"/><path d="m307.207031 384.011719c-.015625 4.707031-3.828125 8.519531-8.535156 8.535156h-17.066406v-17.066406h17.066406c4.707031.011719 8.519531 3.824219 8.535156 8.53125zm0 0" fill="#2c3e50"/><path d="m503.472656 375.480469v17.066406h-17.066406c-4.710938 0-8.535156-3.820313-8.535156-8.535156 0-4.710938 3.824218-8.53125 8.535156-8.53125zm0 0" fill="#2c3e50"/><path d="m93.871094 145.078125h59.734375c4.714843 0 8.535156 3.820313 8.535156 8.535156v8.53125c0 18.851563-15.28125 34.132813-34.132813 34.132813h-8.535156c-18.851562 0-34.132812-15.28125-34.132812-34.132813v-8.53125c0-4.714843 3.820312-8.535156 8.53125-8.535156zm0 0" fill="#02a9f4"/><path d="m204.804688 145.078125h59.734374c4.714844 0 8.535157 3.820313 8.535157 8.535156v8.53125c0 18.851563-15.285157 34.132813-34.132813 34.132813h-8.535156c-18.851562 0-34.132812-15.28125-34.132812-34.132813v-8.53125c0-4.714843 3.820312-8.535156 8.53125-8.535156zm0 0" fill="#02a9f4"/><path d="m162.140625 159.414062v2.730469c0 9.054688-3.59375 17.738281-9.996094 24.140625-6.402343 6.402344-15.085937 9.996094-24.136719 9.992188h-8.535156c-5.160156.050781-10.253906-1.152344-14.847656-3.496094 10.878906-21.527344 33.429688-34.609375 57.515625-33.367188zm0 0" fill="#0377bc"/><path d="m273.074219 159.925781v2.21875c0 9.054688-3.59375 17.738281-9.996094 24.140625s-15.085937 9.996094-24.136719 9.992188h-8.535156c-7.550781.03125-14.890625-2.496094-20.820312-7.167969 9.640624-15.785156 28.328124-32.425781 63.488281-29.183594zm0 0" fill="#0377bc"/><path d="m51.890625 204.8125h-17.75c-14.132813-.015625-25.585937-11.46875-25.601563-25.601562.066407-14.109376 11.488282-25.53125 25.601563-25.597657h17.664063c4.710937 0 8.53125 3.820313 8.53125 8.53125 0 4.714844-3.820313 8.535157-8.53125 8.535157h-17.578126c-2.253906-.039063-4.421874.847656-6.003906 2.449218-1.671875 1.578125-2.621094 3.78125-2.617187 6.082032.003906 4.714843 3.824219 8.53125 8.535156 8.535156h17.75c4.710937 0 8.53125 3.820312 8.53125 8.53125 0 4.714844-3.820313 8.535156-8.53125 8.535156zm0 0"/><path d="m324.273438 204.8125h-17.75c-4.710938 0-8.53125-3.820312-8.53125-8.535156 0-4.710938 3.820312-8.53125 8.53125-8.53125h17.75c4.710937-.003906 8.53125-3.820313 8.53125-8.535156.023437-2.222657-.863282-4.359376-2.449219-5.914063-1.578125-1.675781-3.78125-2.621094-6.082031-2.617187h-17.664063c-4.714844 0-8.535156-3.820313-8.535156-8.535157 0-4.710937 3.820312-8.53125 8.535156-8.53125h17.578125c14.144531.019531 25.621094 11.453125 25.683594 25.597657-.011719 14.132812-11.464844 25.585937-25.597656 25.601562zm0 0"/><path d="m324.199219 170.679688c-.171875 0-.335938-.007813-.5-.015626-4.699219-.273437-8.292969-4.300781-8.023438-9 .074219-1.601562.0625-11.019531.0625-12.316406-1.277343-74.183594-62.347656-133.34375-136.53125-132.269531-74.1875-1.074219-135.253906 58.085937-136.535156 132.269531 0 1.304688-.007813 10.730469.066406 12.324219.140625 4.621094-3.425781 8.515625-8.042969 8.777344-4.621093.261719-8.605468-3.203125-8.988281-7.8125-.09375-1.507813-.101562-11.875-.101562-13.289063 1.292969-83.605468 69.992187-150.398437 153.601562-149.3359372 83.605469-1.0624998 152.308594 65.7304692 153.597657 149.3359372 0 1.414063-.007813 11.78125-.097657 13.289063-.261719 4.511719-3.992187 8.035156-8.507812 8.042969zm0 0"/><path d="m153.605469 366.945312c-4.710938 0-8.53125-3.820312-8.53125-8.53125v-70.566406c0-4.714844 3.820312-8.535156 8.53125-8.535156 4.714843 0 8.535156 3.820312 8.535156 8.535156v70.566406c0 4.710938-3.820313 8.53125-8.535156 8.53125zm0 0"/><path d="m204.804688 366.945312c-4.710938 0-8.53125-3.820312-8.53125-8.53125v-70.566406c0-4.714844 3.820312-8.535156 8.53125-8.535156 4.714843 0 8.535156 3.820312 8.535156 8.535156v70.566406c0 4.710938-3.820313 8.53125-8.535156 8.53125zm0 0"/><path d="m332.804688 512.011719h-307.199219c-14.132813-.015625-25.5820315-11.46875-25.5976565-25.597657v-51.203124c.0703125-61.234376 49.6953125-110.859376 110.9335935-110.933594h42.664063c4.714843 0 8.535156 3.824218 8.535156 8.535156s-3.820313 8.535156-8.535156 8.535156h-42.664063c-51.820312.058594-93.808594 42.046875-93.867187 93.863282v51.203124c0 4.710938 3.820312 8.527344 8.53125 8.53125h307.199219c4.714843 0 8.535156 3.820313 8.535156 8.535157 0 4.710937-3.820313 8.53125-8.535156 8.53125zm0 0"/><path d="m304.125 358.414062c-1.679688 0-3.316406-.496093-4.710938-1.425781-15.390624-10.222656-33.464843-15.664062-51.941406-15.640625h-42.667968c-4.710938 0-8.53125-3.824218-8.53125-8.535156s3.820312-8.535156 8.53125-8.535156h42.667968c21.835938-.023438 43.191406 6.410156 61.375 18.492187 3.136719 2.082031 4.535156 5.972657 3.449219 9.578125-1.089844 3.601563-4.410156 6.066406-8.171875 6.066406zm0 0"/><path d="m196.273438 401.078125h-34.132813c-28.265625-.03125-51.171875-22.933594-51.199219-51.199219v-17.066406c0-4.710938 3.820313-8.535156 8.53125-8.535156 4.714844 0 8.535156 3.824218 8.535156 8.535156v17.066406c.015626 18.84375 15.289063 34.117188 34.132813 34.132813h34.132813c18.84375-.015625 34.113281-15.289063 34.132812-34.132813v-17.066406c0-4.710938 3.820312-8.535156 8.535156-8.535156 4.710938 0 8.53125 3.824218 8.53125 8.535156v17.066406c-.03125 28.265625-22.9375 51.167969-51.199218 51.199219zm0 0"/><path d="m110.941406 477.878906h-51.203125c-4.710937 0-8.53125-3.820312-8.53125-8.53125 0-4.714844 3.820313-8.535156 8.53125-8.535156h51.203125c4.710938 0 8.53125 3.820312 8.53125 8.535156 0 4.710938-3.820312 8.53125-8.53125 8.53125zm0 0"/><path d="m128.007812 204.8125h-8.535156c-23.550781-.027344-42.636718-19.113281-42.667968-42.667969v-8.53125c.015624-9.421875 7.648437-17.054687 17.066406-17.066406h59.734375c9.421875.011719 17.054687 7.644531 17.066406 17.066406v8.53125c-.027344 23.554688-19.113281 42.640625-42.664063 42.667969zm-34.136718-51.199219v8.53125c.015625 14.132813 11.46875 25.585938 25.601562 25.601563h8.535156c14.128907-.015625 25.582032-11.46875 25.597657-25.601563v-8.53125zm0 0"/><path d="m238.941406 204.8125h-8.535156c-23.550781-.027344-42.640625-19.113281-42.667969-42.667969v-8.53125c.015625-9.421875 7.648438-17.054687 17.066407-17.066406h59.734374c9.421876.011719 17.054688 7.644531 17.066407 17.066406v8.53125c-.027344 23.554688-19.113281 42.640625-42.664063 42.667969zm-34.136718-51.199219v8.53125c.015624 14.132813 11.46875 25.585938 25.601562 25.601563h8.535156c14.128906-.015625 25.582032-11.46875 25.597656-25.601563v-8.53125zm0 0"/><path d="m196.273438 152.664062c-2.265626 0-4.433594-.898437-6.035157-2.5-2.800781-3.179687-6.832031-4.992187-11.066406-4.984374-4.238281.011718-8.261719 1.84375-11.046875 5.03125-3.359375 3.253906-8.707031 3.199218-11.996094-.121094-3.292968-3.316406-3.300781-8.664063-.023437-11.996094 6-6.359375 14.355469-9.964844 23.101562-9.964844 8.742188 0 17.101563 3.605469 23.097657 9.964844 2.441406 2.441406 3.171874 6.113281 1.851562 9.300781s-4.433594 5.269531-7.882812 5.269531zm0 0"/><path d="m51.207031 169.730469c-4.125 0-7.660156-2.945313-8.398437-7-.742188-4.058594 1.523437-8.0625 5.382812-9.519531l42.664063-16.113282c4.410156-1.667968 9.335937.554688 11 4.964844 1.667969 4.410156-.558594 9.332031-4.964844 11l-42.667969 16.117188c-.964844.363281-1.984375.550781-3.015625.550781zm0 0"/><path d="m307.207031 169.730469c-1.03125 0-2.054687-.1875-3.015625-.550781l-42.667968-16.117188c-4.410157-1.667969-6.632813-6.589844-4.964844-11 1.664062-4.410156 6.589844-6.632812 10.996094-4.964844l42.667968 16.113282c3.859375 1.457031 6.121094 5.460937 5.382813 9.519531-.742188 4.054687-4.277344 7-8.398438 7zm0 0"/><path d="m486.40625 512.011719h-187.734375c-14.132813-.015625-25.582031-11.46875-25.597656-25.597657v-119.46875c.015625-14.132812 11.464843-25.582031 25.597656-25.597656h29.300781l18.140625-30.242187c4.652344-7.691407 12.972657-12.398438 21.960938-12.425781h48.933593c8.980469.027343 17.300782 4.734374 21.953126 12.417968l18.144531 30.25h29.300781c14.132812.015625 25.585938 11.464844 25.601562 25.597656v119.46875c-.015624 14.128907-11.46875 25.582032-25.601562 25.597657zm-187.734375-153.597657c-4.710937 0-8.53125 3.820313-8.53125 8.53125v119.46875c0 4.710938 3.820313 8.527344 8.53125 8.53125h187.734375c4.710938-.003906 8.53125-3.820312 8.535156-8.53125v-119.46875c-.003906-4.710937-3.824218-8.53125-8.535156-8.53125h-29.300781c-5.988281-.019531-11.535157-3.160156-14.632813-8.285156l-18.140625-30.242187c-1.554687-2.5625-4.328125-4.132813-7.324219-4.140625h-48.933593c-3 .007812-5.777344 1.582031-7.328125 4.148437l-18.140625 30.234375c-3.097657 5.125-8.644531 8.265625-14.632813 8.285156zm0 0"/><path d="m409.605469 349.878906h-34.132813c-4.710937 0-8.53125-3.820312-8.53125-8.53125 0-4.714844 3.820313-8.535156 8.53125-8.535156h34.132813c4.714843 0 8.535156 3.820312 8.535156 8.535156 0 4.710938-3.820313 8.53125-8.535156 8.53125zm0 0"/><path d="m392.539062 512.011719c-42.414062 0-76.800781-34.382813-76.800781-76.800781 0-42.414063 34.386719-76.796876 76.800781-76.796876 42.414063 0 76.800782 34.382813 76.800782 76.796876-.046875 42.398437-34.402344 76.753906-76.800782 76.800781zm0-136.53125c-32.988281 0-59.734374 26.742187-59.734374 59.730469 0 32.992187 26.746093 59.734374 59.734374 59.734374 32.992188 0 59.734376-26.742187 59.734376-59.734374-.039063-32.972657-26.761719-59.691407-59.734376-59.730469zm0 0"/><path d="m392.539062 469.347656c-18.851562 0-34.132812-15.285156-34.132812-34.136718 0-18.851563 15.28125-34.132813 34.132812-34.132813 18.851563 0 34.132813 15.28125 34.132813 34.132813-.015625 18.84375-15.289063 34.117187-34.132813 34.136718zm0-51.203125c-9.425781 0-17.066406 7.640625-17.066406 17.066407 0 9.425781 7.640625 17.066406 17.066406 17.066406 9.425782 0 17.066407-7.640625 17.066407-17.066406-.011719-9.417969-7.644531-17.050782-17.066407-17.066407zm0 0"/><path d="m298.671875 392.546875h-17.066406c-4.710938 0-8.53125-3.820313-8.53125-8.535156 0-4.710938 3.820312-8.53125 8.53125-8.53125h17.066406c4.714844 0 8.535156 3.820312 8.535156 8.53125 0 4.714843-3.820312 8.535156-8.535156 8.535156zm0 0"/><path d="m503.472656 392.546875h-17.066406c-4.710938 0-8.535156-3.820313-8.535156-8.535156 0-4.710938 3.824218-8.53125 8.535156-8.53125h17.066406c4.714844 0 8.535156 3.820312 8.535156 8.53125 0 4.714843-3.820312 8.535156-8.535156 8.535156zm0 0"/><path d="m40.957031 368.992188c-1.898437.003906-3.742187-.628907-5.234375-1.796876-27.824218-21.667968-35.289062-62.859374-17.75-97.933593 15.507813-31.007813 7.875-70.914063 7.800782-71.316407-.835938-4.582031 2.15625-8.984374 6.722656-9.898437 4.566406-.910156 9.023437 2.007813 10.011718 6.558594.375 1.855469 8.898438 45.957031-9.269531 82.289062-13.914062 27.835938-8.464843 60.144531 12.972657 76.835938 2.875 2.238281 4.011718 6.058593 2.824218 9.507812-1.183594 3.445313-4.429687 5.761719-8.074218 5.757813zm0 0"/><path d="m328.027344 358.414062c-3.414063.007813-6.511719-2.015624-7.867188-5.148437-1.359375-3.132813-.722656-6.773437 1.617188-9.261719 13.371094-20.046875 14.675781-45.8125 3.390625-67.109375-18.164063-36.332031-9.640625-80.433593-9.265625-82.289062.988281-4.550781 5.445312-7.46875 10.011718-6.558594 4.566407.914063 7.558594 5.316406 6.722657 9.898437-.074219.402344-7.710938 40.308594 7.800781 71.316407 14.5625 27.355469 12.378906 60.601562-5.644531 85.816406-1.613281 2.101563-4.113281 3.332031-6.765625 3.335937zm0 0"/><path d="m179.207031 298.679688c-9.109375.011718-18.199219-.804688-27.160156-2.441407-52.226563-8.277343-94.335937-47.1875-106.707031-98.601562-.816406-3.722657-1.46875-7.5-1.925782-11.359375-.476562-4.355469-.726562-8.738282-.742187-13.125-.019531-4.019532.199219-8.035156.660156-12.03125.234375-2.867188.75-6.058594 1.277344-9.257813.71875-3.640625 1.492187-6.617187 2.277344-9.582031l4.464843-24.34375c.609376-3.300781 3.09375-5.9375 6.351563-6.742188 66.949219-16.507812 78.722656-52.363281 79.199219-53.882812 1.003906-3.257812 3.839844-5.617188 7.226562-6.007812 3.378906-.40625 6.675782 1.25 8.359375 4.207031 1.292969 2.210937 33.070313 54.808593 128.417969 46.933593 2.769531-.257812 5.488281.875 7.253906 3.027344 9.695313 11.234375 17.632813 23.875 23.542969 37.492188.804687 2.921875 1.441406 5.574218 1.988281 8.222656.652344 3.875 1.167969 7.066406 1.433594 10.265625.4375 3.886719.644531 7.792969.613281 11.699219-.011719 4.351562-.257812 8.695312-.730469 13.019531-.46875 4.015625-1.109374 7.964844-1.933593 11.808594-12.582031 51.222656-54.617188 89.933593-106.703125 98.257812-8.960938 1.636719-18.054688 2.453125-27.164063 2.441407zm-115.765625-152.273438c-.734375 2.773438-1.445312 5.460938-1.992187 8.207031-.449219 2.765625-.917969 5.492188-1.132813 8.226563-.402344 3.421875-.597656 6.867187-.578125 10.3125.015625 3.75.226563 7.492187.632813 11.21875.386718 3.199218.933594 6.417968 1.644531 9.65625 10.933594 44.683594 47.6875 78.390625 93.148437 85.425781 15.898438 2.867187 32.183594 2.867187 48.085938 0 45.320312-7.074219 82.007812-40.585937 93.148438-85.082031.699218-3.285156 1.257812-6.683594 1.648437-10.082032.40625-3.699218.613281-7.414062.625-11.136718.023437-3.335938-.15625-6.667969-.539063-9.984375-.25-3.066407-.71875-5.789063-1.167968-8.523438-.46875-2.273437-1.015625-4.574219-1.652344-6.867187-4.503906-10.101563-10.402344-19.523438-17.523438-27.988282-76.03125 5.050782-115.265624-26.265624-131.273437-44.097656-9.566406 14.679688-31.535156 37.664063-79.367187 50.679688l-3.542969 19.300781-.007813.074219-.007812.011718v.007813c-.042969.214844-.09375.429687-.148438.640625zm0 0"/></svg>