<svg height="512pt" viewBox="0 0 512 512.00001" width="512pt" xmlns="http://www.w3.org/2000/svg"><path d="m327.679688 397.054688-20.480469 106.410156h-281.597657c-9.414062-.027344-17.039062-7.652344-17.066406-17.066406v-25.597657c-.011718-46.699219 31.578125-87.492187 76.796875-99.15625 8.359375-2.171875 16.964844-3.261719 25.601563-3.246093h136.53125c8.636718-.015626 17.242187 1.074218 25.601562 3.246093 21.574219 5.542969 40.75 17.976563 54.613282 35.410157zm0 0" fill="#ffdc00"/><path d="m273.066406 361.644531v22.355469c.003906 18.105469-7.1875 35.472656-19.988281 48.277344-12.804687 12.804687-30.171875 19.992187-48.277344 19.988281h-51.199219c-18.109374.003906-35.476562-7.183594-48.277343-19.988281-12.804688-12.804688-19.996094-30.171875-19.992188-48.277344v-22.355469c8.359375-2.171875 16.964844-3.261719 25.601563-3.246093h136.53125c8.636718-.015626 17.242187 1.074218 25.601562 3.246093zm0 0" fill="#ff5722"/><path d="m119.464844 358.398438v25.601562c0 18.851562 15.285156 34.132812 34.136718 34.132812h51.199219c18.851563 0 34.132813-15.28125 34.132813-34.132812v-25.601562zm0 0" fill="#ffe0b2"/><path d="m153.601562 313.429688h51.199219v70.570312h-51.199219zm0 0" fill="#ffe0b2"/><path d="m324.179688 196.265625c.085937-1.769531.085937-13.96875.085937-15.636719-.011719-10.503906-.808594-20.996094-2.386719-31.382812h-285.355468c-1.578126 10.386718-2.378907 20.878906-2.390626 31.382812 0 1.667969 0 13.867188.085938 15.636719zm0 0" fill="#91562d"/><path d="m306.601562 187.734375h17.664063c9.398437.066406 17 7.667969 17.066406 17.066406-.027343 9.414063-7.652343 17.039063-17.066406 17.066407h-290.132813c-9.414062-.027344-17.039062-7.652344-17.066406-17.066407.066406-9.398437 7.667969-17 17.066406-17.066406zm0 0" fill="#dfc49c"/><path d="m503.464844 137.300781c.023437 5.222657-1.207032 10.371094-3.582032 15.019531l-139.347656 255.0625-18.773437-8.960937-12.035157-5.71875 110.082032-268.96875c6.402344-14.34375 21.960937-22.253906 37.320312-18.980469 15.359375 3.273438 26.339844 16.839844 26.335938 32.546875zm0 0" fill="#dfc49c"/><path d="m479.828125 137.300781c-.015625 5.226563-1.273437 10.375-3.667969 15.019531l-134.398437 246.101563-12.035157-5.71875 110.082032-268.96875c3.589844-8.039063 10.21875-14.328125 18.429687-17.496094.882813.269531 1.738281.609375 2.5625 1.027344 11.609375 5.496094 19.015625 17.1875 19.027344 30.035156zm0 0" fill="#ffe0b2"/><path d="m329.707031 392.667969 30.816407 14.671875-44.015626 92.457031-30.820312-14.671875zm0 0" fill="#9e9e9e"/><path d="m324.199219 512c-1.265625 0-2.515625-.28125-3.65625-.824219l-46.226563-22.007812c-4.257812-2.027344-6.066406-7.121094-4.039062-11.375 2.023437-4.257813 7.117187-6.066407 11.371094-4.042969l46.226562 22.007812c3.605469 1.714844 5.542969 5.699219 4.664062 9.59375-.882812 3.894532-4.347656 6.65625-8.339843 6.648438zm0 0" fill="#af8066"/><path d="m165.460938 111.1875c-4.730469.011719-8.582032-3.800781-8.617188-8.53125-.019531-2.253906.859375-4.425781 2.445312-6.027344 1.585938-1.601562 3.746094-2.503906 6-2.507812h.171876c4.714843 0 8.535156 3.820312 8.535156 8.535156 0 4.710938-3.820313 8.53125-8.535156 8.53125zm0 0"/><path d="m307.199219 198.742188c-.011719 4.046874-.238281 8.09375-.683594 12.117187-6.652344 58.964844-61.097656 104.875-127.316406 104.875-3.925781 0-7.851563-.171875-11.773438-.511719-60.757812-5.035156-109.3125-48.898437-115.542969-104.363281-1.210937-10.78125-.808593-21.679687 1.195313-32.34375.765625-3.753906 1.707031-7.507813 2.816406-11.175781.9375-2.21875 2.046875-4.609375 3.328125-7.253906h239.957032c1.277343 2.644531 2.386718 5.035156 3.328124 7.253906 1.109376 3.667968 2.046876 7.421875 2.816407 11.175781 1.230469 6.671875 1.859375 13.441406 1.875 20.226563zm0 0" fill="#dfc49c"/><path d="m283.5625 198.742188c-.011719 4.046874-.238281 8.09375-.683594 12.117187-6.226562 55.378906-54.699218 99.328125-115.453125 104.363281-60.757812-5.035156-109.3125-48.898437-115.542969-104.363281-1.210937-10.78125-.808593-21.679687 1.195313-32.34375.765625-3.753906 1.707031-7.507813 2.816406-11.175781.9375-2.21875 2.046875-4.609375 3.328125-7.253906h216.320313c1.277343 2.644531 2.386719 5.035156 3.328125 7.253906 1.109375 3.667968 2.046875 7.421875 2.8125 11.175781 1.234375 6.671875 1.863281 13.441406 1.878906 20.226563zm0 0" fill="#ffe0b2"/><path d="m165.460938 111.1875c-4.730469.011719-8.582032-3.800781-8.617188-8.53125-.019531-2.253906.859375-4.425781 2.445312-6.027344 1.585938-1.601562 3.746094-2.503906 6-2.507812h.171876c4.714843 0 8.535156 3.820312 8.535156 8.535156 0 4.710938-3.820313 8.53125-8.535156 8.53125zm0 0"/><path d="m324.265625 128v17.066406h-290.132813v-17.066406c.011719-65.976562 53.492188-119.453125 119.46875-119.464844h51.199219c65.972657.011719 119.453125 53.488282 119.464844 119.464844zm0 0" fill="#c81e1e"/><path d="m300.628906 128v17.066406h-266.496094v-17.066406c.011719-65.976562 53.492188-119.453125 119.46875-119.464844h27.5625c65.972657.011719 119.453126 53.488282 119.464844 119.464844zm0 0" fill="#f44335"/><path d="m34.132812 145.066406s42.667969-42.667968 145.066407-42.667968c102.402343 0 145.066406 42.667968 145.066406 42.667968s0 25.601563-145.066406 25.601563c-145.066407 0-145.066407-25.601563-145.066407-25.601563zm0 0" fill="#f44335"/><path d="m204.800781 76.800781c0 14.136719-11.460937 25.597657-25.601562 25.597657-14.136719 0-25.597657-11.460938-25.597657-25.597657 0-14.140625 11.460938-25.601562 25.597657-25.601562 14.140625 0 25.601562 11.460937 25.601562 25.601562zm0 0" fill="#ffdc00"/><path d="m179.199219 324.265625c-70.175781 0-128.558594-48.355469-135.800781-112.472656-.476563-4.339844-.71875-8.703125-.730469-13.066407.015625-7.28125.691406-14.542968 2.015625-21.703124.808594-4.105469 1.828125-8.167969 3.050781-12.171876 1.46875-4.382812 6.160156-6.800781 10.582031-5.449218 4.421875 1.347656 6.964844 5.972656 5.734375 10.429687-1.023437 3.367188-1.902343 6.886719-2.609375 10.417969-1.121094 6.09375-1.691406 12.277344-1.707031 18.476562.011719 3.742188.222656 7.480469.632813 11.199219 6.257812 55.433594 57.347656 97.273438 118.832031 97.273438s112.574219-41.839844 118.835937-97.324219c.410156-3.703125.621094-7.425781.632813-11.148438-.019531-6.25-.601563-12.488281-1.734375-18.636718-.683594-3.371094-1.558594-6.890625-2.582032-10.257813-.988281-2.941406-.300781-6.1875 1.796876-8.476562 2.097656-2.289063 5.273437-3.257813 8.289062-2.53125 3.019531.726562 5.402344 3.035156 6.230469 6.027343 1.164062 3.789063 2.183593 7.839844 3.023437 12.015626 2.175782 11.496093 2.613282 23.25 1.308594 34.875-7.242188 64.167968-65.625 112.523437-135.800781 112.523437zm0 0"/><path d="m51.882812 230.398438h-17.75c-14.132812-.015626-25.582031-11.464844-25.597656-25.597657.0625-14.113281 11.488282-25.535156 25.597656-25.601562h17.664063c4.714844 0 8.535156 3.820312 8.535156 8.535156 0 4.710937-3.820312 8.53125-8.535156 8.53125h-17.578125c-2.25-.035156-4.417969.847656-6 2.449219-1.675781 1.582031-2.625 3.78125-2.617188 6.085937 0 4.710938 3.820313 8.53125 8.53125 8.53125h17.75c4.710938 0 8.53125 3.820313 8.53125 8.535157 0 4.710937-3.820312 8.53125-8.53125 8.53125zm0 0"/><path d="m324.265625 230.398438h-17.75c-4.710937 0-8.53125-3.820313-8.53125-8.53125 0-4.714844 3.820313-8.535157 8.53125-8.535157h17.75c4.710937 0 8.53125-3.820312 8.535156-8.53125.019531-2.222656-.863281-4.359375-2.449219-5.917969-1.582031-1.675781-3.78125-2.621093-6.085937-2.617187h-17.664063c-4.710937 0-8.53125-3.820313-8.53125-8.53125 0-4.714844 3.820313-8.535156 8.53125-8.535156h17.578126c14.144531.019531 25.621093 11.457031 25.6875 25.601562-.015626 14.132813-11.46875 25.582031-25.601563 25.597657zm0 0"/><path d="m34.207031 196.234375c-4.511719.011719-8.246093-3.503906-8.507812-8.007813-.089844-1.507812-.097657-11.875-.097657-13.292968.015626-9.136719.863282-18.25 2.53125-27.234375.554688-2.996094 2.664063-5.472657 5.539063-6.492188s6.070313-.429687 8.390625 1.550781c2.320312 1.980469 3.40625 5.042969 2.855469 8.042969-1.492188 7.957031-2.246094 16.035157-2.25 24.132813 0 1.308594-.011719 10.734375.066406 12.324218.234375 4.699219-3.371094 8.703126-8.066406 8.96875-.152344.007813-.308594.007813-.460938.007813zm0 0"/><path d="m320.171875 150.058594c-2.261719.011718-4.429687-.878906-6.03125-2.472656s-2.503906-3.761719-2.503906-6.019532v-.085937c.023437-4.707031 3.855469-8.507813 8.5625-8.492188s8.511719 3.839844 8.503906 8.546875c-.007813 4.707032-3.824219 8.519532-8.53125 8.519532zm0 0"/><path d="m324.191406 196.265625c-.171875 0-.332031-.007813-.5-.015625-2.257812-.128906-4.371094-1.148438-5.875-2.839844-1.503906-1.6875-2.277344-3.902344-2.144531-6.160156.070313-1.601562.0625-11.015625.0625-12.316406-.003906-8.097656-.757813-16.175782-2.25-24.132813-.855469-4.636719 2.207031-9.085937 6.839844-9.941406 4.636719-.855469 9.085937 2.207031 9.941406 6.839844 1.671875 8.984375 2.519531 18.097656 2.535156 27.234375 0 1.417968-.007812 11.785156-.101562 13.292968-.257813 4.507813-3.988281 8.035157-8.507813 8.039063zm0 0"/><path d="m38.234375 150.058594c-2.261719.011718-4.429687-.878906-6.03125-2.472656s-2.503906-3.761719-2.503906-6.019532v-.085937c.023437-4.707031 3.855469-8.507813 8.5625-8.492188s8.511719 3.839844 8.503906 8.546875c-.007813 4.707032-3.824219 8.519532-8.53125 8.519532zm0 0"/><path d="m55.894531 175.917969c-2.261719.007812-4.429687-.878907-6.03125-2.472657-1.601562-1.59375-2.503906-3.761718-2.503906-6.019531v-.085937c0-1.144532.230469-2.273438.675781-3.328125.992188-2.351563 2.15625-4.859375 3.507813-7.648438 2.054687-4.246093 7.15625-6.019531 11.398437-3.96875 4.246094 2.054688 6.019532 7.15625 3.96875 11.398438-1.175781 2.417969-2.191406 4.59375-3.058594 6.628906-1.261718 3.300781-4.421874 5.484375-7.957031 5.496094zm0 0"/><path d="m165.460938 111.1875c-4.730469.011719-8.582032-3.800781-8.617188-8.53125-.019531-2.253906.859375-4.425781 2.445312-6.027344 1.585938-1.601562 3.746094-2.503906 6-2.507812h.171876c4.714843 0 8.535156 3.820312 8.535156 8.535156 0 4.710938-3.820313 8.53125-8.535156 8.53125zm0 0"/><path d="m302.507812 175.917969c-3.6875.011719-6.964843-2.351563-8.117187-5.851563-.832031-1.933594-1.800781-3.992187-2.902344-6.265625-2.050781-4.246093-.277343-9.347656 3.96875-11.402343 4.242188-2.050782 9.34375-.273438 11.398438 3.96875 1.351562 2.792968 2.515625 5.300781 3.507812 7.648437 1.113281 2.640625.835938 5.664063-.742187 8.054687-1.578125 2.390626-4.25 3.835938-7.117188 3.847657zm0 0"/><path d="m153.601562 392.535156c-4.714843 0-8.535156-3.824218-8.535156-8.535156v-70.566406c0-4.710938 3.820313-8.535156 8.535156-8.535156 4.710938 0 8.53125 3.824218 8.53125 8.535156v70.566406c0 4.710938-3.820312 8.535156-8.53125 8.535156zm0 0"/><path d="m204.800781 392.535156c-4.714843 0-8.535156-3.824218-8.535156-8.535156v-70.566406c0-4.710938 3.820313-8.535156 8.535156-8.535156 4.710938 0 8.53125 3.824218 8.53125 8.535156v70.566406c0 4.710938-3.820312 8.535156-8.53125 8.535156zm0 0"/><path d="m324.179688 512h-298.578126c-14.132812-.015625-25.585937-11.46875-25.601562-25.601562v-25.597657c.0703125-61.238281 49.695312-110.863281 110.933594-110.933593h42.667968c4.710938 0 8.53125 3.820312 8.53125 8.53125 0 4.714843-3.820312 8.535156-8.53125 8.535156h-42.667968c-51.816406.058594-93.808594 42.050781-93.867188 93.867187v25.597657c.003906 4.714843 3.820313 8.53125 8.535156 8.535156h298.578126c4.714843 0 8.535156 3.820312 8.535156 8.53125 0 4.714844-3.820313 8.535156-8.535156 8.535156zm0 0"/><path d="m327.691406 405.589844c-2.601562.003906-5.0625-1.179688-6.683594-3.21875-17.796874-22.445313-44.894531-35.503906-73.542968-35.4375h-42.664063c-4.714843 0-8.535156-3.820313-8.535156-8.535156 0-4.710938 3.820313-8.53125 8.535156-8.53125h42.664063c33.847656-.082032 65.867187 15.347656 86.894531 41.875 2.039063 2.5625 2.433594 6.066406 1.011719 9.015624-1.417969 2.953126-4.402344 4.832032-7.679688 4.835938zm0 0"/><path d="m346.878906 444.625c-2.257812.011719-4.425781-.875-6.027344-2.46875-1.601562-1.589844-2.503906-3.757812-2.503906-6.015625v-.085937c.023438-4.707032 3.851563-8.507813 8.558594-8.492188s8.515625 3.839844 8.507812 8.546875c-.007812 4.707031-3.828124 8.519531-8.535156 8.519531zm0 0"/><path d="m204.800781 426.667969h-51.199219c-23.554687-.027344-42.640624-19.117188-42.667968-42.667969v-25.601562c0-4.710938 3.820312-8.53125 8.53125-8.53125 4.714844 0 8.535156 3.820312 8.535156 8.53125v25.601562c.015625 14.132812 11.46875 25.585938 25.601562 25.601562h51.199219c14.132813-.015624 25.582031-11.46875 25.597657-25.601562v-25.601562c0-4.710938 3.820312-8.53125 8.535156-8.53125 4.710937 0 8.53125 3.820312 8.53125 8.53125v25.601562c-.027344 23.550781-19.113282 42.640625-42.664063 42.667969zm0 0"/><path d="m204.800781 460.800781h-51.199219c-42.398437-.046875-76.753906-34.40625-76.800781-76.800781v-22.355469c0-4.714843 3.820313-8.535156 8.53125-8.535156 4.714844 0 8.535157 3.820313 8.535157 8.535156v22.355469c.039062 32.972656 26.757812 59.695312 59.734374 59.734375h51.199219c32.972657-.039063 59.691407-26.761719 59.734375-59.734375v-22.355469c0-4.714843 3.820313-8.535156 8.53125-8.535156 4.714844 0 8.535156 3.820313 8.535156 8.535156v22.355469c-.046874 42.394531-34.40625 76.753906-76.800781 76.800781zm0 0"/><path d="m165.460938 111.1875c-4.730469.011719-8.582032-3.800781-8.617188-8.53125-.019531-2.253906.859375-4.425781 2.445312-6.027344 1.585938-1.601562 3.746094-2.503906 6-2.507812h.171876c4.714843 0 8.535156 3.820312 8.535156 8.535156 0 4.710938-3.820313 8.53125-8.535156 8.53125zm0 0"/><path d="m324.265625 153.601562c-4.710937 0-8.53125-3.820312-8.53125-8.535156v-17.066406c-.070313-61.238281-49.695313-110.863281-110.933594-110.933594h-51.199219c-61.238281.070313-110.863281 49.695313-110.933593 110.933594v17.066406c0 4.714844-3.820313 8.535156-8.535157 8.535156-4.710937 0-8.53125-3.820312-8.53125-8.535156v-17.066406c.074219-70.660156 57.339844-127.921875 128-128h51.199219c70.660157.078125 127.921875 57.339844 128 128v17.066406c0 4.714844-3.820312 8.535156-8.535156 8.535156zm0 0"/><path d="m179.199219 179.199219c-133.640625 0-153.597657-21.382813-153.597657-34.132813 0-2.261718.898438-4.433594 2.5-6.03125 1.839844-1.84375 46.367188-45.167968 151.097657-45.167968 104.734375 0 149.257812 43.324218 151.101562 45.167968 1.601563 1.597656 2.5 3.769532 2.5 6.03125 0 12.75-19.960937 34.132813-153.601562 34.132813zm-132.734375-33.222657c9.761718 5.515626 40.535156 16.15625 132.734375 16.15625 93.492187 0 125.066406-11.050781 133.726562-15.367187-13.976562-10.390625-56.132812-35.832031-133.726562-35.832031-76.257813 0-117.917969 24.207031-132.734375 35.042968zm0 0"/><path d="m179.199219 110.933594c-18.851563 0-34.132813-15.28125-34.132813-34.132813 0-18.851562 15.28125-34.132812 34.132813-34.132812 18.851562 0 34.132812 15.28125 34.132812 34.132812-.015625 18.84375-15.289062 34.113281-34.132812 34.132813zm0-51.199219c-9.425781 0-17.066407 7.640625-17.066407 17.066406s7.640626 17.066407 17.066407 17.066407 17.066406-7.640626 17.066406-17.066407c-.011719-9.421875-7.644531-17.054687-17.066406-17.066406zm0 0"/><path d="m179.199219 59.734375c-4.710938 0-8.53125-3.820313-8.53125-8.535156v-17.066407c0-4.710937 3.820312-8.53125 8.53125-8.53125 4.714843 0 8.535156 3.820313 8.535156 8.53125v17.066407c0 4.714843-3.820313 8.535156-8.535156 8.535156zm0 0"/><path d="m360.515625 415.875c-1.265625 0-2.515625-.28125-3.65625-.824219l-30.816406-14.679687c-4.09375-1.941406-5.953125-6.746094-4.234375-10.941406l110.117187-268.914063c6.089844-13.949219 19.285157-23.480469 34.445313-24.882813 15.15625-1.398437 29.875 5.554688 38.421875 18.148438 8.542969 12.597656 9.5625 28.84375 2.65625 42.410156l-139.433594 255.242188c-1.5 2.738281-4.375 4.445312-7.5 4.441406zm-19.847656-27.4375 16.242187 7.734375 135.441406-247.949219c3.984376-8.019531 3.316407-17.574218-1.746093-24.960937-5.066407-7.390625-13.730469-11.460938-22.652344-10.640625-8.921875.820312-16.699219 6.40625-20.328125 14.59375zm0 0"/><path d="m316.507812 508.332031c-1.269531 0-2.523437-.28125-3.667968-.828125l-30.816406-14.675781c-4.257813-2.027344-6.066407-7.117187-4.042969-11.375l44.015625-92.457031c2.03125-4.253906 7.117187-6.0625 11.375-4.042969l30.816406 14.675781c4.257812 2.027344 6.066406 7.121094 4.042969 11.375l-44.015625 92.460938c-1.417969 2.972656-4.414063 4.863281-7.707032 4.867187zm-19.441406-27.242187 15.410156 7.332031 36.671876-77.046875-15.410157-7.332031zm0 0"/><path d="m324.199219 512c-1.265625 0-2.515625-.28125-3.65625-.824219l-46.226563-22.007812c-4.257812-2.027344-6.066406-7.121094-4.039062-11.375 2.023437-4.257813 7.117187-6.066407 11.371094-4.042969l46.226562 22.007812c3.605469 1.714844 5.542969 5.699219 4.664062 9.59375-.882812 3.894532-4.347656 6.65625-8.339843 6.648438zm0 0"/></svg>