<svg height="512pt" viewBox="0 0 512.04299 512" width="512pt" xmlns="http://www.w3.org/2000/svg"><path d="m299.863281 347.171875c-15.847656-9.429687-33.957031-14.382813-52.398437-14.335937h-136.53125c-27.160156-.007813-53.210938 10.777343-72.417969 29.980468-19.203125 19.207032-29.988281 45.257813-29.980469 72.417969v51.199219c.027344 9.414062 7.652344 17.039062 17.066406 17.066406h307.199219c6.335938-.015625 12.144531-3.527344 15.101563-9.128906l10.496094-101.804688zm0 0" fill="#60a917"/><path d="m495.957031 370.296875c-5.132812 11-10.914062 21.6875-17.324219 32-6.210937 11.105469-10.234374 23.300781-11.859374 35.925781-1.199219 13.613282-3.484376 27.109375-6.828126 40.359375-2.558593 9.730469-6.824218 24.917969-19.027343 24.917969-3.753907 0-7.167969-3.667969-10.070313-9.640625-7.160156-18.023437-11.8125-36.945313-13.824218-56.234375-2.132813-14.847656-8.363282-19.03125-13.992188-20.226562-.648438-.152344-1.304688-.269532-1.964844-.339844h-.085937c-4.953125.382812-9.382813 3.238281-11.773438 7.59375-2.199219 4.015625-3.589843 8.421875-4.097656 12.972656-4.011719 28.839844-11.945313 65.875-23.894531 65.875-6.019532-.273438-11.328125-4.046875-13.566406-9.640625-2.417969-4.859375-4.25-9.988281-5.460938-15.277344-3.34375-13.25-5.628906-26.746093-6.828125-40.359375-1.664063-12.617187-5.6875-24.804687-11.859375-35.925781-6.402344-10.332031-12.214844-21.015625-17.410156-32-10.070313-25.941406-12.371094-60.671875 9.046875-81.410156 8.28125-7.855469 18.757812-13.003907 30.035156-14.761719 15.058594-2.664062 30.574219-.167969 44.035156 7.082031 4.324219 2.183594 8.316407 4.972657 11.859375 8.277344 9.023438-8.058594 20.148438-13.386719 32.085938-15.359375 8.019531-1.378906 16.222656-1.351562 24.234375.085938 11.109375 1.84375 21.417969 6.953124 29.609375 14.675781 21.503906 20.738281 19.117187 55.46875 8.960937 81.410156zm0 0" fill="#cfd8dc"/><path d="m472.320312 370.296875c-5.132812 11-10.917968 21.6875-17.324218 32-6.210938 11.105469-10.234375 23.300781-11.859375 35.925781-1.199219 13.613282-3.484375 27.109375-6.828125 40.359375-1.210938 5.289063-3.042969 10.417969-5.460938 15.277344-7.160156-18.023437-11.8125-36.945313-13.824218-56.234375-2.132813-14.847656-8.363282-19.03125-13.992188-20.226562-.648438-.152344-1.304688-.269532-1.964844-.339844h-.085937c-4.953125.382812-9.382813 3.238281-11.773438 7.59375-2.042969-3.746094-5.632812-6.402344-9.816406-7.253906-.644531-.152344-1.300781-.269532-1.960937-.339844h-.085938c-5.972656.683594-13.566406 4.011718-15.871094 20.566406-2.011718 19.289062-6.664062 38.210938-13.824218 56.234375-2.417969-4.859375-4.25-9.988281-5.460938-15.277344-3.34375-13.25-5.628906-26.746093-6.828125-40.359375-1.664063-12.617187-5.6875-24.804687-11.859375-35.925781-6.402344-10.332031-12.214844-21.015625-17.410156-32-10.070313-25.941406-12.371094-60.671875 9.046875-81.410156 8.28125-7.855469 18.757812-13.003907 30.035156-14.761719 12.011719 1.898438 23.214844 7.230469 32.257813 15.359375 3.539062-3.269531 7.5-6.054687 11.777343-8.277344 4.324219 2.183594 8.316407 4.972657 11.859375 8.277344 9.023438-8.058594 20.148438-13.386719 32.085938-15.359375.171875 0 .425781.085938.597656.085938 11.109375 1.84375 21.417969 6.953124 29.609375 14.675781 21.503906 20.738281 19.117187 55.46875 8.960937 81.410156zm0 0" fill="#f5f5f5"/><path d="m324.265625 149.367188c0 1.367187 0 19.882812-.085937 21.332031h-289.960938c-.085938-1.449219-.085938-19.964844-.085938-21.332031.984376-74.359376 58.996094-135.457032 133.207032-140.289063 3.925781-.339844 7.847656-.511719 11.859375-.511719 78.933593-1.15625 143.867187 61.871094 145.066406 140.800782zm0 0" fill="#6d4122"/><path d="m300.628906 149.367188c0 1.367187 0 19.882812-.085937 21.332031h-266.324219c-.085938-1.449219-.085938-19.964844-.085938-21.332031.984376-74.359376 58.996094-135.457032 133.207032-140.289063 74.242187 4.792969 132.296875 65.898437 133.289062 140.289063zm0 0" fill="#91562d"/><path d="m136.535156 332.835938h85.332032l-42.667969 170.664062-42.664063-162.132812zm0 0" fill="#f5f5f5"/><path d="m204.800781 287.863281v44.972657c-4.996093 9.742187-14.683593 16.203124-25.601562 17.066406-10.914063-.863282-20.605469-7.324219-25.597657-17.066406v-44.972657zm0 0" fill="#ffe0b2"/><path d="m306.601562 162.167969h17.664063c9.398437.066406 17 7.667969 17.066406 17.066406-.027343 9.414063-7.652343 17.039063-17.066406 17.066406h-290.132813c-9.414062-.027343-17.039062-7.652343-17.066406-17.066406.066406-9.398437 7.667969-17 17.066406-17.066406zm0 0" fill="#dfc49c"/><path d="m307.199219 173.175781c-.011719 4.046875-.238281 8.09375-.683594 12.117188-6.652344 58.964843-61.097656 104.875-127.316406 104.875-3.925781 0-7.851563-.171875-11.773438-.511719-60.757812-5.035156-109.3125-48.898438-115.542969-104.363281-.441406-4.023438-.671874-8.070313-.683593-12.117188.015625-6.785156.644531-13.554687 1.878906-20.222656.765625-3.757813 1.707031-7.511719 2.816406-11.179687 9.128907-20.90625 31.65625-63.0625 67.582031-70.996094 15.027344-2.960938 30.617188-.351563 43.863282 7.335937h.085937c4.066407 2.175781 8 4.597657 11.773438 7.253907 9.5625-7.046876 20.492187-12.015626 32.085937-14.589844 49.835938-10.242188 80.300782 45.820312 91.222656 70.996094 1.109376 3.667968 2.046876 7.421874 2.816407 11.179687 1.230469 6.667969 1.859375 13.4375 1.875 20.222656zm0 0" fill="#dfc49c"/><path d="m283.5625 173.175781c-.011719 4.046875-.238281 8.09375-.683594 12.117188-6.226562 55.382812-54.699218 99.328125-115.453125 104.363281-60.757812-5.035156-109.3125-48.898438-115.542969-104.363281-.441406-4.023438-.671874-8.070313-.683593-12.117188.015625-6.785156.644531-13.554687 1.878906-20.222656.765625-3.757813 1.707031-7.511719 2.816406-11.179687 9.128907-20.90625 31.65625-63.0625 67.582031-70.996094 11.597657 2.574218 22.523438 7.542968 32.085938 14.589844 3.773438-2.65625 7.707031-5.078126 11.777344-7.253907h.085937c4.066407 2.175781 8 4.597657 11.773438 7.253907 9.5625-7.046876 20.492187-12.015626 32.085937-14.589844 36.011719 7.933594 58.453125 50.089844 67.585938 70.996094 1.109375 3.667968 2.046875 7.421874 2.8125 11.179687 1.234375 6.667969 1.863281 13.4375 1.878906 20.222656zm0 0" fill="#ffe0b2"/><path d="m141.964844 332.835938s-55.855469 0-65.164063 56.886718c0 0 37.234375 0 46.542969 11.378906-18.476562 8.984376-32.085938 25.617188-37.234375 45.511719 0 0 65.164063 22.753907 93.089844 56.886719 0 0-9.308594-125.15625-37.234375-170.664062zm0 0" fill="#009688"/><path d="m216.4375 332.835938s55.851562 0 65.164062 56.886718c0 0-37.238281 0-46.546874 11.378906 18.476562 8.984376 32.085937 25.617188 37.234374 45.511719 0 0-65.160156 22.753907-93.089843 56.886719 0 0 9.308593-125.15625 37.238281-170.664062zm0 0" fill="#009688"/><path d="m179.199219 298.699219c-70.183594 0-128.5625-48.355469-135.796875-112.472657-1.304688-11.589843-.871094-23.308593 1.28125-34.769531.878906-4.355469 1.894531-8.414062 3.046875-12.171875.890625-2.917968 3.269531-5.136718 6.238281-5.824218s6.082031.261718 8.164062 2.492187c2.078126 2.226563 2.8125 5.398437 1.921876 8.3125-1.027344 3.367187-1.898438 6.886719-2.609376 10.417969-1.832031 9.78125-2.195312 19.78125-1.078124 29.671875 6.253906 55.4375 57.34375 97.277343 118.832031 97.277343s112.582031-41.839843 118.839843-97.324218c1.117188-9.925782.746094-19.964844-1.109374-29.78125-.683594-3.375-1.550782-6.890625-2.578126-10.257813-1.378906-4.507812 1.160157-9.277343 5.667969-10.652343 4.507813-1.378907 9.277344 1.160156 10.65625 5.667968 1.148438 3.769532 2.164063 7.816406 3.015625 12.019532 1.339844 7.207031 2.023438 14.523437 2.042969 21.855468-.007813 4.351563-.253906 8.699219-.734375 13.023438-7.238281 64.160156-65.617188 112.515625-135.800781 112.515625zm0 0"/><path d="m51.882812 204.835938h-17.75c-14.132812-.015626-25.582031-11.46875-25.597656-25.601563.0625-14.113281 11.488282-25.535156 25.597656-25.601563h17.664063c4.714844 0 8.535156 3.820313 8.535156 8.535157 0 4.710937-3.820312 8.53125-8.535156 8.53125h-17.578125c-2.25-.035157-4.421875.851562-6.003906 2.453125-1.671875 1.578125-2.617188 3.78125-2.613282 6.082031.003907 4.710937 3.820313 8.527344 8.53125 8.53125h17.75c4.710938 0 8.53125 3.824219 8.53125 8.535156 0 4.710938-3.820312 8.535157-8.53125 8.535157zm0 0"/><path d="m324.265625 204.835938h-17.75c-4.710937 0-8.53125-3.824219-8.53125-8.535157 0-4.710937 3.820313-8.535156 8.53125-8.535156h17.75c4.710937-.003906 8.53125-3.820313 8.535156-8.53125.019531-2.226563-.867187-4.367187-2.460937-5.925781-1.578125-1.667969-3.773438-2.613282-6.074219-2.609375h-17.664063c-4.710937 0-8.53125-3.820313-8.53125-8.53125 0-4.714844 3.820313-8.535157 8.53125-8.535157h17.578126c14.144531.023438 25.617187 11.457032 25.6875 25.601563-.015626 14.132813-11.46875 25.585937-25.601563 25.601563zm0 0"/><path d="m324.191406 170.699219c-.171875 0-.328125-.007813-.5-.015625-4.699218-.269532-8.292968-4.296875-8.027344-9 .078126-1.597656.070313-11.015625.070313-12.316406-1.28125-74.183594-62.347656-133.339844-136.535156-132.265626-74.183594-1.074218-135.253907 58.082032-136.53125 132.265626 0 1.308593-.011719 10.734374.070312 12.324218.171875 3.046875-1.292969 5.949219-3.84375 7.621094s-5.796875 1.855469-8.519531.484375-4.507812-4.09375-4.679688-7.136719c-.082031-1.507812-.09375-11.875-.09375-13.292968 1.289063-83.605469 69.988282-150.398438 153.597657-149.3320318 83.609375-1.0664062 152.3125 65.7265628 153.601562 149.3320318 0 1.417968-.011719 11.785156-.097656 13.292968-.261719 4.507813-3.992187 8.035156-8.511719 8.039063zm0 0"/><path d="m55.894531 150.351562c-2.261719.007813-4.429687-.882812-6.03125-2.476562-1.601562-1.589844-2.503906-3.757812-2.503906-6.015625 0-1.199219.242187-2.382813.707031-3.484375 10.242188-23.542969 32.933594-64.582031 69.867188-75 21.148437-5.980469 43.40625-.925781 66.160156 15 3.785156 2.730469 4.679688 7.992188 2.003906 11.816406-2.675781 3.824219-7.925781 4.789063-11.789062 2.167969-18.34375-12.851563-35.761719-17.074219-51.738282-12.558594-31.132812 8.785157-51.382812 48.273438-58.742187 65.132813-1.285156 3.261718-4.429687 5.410156-7.933594 5.417968zm0 0"/><path d="m302.507812 150.351562c-3.660156.007813-6.917968-2.320312-8.097656-5.785156-7.496094-17.066406-27.675781-56.050781-58.578125-64.765625-15.96875-4.519531-33.378906-.292969-51.742187 12.554688-2.496094 1.800781-5.769532 2.113281-8.5625.828125-2.792969-1.289063-4.675782-3.984375-4.929688-7.050782-.253906-3.066406 1.164063-6.03125 3.710938-7.757812 22.757812-15.925781 45.023437-20.976562 66.15625-15 36.933594 10.417969 59.628906 51.457031 69.867187 75 1.144531 2.640625.886719 5.683594-.6875 8.09375s-4.257812 3.871094-7.136719 3.878906zm0 0"/><path d="m153.601562 366.96875c-4.714843 0-8.535156-3.820312-8.535156-8.535156v-70.566406c0-4.710938 3.820313-8.53125 8.535156-8.53125 4.710938 0 8.53125 3.820312 8.53125 8.53125v70.566406c0 4.714844-3.820312 8.535156-8.53125 8.535156zm0 0"/><path d="m204.800781 366.96875c-4.714843 0-8.535156-3.820312-8.535156-8.535156v-70.566406c0-4.710938 3.820313-8.53125 8.535156-8.53125 4.710938 0 8.53125 3.820312 8.53125 8.53125v70.566406c0 4.714844-3.820312 8.535156-8.53125 8.535156zm0 0"/><path d="m332.800781 512.035156h-307.199219c-14.132812-.015625-25.585937-11.46875-25.601562-25.601562v-51.199219c.0703125-61.238281 49.695312-110.863281 110.933594-110.933594h42.667968c4.710938 0 8.53125 3.820313 8.53125 8.535157 0 4.710937-3.820312 8.53125-8.53125 8.53125h-42.667968c-51.816406.058593-93.808594 42.050781-93.867188 93.867187v51.199219c.003906 4.710937 3.824219 8.53125 8.535156 8.535156h307.199219c3.179688-.011719 6.09375-1.78125 7.566407-4.601562 1.414062-2.71875 4.179687-4.464844 7.242187-4.582032 3.058594-.117187 5.949219 1.414063 7.566406 4.015625 1.621094 2.601563 1.722657 5.871094.265625 8.566407-4.425781 8.40625-13.140625 13.667968-22.640625 13.667968zm0 0"/><path d="m299.855469 355.703125c-1.535157.003906-3.039063-.414063-4.351563-1.199219-14.542968-8.613281-31.136718-13.152344-48.039062-13.136718h-42.664063c-4.714843 0-8.535156-3.820313-8.535156-8.53125 0-4.714844 3.820313-8.535157 8.535156-8.535157h42.664063c19.972656-.019531 39.578125 5.347657 56.757812 15.53125 3.300782 1.964844 4.882813 5.894531 3.863282 9.597657-1.019532 3.703124-4.390626 6.269531-8.230469 6.269531zm0 0"/><path d="m179.199219 358.433594c-22.566407 0-32.625-28.214844-33.695313-31.433594-1.445312-4.453125.964844-9.242188 5.40625-10.726562 4.441406-1.488282 9.25.882812 10.777344 5.308593 1.742188 5.136719 8.691406 19.785157 17.511719 19.785157 9.0625 0 16.113281-15.589844 17.503906-19.765626 1.492187-4.472656 6.324219-6.886718 10.796875-5.394531 4.472656 1.488281 6.886719 6.324219 5.394531 10.792969-1.070312 3.21875-11.128906 31.433594-33.695312 31.433594zm0 0"/><path d="m179.203125 512.035156c-2.558594 0-4.984375-1.152344-6.605469-3.132812-26.105468-31.902344-88.671875-54.019532-89.300781-54.234375-4.234375-1.476563-6.601563-5.976563-5.421875-10.304688 4.5-16.964843 14.460938-31.976562 28.34375-42.714843-9.644531-2.265626-19.515625-3.402344-29.417969-3.390626-2.503906 0-4.878906-1.101562-6.5-3.007812-1.617187-1.90625-2.320312-4.429688-1.917969-6.898438 5.222657-36.65625 36.550782-63.929687 73.578126-64.050781 2.96875 0 5.71875 1.539063 7.273437 4.066407 28.683594 46.742187 38.089844 169.308593 38.472656 174.5.175781 2.367187-.640625 4.699218-2.253906 6.4375-1.613281 1.738281-3.875 2.726562-6.25 2.730468zm-82.40625-70.519531c25.640625 9.816406 49.78125 23.183594 71.703125 39.714844-3.925781-36.144531-13.449219-105.742188-31.300781-139.511719-23.160157 1.917969-42.847657 17.683594-49.773438 39.867188 13.339844.933593 34.261719 4.019531 42.523438 14.117187 1.714843 2.097656 2.332031 4.882813 1.667969 7.503906-.667969 2.625-2.542969 4.777344-5.050782 5.796875-13.65625 6.710938-24.285156 18.320313-29.769531 32.511719zm0 0"/><path d="m179.199219 512.035156c-2.371094-.003906-4.636719-.992187-6.25-2.730468-1.613281-1.738282-2.429688-4.070313-2.253907-6.4375.382813-5.191407 9.792969-127.757813 38.476563-174.5 1.550781-2.523438 4.300781-4.066407 7.265625-4.066407 37.027344.117188 68.363281 27.390625 73.582031 64.050781.40625 2.46875-.296875 4.992188-1.917969 6.898438-1.621093 1.90625-3.996093 3.007812-6.496093 3.007812-9.90625-.011718-19.78125 1.128907-29.421875 3.394532 13.882812 10.738281 23.839844 25.75 28.339844 42.710937 1.175781 4.324219-1.1875 8.820313-5.414063 10.300781-.628906.21875-63.246094 22.394532-89.304687 54.234376-1.621094 1.984374-4.042969 3.132812-6.605469 3.136718zm42.019531-170.351562c-17.867188 33.773437-27.390625 103.390625-31.316406 139.542968 21.921875-16.53125 46.0625-29.898437 71.703125-39.710937-5.488281-14.207031-16.132813-25.824219-29.808594-32.53125-2.488281-1.042969-4.335937-3.191406-4.996094-5.804687-.65625-2.613282-.042969-5.386719 1.652344-7.480469 8.261719-10.097657 29.191406-13.191407 42.535156-14.113281-6.808593-22.269532-26.554687-38.101563-49.773437-39.902344zm0 0"/><path d="m361.207031 512.035156c-18.957031 0-24.59375-21.101562-27.304687-31.242187-3.433594-13.660157-5.777344-27.570313-7.007813-41.601563-1.539062-11.566406-5.257812-22.734375-10.957031-32.917968-1.996094-3.773438-4.171875-7.398438-6.34375-11.015626-4.429688-6.941406-8.25-14.25-11.425781-21.84375-10.933594-28.125-13.769531-66.710937 11.039062-90.667968 28.023438-24.421875 69.828125-24.226563 97.628907.449218 2.328124 2.042969 3.367187 5.1875 2.714843 8.21875-.65625 3.027344-2.898437 5.464844-5.863281 6.363282-2.964844.898437-6.183594.121094-8.410156-2.03125-21.160156-18.53125-52.683594-18.84375-74.203125-.734375-18.824219 18.179687-15.53125 50.261719-7 72.210937 2.835937 6.695313 6.234375 13.136719 10.15625 19.257813 2.328125 3.882812 4.664062 7.773437 6.800781 11.824219 6.707031 12.0625 11.058594 25.289062 12.824219 38.976562 1.167969 13.164062 3.347656 26.214844 6.523437 39.042969 2.476563 9.273437 5.40625 17.835937 10.144532 18.589843 2.886718-2.546874 10.382812-16.796874 16.128906-58.441406 2.980468-21.222656 14.375-26.878906 23.414062-27.902344 4.683594-.523437 8.90625 2.847657 9.433594 7.53125.523438 4.6875-2.847656 8.910157-7.535156 9.433594-2.160156.242188-6.644532.742188-8.410156 13.285156-10.101563 73.214844-25.6875 73.214844-32.347657 73.214844zm0 0"/><path d="m337.933594 366.476562c-3.519532 0-6.679688-2.160156-7.953125-5.441406-7.160157-18.425781-9.011719-42.199218 2.972656-53.777344 6.601563-5.792968 15.164063-8.847656 23.941406-8.539062 9.816407-.226562 19.371094 3.1875 26.820313 9.582031 2.332031 2.042969 3.371094 5.1875 2.714844 8.214844-.652344 3.03125-2.894532 5.464844-5.859376 6.367187-2.964843.898438-6.183593.121094-8.410156-2.03125-4.328125-3.445312-9.738281-5.238281-15.265625-5.066406-4.34375-.246094-8.628906 1.082032-12.074219 3.742188-4.992187 4.816406-4.5 20.988281 1.066407 35.324218 1.027343 2.628907.6875 5.589844-.902344 7.917969-1.59375 2.324219-4.230469 3.714844-7.050781 3.707031zm0 0"/><path d="m440.898438 512.035156c-6.648438 0-22.226563 0-32.316407-73.210937-1.695312-11.914063-5.90625-12.789063-7.289062-13.074219l-.96875-.167969c-4.683594-.457031-8.121094-4.613281-7.691407-9.304687.191407-2.253906 1.273438-4.335938 3.015626-5.785156 1.738281-1.445313 3.984374-2.136719 6.234374-1.914063.871094.09375 1.734376.230469 2.585938.410156 8.199219 1.691407 18.214844 7.78125 21.019531 27.476563 5.734375 41.617187 13.214844 55.882812 16.101563 58.453125 5.398437-.910157 8.460937-12.300781 10.136718-18.542969 3.191407-12.835938 5.382813-25.902344 6.542969-39.082031 1.785157-13.699219 6.144531-26.941407 12.855469-39.019531 2.125-4.039063 4.472656-7.964844 6.816406-11.878907 3.90625-6.105469 7.285156-12.527343 10.101563-19.203125 8.566406-21.941406 11.871093-53.992187-6.988281-72.164062-6.953126-6.566406-15.722657-10.882813-25.164063-12.382813-17.496094-3.285156-35.535156 1.53125-49.066406 13.097657-3.46875 3.191406-8.871094 2.96875-12.0625-.503907-3.191407-3.46875-2.96875-8.871093.503906-12.0625 17.414063-15.242187 40.871094-21.632812 63.609375-17.332031 12.789062 2.082031 24.652344 7.980469 34.035156 16.914062 24.863282 23.960938 22.003906 62.527344 11.035156 90.625-3.15625 7.574219-6.957031 14.863282-11.367187 21.78125-2.179687 3.644532-4.371094 7.292969-6.371094 11.09375-5.699219 10.1875-9.421875 21.359376-10.976562 32.925782-1.246094 14.058594-3.597657 27.996094-7.039063 41.683594-2.707031 10.066406-8.378906 31.167968-27.292968 31.167968zm0 0"/><path d="m444.371094 321.359375c-22.542969 0-46.636719-23.183594-49.3125-25.824219-3.351563-3.3125-3.386719-8.71875-.074219-12.070312 3.3125-3.351563 8.71875-3.382813 12.070313-.070313 5.898437 5.816407 24.109374 20.898438 37.316406 20.898438 4.710937 0 8.53125 3.820312 8.53125 8.53125 0 4.714843-3.820313 8.535156-8.53125 8.535156zm0 0"/></svg>