<svg height="512pt" viewBox="0 0 512.02275 512" width="512pt" xmlns="http://www.w3.org/2000/svg"><path d="m317.441406 386.058594h-276.480468c-25.429688-19.796875-30.550782-57-15.359376-87.378906 17.066407-34.136719 8.53125-81.066407 8.53125-81.066407h290.132813s-8.53125 46.929688 8.535156 81.066407c15.1875 30.378906 10.070313 67.582031-15.359375 87.378906zm0 0" fill="#783e22"/><path d="m293.800781 386.058594h-252.839843c-25.429688-19.796875-30.550782-57-15.359376-87.378906 17.066407-34.136719 8.53125-81.066407 8.53125-81.066407h266.496094s-8.53125 46.929688 8.535156 81.066407c15.1875 30.378906 10.066407 67.582031-15.363281 87.378906zm0 0" fill="#a0522d"/><path d="m324.179688 195.328125c.085937-1.734375.085937-13.6875.085937-15.320313-.011719-10.296874-.808594-20.574218-2.386719-30.75h-285.355468c-1.578126 10.175782-2.378907 20.453126-2.390626 30.75 0 1.632813 0 13.585938.085938 15.320313zm0 0" fill="#91562d"/><path d="m344.40625 427.871094-6.570312 74.839844h-.085938c-1.597656.515624-3.269531.777343-4.949219.765624h-307.199219c-9.414062-.027343-17.039062-7.652343-17.066406-17.066406v-25.597656c-.015625-46.703125 31.578125-87.492188 76.796875-99.160156l34.132813-3.242188h119.46875l34.132812 3.328125c33.417969 8.589844 60.246094 33.460938 71.339844 66.132813zm0 0" fill="#f5f5f5"/><path d="m119.464844 358.410156v17.066406c0 23.566407 19.105468 42.667969 42.667968 42.667969h34.132813c23.566406 0 42.667969-19.101562 42.667969-42.667969v-17.066406zm0 0" fill="#ffe0b2"/><path d="m119.464844 358.410156v93.867188h-34.132813v-90.625c8.359375-2.167969 16.964844-3.257813 25.601563-3.242188zm0 0" fill="#02a9f4"/><path d="m273.066406 361.738281v90.539063h-34.132812v-93.867188h8.53125c8.644531-.027344 17.253906 1.089844 25.601562 3.328125zm0 0" fill="#02a9f4"/><path d="m290.132812 460.8125v42.664062h-221.867187v-42.664062c.015625-4.707031 3.828125-8.519531 8.535156-8.535156h204.800781c4.707032.015625 8.519532 3.828125 8.53125 8.535156zm0 0" fill="#00bcd4"/><path d="m153.601562 313.441406h51.199219v70.570313h-51.199219zm0 0" fill="#ffe0b2"/><path d="m337.304688 502.585938c-8.933594-3.003907-13.742188-12.679688-10.742188-21.613282l55.792969-166.054687 32.355469 10.871093-55.792969 166.054688c-3 8.933594-12.675781 13.742188-21.613281 10.742188zm0 0" fill="#825a2c"/><path d="m306.601562 187.746094h17.664063c9.398437.066406 17 7.667968 17.066406 17.066406-.027343 9.414062-7.652343 17.039062-17.066406 17.066406h-290.132813c-9.414062-.027344-17.039062-7.652344-17.066406-17.066406.066406-9.398438 7.667969-17 17.066406-17.066406zm0 0" fill="#dfc49c"/><path d="m324.265625 128.011719v17.066406h-290.132813v-17.066406c.011719-65.976563 53.492188-119.457031 119.46875-119.46875h51.199219c65.972657.011719 119.453125 53.492187 119.464844 119.46875zm0 0" fill="#283593"/><path d="m300.628906 128.011719v17.066406h-266.496094v-17.066406c.011719-65.976563 53.492188-119.457031 119.46875-119.46875h27.5625c65.972657.011719 119.453126 53.492187 119.464844 119.46875zm0 0" fill="#3f51b5"/><path d="m384.652344 281.285156-6.386719 19.015625c-2.972656 8.929688 1.824219 18.585938 10.742187 21.613281l16.175782 5.433594c8.9375 2.972656 18.59375-1.832031 21.613281-10.75l6.386719-19.007812zm0 0" fill="#c81e1e"/><path d="m502.613281 225.035156c-1.980469 5.75-6.84375 10.03125-12.800781 11.265625l-8.960938 26.453125c-8.992187 26.777344-37.976562 41.210938-64.765624 32.253906l-16.214844-5.460937c-.425782-.171875-.851563-.253906-1.195313-.425781-26.089843-9.523438-39.859375-38.082032-31.058593-64.425782l8.957031-26.453124c-4.449219-5.011719-5.546875-12.164063-2.804688-18.277344 2.746094-6.117188 8.820313-10.050782 15.519531-10.054688.660157.015625 1.3125.070313 1.964844.171875 1.191406.121094 2.363282.378907 3.5.765625l97.109375 32.597656c8.914063 3.007813 13.722657 12.660157 10.75 21.589844zm0 0" fill="#c81e1e"/><path d="m478.976562 217.527344c-1.984374 5.746094-6.847656 10.027344-12.800781 11.261718l-8.960937 26.453126c-8.195313 24.425781-33.277344 38.941406-58.539063 33.878906-26.089843-9.523438-39.859375-38.082032-31.058593-64.425782l8.957031-26.453124c-4.449219-5.011719-5.546875-12.164063-2.804688-18.277344 2.746094-6.117188 8.820313-10.050782 15.519531-10.054688.660157.015625 1.3125.070313 1.964844.171875l76.96875 25.855469c8.917969 3.007812 13.722656 12.660156 10.753906 21.589844zm0 0" fill="#f44335"/><path d="m307.199219 198.753906c-.011719 4.046875-.238281 8.09375-.683594 12.117188-6.652344 58.964844-61.097656 104.875-127.316406 104.875-3.925781 0-7.851563-.171875-11.773438-.511719-60.757812-5.035156-109.3125-48.898437-115.542969-104.363281-.441406-4.023438-.671874-8.070313-.683593-12.117188.015625-6.785156.644531-13.554687 1.878906-20.226562.765625-3.753906 1.707031-7.507813 2.816406-11.175782.9375-2.21875 2.046875-4.609374 3.328125-7.253906h239.957032c1.277343 2.644532 2.386718 5.035156 3.328124 7.253906 1.109376 3.667969 2.046876 7.421876 2.816407 11.175782 1.230469 6.671875 1.859375 13.441406 1.875 20.226562zm0 0" fill="#dfc49c"/><path d="m283.5625 198.753906c-.011719 4.046875-.238281 8.09375-.683594 12.117188-6.226562 55.378906-54.699218 99.328125-115.453125 104.363281-60.757812-5.035156-109.3125-48.898437-115.542969-104.363281-.441406-4.023438-.671874-8.070313-.683593-12.117188.015625-6.785156.644531-13.554687 1.878906-20.226562.765625-3.753906 1.707031-7.507813 2.816406-11.175782.9375-2.21875 2.046875-4.609374 3.328125-7.253906h216.320313c1.277343 2.644532 2.386719 5.035156 3.328125 7.253906 1.109375 3.667969 2.046875 7.421876 2.8125 11.175782 1.234375 6.671875 1.863281 13.441406 1.878906 20.226562zm0 0" fill="#ffe0b2"/><path d="m34.132812 145.078125s42.667969-42.667969 145.066407-42.667969c102.402343 0 145.066406 42.667969 145.066406 42.667969s0 25.601563-145.066406 25.601563c-145.066407 0-145.066407-25.601563-145.066407-25.601563zm0 0" fill="#02a9f4"/><path d="m179.199219 324.277344c-70.175781 0-128.558594-48.359375-135.800781-112.472656-.476563-4.339844-.71875-8.703126-.730469-13.066407.015625-7.28125.691406-14.542969 2.015625-21.703125.808594-4.105468 1.828125-8.167968 3.050781-12.171875 1.46875-4.382812 6.160156-6.800781 10.582031-5.449219 4.421875 1.347657 6.964844 5.972657 5.734375 10.429688-1.023437 3.367188-1.902343 6.882812-2.609375 10.417969-1.121094 6.09375-1.691406 12.277343-1.707031 18.476562.011719 3.738281.222656 7.480469.632813 11.199219 6.257812 55.433594 57.347656 97.273438 118.832031 97.273438s112.574219-41.839844 118.835937-97.324219c.410156-3.703125.621094-7.425781.632813-11.148438-.019531-6.253906-.601563-12.488281-1.734375-18.636719-.667969-3.273437-3.574219-14.480468-4.625-17.921874-1.234375-4.457032 1.308594-9.085938 5.730468-10.4375 4.425782-1.351563 9.117188 1.066406 10.585938 5.453124 1.222656 4.011719 4.25 15.65625 5.066406 19.683594 2.175782 11.492188 2.613282 23.25 1.308594 34.875-7.242188 64.164063-65.625 112.523438-135.800781 112.523438zm0 0"/><path d="m51.882812 230.410156h-17.75c-14.132812-.015625-25.582031-11.464844-25.597656-25.597656.0625-14.113281 11.488282-25.535156 25.597656-25.601562h17.664063c4.714844 0 8.535156 3.820312 8.535156 8.535156 0 4.710937-3.820312 8.53125-8.535156 8.53125h-17.578125c-2.25-.035156-4.417969.847656-6 2.449218-1.675781 1.582032-2.625 3.78125-2.617188 6.085938 0 4.710938 3.820313 8.53125 8.53125 8.53125h17.75c4.710938 0 8.53125 3.820312 8.53125 8.535156 0 4.710938-3.820312 8.53125-8.53125 8.53125zm0 0"/><path d="m324.265625 230.410156h-17.75c-4.710937 0-8.53125-3.820312-8.53125-8.53125 0-4.714844 3.820313-8.535156 8.53125-8.535156h17.75c4.710937 0 8.53125-3.820312 8.535156-8.53125.019531-2.222656-.863281-4.359375-2.449219-5.917969-1.582031-1.675781-3.78125-2.621093-6.085937-2.617187h-17.664063c-4.710937 0-8.53125-3.820313-8.53125-8.53125 0-4.714844 3.820313-8.535156 8.53125-8.535156h17.578126c14.144531.019531 25.621093 11.457031 25.6875 25.601562-.015626 14.132812-11.46875 25.582031-25.601563 25.597656zm0 0"/><path d="m34.207031 196.246094c-4.511719.011718-8.246093-3.503906-8.507812-8.011719-.089844-1.507813-.097657-11.875-.097657-13.289063.015626-9.136718.863282-18.25 2.53125-27.234374.554688-2.996094 2.664063-5.472657 5.539063-6.492188s6.070313-.429688 8.390625 1.550781c2.320312 1.976563 3.40625 5.042969 2.855469 8.042969-1.492188 7.957031-2.246094 16.035156-2.25 24.132812 0 1.308594-.011719 10.734376.066406 12.324219.234375 4.699219-3.371094 8.703125-8.066406 8.964844-.152344.011719-.308594.011719-.460938.011719zm0 0"/><path d="m324.191406 196.277344c-.171875 0-.332031-.007813-.5-.015625-2.257812-.128907-4.371094-1.152344-5.875-2.839844s-2.277344-3.902344-2.144531-6.160156c.070313-1.601563.0625-11.015625.0625-12.316407-.003906-8.097656-.757813-16.175781-2.25-24.132812-.855469-4.636719 2.207031-9.085938 6.839844-9.941406 4.636719-.855469 9.085937 2.207031 9.941406 6.839844 1.671875 8.984374 2.519531 18.097656 2.535156 27.234374 0 1.414063-.007812 11.78125-.101562 13.289063-.257813 4.511719-3.988281 8.039063-8.507813 8.042969zm0 0"/><path d="m38.234375 150.070312c-2.261719.011719-4.429687-.878906-6.03125-2.472656s-2.503906-3.761718-2.503906-6.019531v-.085937c.023437-4.707032 3.855469-8.507813 8.5625-8.492188s8.511719 3.839844 8.503906 8.546875-3.824219 8.519531-8.53125 8.519531zm0 0"/><path d="m55.894531 175.929688c-2.261719.007812-4.429687-.878907-6.03125-2.472657-1.601562-1.59375-2.503906-3.761719-2.503906-6.019531v-.085938c0-1.144531.230469-2.273437.675781-3.328124.992188-2.351563 2.15625-4.859376 3.507813-7.652344 2.054687-4.242188 7.15625-6.019532 11.398437-3.964844 4.246094 2.050781 6.019532 7.15625 3.96875 11.398438-1.175781 2.417968-2.191406 4.59375-3.058594 6.625-1.261718 3.304687-4.421874 5.488281-7.957031 5.5zm0 0"/><path d="m165.460938 111.199219c-4.730469.011719-8.582032-3.800781-8.617188-8.53125-.019531-2.253907.859375-4.425781 2.445312-6.027344 1.585938-1.601563 3.746094-2.503906 6-2.507813h.171876c4.714843 0 8.535156 3.820313 8.535156 8.535157 0 4.710937-3.820313 8.53125-8.535156 8.53125zm0 0"/><path d="m324.265625 153.613281c-4.710937 0-8.53125-3.824219-8.53125-8.535156v-17.066406c-.070313-61.238281-49.695313-110.863281-110.933594-110.933594h-51.199219c-61.238281.070313-110.863281 49.695313-110.933593 110.933594v17.066406c0 4.710937-3.820313 8.535156-8.535157 8.535156-4.710937 0-8.53125-3.824219-8.53125-8.535156v-17.066406c.074219-70.660157 57.339844-127.9218752 128-128.0000002h51.199219c70.660157.078125 127.921875 57.3398432 128 128.0000002v17.066406c0 4.710937-3.820312 8.535156-8.535156 8.535156zm0 0"/><path d="m179.199219 179.210938c-133.640625 0-153.597657-21.382813-153.597657-34.132813 0-2.261719.898438-4.433594 2.5-6.03125 1.839844-1.84375 46.367188-45.167969 151.097657-45.167969 104.734375 0 149.257812 43.324219 151.101562 45.167969 1.601563 1.597656 2.5 3.769531 2.5 6.03125 0 12.75-19.960937 34.132813-153.601562 34.132813zm-132.734375-33.226563c9.761718 5.519531 40.535156 16.160156 132.734375 16.160156 93.492187 0 125.066406-11.050781 133.726562-15.367187-13.976562-10.390625-56.132812-35.832032-133.726562-35.832032-76.257813 0-117.917969 24.207032-132.734375 35.039063zm0 0"/><path d="m196.265625 68.277344h-34.132813c-4.710937 0-8.53125-3.820313-8.53125-8.53125 0-4.714844 3.820313-8.535156 8.53125-8.535156h34.132813c4.714844 0 8.535156 3.820312 8.535156 8.535156 0 4.710937-3.820312 8.53125-8.535156 8.53125zm0 0"/><path d="m153.601562 392.542969c-4.714843 0-8.535156-3.820313-8.535156-8.53125v-70.566407c0-4.714843 3.820313-8.535156 8.535156-8.535156 4.710938 0 8.53125 3.820313 8.53125 8.535156v70.566407c0 4.710937-3.820312 8.53125-8.53125 8.53125zm0 0"/><path d="m204.800781 392.542969c-4.714843 0-8.535156-3.820313-8.535156-8.53125v-70.566407c0-4.714843 3.820313-8.535156 8.535156-8.535156 4.710938 0 8.53125 3.820313 8.53125 8.535156v70.566407c0 4.710937-3.820312 8.53125-8.53125 8.53125zm0 0"/><path d="m332.800781 512.011719h-307.199219c-14.132812-.015625-25.585937-11.46875-25.601562-25.601563v-25.597656c.0703125-61.238281 49.695312-110.863281 110.933594-110.933594h42.667968c4.710938 0 8.53125 3.820313 8.53125 8.53125 0 4.714844-3.820312 8.535156-8.53125 8.535156h-42.667968c-51.816406.058594-93.808594 42.050782-93.867188 93.867188v25.597656c.003906 4.710938 3.820313 8.53125 8.535156 8.535156h307.199219c.765625.007813 1.53125-.105468 2.265625-.335937 2.601563-.777344 5.417969-.304687 7.621094 1.28125 2.207031 1.585937 3.550781 4.105469 3.636719 6.820313.015625 3.980468-2.730469 7.4375-6.609375 8.324218-2.246094.652344-4.574219.980469-6.914063.976563zm0 0"/><path d="m344.40625 436.40625c-3.660156-.003906-6.910156-2.335938-8.085938-5.804688-12.894531-38.082031-48.644531-63.695312-88.855468-63.65625h-42.664063c-4.714843 0-8.535156-3.820312-8.535156-8.535156 0-4.710937 3.820313-8.53125 8.535156-8.53125h42.664063c47.53125-.042968 89.789062 30.238282 105.027344 75.257813.878906 2.601562.449218 5.472656-1.152344 7.703125-1.601563 2.234375-4.183594 3.558594-6.929688 3.558594zm0 0"/><path d="m196.265625 426.679688h-34.132813c-28.261718-.03125-51.167968-22.9375-51.199218-51.203126v-17.066406c0-4.710937 3.820312-8.53125 8.53125-8.53125 4.714844 0 8.535156 3.820313 8.535156 8.53125v17.066406c.019531 18.84375 15.289062 34.117188 34.132812 34.136719h34.132813c18.84375-.019531 34.117187-15.292969 34.132813-34.136719v-17.066406c0-4.710937 3.820312-8.53125 8.535156-8.53125 4.710937 0 8.53125 3.820313 8.53125 8.53125v17.066406c-.027344 28.265626-22.933594 51.171876-51.199219 51.203126zm0 0"/><path d="m119.464844 460.8125h-34.132813c-4.710937 0-8.53125-3.820312-8.53125-8.535156v-90.625c0-4.710938 3.820313-8.53125 8.53125-8.53125 4.714844 0 8.535157 3.820312 8.535157 8.53125v82.09375h17.066406v-76.800782c-4.714844 0-8.535156-3.820312-8.535156-8.535156 0-4.710937 3.820312-8.53125 8.535156-8.53125h8.53125c4.714844 0 8.535156 3.820313 8.535156 8.53125v93.867188c0 4.714844-3.820312 8.535156-8.535156 8.535156zm0 0"/><path d="m273.066406 460.8125h-34.132812c-4.714844 0-8.535156-3.820312-8.535156-8.535156v-93.867188c0-4.710937 3.820312-8.53125 8.535156-8.53125h8.53125c4.714844 0 8.535156 3.820313 8.535156 8.53125 0 4.714844-3.820312 8.535156-8.535156 8.535156v76.800782h17.070312v-82.09375c0-4.710938 3.820313-8.53125 8.53125-8.53125 4.714844 0 8.535156 3.820312 8.535156 8.53125v90.625c0 4.714844-3.820312 8.535156-8.535156 8.535156zm0 0"/><path d="m290.132812 512.011719h-221.867187c-4.710937 0-8.53125-3.820313-8.53125-8.535157v-42.664062c.011719-9.421875 7.644531-17.054688 17.066406-17.066406h204.800781c9.417969.011718 17.050782 7.644531 17.066407 17.066406v42.664062c0 4.714844-3.820313 8.535157-8.535157 8.535157zm-213.332031-17.066407h204.800781v-34.132812h-204.800781zm0 0"/><path d="m102.398438 512.011719c-4.710938 0-8.53125-3.820313-8.53125-8.535157v-17.066406c0-4.710937 3.820312-8.53125 8.53125-8.53125 4.714843 0 8.535156 3.820313 8.535156 8.53125v17.066406c0 4.714844-3.820313 8.535157-8.535156 8.535157zm0 0"/><path d="m256 512.011719c-4.710938 0-8.535156-3.820313-8.535156-8.535157v-17.066406c0-4.710937 3.824218-8.53125 8.535156-8.53125s8.535156 3.820313 8.535156 8.53125v17.066406c0 4.714844-3.824218 8.535157-8.535156 8.535157zm0 0"/><path d="m432.390625 306.210938c-6.476563-.007813-12.910156-1.066407-19.046875-3.132813l-16.183594-5.433594c-31.246094-10.539062-48.0625-44.378906-37.601562-75.648437l8.882812-26.453125c.972656-2.890625 3.410156-5.046875 6.398438-5.648438 2.988281-.605469 6.074218.429688 8.089844 2.714844 2.019531 2.285156 2.664062 5.476563 1.695312 8.367187l-8.882812 26.453126c-7.480469 22.332031 4.53125 46.507812 26.847656 54.03125l16.183594 5.433593c22.335937 7.472657 46.5-4.539062 54.035156-26.847656l8.882812-26.457031c1.5-4.46875 6.339844-6.875 10.808594-5.371094 4.46875 1.5 6.875 6.339844 5.375 10.808594l-8.882812 26.453125c-8.207032 24.289062-30.960938 40.664062-56.601563 40.730469zm0 0"/><path d="m410.609375 336.769531c-2.769531 0-5.519531-.453125-8.140625-1.332031l-16.175781-5.433594c-13.390625-4.523437-20.597657-19.023437-16.117188-32.425781l6.382813-19.007813c1.5-4.472656 6.339844-6.878906 10.808594-5.378906 4.46875 1.503906 6.875 6.339844 5.375 10.808594l-6.382813 19.007812c-1.480469 4.46875.914063 9.289063 5.367187 10.808594l16.171876 5.433594c2.148437.726562 4.492187.570312 6.519531-.4375 2.027343-1.007812 3.574219-2.78125 4.289062-4.929688l6.382813-19.007812c1.5-4.46875 6.339844-6.875 10.808594-5.375s6.875 6.339844 5.375 10.808594l-6.382813 19.007812c-3.523437 10.414063-13.289063 17.429688-24.28125 17.453125zm0 0"/><path d="m342.765625 512.019531c-8.246094.007813-15.992187-3.957031-20.808594-10.65625-4.8125-6.695312-6.105469-15.300781-3.472656-23.117187l54.335937-161.769532c1.511719-4.457031 6.339844-6.859374 10.808594-5.375l32.363282 10.871094c2.144531.722656 3.917968 2.265625 4.925781 4.292969 1.007812 2.027344 1.171875 4.371094.449219 6.515625l-54.355469 161.785156c-3.515625 10.40625-13.261719 17.421875-24.246094 17.453125zm43.527344-182.015625-51.632813 153.683594c-.726562 2.148438-.566406 4.492188.441406 6.519531 1.003907 2.027344 2.777344 3.570313 4.921876 4.289063 2.144531.726562 4.488281.566406 6.515624-.4375 2.027344-1.007813 3.570313-2.78125 4.285157-4.925782l51.644531-153.695312zm0 0"/><path d="m486.375 245.203125c-2.765625-.003906-5.511719-.453125-8.132812-1.332031l-8.082032-2.71875c-4.46875-1.5-6.878906-6.339844-5.375-10.808594 1.5-4.46875 6.335938-6.875 10.804688-5.375l8.085937 2.71875c2.898438 1.007812 6.117188.382812 8.425781-1.640625 2.308594-2.023437 3.355469-5.128906 2.738282-8.136719-.621094-3.007812-2.804688-5.449218-5.722656-6.398437l-97.066407-32.609375c-2.894531-.996094-6.101562-.367188-8.40625 1.652344-2.300781 2.019531-3.34375 5.117187-2.730469 8.117187.613282 3 2.785157 5.441406 5.695313 6.398437l56.625 19.027344c2.890625.972656 5.042969 3.410156 5.648437 6.398438.605469 2.992187-.429687 6.074218-2.714843 8.09375-2.289063 2.019531-5.476563 2.664062-8.367188 1.691406l-56.625-19.027344c-8.671875-2.914062-15.125-10.234375-16.9375-19.199218-1.808593-8.964844 1.300781-18.214844 8.160157-24.265626 6.859374-6.050781 16.425781-7.984374 25.09375-5.070312l97.058593 32.609375c11.90625 3.988281 19.164063 16.023437 17.132813 28.414063-2.03125 12.394531-12.75 21.484374-25.308594 21.460937zm0 0"/><path d="m40.96875 394.59375c-1.898438.003906-3.742188-.632812-5.234375-1.800781-27.835937-21.667969-35.292969-62.847657-17.75-97.933594 15.507813-31.007813 7.875-70.914063 7.800781-71.316406-.824218-4.574219 2.167969-8.964844 6.726563-9.875 4.558593-.910157 9.003906 1.996093 10.003906 6.535156.375 1.859375 8.902344 45.957031-9.265625 82.292969-13.925781 27.832031-8.464844 60.148437 12.972656 76.832031 2.875 2.238281 4.011719 6.058594 2.824219 9.507813-1.183594 3.449218-4.429687 5.761718-8.074219 5.757812zm0 0"/><path d="m317.457031 394.59375c-3.644531 0-6.890625-2.3125-8.074219-5.757812-1.1875-3.449219-.050781-7.269532 2.824219-9.507813 21.433594-16.683594 26.894531-49 12.972657-76.835937-18.167969-36.332032-9.644532-80.433594-9.265626-82.289063.996094-4.542969 5.445313-7.445313 10.003907-6.535156 4.558593.910156 7.546875 5.300781 6.726562 9.875-.074219.398437-7.707031 40.308593 7.800781 71.316406 17.535157 35.082031 10.070313 76.265625-17.757812 97.933594-1.492188 1.167969-3.335938 1.800781-5.230469 1.800781zm0 0"/></svg>