<svg height="512pt" viewBox="0 0 512 512.08755" width="512pt" xmlns="http://www.w3.org/2000/svg"><path d="m336 336.226562-11.6875 48.726563-23.128906-1.964844-260.179688-22.527343c-25.429687-19.796876-30.550781-57.003907-15.359375-87.382813 17.066407-34.132813 8.53125-81.066406 8.53125-81.066406h290.136719s-8.535156 46.933593 8.53125 81.066406c10.128906 19.605469 11.28125 42.632813 3.15625 63.148437zm0 0" fill="#783e22"/><path d="m312.363281 336.226562-11.179687 46.761719-260.179688-22.527343c-25.429687-19.796876-30.550781-57.003907-15.359375-87.382813 17.066407-34.132813 8.53125-81.066406 8.53125-81.066406h266.496094s-8.53125 46.933593 8.535156 81.066406c10.128907 19.605469 11.28125 42.632813 3.15625 63.148437zm0 0" fill="#a0522d"/><path d="m349.144531 369.25-11.265625 133.460938c-1.625.523437-3.328125.785156-5.035156.769531h-307.199219c-9.414062-.027344-17.039062-7.652344-17.066406-17.066407v-51.203124c.023437-47.316407 32.429687-88.46875 78.421875-99.582032h184.488281c12.761719 3.085938 24.8125 8.589844 35.5 16.214844zm0 0" fill="#3f51b5"/><path d="m132.3125 335.628906h93.863281l-46.933593 56.917969zm0 0" fill="#bdc3c7"/><path d="m204.84375 287.84375v66.300781l-25.601562 38.402344-25.597657-38.402344v-66.300781zm0 0" fill="#ffe0b2"/><path d="m324.3125 149.347656c0 1.363282 0 15.613282-.085938 17.066406h-289.964843c-.085938-1.453124-.085938-15.703124-.085938-17.066406.984375-74.363281 58.996094-135.460937 133.207031-140.289062 3.925782-.34375 7.851563-.511719 11.859376-.511719 78.933593-1.15625 143.867187 61.867187 145.070312 140.800781zm0 0" fill="#6d4122"/><path d="m300.671875 149.347656c0 1.363282 0 15.613282-.082031 17.066406h-266.328125c-.085938-1.453124-.085938-15.703124-.085938-17.066406.984375-74.363281 58.996094-135.460937 133.207031-140.289062 74.242188 4.792968 132.300782 65.898437 133.289063 140.289062zm0 0" fill="#91562d"/><path d="m306.648438 162.144531h17.664062c9.394531.070313 16.996094 7.671875 17.066406 17.066407-.027344 9.414062-7.652344 17.039062-17.066406 17.066406h-290.136719c-9.414062-.027344-17.039062-7.652344-17.066406-17.066406.070313-9.394532 7.671875-16.996094 17.066406-17.066407zm0 0" fill="#dfc49c"/><path d="m307.242188 173.152344c-.011719 4.050781-.238282 8.09375-.679688 12.117187-.425781 3.671875-1.023438 7.339844-1.792969 10.925781-12.003906 47.769532-51.296875 83.804688-99.925781 91.648438-8.445312 1.550781-17.015625 2.320312-25.601562 2.300781-4.007813 0-7.933594-.167969-11.773438-.511719-4.640625-.332031-9.253906-.929687-13.824219-1.789062-48.773437-7.789062-88.140625-44.027344-99.925781-91.992188-.769531-3.496093-1.367188-6.996093-1.792969-10.582031-.441406-4.023437-.667969-8.066406-.683593-12.117187-.015626-3.675782.183593-7.351563.597656-11.007813.257812-3.070312.769531-6.144531 1.28125-9.214843.597656-2.988282 1.367187-5.886719 2.132812-8.789063l4.523438-24.660156c43.179687-10.667969 65.109375-29.441407 75.777344-43.179688 4.121093-4.921875 7.355468-10.523437 9.554687-16.554687 0 0 27.136719 47.53125 105.644531 51.710937 2.558594.171875 5.121094.257813 7.851563.257813 7.6875.15625 15.378906-.101563 23.039062-.769532 8.894531 10.4375 16.273438 22.070313 21.929688 34.5625.683593 2.472657 1.28125 4.949219 1.792969 7.421876.511718 3.070312 1.023437 6.144531 1.28125 9.214843.414062 3.65625.613281 7.332031.59375 11.007813zm0 0" fill="#dfc49c"/><path d="m283.605469 173.152344c-.011719 4.050781-.238281 8.09375-.679688 12.117187-.429687 3.671875-1.027343 7.339844-1.792969 10.925781-12.003906 47.769532-51.296874 83.808594-99.925781 91.648438-4.542969.859375-9.128906 1.457031-13.738281 1.789062-4.640625-.332031-9.253906-.929687-13.824219-1.789062-48.773437-7.789062-88.140625-44.027344-99.925781-91.992188-.769531-3.496093-1.367188-6.996093-1.792969-10.582031-.441406-4.023437-.667969-8.066406-.683593-12.117187-.015626-3.675782.183593-7.351563.597656-11.007813.257812-3.070312.769531-6.144531 1.28125-9.214843.597656-2.988282 1.367187-5.886719 2.132812-8.789063l4.523438-24.660156c43.179687-10.667969 65.109375-29.441407 75.777344-43.179688 17.578124 16.296875 53.246093 38.484375 115.199218 35.15625 2.390625-.085937 4.777344-.253906 7.253906-.511719.21875.238282.421876.496094.597657.769532 8.71875 10.164062 15.90625 21.546875 21.332031 33.792968.683594 2.472657 1.28125 4.949219 1.792969 7.421876.511719 3.070312 1.023437 6.144531 1.277343 9.214843.417969 3.65625.617188 7.332031.597657 11.007813zm0 0" fill="#ffe0b2"/><path d="m401.121094 358.414062c-2.621094-.003906-5.097656-1.210937-6.714844-3.273437-1.617188-2.058594-2.199219-4.75-1.578125-7.292969 3.675781-21.664062-1.996094-43.871094-15.609375-61.113281-1.832031-2.441406-2.21875-5.671875-1.023438-8.472656 1.199219-2.804688 3.800782-4.757813 6.828126-5.121094 3.027343-.363281 6.019531.914063 7.847656 3.351563 16.679687 21.34375 23.421875 48.808593 18.515625 75.449218-.941407 3.800782-4.351563 6.46875-8.265625 6.472656zm0 0" fill="#7f5b53"/><path d="m187.777344 400.480469v103h-17.066406v-103c.324218-4.472657 4.046874-7.9375 8.53125-7.9375 4.488281 0 8.210937 3.464843 8.535156 7.9375zm0 0" fill="#2c3e50"/><path d="m221.910156 469.347656c0 4.710938-3.820312 8.53125-8.53125 8.53125-4.714844 0-8.535156-3.820312-8.535156-8.53125 0-4.714844 3.820312-8.535156 8.535156-8.535156 4.710938 0 8.53125 3.820312 8.53125 8.535156zm0 0" fill="#2c3e50"/><path d="m179.242188 392.546875-26.367188 32.953125c-1.757812 2.199219-4.484375 3.386719-7.289062 3.183594-2.804688-.207032-5.328126-1.78125-6.746094-4.210938l-48.480469-83.113281c-1.25-2.144531-1.503906-4.726563-.699219-7.074219.808594-2.347656 2.597656-4.226562 4.902344-5.148437l27.082031-10.832031c3.75-1.484376 8.027344-.132813 10.238281 3.242187l21.761719 32.597656zm0 0" fill="#f5f5f5"/><path d="m268.125 341.359375-48.480469 83.117187c-1.417969 2.429688-3.941406 4.003907-6.746093 4.210938-2.804688.203125-5.53125-.984375-7.289063-3.179688l-26.367187-32.960937 25.601562-38.402344 21.761719-32.597656c2.210937-3.375 6.488281-4.726563 10.238281-3.242187l27.078125 10.832031c2.304687.921875 4.09375 2.800781 4.902344 5.148437.804687 2.347656.550781 4.929688-.699219 7.074219zm0 0" fill="#f5f5f5"/><path d="m358.445312 366.945312c0 4.714844-3.820312 8.535157-8.535156 8.535157-4.710937 0-8.53125-3.820313-8.53125-8.535157 0-4.710937 3.820313-8.53125 8.53125-8.53125 4.714844 0 8.535156 3.820313 8.535156 8.53125zm0 0"/><path d="m503.511719 403.128906c0 60.160156-36.78125 100.351563-61.355469 100.351563-4.890625.097656-9.773438-.476563-14.507812-1.707031-10.75-2.730469-13.140626-8.363282-22.269532-8.363282-4.234375.070313-8.347656 1.441406-11.777344 3.925782-7.523437 4.527343-16.238281 6.667968-25.003906 6.144531-3.117187-.054688-6.203125-.628907-9.128906-1.707031-23.550781-8.023438-52.226562-45.570313-52.226562-98.644532 0-49.496094 16.640624-65.109375 36.183593-69.121094 4.242188-.828124 8.5625-1.230468 12.886719-1.195312 12.808594.636719 25.058594 5.429688 34.898438 13.652344 2.902343 2.070312 6.339843 3.257812 9.898437 3.414062 2.101563-.039062 4.183594-.445312 6.144531-1.195312l43.777344-12.542969 10.324219-2.988281c22.015625 1.964844 42.15625 15.363281 42.15625 69.976562zm0 0" fill="#c81e1e"/><path d="m479.875 403.128906c0 53.074219-28.671875 90.621094-52.226562 98.644532-10.75-2.730469-13.140626-8.363282-22.269532-8.363282-4.234375.070313-8.347656 1.441406-11.777344 3.925782-3.480468-2.449219-7.605468-3.8125-11.863281-3.925782-9.128906 0-11.519531 5.632813-22.269531 8.363282-23.550781-8.023438-52.226562-45.570313-52.226562-98.644532 0-49.496094 16.640624-65.109375 36.183593-69.121094 16.554688 3.925782 23.722657 15.871094 34.046875 15.871094 2.101563-.039062 4.179688-.445312 6.144532-1.195312l7.59375-2.21875 46.507812-13.3125c4.558594.34375 9.042969 1.351562 13.3125 2.988281 16.210938 6.316406 28.84375 23.722656 28.84375 66.988281zm0 0" fill="#f44335"/><path d="m454.320312 342.292969c-20.140624 15.789062-53.152343 7.304687-53.152343 7.304687s-.351563-34.082031 19.792969-49.871094c20.140624-15.789062 53.152343-7.304687 53.152343-7.304687s.351563 34.082031-19.792969 49.871094zm0 0" fill="#60a917"/><path d="m349.917969 460.8125c-3.234375.003906-6.191407-1.824219-7.640625-4.714844-9.324219-18.660156-9.433594-53.542968-9.433594-55.019531 0-4.710937 3.820312-8.53125 8.535156-8.53125 4.710938 0 8.53125 3.820313 8.53125 8.53125-.246094 16.121094 2.335938 32.160156 7.632813 47.382813 1.324219 2.644531 1.183593 5.785156-.371094 8.300781-1.550781 2.515625-4.296875 4.046875-7.253906 4.050781zm0 0" fill="#fb7b76"/><path d="m93.910156 145.078125h59.734375c4.710938 0 8.53125 3.820313 8.53125 8.535156v8.53125c0 18.851563-15.28125 34.132813-34.132812 34.132813h-8.53125c-18.851563 0-34.132813-15.28125-34.132813-34.132813v-8.53125c0-4.714843 3.820313-8.535156 8.53125-8.535156zm0 0" fill="#02a9f4"/><path d="m204.84375 145.078125h59.734375c4.710937 0 8.53125 3.820313 8.53125 8.535156v8.53125c0 18.851563-15.28125 34.132813-34.132813 34.132813h-8.53125c-18.851562 0-34.132812-15.28125-34.132812-34.132813v-8.53125c0-4.714843 3.820312-8.535156 8.53125-8.535156zm0 0" fill="#02a9f4"/><g fill="#35495e"><path d="m198.203125 156.929688c-2.113281.003906-4.148437-.78125-5.714844-2.199219-7.378906-7.046875-18.996093-7.046875-26.375 0-3.507812 3.070312-8.828125 2.753906-11.953125-.703125-3.121094-3.460938-2.890625-8.789063.519532-11.964844 13.863281-12.9375 35.375-12.9375 49.238281 0 2.621093 2.367188 3.511719 6.101562 2.246093 9.398438-1.269531 3.292968-4.433593 5.46875-7.964843 5.46875zm0 0"/><path d="m91.265625 155.234375-36.265625 13.652344c-.941406.410156-1.960938.613281-2.988281.597656h-.683594v-.085937c.085937-2.472657.257813-4.863282.511719-7.253907.257812-3.070312.769531-6.144531 1.28125-9.214843.09375-.582032.234375-1.152344.425781-1.707032l31.746094-12.03125c4.414062-1.589844 9.285156.667969 10.925781 5.066406 1.636719 4.398438-.574219 9.292969-4.953125 10.976563zm0 0"/><path d="m307.160156 169.398438v.085937h-.683594c-1.027343.015625-2.046874-.1875-2.988281-.597656l-36.265625-13.652344c-4.378906-1.683594-6.589844-6.578125-4.953125-10.976563 1.640625-4.398437 6.511719-6.65625 10.925781-5.066406l31.746094 12.03125c.191406.554688.332032 1.125.425782 1.707032.511718 3.070312 1.023437 6.144531 1.28125 9.214843.253906 2.390625.425781 4.78125.511718 7.253907zm0 0"/></g><path d="m162.175781 159.414062v2.730469c.003907 9.054688-3.589843 17.738281-9.992187 24.140625s-15.085938 9.996094-24.140625 9.992188h-8.53125c-5.160157.050781-10.253907-1.152344-14.847657-3.496094 10.878907-21.527344 33.429688-34.609375 57.511719-33.367188zm0 0" fill="#0377bc"/><path d="m273.109375 159.925781v2.21875c.003906 9.054688-3.589844 17.738281-9.992187 24.140625-6.402344 6.402344-15.085938 9.996094-24.140626 9.992188h-8.53125c-7.550781.03125-14.890624-2.496094-20.824218-7.167969 9.644531-15.785156 28.332031-32.425781 63.488281-29.183594zm0 0" fill="#0377bc"/><path d="m128.042969 204.8125h-8.53125c-23.554688-.027344-42.640625-19.113281-42.667969-42.667969v-8.53125c.007812-9.421875 7.644531-17.058593 17.066406-17.066406h59.734375c9.421875.007813 17.058594 7.644531 17.066407 17.066406v8.53125c-.027344 23.554688-19.113282 42.640625-42.667969 42.667969zm-34.132813-51.199219v8.53125c.015625 14.132813 11.46875 25.585938 25.601563 25.601563h8.53125c14.132812-.015625 25.585937-11.46875 25.601562-25.601563v-8.53125zm0 0" fill="#35495e"/><path d="m238.976562 204.8125h-8.53125c-23.554687-.027344-42.640624-19.113281-42.667968-42.667969v-8.53125c.007812-9.421875 7.644531-17.058593 17.066406-17.066406h59.734375c9.421875.007813 17.054687 7.644531 17.066406 17.066406v8.53125c-.027343 23.554688-19.113281 42.640625-42.667969 42.667969zm-34.132812-51.199219v8.53125c.015625 14.132813 11.46875 25.585938 25.601562 25.601563h8.53125c14.132813-.015625 25.585938-11.46875 25.601563-25.601563v-8.53125zm0 0" fill="#35495e"/><path d="m358.445312 366.945312c0 4.714844-3.820312 8.535157-8.535156 8.535157-4.710937 0-8.53125-3.820313-8.53125-8.535157 0-4.710937 3.820313-8.53125 8.53125-8.53125 4.714844 0 8.535156 3.820313 8.535156 8.53125zm0 0" fill="#fb7b76"/><path d="m51.925781 204.8125h-17.75c-14.128906-.015625-25.582031-11.46875-25.597656-25.601562.066406-14.109376 11.488281-25.53125 25.597656-25.597657h17.664063c4.714844 0 8.535156 3.820313 8.535156 8.53125 0 4.714844-3.820312 8.535157-8.535156 8.535157h-17.578125c-2.25-.039063-4.417969.847656-6 2.449218-1.675781 1.578125-2.621094 3.78125-2.617188 6.082032.003907 4.714843 3.820313 8.53125 8.53125 8.535156h17.75c4.714844 0 8.535157 3.820312 8.535157 8.53125 0 4.714844-3.820313 8.535156-8.535157 8.535156zm0 0"/><path d="m324.3125 204.8125h-17.75c-4.714844 0-8.535156-3.820312-8.535156-8.535156 0-4.710938 3.820312-8.53125 8.535156-8.53125h17.75c4.710938-.003906 8.527344-3.820313 8.53125-8.535156.019531-2.222657-.863281-4.359376-2.449219-5.914063-1.582031-1.675781-3.78125-2.621094-6.082031-2.617187h-17.664062c-4.714844 0-8.535157-3.820313-8.535157-8.535157 0-4.710937 3.820313-8.53125 8.535157-8.53125h17.578124c14.144532.019531 25.617188 11.453125 25.683594 25.597657-.015625 14.132812-11.46875 25.585937-25.597656 25.601562zm0 0"/><path d="m324.234375 170.679688c-.167969 0-.332031-.007813-.5-.015626-4.699219-.273437-8.289063-4.300781-8.019531-9 .070312-1.601562.0625-11.019531.0625-12.316406-1.28125-74.183594-62.347656-133.34375-136.535156-132.269531-74.183594-1.074219-135.25 58.085937-136.53125 132.269531 0 1.304688-.007813 10.730469.066406 12.324219.140625 4.621094-3.425782 8.515625-8.046875 8.777344-4.617188.261719-8.601563-3.203125-8.988281-7.8125-.089844-1.507813-.097657-11.875-.097657-13.289063 1.289063-83.605468 69.992188-150.398437 153.597657-149.3359372 83.609374-1.0624998 152.3125 65.7304692 153.601562 149.3359372 0 1.414063-.007812 11.78125-.097656 13.289063-.261719 4.511719-3.992188 8.035156-8.511719 8.042969zm0 0"/><path d="m153.644531 362.679688c-4.714843 0-8.535156-3.820313-8.535156-8.535157v-66.300781c0-4.714844 3.820313-8.535156 8.535156-8.535156 4.710938 0 8.53125 3.820312 8.53125 8.535156v66.300781c0 4.714844-3.820312 8.535157-8.53125 8.535157zm0 0"/><path d="m204.84375 362.679688c-4.710938 0-8.53125-3.820313-8.53125-8.535157v-66.300781c0-4.714844 3.820312-8.535156 8.53125-8.535156 4.714844 0 8.535156 3.820312 8.535156 8.535156v66.300781c0 4.714844-3.820312 8.535157-8.535156 8.535157zm0 0"/><path d="m332.84375 512.011719h-307.199219c-14.132812-.015625-25.5859372-11.46875-25.6015622-25.597657v-51.203124c-.125-51.308594 35.0507812-95.972657 84.9609372-107.882813 4.582032-1.105469 9.195313 1.71875 10.296875 6.300781 1.105469 4.585938-1.714843 9.195313-6.296875 10.300782-42.234375 10.074218-72 47.863281-71.894531 91.28125v51.203124c.003906 4.710938 3.824219 8.527344 8.535156 8.53125h307.199219c2.96875-.015624 5.714844-1.578124 7.242188-4.125 2.527343-3.867187 7.675781-5.019531 11.609374-2.601562 3.9375 2.421875 5.234376 7.535156 2.925782 11.535156-4.613282 7.617188-12.871094 12.265625-21.777344 12.257813zm0 0"/><path d="m314.582031 366.433594c-2.054687.003906-4.039062-.734375-5.589843-2.082032-11.328126-9.878906-24.867188-16.886718-39.476563-20.425781-4.460937-1.195312-7.160156-5.71875-6.09375-10.210937 1.0625-4.492188 5.507813-7.324219 10.027344-6.390625 17.285156 4.171875 33.3125 12.449219 46.722656 24.125 2.695313 2.335937 3.65625 6.097656 2.410156 9.433593-1.246093 3.339844-4.4375 5.550782-8 5.550782zm0 0"/><path d="m145.109375 443.746094c-.207031 0-.414063-.007813-.625-.023438-2.804687-.203125-5.332031-1.777344-6.75-4.210937l-59.730469-102.398438c-1.25-2.148437-1.5-4.730469-.691406-7.074219.804688-2.347656 2.59375-4.226562 4.898438-5.152343l36.242187-14.492188c7.492187-2.960937 16.035156-.308593 20.53125 6.375l47.359375 71.042969c2.0625 3.09375 1.886719 7.164062-.433594 10.070312l-34.132812 42.664063c-1.621094 2.023437-4.074219 3.199219-6.667969 3.199219zm-47.375-106.683594 48.484375 83.109375 22.46875-28.085937-43.902344-65.84375zm0 0"/><path d="m213.378906 443.746094c-2.59375 0-5.046875-1.175782-6.667968-3.199219l-34.132813-42.667969c-2.316406-2.90625-2.492187-6.976562-.433594-10.070312l47.359375-71.039063c4.496094-6.695312 13.050782-9.34375 20.542969-6.367187l36.230469 14.484375c2.304687.921875 4.09375 2.800781 4.902344 5.148437.808593 2.347656.554687 4.929688-.691407 7.074219l-59.734375 102.402344c-1.417968 2.429687-3.941406 4.003906-6.75 4.207031-.210937.019531-.417968.027344-.625.027344zm-23.578125-51.660156 22.46875 28.085937 48.484375-83.109375-27.050781-10.816406zm0 0"/><path d="m179.242188 512.011719c-4.710938 0-8.53125-3.820313-8.53125-8.53125v-110.933594c0-4.714844 3.820312-8.535156 8.53125-8.535156 4.714843 0 8.535156 3.820312 8.535156 8.535156v110.933594c0 4.710937-3.820313 8.53125-8.535156 8.53125zm0 0"/><path d="m221.910156 469.347656c0 4.710938-3.820312 8.53125-8.53125 8.53125-4.714844 0-8.535156-3.820312-8.535156-8.53125 0-4.714844 3.820312-8.535156 8.535156-8.535156 4.710938 0 8.53125 3.820312 8.53125 8.535156zm0 0"/><path d="m358.445312 366.945312c0 4.714844-3.820312 8.535157-8.535156 8.535157-4.710937 0-8.53125-3.820313-8.53125-8.535157 0-4.710937 3.820313-8.53125 8.53125-8.53125 4.714844 0 8.535156 3.820313 8.535156 8.53125zm0 0"/><path d="m442.15625 512.011719c-10.355469.5625-20.640625-2.039063-29.484375-7.457031-4.238281-3.476563-10.34375-3.476563-14.582031 0-8.847656 5.417968-19.132813 8.019531-29.492188 7.457031-28.496094 0-69.886718-42.414063-69.886718-108.882813 0-53.058594 18.839843-78.851562 57.601562-78.851562 12.695312.125 25 4.398437 35.039062 12.167968 2.800782 2.410157 6.152344 4.09375 9.757813 4.902344 1.117187-.046875 2.21875-.28125 3.257813-.695312 4.4375-1.589844 9.328124.714844 10.917968 5.152344 1.59375 4.4375-.710937 9.324218-5.148437 10.917968-2.886719 1.082032-5.941407 1.65625-9.027344 1.691406-7.082031-.546874-13.824219-3.277343-19.289063-7.816406-7.238281-5.835937-16.214843-9.09375-25.507812-9.25-21.050781 0-40.535156 7.480469-40.535156 61.78125 0 56.957032 34.199218 91.816406 52.820312 91.816406 7.34375.53125 14.664063-1.273437 20.917969-5.15625 9.558594-6.546874 22.15625-6.546874 31.714844 0 6.257812 3.882813 13.582031 5.691407 20.925781 5.15625 18.621094 0 52.820312-34.859374 52.820312-91.816406 0-58.417968-24.089843-60.558594-34.382812-61.476562-3.035156-.269532-5.699219-2.140625-6.980469-4.90625-1.285156-2.765625-.996093-6.007813.757813-8.5 1.753906-2.496094 4.703125-3.863282 7.738281-3.59375 33.601563 2.992187 49.933594 28.660156 49.933594 78.476562 0 66.46875-41.390625 108.882813-69.886719 108.882813zm0 0"/><path d="m401.121094 358.414062c-2.621094-.003906-5.097656-1.210937-6.714844-3.273437-1.617188-2.058594-2.199219-4.75-1.578125-7.292969 3.675781-21.664062-1.996094-43.871094-15.609375-61.113281-1.832031-2.441406-2.21875-5.671875-1.023438-8.472656 1.199219-2.804688 3.800782-4.757813 6.828126-5.121094 3.027343-.363281 6.019531.914063 7.847656 3.351563 16.679687 21.34375 23.421875 48.808593 18.515625 75.449218-.941407 3.800782-4.351563 6.46875-8.265625 6.472656zm0 0"/><path d="m421.261719 358.402344c-7.480469.011718-14.933594-.835938-22.21875-2.53125-3.738281-.964844-6.363281-4.316406-6.40625-8.175782-.015625-1.566406-.125-38.5 23.058593-56.683593 23.183594-18.183594 59.039063-9.234375 60.550782-8.847657 3.738281.960938 6.363281 4.3125 6.40625 8.171876.015625 1.570312.125 38.5-23.066406 56.675781-11.164063 7.929687-24.644532 11.933593-38.324219 11.390625zm-11.09375-17.832032c9.648437 1.324219 27.316406 2.089844 38.882812-6.992187h.007813c11.574218-9.074219 15.042968-26.433594 16.082031-36.117187-9.648437-1.292969-27.347656-2.09375-38.914063 6.984374-11.492187 9.007813-14.992187 26.425782-16.058593 36.125zm0 0"/><path d="m349.917969 460.8125c-3.234375.003906-6.191407-1.824219-7.640625-4.714844-9.324219-18.660156-9.433594-53.542968-9.433594-55.019531 0-4.710937 3.820312-8.53125 8.535156-8.53125 4.710938 0 8.53125 3.820313 8.53125 8.53125-.246094 16.121094 2.335938 32.160156 7.632813 47.382813 1.324219 2.644531 1.183593 5.785156-.371094 8.300781-1.550781 2.515625-4.296875 4.046875-7.253906 4.050781zm0 0"/><path d="m40.992188 368.992188c-1.894532.003906-3.738282-.628907-5.230469-1.796876-27.824219-21.667968-35.289063-62.859374-17.75-97.933593 15.507812-31.007813 7.875-70.914063 7.796875-71.316407-.832032-4.582031 2.160156-8.984374 6.726562-9.898437 4.566406-.910156 9.019532 2.007813 10.007813 6.558594.375 1.855469 8.902343 45.957031-9.265625 82.289062-13.917969 27.835938-8.46875 60.144531 12.96875 76.835938 2.878906 2.238281 4.015625 6.058593 2.828125 9.507812-1.1875 3.445313-4.429688 5.761719-8.078125 5.757813zm0 0"/><path d="m336 344.757812c-2.859375 0-5.527344-1.433593-7.105469-3.816406-1.582031-2.382812-1.863281-5.398437-.75-8.03125 7.152344-18.214844 6.085938-38.632812-2.925781-56-18.175781-36.351562-9.648438-80.449218-9.277344-82.308594.988282-4.550781 5.445313-7.46875 10.011719-6.558593 4.566406.914062 7.558594 5.316406 6.722656 9.898437-.074219.402344-7.707031 40.308594 7.800781 71.316406 11.222657 21.839844 12.457032 47.46875 3.382813 70.285157-1.332031 3.160156-4.425781 5.214843-7.859375 5.214843zm0 0"/><path d="m179.242188 298.679688c-9.105469.011718-18.195313-.804688-27.15625-2.441407-52.230469-8.277343-94.335938-47.1875-106.707032-98.601562-.816406-3.722657-1.46875-7.5-1.925781-11.359375-.480469-4.355469-.726563-8.738282-.742187-13.125-.019532-4.019532.199218-8.035156.65625-12.03125.234374-2.867188.75-6.058594 1.28125-9.257813.714843-3.640625 1.492187-6.617187 2.273437-9.582031l4.46875-24.34375c.605469-3.300781 3.089844-5.9375 6.347656-6.742188 66.953125-16.507812 78.726563-52.363281 79.203125-53.882812 1-3.257812 3.835938-5.617188 7.222656-6.007812 3.382813-.40625 6.675782 1.253906 8.363282 4.207031 1.292968 2.21875 33.109375 54.769531 128.417968 46.933593 2.769532-.265624 5.492188.867188 7.253907 3.027344 9.695312 11.234375 17.632812 23.875 23.539062 37.492188.808594 2.921875 1.441407 5.574218 1.992188 8.222656.652343 3.875 1.167969 7.066406 1.433593 10.265625.4375 3.886719.640626 7.792969.613282 11.699219-.011719 4.351562-.257813 8.695312-.734375 13.019531-.464844 4.015625-1.109375 7.964844-1.933594 11.808594-12.578125 51.222656-54.613281 89.933593-106.699219 98.257812-8.960937 1.636719-18.054687 2.453125-27.167968 2.441407zm-115.765626-152.273438c-.730468 2.773438-1.441406 5.460938-1.992187 8.207031-.449219 2.765625-.914063 5.492188-1.132813 8.226563-.402343 3.421875-.59375 6.867187-.574218 10.3125.011718 3.75.226562 7.492187.632812 11.21875.382813 3.199218.929688 6.417968 1.640625 9.65625 10.9375 44.683594 47.691407 78.390625 93.152344 85.425781 15.898437 2.867187 32.183594 2.867187 48.082031 0 45.324219-7.074219 82.011719-40.585937 93.152344-85.082031.699219-3.285156 1.257812-6.683594 1.648438-10.082032.402343-3.699218.613281-7.414062.625-11.136718.023437-3.335938-.15625-6.667969-.542969-9.984375-.25-3.066407-.714844-5.789063-1.164063-8.523438-.46875-2.273437-1.019531-4.574219-1.652344-6.867187-4.503906-10.101563-10.402343-19.523438-17.523437-27.988282-76 5.015626-115.265625-26.257812-131.277344-44.097656-9.566406 14.679688-31.53125 37.664063-79.363281 50.679688l-3.542969 19.300781-.007812.074219-.007813.011718v.007813c-.042968.214844-.097656.429687-.152344.640625zm0 0"/><path d="m128.042969 204.8125h-8.53125c-23.554688-.027344-42.640625-19.113281-42.667969-42.667969v-8.53125c.011719-9.421875 7.648438-17.054687 17.066406-17.066406h59.734375c9.421875.011719 17.054688 7.644531 17.066407 17.066406v8.53125c-.027344 23.554688-19.113282 42.640625-42.667969 42.667969zm-34.132813-51.199219v8.53125c.015625 14.132813 11.46875 25.585938 25.601563 25.601563h8.53125c14.132812-.015625 25.585937-11.46875 25.601562-25.601563v-8.53125zm0 0"/><path d="m238.976562 204.8125h-8.53125c-23.554687-.027344-42.640624-19.113281-42.667968-42.667969v-8.53125c.011718-9.421875 7.644531-17.054687 17.066406-17.066406h59.734375c9.417969.011719 17.054687 7.644531 17.066406 17.066406v8.53125c-.027343 23.554688-19.113281 42.640625-42.667969 42.667969zm-34.132812-51.199219v8.53125c.015625 14.132813 11.46875 25.585938 25.601562 25.601563h8.53125c14.132813-.015625 25.585938-11.46875 25.601563-25.601563v-8.53125zm0 0"/><path d="m198.210938 156.929688c-2.113282.003906-4.152344-.78125-5.71875-2.199219-7.375-7.054688-18.996094-7.054688-26.375 0-2.253907 2.097656-5.460938 2.820312-8.398438 1.886719-2.933594-.933594-5.140625-3.375-5.769531-6.390626-.628907-3.015624.417969-6.136718 2.734375-8.164062 13.859375-12.953125 35.382812-12.953125 49.242187 0 2.621094 2.367188 3.511719 6.101562 2.246094 9.398438-1.265625 3.292968-4.433594 5.46875-7.964844 5.46875zm0 0"/><path d="m52.011719 169.484375c-4.125.003906-7.660157-2.9375-8.40625-6.996094-.742188-4.058593 1.523437-8.066406 5.382812-9.519531l36.265625-13.738281c2.851563-1.082031 6.066406-.558594 8.425782 1.371093 2.363281 1.929688 3.515624 4.972657 3.023437 7.980469-.488281 3.011719-2.546875 5.53125-5.398437 6.613281l-36.265626 13.738282c-.96875.363281-1.992187.550781-3.027343.550781zm0 0"/><path d="m306.476562 169.484375c-1.035156 0-2.058593-.1875-3.027343-.550781l-36.265625-13.738282c-4.40625-1.671874-6.628906-6.597656-4.957032-11.007812 1.671876-4.410156 6.597657-6.628906 11.007813-4.957031l36.265625 13.738281c3.859375 1.457031 6.121094 5.464844 5.378906 9.519531-.742187 4.054688-4.28125 7-8.402344 6.996094zm0 0"/></svg>